<svg xmlns="http://www.w3.org/2000/svg" version="1.1" xmlns:xlink="http://www.w3.org/1999/xlink" xmlns:svgjs="http://svgjs.dev/svgjs" width="950" height="375" id="chartSvg"><path d="M99,285 L97,286 L95,287 L96,282 L98,274 L103,262 L108,246 L114,229 L121,212 L127,197 L132,185 L139,173 L144,163 L149,155 L155,149 L160,146 L163,147 L166,151 L168,157 L170,167 L170,180 L168,198 L166,219 L163,241 L163,263 L164,280 L167,295 L173,303 L179,305 L185,304 L190,299 L196,291 L202,282 L208,271 L215,258 L221,242 L229,224 L237,208 L244,196 L251,188 L254,183 L258,178 L263,173 L267,168 L271,166 L273,164 L275,165 L278,167 L280,170 L283,173 L287,178 L290,185 L293,195 L295,209 L298,225 L299,241 L301,256 L305,268 L310,276 L315,279 L322,279 L327,275 L333,268 L340,256 L347,244 L353,231 L360,219 L365,210 L371,203 L376,198 L381,194 L383,193 L386,193 L388,196 L389,201 L390,209 L390,218 L388,231 L387,243 L387,254 L388,262 L389,268 L391,275 L393,279 L395,281 L397,281 L400,277 L403,272 L408,266 L413,260 L418,254 L423,246 L429,238 L435,233 L438,229 L442,226 L446,223 L448,222 L450,221 L452,221 L453,222 L455,222 L457,222 L460,222 L462,222 L465,222 L468,223 L471,224 L472,227 L473,230 L474,236 L474,244 L472,254 L471,264 L471,269 L471,273 L472,274 L472,275 L473,274 L474,271 L476,264 L479,254 L484,239 L491,223 L499,210 L507,198 L513,187 L522,176 L530,166 L538,157 L545,153 L550,150 L554,150 L557,150 L559,150 L561,151 L561,154 L561,157 L561,161 L560,167 L558,174 L555,184 L550,196 L546,210 L543,224 L540,239 L537,254 L534,270 L533,284 L533,295 L534,303 L535,311 L537,318 L538,325 L539,332 L540,337 L540,341 L541,342 L542,342 L543,339 L545,334 L547,327 L551,320 L556,309 L562,295 L566,281 L570,264 L576,247 L581,233 L585,223 L589,215 L593,206 L598,195 L603,183 L608,175 L613,170 L616,166 L619,164 L622,161 L625,159 L627,159 L629,160 L630,163 L631,166 L631,171 L631,175 L631,180 L631,187 L629,195 L628,204 L627,213 L627,220 L628,226 L630,231 L633,235 L635,238 L638,241 L640,243 L643,243 L646,241 L651,237 L655,232 L660,227 L665,222 L670,217 L674,210 L679,203 L684,197 L689,191 L692,187 L694,186 L695,186 L696,186 L698,186 L700,186 L701,188 L702,190 L704,193 L705,196 L706,200 L707,205 L708,210 L710,214 L711,218 L712,222 L713,226 L713,231 L714,234 L714,236 L715,236 L715,237 L715,236 L716,234 L718,229 L720,224 L723,219 L726,214 L728,209 L730,203 L733,195 L737,186 L740,177 L742,168 L744,161 L745,154 L748,145 L752,135 L755,125 L759,116 L762,109 L765,102 L769,92 L774,83 L779,73 L784,65 L787,60 L791,56 L795,51 L799,46 L804,41 L807,38 L810,36 L813,35 L816,35 L818,36 L819,38 L821,40 L822,44 L824,47 L824,52 L824,58 L823,66 L821,74 L819,84 L816,95 L814,105 L812,116 L810,127 L809,136 L809,143 L809,149 L811,154 L813,156 L816,157 L820,156 L824,153 L830,149 L836,145 L841,141 L847,138 L852,136 L855,136 L858,136 L861,138 L863,141 L865,144 L866,149 L866,156 L866,165 L865,174 L865,180 L867,183 L870,182 L873,177 L880,170 L888,163 L896,158 L904,155 L909,152 L912,149 L914,146 L915,146 L915,145" fill="none" stroke="red" stroke-width="3"/></svg>