<svg xmlns="http://www.w3.org/2000/svg" version="1.1" xmlns:xlink="http://www.w3.org/1999/xlink" xmlns:svgjs="http://svgjs.dev/svgjs" width="950" height="375" id="chartSvg"><path d="M13,187 L13,188 L12,193 L12,198 L12,205 L12,217 L12,224 L12,227 L12,228 L12,226 L12,220 L12,213 L12,205 L12,196 L12,187 L12,178 L12,172 L11,168 L11,174 L10,186 L10,200 L10,214 L11,224 L10,230 L10,234 L10,231 L10,223 L10,212 L10,201 L10,193 L10,188 L10,185 L10,187 L11,199 L12,217 L13,234 L14,243 L14,244 L14,241 L14,234 L13,222 L12,210 L12,195 L12,184 L12,182 L12,183 L12,187 L11,197 L10,208 L10,220 L10,225 L10,226 L10,222 L10,214 L10,205 L10,195 L9,187 L8,184 L8,188 L8,196 L8,205 L9,211 L9,212 L9,211 L9,207 L9,200 L8,192 L7,184 L7,180 L7,179 L7,180 L6,185 L6,197 L6,211 L7,225 L7,233 L6,235 L7,230 L8,223 L9,215 L9,205 L9,198 L9,193 L8,191 L8,193 L9,202 L9,215 L11,227 L12,237 L13,246 L13,253 L14,257 L14,253 L14,243 L14,230 L14,218 L13,209 L12,203 L12,201 L12,204 L12,216 L12,235 L13,259 L13,277 L13,285 L13,290 L13,291 L12,289 L12,281 L11,268 L11,254 L10,237 L9,221 L9,215 L9,216 L9,219 L9,231 L9,248 L11,269 L11,286 L11,294 L11,295 L12,293 L12,283 L12,267 L12,249 L12,227 L13,208 L13,195 L14,186 L14,183 L14,185 L13,192 L12,205 L12,219 L14,233 L14,242 L15,244 L16,242 L16,235 L17,225 L17,212 L17,202 L16,198 L16,201 L16,212 L17,230 L18,249 L19,259 L19,264 L19,265 L19,263 L19,254 L20,240 L20,223 L21,208 L21,203 L21,204 L21,208 L20,220 L20,239 L20,260 L20,274 L20,276 L20,274 L21,268 L21,256 L20,239 L19,218 L18,202 L17,195 L17,196 L16,207 L16,227 L16,246 L16,263 L16,273 L16,275 L17,273 L18,265 L19,250 L20,232 L21,211 L22,201 L22,206 L22,220 L22,239 L22,261 L23,276 L23,280 L24,279 L25,274 L25,262 L25,249 L25,235 L25,224 L26,219 L26,220 L26,225 L27,239 L29,254 L30,269 L31,278 L32,279 L32,276 L32,270 L32,258 L31,244 L29,229 L28,221 L28,218 L28,220 L28,228 L29,242 L31,257 L33,268 L33,271 L33,269 L33,264 L33,254 L33,242 L33,229 L33,222 L33,221 L33,225 L35,237 L36,252 L37,266 L38,274 L38,272 L39,265 L38,252 L38,242 L37,234 L37,232 L37,233 L37,240 L38,253 L39,266 L39,276 L39,281 L40,278 L41,270 L41,259 L40,248 L39,239 L39,236 L39,237 L39,245 L40,258 L40,271 L40,283 L40,289 L40,291 L40,288 L40,278 L40,266 L39,251 L38,237 L37,229 L37,232 L37,240 L37,250 L37,256 L37,252 L38,245 L38,235 L38,222 L38,213 L38,210 L38,212 L38,220 L39,233 L39,244 L40,251 L40,252 L41,249 L41,243 L42,233 L42,222 L42,211 L43,207 L43,213 L43,224 L43,236 L43,245 L43,250 L44,246 L46,238 L46,229 L46,221 L46,215 L45,213 L44,217 L44,227 L44,242 L44,256 L45,261 L46,259 L47,254 L47,244 L47,234 L46,223 L44,214 L43,210 L42,212 L41,221 L41,234 L40,245 L39,254 L39,257 L39,256 L39,249 L39,237 L39,224 L39,211 L39,201 L39,198 L39,200 L39,210 L38,225 L38,240 L38,252 L38,255 L39,254 L41,246 L42,234 L43,219 L43,204 L42,196 L42,195 L41,198 L40,209 L39,225 L39,241 L39,248 L39,249 L40,246 L41,241 L41,230 L42,217 L42,203 L42,193 L42,190 L42,191 L42,197 L41,211 L41,226 L41,238 L41,242 L42,241 L43,235 L44,224 L45,212 L45,198 L45,187 L46,183 L46,184 L46,192 L46,207 L47,222 L47,234 L47,237 L48,237 L48,232 L49,222 L50,210 L50,198 L49,187 L49,181 L49,182 L48,188 L48,201 L48,214 L50,222 L51,224 L51,222 L52,217 L52,206 L52,191 L53,175 L53,163 L53,161 L53,162 L52,171 L52,185 L51,198 L51,209 L51,214 L51,211 L51,202 L52,190 L53,174 L52,158 L52,152 L52,151 L52,152 L51,158 L50,171 L50,186 L50,197 L51,199 L51,197 L53,191 L54,182 L56,170 L56,158 L56,149 L56,146 L56,149 L56,161 L55,181 L55,202 L55,217 L55,223 L55,224 L56,222 L56,212 L57,197 L57,180 L55,161 L54,149 L54,146 L54,151 L53,167 L54,190 L55,210 L56,221 L56,223 L56,222 L57,217 L58,205 L58,189 L58,170 L58,156 L58,154 L58,157 L59,170 L59,189 L60,210 L60,229 L60,239 L60,241 L61,239 L61,231 L61,217 L61,200 L60,185 L60,176 L59,175 L59,180 L58,196 L59,218 L61,241 L61,254 L63,257 L64,255 L65,248 L66,235 L66,222 L66,207 L66,194 L66,191 L67,193 L67,203 L68,218 L69,232 L69,241 L70,244 L70,243 L70,240 L71,230 L71,217 L71,199 L70,183 L70,178 L70,179 L69,185 L68,200 L68,217 L69,231 L69,237 L70,236 L70,231 L70,222 L70,210 L70,198 L69,187 L68,180 L68,178 L67,181 L66,190 L66,200 L65,207 L65,210 L65,211 L65,210 L66,207 L66,202 L67,195 L68,188 L68,185 L68,184 L67,188 L66,198 L66,209 L66,220 L65,226 L65,227 L65,225 L66,220 L68,211 L69,202 L70,195 L71,193 L71,200 L71,210 L71,220 L71,224 L72,224 L73,220 L74,212 L75,203 L75,195 L74,190 L74,195 L74,207 L74,220 L74,228 L74,229 L75,228 L76,222 L77,211 L78,198 L78,185 L78,178 L78,179 L78,183 L77,194 L76,208 L76,220 L76,224 L76,223 L77,220 L78,210 L79,197 L79,185 L80,180 L79,183 L78,195 L78,209 L78,220 L79,223 L80,221 L81,215 L83,203 L84,189 L85,177 L85,171 L85,173 L85,181 L85,195 L83,210 L81,224 L80,229 L79,229 L81,224 L83,213 L85,198 L85,180 L85,168 L85,165 L85,167 L83,176 L82,193 L80,212 L79,228 L79,232 L81,231 L84,224 L87,210 L89,192 L89,173 L90,161 L90,160 L90,163 L88,174 L86,193 L85,211 L83,223 L83,226 L83,225 L85,220 L86,207 L87,191 L86,171 L85,162 L84,165 L83,174 L81,191 L80,210 L78,227 L78,234 L78,233 L79,229 L80,218 L81,204 L82,188 L81,173 L80,167 L80,168 L79,176 L78,193 L78,212 L78,228 L78,233 L80,232 L80,228 L81,217 L80,203 L79,185 L79,177 L80,178 L81,185 L82,198 L84,213 L85,225 L86,229 L87,230 L88,227 L90,219 L91,205 L92,190 L93,183 L94,183 L94,185 L94,194 L95,207 L95,220 L96,226 L97,227 L99,223 L100,214 L100,201 L100,187 L98,178 L98,185 L99,200 L100,214 L100,224 L100,228 L100,227 L101,222 L102,211 L102,197 L102,183 L102,178 L103,179 L103,186 L104,200 L105,215 L104,225 L105,227 L105,226 L107,220 L108,208 L108,193 L108,175 L108,164 L108,168 L107,180 L105,195 L105,208 L104,214 L105,213 L106,210 L107,200 L109,183 L109,161 L109,145 L109,141 L109,144 L108,155 L107,174 L105,195 L103,210 L102,215 L103,209 L105,195 L107,175 L108,150 L108,128 L109,113 L109,110 L108,114 L105,134 L102,161 L100,188 L98,205 L98,209 L99,208 L100,203 L102,189 L104,172 L106,150 L107,128 L107,110 L107,105 L107,107 L105,119 L102,142 L101,166 L99,189 L97,200 L97,201 L98,200 L100,189 L102,170 L104,148 L105,130 L105,117 L105,109 L105,108 L103,114 L101,136 L100,163 L100,187 L98,202 L97,210 L99,207 L101,196 L103,183 L106,170 L107,162 L108,161 L108,162 L107,173 L106,190 L105,207 L105,217 L105,220 L105,219 L106,214 L107,203 L108,189 L108,173 L108,167 L108,168 L109,174 L110,188 L110,203 L110,214 L110,219 L110,216 L112,207 L112,195 L114,182 L115,174 L116,173 L117,178 L119,188 L120,201 L120,214 L120,220 L120,222 L120,221 L120,215 L120,205 L120,190 L120,178 L121,174 L121,175 L122,180 L123,193 L124,206 L124,216 L123,221 L123,222 L123,219 L123,211 L124,198 L124,183 L124,170 L124,168 L124,169 L125,178 L126,192 L126,207 L124,218 L124,222 L124,221 L124,217 L126,207 L127,193 L128,176 L128,167 L128,166 L128,169 L128,180 L127,195 L126,212 L124,222 L124,225 L124,224 L126,219 L127,207 L129,191 L130,171 L131,156 L131,155 L131,157 L130,169 L128,187 L127,202 L127,210 L128,212 L129,211 L130,207 L132,193 L134,176 L134,158 L135,154 L135,156 L134,169 L132,188 L130,206 L129,220 L128,226 L128,224 L128,213 L129,197 L129,179 L128,166 L127,165 L127,168 L124,178 L122,194 L120,211 L119,220 L119,222 L119,221 L120,215 L121,201 L121,183 L121,167 L121,163 L121,165 L120,170 L119,183 L117,199 L115,214 L115,219 L116,220 L117,217 L118,210 L118,197 L118,184 L118,179 L118,180 L117,185 L114,195 L113,209 L113,220 L114,224 L114,225 L115,223 L116,214 L115,201 L112,186 L110,180 L110,183 L109,196 L109,212 L108,228 L108,236 L110,236 L112,232 L114,222 L115,208 L115,193 L114,179 L114,176 L115,178 L117,188 L121,200 L123,210 L125,216 L126,217 L127,217 L128,215 L129,207 L131,195 L133,184 L134,180 L134,181 L134,186 L134,199 L135,212 L136,223 L137,227 L137,228 L137,226 L137,219 L138,207 L139,194 L139,184 L140,183 L140,185 L139,191 L139,204 L139,218 L139,227 L138,230 L138,229 L139,225 L139,215 L140,202 L141,189 L141,182 L141,183 L142,187 L142,198 L143,211 L142,223 L141,231 L141,232 L142,231 L144,224 L145,213 L146,200 L147,188 L148,187 L148,190 L147,200 L147,214 L146,227 L144,237 L144,240 L144,239 L145,234 L147,224 L148,212 L149,197 L150,188 L150,189 L150,195 L150,209 L149,224 L147,242 L146,252 L146,254 L147,253 L149,246 L150,233 L151,217 L152,199 L153,191 L154,192 L154,197 L154,211 L154,227 L153,243 L151,254 L151,257 L152,255 L154,247 L156,232 L159,214 L161,198 L163,193 L163,195 L163,205 L162,222 L160,239 L157,254 L156,262 L156,259 L156,248 L156,231 L154,214 L152,203 L152,204 L151,209 L151,225 L150,243 L149,257 L149,262 L149,261 L149,257 L149,244 L149,228 L146,209 L144,197 L144,198 L144,202 L143,215 L143,232 L143,249 L142,261 L142,263 L142,261 L143,252 L143,236 L141,217 L139,199 L138,196 L138,199 L139,212 L141,231 L144,248 L147,258 L149,259 L151,256 L154,244 L155,230 L155,215 L156,204 L157,203 L158,207 L159,221 L160,239 L161,253 L161,263 L161,267 L161,266 L162,260 L162,246 L163,230 L163,215 L163,212 L163,215 L163,228 L162,246 L162,263 L161,276 L161,281 L161,282 L161,278 L161,266 L161,252 L161,237 L160,230 L160,233 L161,245 L162,263 L162,280 L162,295 L161,304 L161,305 L163,301 L164,288 L165,271 L165,255 L166,251 L166,254 L165,262 L165,275 L164,288 L163,298 L162,300 L162,299 L162,294 L163,281 L163,264 L163,244 L163,239 L164,243 L165,254 L165,271 L165,285 L164,293 L164,294 L165,291 L166,281 L167,265 L168,249 L170,238 L172,237 L173,242 L174,255 L174,269 L172,282 L171,291 L171,288 L172,278 L173,264 L174,252 L175,248 L175,249 L175,250 L175,249 L175,243 L175,232 L175,219 L174,207 L173,201 L173,202 L173,212 L174,226 L174,237 L174,244 L173,244 L174,242 L175,236 L176,225 L177,212 L178,202 L178,200 L178,202 L179,210 L180,222 L180,233 L180,239 L181,238 L182,234 L182,227 L183,216 L183,206 L184,202 L185,205 L186,214 L188,225 L188,233 L188,236 L189,236 L190,234 L191,227 L192,218 L193,208 L194,202 L194,201 L194,205 L193,213 L192,223 L191,229 L191,230 L191,229 L191,227 L192,221 L193,212 L193,204 L193,199 L193,204 L193,215 L192,225 L192,233 L192,234 L193,232 L194,225 L195,215 L196,203 L196,198 L196,203 L196,213 L196,223 L196,230 L197,232 L197,231 L198,228 L199,222 L200,212 L202,202 L203,199 L203,200 L202,208 L202,219 L200,230 L200,238 L200,240 L200,239 L200,236 L202,228 L203,217 L205,204 L205,200 L205,201 L205,208 L204,217 L203,225 L204,227 L206,222 L207,214 L209,203 L210,192 L211,187 L211,188 L210,193 L207,204 L206,213 L206,219 L206,221 L206,220 L207,219 L207,212 L209,201 L211,186 L212,174 L213,172 L213,173 L212,177 L212,188 L210,198 L210,206 L209,209 L209,207 L210,202 L211,190 L211,177 L212,166 L212,165 L212,169 L212,182 L211,197 L210,210 L210,216 L209,217 L209,216 L210,210 L212,200 L213,188 L214,173 L215,168 L215,171 L214,180 L213,195 L212,206 L212,212 L213,213 L214,212 L215,208 L217,197 L219,184 L220,172 L220,170 L220,173 L219,183 L218,195 L217,204 L217,210 L218,206 L219,197 L220,185 L221,179 L221,180 L221,187 L220,198 L220,210 L220,217 L220,221 L220,219 L220,212 L221,202 L222,191 L223,182 L223,181 L224,186 L224,196 L225,208 L226,217 L227,223 L228,224 L228,223 L229,220 L230,210 L231,199 L232,188 L233,186 L233,187 L233,194 L232,205 L232,215 L233,224 L233,229 L234,224 L234,214 L236,202 L237,192 L238,190 L238,191 L238,198 L237,209 L237,219 L237,226 L237,227 L236,223 L235,215 L234,204 L232,193 L230,192 L228,196 L225,206 L223,216 L222,224 L222,226 L222,225 L222,223 L222,217 L222,207 L220,198 L220,193 L218,195 L217,204 L214,217 L211,229 L209,236 L209,237 L210,234 L212,228 L213,219 L213,212 L213,210 L212,212 L210,222 L208,232 L207,240 L207,241 L210,239 L212,232 L215,222 L217,212 L217,205 L217,208 L215,217 L215,229 L214,238 L215,240 L217,239 L220,234 L222,225 L226,215 L230,208 L232,207 L233,207 L233,209 L234,212 L234,215 L234,217 L232,215 L229,214 L226,213 L223,213 L220,214 L219,214 L219,209 L219,200 L219,191 L219,183 L219,180 L220,180 L220,188 L220,200 L220,209 L220,210 L221,209 L222,204 L223,194 L223,183 L223,169 L224,156 L224,141 L224,131 L224,129 L223,129 L223,127 L224,126 L224,127 L223,136 L222,152 L220,174 L217,194 L215,206 L214,212 L214,213 L216,210 L218,201 L220,188 L221,178 L222,175 L222,177 L222,183 L221,195 L220,207 L219,216 L219,220 L220,221 L220,220 L221,217 L222,212 L223,207 L224,202 L226,201 L227,202 L227,208 L227,216 L227,223 L227,226 L228,224 L229,220 L231,213 L232,206 L234,201 L234,203 L234,211 L233,221 L233,229 L233,233 L233,232 L233,231 L233,225 L235,217 L236,207 L237,201 L237,200 L237,204 L237,213 L236,222 L236,229 L236,231 L236,230 L237,228 L237,222 L238,213 L239,205 L239,203 L239,204 L239,209 L239,219 L239,230 L239,238 L239,240 L239,239 L239,238 L239,233 L241,225 L242,216 L242,210 L242,209 L242,212 L241,220 L239,231 L238,243 L237,252 L236,259 L236,260 L237,259 L238,252 L239,242 L239,231 L239,222 L239,220 L238,223 L237,231 L236,245 L234,259 L233,271 L232,275 L233,273 L234,269 L235,260 L235,248 L235,233 L236,223 L236,227 L236,238 L236,251 L236,264 L235,272 L236,273 L237,271 L237,263 L238,252 L238,240 L238,231 L238,235 L239,244 L241,256 L243,265 L245,268 L246,267 L247,264 L249,256 L249,247 L249,236 L248,228 L248,232 L248,243 L247,255 L246,265 L244,271 L244,269 L244,263 L245,254 L245,245 L245,239 L245,238 L244,242 L242,253 L239,262 L238,268 L238,266 L239,261 L240,251 L241,244 L241,242 L241,245 L239,254 L239,262 L238,266 L238,264 L240,256 L242,246 L244,237 L246,233 L246,234 L246,241 L246,253 L246,264 L246,269 L246,270 L247,268 L249,263 L250,252 L251,240 L253,231 L254,229 L254,230 L255,237 L255,247 L255,257 L255,265 L256,268 L256,266 L257,261 L259,252 L260,242 L261,233 L262,227 L262,225 L262,231 L262,243 L262,251 L263,254 L264,252 L264,250 L264,245 L264,239 L265,232 L265,225 L266,224 L266,227 L265,229 L265,226 L265,218 L265,208 L265,202 L265,199 L265,200 L265,206 L264,220 L263,232 L261,240 L260,242 L260,240 L260,235 L261,225 L261,213 L263,205 L263,204 L263,206 L262,214 L261,227 L259,240 L258,247 L257,248 L258,246 L259,240 L261,227 L264,212 L265,199 L266,190 L265,193 L262,207 L259,225 L256,240 L255,247 L256,247 L258,244 L260,237 L264,224 L267,210 L270,198 L271,194 L271,199 L271,212 L269,226 L268,237 L268,239 L268,236 L270,227 L271,216 L271,201 L271,189 L272,188 L272,190 L272,200 L272,213 L272,225 L271,232 L271,230 L271,224 L272,215 L273,205 L274,195 L275,193 L275,195 L275,201 L274,212 L274,222 L275,227 L276,228 L278,226 L279,220 L281,211 L282,200 L283,194 L283,197 L282,207 L281,219 L278,230 L277,236 L278,234 L279,229 L281,219 L282,208 L283,202 L284,201 L284,202 L284,208 L284,220 L283,232 L283,239 L283,240 L283,238 L286,232 L288,221 L289,209 L291,199 L292,197 L293,198 L293,205 L293,217 L291,227 L291,232 L291,233 L291,231 L292,224 L294,214 L295,202 L296,195 L296,197 L296,204 L296,216 L296,227 L296,235 L296,236 L296,235 L297,232 L298,224 L298,215 L297,207 L297,205 L295,207 L294,216 L292,227 L291,237 L291,240 L291,239 L291,236 L290,229 L288,220 L287,215 L286,214 L285,216 L283,221 L281,229 L281,235 L281,236 L282,235 L283,232 L285,224 L286,216 L285,211 L283,211 L281,218 L277,229 L275,238 L275,241 L276,240 L278,237 L281,229 L283,217 L284,207 L283,200 L282,204 L281,217 L281,234 L283,247 L285,250 L287,249 L288,244 L288,234 L288,224 L286,214 L286,208 L285,207 L284,209 L283,215 L283,225 L283,231 L284,232 L286,229 L287,223 L288,214 L288,206 L286,202 L286,205 L287,214 L290,223 L293,229 L295,229 L296,227 L296,223 L296,217 L295,208 L295,200 L295,199 L295,202 L296,212 L296,224 L296,235 L295,242 L296,241 L297,235 L299,224 L300,212 L300,200 L300,196 L300,203 L300,216 L299,230 L298,240 L298,244 L299,242 L300,234 L303,224 L305,215 L305,208 L305,207 L305,210 L303,218 L303,232 L301,244 L301,250 L302,251 L304,249 L306,243 L308,236 L309,230 L309,225 L310,224 L309,233 L308,246 L306,257 L305,261 L305,260 L306,256 L308,246 L309,236 L310,226 L312,222 L312,223 L312,229 L312,240 L312,251 L310,261 L310,264 L309,264 L309,260 L310,252 L310,243 L309,234 L308,230 L308,231 L308,239 L308,254 L307,268 L306,279 L305,284 L305,285 L305,282 L306,276 L306,266 L306,255 L306,244 L305,236 L305,242 L305,257 L305,273 L305,285 L304,293 L304,295 L304,292 L305,283 L305,270 L305,254 L304,239 L304,235 L304,239 L304,253 L305,272 L305,288 L305,302 L304,311 L304,307 L305,293 L307,275 L308,257 L309,250 L309,251 L310,256 L312,268 L313,281 L315,293 L315,300 L316,302 L316,301 L315,296 L315,284 L315,268 L316,252 L316,246 L316,248 L316,257 L316,275 L316,294 L316,310 L315,317 L316,310 L317,295 L318,277 L318,260 L317,249 L317,245 L317,246 L317,249 L317,264 L317,282 L315,296 L313,303 L314,298 L315,285 L316,268 L317,248 L317,232 L317,225 L317,226 L317,228 L315,239 L314,254 L313,269 L311,278 L311,280 L311,278 L312,271 L314,257 L315,241 L316,224 L317,219 L317,220 L317,224 L317,236 L317,247 L316,255 L317,257 L319,255 L322,249 L324,238 L326,226 L327,218 L329,217 L330,218 L330,224 L330,234 L330,244 L329,249 L328,249 L328,248 L329,242 L330,234 L331,227 L331,220 L331,215 L331,213 L331,214 L331,222 L330,234 L328,246 L327,251 L327,249 L327,244 L328,238 L329,232 L330,224 L333,219 L335,218 L336,219 L337,223 L337,230 L336,238 L333,245 L330,250 L330,249 L330,248 L331,246 L333,239 L335,230 L336,224 L336,223 L335,226 L333,235 L330,247 L327,258 L326,264 L326,263 L326,261 L327,253 L327,244 L327,237 L327,235 L327,237 L327,244 L327,254 L327,262 L327,265 L327,264 L329,261 L331,251 L334,237 L336,223 L338,218 L339,219 L339,220 L338,227 L336,237 L333,247 L332,255 L332,256 L333,252 L336,244 L339,232 L341,217 L343,204 L344,198 L343,198 L342,202 L338,214 L335,230 L332,246 L330,258 L330,259 L331,258 L334,251 L338,238 L341,224 L343,211 L343,207 L342,210 L339,220 L334,238 L330,262 L327,280 L325,287 L327,286 L329,280 L330,268 L332,256 L332,247 L332,238 L333,234 L332,237 L329,246 L326,259 L322,268 L320,274 L322,270 L325,260 L328,247 L330,239 L330,238 L329,242 L328,250 L327,260 L326,268 L326,273 L327,274 L330,271 L334,263 L338,253 L340,243 L342,237 L343,238 L343,243 L342,256 L341,266 L339,272 L339,271 L339,266 L340,259 L340,250 L342,240 L343,237 L343,238 L344,244 L344,255 L344,266 L344,273 L343,274 L343,272 L344,266 L344,256 L344,244 L344,237 L344,236 L344,238 L344,245 L346,256 L347,264 L349,265 L350,263 L352,258 L352,250 L353,240 L353,232 L353,229 L353,230 L353,233 L353,244 L353,254 L352,259 L352,258 L352,255 L354,246 L356,234 L357,220 L358,210 L358,207 L358,208 L358,216 L357,233 L354,249 L352,259 L352,261 L352,259 L354,251 L357,237 L359,220 L359,201 L360,189 L360,190 L360,195 L359,210 L357,227 L354,245 L350,256 L350,258 L351,256 L354,245 L358,228 L361,207 L364,185 L366,173 L366,174 L366,179 L363,196 L359,219 L354,242 L349,256 L348,260 L349,259 L352,250 L355,232 L359,212 L361,190 L362,178 L362,177 L361,180 L357,194 L352,219 L347,245 L343,263 L342,269 L342,268 L344,262 L348,246 L353,227 L358,206 L361,193 L361,192 L361,195 L358,208 L353,224 L347,237 L345,243 L348,241 L353,233 L359,218 L364,200 L366,193 L366,195 L364,200 L360,213 L356,227 L351,240 L350,245 L353,243 L358,234 L364,218 L367,199 L370,180 L371,172 L370,173 L367,178 L362,190 L358,207 L354,220 L354,223 L354,222 L358,216 L362,202 L366,183 L371,160 L374,142 L375,139 L374,141 L371,149 L367,163 L363,182 L360,201 L357,210 L359,208 L362,198 L366,179 L369,154 L374,134 L376,125 L376,124 L375,132 L371,152 L366,178 L362,203 L358,221 L356,226 L356,225 L358,219 L361,206 L364,193 L367,181 L369,178 L368,180 L366,190 L362,210 L358,231 L354,244 L354,247 L356,245 L359,237 L363,220 L367,203 L370,189 L371,188 L371,192 L369,205 L367,222 L365,236 L364,241 L365,239 L367,234 L369,220 L372,202 L374,188 L374,185 L373,188 L371,196 L368,214 L365,233 L364,242 L364,244 L364,242 L364,238 L364,226 L365,212 L365,202 L364,202 L363,204 L363,212 L362,224 L363,235 L364,238 L366,238 L369,233 L371,224 L374,212 L374,200 L374,195 L374,202 L372,216 L371,230 L370,240 L370,242 L373,237 L376,228 L379,216 L380,204 L381,199 L380,206 L379,220 L378,234 L376,243 L376,244 L376,243 L377,239 L378,228 L379,214 L380,198 L381,192 L381,193 L382,199 L383,212 L383,226 L382,237 L381,242 L382,239 L383,230 L384,217 L386,203 L386,198 L386,199 L386,204 L386,217 L385,231 L383,244 L381,249 L381,250 L381,247 L382,239 L384,227 L385,214 L387,206 L387,212 L387,226 L387,242 L386,255 L387,259 L389,259 L392,254 L394,244 L397,233 L399,222 L401,217 L404,217 L405,225 L406,238 L406,249 L404,257 L403,259 L403,257 L401,250 L399,238 L397,222 L394,212 L391,213 L388,220 L386,230 L384,242 L384,248 L384,249 L384,248 L384,244 L383,235 L382,224 L381,218 L379,219 L377,224 L376,237 L375,247 L377,252 L380,252 L383,247 L387,237 L391,225 L393,212 L394,208 L394,210 L392,220 L390,236 L389,252 L388,264 L387,267 L388,266 L389,261 L391,250 L392,237 L392,224 L393,216 L393,221 L393,234 L395,249 L396,259 L398,263 L399,263 L400,260 L401,251 L402,237 L402,224 L402,221 L402,224 L401,235 L399,250 L397,264 L396,272 L396,275 L397,274 L399,267 L401,254 L402,241 L402,235 L401,237 L401,247 L401,262 L399,276 L398,284 L398,286 L398,284 L399,276 L401,266 L401,256 L401,249 L401,247 L401,249 L400,260 L398,277 L396,292 L395,299 L395,300 L396,299 L396,295 L398,284 L398,268 L398,253 L397,249 L396,252 L396,264 L394,283 L393,303 L391,319 L389,328 L391,324 L391,313 L392,300 L392,286 L391,275 L391,268 L392,268 L392,272 L392,286 L392,299 L392,310 L391,314 L391,312 L391,307 L393,294 L394,279 L396,269 L396,268 L395,271 L394,282 L393,299 L392,319 L391,333 L391,337 L393,334 L395,322 L396,304 L396,283 L395,265 L396,256 L397,255 L398,258 L399,270 L399,288 L399,301 L399,305 L401,304 L402,298 L403,285 L403,268 L403,247 L403,233 L404,229 L404,231 L405,237 L405,247 L405,256 L405,261 L405,260 L405,259 L406,253 L409,243 L412,233 L413,230 L413,232 L411,237 L409,246 L406,255 L406,257 L406,256 L407,255 L408,251 L408,246 L410,239 L412,232 L413,231 L414,232 L414,241 L415,253 L415,263 L416,267 L418,266 L420,263 L423,254 L425,243 L426,232 L427,227 L427,228 L426,229 L425,237 L423,247 L422,256 L421,259 L421,258 L423,256 L424,250 L426,241 L428,232 L429,228 L429,229 L429,234 L428,244 L427,254 L427,260 L426,261 L427,257 L430,247 L432,234 L433,221 L434,216 L434,217 L433,224 L432,235 L432,244 L432,246 L432,245 L434,241 L435,232 L436,221 L436,208 L436,197 L436,193 L436,198 L435,207 L434,215 L434,218 L434,217 L434,213 L435,202 L437,188 L437,174 L438,170 L438,171 L438,178 L438,193 L437,209 L435,224 L435,231 L434,231 L435,228 L437,217 L438,200 L440,180 L441,168 L441,171 L440,185 L437,207 L434,229 L430,244 L429,250 L430,249 L431,246 L434,236 L435,223 L435,214 L435,210 L433,213 L430,226 L427,243 L423,257 L421,261 L420,261 L420,259 L420,252 L420,243 L419,236 L418,234 L415,235 L412,244 L409,255 L407,263 L407,264 L410,261 L416,255 L421,244 L425,233 L429,226 L429,227 L426,233 L421,244 L416,256 L413,265 L413,267 L415,266 L419,261 L423,251 L428,241 L430,236 L426,239 L422,249 L418,263 L416,274 L417,277 L420,276 L425,269 L430,259 L434,247 L435,237 L435,234 L433,235 L430,240 L426,249 L423,256 L422,259 L423,259 L424,256 L426,246 L428,234 L430,222 L430,217 L430,218 L430,220 L429,226 L428,232 L428,235 L429,236 L431,232 L433,225 L436,214 L437,204 L437,198 L437,199 L437,204 L438,212 L438,222 L438,228 L438,230 L438,229 L438,227 L439,218 L440,207 L442,195 L442,187 L442,185 L442,188 L440,198 L437,216 L435,233 L433,240 L432,242 L432,240 L433,235 L433,226 L433,217 L432,206 L433,199 L433,200 L434,209 L435,222 L435,231 L435,234 L435,233 L436,231 L437,224 L440,212 L445,196 L450,184 L452,182 L452,183 L451,189 L449,201 L447,214 L446,223 L446,225 L447,224 L449,221 L451,212 L453,199 L454,185 L454,180 L452,185 L450,198 L448,214 L445,229 L442,238 L445,235 L447,231 L449,224 L451,208 L452,189 L452,171 L452,165 L451,166 L449,173 L446,190 L443,209 L441,222 L441,225 L442,224 L443,221 L445,210 L447,193 L449,169 L451,150 L452,144 L452,145 L450,146 L447,153 L442,169 L437,190 L433,205 L432,207 L433,205 L435,198 L437,182 L440,162 L441,140 L442,126 L441,122 L440,124 L439,136 L436,161 L435,185 L435,205 L434,215 L434,219 L434,218 L435,215 L437,203 L440,186 L442,167 L443,154 L444,152 L443,154 L441,165 L439,186 L438,207 L437,218 L437,220 L438,220 L439,217 L440,209 L442,197 L444,190 L445,190 L446,193 L447,199 L447,211 L447,222 L447,226 L448,225 L450,222 L453,212 L456,198 L457,186 L457,185 L456,186 L455,189 L454,200 L452,213 L452,222 L452,223 L452,222 L454,218 L456,209 L458,196 L460,184 L461,177 L461,179 L460,191 L459,209 L457,224 L457,229 L458,227 L459,221 L460,208 L460,193 L460,181 L460,178 L460,180 L460,189 L459,207 L457,226 L455,237 L455,240 L457,239 L459,234 L463,224 L466,209 L468,193 L469,179 L469,176 L468,178 L465,193 L461,215 L458,235 L457,247 L457,250 L459,249 L461,244 L464,231 L467,216 L467,199 L468,185 L468,184 L468,188 L466,205 L464,226 L462,247 L459,259 L459,261 L460,254 L461,239 L461,219 L459,197 L457,183 L457,189 L457,209 L457,232 L456,250 L454,260 L453,262 L453,260 L454,251 L454,233 L454,212 L453,197 L451,196 L449,200 L447,211 L446,231 L447,249 L449,257 L451,258 L452,256 L453,249 L454,234 L453,215 L451,200 L450,198 L450,201 L450,213 L451,233 L452,252 L454,262 L455,264 L457,263 L458,259 L458,247 L458,231 L457,215 L457,207 L457,208 L457,211 L459,224 L461,243 L462,259 L462,267 L463,268 L465,267 L467,262 L469,249 L469,234 L470,220 L470,215 L470,216 L469,224 L468,245 L467,263 L466,275 L466,278 L467,277 L467,272 L468,261 L469,247 L469,233 L469,229 L469,232 L469,244 L468,264 L467,283 L466,296 L464,302 L465,298 L465,285 L465,270 L464,256 L464,249 L464,250 L464,257 L465,273 L466,290 L466,302 L466,308 L467,308 L467,306 L468,300 L469,290 L471,277 L473,265 L474,261 L474,259 L474,264 L473,274 L472,281 L472,286 L472,287 L472,285 L473,280 L473,270 L474,258 L474,247 L474,243 L474,244 L474,250 L474,262 L474,274 L473,283 L471,287 L471,286 L471,279 L472,269 L472,259 L473,249 L473,246 L473,247 L473,248 L474,253 L474,262 L474,268 L474,270 L474,269 L474,267 L473,264 L472,259 L472,252 L471,246 L471,245 L471,248 L471,254 L471,259 L471,262 L470,262 L470,261 L470,258 L471,252 L472,247 L473,244 L473,243 L473,244 L474,244 L474,243 L474,242 L474,240 L474,237 L474,232 L474,229 L473,236 L473,249 L472,260 L472,265 L471,265 L471,264 L472,259 L472,250 L472,239 L472,227 L471,222 L471,223 L471,224 L471,231 L470,245 L469,258 L468,266 L468,268 L468,267 L468,264 L470,254 L471,242 L473,229 L474,220 L474,217 L474,219 L474,229 L474,243 L474,252 L474,255 L474,254 L474,251 L475,244 L476,234 L476,224 L478,220 L478,219 L478,220 L478,222 L477,231 L476,243 L474,252 L474,256 L474,254 L474,251 L474,242 L475,232 L475,223 L475,217 L475,216 L475,217 L475,219 L474,224 L474,230 L474,233 L474,232 L476,227 L477,220 L478,215 L478,214 L478,215 L476,221 L474,231 L473,240 L473,243 L474,243 L475,241 L478,236 L480,228 L482,222 L484,217 L483,218 L482,226 L480,236 L480,243 L481,245 L483,244 L486,240 L490,232 L492,223 L493,215 L493,213 L493,215 L491,220 L489,229 L487,236 L487,238 L488,236 L490,229 L492,217 L495,201 L497,185 L499,172 L500,166 L499,166 L497,173 L494,187 L492,203 L490,218 L488,227 L488,229 L488,227 L490,221 L493,208 L495,192 L497,172 L498,153 L500,144 L498,151 L494,171 L491,190 L489,209 L484,223 L481,228 L481,229 L484,226 L487,216 L491,201 L495,188 L496,186 L494,190 L491,202 L488,216 L484,229 L481,235 L482,234 L485,229 L488,222 L491,212 L492,205 L493,205 L492,206 L491,212 L489,220 L489,224 L490,225 L493,222 L498,213 L503,202 L505,195 L505,196 L503,202 L502,215 L500,226 L499,231 L499,230 L500,227 L501,216 L503,202 L506,188 L507,183 L507,184 L506,193 L503,210 L501,225 L500,233 L500,234 L501,233 L502,229 L503,218 L505,201 L506,180 L506,166 L506,162 L506,163 L505,170 L504,188 L504,207 L504,220 L504,224 L505,224 L506,220 L507,208 L507,192 L507,172 L507,160 L507,161 L507,168 L507,188 L508,208 L509,222 L510,228 L510,229 L510,228 L510,226 L510,217 L510,207 L511,200 L511,199 L512,203 L512,217 L512,232 L512,243 L512,247 L513,247 L513,246 L513,240 L513,229 L513,216 L513,207 L513,208 L513,212 L514,224 L514,239 L514,251 L514,256 L514,255 L513,248 L512,237 L511,225 L511,218 L511,219 L511,222 L513,235 L515,250 L516,261 L516,267 L517,267 L517,266 L516,258 L515,246 L514,233 L513,225 L513,224 L512,228 L511,243 L509,260 L507,273 L506,277 L506,276 L506,273 L506,263 L506,249 L504,230 L502,214 L500,210 L500,211 L499,220 L501,237 L503,252 L506,259 L508,261 L511,260 L513,255 L515,244 L517,231 L517,221 L517,219 L517,220 L517,227 L517,243 L517,258 L517,267 L518,271 L519,271 L520,268 L520,259 L521,246 L521,237 L521,236 L521,240 L520,255 L519,274 L517,291 L515,303 L514,307 L515,306 L517,302 L519,290 L520,277 L520,270 L519,270 L519,273 L518,283 L517,297 L517,308 L519,311 L520,311 L522,309 L524,301 L525,288 L525,273 L525,258 L525,246 L525,243 L525,244 L525,245 L526,249 L526,253 L527,254 L528,252 L529,243 L530,232 L530,226 L530,225 L530,226 L530,229 L530,237 L531,244 L531,249 L533,250 L535,249 L537,243 L541,234 L542,224 L542,220 L541,224 L539,235 L537,246 L536,252 L536,253 L537,252 L540,250 L542,244 L545,236 L546,228 L547,226 L546,227 L545,231 L541,239 L537,248 L536,253 L535,254 L537,252 L539,248 L542,239 L544,228 L544,220 L543,220 L543,222 L543,229 L543,240 L544,248 L546,251 L548,250 L550,247 L552,239 L554,229 L554,218 L552,212 L550,213 L546,220 L543,233 L540,246 L539,255 L539,258 L539,257 L541,255 L543,248 L546,237 L547,225 L548,219 L547,220 L545,224 L543,237 L541,249 L541,256 L543,258 L545,256 L548,253 L552,244 L556,234 L559,221 L560,214 L560,215 L558,220 L555,232 L553,244 L551,255 L551,261 L552,261 L555,259 L558,254 L563,243 L567,231 L570,222 L572,220 L572,222 L571,232 L569,244 L568,254 L567,257 L569,257 L569,256 L570,251 L572,242 L573,236 L573,234 L573,237 L573,245 L573,253 L573,257 L573,258 L573,256 L572,251 L569,243 L567,233 L565,226 L562,225 L559,230 L555,239 L553,247 L553,249 L554,248 L555,246 L558,239 L560,229 L562,219 L562,216 L562,217 L560,227 L559,241 L558,251 L558,257 L559,257 L561,256 L562,249 L564,239 L565,229 L565,221 L565,220 L565,222 L563,234 L562,249 L562,261 L562,265 L562,264 L563,263 L563,255 L563,243 L563,231 L562,224 L561,227 L559,236 L559,246 L559,253 L560,255 L560,254 L559,250 L558,243 L554,234 L550,227 L546,226 L543,229 L542,234 L542,237 L544,237 L546,236 L549,233 L552,228 L552,225 L549,232 L544,244 L541,252 L540,253 L541,251 L543,246 L546,235 L549,224 L550,214 L551,210 L549,214 L546,224 L544,234 L541,241 L541,242 L542,239 L545,228 L550,212 L555,195 L559,182 L560,178 L560,179 L559,184 L557,199 L556,206 L555,213 L553,221 L554,222 L556,220 L559,212 L562,197 L564,179 L566,160 L567,149 L567,148 L566,149 L563,162 L559,185 L557,210 L556,226 L556,231 L556,232 L556,229 L558,219 L559,202 L561,183 L561,169 L561,167 L559,173 L558,191 L557,214 L557,233 L557,242 L558,244 L559,242 L561,235 L563,220 L564,201 L564,187 L564,182 L564,184 L563,196 L562,215 L561,232 L560,241 L560,243 L560,242 L560,239 L562,227 L564,209 L566,188 L569,172 L570,168 L570,170 L568,180 L566,201 L565,222 L564,236 L564,240 L565,239 L567,235 L570,223 L574,207 L577,187 L580,172 L581,169 L581,171 L579,179 L575,197 L571,215 L568,229 L567,234 L569,233 L572,230 L577,218 L582,200 L586,178 L588,167 L587,167 L585,171 L580,188 L576,211 L570,234 L567,247 L567,250 L569,249 L571,246 L574,232 L577,216 L578,200 L577,198 L575,203 L572,217 L567,232 L565,243 L564,246 L564,244 L563,237 L563,228 L563,223 L562,223 L562,227 L561,238 L559,249 L559,254 L559,255 L559,254 L559,250 L561,240 L562,229 L562,222 L562,226 L563,237 L564,242 L564,247 L566,252 L569,254 L571,251 L573,246 L574,237 L576,227 L577,220 L577,224 L577,237 L578,249 L579,257 L580,259 L581,259 L582,256 L583,247 L584,235 L584,224 L584,220 L584,221 L584,228 L584,243 L584,259 L583,269 L583,274 L583,273 L583,266 L583,259 L583,252 L583,235 L583,222 L584,221 L584,224 L584,239 L585,257 L585,272 L585,282 L585,285 L585,283 L584,278 L584,267 L582,254 L581,237 L581,229 L581,230 L581,238 L580,256 L581,273 L582,286 L583,294 L585,295 L587,293 L589,284 L589,270 L588,254 L587,238 L586,236 L586,238 L586,251 L587,269 L588,286 L589,297 L589,302 L590,302 L592,298 L594,286 L596,268 L598,249 L599,238 L599,239 L599,244 L599,260 L598,279 L596,295 L594,307 L591,312 L591,311 L591,303 L592,287 L592,268 L590,252 L589,242 L588,241 L588,249 L588,269 L588,291 L588,307 L587,314 L587,311 L588,300 L589,283 L591,261 L593,239 L594,230 L594,231 L594,241 L592,263 L591,283 L589,298 L588,305 L589,305 L591,303 L593,294 L596,276 L599,251 L601,225 L602,215 L600,222 L597,239 L595,256 L595,266 L596,268 L596,266 L597,264 L600,253 L602,237 L604,227 L604,226 L604,228 L601,233 L599,244 L596,253 L596,255 L596,254 L598,251 L601,244 L603,236 L604,230 L605,230 L603,233 L599,243 L595,256 L592,263 L593,264 L596,262 L601,257 L606,247 L613,234 L616,225 L617,224 L616,227 L613,234 L608,244 L605,252 L604,255 L606,255 L610,253 L614,246 L619,236 L623,227 L623,223 L622,224 L618,230 L614,242 L610,252 L609,256 L611,256 L613,254 L617,247 L621,237 L623,226 L624,222 L624,223 L623,227 L620,241 L618,255 L617,264 L618,265 L619,264 L621,260 L625,249 L628,236 L631,222 L632,214 L630,215 L626,223 L620,238 L616,250 L614,256 L615,255 L617,249 L621,235 L627,219 L632,203 L633,197 L632,198 L627,203 L620,216 L615,228 L610,238 L609,241 L610,239 L615,234 L622,220 L630,200 L638,180 L641,169 L642,170 L638,177 L633,196 L626,216 L618,233 L612,244 L610,247 L611,246 L615,240 L621,227 L629,209 L639,186 L646,171 L650,165 L649,166 L644,177 L635,197 L628,217 L621,231 L617,238 L620,235 L626,222 L634,203 L641,180 L646,161 L648,157 L647,159 L642,173 L636,196 L632,219 L628,237 L627,245 L628,245 L630,243 L633,233 L637,216 L640,194 L645,176 L646,173 L646,175 L643,188 L638,209 L635,230 L632,244 L632,247 L633,243 L635,229 L639,207 L645,180 L648,167 L649,167 L647,174 L643,193 L640,215 L637,236 L635,247 L635,251 L637,245 L638,229 L640,206 L643,181 L644,168 L643,168 L642,171 L640,186 L638,210 L637,233 L636,248 L637,253 L637,252 L638,246 L639,231 L640,210 L642,184 L645,168 L645,167 L645,173 L644,191 L643,214 L642,235 L641,247 L640,251 L640,246 L642,230 L643,210 L646,196 L647,195 L648,202 L649,218 L649,237 L649,251 L650,257 L650,256 L650,251 L650,238 L650,220 L650,198 L650,180 L650,177 L650,181 L648,198 L647,218 L646,236 L644,246 L644,248 L644,247 L644,242 L645,227 L646,205 L649,183 L649,178 L648,182 L644,196 L640,215 L638,232 L636,245 L635,249 L634,249 L634,246 L634,235 L633,222 L631,218 L628,220 L624,230 L621,245 L621,257 L622,262 L623,262 L626,260 L630,251 L633,235 L636,217 L637,208 L637,210 L635,219 L632,235 L630,248 L629,256 L630,257 L633,256 L636,250 L641,237 L645,225 L648,219 L649,221 L649,229 L648,244 L647,257 L646,264 L647,266 L648,266 L650,261 L652,251 L655,241 L655,233 L655,232 L655,234 L654,246 L652,264 L651,278 L650,284 L651,285 L652,283 L652,276 L653,266 L653,253 L652,238 L652,231 L651,233 L651,242 L650,257 L650,270 L650,277 L650,278 L650,274 L652,264 L652,250 L654,235 L655,229 L655,230 L655,237 L654,250 L653,263 L651,273 L650,279 L651,280 L653,278 L655,271 L659,259 L662,247 L665,238 L665,242 L663,255 L662,270 L660,281 L660,286 L661,286 L662,283 L665,275 L668,260 L670,243 L672,229 L672,234 L669,250 L667,266 L665,280 L663,289 L663,290 L664,288 L665,281 L666,265 L667,251 L667,242 L666,241 L665,246 L662,260 L658,277 L655,290 L654,298 L653,299 L654,298 L655,290 L656,275 L658,259 L661,244 L663,243 L664,249 L664,265 L664,283 L662,297 L660,309 L659,313 L659,311 L661,304 L664,288 L666,269 L668,250 L667,244 L666,246 L663,255 L659,275 L657,295 L655,311 L654,320 L655,317 L657,302 L659,283 L660,259 L662,240 L662,236 L661,237 L660,245 L657,265 L655,287 L655,303 L656,308 L657,308 L658,304 L659,292 L660,275 L660,259 L660,256 L660,259 L660,267 L660,279 L660,290 L660,294 L661,291 L662,281 L665,265 L666,244 L667,229 L668,224 L668,233 L667,249 L667,263 L667,271 L668,271 L670,269 L672,263 L675,251 L679,237 L682,226 L683,225 L682,228 L678,240 L675,253 L674,262 L675,264 L677,263 L679,259 L682,247 L685,235 L686,224 L686,221 L685,222 L682,229 L677,243 L674,252 L674,256 L674,255 L677,253 L681,246 L687,234 L689,224 L690,219 L689,220 L686,226 L680,239 L674,254 L673,262 L674,263 L677,262 L684,255 L692,242 L699,226 L704,212 L705,206 L704,207 L698,218 L690,236 L684,254 L681,262 L681,263 L684,261 L688,253 L692,240 L695,224 L697,208 L697,204 L694,207 L690,217 L684,232 L679,247 L677,255 L677,256 L678,255 L681,251 L685,241 L690,227 L693,211 L694,204 L694,205 L692,216 L689,234 L686,251 L684,263 L684,266 L687,266 L689,262 L692,252 L694,237 L696,222 L697,214 L697,215 L697,222 L696,237 L696,252 L696,260 L696,262 L697,261 L697,257 L698,246 L699,231 L699,215 L699,210 L699,212 L698,219 L697,232 L696,246 L696,255 L696,259 L696,258 L696,256 L697,248 L699,234 L701,218 L701,210 L701,212 L699,219 L698,232 L698,243 L698,250 L699,251 L700,249 L703,243 L706,228 L708,210 L709,197 L709,195 L708,200 L706,215 L703,234 L701,249 L700,256 L701,255 L703,249 L706,234 L708,217 L709,201 L709,197 L709,199 L706,212 L704,231 L702,246 L702,252 L703,253 L704,251 L706,244 L711,229 L715,213 L719,201 L720,198 L720,199 L718,208 L715,224 L713,239 L712,250 L712,253 L712,252 L712,251 L714,242 L716,226 L717,205 L718,191 L716,198 L712,213 L710,229 L711,239 L712,243 L714,243 L714,241 L716,235 L719,223 L721,210 L723,200 L723,201 L723,205 L722,215 L722,224 L722,230 L722,232 L723,230 L723,224 L724,215 L725,210 L723,211 L720,222 L715,242 L712,259 L711,268 L712,270 L713,267 L714,256 L715,244 L716,228 L717,217 L718,215 L717,217 L715,227 L712,245 L710,261 L711,266 L712,265 L714,263 L716,254 L720,241 L721,226 L721,218 L720,220 L720,229 L719,243 L719,256 L720,264 L721,265 L722,264 L723,262 L725,252 L726,238 L727,222 L726,215 L724,216 L721,226 L716,245 L712,264 L711,274 L712,277 L714,275 L716,265 L718,251 L719,233 L719,222 L718,222 L717,228 L716,242 L716,258 L719,269 L723,273 L724,274 L725,273 L725,267 L726,256 L726,240 L726,227 L726,226 L726,231 L725,246 L724,262 L725,274 L726,279 L726,280 L726,279 L727,274 L728,261 L731,245 L733,230 L734,224 L734,226 L733,234 L731,249 L730,265 L728,276 L728,279 L729,278 L730,276 L732,266 L735,250 L736,234 L737,222 L737,219 L736,222 L733,237 L730,259 L729,275 L729,283 L729,286 L729,285 L729,282 L729,271 L729,257 L729,242 L728,236 L727,238 L727,244 L726,257 L726,268 L726,273 L726,271 L726,266 L725,255 L724,242 L724,232 L724,231 L724,234 L724,248 L725,264 L727,273 L729,276 L731,275 L733,272 L736,262 L738,249 L738,238 L738,235 L738,237 L737,245 L737,260 L738,273 L740,278 L742,280 L744,278 L745,275 L747,265 L749,254 L750,245 L751,243 L750,246 L748,258 L746,272 L745,281 L745,284 L746,283 L746,282 L747,275 L748,264 L749,252 L750,246 L749,253 L746,270 L745,286 L745,298 L745,301 L745,299 L745,293 L745,281 L745,268 L745,258 L745,255 L745,259 L742,276 L740,294 L739,306 L739,312 L739,313 L740,312 L740,307 L740,296 L740,283 L740,268 L740,262 L740,265 L739,279 L737,301 L736,321 L735,334 L735,340 L735,341 L736,339 L737,330 L738,313 L739,295 L741,282 L741,281 L741,285 L740,296 L738,310 L737,316 L738,314 L740,306 L741,291 L743,271 L743,255 L743,246 L742,249 L740,260 L739,275 L739,285 L741,288 L743,288 L743,286 L744,280 L745,267 L746,253 L746,244 L745,251 L743,267 L743,282 L744,290 L745,292 L745,291 L745,288 L746,279 L748,266 L748,253 L750,246 L750,247 L748,255 L746,267 L745,276 L745,279 L746,278 L749,273 L755,263 L761,252 L763,247 L763,246 L761,250 L755,263 L749,277 L748,284 L749,284 L752,283 L758,278 L764,268 L770,256 L774,244 L776,238 L775,239 L769,246 L761,261 L754,278 L749,288 L750,289 L754,288 L761,280 L769,266 L778,249 L782,238 L782,234 L778,236 L769,245 L760,257 L752,267 L749,270 L750,270 L755,268 L762,261 L772,250 L784,235 L789,223 L791,220 L787,223 L778,235 L768,250 L758,264 L753,271 L755,271 L760,268 L767,260 L777,248 L786,232 L794,215 L797,209 L795,210 L788,218 L779,234 L770,252 L763,265 L762,268 L765,267 L771,261 L779,250 L786,235 L791,221 L793,215 L791,215 L784,224 L775,241 L767,258 L764,267 L765,268 L767,268 L773,264 L781,254 L789,240 L795,225 L797,217 L794,217 L786,223 L776,238 L765,257 L760,271 L758,276 L759,277 L762,275 L768,266 L775,251 L781,234 L783,221 L783,219 L781,221 L776,232 L769,247 L763,262 L760,271 L759,274 L760,273 L764,269 L769,259 L775,244 L780,227 L781,215 L780,213 L777,217 L770,232 L765,250 L762,265 L762,272 L763,273 L765,272 L767,266 L772,252 L778,233 L782,215 L782,212 L781,216 L776,231 L772,250 L769,268 L767,277 L769,278 L770,278 L772,272 L775,259 L777,242 L781,219 L783,208 L784,210 L782,221 L781,239 L780,258 L777,273 L776,281 L776,282 L777,281 L778,273 L780,257 L782,237 L784,217 L785,211 L785,214 L783,228 L782,249 L780,272 L779,286 L779,291 L780,291 L780,287 L782,276 L783,260 L784,239 L786,220 L787,215 L787,217 L786,227 L784,246 L783,265 L782,278 L782,281 L783,280 L784,277 L786,265 L788,248 L791,226 L793,211 L794,210 L793,215 L790,230 L789,246 L789,261 L791,268 L792,268 L794,264 L796,253 L798,236 L800,216 L800,210 L799,217 L798,231 L797,248 L799,261 L801,266 L802,266 L803,265 L803,260 L804,247 L805,232 L805,224 L804,224 L804,228 L804,239 L803,255 L803,269 L804,276 L805,271 L806,259 L809,239 L811,222 L811,220 L811,223 L809,236 L806,254 L804,271 L803,280 L803,282 L803,280 L803,270 L804,255 L805,237 L806,225 L804,233 L802,252 L801,272 L800,283 L800,288 L801,288 L801,286 L802,278 L802,263 L804,244 L804,225 L804,222 L803,226 L801,241 L800,260 L800,277 L801,286 L802,287 L803,284 L804,273 L804,258 L805,241 L804,236 L804,239 L802,251 L801,268 L801,282 L801,288 L802,290 L802,288 L804,278 L806,262 L809,245 L811,242 L810,246 L807,261 L804,281 L802,297 L800,310 L799,318 L800,319 L803,319 L808,311 L814,297 L818,278 L821,261 L822,260 L822,265 L819,282 L816,302 L813,320 L809,332 L808,335 L809,334 L811,328 L815,313 L820,291 L825,266 L826,259 L826,260 L823,268 L819,283 L816,294 L815,300 L815,298 L814,295 L812,285 L811,271 L810,256 L808,251 L806,252 L803,261 L800,279 L799,294 L799,302 L800,304 L801,304 L802,302 L803,293 L806,281 L809,265 L811,257 L811,258 L811,265 L810,281 L808,301 L807,315 L807,319 L808,319 L809,316 L812,305 L816,288 L819,269 L821,260 L821,261 L819,264 L816,279 L812,298 L809,315 L809,323 L809,325 L810,323 L812,316 L815,301 L818,279 L821,259 L822,251 L822,252 L820,261 L816,280 L812,303 L809,323 L808,333 L810,335 L811,335 L813,328 L816,312 L818,291 L819,268 L819,261 L816,262 L814,266 L811,280 L809,298 L808,313 L809,320 L810,318 L810,309 L811,293 L811,273 L811,259 L810,258 L809,261 L807,276 L804,298 L803,317 L803,328 L804,331 L806,330 L809,323 L813,308 L817,289 L819,266 L820,254 L820,253 L819,255 L816,268 L812,291 L809,312 L806,328 L805,335 L806,335 L807,332 L810,321 L812,305 L814,283 L814,261 L815,255 L814,257 L811,269 L809,290 L808,308 L809,316 L810,317 L810,315 L810,308 L809,294 L808,274 L807,254 L805,247 L803,248 L802,249 L802,256 L802,264 L802,270 L804,271 L804,270 L804,265 L805,254 L805,240 L804,231 L802,231 L799,236 L797,246 L795,257 L795,263 L797,264 L799,263 L801,258 L804,247 L806,237 L806,235 L804,235 L804,236 L803,237 L803,234 L804,226 L808,210 L811,191 L814,174 L816,158 L818,146 L818,137 L817,136 L815,137 L811,146 L807,163 L804,185 L803,210 L801,230 L800,240 L800,246 L800,244 L802,234 L805,218 L810,198 L814,176 L814,161 L814,154 L813,153 L812,153 L812,154 L810,163 L806,185 L802,215 L799,239 L798,253 L797,261 L798,263 L798,262 L799,259 L800,257 L801,257 L801,259 L802,262 L803,264 L804,265 L805,264 L806,262 L806,261 L806,266 L806,274 L805,280 L806,282 L807,281 L809,279 L813,271 L816,264 L817,261 L817,262 L817,270 L817,283 L816,296 L816,304 L816,308 L816,307 L817,301 L818,292 L819,284 L819,279 L819,280 L819,281 L818,279 L816,276 L814,271 L810,266 L807,264 L805,265 L805,267 L804,271 L804,275 L803,278 L802,279 L801,276 L799,270 L795,261 L790,250 L786,240 L784,237 L782,236 L781,239 L779,250 L777,263 L776,273 L776,277 L776,276 L777,270 L778,260 L778,246 L778,229 L778,220 L777,222 L775,227 L773,239 L772,249 L772,254 L773,253 L774,248 L775,239 L775,225 L777,210 L778,195 L778,193 L776,196 L772,207 L769,220 L767,231 L765,239 L765,243 L765,242 L766,238 L770,226 L774,210 L778,194 L778,189 L778,188 L778,190 L777,202 L774,223 L773,243 L774,253 L775,257 L777,257 L779,254 L781,244 L784,231 L786,219 L787,215 L786,218 L784,233 L782,251 L782,266 L783,273 L787,277 L790,277" fill="none" stroke="red" stroke-width="3"/></svg>