<svg xmlns="http://www.w3.org/2000/svg" xmlns:xlink="http://www.w3.org/1999/xlink" version="1.1" class="marks" width="1012" height="385" viewBox="0 0 1012 385"><rect width="1012" height="385" fill="white"/><path d="M29,318 L28,319 L26,320 L25,320 L24,319 L22,313 L20,298 L20,278 L21,264 L22,252 L23,246 L24,246 L25,254 L29,269 L31,291 L34,315 L36,327 L36,328 L37,326 L37,317 L37,302 L37,278 L39,249 L42,235 L43,235 L44,248 L45,267 L46,291 L47,314 L48,324 L47,315 L46,298 L46,276 L48,247 L51,227 L52,222 L53,226 L54,242 L54,265 L56,292 L56,313 L56,318 L56,313 L55,294 L55,268 L57,241 L61,222 L65,212 L68,212 L69,224 L70,244 L71,270 L71,293 L70,305 L69,305 L67,295 L66,278 L67,261 L70,247 L74,241 L77,242 L80,254 L83,272 L84,290 L84,298 L83,298 L81,290 L81,278 L81,266 L85,262 L88,271 L92,285 L95,300 L97,312 L97,317 L96,308 L94,289 L94,266 L98,256 L102,256 L106,259 L109,268 L112,284 L114,303 L114,310 L113,308 L110,295 L109,276 L109,251 L111,226 L114,207 L117,193 L119,189 L122,196 L124,212 L126,233 L127,254 L127,271 L125,281 L124,281 L123,272 L123,254 L124,232 L129,207 L135,181 L141,163 L144,156 L146,161 L148,178 L148,202 L147,230 L146,253 L145,268 L144,272 L143,266 L141,248 L142,225 L144,200 L148,177 L152,163 L156,163 L158,176 L159,200 L159,223 L159,244 L158,254 L157,254 L155,242 L154,217 L156,191 L162,168 L167,156 L173,155 L178,165 L181,183 L183,205 L183,227 L183,237 L181,225 L180,203 L181,175 L185,151 L191,145 L195,152 L198,168 L200,191 L200,217 L199,237 L198,245 L196,242 L194,227 L194,208 L196,193 L201,188 L206,195 L210,211 L212,233 L212,256 L210,271 L208,275 L206,267 L207,253 L210,241 L217,234 L225,242 L233,259 L237,277 L239,293 L239,303 L237,303 L235,293 L235,280 L237,269 L241,267 L247,272 L253,284 L256,298 L257,309 L256,313 L255,310 L253,297 L251,273 L251,251 L255,244 L260,248 L265,263 L269,285 L271,310 L271,329 L269,337 L265,332 L261,313 L259,283 L262,249 L268,228 L274,217 L279,217 L283,233 L284,258 L284,290 L281,316 L277,335 L274,340 L272,334 L271,315 L272,287 L277,258 L285,238 L291,234 L295,239 L298,255 L300,280 L300,307 L299,330 L297,342 L295,343 L294,332 L294,310 L297,288 L303,268 L310,258 L314,258 L317,269 L320,289 L321,311 L321,332 L320,343 L317,342 L315,330 L314,310 L315,291 L321,276 L327,273 L332,280 L337,296 L342,319 L344,340 L345,352 L344,355 L342,348 L337,327 L330,291 L327,240 L330,212 L334,205 L337,206 L341,217 L345,242 L348,268 L349,285 L349,287 L346,277 L342,253 L340,217 L342,183 L345,162 L349,152 L352,151 L355,159 L358,178 L361,203 L363,225 L363,232 L361,229 L358,213 L356,187 L356,158 L360,143 L364,142 L368,155 L373,179 L376,209 L377,236 L376,252 L373,257 L368,250 L364,229 L363,202 L364,175 L369,160 L374,160 L378,173 L381,199 L382,227 L382,251 L380,268 L377,273 L373,266 L369,242 L368,212 L374,188 L380,177 L384,176 L389,185 L393,208 L395,236 L395,258 L393,268 L391,269 L388,257 L386,233 L387,208 L393,193 L399,189 L403,198 L407,212 L410,231 L410,249 L410,259 L408,259 L405,245 L402,222 L402,190 L406,166 L412,158 L416,160 L419,176 L422,205 L424,240 L423,265 L420,280 L418,284 L414,275 L411,251 L410,218 L415,191 L421,179 L427,176 L431,183 L433,202 L435,231 L436,265 L436,290 L434,300 L433,299 L431,285 L430,261 L432,239 L439,230 L447,235 L454,254 L457,278 L459,302 L459,326 L458,345 L457,353 L455,350 L453,337 L453,315 L454,295 L459,281 L466,278 L470,286 L474,304 L476,326 L476,343 L475,354 L474,357 L471,351 L469,336 L469,319 L472,300 L476,283 L479,273 L483,273 L486,285 L489,306 L490,327 L490,342 L489,349 L489,347 L487,335 L486,315 L487,293 L491,274 L495,264 L499,263 L503,272 L506,291 L508,313 L509,335 L509,350 L509,354 L507,347 L504,328 L504,309 L508,294 L513,289 L517,291 L522,303 L526,320 L527,335 L527,344 L525,344 L523,334 L519,313 L517,278 L518,239 L522,208 L525,188 L528,176 L528,173 L529,180 L530,194 L530,211 L532,228 L533,240 L533,243 L533,237 L532,219 L530,189 L533,158 L538,149 L542,146 L546,152 L550,170 L554,199 L556,229 L556,247 L555,255 L553,253 L550,238 L547,212 L548,180 L555,168 L560,169 L564,185 L567,209 L568,239 L567,266 L564,281 L561,285 L558,276 L557,256 L559,229 L563,197 L570,174 L577,167 L582,175 L583,195 L583,219 L582,244 L581,262 L579,269 L577,263 L575,242 L574,211 L579,180 L585,171 L590,172 L594,185 L596,208 L596,234 L594,253 L591,261 L588,258 L586,242 L585,220 L590,198 L596,190 L601,194 L604,209 L606,231 L606,254 L604,274 L602,287 L601,288 L598,275 L596,249 L599,228 L607,222 L615,226 L620,238 L623,256 L626,275 L626,288 L626,292 L625,285 L624,270 L627,256 L632,244 L638,237 L644,239 L650,251 L654,268 L656,282 L657,290 L657,291 L657,288 L657,278 L657,273 L660,274 L665,286 L667,299 L668,311 L669,322 L669,330 L669,320 L669,303 L672,290 L677,290 L681,298 L684,314 L686,333 L687,350 L687,361 L687,365 L686,359 L684,339 L682,315 L685,296 L690,292 L694,295 L697,305 L701,325 L706,355 L706,376 L705,383 L702,378 L696,359 L693,332 L693,304 L697,286 L701,278 L706,280 L709,295 L712,320 L714,346 L714,362 L711,369 L708,366 L704,350 L698,321 L697,281 L704,260 L710,252 L717,255 L722,268 L726,288 L728,312 L729,327 L728,331 L726,322 L723,300 L718,265 L718,221 L723,188 L728,165 L733,153 L735,148 L736,152 L736,170 L737,193 L737,216 L736,225 L736,224 L734,212 L732,190 L732,156 L737,129 L741,124 L743,128 L745,145 L745,172 L745,207 L746,239 L745,259 L743,268 L741,264 L738,247 L736,222 L738,188 L744,155 L751,142 L757,141 L760,151 L761,174 L762,210 L762,247 L761,272 L759,284 L758,284 L757,271 L755,242 L757,207 L765,179 L772,168 L777,164 L779,167 L780,182 L780,205 L780,228 L778,243 L777,246 L777,241 L776,223 L778,201 L782,181 L788,173 L792,173 L794,183 L796,205 L797,230 L796,250 L794,259 L792,258 L790,246 L789,227 L791,208 L797,191 L801,185 L804,191 L808,209 L809,234 L809,261 L808,285 L806,302 L805,308 L804,302 L804,286 L808,268 L815,256 L823,254 L829,259 L835,277 L838,304 L839,328 L839,347 L839,362 L838,368 L838,364 L838,352 L840,333 L843,310 L850,291 L855,286 L859,287 L862,298 L864,315 L865,334 L864,347 L862,350 L860,344 L858,326 L857,307 L859,290 L864,280 L867,278 L870,284 L873,301 L875,319 L875,334 L873,340 L871,337 L868,324 L867,306 L870,293 L876,292 L882,299 L888,310 L892,323 L894,335 L894,340 L892,337 L888,322 L882,296 L876,254 L876,207 L881,173 L886,157 L889,153 L890,156 L890,168 L891,188 L892,207 L892,222 L891,224 L890,217 L890,202 L890,188 L893,183 L898,188 L904,203 L908,225 L910,244 L910,256 L909,258 L908,250 L906,230 L906,206 L912,191 L919,192 L924,203 L928,220 L930,237 L930,248 L929,251 L927,244 L926,227 L927,208 L932,199 L937,198 L940,202 L944,219 L948,243 L953,262 L960,264" fill="none" stroke="red" stroke-width="3"/></svg>