<svg xmlns="http://www.w3.org/2000/svg" xmlns:xlink="http://www.w3.org/1999/xlink" version="1.1" class="marks" width="1012" height="385" viewBox="0 0 1012 385"><rect width="1012" height="385" fill="white"/><rect width="1012" height="385" fill="white"/><path d="M10,217 L9,215 L11,214 L11,213 L12,213 L12,214 L12,216 L12,221 L12,228 L13,238 L14,251 L14,264 L14,272 L15,274 L15,275 L15,273 L14,266 L12,255 L10,242 L8,230 L8,227 L10,231 L13,240 L15,252 L17,263 L19,267 L19,266 L19,260 L22,246 L24,228 L26,219 L26,221 L27,227 L28,238 L28,254 L27,268 L26,275 L26,276 L26,274 L27,265 L29,249 L31,232 L32,223 L32,222 L33,225 L34,234 L34,247 L35,259 L36,265 L37,261 L40,247 L43,227 L45,209 L46,203 L45,203 L45,204 L46,212 L47,228 L47,245 L48,257 L48,261 L49,258 L51,245 L54,226 L57,202 L60,186 L61,185 L61,186 L64,193 L68,207 L70,227 L72,242 L73,252 L74,257 L75,257 L76,251 L78,232 L80,207 L80,180 L76,164 L73,159 L73,158 L73,161 L72,170 L72,186 L71,205 L70,225 L70,241 L72,252 L73,256 L73,246 L73,226 L73,200 L73,174 L71,163 L71,161 L74,164 L77,175 L80,193 L82,212 L85,224 L88,229 L90,231 L92,228 L95,215 L100,195 L105,172 L108,162 L109,164 L112,173 L114,186 L115,199 L115,207 L115,208 L115,207 L117,197 L120,181 L123,167 L124,163 L124,165 L124,173 L124,188 L124,202 L124,210 L124,212 L125,210 L126,203 L129,188 L133,172 L134,167 L134,168 L134,174 L134,190 L132,212 L131,226 L131,234 L131,232 L133,219 L138,196 L143,169 L146,153 L146,149 L146,150 L149,158 L150,174 L150,193 L149,209 L146,222 L145,232 L144,239 L144,240 L144,236 L146,221 L151,198 L153,178 L153,168 L152,167 L152,168 L152,176 L152,190 L151,206 L150,221 L149,232 L148,240 L148,243 L148,242 L149,236 L151,220 L154,197 L155,180 L155,177 L154,178 L156,182 L158,191 L160,205 L160,222 L158,237 L158,245 L158,248 L158,246 L157,236 L158,217 L160,197 L161,188 L161,187 L161,188 L163,190 L166,196 L167,207 L167,219 L168,228 L169,233 L169,234 L170,233 L170,227 L171,214 L174,193 L175,176 L174,172 L173,171 L173,173 L174,178 L175,189 L175,201 L174,212 L174,217 L174,216 L174,210 L176,196 L178,176 L180,154 L180,144 L180,142 L180,141 L180,142 L182,149 L183,161 L183,176 L184,189 L185,197 L185,199 L185,198 L185,191 L186,176 L188,153 L189,124 L190,100 L189,91 L188,90 L189,95 L190,108 L190,130 L189,156 L187,179 L187,194 L187,206 L187,211 L187,210 L189,197 L194,174 L198,145 L201,116 L202,101 L202,100 L204,105 L204,122 L204,146 L204,171 L203,187 L202,195 L202,197 L202,194 L205,179 L208,156 L212,129 L212,113 L213,111 L213,112 L216,122 L217,140 L218,161 L217,177 L218,185 L218,187 L219,185 L222,174 L227,154 L234,127 L237,114 L238,117 L238,129 L237,149 L233,173 L231,193 L231,206 L231,212 L231,209 L234,193 L237,171 L240,149 L240,142 L240,143 L240,147 L240,159 L239,175 L238,190 L237,198 L237,202 L237,203 L237,201 L239,193 L242,177 L246,157 L246,143 L246,140 L246,142 L246,150 L245,162 L242,178 L238,202 L235,227 L235,243 L236,246 L236,245 L237,232 L239,211 L240,186 L242,161 L242,146 L242,139 L244,135 L247,131 L248,130 L249,134 L249,143 L247,158 L246,172 L245,187 L244,201 L243,213 L243,218 L246,210 L254,190 L260,165 L264,148 L265,143 L265,142 L267,147 L267,161 L265,178 L262,195 L260,207 L259,213 L260,214 L262,210 L268,198 L275,178 L284,157 L288,148 L289,149 L290,152 L291,165 L288,183 L285,202 L282,215 L281,221 L281,222 L281,217 L285,202 L292,180 L300,156 L303,147 L303,146 L304,148 L306,154 L305,167 L302,184 L297,203 L293,219 L292,227 L292,228 L292,227 L294,217 L300,198 L308,176 L311,162 L311,163 L312,171 L311,185 L308,205 L305,223 L304,234 L304,243 L306,246 L308,246 L310,242 L317,228 L326,210 L330,197 L330,196 L330,199 L329,208 L327,222 L324,239 L322,253 L322,261 L324,263 L325,258 L327,244 L331,222 L335,199 L335,190 L334,189 L334,193 L332,204 L328,218 L324,237 L322,249 L321,253 L321,254 L321,248 L325,234 L331,212 L339,190 L340,184 L340,185 L341,187 L342,196 L342,212 L340,232 L339,248 L339,260 L339,267 L340,268 L340,267 L343,257 L348,239 L356,220 L362,209 L363,207 L364,209 L365,214 L364,226 L361,241 L358,253 L357,258 L356,259 L356,257 L355,250 L356,237 L359,221 L363,205 L362,200 L361,200 L361,201 L361,205 L359,212 L356,221 L351,230 L346,237 L344,238 L344,236 L344,229 L347,214 L351,195 L352,184 L351,181 L350,181 L351,184 L352,193 L352,207 L352,225 L352,238 L352,244 L352,246 L353,244 L356,232 L359,215 L361,193 L363,177 L363,171 L362,171 L362,172 L363,176 L363,187 L363,198 L362,210 L361,215 L361,214 L361,211 L364,201 L369,183 L374,163 L374,152 L374,150 L374,152 L372,160 L367,173 L361,190 L359,202 L359,207 L360,207 L360,204 L362,194 L365,179 L369,161 L372,141 L373,129 L371,128 L370,128 L370,131 L367,138 L364,146 L361,154 L359,157 L360,157 L361,154 L364,145 L368,132 L372,120 L373,118 L373,121 L372,129 L367,143 L359,165 L355,178 L354,184 L355,185 L356,178 L361,164 L366,146 L373,124 L374,118 L374,122 L374,133 L372,150 L366,172 L362,187 L362,190 L362,191 L362,189 L366,178 L374,158 L384,135 L389,121 L391,115 L392,115 L393,120 L392,131 L388,147 L385,165 L383,177 L383,183 L383,179 L385,166 L391,146 L398,123 L402,107 L402,103 L402,106 L403,112 L402,121 L400,133 L396,147 L393,160 L392,164 L392,163 L393,159 L396,147 L401,129 L407,111 L409,105 L409,106 L408,110 L406,120 L402,135 L396,151 L392,163 L391,170 L391,171 L391,170 L392,164 L394,152 L398,137 L403,120 L405,112 L406,113 L406,116 L407,124 L407,136 L405,150 L402,163 L398,176 L394,188 L392,195 L392,196 L393,194 L395,185 L398,170 L402,151 L407,135 L407,134 L406,137 L405,147 L403,161 L401,177 L399,190 L399,197 L399,201 L400,198 L404,189 L411,173 L418,157 L420,151 L420,152 L420,154 L420,160 L418,169 L415,178 L413,187 L411,192 L411,190 L413,183 L417,170 L423,154 L427,146 L427,148 L427,153 L427,161 L426,171 L423,180 L420,188 L418,191 L418,190 L418,188 L419,179 L423,166 L428,152 L430,146 L430,149 L430,153 L430,158 L429,165 L428,171 L428,176 L427,180 L427,181 L427,178 L430,171 L435,162 L437,156 L437,157 L437,160 L437,167 L435,177 L433,191 L431,205 L428,217 L427,225 L427,229 L427,228 L426,224 L427,215 L430,202 L435,188 L438,181 L438,182 L438,186 L437,196 L435,211 L432,226 L430,238 L428,247 L427,251 L429,248 L432,236 L437,221 L440,211 L440,210 L440,212 L443,215 L445,221 L446,228 L445,237 L443,246 L441,252 L441,254 L440,254 L440,251 L441,242 L445,227 L452,208 L457,196 L457,193 L458,193 L459,194 L460,198 L459,206 L456,217 L452,225 L450,230 L449,231 L449,230 L450,228 L452,220 L457,206 L462,194 L463,188 L464,186 L468,182 L471,177 L472,174 L472,173 L471,173 L469,178 L466,186 L465,193 L466,195 L467,194 L469,187 L472,177 L477,163 L485,147 L489,141 L489,144 L486,152 L482,163 L477,175 L473,183 L469,185 L467,184 L467,180 L467,171 L471,154 L476,136 L476,129 L475,131 L474,140 L468,156 L458,178 L451,196 L449,203 L450,204 L454,195 L464,179 L475,158 L486,142 L489,139 L491,144 L491,154 L490,167 L486,182 L483,194 L481,201 L480,202 L481,199 L486,188 L493,172 L500,156 L501,149 L500,149 L499,149 L498,154 L494,163 L491,172 L487,183 L484,190 L483,191 L483,190 L483,182 L484,170 L489,153 L492,138 L492,136 L492,138 L491,142 L489,151 L484,164 L478,180 L473,194 L471,202 L471,203 L471,200 L473,190 L479,173 L486,156 L492,146 L493,149 L493,159 L492,173 L489,186 L489,195 L489,199 L490,197 L495,188 L505,173 L515,156 L522,145 L522,144 L523,145 L523,150 L523,159 L520,172 L516,186 L511,198 L509,207 L509,211 L509,210 L510,204 L515,190 L522,170 L528,151 L528,146 L527,147 L527,150 L525,158 L522,171 L516,186 L511,199 L508,207 L508,210 L508,208 L511,199 L517,187 L525,173 L528,166 L528,167 L528,172 L528,182 L527,195 L523,212 L517,228 L514,238 L513,244 L513,246 L513,244 L518,234 L525,218 L531,205 L533,201 L532,202 L533,207 L533,216 L530,228 L526,241 L523,250 L520,256 L519,260 L519,261 L520,255 L525,243 L531,224 L538,206 L540,200 L541,201 L542,206 L541,217 L537,230 L532,245 L530,257 L531,262 L533,262 L535,258 L538,246 L542,228 L544,211 L544,203 L543,201 L543,202 L543,207 L543,216 L542,225 L541,234 L540,238 L540,237 L540,234 L540,225 L544,214 L548,205 L548,204 L548,205 L549,210 L547,220 L544,231 L541,242 L539,249 L539,250 L539,249 L539,246 L542,239 L546,228 L551,218 L552,215 L552,217 L553,220 L553,226 L552,233 L549,239 L546,246 L545,249 L545,251 L546,250 L547,245 L549,237 L550,230 L552,225 L553,222 L556,220 L556,223 L556,228 L556,234 L556,239 L555,245 L554,251 L554,254 L554,255 L554,254 L554,252 L556,248 L558,242 L561,234 L563,228 L564,225 L566,224 L567,224 L567,228 L564,236 L562,244 L561,249 L560,251 L560,250 L560,246 L559,237 L559,226 L561,211 L564,198 L568,190 L570,186 L570,184 L570,185 L569,186 L567,190 L565,193 L564,195 L565,190 L568,182 L573,170 L576,161 L576,159 L575,160 L574,162 L571,169 L566,178 L562,186 L561,188 L561,186 L561,179 L563,170 L569,158 L578,142 L583,131 L583,130 L581,136 L575,151 L568,168 L563,183 L560,189 L560,187 L565,179 L574,166 L586,148 L593,134 L592,133 L590,137 L583,149 L574,167 L565,188 L562,199 L561,202 L561,201 L562,191 L565,176 L571,157 L579,137 L581,129 L580,130 L578,136 L572,147 L565,161 L560,173 L559,177 L561,173 L565,163 L573,150 L583,132 L589,122 L589,121 L587,126 L584,135 L580,147 L577,158 L575,162 L575,163 L575,161 L577,155 L580,146 L585,133 L590,120 L591,118 L591,122 L589,130 L586,139 L585,147 L583,152 L581,155 L580,156 L581,154 L584,147 L587,138 L591,128 L594,123 L594,124 L593,128 L589,136 L585,145 L581,154 L579,159 L578,163 L578,164 L579,164 L580,161 L582,153 L586,141 L590,132 L591,128 L591,131 L590,137 L588,146 L587,154 L587,159 L587,161 L588,159 L591,155 L597,147 L603,138 L604,136 L603,138 L600,146 L597,156 L594,166 L592,173 L591,174 L591,173 L591,168 L593,159 L598,148 L604,138 L605,138 L604,144 L601,155 L597,169 L593,180 L591,187 L590,192 L590,193 L591,191 L594,184 L597,173 L601,160 L602,153 L601,154 L599,163 L597,176 L594,190 L591,202 L590,208 L590,209 L590,207 L591,198 L594,185 L598,168 L601,157 L601,158 L600,164 L598,178 L594,192 L589,206 L586,214 L586,216 L586,215 L589,210 L596,199 L606,184 L615,171 L614,176 L613,188 L612,203 L611,216 L610,224 L610,226 L610,225 L610,220 L612,210 L617,196 L620,188 L620,190 L618,199 L614,214 L611,230 L610,242 L609,249 L609,253 L609,254 L609,252 L610,246 L612,235 L616,223 L620,217 L620,218 L621,224 L623,233 L623,242 L621,248 L619,250 L617,250 L616,247 L618,240 L626,229 L634,219 L634,218 L633,222 L630,233 L628,245 L626,256 L626,261 L626,259 L627,251 L632,239 L637,226 L639,222 L639,227 L639,234 L638,242 L638,247 L637,250 L637,249 L636,247 L636,245 L635,244 L635,243 L635,242 L635,243 L633,242 L629,239 L625,237 L623,237 L624,237 L625,237 L625,238 L626,239 L627,241 L629,242 L631,243 L632,244 L633,244 L633,247 L633,250 L633,254 L633,258 L633,261 L633,262 L633,263 L634,259 L636,251 L638,241 L642,226 L646,214 L647,210 L646,213 L645,220 L643,228 L641,236 L640,243 L640,247 L642,244 L645,233 L651,219 L656,204 L660,195 L660,193 L658,196 L655,205 L652,215 L648,226 L646,233 L646,234 L646,232 L647,227 L651,217 L658,204 L665,190 L666,185 L666,186 L664,192 L660,202 L657,212 L653,221 L650,224 L648,223 L648,216 L652,205 L659,191 L668,175 L672,167 L672,166 L670,170 L665,178 L660,188 L657,196 L656,202 L655,203 L655,202 L657,197 L662,188 L671,176 L682,163 L685,158 L683,165 L679,176 L676,186 L674,195 L672,199 L672,196 L673,188 L677,176 L683,159 L687,143 L687,140 L687,141 L684,149 L682,162 L681,176 L680,189 L679,198 L679,201 L679,195 L681,184 L685,168 L691,146 L692,137 L691,142 L689,154 L685,171 L681,187 L680,195 L680,198 L682,193 L685,181 L691,164 L702,143 L708,134 L708,138 L705,148 L699,160 L694,172 L691,180 L690,183 L690,182 L690,179 L691,171 L693,159 L699,145 L705,135 L705,136 L704,142 L701,155 L696,169 L692,182 L689,188 L689,189 L689,186 L689,178 L692,164 L700,145 L708,126 L709,122 L709,123 L708,130 L707,141 L707,153 L707,163 L707,169 L707,171 L707,170 L707,166 L707,158 L709,147 L713,135 L716,128 L716,129 L716,131 L718,135 L718,142 L714,154 L709,167 L706,180 L704,189 L703,195 L701,202 L701,207 L701,205 L704,196 L707,183 L713,166 L723,146 L728,136 L728,138 L728,145 L726,157 L721,173 L716,191 L716,204 L717,210 L718,210 L718,206 L719,197 L720,185 L724,171 L732,154 L737,146 L737,147 L736,150 L733,161 L731,173 L730,186 L730,195 L730,200 L730,201 L729,200 L729,195 L732,186 L736,175 L740,166 L738,173 L733,187 L728,203 L725,215 L723,220 L723,222 L723,221 L723,215 L726,204 L730,192 L731,186 L731,187 L731,194 L729,205 L728,216 L726,226 L724,230 L724,231 L725,229 L728,223 L733,214 L740,207 L741,206 L740,210 L738,220 L736,229 L735,236 L735,239 L735,240 L736,238 L741,233 L748,227 L752,224 L753,225 L752,232 L750,241 L747,250 L746,255 L745,256 L746,254 L747,247 L748,239 L751,230 L752,227 L751,231 L746,239 L743,247 L739,254 L738,255 L738,252 L740,246 L743,238 L750,228 L756,222 L750,230 L743,242 L737,253 L734,258 L733,258 L733,252 L736,241 L741,227 L749,213 L752,209 L751,213 L747,225 L744,238 L743,250 L742,259 L742,261 L743,254 L747,242 L753,224 L762,207 L765,202 L765,204 L762,214 L758,228 L755,241 L754,249 L754,250 L754,249 L755,242 L756,231 L759,215 L764,197 L765,191 L765,193 L762,203 L760,216 L760,227 L760,232 L761,227 L763,219 L765,205 L768,187 L772,168 L774,159 L774,158 L773,164 L770,174 L767,185 L766,194 L766,196 L767,194 L770,188 L775,180 L781,170 L790,157 L794,151 L790,157 L783,167 L778,176 L777,180 L778,175 L782,168 L787,159 L797,148 L804,139 L803,138 L798,146 L789,161 L779,179 L775,192 L774,196 L774,194 L776,187 L780,176 L787,162 L798,144 L805,132 L804,136 L799,149 L796,162 L794,174 L794,178 L794,177 L795,172 L799,163 L804,152 L814,139 L816,135 L814,139 L807,151 L801,164 L797,176 L795,181 L795,180 L796,173 L800,164 L806,154 L813,143 L816,139 L814,141 L808,150 L802,160 L799,169 L800,173 L801,174 L805,171 L811,166 L818,159 L821,156 L821,159 L817,170 L811,183 L807,193 L806,200 L807,200 L809,199 L814,195 L818,190 L821,188 L819,194 L815,202 L812,210 L812,214 L813,214 L816,211 L820,207 L823,206 L826,207 L826,212 L823,221 L820,229 L819,234 L820,235 L821,234 L824,230 L827,226 L828,224 L827,224 L824,231 L820,240 L817,246 L816,249 L818,244 L820,237 L824,229 L828,222 L829,220 L827,224 L824,232 L820,239 L817,244 L815,246 L816,243 L819,236 L824,227 L834,215 L838,210 L836,217 L833,227 L831,239 L831,247 L831,250 L832,250 L833,245 L834,236 L836,224 L841,210 L844,205 L845,205 L846,207 L848,210 L848,215 L846,221 L842,227 L839,232 L839,234 L840,234 L842,227 L843,217 L844,204 L848,190 L853,178 L855,173 L855,172 L853,173 L847,178 L843,183 L842,184 L842,183 L845,178 L849,170 L855,161 L862,152 L865,149 L864,150 L860,155 L856,161 L854,166 L855,162 L858,155 L863,148 L868,141 L872,139 L872,140 L872,141 L871,143 L868,148 L865,154 L863,160 L863,163 L864,161 L868,155 L871,148 L874,140 L877,135 L876,135 L870,142 L860,153 L853,165 L850,172 L850,174 L850,173 L855,168 L864,161 L874,152 L883,143 L885,139 L881,143 L874,152 L867,163 L863,173 L862,176 L862,175 L863,172 L868,166 L876,158 L888,149 L896,142 L896,143 L892,151 L886,162 L880,174 L876,181 L875,181 L875,177 L877,168 L879,159 L884,148 L888,141 L885,147 L879,157 L876,168 L875,176 L877,179 L880,179 L886,178 L894,176 L899,175 L901,177 L900,184 L897,196 L895,209 L894,221 L892,231 L890,241 L890,246 L890,245 L890,238 L891,227 L896,215 L902,205 L904,203 L902,207 L898,216 L895,227 L890,237 L888,244 L888,243 L888,237 L890,226 L894,213 L900,197 L904,188 L904,189 L903,195 L900,207 L897,219 L894,231 L891,238 L890,239 L891,237 L893,229 L899,221 L908,210 L919,200 L921,200 L921,205 L919,217 L915,230 L911,240 L910,245 L910,244 L910,239 L911,230 L913,221 L917,209 L921,203 L920,204 L917,211 L915,222 L914,232 L914,240 L915,242 L915,239 L916,233 L917,224 L920,214 L924,206 L924,205 L924,206 L922,209 L921,211 L920,212 L920,210 L921,203 L925,194 L929,185 L933,178 L934,174 L932,177 L931,180 L931,183 L932,183 L935,180 L938,176 L939,173 L939,171 L938,170 L936,170 L935,171 L935,172 L935,171 L935,170 L936,169 L936,168 L936,167 L936,168 L936,172 L936,180 L935,190 L934,198 L934,203 L934,205 L934,206 L935,204 L936,202 L937,200 L937,202 L936,212 L935,227 L936,240 L937,246 L937,247 L937,243 L937,235 L937,223 L940,210 L943,200 L943,198 L941,202 L936,211 L932,221 L930,230 L931,235 L934,236 L937,233 L942,228 L947,221 L952,214 L954,211 L954,212 L951,218 L950,227 L950,238 L953,245 L956,247 L958,246 L959,241 L960,234 L962,227 L963,221 L964,219 L960,220 L953,224 L948,230 L946,235 L947,237 L949,235 L953,230 L955,227 L956,226" fill="none" stroke="red" stroke-width="3"/></svg>