<svg xmlns="http://www.w3.org/2000/svg" xmlns:xlink="http://www.w3.org/1999/xlink" version="1.1" class="marks" width="1012" height="385" viewBox="0 0 1012 385"><rect width="1012" height="385" fill="white"/><path d="M13,210 L13,211 L13,210 L14,210 L15,208 L17,205 L19,202 L21,197 L24,193 L26,188 L28,184 L29,179 L31,174 L33,171 L35,167 L37,164 L40,161 L42,156 L45,153 L48,150 L51,148 L53,147 L57,147 L61,146 L64,146 L68,147 L71,148 L74,150 L77,152 L81,154 L85,157 L88,161 L90,164 L93,168 L96,171 L99,175 L102,179 L105,183 L107,187 L110,191 L112,195 L114,198 L116,200 L117,202 L118,202 L118,199 L119,195 L119,192 L120,187 L121,182 L124,176 L126,171 L129,166 L132,163 L136,159 L140,155 L144,152 L149,149 L154,146 L158,143 L162,139 L166,137 L170,136 L174,135 L178,134 L181,133 L184,132 L187,132 L190,132 L192,132 L195,132 L198,132 L200,133 L203,133 L205,134 L208,135 L210,136 L212,137 L214,138 L216,139 L218,139 L220,140 L223,142 L225,144 L228,147 L231,151 L233,154 L236,157 L238,161 L241,164 L243,167 L244,170 L246,173 L248,177 L249,180 L250,182 L251,185 L251,186 L251,188 L251,189 L252,190 L252,189 L252,187 L252,183 L252,178 L253,170 L255,162 L257,154 L260,149 L264,144 L269,139 L273,133 L277,129 L281,126 L286,124 L290,122 L294,121 L299,121 L304,121 L308,121 L311,122 L315,125 L319,128 L323,131 L327,134 L330,138 L333,142 L336,146 L338,150 L340,154 L342,156 L342,159 L342,161 L342,162 L342,163 L342,161 L341,158 L341,153 L342,148 L343,141 L346,134 L349,127 L354,122 L358,116 L361,112 L366,109 L371,106 L376,104 L381,103 L387,102 L391,102 L396,102 L401,104 L405,107 L410,112 L415,117 L419,122 L423,128 L427,135 L431,141 L435,149 L437,154 L440,160 L442,165 L443,169 L444,171 L444,172 L443,172 L442,171 L442,168 L442,164 L442,159 L442,152 L444,145 L446,137 L449,131 L453,126 L458,121 L463,116 L469,112 L474,110 L481,108 L487,107 L494,107 L501,108 L506,110 L511,114 L516,118 L521,123 L525,130 L529,136 L533,142 L536,148 L539,153 L540,156 L541,160 L541,163 L539,161 L537,156 L536,149 L535,141 L535,131 L538,121 L541,114 L544,109 L548,104 L555,100 L561,97 L567,95 L574,94 L579,94 L585,93 L592,94 L599,95 L606,97 L614,100 L621,103 L627,106 L634,109 L639,113 L645,118 L652,124 L656,129 L661,135 L666,140 L669,145 L671,149 L672,151 L673,153 L674,154 L674,153 L674,150 L675,145 L677,139 L679,132 L683,126 L687,120 L690,115 L693,110 L696,105 L701,101 L705,99 L708,99 L711,100 L715,102 L718,104 L721,108 L725,113 L727,119 L729,125 L731,132 L732,138 L733,144 L735,149 L736,151 L736,152 L736,153 L736,152 L737,151 L738,149 L740,146 L742,142 L745,136 L750,130 L755,126 L762,123 L767,122 L775,121 L782,120 L789,120 L796,122 L801,125 L805,128 L810,132 L814,136 L817,142 L819,149 L820,154 L821,159 L822,163 L823,166 L824,168 L824,170 L824,169 L824,167 L825,164 L827,160 L830,155 L834,149 L838,144 L841,139 L846,135 L850,132 L855,129 L860,128 L865,128 L870,128 L875,130 L879,134 L883,139 L886,146 L889,152 L890,157 L892,162 L893,166 L893,168 L893,169 L893,168 L894,166 L895,163 L896,159 L897,154 L900,149 L903,145 L907,141 L910,139 L914,136 L918,133 L922,132 L927,132 L931,132 L937,133 L942,135 L947,139 L951,143 L957,148 L962,154 L966,161 L969,168 L972,173 L974,177 L976,181 L978,185" fill="none" stroke="red" stroke-width="3"/></svg>