<svg xmlns="http://www.w3.org/2000/svg" version="1.1" xmlns:xlink="http://www.w3.org/1999/xlink" xmlns:svgjs="http://svgjs.dev/svgjs" width="950" height="375" id="chartSvg"><path d="M12,288 L10,288 L10,289 L10,290 L10,288 L9,283 L9,272 L8,256 L7,239 L8,224 L10,212 L12,204 L12,201 L12,202 L12,205 L11,210 L11,216 L10,221 L9,227 L9,231 L9,233 L9,232 L9,231 L10,229 L10,227 L10,226 L10,224 L10,223 L10,222 L10,221 L10,219 L10,215 L10,205 L10,195 L11,186 L11,179 L12,172 L12,166 L12,163 L12,162 L12,160 L12,157 L12,154 L12,151 L12,149 L12,147 L12,146 L12,145 L12,146 L12,147 L13,149 L13,152 L13,156 L13,159 L13,164 L13,167 L13,170 L14,173 L14,176 L14,179 L15,181 L15,183 L15,184 L15,186 L15,189 L16,193 L16,195 L16,196 L16,198 L17,200 L17,203 L18,207 L18,210 L18,212 L18,213 L18,214 L19,215 L19,216 L19,217 L20,219 L20,223 L22,229 L22,234 L23,239 L23,242 L24,244 L24,246 L24,245 L24,242 L23,237 L22,230 L22,220 L22,209 L22,199 L22,190 L22,183 L22,177 L22,171 L22,168 L22,169 L22,171 L22,176 L22,183 L21,193 L20,206 L20,219 L20,234 L20,248 L20,259 L20,275 L20,285 L20,293 L21,299 L21,300 L22,299 L22,298 L23,298 L23,297 L23,294 L22,291 L22,285 L22,277 L22,269 L23,253 L24,242 L24,230 L25,217 L26,207 L26,200 L26,197 L26,194 L26,191 L26,188 L26,185 L26,182 L26,180 L26,179 L26,178 L26,177 L26,176 L26,175 L26,174 L26,172 L25,170 L25,168 L25,166 L26,163 L26,161 L26,159 L26,157 L26,156 L26,155 L26,154 L26,153 L27,153 L27,154 L28,157 L28,161 L29,169 L29,180 L28,190 L28,198 L28,207 L28,218 L29,229 L30,238 L30,242 L31,247 L32,251 L32,254 L33,257 L33,258 L33,257 L33,255 L32,250 L32,242 L31,230 L31,213 L31,195 L31,179 L32,166 L33,155 L34,147 L34,143 L34,140 L34,139 L35,142 L36,150 L36,160 L37,173 L37,192 L37,213 L37,237 L38,260 L39,278 L39,288 L39,292 L40,292 L40,289 L41,282 L41,271 L41,256 L41,239 L41,220 L42,200 L43,184 L44,170 L44,161 L45,158 L45,157 L44,157 L44,158 L45,162 L45,170 L45,180 L46,194 L46,212 L46,229 L46,244 L47,259 L47,269 L47,272 L48,273 L49,273 L49,272 L49,268 L48,262 L47,251 L46,235 L46,214 L48,197 L49,185 L50,181 L50,185 L50,195 L50,206 L50,217 L50,226 L50,231 L50,229 L50,224 L49,215 L48,205 L48,196 L48,193 L48,194 L48,199 L49,208 L49,218 L49,230 L49,238 L49,240 L49,239 L50,233 L50,224 L51,213 L51,204 L52,200 L53,202 L53,207 L53,217 L53,227 L53,234 L53,235 L54,232 L55,223 L55,211 L56,200 L56,197 L56,198 L56,204 L56,211 L56,218 L56,224 L56,226 L57,226 L57,224 L57,217 L56,209 L56,202 L56,200 L56,201 L57,205 L57,209 L57,212 L57,215 L57,216 L57,215 L56,215 L55,214 L54,214 L53,214 L53,213 L52,213 L53,213 L53,214 L54,215 L56,216 L57,217 L58,217 L59,216 L60,214 L61,210 L61,203 L62,193 L63,180 L63,171 L64,163 L64,158 L64,156 L64,157 L65,161 L66,167 L66,176 L67,190 L67,204 L67,213 L67,221 L67,227 L67,229 L67,227 L68,224 L68,219 L68,213 L69,206 L69,198 L70,190 L70,188 L70,189 L71,192 L72,198 L72,204 L72,208 L72,211 L72,212 L72,211 L72,207 L72,198 L73,190 L73,188 L74,189 L75,196 L75,205 L76,214 L76,219 L76,218 L76,214 L76,204 L76,194 L77,190 L78,191 L80,198 L81,207 L83,219 L85,235 L87,256 L88,276 L88,287 L89,291 L89,293 L88,288 L87,279 L86,269 L84,257 L83,243 L82,227 L81,212 L81,202 L81,197 L81,195 L80,195 L80,196 L80,198 L81,202 L81,207 L83,214 L85,226 L86,240 L87,245 L87,243 L87,239 L87,230 L87,220 L87,209 L87,202 L87,201 L87,202 L87,204 L87,208 L88,215 L89,227 L91,246 L92,263 L92,274 L92,282 L92,289 L93,291 L93,290 L92,283 L90,268 L88,251 L86,231 L85,217 L83,207 L83,200 L83,199 L83,200 L83,203 L85,213 L85,225 L87,240 L89,255 L90,263 L91,266 L91,265 L91,260 L91,249 L90,235 L89,217 L88,200 L88,192 L88,188 L87,184 L86,181 L85,177 L85,176 L85,179 L86,188 L87,201 L89,218 L90,240 L91,258 L91,270 L91,274 L92,272 L92,264 L92,249 L92,232 L91,212 L89,193 L88,173 L88,159 L88,155 L88,156 L88,160 L90,170 L91,183 L92,200 L92,221 L94,235 L95,238 L96,237 L96,234 L96,224 L96,210 L95,193 L95,173 L95,161 L95,157 L95,158 L96,160 L96,166 L97,174 L98,184 L100,196 L101,208 L102,211 L102,210 L102,208 L100,201 L98,189 L96,174 L95,162 L95,156 L95,161 L95,170 L95,181 L95,192 L95,199 L95,200 L95,198 L96,193 L95,184 L95,172 L95,162 L96,161 L97,164 L98,173 L98,183 L98,193 L98,200 L98,202 L98,201 L98,198 L98,190 L98,180 L97,170 L98,166 L98,167 L99,170 L99,176 L99,183 L99,190 L100,194 L100,195 L101,192 L101,185 L101,175 L101,168 L102,167 L102,170 L104,176 L104,183 L105,190 L105,195 L106,194 L106,188 L106,182 L106,178 L107,180 L107,185 L108,190 L109,195 L109,200 L110,201 L110,200 L111,200 L112,203 L113,209 L114,216 L115,226 L117,237 L117,245 L118,251 L119,257 L120,261 L120,262 L120,261 L120,259 L120,258 L120,256 L120,255 L119,251 L118,244 L116,232 L116,224 L115,220 L114,215 L112,208 L111,199 L111,191 L111,190 L112,190 L112,194 L113,199 L113,204 L114,210 L115,218 L117,227 L118,234 L118,236 L118,235 L117,232 L115,220 L112,200 L111,180 L110,173 L110,172 L110,173 L111,176 L111,180 L112,187 L113,198 L114,217 L115,236 L117,246 L118,253 L119,256 L119,252 L118,242 L117,227 L114,208 L113,191 L113,177 L113,169 L113,167 L113,166 L114,170 L115,179 L116,191 L117,205 L118,223 L119,236 L121,244 L122,245 L122,239 L122,227 L120,210 L120,195 L121,188 L121,187 L121,188 L121,192 L122,200 L123,211 L124,224 L126,237 L127,242 L127,245 L128,246 L128,243 L127,234 L125,222 L124,207 L124,198 L124,196 L124,195 L124,198 L125,205 L126,213 L126,221 L127,227 L128,234 L130,241 L130,243 L130,242 L129,236 L127,224 L125,210 L124,192 L123,178 L123,169 L123,163 L123,158 L123,156 L123,158 L124,168 L124,185 L125,210 L127,242 L129,269 L131,289 L132,302 L133,309 L134,311 L135,310 L135,308 L134,301 L132,290 L130,276 L129,257 L127,235 L126,216 L125,202 L124,190 L123,180 L122,175 L122,172 L122,178 L123,189 L124,202 L125,221 L125,242 L125,256 L125,262 L126,262 L126,259 L126,249 L126,234 L126,220 L126,209 L126,205 L126,207 L126,210 L127,217 L127,224 L128,230 L129,235 L129,236 L130,234 L129,227 L129,218 L129,210 L129,208 L130,209 L131,214 L132,222 L134,229 L134,236 L135,239 L136,240 L136,238 L136,234 L136,225 L135,215 L136,206 L137,203 L137,204 L137,205 L139,212 L140,223 L142,234 L144,241 L144,243 L144,242 L144,241 L142,234 L140,222 L137,203 L136,189 L136,185 L136,183 L136,181 L136,183 L136,191 L136,202 L137,217 L138,234 L139,242 L139,241 L139,234 L138,225 L137,214 L136,199 L136,185 L135,179 L136,181 L137,188 L138,199 L139,211 L141,224 L142,229 L143,229 L143,225 L142,215 L141,200 L139,182 L139,173 L140,171 L141,172 L142,177 L143,186 L144,199 L145,215 L146,227 L147,232 L149,232 L150,230 L149,221 L148,207 L147,192 L147,180 L147,177 L148,177 L148,180 L149,189 L149,200 L150,211 L150,217 L151,217 L151,214 L150,205 L149,193 L149,183 L149,177 L150,175 L151,178 L152,187 L153,198 L153,209 L154,217 L156,223 L158,226 L158,227 L157,225 L156,219 L154,209 L154,199 L153,185 L151,170 L149,156 L149,147 L149,144 L150,142 L150,141 L150,140 L150,141 L150,144 L152,154 L154,171 L154,188 L154,201 L155,212 L156,225 L158,241 L158,253 L158,258 L157,258 L157,256 L157,254 L157,250 L157,245 L156,239 L156,231 L155,222 L154,212 L153,200 L151,184 L151,172 L151,168 L151,166 L151,165 L151,166 L151,172 L152,183 L154,197 L155,212 L157,219 L158,219 L158,217 L157,211 L156,200 L156,190 L156,183 L156,187 L157,195 L157,205 L158,214 L158,220 L160,221 L161,218 L161,211 L160,201 L160,192 L160,188 L160,192 L161,199 L161,206 L161,211 L162,212 L162,211 L162,207 L161,200 L161,193 L161,187 L161,183 L161,182 L161,183 L162,188 L162,198 L163,207 L164,217 L165,224 L165,226 L165,224 L165,220 L164,210 L163,198 L163,191 L163,190 L163,191 L163,195 L163,199 L163,202 L164,203 L164,204 L164,202 L163,198 L163,191 L162,185 L162,181 L162,180 L162,181 L162,182 L161,182 L160,182 L161,182 L162,182 L163,182 L163,183 L163,184 L164,184 L164,185 L164,186 L164,187 L164,188 L165,190 L166,194 L167,201 L168,211 L169,224 L170,238 L170,253 L170,266 L169,275 L169,283 L171,292 L172,299 L172,303 L173,305 L173,307 L173,308 L173,309 L173,308 L173,306 L173,301 L172,291 L171,275 L171,260 L170,246 L170,234 L169,226 L168,220 L168,218 L167,218 L167,217 L166,217 L166,216 L166,218 L168,229 L169,243 L169,259 L169,269 L169,271 L168,270 L168,266 L168,253 L166,232 L166,204 L167,186 L168,180 L168,181 L169,184 L170,193 L171,206 L173,221 L174,236 L176,243 L176,242 L176,239 L175,228 L173,212 L172,192 L172,178 L173,176 L173,177 L173,182 L173,190 L173,198 L173,203 L173,204 L173,203 L173,202 L173,199 L173,193 L173,186 L174,181 L176,181 L178,188 L180,199 L183,215 L185,235 L187,256 L190,277 L191,295 L193,305 L194,312 L195,315 L195,316 L195,315 L194,310 L191,300 L189,288 L188,276 L186,264 L185,250 L184,232 L183,215 L183,201 L183,193 L183,186 L182,178 L181,171 L181,164 L181,157 L181,150 L181,148 L181,149 L182,154 L182,161 L183,170 L184,183 L185,202 L186,217 L187,230 L187,241 L187,242 L187,241 L186,232 L184,215 L181,193 L180,175 L181,172 L181,174 L181,184 L181,198 L182,212 L182,220 L182,216 L182,204 L181,193 L181,187 L181,189 L182,196 L183,206 L184,213 L184,215 L184,214 L185,213 L185,211 L186,209 L186,207 L187,203 L187,198 L186,188 L185,176 L185,166 L185,156 L185,145 L185,134 L185,124 L184,118 L183,112 L183,107 L182,102 L182,96 L182,90 L183,86 L183,82 L183,78 L183,73 L184,68 L184,65 L184,66 L184,69 L184,73 L184,78 L184,84 L184,90 L185,96 L185,102 L185,110 L186,118 L186,127 L186,134 L186,140 L186,147 L187,155 L188,163 L189,171 L190,179 L191,185 L191,191 L192,198 L193,206 L194,210 L194,213 L195,214 L195,215 L196,214 L196,212 L197,209 L197,205 L197,196 L198,182 L198,167 L198,156 L198,149 L198,145 L198,150 L198,162 L198,176 L199,193 L200,209 L200,219 L200,215 L200,202 L199,183 L199,168 L200,165 L200,167 L201,176 L202,189 L202,200 L202,205 L202,200 L203,191 L204,183 L205,180 L206,184 L207,193 L208,203 L209,211 L210,215 L211,213 L211,208 L212,202 L212,196 L212,191 L212,189 L212,190 L212,192 L212,196 L212,201 L213,207 L214,214 L215,220 L215,225 L215,230 L215,233 L216,234 L216,233 L216,229 L216,224 L216,222 L216,220 L217,220 L218,223 L219,226 L220,230 L220,232 L221,232 L220,228 L220,220 L219,207 L218,198 L218,197 L218,198 L218,200 L218,207 L218,219 L218,235 L218,249 L218,255 L218,256 L218,254 L218,246 L217,235 L216,221 L215,205 L215,195 L215,196 L215,198 L215,205 L215,215 L217,228 L219,244 L220,257 L222,265 L224,271 L226,275 L227,277 L227,276 L224,272 L222,265 L221,258 L220,249 L219,239 L218,227 L217,216 L216,208 L216,205 L215,204 L215,205 L216,207 L217,211 L218,215 L219,221 L220,227 L220,228 L220,223 L219,215 L218,208 L217,202 L217,200 L217,202 L218,207 L218,213 L219,219 L219,222 L219,223 L219,222 L218,215 L217,206 L215,194 L214,186 L214,183 L214,184 L214,186 L214,190 L214,194 L214,199 L214,204 L215,208 L215,210 L215,209 L214,203 L213,195 L212,189 L212,186 L212,187 L212,188 L213,191 L214,194 L215,197 L216,200 L216,201 L217,201 L217,198 L217,193 L217,186 L218,177 L218,169 L219,163 L219,159 L218,155 L218,152 L218,150 L217,149 L217,148 L217,147 L217,146 L217,147 L217,150 L218,154 L218,158 L218,166 L219,175 L219,183 L219,188 L219,191 L220,193 L220,197 L220,201 L220,205 L220,207 L219,207 L219,206 L218,206 L217,206 L215,206 L214,206 L214,207 L216,207 L218,208 L220,208 L220,209 L221,209 L222,210 L222,211 L221,211 L220,211 L220,212 L221,213 L222,213 L222,208 L224,194 L225,185 L226,185 L226,187 L227,194 L227,205 L227,215 L226,223 L226,226 L225,225 L225,223 L225,215 L226,204 L227,191 L229,181 L230,179 L230,180 L231,185 L231,195 L232,207 L232,224 L232,240 L232,249 L233,251 L234,249 L234,239 L234,222 L234,199 L235,178 L237,168 L238,166 L238,168 L238,176 L238,189 L237,204 L236,222 L235,238 L235,244 L235,242 L235,236 L235,218 L234,196 L235,173 L236,166 L237,168 L237,176 L237,192 L236,209 L234,227 L234,232 L234,230 L235,220 L236,197 L237,172 L239,158 L239,157 L239,161 L239,174 L239,193 L239,215 L239,233 L240,242 L241,241 L242,236 L241,217 L240,193 L239,173 L239,166 L239,169 L239,180 L239,198 L239,217 L240,234 L241,239 L242,237 L242,226 L241,205 L240,180 L239,164 L240,162 L240,163 L241,173 L242,191 L242,211 L243,229 L244,237 L244,236 L244,229 L243,212 L242,190 L242,174 L244,170 L244,171 L244,180 L246,195 L246,212 L248,226 L250,231 L251,230 L251,224 L251,208 L250,190 L251,180 L252,186 L254,198 L254,211 L254,221 L255,227 L256,228 L257,225 L257,216 L257,205 L258,198 L259,197 L259,200 L260,208 L261,220 L261,230 L263,236 L263,235 L263,230 L261,217 L260,204 L259,198 L259,199 L259,202 L259,211 L260,222 L261,235 L262,253 L264,270 L264,281 L264,286 L264,283 L264,276 L264,265 L263,253 L263,238 L261,221 L260,208 L260,203 L260,205 L260,213 L259,224 L259,232 L260,238 L262,240 L263,237 L263,226 L263,211 L262,198 L262,195 L262,196 L263,200 L264,211 L264,223 L265,233 L266,240 L267,242 L267,241 L268,239 L268,236 L268,232 L268,229 L268,224 L268,218 L268,210 L268,203 L266,198 L265,191 L263,182 L262,174 L261,166 L261,158 L260,151 L259,143 L258,135 L257,128 L257,123 L257,118 L256,112 L256,105 L256,99 L256,95 L255,92 L255,89 L255,86 L255,83 L255,81 L255,79 L255,78 L255,77 L254,77 L254,76 L254,75 L254,74 L254,73 L254,72 L254,71 L254,70 L254,69 L254,68 L254,67 L254,66 L254,64 L254,63 L254,61 L253,59 L253,58 L253,56 L253,54 L253,52 L253,50 L253,48 L253,47 L253,46 L253,45 L253,43 L253,41 L253,39 L253,36 L253,34 L253,32 L253,31 L253,30 L253,29 L253,28 L253,27 L253,26 L253,27 L253,29 L253,33 L253,36 L254,39 L254,41 L254,43 L254,46 L254,51 L254,53 L254,56 L254,58 L254,61 L254,65 L254,69 L254,73 L254,75 L254,77 L254,79 L254,82 L254,85 L254,88 L254,92 L254,95 L254,99 L255,104 L255,109 L255,114 L255,117 L255,120 L255,122 L255,125 L255,128 L255,130 L255,132 L255,135 L255,137 L255,139 L256,141 L256,144 L256,146 L256,147 L256,149 L256,150 L256,152 L257,154 L257,156 L258,158 L259,159 L259,161 L259,162 L259,163 L259,165 L259,167 L259,169 L259,171 L259,172 L259,173 L259,174 L260,176 L260,178 L260,180 L260,181 L260,182 L261,183 L261,184 L261,185 L261,186 L261,187 L261,188 L261,189 L261,190 L261,192 L261,194 L261,198 L261,202 L261,205 L261,208 L261,211 L261,215 L261,220 L260,224 L260,226 L260,229 L261,231 L261,233 L261,234 L261,235 L261,237 L261,239 L261,241 L261,240 L261,239 L261,238 L261,235 L262,232 L262,229 L262,225 L262,220 L262,213 L262,205 L262,200 L263,197 L263,198 L264,200 L264,206 L264,216 L264,228 L264,237 L263,239 L263,237 L263,233 L262,221 L261,205 L261,192 L260,188 L259,187 L259,188 L259,190 L259,193 L259,197 L259,200 L260,202 L261,204 L262,202 L264,200 L265,198 L265,197 L266,197 L268,202 L268,212 L269,224 L270,236 L270,245 L271,249 L272,250 L273,252 L273,256 L274,263 L274,268 L274,271 L274,270 L274,267 L274,263 L274,256 L274,246 L275,232 L275,220 L275,214 L275,210 L275,208 L274,207 L274,209 L274,212 L274,216 L275,221 L275,227 L276,232 L276,236 L276,237 L277,237 L277,236 L277,234 L278,232 L278,229 L278,226 L278,223 L278,221 L278,218 L278,216 L278,215 L278,216 L278,218 L279,222 L280,228 L281,232 L281,234 L281,233 L281,230 L281,225 L281,220 L281,217 L281,216 L281,218 L281,223 L282,230 L283,237 L284,243 L284,244 L284,242 L284,239 L284,232 L283,225 L282,217 L281,207 L280,198 L278,188 L277,179 L277,174 L276,169 L276,164 L275,160 L274,155 L274,149 L273,142 L273,137 L273,134 L273,133 L273,132 L272,131 L272,130 L272,129 L272,128 L272,127 L272,124 L272,123 L272,122 L272,121 L272,120 L272,119 L272,118 L272,117 L272,116 L272,115 L272,113 L272,110 L272,108 L272,106 L271,104 L271,102 L271,101 L271,100 L271,101 L271,99 L271,97 L271,95 L271,94 L271,93 L271,95 L271,98 L271,102 L271,106 L271,110 L271,112 L271,113 L271,115 L271,117 L271,119 L271,121 L271,122 L271,124 L271,127 L271,129 L271,131 L271,133 L271,134 L271,136 L271,138 L271,141 L271,145 L271,147 L272,148 L272,150 L272,153 L272,156 L273,160 L273,162 L273,163 L273,164 L273,166 L273,168 L273,171 L273,173 L274,175 L274,176 L274,178 L274,180 L274,182 L275,184 L275,185 L275,186 L275,187 L275,188 L276,191 L276,193 L276,194 L276,195 L276,196 L276,198 L276,199 L276,200 L276,201 L276,204 L275,207 L275,210 L275,211 L275,212 L275,214 L275,216 L275,218 L275,219 L275,220 L275,222 L275,223 L275,225 L275,227 L275,228 L275,229 L275,230 L275,231 L275,232 L275,233 L275,234 L275,235 L275,236 L275,237 L276,237 L276,238 L276,239 L276,240 L276,242 L276,243 L276,244 L276,245 L276,246 L276,248 L276,250 L276,251 L277,253 L277,255 L277,256 L278,257 L278,258 L278,257 L278,256 L278,254 L278,251 L277,247 L277,243 L276,241 L276,239 L276,238 L276,237 L276,234 L277,232 L277,230 L277,229 L277,228 L277,227 L277,225 L278,223 L278,220 L278,215 L278,212 L278,207 L277,204 L277,200 L277,197 L277,195 L277,196 L277,197 L277,198 L277,200 L277,202 L277,205 L277,208 L277,210 L277,212 L277,215 L277,217 L278,220 L278,222 L278,224 L278,225 L278,227 L279,229 L279,232 L279,234 L279,237 L279,238 L280,239 L280,240 L280,242 L280,245 L280,247 L280,250 L280,252 L280,254 L280,256 L280,258 L280,261 L280,264 L280,268 L280,271 L280,274 L280,277 L281,281 L281,285 L281,288 L281,291 L281,293 L281,295 L282,298 L282,302 L282,306 L282,310 L282,314 L282,318 L282,322 L282,326 L282,330 L282,332 L282,334 L282,335 L282,336 L282,337 L282,338 L282,337 L282,336 L282,335 L282,334 L282,333 L282,332 L282,330 L282,329 L282,327 L282,326 L282,325 L282,324 L282,323 L282,322 L282,321 L281,319 L281,316 L281,314 L281,312 L281,310 L281,309 L281,308 L281,307 L281,305 L281,304 L281,302 L281,301 L281,299 L281,298 L281,296 L281,295 L281,293 L281,292 L281,291 L281,290 L281,288 L281,286 L281,284 L281,282 L281,280 L280,278 L280,275 L280,271 L279,267 L279,264 L279,261 L279,259 L279,255 L279,250 L279,245 L279,240 L279,236 L279,232 L278,228 L278,221 L277,215 L277,209 L276,202 L276,196 L275,189 L274,180 L273,173 L273,169 L273,167 L273,166 L273,165 L273,166 L273,172 L274,185 L274,207 L275,229 L275,243 L276,251 L276,254 L277,252 L277,244 L276,230 L276,214 L276,197 L276,183 L276,172 L275,166 L274,163 L274,166 L276,175 L277,188 L278,208 L279,232 L281,252 L281,265 L281,268 L281,264 L280,253 L280,236 L280,216 L281,195 L282,178 L282,165 L282,155 L283,148 L283,147 L283,149 L284,159 L284,176 L284,194 L284,218 L284,242 L284,259 L285,270 L286,274 L287,269 L286,254 L285,237 L285,218 L285,199 L285,183 L285,174 L285,173 L285,174 L285,180 L285,191 L286,205 L287,225 L288,245 L288,256 L288,261 L288,259 L288,254 L288,246 L287,237 L286,226 L285,212 L284,201 L283,192 L282,184 L281,178 L281,173 L281,168 L281,166 L281,167 L282,171 L283,181 L285,195 L286,207 L286,217 L287,226 L287,229 L287,228 L287,223 L287,213 L288,201 L289,186 L291,168 L291,152 L293,144 L294,140 L295,139 L295,138 L295,139 L294,144 L294,149 L293,156 L292,168 L291,186 L290,210 L289,238 L288,266 L288,286 L288,297 L288,298 L288,296 L287,286 L286,270 L285,254 L284,237 L282,217 L281,196 L282,178 L284,164 L285,156 L286,153 L286,152 L286,153 L285,156 L285,162 L285,171 L286,185 L288,204 L290,223 L290,237 L291,248 L291,254 L291,255 L292,254 L292,252 L291,244 L291,231 L291,213 L291,191 L290,175 L290,166 L289,161 L289,162 L289,170 L289,181 L289,195 L291,214 L291,232 L291,241 L291,242 L291,239 L291,228 L290,213 L290,198 L291,188 L292,187 L292,190 L292,198 L292,210 L292,225 L293,239 L295,246 L295,247 L295,246 L295,240 L294,228 L293,212 L293,198 L294,193 L294,194 L294,197 L294,203 L294,213 L294,223 L294,229 L295,230 L295,228 L295,223 L294,214 L294,206 L294,204 L295,205 L296,210 L297,220 L298,229 L298,235 L298,237 L298,235 L298,227 L297,218 L297,212 L298,218 L299,229 L300,241 L303,253 L305,263 L308,266 L307,261 L304,249 L301,233 L298,215 L299,207 L300,206 L301,207 L303,214 L305,224 L306,234 L307,242 L308,245 L308,244 L308,239 L306,227 L305,215 L304,208 L305,207 L306,213 L308,223 L308,233 L308,242 L308,244 L308,242 L307,233 L305,222 L304,211 L304,210 L304,213 L306,222 L307,232 L307,240 L308,246 L309,244 L308,238 L308,229 L307,224 L307,222 L308,224 L308,229 L310,235 L310,241 L311,246 L312,249 L311,244 L309,235 L308,225 L307,216 L307,207 L306,199 L305,192 L305,186 L304,179 L304,173 L303,168 L303,163 L302,159 L301,154 L301,150 L300,147 L300,148 L300,149 L302,155 L305,168 L307,187 L308,205 L309,221 L310,234 L313,245 L316,257 L319,267 L320,277 L320,281 L320,280 L320,278 L319,273 L318,265 L315,252 L313,237 L312,222 L310,207 L310,190 L310,174 L310,163 L310,154 L310,147 L310,146 L310,148 L310,154 L311,163 L312,173 L313,184 L314,194 L315,199 L315,200 L315,199 L315,193 L314,183 L314,171 L314,159 L314,154 L314,155 L314,158 L314,167 L313,176 L313,183 L313,187 L314,185 L314,181 L315,174 L315,167 L316,162 L316,161 L316,162 L316,163 L317,162 L317,161 L318,162 L319,166 L320,171 L320,176 L320,180 L320,182 L320,183 L320,182 L320,181 L319,177 L319,171 L318,162 L318,151 L318,144 L317,139 L317,137 L317,136 L317,133 L317,129 L316,125 L316,124 L316,126 L317,132 L319,144 L321,155 L322,161 L322,165 L322,167 L322,169 L322,171 L322,170 L322,164 L322,154 L322,140 L321,132 L321,131 L320,132 L320,135 L320,143 L320,155 L320,169 L320,183 L320,189 L320,190 L320,189 L320,182 L319,166 L317,144 L317,122 L318,113 L319,109 L320,108 L321,109 L322,118 L322,133 L322,153 L320,173 L318,183 L318,185 L317,180 L317,166 L317,151 L318,137 L319,132 L319,134 L319,137 L319,146 L319,157 L319,167 L320,174 L320,175 L321,171 L321,161 L321,148 L321,136 L322,132 L322,135 L322,142 L322,151 L322,160 L322,166 L323,168 L323,166 L323,161 L323,154 L323,148 L324,143 L325,139 L326,139 L327,139 L327,144 L327,151 L328,161 L330,172 L331,182 L332,190 L333,195 L333,193 L333,188 L332,179 L332,170 L331,161 L331,159 L331,160 L332,167 L333,177 L334,189 L334,200 L335,208 L335,215 L335,219 L336,220 L336,222 L337,222 L337,221 L337,219 L337,215 L337,210 L336,205 L335,198 L335,191 L334,186 L333,183 L333,179 L333,175 L333,172 L333,171 L333,172 L332,172 L331,172 L330,172 L329,171 L328,171 L327,170 L328,170 L329,171 L328,171 L327,171 L328,171 L329,173 L330,179 L332,191 L333,201 L333,205 L333,207 L334,210 L335,210 L335,208 L334,199 L334,185 L333,168 L334,160 L335,159 L335,161 L336,168 L337,179 L336,191 L335,204 L335,218 L334,228 L334,233 L334,237 L334,239 L334,240 L334,238 L334,230 L334,217 L333,200 L334,182 L334,168 L335,162 L335,160 L335,161 L335,164 L335,173 L335,185 L335,198 L335,212 L336,224 L337,233 L337,237 L337,238 L337,237 L338,234 L339,227 L339,217 L340,208 L341,200 L341,198 L341,199 L341,202 L342,211 L342,224 L343,239 L344,249 L344,252 L345,251 L345,246 L345,235 L344,222 L344,209 L344,202 L345,202 L345,203 L345,209 L345,219 L345,230 L346,243 L347,252 L347,254 L347,250 L346,241 L345,228 L344,216 L344,210 L346,210 L347,214 L349,222 L351,232 L352,244 L354,257 L358,273 L361,291 L364,306 L366,319 L367,331 L368,342 L368,352 L369,359 L370,364 L370,365 L370,364 L370,362 L368,358 L366,349 L364,339 L364,326 L363,313 L361,300 L360,283 L359,267 L358,255 L358,246 L357,238 L357,231 L355,222 L354,213 L354,207 L354,204 L354,202 L353,199 L352,196 L352,192 L352,191 L352,192 L352,193 L352,195 L353,199 L354,206 L354,218 L356,234 L358,250 L360,265 L361,277 L362,287 L362,294 L362,295 L361,295 L360,289 L358,277 L355,259 L353,234 L351,212 L350,195 L349,181 L348,173 L348,172 L348,178 L349,190 L350,204 L352,219 L353,231 L354,237 L355,239 L355,234 L355,224 L354,212 L354,197 L355,188 L355,190 L356,197 L358,210 L361,229 L364,249 L366,263 L368,269 L368,270 L368,268 L366,256 L364,239 L364,221 L363,201 L362,183 L362,171 L362,164 L362,163 L363,164 L364,171 L365,185 L366,202 L368,223 L369,243 L370,259 L372,273 L373,285 L373,292 L373,293 L373,291 L373,288 L373,283 L373,277 L373,268 L371,256 L369,238 L367,217 L366,198 L366,181 L365,168 L364,158 L364,151 L364,149 L364,148 L364,150 L364,156 L364,164 L364,174 L364,190 L365,206 L366,216 L367,221 L367,222 L368,222 L368,217 L367,206 L366,192 L365,174 L364,160 L364,158 L364,161 L364,171 L365,183 L367,202 L369,224 L371,239 L372,250 L373,256 L373,258 L373,257 L374,254 L374,244 L373,230 L373,212 L373,188 L373,164 L372,148 L371,140 L371,139 L370,141 L370,148 L370,158 L371,171 L374,192 L375,215 L376,233 L376,246 L377,254 L377,257 L378,256 L378,252 L378,242 L377,228 L376,213 L374,197 L373,186 L372,184 L371,185 L371,188 L371,197 L371,209 L372,221 L373,230 L373,232 L373,229 L370,217 L367,200 L364,180 L364,170 L364,172 L366,183 L367,196 L369,212 L370,230 L371,241 L371,242 L372,239 L371,228 L369,212 L368,191 L367,169 L367,154 L367,152 L367,153 L368,160 L369,173 L369,189 L370,208 L372,224 L374,232 L374,233 L374,227 L373,214 L371,198 L370,180 L370,168 L370,166 L370,167 L370,175 L370,188 L371,201 L371,213 L372,221 L374,223 L376,223 L377,221 L377,216 L378,208 L379,202 L381,201 L382,204 L383,210 L385,219 L387,229 L388,235 L388,233 L388,224 L387,211 L385,191 L381,166 L376,141 L374,120 L373,107 L373,99 L374,96 L374,99 L373,107 L372,119 L372,133 L373,155 L373,182 L373,206 L374,227 L375,245 L377,259 L378,271 L378,275 L378,272 L379,266 L379,261 L381,254 L382,244 L383,227 L383,202 L384,179 L385,171 L384,170 L383,170 L383,174 L382,180 L382,188 L382,196 L383,203 L384,206 L384,205 L384,200 L383,193 L382,185 L381,180 L382,183 L383,190 L383,200 L383,211 L383,222 L383,228 L384,227 L384,225 L383,216 L383,205 L383,195 L383,191 L383,195 L384,203 L385,213 L387,225 L390,236 L392,238 L393,235 L392,225 L391,213 L391,200 L392,185 L392,168 L392,148 L390,127 L390,112 L392,103 L393,97 L393,92 L393,88 L393,87 L393,88 L394,94 L394,105 L393,116 L393,134 L392,159 L391,183 L391,199 L391,214 L392,228 L393,237 L393,242 L393,240 L393,233 L393,222 L393,209 L395,198 L395,197 L395,198 L395,200 L395,204 L396,210 L398,219 L399,229 L401,235 L401,237 L401,235 L401,230 L400,222 L398,210 L398,199 L398,195 L398,196 L398,199 L398,206 L398,217 L398,229 L398,244 L398,253 L398,252 L398,250 L398,242 L398,234 L398,226 L399,219 L399,212 L399,207 L399,204 L398,203 L398,202 L398,200 L398,194 L398,184 L399,175 L400,173 L401,180 L402,190 L402,200 L402,206 L402,205 L403,201 L403,192 L402,182 L403,177 L403,178 L403,186 L404,198 L404,210 L405,223 L407,235 L409,240 L410,240 L411,238 L411,229 L412,219 L412,207 L413,195 L413,183 L412,172 L411,163 L411,153 L411,142 L412,133 L413,124 L413,115 L415,104 L417,92 L420,82 L422,73 L423,68 L422,69 L421,70 L420,72 L420,77 L419,84 L417,94 L414,107 L412,122 L409,139 L407,158 L405,174 L405,186 L406,198 L406,210 L406,223 L406,234 L407,241 L407,244 L408,248 L408,252 L408,256 L408,257 L408,256 L407,251 L406,247 L406,242 L406,233 L405,218 L405,200 L405,190 L405,195 L406,202 L407,212 L408,222 L410,232 L412,235 L412,234 L413,229 L412,218 L409,204 L407,191 L405,183 L405,182 L406,183 L407,188 L409,197 L411,205 L413,215 L414,225 L415,227 L415,226 L415,221 L414,210 L412,197 L410,183 L410,176 L409,175 L409,176 L410,178 L410,182 L411,186 L411,189 L411,190 L411,189 L411,188 L411,190 L412,198 L413,207 L414,217 L415,225 L416,234 L416,243 L417,249 L417,251 L418,252 L418,254 L418,255 L418,256 L418,255 L417,250 L415,242 L414,234 L413,223 L412,215 L412,214 L412,215 L413,221 L415,232 L417,249 L418,270 L418,287 L418,298 L418,304 L418,305 L418,304 L417,296 L415,282 L413,264 L410,240 L408,221 L408,212 L408,207 L408,206 L408,207 L409,213 L411,224 L414,237 L417,251 L420,263 L421,268 L422,268 L421,265 L420,254 L418,240 L415,222 L413,206 L412,199 L412,201 L412,210 L412,224 L413,242 L413,260 L413,271 L414,273 L414,272 L414,268 L414,258 L414,246 L413,232 L413,220 L413,216 L414,216 L415,220 L415,229 L417,241 L418,254 L418,263 L419,267 L419,265 L419,254 L419,241 L418,226 L419,217 L419,212 L419,210 L418,210 L418,213 L420,223 L421,237 L423,254 L425,268 L428,278 L431,288 L433,295 L434,296 L434,293 L431,282 L427,267 L423,249 L420,229 L415,211 L412,195 L411,184 L411,176 L411,173 L411,172 L411,171 L412,171 L412,175 L413,183 L414,193 L415,205 L417,221 L418,236 L420,246 L422,255 L424,260 L424,259 L424,254 L423,247 L423,241 L423,235 L423,229 L423,221 L422,214 L422,211 L423,214 L424,218 L425,222 L426,226 L427,228 L428,229 L429,229 L429,227 L428,221 L427,213 L426,205 L425,195 L423,186 L423,178 L422,170 L422,164 L422,158 L422,154 L422,149 L423,145 L423,139 L423,134 L424,129 L425,125 L425,122 L424,120 L424,118 L423,117 L423,115 L423,114 L423,113 L423,112 L423,111 L423,110 L423,108 L423,107 L423,105 L423,103 L423,102 L423,100 L423,97 L424,94 L425,91 L427,88 L430,85 L432,82 L432,81 L432,80 L432,79 L432,78 L432,76 L433,73 L435,68 L437,63 L439,60 L439,59 L438,58 L437,59 L437,61 L436,64 L435,68 L433,73 L432,79 L431,84 L430,88 L430,92 L429,97 L428,100 L427,104 L426,109 L425,112 L424,116 L424,119 L424,123 L423,127 L423,131 L423,135 L422,139 L422,143 L421,147 L421,152 L421,155 L421,158 L422,161 L422,163 L422,166 L422,170 L421,172 L421,173 L421,175 L421,177 L421,180 L421,184 L421,187 L421,188 L420,188 L420,190 L420,192 L420,193 L420,194 L419,195 L418,197 L417,198 L416,199 L416,200 L416,201 L416,202 L415,202 L415,204 L415,207 L415,213 L415,220 L415,229 L415,238 L415,247 L415,255 L415,262 L415,267 L415,271 L415,276 L415,282 L415,287 L415,289 L415,288 L416,287 L417,285 L417,281 L417,272 L415,257 L414,241 L413,228 L411,215 L411,205 L413,196 L416,189 L418,186 L420,187 L420,195 L421,207 L421,219 L421,234 L420,250 L420,262 L420,270 L420,276 L421,278 L421,277 L420,269 L419,256 L418,242 L416,224 L416,210 L416,204 L415,202 L415,205 L415,217 L416,232 L417,247 L418,259 L418,264 L418,261 L418,251 L418,237 L417,220 L417,207 L417,202 L417,201 L417,203 L417,211 L418,222 L418,234 L420,247 L421,258 L423,262 L423,263 L423,262 L422,255 L421,243 L420,229 L420,216 L420,210 L420,208 L420,209 L420,211 L420,219 L421,230 L422,243 L423,254 L423,258 L423,257 L423,256 L423,251 L422,239 L422,223 L421,210 L421,203 L420,200 L420,197 L420,195 L420,194 L420,195 L420,199 L421,203 L421,208 L422,215 L423,224 L425,239 L429,256 L432,269 L434,276 L434,278 L433,271 L432,260 L430,245 L430,225 L430,207 L427,191 L425,179 L425,173 L425,172 L425,173 L425,180 L427,190 L428,202 L431,220 L435,244 L437,261 L437,269 L438,275 L438,276 L439,276 L439,273 L438,262 L437,246 L437,229 L438,215 L438,205 L437,197 L436,192 L436,194 L437,200 L438,207 L438,216 L438,225 L438,236 L438,245 L439,254 L439,256 L439,255 L439,251 L437,242 L437,233 L437,223 L437,216 L437,215 L437,217 L437,224 L439,235 L440,249 L442,266 L444,277 L445,280 L446,279 L446,275 L446,264 L445,247 L443,226 L442,206 L442,199 L442,200 L443,209 L445,223 L447,240 L449,259 L450,268 L450,269 L450,268 L448,260 L445,246 L443,232 L444,223 L445,221 L445,222 L446,230 L447,242 L448,255 L449,266 L449,269 L449,267 L449,259 L449,246 L449,234 L451,229 L452,228 L453,232 L454,241 L455,252 L458,266 L463,281 L468,293 L469,296 L468,292 L465,281 L463,267 L462,251 L463,241 L464,240 L464,244 L465,253 L465,265 L466,277 L467,286 L468,289 L468,286 L464,276 L460,261 L456,246 L456,242 L458,246 L460,255 L461,265 L462,271 L461,264 L459,250 L457,236 L457,229 L458,229 L459,233 L462,241 L464,249 L465,254 L465,248 L464,237 L462,229 L462,228 L462,231 L465,239 L467,246 L467,250 L467,248 L466,239 L464,227 L462,220 L462,222 L464,228 L467,238 L469,246 L469,249 L468,245 L466,234 L462,219 L458,203 L455,191 L454,182 L454,174 L454,168 L455,165 L455,164 L455,165 L455,167 L455,170 L454,173 L454,175 L454,177 L454,179 L454,180 L455,182 L455,184 L455,185 L455,187 L455,190 L457,199 L459,213 L461,224 L462,232 L462,239 L463,247 L464,256 L464,259 L464,258 L464,257 L464,255 L464,249 L463,241 L462,231 L460,221 L459,212 L458,205 L458,204 L459,205 L460,213 L462,224 L464,234 L465,243 L466,246 L465,244 L462,234 L460,221 L460,208 L460,196 L462,189 L462,188 L462,189 L462,193 L464,204 L465,218 L468,240 L470,261 L472,276 L474,288 L476,298 L477,307 L478,310 L478,309 L476,303 L474,293 L472,285 L471,275 L470,262 L468,245 L464,224 L462,203 L462,190 L462,182 L460,177 L459,172 L457,167 L456,163 L456,166 L458,175 L459,186 L461,199 L463,216 L465,235 L467,252 L469,264 L471,266 L472,266 L472,262 L471,253 L468,239 L465,220 L461,191 L459,167 L459,154 L458,143 L458,135 L460,130 L462,129 L464,129 L467,136 L469,151 L470,167 L471,189 L474,216 L476,244 L478,269 L481,287 L483,296 L484,300 L481,293 L477,279 L474,262 L471,240 L467,219 L464,201 L462,185 L459,174 L459,172 L459,173 L459,176 L460,187 L463,200 L466,213 L468,227 L470,243 L471,258 L472,272 L473,283 L474,289 L475,292 L476,293 L476,291 L476,283 L475,274 L474,266 L474,258 L473,250 L471,242 L470,234 L470,228 L470,225 L471,225 L471,226 L471,227 L473,232 L474,239 L476,249 L478,259 L479,264 L479,263 L477,256 L476,247 L474,234 L474,218 L473,204 L473,199 L473,198 L473,200 L473,206 L473,216 L474,227 L475,238 L477,247 L479,252 L479,250 L477,241 L475,228 L474,215 L473,205 L474,203 L474,205 L475,213 L476,224 L477,234 L479,243 L479,245 L479,243 L478,234 L476,222 L476,214 L476,212 L476,214 L476,217 L477,220 L477,221 L478,218 L478,210 L478,201 L478,200 L478,201 L478,205 L479,212 L481,222 L484,237 L487,253 L490,268 L491,282 L492,293 L493,304 L493,313 L493,317 L491,319 L491,315 L491,309 L490,301 L489,290 L486,271 L484,251 L484,231 L483,212 L482,196 L482,186 L481,182 L480,179 L480,176 L480,175 L481,179 L482,189 L483,201 L484,215 L486,227 L487,230 L487,229 L487,225 L487,213 L485,198 L484,182 L484,177 L485,178 L485,180 L485,186 L485,193 L485,200 L486,207 L487,208 L487,205 L487,197 L486,187 L486,182 L486,185 L487,192 L488,199 L488,204 L488,205 L488,202 L487,193 L486,183 L486,173 L486,166 L485,157 L485,145 L486,131 L489,119 L491,113 L491,112 L491,114 L491,119 L491,127 L491,137 L491,151 L490,165 L490,180 L490,193 L491,204 L492,210 L493,214 L493,216 L493,217 L493,212 L492,204 L492,195 L491,185 L491,174 L489,168 L489,166 L488,166 L488,168 L489,174 L490,182 L491,188 L491,189 L491,187 L491,180 L490,172 L490,168 L490,167 L491,168 L491,173 L491,180 L492,188 L492,197 L492,205 L492,211 L493,218 L496,228 L499,239 L502,250 L503,255 L504,258 L505,259 L505,261 L504,259 L502,254 L501,250 L501,246 L500,242 L499,233 L498,222 L498,212 L498,205 L498,200 L498,193 L497,185 L496,183 L496,184 L496,185 L496,189 L496,193 L495,199 L495,207 L496,220 L496,232 L496,239 L496,240 L496,239 L497,236 L497,225 L496,210 L495,195 L493,183 L493,177 L492,179 L492,186 L492,195 L492,202 L493,208 L493,209 L493,207 L493,201 L491,191 L489,180 L489,173 L489,175 L491,181 L493,188 L494,195 L495,198 L495,197 L495,193 L494,185 L493,176 L492,167 L491,156 L491,143 L490,129 L489,122 L488,120 L488,121 L489,122 L490,127 L491,134 L492,142 L493,154 L495,170 L496,180 L496,183 L496,182 L496,177 L496,170 L496,161 L495,152 L495,146 L494,146 L494,149 L495,158 L496,166 L496,173 L496,180 L496,182 L496,180 L496,173 L495,163 L495,153 L495,146 L496,145 L496,146 L496,152 L497,161 L497,171 L498,182 L498,188 L498,189 L499,185 L499,176 L499,164 L499,151 L500,143 L501,139 L501,140 L501,145 L501,152 L501,159 L501,163 L502,164 L502,162 L502,156 L502,149 L502,142 L503,138 L503,137 L503,138 L503,139 L503,140 L503,141 L503,142 L503,143 L503,142 L503,140 L503,138 L503,137 L503,136 L503,134 L503,133 L503,132 L503,131 L503,130 L503,131 L503,134 L505,141 L506,147 L506,151 L506,149 L506,143 L505,133 L505,124 L505,121 L505,122 L505,125 L506,132 L506,137 L507,142 L508,146 L508,144 L508,140 L508,135 L508,129 L509,122 L511,116 L511,110 L513,104 L515,98 L515,93 L516,90 L515,90 L515,89 L515,88 L515,87 L515,86 L514,85 L514,84 L514,83 L513,82 L513,81 L513,80 L513,79 L513,78 L513,76 L513,74 L513,72 L513,70 L512,68 L512,66 L512,63 L512,60 L512,58 L512,57 L512,56 L512,53 L512,51 L512,50 L512,49 L512,48 L512,46 L512,44 L512,42 L512,41 L511,40 L511,39 L511,37 L511,35 L511,33 L511,31 L511,30 L511,31 L511,32 L511,35 L511,39 L511,45 L511,50 L511,52 L511,53 L510,53 L510,55 L510,56 L510,57 L510,58 L510,59 L510,61 L510,62 L510,64 L510,65 L510,66 L510,67 L510,68 L510,71 L510,73 L510,77 L510,79 L509,80 L509,82 L509,84 L510,87 L510,90 L510,92 L510,95 L510,97 L510,100 L510,103 L510,107 L510,113 L510,119 L510,128 L510,136 L510,141 L510,142 L510,139 L509,129 L508,115 L506,95 L506,78 L506,71 L506,70 L506,74 L505,85 L503,101 L500,122 L497,139 L497,147 L498,149 L498,148 L499,143 L501,129 L501,109 L501,83 L501,70 L501,66 L501,70 L501,80 L501,93 L502,111 L503,134 L503,148 L505,152 L506,150 L506,141 L506,127 L506,109 L504,90 L503,80 L503,83 L503,93 L503,107 L504,124 L506,148 L507,168 L508,178 L509,181 L509,182 L510,180 L509,172 L507,156 L504,136 L503,116 L503,108 L504,107 L504,114 L505,127 L506,146 L506,169 L506,186 L507,191 L507,190 L507,185 L506,171 L504,151 L504,129 L504,109 L504,105 L504,107 L505,117 L506,135 L506,155 L506,181 L507,202 L509,208 L511,208 L512,204 L512,190 L511,169 L511,142 L512,124 L512,122 L512,124 L511,135 L510,153 L509,176 L510,206 L512,233 L513,253 L513,264 L513,269 L514,269 L514,267 L511,254 L508,233 L503,205 L501,171 L505,146 L508,131 L508,124 L508,127 L507,141 L507,161 L507,182 L508,199 L510,208 L511,211 L511,210 L511,206 L511,192 L510,171 L507,142 L506,123 L506,116 L506,112 L507,118 L508,136 L509,160 L511,192 L513,221 L514,240 L514,246 L515,243 L514,230 L512,208 L509,181 L506,147 L504,123 L504,112 L504,107 L505,114 L508,131 L510,154 L515,181 L519,205 L520,220 L520,222 L520,217 L519,203 L519,185 L518,160 L516,132 L516,105 L518,91 L521,88 L522,88 L523,95 L523,107 L523,121 L522,135 L521,153 L520,178 L521,207 L523,233 L526,252 L529,264 L530,267 L530,266 L528,263 L527,259 L526,258 L526,257 L526,258 L526,259 L526,257 L524,246 L518,222 L514,196 L513,173 L513,154 L513,138 L513,124 L512,114 L511,108 L511,107 L511,110 L511,116 L511,125 L511,141 L512,163 L512,186 L513,207 L513,225 L514,240 L516,252 L518,263 L519,268 L519,270 L519,269 L519,268 L520,264 L519,259 L518,251 L515,239 L514,221 L513,201 L512,178 L511,151 L511,132 L512,120 L512,113 L512,108 L511,104 L511,101 L511,102 L511,103 L511,105 L511,108 L512,112 L512,115 L512,118 L512,120 L512,122 L512,123 L512,125 L513,131 L514,139 L515,150 L517,163 L519,179 L520,196 L522,211 L524,225 L525,236 L526,240 L526,241 L526,240 L525,237 L525,232 L525,226 L524,217 L522,206 L518,191 L514,173 L511,154 L511,144 L512,141 L512,140 L512,141 L513,149 L513,161 L514,177 L515,195 L517,207 L518,214 L519,215 L519,213 L519,206 L518,191 L516,172 L514,151 L514,141 L515,138 L515,143 L516,156 L517,173 L518,191 L518,205 L518,211 L518,210 L518,203 L517,188 L515,172 L513,155 L513,148 L513,149 L514,154 L516,167 L518,180 L518,193 L518,197 L518,195 L519,183 L518,169 L517,159 L518,163 L520,173 L521,186 L522,199 L522,207 L523,200 L522,188 L520,173 L519,159 L520,147 L521,138 L523,132 L523,131 L523,133 L523,143 L523,157 L523,173 L524,189 L525,203 L527,215 L528,220 L529,218 L530,214 L531,204 L530,188 L529,168 L527,144 L525,120 L525,102 L526,86 L527,77 L528,70 L529,68 L529,72 L530,83 L530,97 L530,116 L530,143 L530,176 L529,208 L529,236 L530,257 L532,270 L533,278 L533,282 L533,283 L531,282 L530,277 L530,273 L530,267 L529,257 L528,242 L525,216 L524,193 L524,173 L524,150 L524,129 L525,117 L526,110 L526,109 L525,110 L524,118 L524,129 L523,142 L523,159 L524,179 L523,192 L523,194 L523,193 L523,185 L523,172 L523,158 L527,140 L530,124 L531,121 L531,122 L530,131 L530,146 L529,164 L528,183 L528,193 L530,193 L531,189 L531,174 L531,156 L531,141 L532,139 L533,141 L533,147 L533,158 L533,169 L533,178 L534,171 L533,155 L531,137 L530,120 L530,116 L531,116 L531,117 L532,120 L533,123 L535,129 L537,140 L540,159 L540,181 L541,200 L543,219 L546,241 L548,261 L548,270 L548,271 L547,264 L545,249 L542,233 L540,215 L538,195 L537,173 L535,148 L536,128 L537,118 L538,114 L537,117 L536,126 L535,136 L533,150 L533,167 L533,188 L533,203 L533,213 L533,216 L533,215 L534,211 L534,201 L534,188 L534,171 L534,151 L534,128 L532,101 L531,86 L530,78 L530,70 L530,65 L530,60 L531,58 L531,61 L531,66 L531,72 L531,83 L533,105 L533,136 L533,162 L535,186 L536,206 L537,217 L537,222 L536,217 L533,203 L531,186 L529,168 L529,147 L530,133 L531,129 L532,134 L533,148 L533,165 L535,185 L536,202 L536,208 L537,208 L537,204 L537,192 L537,176 L536,155 L536,130 L537,113 L537,110 L537,109 L537,111 L537,122 L537,139 L538,157 L538,171 L539,176 L539,175 L540,168 L540,156 L540,141 L541,129 L543,126 L544,127 L544,134 L545,147 L545,164 L546,185 L548,205 L551,225 L551,239 L552,248 L553,254 L553,256 L553,253 L550,239 L546,221 L543,199 L542,178 L543,161 L543,148 L543,143 L544,148 L545,162 L546,178 L547,193 L548,199 L549,197 L550,188 L549,172 L548,155 L548,141 L550,133 L552,130 L553,132 L554,143 L554,159 L554,179 L553,196 L553,204 L554,198 L553,188 L552,176 L551,162 L552,155 L553,159 L555,170 L556,183 L557,200 L558,214 L559,218 L559,213 L559,198 L557,183 L556,173 L556,172 L557,174 L558,183 L559,195 L560,213 L562,234 L564,246 L566,248 L567,246 L567,240 L566,231 L565,219 L563,199 L559,171 L555,144 L552,124 L552,109 L554,97 L555,91 L556,90 L556,95 L555,108 L555,127 L554,147 L555,166 L557,183 L557,189 L557,188 L557,178 L557,158 L557,134 L555,104 L555,80 L557,69 L558,66 L558,68 L559,81 L559,103 L558,130 L558,159 L558,181 L558,188 L557,180 L555,162 L552,140 L550,116 L550,103 L551,100 L552,108 L553,124 L554,146 L555,174 L557,193 L559,198 L560,193 L560,176 L559,152 L559,129 L559,116 L560,113 L560,115 L562,127 L563,146 L564,167 L566,188 L568,198 L569,198 L569,188 L567,170 L565,154 L564,144 L564,141 L564,142 L564,146 L566,159 L568,175 L570,190 L572,193 L573,188 L573,176 L571,163 L570,156 L569,155 L569,156 L572,161 L574,171 L576,183 L577,196 L578,199 L578,196 L577,185 L574,171 L570,158 L569,155 L569,156 L570,162 L572,174 L575,190 L579,211 L582,228 L584,238 L585,241 L586,243 L587,247 L589,251 L589,253 L588,248 L584,233 L581,216 L578,197 L577,184 L576,180 L576,179 L575,185 L575,200 L576,220 L578,236 L579,237 L579,229 L578,212 L576,194 L575,179 L575,175 L575,176 L576,179 L577,187 L577,192 L578,193 L578,181 L577,162 L574,143 L574,135 L574,134 L574,132 L573,120 L572,100 L572,85 L571,74 L570,65 L569,58 L569,54 L570,51 L570,53 L570,54 L570,56 L571,59 L571,68 L572,82 L572,97 L574,110 L576,123 L577,137 L578,155 L578,173 L578,185 L579,195 L579,204 L579,213 L578,221 L578,227 L579,231 L579,232 L579,234 L580,236 L580,235 L580,232 L579,228 L578,222 L577,214 L574,199 L571,182 L569,169 L568,159 L567,149 L566,136 L566,126 L565,121 L565,119 L565,120 L565,125 L565,135 L566,150 L568,169 L569,185 L571,199 L572,207 L573,208 L574,207 L575,197 L574,180 L572,163 L573,147 L573,139 L573,138 L573,139 L574,143 L575,150 L577,156 L577,159 L578,159 L578,152 L578,140 L578,128 L579,119 L580,116 L581,116 L581,120 L581,130 L581,143 L582,158 L583,167 L584,168 L584,165 L584,154 L583,141 L582,124 L582,108 L582,93 L582,80 L584,71 L585,65 L585,63 L585,68 L584,78 L584,88 L583,101 L582,119 L580,139 L579,159 L578,173 L578,177 L578,178 L578,175 L578,166 L577,154 L577,141 L577,128 L577,119 L577,121 L578,129 L579,141 L580,151 L580,156 L580,154 L580,144 L579,130 L579,118 L579,114 L579,119 L581,129 L582,142 L582,156 L582,163 L583,163 L583,157 L583,145 L582,130 L580,113 L580,100 L581,93 L581,92 L581,93 L582,100 L582,114 L584,131 L586,157 L588,181 L589,197 L593,211 L596,227 L599,244 L601,255 L602,258 L602,257 L602,255 L600,248 L597,237 L593,222 L590,205 L587,190 L586,176 L584,162 L584,153 L584,150 L584,153 L584,159 L584,169 L585,181 L587,195 L589,207 L592,217 L595,224 L596,230 L597,231 L597,229 L597,222 L595,209 L593,193 L591,173 L589,156 L587,137 L586,120 L586,108 L587,102 L588,98 L589,96 L589,97 L589,102 L589,114 L589,131 L589,156 L589,181 L591,191 L593,196 L594,199 L594,200 L594,198 L593,187 L590,166 L587,143 L586,124 L586,113 L586,109 L586,110 L586,116 L588,132 L591,153 L594,181 L596,200 L598,204 L599,198 L597,180 L594,157 L591,134 L591,119 L591,113 L591,114 L592,120 L594,136 L596,154 L597,171 L599,178 L600,175 L599,160 L597,141 L594,126 L593,123 L593,124 L594,129 L597,142 L600,159 L603,179 L606,194 L609,206 L611,218 L611,231 L612,245 L612,254 L612,259 L611,254 L609,244 L607,234 L605,224 L602,211 L600,197 L598,182 L597,166 L596,151 L596,136 L596,120 L596,106 L596,92 L597,78 L597,64 L597,51 L597,39 L597,32 L597,27 L597,24 L598,21 L598,18 L598,14 L598,12 L598,13 L599,16 L599,22 L599,29 L599,40 L599,54 L599,68 L598,79 L598,90 L598,102 L598,114 L598,124 L599,133 L599,140 L599,149 L600,158 L600,168 L601,172 L602,176 L603,177 L603,176 L602,171 L601,161 L600,147 L599,130 L598,117 L598,107 L599,99 L599,94 L599,95 L600,99 L601,110 L602,123 L603,142 L604,163 L606,179 L607,183 L608,183 L608,179 L608,168 L606,151 L605,126 L604,96 L604,78 L604,73 L604,74 L604,83 L606,100 L607,120 L608,145 L611,165 L612,178 L613,183 L611,179 L608,166 L606,149 L605,129 L605,108 L607,97 L607,92 L606,90 L606,91 L606,98 L605,112 L605,129 L605,151 L606,166 L608,171 L608,166 L608,153 L607,136 L606,114 L606,96 L606,86 L606,80 L606,81 L607,91 L608,107 L610,127 L610,144 L612,151 L613,152 L613,151 L613,140 L613,126 L613,109 L614,93 L615,81 L616,77 L616,78 L615,83 L615,92 L614,105 L614,123 L615,143 L617,161 L619,176 L621,189 L622,192 L622,190 L622,182 L620,172 L618,165 L617,157 L616,147 L615,134 L614,119 L613,103 L613,94 L614,85 L614,76 L614,68 L613,63 L613,61 L613,62 L613,63 L613,65 L613,66 L613,67 L613,68 L613,69 L612,72 L611,78 L611,85 L610,92 L610,103 L610,117 L610,130 L610,138 L611,145 L612,155 L613,167 L614,180 L615,189 L616,194 L616,197 L616,202 L618,210 L619,218 L619,220 L619,218 L619,213 L618,207 L618,202 L619,195 L619,188 L620,180 L619,170 L619,156 L618,145 L618,132 L617,119 L615,105 L614,91 L614,87 L614,88 L614,90 L615,98 L616,109 L617,123 L619,143 L620,161 L620,169 L620,168 L621,166 L621,156 L620,141 L619,125 L619,112 L620,108 L620,110 L620,115 L620,127 L620,139 L620,154 L621,166 L623,167 L624,163 L625,151 L624,139 L624,128 L624,117 L624,108 L624,101 L623,99 L623,100 L623,102 L623,107 L623,116 L622,129 L621,149 L621,167 L622,182 L622,193 L622,200 L623,201 L623,198 L622,192 L621,184 L620,175 L618,158 L618,137 L618,119 L617,100 L616,83 L616,75 L618,69 L618,65 L618,66 L618,68 L618,70 L618,72 L619,75 L619,80 L621,90 L622,112 L624,132 L627,147 L628,153 L629,155 L630,151 L630,143 L630,131 L630,120 L630,114 L630,113 L629,116 L629,123 L629,134 L629,147 L630,159 L630,164 L630,163 L630,158 L627,146 L625,134 L622,120 L620,105 L618,91 L618,80 L618,77 L618,76 L618,77 L618,80 L619,89 L621,104 L624,130 L628,159 L632,181 L636,200 L640,216 L642,228 L643,235 L642,234 L640,230 L638,222 L637,212 L635,198 L632,176 L628,150 L627,132 L626,117 L624,103 L622,92 L622,83 L621,77 L622,73 L623,69 L624,64 L624,57 L624,49 L624,45 L624,44 L624,46 L624,49 L623,54 L623,62 L624,75 L626,97 L627,120 L629,135 L630,147 L631,158 L631,167 L632,171 L632,172 L632,171 L631,166 L630,160 L630,152 L630,142 L630,126 L630,108 L629,94 L628,87 L628,80 L628,73 L630,66 L630,63 L630,65 L630,69 L630,76 L630,86 L630,105 L633,129 L635,149 L638,163 L640,171 L642,177 L643,181 L643,182 L643,180 L642,170 L639,156 L636,142 L634,127 L633,115 L633,109 L634,106 L634,108 L635,118 L636,131 L638,148 L640,171 L643,183 L644,183 L645,177 L643,165 L642,152 L640,139 L640,127 L640,122 L640,127 L642,138 L643,150 L645,166 L646,180 L647,186 L647,185 L646,175 L644,160 L640,144 L638,128 L638,122 L639,121 L639,123 L640,135 L642,151 L644,176 L647,203 L650,222 L652,237 L653,246 L654,250 L654,251 L654,248 L652,235 L650,219 L648,202 L644,184 L641,166 L638,144 L635,122 L633,112 L633,111 L633,112 L633,114 L635,121 L637,132 L639,146 L642,160 L645,165 L646,163 L647,156 L646,146 L645,131 L643,111 L643,91 L644,81 L645,80 L645,81 L644,85 L643,90 L643,96 L643,103 L643,112 L645,123 L647,127 L648,125 L648,121 L648,113 L646,104 L644,95 L643,93 L643,95 L644,106 L646,119 L648,135 L650,153 L651,168 L652,176 L652,179 L651,177 L650,168 L649,155 L648,139 L648,116 L648,90 L648,74 L648,67 L646,62 L645,61 L645,62 L643,68 L643,80 L643,94 L645,112 L647,127 L649,137 L649,140 L649,139 L650,133 L650,119 L649,105 L648,90 L648,82 L648,80 L648,83 L648,94 L648,107 L648,121 L650,130 L651,135 L651,136 L652,135 L652,134 L653,128 L654,119 L654,109 L654,99 L654,92 L654,86 L654,85 L654,84 L654,83 L653,83 L653,82 L653,81 L653,80 L653,78 L653,76 L653,73 L653,70 L653,68 L653,66 L653,67 L653,71 L652,84 L652,103 L652,121 L652,134 L653,146 L655,155 L656,157 L657,156 L657,152 L657,143 L656,131 L655,116 L655,98 L655,81 L656,70 L655,66 L655,65 L654,68 L653,78 L652,92 L652,108 L652,124 L652,136 L652,141 L653,142 L653,141 L653,140 L654,136 L654,128 L655,120 L655,114 L655,109 L655,105 L655,102 L655,100 L654,100 L654,101 L653,101 L652,101 L652,102 L651,102 L652,102 L652,103 L653,104 L654,109 L654,117 L655,127 L655,139 L655,148 L656,154 L657,156 L659,154 L660,144 L660,127 L661,107 L661,90 L660,78 L659,71 L658,71 L656,75 L655,88 L655,103 L655,120 L658,134 L661,140 L664,141 L665,136 L665,123 L665,106 L664,89 L665,79 L666,83 L667,95 L668,107 L668,117 L669,122 L670,123 L671,119 L673,110 L674,99 L675,95 L676,96 L678,103 L679,109 L679,116 L679,124 L679,132 L680,135 L682,134 L684,127 L686,113 L688,98 L690,89 L692,86 L692,87 L692,88 L692,94 L691,102 L691,111 L690,120 L691,124 L692,123 L694,120 L694,114 L694,105 L694,94 L694,82 L695,73 L696,69 L696,68 L696,69 L695,69 L695,68 L694,66 L694,63 L693,62 L693,63 L694,67 L695,76 L696,90 L696,105 L696,115 L697,116 L697,115 L698,109 L698,95 L697,77 L695,60 L694,54 L694,53 L692,55 L692,66 L691,82 L691,100 L691,112 L692,114 L693,112 L693,101 L692,85 L690,64 L689,46 L689,41 L688,41 L687,44 L686,57 L685,72 L684,85 L685,90 L687,89 L689,82 L690,70 L691,53 L691,40 L691,36 L691,37 L691,44 L690,54 L689,66 L689,80 L691,95 L694,105 L696,108 L696,107 L697,99 L697,88 L697,73 L697,55 L699,44 L699,40 L699,39 L697,39 L696,40 L694,46 L693,54 L693,61 L692,67 L692,73 L692,81 L691,92 L689,100 L689,101 L689,102 L689,105 L690,108 L691,108 L692,105 L693,91 L694,70 L696,51 L696,37 L697,28 L698,26 L697,30 L695,46 L694,66 L693,92 L692,114 L693,127 L694,131 L695,129 L695,121 L694,106 L693,86 L692,61 L692,41 L692,34 L692,33 L692,35 L692,48 L692,64 L693,83 L694,101 L696,109 L697,108 L699,102 L699,88 L699,70 L698,51 L698,43 L698,44 L698,51 L697,67 L696,83 L696,101 L699,114 L701,118 L704,115 L705,105 L705,89 L704,71 L701,55 L701,44 L701,42 L700,44 L699,51 L698,67 L698,87 L700,113 L704,133 L706,141 L707,141 L708,137 L706,124 L704,104 L701,80 L701,61 L702,50 L703,45 L703,47 L704,62 L705,80 L706,97 L707,106 L707,107 L708,103 L708,95 L708,85 L709,74 L710,65 L711,61 L711,62 L711,66 L711,69 L713,71 L714,73 L715,77 L715,82 L714,88 L713,92 L712,96 L712,99 L712,104 L713,110 L714,114 L714,119 L715,124 L715,130 L714,138 L713,146 L713,151 L713,156 L712,159 L712,165 L711,171 L710,177 L709,181 L708,185 L707,189 L706,195 L706,200 L705,205 L705,207 L705,209 L706,212 L706,217 L706,222 L706,226 L706,230 L706,234 L706,238 L707,242 L707,247 L708,249 L709,252 L709,254 L709,257 L709,260 L709,263 L709,264 L709,265 L709,266 L709,269 L709,271 L710,272 L710,271 L710,268 L710,264 L710,260 L710,254 L710,249 L710,245 L709,242 L709,239 L709,236 L708,233 L708,229 L708,225 L708,221 L709,217 L709,213 L709,209 L709,206 L710,203 L710,199 L711,195 L711,190 L712,185 L713,180 L713,176 L714,172 L714,167 L714,163 L714,158 L714,155 L715,152 L715,148 L716,144 L716,139 L716,135 L716,132 L716,129 L716,126 L716,122 L716,117 L716,112 L716,108 L716,104 L716,98 L716,92 L716,85 L716,81 L716,78 L716,76 L716,77 L716,78 L717,81 L718,88 L718,99 L718,115 L717,132 L716,148 L715,161 L715,170 L716,172 L718,170 L719,163 L719,151 L719,136 L718,118 L717,97 L718,80 L718,68 L718,61 L718,60 L717,62 L716,70 L715,82 L715,96 L716,115 L717,134 L717,147 L717,157 L716,163 L716,165 L717,165 L719,162 L721,153 L723,141 L724,126 L724,112 L725,101 L726,93 L726,92 L726,94 L726,101 L726,112 L725,124 L725,136 L724,149 L724,156 L725,153 L726,143 L726,131 L727,117 L728,105 L729,93 L730,92 L730,95 L729,102 L728,112 L728,124 L728,140 L729,157 L729,171 L729,187 L728,201 L728,212 L727,222 L727,227 L727,229 L728,231 L728,232 L730,232 L731,232 L731,230 L731,225 L730,217 L729,209 L729,198 L729,182 L730,165 L731,149 L731,135 L732,124 L732,114 L731,104 L731,95 L730,84 L730,77 L730,72 L730,66 L729,60 L729,54 L729,49 L729,48 L729,49 L730,53 L731,59 L731,66 L731,76 L731,86 L730,97 L729,108 L729,119 L728,129 L728,139 L728,148 L728,157 L728,166 L728,175 L729,183 L729,190 L730,195 L730,202 L730,208 L730,214 L730,217 L730,220 L730,222 L731,225 L731,228 L731,230 L732,231 L732,229 L731,224 L731,219 L731,212 L730,202 L730,190 L730,179 L730,167 L731,155 L731,143 L731,131 L731,119 L731,111 L731,106 L731,108 L731,113 L731,122 L731,134 L732,149 L733,167 L733,183 L734,194 L734,198 L735,197 L736,192 L736,180 L735,162 L735,140 L738,123 L740,114 L741,112 L741,115 L739,125 L738,140 L735,157 L733,178 L731,196 L730,206 L730,210 L731,207 L732,197 L733,180 L735,156 L739,134 L743,125 L745,123 L746,124 L747,133 L747,144 L747,161 L746,180 L745,196 L743,202 L742,203 L741,198 L740,186 L739,168 L740,144 L743,124 L747,115 L749,114 L750,120 L750,134 L750,150 L748,168 L745,184 L744,188 L744,186 L744,176 L745,160 L748,141 L754,124 L761,114 L764,112 L766,118 L767,132 L766,151 L764,173 L762,196 L761,218 L761,237 L761,251 L761,263 L762,274 L764,284 L765,291 L767,293 L767,290 L767,283 L765,273 L764,259 L762,241 L761,221 L760,204 L758,188 L755,170 L755,151 L754,135 L754,121 L753,108 L752,99 L751,92 L750,88 L750,89 L750,91 L750,97 L752,105 L754,115 L756,127 L758,139 L758,147 L758,148 L758,147 L758,144 L757,134 L756,122 L756,109 L757,103 L758,105 L759,113 L760,126 L760,141 L760,159 L759,178 L758,189 L758,190 L758,186 L757,176 L757,162 L757,143 L758,119 L760,97 L763,88 L765,87 L765,89 L766,101 L766,114 L766,129 L766,146 L765,155 L765,156 L765,154 L765,145 L765,131 L766,115 L767,97 L770,86 L772,85 L772,88 L774,97 L775,109 L775,122 L775,136 L774,149 L772,157 L772,158 L771,156 L771,146 L770,132 L771,117 L774,104 L777,96 L777,95 L777,98 L777,108 L777,120 L776,132 L775,142 L774,147 L774,148 L774,145 L774,137 L775,126 L776,114 L777,104 L778,100 L778,102 L779,112 L780,124 L781,139 L782,155 L782,166 L782,171 L782,173 L782,170 L782,161 L781,150 L780,137 L779,122 L778,110 L777,108 L777,109 L777,111 L779,120 L781,133 L783,147 L784,158 L784,160 L784,158 L784,152 L783,141 L781,128 L780,114 L781,105 L782,102 L784,105 L786,116 L789,131 L792,149 L793,168 L793,180 L792,183 L792,178 L792,167 L792,154 L792,139 L794,119 L797,102 L797,86 L798,74 L798,65 L798,57 L797,50 L797,43 L796,36 L795,31 L794,26 L794,22 L793,18 L793,16 L793,14 L793,13 L793,12 L794,11 L794,10 L795,10 L796,10 L797,10 L798,10 L799,10 L799,11 L800,12 L800,13 L800,15 L800,18 L800,23 L800,29 L799,37 L798,44 L797,51 L795,59 L793,68 L792,76 L789,85 L788,92 L787,100 L787,106 L787,113 L788,119 L789,124 L789,129 L789,135 L790,140 L790,146 L790,152 L790,157 L790,162 L790,167 L789,171 L789,175 L789,178 L789,181 L789,183 L790,183 L790,181 L790,178 L791,171 L792,163 L794,153 L795,142 L796,132 L796,126 L796,122 L796,119 L795,117 L796,119 L797,126 L799,135 L799,145 L800,156 L800,164 L801,166 L801,164 L802,158 L802,146 L802,129 L802,105 L804,90 L806,85 L806,87 L805,91 L804,99 L803,108 L802,121 L800,139 L799,154 L797,163 L796,171 L795,173 L795,168 L795,158 L796,147 L796,136 L797,122 L797,108 L797,94 L796,85 L796,83 L795,85 L795,88 L795,96 L797,107 L799,122 L801,141 L803,159 L803,166 L803,167 L804,166 L804,157 L804,141 L804,122 L806,106 L809,101 L811,102 L812,109 L814,121 L814,134 L813,147 L811,155 L811,151 L811,140 L810,128 L811,119 L813,117 L816,120 L818,129 L820,140 L822,152 L822,162 L823,165 L823,164 L823,160 L823,154 L823,147 L823,143 L824,141 L825,141 L826,145 L827,151 L828,157 L828,160 L828,161 L828,160 L828,155 L828,147 L828,134 L828,119 L827,102 L826,87 L826,72 L825,57 L824,45 L822,37 L821,32 L820,27 L819,22 L818,16 L818,12 L817,12 L817,13 L817,15 L816,20 L816,26 L817,34 L817,45 L817,60 L818,75 L818,89 L818,102 L818,117 L818,130 L819,141 L819,149 L819,155 L819,161 L819,168 L819,172 L819,174 L819,175 L820,176 L820,178 L820,180 L821,181 L821,180 L821,179 L821,175 L822,168 L824,158 L827,150 L828,145 L828,140 L828,136 L829,138 L829,144 L830,151 L830,160 L830,168 L830,172 L830,171 L830,166 L830,156 L830,140 L830,119 L831,105 L833,100 L833,103 L833,111 L833,122 L832,137 L831,156 L830,171 L828,175 L827,171 L825,161 L823,146 L821,126 L821,106 L821,96 L822,95 L822,96 L823,105 L824,118 L825,134 L826,150 L827,163 L827,167 L827,166 L826,161 L825,151 L824,135 L824,114 L827,98 L831,95 L833,97 L834,102 L836,113 L838,128 L839,147 L840,164 L840,173 L839,175 L839,174 L839,173 L840,168 L841,158 L842,145 L844,129 L848,113 L850,101 L851,96 L849,99 L847,108 L844,119 L842,129 L840,138 L839,140 L839,138 L838,129 L837,115 L836,97 L835,78 L835,56 L836,36 L838,25 L839,17 L841,12 L841,10 L840,13 L840,20 L840,30 L840,42 L842,59 L845,78 L847,95 L847,109 L847,120 L847,130 L848,139 L849,149 L849,158 L849,165 L849,168 L849,171 L849,172 L849,173 L849,169 L848,162 L848,152 L847,139 L846,126 L846,114 L845,106 L844,104 L843,105 L843,110 L843,118 L845,128 L846,139 L846,147 L847,149 L847,148 L846,143 L845,132 L844,116 L844,95 L846,79 L848,74 L850,73 L850,77 L851,88 L851,101 L851,123 L850,139 L849,145 L849,146 L849,144 L849,136 L848,121 L848,104 L850,88 L853,77 L855,71 L856,70 L855,73 L855,82 L854,93 L853,107 L851,124 L850,142 L850,161 L850,179 L850,195 L850,208 L851,220 L852,230 L853,237 L853,243 L853,246 L853,247 L853,246 L854,245 L853,240 L852,232 L851,222 L850,209 L848,195 L847,181 L846,169 L845,157 L845,144 L846,132 L847,123 L848,115 L848,112 L848,111 L847,113 L847,117 L848,124 L848,134 L848,143 L847,153 L845,158 L844,158 L844,156 L844,150 L845,140 L847,127 L850,117 L851,115 L851,117 L850,121 L848,130 L846,139 L843,147 L842,149 L842,148 L842,139 L841,128 L843,114 L846,103 L849,99 L850,99 L850,103 L851,113 L851,125 L850,142 L849,160 L848,177 L846,192 L844,206 L843,221 L841,233 L840,238 L839,238 L839,236 L839,230 L841,222 L842,211 L843,199 L846,178 L848,156 L849,139 L850,124 L851,110 L852,100 L852,97 L851,98 L850,101 L850,107 L850,116 L850,127 L850,139 L850,147 L850,149 L850,148 L850,141 L849,129 L849,110 L849,88 L850,70 L853,63 L853,62 L853,63 L853,68 L852,81 L851,96 L850,111 L849,119 L848,121 L848,119 L848,112 L848,100 L849,83 L851,71 L854,70 L855,76 L857,85 L858,92 L858,93 L857,92 L856,88 L853,77 L850,63 L848,48 L847,32 L846,21 L845,9 L844,0 L844,-8 L845,-16 L845,-22 L845,-24 L845,-23 L845,-22 L846,-21 L846,-17 L845,-10 L843,0 L843,14 L843,28 L843,41 L842,58 L841,73 L841,84 L840,90 L840,93 L840,94 L841,93 L842,89 L843,83 L845,78 L848,72 L851,65 L855,56 L858,48 L861,41 L863,38 L862,41 L860,45 L859,50 L858,57 L857,67 L856,79 L856,89 L857,99 L858,109 L858,117 L857,122 L857,123 L857,122 L857,117 L857,105 L858,93 L859,81 L861,75 L862,75 L862,78 L861,88 L860,103 L858,123 L855,143 L853,155 L852,158 L852,154 L851,141 L851,123 L851,101 L853,81 L855,73 L857,72 L857,74 L858,85 L858,100 L858,117 L858,134 L858,147 L857,151 L857,149 L857,143 L857,129 L857,112 L858,92 L860,85 L862,88 L865,97 L868,112 L869,127 L868,138 L868,144 L867,141 L866,130 L866,119 L867,109 L870,102 L871,101 L872,105 L873,114 L873,126 L873,139 L872,154 L870,168 L870,178 L870,175 L870,164 L871,149 L872,129 L874,104 L876,84 L878,71 L879,65 L878,68 L877,80 L875,95 L874,112 L873,132 L871,141 L871,144 L870,144 L870,142 L870,136 L872,124 L874,107 L877,84 L881,69 L883,65 L884,66 L885,70 L885,82 L885,97 L882,117 L879,136 L875,147 L873,152 L872,153 L872,152 L872,144 L874,130 L876,112 L880,88 L884,63 L887,50 L887,45 L887,44 L886,44 L885,44 L884,44 L882,46 L881,50 L880,53 L880,55 L880,56 L880,55 L881,55 L882,55 L881,58 L880,62 L879,71 L880,85 L881,101 L881,117 L880,130 L879,139 L878,142 L877,141 L877,130 L876,113 L875,93 L874,72 L874,59 L874,56 L874,62 L873,78 L873,93 L874,110 L875,126 L875,134 L875,135 L875,134 L875,125 L874,112 L873,95 L871,81 L871,77 L872,79 L873,87 L875,98 L876,108 L876,112 L876,109 L876,100 L876,88 L876,76 L877,68 L880,61 L883,57 L884,56 L885,60 L887,73 L889,89 L890,100 L890,103 L890,102 L890,97 L889,86 L888,73 L887,58 L886,47 L887,44 L888,45 L889,49 L890,58 L891,67 L892,75 L892,83 L892,85 L892,84 L892,81 L892,74 L892,68 L892,63 L893,63 L893,64 L893,71 L894,83 L895,95 L895,104 L895,105 L896,102 L896,93 L896,79 L895,64 L895,53 L896,49 L897,52 L898,61 L899,71 L900,79 L900,83 L899,84 L899,82 L899,75 L898,66 L898,59 L898,58 L898,62 L899,69 L899,76 L898,83 L897,87 L896,88 L895,85 L894,79 L893,72 L892,64 L892,53 L893,42 L894,29 L895,17 L897,8 L897,2 L897,-1 L895,-4 L895,-8 L894,-9 L894,-7 L895,-4 L896,0 L897,9 L897,22 L897,39 L897,54 L896,67 L895,80 L895,94 L895,106 L895,114 L895,119 L896,120 L897,122 L898,119 L899,110 L900,100 L901,87 L900,71 L900,62 L900,61 L900,66 L901,75 L901,84 L901,90 L902,94 L902,93 L902,88 L904,79 L905,66 L906,52 L909,44 L911,43 L912,46 L913,54 L914,66 L914,75 L912,83 L911,85 L910,85 L909,80 L909,71 L909,61 L909,51 L911,45 L912,46 L913,50 L914,58 L914,63 L914,67 L914,68 L914,67 L914,64 L915,56 L917,47 L918,37 L919,28 L920,19 L923,11 L924,5 L925,3 L925,2 L924,2 L924,4 L924,7 L924,11 L924,16 L924,25 L925,37 L925,48 L925,58 L925,65 L925,69 L925,71 L926,70 L926,66 L927,61 L928,53 L928,47 L928,40 L928,36 L928,34 L928,35 L927,37 L926,41 L926,46 L926,53 L925,58 L924,61 L924,60 L924,53 L924,43 L924,31 L924,24 L924,27 L924,37 L921,51 L916,69 L911,87 L908,96 L907,99 L906,98 L906,91 L907,80 L909,65 L912,48 L916,33 L920,27 L921,27 L921,30 L922,39 L922,51 L922,67 L921,83 L919,92 L919,89 L918,78 L918,64 L920,45 L924,26 L928,16 L930,14 L931,17 L931,29 L931,43 L929,58 L925,73 L922,83 L921,85 L921,83 L922,77 L924,68 L927,58 L931,44 L935,27 L939,16 L941,12 L942,11 L942,10 L941,10 L940,9 L940,11 L940,16 L940,26 L939,40 L939,61 L937,80 L936,97 L935,110 L934,121 L934,126 L934,127 L935,125 L935,117 L935,107 L934,95 L934,82 L934,68 L934,58 L936,49 L938,42 L939,39 L940,38 L940,39 L940,43 L941,48 L941,54 L943,61 L945,67 L948,69 L950,69 L952,68 L955,63 L960,56 L963,50" fill="none" stroke="red" stroke-width="3"/></svg>