<svg xmlns="http://www.w3.org/2000/svg" version="1.1" xmlns:xlink="http://www.w3.org/1999/xlink" xmlns:svgjs="http://svgjs.dev/svgjs" width="950" height="375" id="chartSvg"><path d="M11,224 L11,223 L11,222 L10,222 L10,221 L11,221 L11,220 L10,220 L10,219 L9,219 L9,220 L9,222 L10,224 L11,227 L11,229 L12,231 L12,232 L12,233 L12,232 L12,229 L13,225 L13,221 L14,217 L14,214 L14,211 L15,211 L15,212 L16,215 L16,218 L17,223 L17,227 L18,230 L18,232 L17,229 L17,227 L17,223 L17,219 L18,214 L18,210 L18,208 L18,207 L18,209 L19,212 L19,216 L20,220 L20,223 L21,226 L21,227 L21,226 L20,225 L20,224 L20,221 L20,217 L20,212 L20,207 L20,203 L20,201 L20,200 L21,202 L21,207 L22,212 L22,217 L22,222 L22,224 L22,223 L22,220 L23,215 L24,209 L24,203 L26,196 L27,192 L28,190 L29,192 L29,196 L29,202 L29,207 L29,211 L29,213 L29,212 L29,210 L29,205 L30,198 L30,190 L30,180 L30,173 L31,169 L32,168 L32,169 L33,173 L33,180 L34,188 L34,195 L34,200 L33,202 L33,201 L33,199 L33,195 L33,188 L33,181 L33,172 L33,165 L34,158 L34,154 L35,152 L35,155 L36,160 L36,167 L37,174 L37,179 L37,181 L37,182 L36,182 L36,181 L36,179 L36,176 L36,170 L36,164 L36,157 L36,151 L36,147 L36,146 L37,149 L37,155 L36,162 L36,168 L36,172 L36,174 L36,173 L36,171 L36,168 L36,162 L36,155 L36,147 L37,141 L37,137 L38,136 L38,137 L38,139 L39,144 L39,150 L39,156 L39,159 L39,161 L39,160 L39,158 L38,155 L38,151 L37,145 L36,139 L36,134 L36,130 L36,126 L36,123 L36,122 L36,124 L36,127 L36,132 L36,139 L37,146 L37,154 L37,159 L36,161 L36,162 L36,161 L36,160 L36,157 L36,152 L36,146 L36,140 L37,135 L38,131 L38,129 L39,128 L39,127 L39,128 L39,131 L40,136 L41,142 L41,151 L42,158 L42,163 L42,166 L42,167 L42,168 L42,167 L41,167 L41,165 L41,162 L40,157 L40,152 L39,147 L39,144 L39,145 L40,149 L41,156 L41,165 L42,175 L42,184 L42,190 L42,196 L42,200 L42,203 L42,202 L42,198 L42,193 L42,188 L43,184 L43,181 L43,180 L43,181 L43,182 L44,184 L44,188 L44,194 L44,201 L44,207 L44,212 L43,215 L42,218 L41,220 L41,221 L41,220 L41,216 L41,210 L40,204 L40,199 L41,195 L41,194 L41,195 L41,197 L42,201 L43,208 L44,216 L44,222 L44,227 L44,231 L43,233 L43,234 L43,232 L43,227 L43,221 L44,213 L44,206 L44,202 L44,203 L45,205 L46,210 L46,217 L47,227 L47,236 L47,244 L47,250 L47,256 L47,260 L47,262 L47,263 L47,262 L47,258 L47,252 L47,245 L47,237 L47,231 L48,227 L49,228 L50,231 L51,237 L51,244 L52,251 L53,259 L53,263 L53,265 L53,266 L53,264 L52,260 L52,254 L52,246 L52,238 L53,231 L53,228 L54,229 L55,233 L56,241 L56,250 L57,261 L57,268 L57,272 L57,275 L56,276 L56,275 L56,272 L56,266 L56,259 L56,251 L57,243 L57,239 L57,238 L57,239 L58,242 L58,247 L58,256 L59,264 L59,270 L59,274 L58,276 L58,275 L58,272 L57,267 L57,261 L57,254 L58,247 L60,244 L61,243 L62,245 L63,250 L64,257 L65,264 L65,270 L65,273 L65,274 L64,274 L64,273 L64,271 L64,266 L65,260 L65,253 L65,246 L66,243 L67,244 L68,247 L70,254 L71,262 L72,269 L72,274 L72,277 L72,276 L71,274 L71,271 L70,266 L70,259 L70,252 L70,246 L70,244 L70,245 L71,249 L72,257 L73,263 L73,269 L73,273 L73,274 L73,273 L72,269 L71,264 L70,259 L69,249 L68,240 L68,233 L68,227 L69,224 L70,225 L71,230 L71,234 L72,238 L73,247 L73,256 L73,261 L73,264 L73,265 L73,264 L72,264 L72,260 L71,254 L70,247 L69,237 L68,228 L68,220 L68,216 L69,215 L70,218 L72,225 L73,230 L73,234 L74,243 L74,250 L73,254 L73,253 L72,249 L72,244 L71,237 L70,227 L69,216 L68,207 L68,202 L69,199 L70,200 L71,205 L72,214 L73,223 L73,231 L73,236 L73,238 L73,237 L72,233 L72,227 L71,224 L71,220 L70,209 L70,203 L70,198 L71,190 L72,185 L72,184 L72,185 L73,188 L73,197 L74,207 L74,217 L74,224 L74,227 L74,225 L74,221 L74,213 L74,204 L74,193 L75,184 L76,179 L76,178 L77,178 L77,179 L78,183 L78,190 L78,196 L78,202 L78,207 L78,209 L77,209 L77,207 L77,205 L77,200 L77,195 L78,188 L80,181 L81,176 L81,174 L82,174 L82,176 L82,180 L82,187 L81,194 L80,200 L80,204 L79,205 L79,204 L79,201 L79,196 L79,190 L79,183 L80,175 L81,170 L81,169 L82,173 L82,180 L82,188 L82,196 L81,203 L81,207 L81,206 L81,203 L81,198 L81,192 L81,184 L82,174 L83,166 L83,161 L83,162 L84,166 L84,173 L84,181 L83,189 L82,194 L81,197 L81,196 L81,193 L81,189 L82,183 L82,176 L83,168 L84,163 L84,159 L84,157 L84,159 L84,163 L84,171 L84,177 L84,183 L83,186 L83,185 L83,182 L83,178 L83,173 L84,167 L85,161 L86,156 L87,154 L87,155 L87,159 L87,166 L87,174 L86,180 L85,184 L85,185 L85,184 L85,182 L85,179 L86,173 L87,166 L88,157 L90,150 L90,144 L91,141 L91,144 L91,150 L91,159 L91,168 L90,176 L89,180 L89,179 L89,176 L89,171 L89,165 L89,157 L89,149 L90,141 L91,138 L91,137 L91,138 L92,141 L92,147 L92,154 L91,159 L91,163 L91,164 L90,164 L90,163 L90,160 L91,156 L91,150 L92,142 L92,136 L93,131 L94,129 L94,127 L95,130 L95,136 L95,142 L95,148 L94,152 L94,154 L93,154 L93,153 L93,151 L93,148 L93,144 L93,138 L93,132 L93,127 L94,125 L94,126 L95,130 L95,137 L96,144 L96,151 L96,156 L95,158 L95,157 L95,156 L95,153 L95,148 L95,142 L95,135 L96,129 L96,127 L97,129 L97,135 L98,142 L98,150 L97,159 L96,165 L95,168 L95,166 L95,161 L95,156 L95,151 L95,148 L96,147 L96,149 L97,155 L97,163 L97,170 L97,176 L96,180 L95,182 L95,181 L95,178 L95,173 L95,168 L95,161 L95,157 L95,156 L95,158 L95,164 L96,171 L97,178 L97,183 L97,186 L96,184 L96,181 L96,177 L96,172 L96,166 L96,163 L96,162 L97,165 L97,171 L98,179 L98,187 L97,194 L96,199 L95,200 L95,201 L95,200 L95,199 L95,194 L96,188 L96,180 L97,171 L97,166 L98,170 L99,177 L99,185 L99,194 L99,201 L98,205 L98,207 L98,206 L97,204 L97,199 L96,194 L95,188 L95,183 L94,181 L94,182 L95,186 L95,193 L95,199 L95,205 L95,210 L94,210 L94,209 L93,205 L93,201 L92,196 L92,190 L92,185 L92,186 L92,192 L93,199 L93,206 L93,210 L93,213 L92,214 L92,212 L92,209 L92,204 L93,198 L93,191 L93,186 L94,185 L95,186 L97,192 L100,198 L101,205 L102,209 L102,210 L102,209 L102,205 L102,200 L102,193 L101,184 L101,177 L100,173 L101,177 L102,184 L102,192 L102,198 L102,204 L101,207 L101,206 L101,202 L101,197 L101,190 L102,181 L102,172 L103,168 L103,167 L104,170 L105,176 L106,186 L107,196 L107,205 L107,210 L107,213 L107,212 L107,210 L107,204 L106,198 L106,189 L106,180 L106,174 L106,173 L106,175 L106,180 L107,190 L107,199 L107,207 L108,211 L108,212 L108,211 L108,208 L108,203 L109,197 L109,189 L110,182 L110,179 L111,183 L112,190 L112,198 L112,204 L112,208 L112,210 L112,209 L112,207 L112,203 L112,198 L112,193 L112,188 L112,186 L112,187 L112,191 L112,196 L112,202 L112,207 L112,209 L112,210 L112,209 L112,207 L112,203 L113,198 L114,192 L114,186 L115,183 L116,184 L117,188 L118,193 L119,198 L119,202 L119,204 L119,202 L119,200 L119,195 L119,190 L119,185 L119,183 L119,184 L120,189 L122,196 L122,202 L122,206 L122,207 L122,206 L122,204 L122,201 L122,197 L122,192 L122,187 L123,186 L124,188 L125,194 L126,200 L127,203 L127,206 L127,207 L127,206 L127,205 L127,202 L126,198 L126,193 L126,185 L125,178 L126,173 L127,172 L128,176 L129,182 L130,189 L130,195 L130,200 L129,202 L129,201 L129,199 L129,195 L129,189 L129,181 L129,173 L129,165 L129,160 L129,162 L130,166 L131,173 L131,179 L131,184 L131,186 L131,187 L130,186 L130,184 L130,180 L129,175 L129,169 L129,160 L129,152 L130,147 L131,149 L132,154 L133,162 L133,169 L133,174 L133,176 L133,175 L133,174 L133,171 L133,166 L133,160 L132,152 L132,146 L132,142 L133,141 L133,142 L133,144 L133,151 L133,159 L133,167 L132,173 L132,175 L132,174 L132,173 L132,170 L132,164 L132,158 L132,151 L132,146 L133,144 L133,146 L134,151 L134,160 L133,168 L132,176 L132,179 L131,180 L131,178 L131,175 L130,171 L129,165 L128,158 L128,154 L128,155 L129,160 L129,167 L130,176 L130,184 L130,190 L130,193 L130,192 L130,190 L130,186 L129,181 L129,175 L129,170 L129,168 L129,171 L130,179 L130,187 L130,197 L130,205 L130,211 L129,217 L129,220 L129,221 L129,220 L129,219 L129,215 L127,209 L127,202 L126,197 L126,193 L126,195 L127,201 L128,210 L128,220 L128,229 L128,236 L127,241 L127,244 L127,242 L127,238 L127,232 L127,225 L127,219 L127,217 L127,221 L128,227 L129,235 L129,243 L129,249 L129,254 L129,256 L129,254 L129,250 L129,244 L130,237 L130,229 L131,224 L131,223 L132,225 L132,231 L133,239 L134,246 L134,253 L134,258 L134,260 L134,261 L134,260 L133,257 L133,253 L132,247 L132,241 L131,234 L131,231 L132,231 L133,234 L134,241 L136,249 L137,256 L138,262 L138,266 L138,268 L138,269 L138,268 L137,265 L136,261 L136,255 L135,247 L134,240 L134,238 L135,238 L136,241 L138,246 L140,253 L141,259 L142,266 L142,271 L142,275 L142,277 L141,275 L141,271 L141,264 L141,256 L141,246 L141,239 L141,236 L141,235 L141,237 L142,242 L143,251 L143,259 L144,266 L144,271 L144,272 L144,271 L144,268 L143,263 L142,256 L141,248 L139,237 L139,226 L139,222 L139,221 L140,224 L141,232 L142,241 L143,250 L143,256 L143,259 L143,260 L143,259 L143,257 L142,251 L142,244 L141,235 L141,224 L140,215 L140,210 L141,212 L142,219 L144,228 L144,237 L145,244 L145,248 L145,249 L145,248 L144,245 L144,240 L144,232 L144,223 L144,213 L144,205 L144,200 L145,200 L145,201 L146,208 L146,217 L146,227 L146,234 L146,239 L146,240 L146,239 L146,236 L146,231 L145,224 L145,215 L145,205 L145,200 L146,199 L146,201 L147,207 L148,217 L149,224 L149,231 L149,233 L149,232 L149,229 L149,224 L149,218 L149,209 L149,200 L149,192 L149,190 L150,193 L151,199 L151,208 L152,215 L152,221 L152,224 L152,223 L152,220 L152,215 L152,209 L151,201 L151,192 L151,185 L151,181 L151,182 L152,188 L153,198 L153,207 L153,215 L153,220 L152,221 L152,220 L152,217 L152,212 L152,205 L153,196 L154,188 L154,183 L155,184 L156,190 L156,198 L157,206 L157,213 L157,217 L157,218 L158,218 L158,216 L158,212 L159,207 L160,200 L160,191 L160,183 L161,178 L162,183 L162,193 L163,202 L163,210 L162,215 L162,216 L162,215 L162,214 L162,210 L162,205 L162,198 L162,190 L162,181 L163,176 L164,180 L165,188 L165,196 L165,203 L164,207 L164,205 L164,201 L164,195 L164,189 L164,181 L165,173 L165,171 L166,173 L166,178 L167,186 L167,193 L167,199 L167,201 L167,200 L167,198 L167,193 L167,188 L168,181 L168,174 L168,170 L168,174 L168,182 L168,189 L167,194 L167,196 L166,196 L166,195 L167,193 L167,188 L168,183 L168,176 L169,169 L170,165 L170,164 L171,168 L171,174 L171,182 L171,187 L171,190 L171,188 L171,185 L171,180 L171,175 L171,168 L172,162 L173,161 L173,162 L175,168 L175,174 L175,181 L175,186 L174,189 L174,187 L174,183 L175,178 L176,172 L176,166 L178,160 L178,158 L179,159 L180,165 L180,173 L180,181 L180,188 L179,190 L179,189 L179,186 L180,182 L180,176 L180,170 L181,162 L181,155 L182,154 L182,156 L182,161 L182,169 L181,177 L180,184 L179,187 L178,188 L178,187 L178,185 L179,180 L180,173 L180,167 L181,158 L183,151 L183,149 L184,151 L185,156 L185,164 L185,173 L183,182 L182,187 L182,189 L182,188 L182,187 L182,183 L183,178 L185,171 L187,162 L188,154 L190,150 L190,155 L190,163 L190,171 L188,178 L187,183 L186,185 L186,183 L187,180 L188,174 L188,168 L188,161 L189,154 L189,151 L190,152 L190,158 L190,166 L190,174 L190,180 L189,184 L189,185 L189,184 L189,183 L190,178 L191,172 L192,165 L193,157 L194,152 L195,152 L196,156 L197,164 L197,173 L197,180 L195,186 L195,189 L194,189 L194,188 L194,186 L194,182 L194,176 L194,170 L194,163 L194,159 L194,163 L195,172 L195,181 L194,189 L193,195 L193,197 L193,196 L193,195 L192,191 L192,187 L192,181 L192,174 L192,170 L193,175 L193,183 L193,192 L193,198 L193,201 L193,200 L193,197 L193,193 L193,188 L193,182 L193,176 L193,174 L193,176 L194,184 L195,193 L195,201 L195,207 L194,210 L193,211 L193,210 L193,207 L193,202 L193,197 L193,189 L193,181 L193,176 L193,175 L194,177 L195,184 L195,193 L195,202 L195,207 L194,211 L194,210 L194,209 L194,206 L194,201 L194,195 L193,187 L193,180 L193,178 L193,180 L194,187 L195,195 L195,205 L195,211 L195,215 L195,216 L195,215 L195,212 L195,207 L194,201 L193,194 L193,187 L193,185 L193,186 L193,193 L194,202 L194,211 L194,217 L193,222 L192,224 L192,222 L192,218 L192,212 L193,205 L193,197 L193,191 L194,195 L195,202 L197,210 L197,217 L197,221 L197,224 L197,222 L197,218 L197,213 L197,207 L197,204 L197,203 L198,207 L199,216 L199,224 L200,232 L200,237 L200,240 L200,241 L200,240 L200,238 L200,234 L200,229 L200,224 L200,221 L199,220 L199,223 L200,229 L200,235 L200,240 L199,243 L198,244 L198,242 L197,237 L197,232 L197,226 L196,221 L196,220 L197,222 L197,227 L198,234 L198,239 L198,244 L197,248 L197,249 L196,250 L196,249 L196,246 L196,242 L196,237 L196,234 L197,238 L198,244 L198,249 L198,253 L198,255 L198,256 L198,255 L198,254 L198,250 L198,245 L197,238 L196,232 L196,229 L196,230 L197,236 L198,242 L198,248 L198,252 L198,253 L198,251 L198,247 L198,241 L198,233 L197,224 L197,214 L197,205 L197,200 L198,199 L198,201 L198,206 L198,215 L198,222 L198,226 L198,227 L198,225 L198,222 L198,217 L198,212 L198,204 L198,196 L199,192 L200,194 L201,200 L201,206 L202,212 L202,216 L202,217 L201,217 L201,215 L202,212 L202,207 L203,200 L204,192 L205,183 L206,177 L207,174 L208,179 L208,187 L208,195 L207,200 L207,202 L207,201 L207,198 L207,192 L207,186 L207,178 L207,170 L207,164 L207,162 L207,163 L208,166 L208,172 L208,179 L208,184 L208,186 L208,185 L208,183 L208,178 L208,173 L208,166 L209,157 L209,151 L210,150 L210,151 L210,158 L210,166 L209,173 L209,177 L208,177 L208,176 L208,175 L209,171 L210,165 L211,158 L212,150 L213,143 L214,141 L214,142 L214,146 L214,154 L213,160 L213,164 L212,166 L212,164 L212,162 L212,158 L212,153 L212,147 L213,140 L213,136 L213,137 L214,142 L214,151 L214,161 L213,169 L212,173 L212,174 L212,173 L212,170 L213,163 L213,156 L214,147 L215,137 L215,132 L216,131 L217,134 L217,143 L217,155 L215,168 L214,179 L213,186 L212,190 L212,188 L213,182 L214,174 L215,165 L216,153 L217,142 L219,133 L221,128 L222,124 L223,123 L223,124 L223,130 L222,140 L221,152 L220,167 L218,178 L217,186 L216,191 L216,192 L216,191 L217,187 L218,180 L220,170 L221,159 L223,147 L225,138 L227,132 L228,129 L228,131 L227,137 L224,149 L222,163 L220,178 L219,187 L217,193 L217,196 L217,197 L217,195 L217,191 L219,183 L220,174 L222,162 L224,151 L225,143 L226,138 L227,136 L227,139 L227,146 L227,157 L227,170 L227,181 L226,188 L226,193 L225,195 L225,194 L225,190 L225,185 L225,177 L225,169 L225,161 L226,155 L226,154 L226,156 L226,164 L224,174 L223,186 L222,195 L221,202 L220,206 L219,207 L219,206 L219,204 L219,198 L219,190 L219,182 L219,172 L220,166 L220,163 L220,165 L220,169 L220,177 L220,187 L220,198 L219,207 L217,212 L216,217 L215,220 L215,221 L215,220 L215,218 L215,214 L215,207 L216,199 L217,189 L217,180 L217,173 L218,170 L218,168 L218,169 L218,172 L218,181 L217,191 L216,202 L216,210 L215,214 L215,217 L215,215 L215,211 L215,206 L216,199 L217,191 L217,185 L217,183 L217,185 L217,191 L216,200 L215,210 L215,218 L213,224 L212,227 L211,229 L211,230 L211,229 L211,227 L211,221 L212,215 L212,205 L214,193 L214,183 L215,178 L215,176 L215,177 L215,180 L216,189 L216,200 L216,213 L215,224 L215,231 L215,236 L215,239 L215,240 L215,237 L215,230 L216,222 L217,211 L217,200 L218,193 L219,193 L220,194 L220,199 L221,209 L221,220 L220,230 L220,237 L219,242 L219,244 L219,243 L220,239 L220,233 L221,224 L222,212 L224,202 L225,198 L226,198 L227,199 L229,203 L229,211 L230,221 L230,231 L230,238 L229,243 L229,247 L229,249 L229,251 L229,250 L229,246 L230,239 L231,230 L231,221 L231,216 L232,220 L232,228 L233,238 L233,246 L233,251 L232,254 L232,255 L232,254 L232,253 L232,250 L232,246 L232,243 L232,238 L232,234 L233,229 L234,225 L234,222 L234,219 L234,216 L235,215 L235,216 L235,221 L236,229 L237,238 L237,245 L238,249 L238,247 L238,244 L238,238 L238,230 L238,220 L238,210 L238,202 L239,198 L240,196 L240,197 L240,200 L241,207 L241,215 L241,224 L241,230 L240,233 L240,234 L240,233 L240,232 L239,228 L239,222 L239,216 L239,207 L239,197 L239,190 L239,188 L240,190 L241,198 L241,207 L242,217 L242,224 L242,226 L242,225 L242,224 L242,220 L243,214 L244,207 L244,198 L245,187 L246,180 L247,177 L247,178 L248,182 L248,190 L248,198 L248,205 L247,210 L246,212 L246,211 L246,210 L246,207 L246,201 L247,195 L247,187 L247,179 L248,174 L248,173 L249,176 L249,181 L249,190 L249,199 L249,207 L248,211 L248,212 L247,212 L247,210 L247,206 L248,200 L248,192 L248,183 L249,175 L249,170 L249,172 L249,178 L249,188 L249,198 L248,205 L247,210 L247,209 L248,207 L249,202 L249,196 L249,189 L250,181 L251,176 L252,178 L253,184 L253,191 L253,198 L253,203 L253,205 L253,206 L253,205 L253,204 L254,201 L254,196 L254,190 L254,183 L254,178 L254,176 L254,180 L254,187 L254,194 L254,200 L253,205 L253,207 L252,208 L252,207 L252,205 L252,201 L253,195 L253,188 L254,181 L254,175 L254,174 L254,175 L255,179 L255,186 L256,194 L256,200 L256,205 L256,206 L256,205 L256,204 L256,200 L257,195 L257,188 L258,181 L258,175 L259,171 L260,175 L261,183 L261,191 L261,199 L261,204 L261,206 L260,206 L260,205 L260,203 L260,198 L261,193 L261,185 L261,176 L263,168 L264,164 L265,164 L266,168 L267,174 L267,181 L266,187 L266,191 L265,193 L265,192 L265,190 L265,187 L265,182 L265,175 L265,168 L265,165 L266,165 L266,168 L268,174 L268,183 L268,190 L268,195 L268,196 L269,196 L269,195 L269,192 L269,188 L268,183 L268,176 L268,170 L269,167 L269,168 L270,172 L270,178 L270,185 L269,188 L269,190 L269,189 L269,188 L269,184 L270,178 L270,170 L270,161 L271,153 L271,146 L271,141 L272,138 L272,136 L272,135 L272,136 L272,139 L272,146 L271,154 L270,164 L270,174 L269,184 L269,192 L270,200 L270,208 L270,215 L270,221 L270,227 L270,232 L269,237 L268,239 L268,240 L268,239 L268,238 L268,237 L267,236 L267,235 L267,234 L266,234 L266,233 L266,232 L266,231 L266,230 L266,229 L266,228 L266,227 L266,226 L266,225 L266,224 L266,222 L266,221 L266,220 L267,218 L267,216 L268,214 L268,211 L268,209 L269,207 L269,204 L270,202 L270,200 L270,198 L271,195 L271,192 L271,190 L272,187 L273,184 L273,181 L274,177 L275,173 L276,170 L276,167 L277,165 L278,161 L278,158 L278,155 L279,152 L280,149 L280,146 L280,144 L280,142 L280,141 L280,142 L280,146 L280,153 L279,160 L279,166 L278,170 L278,171 L278,170 L279,168 L279,164 L280,160 L281,154 L282,149 L282,146 L282,147 L283,151 L283,157 L283,165 L283,172 L283,177 L283,179 L283,177 L285,174 L287,169 L288,162 L289,155 L289,152 L289,158 L289,168 L288,178 L287,188 L286,193 L286,195 L287,195 L287,193 L288,188 L288,183 L288,176 L288,168 L288,161 L288,158 L288,162 L288,170 L287,180 L286,188 L285,195 L284,198 L284,196 L285,193 L286,188 L288,181 L289,173 L291,166 L292,165 L293,167 L294,172 L295,179 L295,186 L295,191 L294,193 L294,194 L294,193 L294,192 L294,188 L294,183 L295,176 L295,168 L296,163 L297,166 L297,173 L297,181 L297,187 L296,191 L296,192 L295,192 L295,191 L295,189 L295,185 L295,179 L295,173 L295,168 L295,166 L296,170 L297,177 L297,184 L297,190 L297,193 L296,194 L296,193 L296,191 L296,188 L296,182 L297,176 L298,168 L299,164 L300,168 L300,176 L300,183 L300,190 L300,194 L300,195 L300,194 L300,193 L300,189 L301,184 L302,178 L303,170 L304,164 L305,163 L305,165 L305,172 L305,180 L305,188 L304,195 L303,199 L303,200 L303,198 L304,194 L305,188 L305,182 L307,173 L308,166 L310,160 L310,158 L310,159 L310,165 L310,173 L308,182 L307,191 L305,198 L305,204 L304,206 L304,207 L304,206 L304,205 L305,200 L305,195 L306,188 L307,178 L308,167 L308,158 L309,151 L310,146 L310,142 L310,140 L310,142 L310,148 L309,156 L308,166 L307,176 L306,185 L306,192 L306,198 L306,203 L306,209 L306,214 L306,218 L306,221 L306,222 L306,220 L306,217 L306,213 L306,207 L307,198 L309,187 L310,178 L312,171 L314,166 L316,163 L317,160 L317,159 L317,161 L316,165 L315,172 L314,180 L313,189 L313,196 L312,200 L312,204 L312,205 L312,204 L313,203 L314,199 L315,194 L315,188 L317,182 L317,177 L318,174 L319,174 L319,176 L319,181 L319,188 L318,194 L317,200 L317,202 L317,200 L318,195 L319,190 L320,183 L321,175 L322,168 L323,166 L324,166 L324,170 L325,177 L325,185 L324,193 L323,198 L322,202 L322,204 L322,203 L322,201 L323,197 L324,191 L325,182 L327,172 L329,162 L330,155 L330,152 L330,154 L331,159 L330,170 L328,182 L327,193 L325,201 L325,206 L325,208 L325,207 L325,205 L327,200 L328,192 L329,184 L331,173 L333,163 L334,158 L335,157 L335,160 L336,167 L336,178 L335,190 L333,198 L332,203 L332,206 L332,205 L332,203 L332,198 L332,191 L332,183 L333,174 L334,165 L335,160 L335,165 L335,176 L334,188 L333,198 L332,205 L331,210 L330,211 L330,210 L330,207 L331,201 L332,193 L334,183 L335,172 L336,165 L337,163 L338,168 L338,178 L337,189 L336,198 L335,205 L334,207 L334,206 L334,204 L335,200 L335,193 L336,185 L337,177 L338,169 L339,166 L340,168 L341,173 L341,181 L341,190 L340,197 L340,202 L339,202 L340,199 L341,194 L342,188 L342,180 L344,172 L344,168 L344,170 L345,174 L345,182 L345,188 L345,193 L345,197 L345,199 L344,200 L344,199 L344,198 L344,195 L344,192 L345,187 L345,180 L346,172 L347,164 L348,157 L349,151 L351,146 L353,140 L354,135 L355,130 L355,127 L356,123 L356,120 L357,117 L357,115 L357,112 L357,110 L358,107 L358,104 L359,102 L359,100 L359,97 L360,95 L360,94 L360,92 L360,91 L360,90 L360,91 L360,94 L359,98 L358,103 L357,109 L355,115 L354,120 L352,125 L351,130 L350,135 L349,139 L349,144 L348,148 L347,153 L347,157 L346,162 L345,167 L345,172 L344,176 L344,180 L344,184 L344,188 L344,193 L343,197 L343,201 L343,205 L342,209 L342,212 L342,216 L342,220 L342,223 L341,227 L341,231 L340,234 L339,238 L339,242 L338,245 L338,249 L337,252 L337,255 L337,258 L337,260 L337,261 L337,263 L337,264 L337,263 L337,261 L337,259 L338,254 L338,249 L339,243 L340,237 L341,232 L341,227 L342,223 L342,219 L343,215 L343,211 L344,207 L344,204 L345,201 L346,197 L347,193 L347,190 L348,188 L348,185 L349,182 L350,179 L350,176 L351,174 L351,172 L352,170 L352,168 L353,166 L353,164 L354,162 L354,160 L354,158 L355,156 L355,154 L356,152 L356,151 L357,149 L357,148 L358,147 L358,145 L359,144 L359,143 L359,142 L359,141 L360,141 L360,140 L360,139 L361,139 L361,138 L361,137 L361,136 L362,136 L362,135 L362,134 L363,134 L363,133 L363,132 L364,132 L364,131 L364,130 L364,129 L365,129 L365,128 L365,127 L366,127 L366,126 L366,125 L367,125 L367,124 L368,124 L369,123 L371,122 L372,120 L374,119 L375,118 L376,117 L377,117 L378,116 L379,115 L379,114 L379,115 L379,116 L379,117 L379,118 L379,119 L379,120 L379,122 L379,124 L379,128 L378,131 L378,134 L377,137 L377,140 L376,143 L376,146 L376,148 L376,151 L375,154 L375,156 L374,158 L374,162 L374,165 L374,168 L374,171 L373,175 L373,178 L372,181 L371,185 L371,187 L370,190 L370,192 L369,194 L369,197 L368,199 L368,201 L367,203 L366,205 L366,206 L366,207 L366,209 L366,210 L365,211 L365,212 L365,213 L365,214 L365,215 L365,216 L365,217 L365,218 L365,219 L365,220 L365,221 L365,222 L365,223 L365,224 L364,225 L364,226 L364,227 L364,228 L364,229 L364,230 L363,231 L363,232 L363,231 L363,230 L363,229 L363,228 L363,227 L363,225 L363,222 L363,218 L364,214 L364,208 L364,202 L365,196 L366,191 L366,185 L367,178 L368,172 L368,167 L368,163 L368,161 L368,160 L368,162 L368,166 L368,173 L368,181 L367,190 L366,197 L365,204 L365,210 L364,214 L364,217 L364,219 L364,217 L364,214 L365,209 L366,203 L367,194 L368,184 L369,176 L370,173 L370,175 L369,180 L368,188 L366,198 L364,207 L363,212 L362,215 L362,216 L362,215 L362,212 L363,207 L363,201 L364,192 L365,182 L366,173 L367,168 L367,167 L368,166 L368,167 L368,171 L368,178 L367,187 L366,195 L365,202 L364,206 L364,207 L365,204 L366,199 L367,193 L368,184 L370,173 L372,164 L374,159 L374,158 L374,159 L374,163 L374,171 L372,180 L370,191 L369,200 L367,205 L367,208 L367,209 L367,207 L367,204 L369,198 L369,191 L371,181 L373,172 L374,166 L375,165 L375,166 L376,169 L376,177 L375,187 L373,197 L372,205 L371,209 L370,210 L370,208 L371,203 L371,196 L373,187 L375,174 L377,164 L379,157 L380,153 L380,151 L380,152 L380,157 L378,167 L376,179 L374,190 L372,199 L371,205 L370,207 L370,209 L371,209 L371,207 L373,202 L375,194 L377,184 L379,172 L381,163 L383,157 L384,154 L384,152 L384,154 L383,159 L382,168 L380,178 L379,188 L377,195 L376,200 L375,203 L376,200 L377,195 L379,188 L380,180 L382,171 L383,164 L384,158 L385,155 L386,153 L386,154 L386,156 L385,162 L383,171 L382,181 L380,190 L379,195 L378,198 L378,199 L379,197 L379,192 L381,186 L382,178 L383,169 L385,160 L387,154 L388,153 L388,152 L388,153 L388,156 L387,163 L386,174 L384,185 L382,195 L381,200 L381,203 L381,204 L381,203 L383,199 L383,193 L385,186 L386,176 L387,166 L389,159 L390,155 L391,154 L391,156 L390,163 L388,173 L386,183 L383,193 L382,198 L381,201 L381,202 L381,200 L381,197 L382,192 L383,185 L385,175 L388,164 L390,156 L392,152 L393,151 L393,154 L393,163 L391,173 L389,185 L387,195 L386,202 L385,207 L386,207 L387,203 L389,197 L391,189 L393,179 L395,168 L396,158 L397,154 L397,155 L397,160 L396,171 L394,182 L392,192 L390,200 L388,206 L387,208 L387,209 L387,207 L388,202 L391,195 L393,185 L395,173 L397,163 L398,156 L399,153 L399,152 L399,154 L399,160 L397,171 L395,183 L393,194 L391,202 L390,207 L389,210 L390,207 L391,202 L392,195 L393,186 L395,175 L397,166 L398,161 L399,161 L399,165 L399,173 L398,183 L396,194 L395,202 L394,207 L393,209 L393,208 L394,204 L395,198 L396,191 L396,183 L397,177 L398,176 L398,178 L398,185 L397,195 L396,205 L396,213 L394,218 L394,221 L393,222 L393,221 L394,219 L395,213 L396,207 L396,199 L396,190 L396,186 L396,189 L396,195 L396,205 L395,214 L394,220 L393,224 L393,226 L393,224 L393,220 L393,213 L393,205 L394,195 L395,187 L396,185 L396,186 L396,192 L396,202 L396,210 L395,219 L394,225 L393,228 L393,229 L393,228 L393,226 L393,221 L393,215 L394,206 L394,197 L395,193 L396,199 L396,209 L396,219 L395,229 L393,236 L392,242 L391,245 L391,242 L393,235 L394,226 L396,215 L398,201 L399,189 L401,183 L402,181 L403,187 L403,196 L402,206 L401,214 L401,218 L400,220 L400,218 L401,215 L403,208 L404,199 L406,188 L408,177 L410,169 L410,168 L410,169 L410,175 L409,185 L408,194 L407,202 L406,205 L406,204 L407,202 L408,198 L409,191 L410,183 L412,173 L413,163 L415,157 L415,156 L415,157 L415,163 L414,171 L413,180 L411,187 L410,190 L410,191 L410,190 L410,188 L411,183 L413,177 L414,170 L415,160 L417,152 L418,148 L419,147 L419,149 L420,152 L420,160 L419,168 L418,176 L416,181 L415,183 L415,182 L415,181 L415,178 L416,173 L417,167 L418,159 L418,152 L420,149 L420,152 L421,158 L421,165 L420,171 L420,174 L420,175 L420,174 L421,171 L422,166 L423,160 L424,154 L425,149 L426,147 L426,151 L426,158 L426,166 L425,174 L424,179 L424,181 L424,179 L425,176 L426,171 L427,165 L428,158 L429,156 L430,158 L431,164 L431,172 L431,178 L430,183 L430,185 L430,186 L430,185 L430,184 L431,180 L432,176 L432,171 L433,165 L434,163 L434,164 L434,171 L434,178 L434,184 L433,190 L432,193 L432,192 L432,188 L433,183 L434,178 L435,171 L435,166 L436,166 L436,168 L437,175 L436,183 L435,190 L435,194 L434,196 L434,195 L434,192 L435,187 L436,181 L437,174 L439,167 L440,161 L441,161 L441,164 L442,170 L442,178 L441,184 L440,188 L440,190 L440,189 L440,186 L441,180 L442,174 L443,165 L444,156 L445,149 L445,146 L445,145 L445,149 L445,157 L443,167 L442,176 L441,183 L440,185 L440,184 L441,181 L442,176 L444,171 L445,163 L447,156 L449,151 L449,150 L449,151 L449,153 L449,159 L448,166 L447,174 L445,180 L445,183 L444,183 L444,181 L445,178 L445,173 L446,168 L447,163 L448,160 L448,164 L448,171 L447,177 L447,182 L445,185 L445,186 L444,186 L444,185 L444,183 L444,178 L444,173 L444,168 L444,165 L444,166 L444,172 L444,182 L443,191 L443,198 L442,203 L442,206 L442,207 L442,206 L443,203 L444,198 L445,190 L445,183 L445,176 L446,174 L446,175 L446,181 L446,190 L445,199 L443,208 L441,216 L440,222 L439,226 L438,229 L439,227 L440,222 L441,215 L443,207 L444,200 L445,194 L446,193 L446,195 L445,200 L444,209 L442,219 L440,228 L440,236 L439,242 L438,246 L438,248 L438,249 L439,248 L440,244 L442,237 L443,228 L445,217 L446,207 L447,201 L447,200 L447,202 L446,210 L445,220 L443,231 L441,241 L440,248 L439,254 L439,259 L438,261 L439,260 L439,256 L440,248 L442,239 L443,227 L445,216 L446,208 L447,203 L447,202 L447,203 L447,209 L447,218 L445,229 L444,239 L443,246 L442,251 L442,254 L442,255 L442,254 L443,251 L444,244 L446,237 L448,227 L449,219 L451,213 L452,211 L452,210 L452,211 L452,213 L452,220 L451,229 L451,238 L450,246 L450,251 L450,255 L450,256 L451,256 L452,253 L452,248 L454,241 L455,233 L456,222 L457,214 L459,208 L460,205 L461,205 L462,207 L463,212 L463,222 L463,232 L463,242 L463,248 L463,252 L463,256 L463,255 L464,251 L464,245 L465,237 L466,226 L467,213 L469,201 L471,192 L473,185 L474,183 L474,182 L474,183 L474,190 L473,202 L471,213 L469,223 L467,230 L466,233 L466,234 L467,231 L467,226 L469,219 L470,210 L472,199 L474,189 L476,183 L478,180 L478,181 L478,187 L478,197 L476,207 L475,217 L475,224 L475,226 L475,227 L475,226 L475,222 L476,217 L478,210 L480,200 L482,188 L485,180 L487,174 L488,172 L489,176 L489,185 L488,196 L487,207 L486,215 L486,218 L486,219 L486,218 L487,217 L488,212 L489,206 L489,198 L491,188 L492,177 L493,170 L494,168 L494,169 L495,173 L494,182 L493,192 L493,200 L492,205 L492,207 L492,206 L492,205 L492,203 L492,198 L492,192 L493,183 L493,173 L494,165 L496,160 L496,158 L496,160 L496,166 L495,174 L493,182 L493,189 L492,193 L491,194 L491,193 L491,191 L491,187 L492,181 L492,173 L492,166 L493,158 L494,154 L494,153 L494,154 L494,155 L494,160 L494,168 L493,175 L493,182 L492,185 L492,186 L492,185 L492,183 L493,179 L493,174 L494,168 L496,160 L497,153 L499,149 L499,150 L500,155 L500,162 L499,171 L498,177 L497,181 L497,183 L497,182 L497,180 L497,177 L498,172 L499,166 L501,157 L503,149 L504,144 L505,143 L505,144 L505,145 L505,150 L504,158 L503,167 L501,176 L500,183 L499,187 L499,189 L499,188 L500,184 L501,179 L503,171 L504,162 L506,151 L508,143 L509,139 L509,140 L509,146 L509,155 L508,166 L507,174 L507,180 L507,184 L507,185 L507,183 L507,180 L508,174 L509,168 L510,158 L511,149 L513,145 L513,144 L513,145 L513,149 L512,158 L511,168 L509,177 L508,183 L508,186 L508,185 L508,184 L509,181 L510,175 L511,168 L512,160 L513,151 L515,144 L515,145 L515,151 L513,160 L512,169 L511,176 L510,180 L510,181 L510,180 L510,179 L511,175 L512,170 L513,163 L515,155 L517,149 L518,148 L518,151 L518,158 L516,166 L515,175 L513,180 L513,183 L513,184 L513,183 L513,182 L514,178 L515,173 L517,166 L519,157 L520,148 L522,142 L522,141 L522,143 L522,150 L521,159 L520,167 L519,173 L518,177 L518,176 L518,174 L518,171 L519,165 L520,158 L520,150 L522,144 L522,141 L522,142 L522,147 L521,156 L520,164 L518,171 L518,173 L518,174 L518,173 L518,171 L519,166 L520,161 L522,154 L524,147 L525,142 L525,141 L525,142 L525,145 L524,151 L522,158 L519,166 L517,171 L516,173 L516,174 L516,173 L517,173 L517,171 L519,167 L520,161 L523,152 L527,141 L529,134 L530,131 L530,134 L530,141 L529,151 L527,161 L525,169 L524,173 L524,175 L524,174 L525,171 L525,165 L526,158 L528,149 L529,139 L530,134 L530,133 L530,134 L530,137 L530,146 L528,156 L527,165 L525,171 L525,174 L525,175 L525,174 L526,171 L528,166 L529,160 L531,151 L533,143 L535,137 L535,140 L535,149 L534,159 L533,170 L531,178 L529,186 L527,192 L526,196 L526,197 L525,196 L525,193 L525,188 L525,182 L526,174 L527,168 L527,166 L527,168 L527,173 L526,182 L524,191 L523,200 L522,209 L520,217 L518,226 L516,234 L515,241 L513,248 L512,254 L511,260 L511,264 L511,269 L511,272 L511,275 L511,276 L511,278 L511,279 L511,277 L511,273 L512,268 L514,261 L516,253 L519,247 L520,242 L522,237 L523,232 L524,227 L525,222 L526,218 L528,213 L528,209 L529,205 L530,201 L530,197 L531,193 L532,188 L533,184 L534,180 L536,175 L537,170 L538,166 L539,162 L540,158 L540,154 L541,151 L542,149 L542,148 L542,149 L542,150 L541,151 L541,152 L541,150 L541,148 L541,145 L541,142 L541,140 L541,138 L541,136 L541,137 L540,141 L540,146 L538,152 L537,158 L535,162 L535,164 L535,163 L536,160 L537,156 L539,151 L541,144 L543,137 L544,133 L545,131 L545,132 L545,135 L545,141 L543,149 L542,156 L542,160 L542,162 L542,161 L542,160 L543,157 L544,152 L545,147 L546,140 L547,135 L548,134 L548,135 L549,140 L549,149 L548,158 L547,166 L547,172 L547,174 L547,175 L547,174 L547,173 L548,168 L550,162 L551,154 L552,144 L554,136 L555,132 L555,133 L555,137 L555,146 L554,154 L553,162 L552,167 L552,168 L552,167 L553,165 L553,161 L553,155 L554,149 L555,140 L556,134 L556,135 L556,140 L555,148 L555,156 L554,163 L553,166 L553,168 L553,167 L553,166 L553,163 L554,158 L555,152 L557,144 L558,134 L559,129 L559,133 L559,141 L557,151 L556,160 L555,167 L554,172 L554,173 L554,174 L555,173 L555,172 L557,168 L559,162 L561,155 L563,146 L565,140 L566,137 L566,138 L567,142 L567,149 L566,157 L564,164 L564,168 L563,170 L563,169 L564,167 L565,163 L566,158 L568,152 L570,144 L572,140 L572,139 L572,142 L572,148 L571,155 L570,160 L569,163 L569,164 L569,163 L569,162 L570,160 L570,156 L571,152 L572,148 L572,146 L572,149 L571,155 L569,161 L568,166 L567,168 L567,169 L567,168 L568,166 L569,162 L569,158 L571,152 L572,148 L572,146 L572,147 L572,151 L572,156 L570,162 L569,167 L568,173 L567,177 L567,182 L566,187 L565,191 L564,195 L563,198 L562,201 L561,204 L560,207 L559,208 L558,210 L557,211 L557,212 L557,211 L558,209 L558,206 L559,201 L560,194 L561,184 L563,174 L564,167 L564,163 L565,159 L565,158 L565,163 L564,171 L562,179 L560,188 L559,195 L558,198 L558,199 L558,198 L559,195 L559,190 L561,183 L562,173 L564,163 L567,155 L567,154 L568,154 L568,156 L568,162 L567,171 L566,180 L565,187 L564,190 L564,191 L565,190 L566,186 L567,181 L569,174 L570,164 L573,155 L574,150 L574,153 L574,160 L573,169 L572,176 L571,183 L570,186 L570,187 L570,186 L571,185 L572,182 L574,176 L576,168 L578,158 L580,149 L581,145 L581,147 L581,152 L580,160 L579,168 L577,176 L575,182 L574,186 L574,188 L574,187 L575,184 L577,178 L578,171 L580,161 L582,150 L584,141 L584,134 L584,132 L584,131 L585,132 L585,138 L584,146 L583,155 L582,163 L581,168 L581,171 L581,170 L581,168 L582,163 L583,156 L585,149 L586,139 L587,132 L588,129 L588,128 L588,129 L587,134 L586,139 L584,145 L582,150 L582,153 L582,152 L582,151 L582,147 L583,141 L584,135 L585,127 L586,121 L586,119 L586,120 L586,121 L586,124 L586,130 L585,137 L584,145 L582,154 L581,160 L580,165 L579,170 L578,173 L578,176 L577,176 L577,175 L578,171 L579,166 L581,158 L582,149 L583,140 L583,135 L583,134 L583,135 L583,136 L583,140 L582,146 L581,152 L580,158 L579,165 L578,171 L577,177 L576,183 L574,188 L574,193 L573,198 L572,202 L572,205 L571,209 L570,213 L569,218 L569,222 L569,226 L569,229 L568,233 L568,237 L567,239 L567,241 L567,242 L567,241 L568,238 L569,234 L571,227 L573,220 L576,211 L578,204 L581,197 L582,190 L583,183 L584,176 L584,171 L584,166 L584,161 L585,158 L585,155 L586,152 L586,150 L587,149 L587,148 L587,149 L587,153 L586,160 L584,167 L583,175 L582,180 L582,182 L582,181 L583,179 L584,175 L586,170 L589,163 L591,156 L592,153 L593,153 L593,154 L593,158 L592,164 L591,170 L591,176 L590,180 L590,181 L590,180 L590,178 L591,175 L592,170 L594,164 L596,158 L597,154 L597,156 L597,161 L597,167 L596,172 L596,175 L596,176 L596,175 L596,173 L597,169 L597,164 L598,159 L598,155 L598,154 L598,156 L598,161 L597,166 L597,171 L597,173 L597,174 L597,173 L597,171 L599,168 L599,163 L600,158 L601,153 L602,149 L602,148 L602,151 L602,158 L601,166 L601,173 L600,178 L600,180 L601,178 L601,173 L603,168 L604,163 L606,156 L608,151 L608,152 L608,157 L607,163 L606,170 L606,176 L606,178 L606,179 L606,178 L606,177 L606,174 L608,170 L610,164 L613,156 L615,150 L616,149 L616,150 L616,155 L614,161 L613,168 L612,172 L611,174 L611,173 L612,171 L613,167 L613,162 L614,157 L616,150 L617,146 L617,150 L617,156 L616,162 L616,166 L616,170 L616,168 L616,166 L617,162 L618,158 L618,154 L619,152 L619,154 L618,160 L618,166 L618,172 L618,175 L618,176 L618,175 L619,172 L621,168 L622,163 L624,156 L626,151 L626,150 L626,152 L626,157 L625,163 L624,168 L623,173 L622,173 L622,171 L623,168 L625,163 L626,158 L628,153 L628,152 L628,154 L628,158 L628,164 L628,169 L627,171 L627,172 L627,171 L627,168 L628,165 L628,160 L628,154 L629,149 L630,143 L631,139 L633,135 L634,132 L635,129 L636,125 L638,120 L638,117 L639,114 L639,112 L639,111 L639,112 L639,114 L638,117 L638,119 L638,122 L637,125 L637,128 L636,131 L635,134 L635,137 L635,140 L634,143 L633,147 L633,151 L632,156 L631,160 L630,165 L628,171 L627,176 L626,181 L625,185 L623,190 L623,194 L621,198 L620,202 L619,206 L618,210 L617,213 L616,217 L615,222 L614,226 L613,229 L612,232 L611,236 L610,239 L609,241 L609,243 L608,245 L608,246 L608,247 L607,247 L607,246 L607,244 L608,242 L608,237 L610,231 L612,224 L614,217 L616,211 L617,206 L618,201 L619,197 L621,192 L622,188 L624,184 L626,181 L626,178 L628,175 L628,172 L630,169 L631,166 L632,162 L633,158 L634,154 L635,150 L635,147 L636,143 L637,139 L637,136 L638,133 L639,129 L640,126 L642,122 L643,119 L645,117 L645,115 L645,117 L644,123 L643,132 L639,144 L636,155 L635,162 L633,167 L633,171 L633,172 L634,169 L636,165 L638,159 L640,153 L643,146 L644,141 L644,140 L644,141 L643,145 L643,152 L641,159 L640,166 L640,170 L640,171 L640,172 L641,171 L642,169 L643,166 L645,161 L647,155 L649,150 L649,149 L649,151 L649,156 L649,163 L648,169 L648,173 L649,172 L650,169 L652,164 L653,159 L654,154 L655,149 L655,150 L654,154 L652,161 L651,166 L650,171 L650,173 L650,172 L650,171 L651,167 L652,163 L654,157 L655,150 L657,145 L657,144 L657,145 L657,150 L657,157 L655,164 L654,171 L653,175 L653,176 L653,175 L654,173 L655,169 L657,164 L659,158 L662,150 L665,144 L666,141 L666,142 L666,144 L665,148 L664,155 L663,162 L662,168 L661,172 L661,171 L662,170 L663,166 L665,161 L668,155 L670,150 L672,146 L672,148 L671,153 L670,158 L670,163 L670,166 L670,167 L671,165 L672,162 L673,158 L674,154 L674,148 L676,143 L677,141 L677,140 L677,142 L676,146 L675,152 L674,158 L673,162 L672,164 L672,165 L672,164 L672,163 L673,161 L673,157 L674,152 L676,146 L677,140 L678,137 L678,136 L678,137 L678,139 L677,142 L677,147 L676,152 L674,157 L673,162 L672,166 L670,171 L668,176 L666,182 L665,187 L663,192 L662,197 L661,201 L660,207 L660,211 L659,216 L658,220 L657,224 L656,228 L655,232 L655,237 L654,241 L653,245 L652,249 L652,252 L651,255 L650,258 L649,261 L648,265 L648,268 L647,270 L646,273 L646,274 L645,276 L645,278 L646,275 L647,271 L648,266 L650,260 L651,253 L652,248 L654,243 L655,239 L656,234 L658,229 L660,225 L661,221 L663,217 L664,213 L666,209 L667,205 L669,201 L671,197 L672,193 L674,188 L675,185 L677,181 L678,178 L679,175 L680,172 L682,169 L683,166 L684,163 L685,160 L686,156 L687,153 L688,149 L689,146 L691,141 L692,138 L693,135 L694,133 L694,132 L694,133 L694,136 L693,144 L690,153 L688,162 L687,168 L687,171 L687,170 L689,169 L690,166 L692,161 L693,156 L695,149 L697,144 L698,142 L698,146 L697,152 L695,158 L694,164 L694,168 L694,169 L694,168 L695,166 L696,163 L698,158 L701,153 L704,146 L706,141 L706,140 L706,142 L705,146 L704,152 L702,157 L701,162 L700,166 L700,167 L700,166 L701,165 L702,162 L704,157 L706,152 L708,145 L711,138 L712,134 L713,132 L713,133 L713,136 L713,141 L711,149 L710,156 L709,163 L709,166 L709,167 L710,167 L711,166 L712,164 L714,160 L716,155 L717,149 L719,144 L720,140 L720,139 L720,140 L720,142 L719,147 L718,154 L716,160 L715,166 L715,168 L715,169 L715,168 L716,166 L718,162 L719,157 L721,152 L722,148 L723,146 L723,147 L722,151 L721,157 L718,163 L717,169 L716,171 L716,169 L717,166 L718,161 L720,156 L722,149 L724,141 L727,134 L729,130 L731,127 L732,124 L732,122 L733,121 L733,120 L733,121 L732,124 L730,128 L728,132 L727,136 L726,141 L724,146 L723,151 L721,155 L719,159 L718,163 L716,167 L714,171 L712,175 L711,180 L709,184 L708,188 L706,193 L705,197 L704,202 L703,207 L701,211 L700,216 L699,221 L698,225 L696,230 L696,234 L695,237 L694,239 L694,241 L693,242 L693,240 L694,237 L695,232 L697,227 L699,221 L701,215 L704,210 L705,204 L707,199 L709,195 L710,191 L711,188 L713,184 L715,181 L716,178 L718,174 L720,171 L721,167 L723,164 L724,161 L725,157 L726,154 L726,151 L727,149 L728,146 L728,144 L728,142 L729,139 L730,137 L731,135 L731,133 L732,131 L732,130 L732,129 L732,128 L732,127 L733,127 L733,126 L733,128 L731,134 L729,144 L727,153 L726,160 L725,164 L725,166 L726,166 L727,163 L728,159 L731,154 L733,149 L734,144 L735,141 L735,144 L734,148 L733,154 L731,159 L730,164 L729,166 L729,165 L731,163 L733,160 L735,155 L738,149 L740,144 L742,139 L743,138 L742,139 L741,143 L740,148 L739,153 L738,158 L736,162 L736,164 L736,165 L736,164 L737,162 L738,159 L740,155 L743,149 L746,144 L747,139 L748,138 L748,139 L748,140 L747,144 L745,150 L743,156 L741,161 L740,164 L740,165 L741,164 L741,163 L743,161 L745,157 L747,152 L749,147 L750,144 L751,143 L751,145 L750,148 L750,152 L748,156 L748,160 L748,162 L748,163 L748,162 L749,161 L750,158 L752,154 L754,149 L755,146 L756,143 L756,145 L755,149 L754,154 L753,160 L752,164 L751,167 L752,167 L752,166 L753,164 L755,161 L757,157 L758,153 L759,149 L760,149 L760,150 L759,153 L758,157 L757,161 L757,165 L756,166 L756,167 L757,166 L758,165 L758,162 L760,158 L762,153 L764,146 L766,140 L769,135 L771,130 L773,127 L774,126 L774,125 L773,127 L772,130 L771,135 L770,139 L768,145 L766,151 L765,157 L763,162 L762,168 L760,173 L758,178 L757,183 L755,188 L753,193 L751,199 L750,203 L748,208 L747,213 L746,218 L745,223 L745,227 L744,231 L743,234 L743,238 L742,241 L742,243 L741,244 L741,245 L741,246 L741,245 L741,243 L743,239 L744,234 L746,229 L748,222 L749,217 L750,211 L752,206 L754,202 L756,197 L758,192 L760,188 L761,184 L763,180 L765,176 L767,171 L769,166 L772,161 L774,156 L776,150 L778,145 L779,141 L780,137 L781,134 L781,132 L782,130 L782,129 L782,127 L782,129 L781,134 L779,140 L776,148 L773,157 L771,165 L769,171 L768,177 L767,181 L767,184 L767,185 L767,184 L768,183 L770,179 L772,174 L774,169 L777,161 L780,154 L782,148 L782,145 L782,144 L782,145 L781,149 L779,156 L776,163 L773,171 L772,175 L771,177 L771,178 L772,176 L773,173 L775,168 L777,163 L780,156 L782,151 L784,148 L784,150 L783,155 L781,162 L779,170 L777,177 L775,182 L775,185 L775,184 L777,181 L779,177 L782,171 L785,163 L790,155 L793,149 L795,146 L795,147 L794,150 L793,156 L790,163 L788,171 L786,178 L785,183 L784,187 L784,188 L784,189 L785,189 L786,186 L789,182 L792,176 L795,169 L799,161 L802,154 L804,151 L804,150 L804,151 L804,154 L802,160 L800,166 L798,171 L797,176 L797,178 L797,179 L797,178 L797,177 L799,173 L802,169 L804,164 L806,158 L809,155 L809,154 L808,156 L806,161 L803,168 L801,174 L800,179 L800,181 L801,181 L802,180 L804,177 L806,173 L809,169 L811,164 L812,161 L813,160 L813,162 L812,166 L810,170 L809,174 L808,178 L808,181 L808,182 L808,181 L809,179 L809,176 L811,171 L812,166 L815,158 L818,151 L821,145 L824,140 L826,135 L827,132 L828,129 L830,127 L830,125 L831,124 L831,126 L830,129 L828,133 L827,137 L826,143 L824,149 L823,154 L821,158 L819,163 L818,168 L816,173 L814,177 L813,181 L812,185 L811,189 L811,193 L810,197 L809,202 L808,207 L807,211 L806,216 L805,221 L804,225 L803,229 L802,234 L801,238 L799,242 L798,246 L797,249 L795,253 L794,255 L793,256 L793,255 L794,253 L795,250 L796,246 L797,242 L799,237 L800,231 L802,226 L803,222 L805,217 L806,214 L808,210 L809,206 L810,202 L811,198 L812,194 L814,190 L815,186 L816,182 L817,178 L819,174 L820,170 L821,166 L823,161 L824,156 L826,152 L827,148 L828,144 L830,139 L831,135 L832,132 L832,129 L833,126 L833,123 L833,122 L833,120 L833,121 L833,124 L832,129 L831,135 L829,143 L827,152 L825,160 L823,167 L822,172 L821,177 L821,180 L820,182 L820,183 L821,181 L822,178 L824,173 L826,167 L829,161 L832,154 L834,148 L835,145 L836,143 L836,141 L836,144 L836,149 L834,157 L831,166 L828,175 L827,181 L827,185 L827,187 L828,186 L830,183 L832,178 L834,172 L837,165 L839,158 L841,154 L843,151 L843,150 L843,152 L843,156 L841,161 L840,168 L839,175 L838,179 L838,181 L838,182 L839,180 L841,177 L843,172 L846,166 L850,159 L853,154 L854,150 L854,149 L854,152 L853,157 L850,164 L848,171 L848,177 L847,180 L847,181 L848,181 L848,180 L849,178 L850,174 L853,169 L855,163 L857,158 L858,155 L859,154 L859,153 L859,154 L858,156 L857,161 L855,165 L854,169 L853,172 L853,173 L854,172 L854,170 L856,166 L858,163 L859,158 L861,153 L863,150 L863,151 L863,153 L862,157 L860,162 L860,167 L859,171 L858,173 L859,173 L859,172 L860,170 L860,166 L862,162 L864,157 L866,151 L868,146 L869,142 L870,139 L871,136 L872,133 L873,131 L874,128 L875,127 L876,124 L877,122 L879,121 L880,119 L881,119 L881,118 L881,120 L880,123 L879,128 L877,133 L875,139 L874,144 L873,149 L873,153 L871,157 L870,162 L869,166 L868,171 L868,175 L866,180 L865,185 L864,190 L864,195 L863,200 L862,206 L860,211 L859,216 L858,222 L856,227 L855,231 L853,236 L852,240 L851,244 L850,247 L849,249 L849,251 L848,252 L848,251 L849,250 L850,247 L852,244 L853,240 L855,236 L856,231 L858,226 L858,222 L860,217 L860,212 L861,207 L862,203 L863,198 L865,193 L866,188 L868,183 L869,178 L870,173 L871,167 L872,162 L872,156 L873,151 L873,146 L874,141 L876,136 L877,131 L879,126 L881,122 L882,118 L884,115 L885,112 L885,110 L886,109 L886,108 L886,109 L885,111 L885,115 L883,119 L882,126 L880,132 L878,139 L877,145 L876,150 L875,156 L873,161 L873,165 L872,169 L871,173 L871,176 L871,178 L871,179 L871,178 L872,176 L873,171 L874,166 L876,161 L878,154 L881,149 L883,145 L884,143 L885,142 L885,143 L885,144 L885,148 L884,154 L883,160 L882,166 L882,172 L882,174 L882,176 L884,174 L885,170 L888,165 L891,158 L894,153 L896,149 L897,147 L897,146 L897,147 L897,149 L897,152 L896,158 L895,163 L894,169 L893,173 L893,174 L894,173 L895,171 L897,168 L899,163 L902,157 L905,151 L907,148 L906,151 L905,155 L904,161 L903,166 L902,171 L902,173 L903,171 L904,168 L906,163 L908,158 L911,152 L912,148 L913,146 L913,148 L912,152 L910,157 L908,161 L907,166 L907,168 L908,168 L909,166 L910,164 L912,160 L914,156 L916,153 L917,151 L917,152 L917,154 L915,158 L914,162 L913,166 L913,168 L913,167 L914,165 L914,161 L916,157 L917,151 L919,144 L921,139 L924,133 L926,129 L928,124 L930,119 L931,116 L933,112 L935,109 L936,106 L937,104 L938,102 L939,100 L940,99 L940,98 L941,98 L941,100 L941,102 L940,105 L939,108 L938,113 L937,118 L936,122 L935,127 L934,131 L933,135 L931,139 L931,143 L930,146 L929,151 L928,155 L928,158 L927,162 L926,166 L926,169 L925,173 L924,176 L922,180 L921,184 L919,188 L917,193 L915,197 L914,201 L913,205 L912,209 L911,213 L910,218 L909,222 L908,226 L907,230 L907,234 L906,237 L906,240 L905,242 L905,244 L905,242 L906,240 L907,237 L908,234 L909,229 L911,225 L912,221 L914,217 L915,213 L917,209 L917,205 L919,201 L919,197 L919,193 L920,188 L920,184 L921,180 L921,176 L922,172 L924,168 L924,163 L926,159 L927,155 L928,151 L929,147 L930,143 L931,139 L933,136 L934,133 L935,131 L935,129 L936,128 L936,127 L936,129 L935,134 L934,139 L933,144 L932,150 L931,155 L931,159 L931,162 L931,164 L931,166 L931,164 L933,161 L934,157 L936,154 L937,150 L939,148 L939,147 L939,149 L939,152 L937,157 L936,162 L935,167 L935,170 L935,172 L935,173 L936,173 L936,172 L938,171 L940,168 L942,164 L944,161 L945,158 L946,158 L945,159 L945,162 L944,166 L943,169 L943,171 L942,173 L942,174 L942,173 L943,172 L944,170 L946,168 L948,167 L949,166 L950,165 L951,165 L951,164 L952,163" fill="none" stroke="red" stroke-width="3"/></svg>