<svg xmlns="http://www.w3.org/2000/svg" xmlns:xlink="http://www.w3.org/1999/xlink" version="1.1" class="marks" width="1012" height="385" viewBox="0 0 1012 385"><rect width="1012" height="385" fill="white"/><g fill="none" stroke-miterlimit="10" transform="translate(7,5)"><g class="mark-group role-frame root" role="graphics-object" aria-roledescription="group mark container"><g transform="translate(0,0)"><path class="background" aria-hidden="true" d="M0.5,0.5h1000v375h-1000Z" stroke="#ddd"/><g><g class="mark-group role-axis" role="graphics-symbol" aria-roledescription="axis" aria-label="X-axis for a linear scale with values from 0 to 4,000"><g transform="translate(0.5,375.5)"><path class="background" aria-hidden="true" d="M0,0h0v0h0Z" pointer-events="none"/><g><g class="mark-rule role-axis-domain" pointer-events="none"><line transform="translate(0,0)" x2="1000" y2="0" stroke="#888" stroke-width="1" opacity="1"/></g></g><path class="foreground" aria-hidden="true" d="" pointer-events="none" display="none"/></g></g><g class="mark-group role-axis" role="graphics-symbol" aria-roledescription="axis" aria-label="Y-axis for a linear scale with values from −20 to 110"><g transform="translate(0.5,0.5)"><path class="background" aria-hidden="true" d="M0,0h0v0h0Z" pointer-events="none"/><g><g class="mark-rule role-axis-domain" pointer-events="none"><line transform="translate(0,375)" x2="0" y2="-375" stroke="#888" stroke-width="1" opacity="1"/></g></g><path class="foreground" aria-hidden="true" d="" pointer-events="none" display="none"/></g></g><g class="mark-line role-mark marks" role="graphics-object" aria-roledescription="line mark container"><path aria-label="x: 1; y: 20.295420097" role="graphics-symbol" aria-roledescription="line mark" d="M0.25,258.763L0.5,293.601L0.75,273.254L1,267.798L1.25,253.523L1.5,258.577L1.75,249.45L2,245.856L2.25,255.475L2.5,269.141L2.75,240.594L3,227.3L3.25,216.253L3.5,201.039L3.75,224.27L4,238.81L4.25,232.618L4.5,232.062L4.75,202.942L5,222.562L5.25,219.707L5.5,217.528L5.75,192.369L6,189.767L6.25,229.281L6.5,241.795L6.75,249.931L7,265.237L7.25,248.244L7.5,232.963L7.75,229.647L8,221.808L8.25,227.279L8.5,229.498L8.75,215.098L9,212.019L9.25,232.73L9.5,239.563L9.75,233.725L10,236.711L10.25,246.1L10.5,225.766L10.75,221.824L11,210.664L11.25,235.952L11.5,249.48L11.75,223.201L12,231.759L12.25,208.515L12.5,193.615L12.75,199.171L13,206.453L13.25,223.715L13.5,223.018L13.75,237.221L14,227.111L14.25,228.066L14.5,223.154L14.75,207.691L15,219.743L15.25,220.98L15.5,210.786L15.75,197.244L16,208.874L16.25,175.206L16.5,187.912L16.75,195.392L17,165.816L17.25,128.037L17.5,143.796L17.75,159.925L18,181.314L18.25,170.507L18.5,182.161L18.75,129.729L19,131.842L19.25,146.232L19.5,129.417L19.75,196.929L20,197.857L20.25,160.505L20.5,151.098L20.75,167.313L21,176.026L21.25,200.578L21.5,169.728L21.75,173.213L22,186.108L22.25,140.253L22.5,104.236L22.75,71.115L23,84.194L23.25,148.1L23.5,95.186L23.75,104.849L24,97.471L24.25,178.074L24.5,206.298L24.75,149.251L25,97.244L25.25,131.268L25.5,111.758L25.75,141.531L26,86.162L26.25,85.255L26.5,121.755L26.75,150.047L27,167.933L27.25,154.207L27.5,132.63L27.75,133.415L28,143.443L28.25,146.273L28.5,152.488L28.75,135.625L29,142.654L29.25,158.469L29.5,142.782L29.75,80.039L30,79.41L30.25,102.694L30.5,112.899L30.75,118.198L31,85.797L31.25,109.099L31.5,138.448L31.75,144.144L32,185.05L32.25,154.857L32.5,141.083L32.75,155.747L33,167.569L33.25,106.734L33.5,131.658L33.75,132.349L34,129.793L34.25,152.585L34.5,133.698L34.75,104.573L35,107.006L35.25,96.445L35.5,114.245L35.75,55.119L36,61.673L36.25,59.271L36.5,57.745L36.75,93.519L37,102.921L37.25,77.003L37.5,44.59L37.75,94.085L38,70.72L38.25,86.919L38.5,108.772L38.75,80.192L39,83.697L39.25,99.306L39.5,110.176L39.75,115.669L40,83.107L40.25,98.156L40.5,58.983L40.75,99.76L41,108.319L41.25,102.279L41.5,89.76L41.75,78.723L42,68.493L42.25,62.184L42.5,84.984L42.75,76.185L43,81.826L43.25,69.807L43.5,67.069L43.75,74.178L44,85.869L44.25,84.723L44.5,68.573L44.75,77.335L45,104.11L45.25,97.494L45.5,83.953L45.75,79.079L46,68.272L46.25,60.287L46.5,52.979L46.75,51.731L47,45.461L47.25,60.527L47.5,61.436L47.75,59.916L48,72.553L48.25,66.77L48.5,68.837L48.75,57.689L49,51.668L49.25,52.614L49.5,53.013L49.75,50.638L50,75.201L50.25,63.339L50.5,51.481L50.75,62.953L51,35.999L51.25,67.78L51.5,78.549L51.75,83.403L52,67.077L52.25,59.409L52.5,76.826L52.75,75.983L53,91.352L53.25,65.15L53.5,78.023L53.75,64.9L54,77.444L54.25,76.878L54.5,87.199L54.75,75.867L55,65.961L55.25,71.281L55.5,62.694L55.75,55.981L56,57.808L56.25,52.09L56.5,61.005L56.75,80.667L57,94.556L57.25,82.148L57.5,77.326L57.75,56.9L58,55.889L58.25,77.603L58.5,77.139L58.75,91.607L59,77.614L59.25,95.628L59.5,89.999L59.75,70.481L60,71.654L60.25,57.542L60.5,54.856L60.75,58.492L61,87.204L61.25,73.471L61.5,113.605L61.75,116.839L62,93.039L62.25,77.009L62.5,97.675L62.75,115.11L63,124.073L63.25,99.37L63.5,103.171L63.75,84.051L64,74.466L64.25,101.648L64.5,99.805L64.75,127.691L65,101.506L65.25,130.917L65.5,124.085L65.75,103.468L66,57.273L66.25,96.416L66.5,67.743L66.75,96.602L67,139.846L67.25,143.054L67.5,131.58L67.75,105.641L68,108.377L68.25,106.454L68.5,114.204L68.75,145.948L69,157.703L69.25,142.81L69.5,117.894L69.75,85.223L70,113.076L70.25,84.516L70.5,67.337L70.75,77.58L71,95.401L71.25,90.557L71.5,129.05L71.75,122.436L72,135.935L72.25,119.536L72.5,137.924L72.75,147.671L73,144.964L73.25,113.517L73.5,161.474L73.75,135.799L74,122.13L74.25,106.295L74.5,103.311L74.75,100.768L75,128.059L75.25,190.645L75.5,171.93L75.75,133.316L76,159.204L76.25,149.307L76.5,168.49L76.75,157.412L77,159.776L77.25,211.391L77.5,183.575L77.75,141.754L78,127.842L78.25,127.761L78.5,119.982L78.75,118.049L79,159.007L79.25,149.504L79.5,179.299L79.75,173.193L80,182.248L80.25,184.857L80.5,209.513L80.75,169.286L81,206.692L81.25,132.32L81.5,135.418L81.75,207.676L82,197.637L82.25,202.225L82.5,222.823L82.75,211.115L83,183.971L83.25,168.393L83.5,182.238L83.75,232.173L84,218.607L84.25,236.818L84.5,220.765L84.75,237.891L85,252.728L85.25,259.542L85.5,244.397L85.75,232.427L86,211.064L86.25,211.818L86.5,239.524L86.75,273.547L87,250.798L87.25,240.801L87.5,232.227L87.75,250.147L88,263.424L88.25,247.871L88.5,245.73L88.75,225.05L89,212.558L89.25,236.514L89.5,216.987L89.75,234.58L90,222.948L90.25,259.142L90.5,237.525L90.75,206.628L91,182.914L91.25,163.489L91.5,206.727L91.75,239.558L92,218.796L92.25,228.388L92.5,229.767L92.75,238.875L93,263.91L93.25,236.468L93.5,223.707L93.75,222.594L94,235.106L94.25,248.696L94.5,260.142L94.75,246.518L95,252.215L95.25,267.917L95.5,222.881L95.75,216.253L96,255.284L96.25,265.971L96.5,288.632L96.75,280.359L97,266.537L97.25,234.814L97.5,232.807L97.75,235.245L98,243.137L98.25,227.865L98.5,224.642L98.75,238.339L99,239.289L99.25,248.655L99.5,247.064L99.75,261.458L100,240.367L100.25,247.363L100.5,233.908L100.75,236.554L101,261.681L101.25,279.584L101.5,273.078L101.75,229.843L102,210.442L102.25,180.968L102.5,206.829L102.75,215.782L103,170.963L103.25,158.863L103.5,172.835L103.75,216.732L104,209.545L104.25,219.223L104.5,246.966L104.75,217.667L105,194.539L105.25,209.887L105.5,217.457L105.75,219.153L106,205.994L106.25,190.15L106.5,211.147L106.75,189.012L107,167.095L107.25,207.296L107.5,226.239L107.75,233.367L108,185.295L108.25,179.895L108.5,202.251L108.75,182.92L109,190.835L109.25,197.072L109.5,195.077L109.75,207.037L110,146.31L110.25,134.461L110.5,162.067L110.75,169.174L111,160.738L111.25,152.087L111.5,198.867L111.75,200.373L112,222.042L112.25,207.912L112.5,223.001L112.75,217.17L113,207.798L113.25,196.568L113.5,191.583L113.75,170.963L114,188.527L114.25,167.701L114.5,110.101L114.75,115.068L115,169.08L115.25,150.051L115.5,181.826L115.75,191.886L116,132.958L116.25,61.278L116.5,119.284L116.75,154.098L117,124.199L117.25,158.26L117.5,170.841L117.75,176.781L118,161.077L118.25,197.442L118.5,204.806L118.75,194.469L119,173.823L119.25,186.849L119.5,130.213L119.75,152.533L120,157.749L120.25,126.334L120.5,155.91L120.75,186.607L121,144.435L121.25,107.803L121.5,144.049L121.75,154.189L122,164.504L122.25,142.267L122.5,127.111L122.75,120.302L123,144.489L123.25,119.793L123.5,111.136L123.75,58.323L124,66.514L124.25,69.424L124.5,90.646L124.75,157.941L125,181.71L125.25,173.687L125.5,138.304L125.75,153.337L126,111.245L126.25,93.868L126.5,101.825L126.75,57.131L127,90.881L127.25,134.972L127.5,114.626L127.75,166.669L128,144.385L128.25,132.972L128.5,113.724L128.75,59.365L129,66.519L129.25,90.336L129.5,121.386L129.75,64.894L130,47.493L130.25,73.452L130.5,47.343L130.75,39.204L131,39.307L131.25,124.863L131.5,125.098L131.75,141.955L132,137.89L132.25,120.388L132.5,100.235L132.75,103.787L133,96.002L133.25,86.998L133.5,77.661L133.75,87.358L134,88.988L134.25,58.194L134.5,108.817L134.75,120.688L135,116.426L135.25,94.923L135.5,85.611L135.75,79.695L136,82.361L136.25,83.244L136.5,64.26L136.75,61.156L137,38.02L137.25,80.278L137.5,61.085L137.75,57.575L138,63.487L138.25,84.058L138.5,64.066L138.75,49.306L139,60.044L139.25,54.952L139.5,68.542L139.75,106.475L140,76.24L140.25,61.942L140.5,59.851L140.75,42.192L141,56.977L141.25,54.416L141.5,28.817L141.75,31.294L142,60.844L142.25,64.424L142.5,73.988L142.75,67.107L143,76.103L143.25,50.238L143.5,70.37L143.75,72.26L144,51.887L144.25,59.054L144.5,58.307L144.75,41.339L145,63.101L145.25,72.004L145.5,72.935L145.75,80.564L146,72.857L146.25,90.427L146.5,84.92L146.75,86.193L147,83.513L147.25,82.174L147.5,68.239L147.75,102.933L148,72.775L148.25,81.664L148.5,82.602L148.75,82.268L149,66.606L149.25,87.812L149.5,81.43L149.75,81.16L150,110.525L150.25,49.704L150.5,91.444L150.75,67.942L151,77.747L151.25,87.903L151.5,92.159L151.75,97.636L152,71.202L152.25,58.092L152.5,56.441L152.75,59.812L153,102.048L153.25,132.161L153.5,125.342L153.75,119.942L154,89.958L154.25,129.409L154.5,91.007L154.75,85.612L155,65.855L155.25,109.434L155.5,153.888L155.75,145.84L156,150.628L156.25,111.61L156.5,135.508L156.75,112.485L157,102.215L157.25,115.815L157.5,133.685L157.75,138.514L158,140.376L158.25,133.469L158.5,147.748L158.75,145.958L159,131.847L159.25,121.997L159.5,150.969L159.75,159.786L160,131.003L160.25,116.949L160.5,86.944L160.75,80.727L161,78.679L161.25,82.992L161.5,85.267L161.75,79.93L162,98.021L162.25,95.139L162.5,101.005L162.75,125.592L163,147.792L163.25,140.88L163.5,139.823L163.75,149.961L164,159.586L164.25,171.339L164.5,183.534L164.75,155.255L165,118.562L165.25,129.764L165.5,137.183L165.75,98.83L166,164.045L166.25,154.037L166.5,153.76L166.75,162.117L167,153.152L167.25,162.238L167.5,135.647L167.75,117.938L168,174.767L168.25,156.763L168.5,156.751L168.75,148.087L169,142.455L169.25,178.223L169.5,141.236L169.75,205.01L170,190.628L170.25,139.435L170.5,118.46L170.75,169.631L171,138.517L171.25,180.497L171.5,209.475L171.75,164.656L172,159.029L172.25,174.749L172.5,183.349L172.75,198.271L173,173.087L173.25,189.878L173.5,155.604L173.75,164.298L174,181.085L174.25,198.828L174.5,196.324L174.75,196.395L175,183.624L175.25,181.268L175.5,158.981L175.75,169.107L176,207.22L176.25,206.29L176.5,225.804L176.75,216.462L177,237.942L177.25,228.418L177.5,192.513L177.75,178.597L178,191.21L178.25,170.12L178.5,162.984L178.75,214.186L179,222.963L179.25,197.49L179.5,172.092L179.75,215.6L180,181.558L180.25,205.972L180.5,211.563L180.75,209.812L181,183.9L181.25,193.543L181.5,198.741L181.75,225.954L182,168.655L182.25,196.214L182.5,210.547L182.75,191.342L183,226.271L183.25,244.637L183.5,202.215L183.75,181.696L184,148.298L184.25,198.882L184.5,192.226L184.75,183.194L185,168.195L185.25,162.144L185.5,213.219L185.75,253.615L186,264.6L186.25,218.722L186.5,181.54L186.75,200.12L187,237.321L187.25,236.959L187.5,248.898L187.75,247.797L188,196.763L188.25,187.927L188.5,213.256L188.75,212.433L189,202.772L189.25,187.347L189.5,202.99L189.75,234.176L190,159.427L190.25,154.108L190.5,177.361L190.75,192.301L191,216.644L191.25,213.447L191.5,193.731L191.75,217.791L192,216.545L192.25,219.415L192.5,215.135L192.75,209.836L193,247.433L193.25,222.673L193.5,215.554L193.75,224.15L194,197.672L194.25,173.951L194.5,176.44L194.75,204.685L195,204.921L195.25,182.02L195.5,202.279L195.75,181.307L196,195.004L196.25,217.149L196.5,238.615L196.75,161.262L197,209.633L197.25,188.93L197.5,156.74L197.75,199.129L198,189.152L198.25,215.339L198.5,224.177L198.75,205.033L199,113.123L199.25,125.741L199.5,129.533L199.75,196.383L200,144.68L200.25,117.069L200.5,138.766L200.75,123.74L201,93.307L201.25,79.207L201.5,76.899L201.75,73.057L202,91.561L202.25,92.355L202.5,79.668L202.75,63.936L203,86.015L203.25,121.821L203.5,151.119L203.75,109.236L204,177.895L204.25,101.006L204.5,117.743L204.75,183.104L205,161.451L205.25,172.745L205.5,148.011L205.75,137.962L206,120.7L206.25,146.835L206.5,171.082L206.75,162.358L207,130.185L207.25,131.107L207.5,146.343L207.75,176.549L208,165.59L208.25,130.624L208.5,119.663L208.75,119.797L209,94.754L209.25,125.381L209.5,157.181L209.75,97.545L210,145.13L210.25,191.537L210.5,172.695L210.75,166.121L211,143.61L211.25,132.436L211.5,151.414L211.75,158.426L212,160.906L212.25,164.367L212.5,158.493L212.75,148.096L213,129.769L213.25,93.088L213.5,74.992L213.75,108.038L214,146.121L214.25,117.742L214.5,137.267L214.75,116.279L215,153.286L215.25,115.612L215.5,87.676L215.75,112.082L216,120.166L216.25,80.97L216.5,75.21L216.75,134.072L217,107.154L217.25,77.094L217.5,46.866L217.75,34.658L218,121.782L218.25,118.774L218.5,73.895L218.75,57.153L219,87.682L219.25,68.417L219.5,37.505L219.75,45.816L220,69.889L220.25,117.118L220.5,164.173L220.75,134.461L221,95.871L221.25,87.915L221.5,97.747L221.75,108.579L222,97.08L222.25,88.84L222.5,57.964L222.75,58.348L223,48.313L223.25,52.012L223.5,89.635L223.75,108.218L224,68.488L224.25,32.874L224.5,53.975L224.75,65.029L225,39.359L225.25,38.91L225.5,44.733L225.75,75.229L226,68.733L226.25,68.536L226.5,39.156L226.75,84.488L227,78.619L227.25,43.728L227.5,25.837L227.75,69.525L228,40.991L228.25,49.805L228.5,30.901L228.75,43.35L229,26.259L229.25,31.75L229.5,28.338L229.75,38.092L230,73.092L230.25,56.633L230.5,68.745L230.75,63.489L231,46.787L231.25,45.676L231.5,62.884L231.75,40.1L232,45.088L232.25,30.544L232.5,34.417L232.75,77.008L233,79.977L233.25,63.572L233.5,58.179L233.75,54.376L234,71.118L234.25,23.706L234.5,66.078L234.75,70.499L235,83.644L235.25,80.174L235.5,52.854L235.75,74.961L236,57.87L236.25,43.761L236.5,51.801L236.75,45.499L237,68.324L237.25,65.606L237.5,46.63L237.75,79.587L238,95.919L238.25,102.222L238.5,98.491L238.75,95.304L239,120.92L239.25,72.418L239.5,73.734L239.75,97.485L240,103.739L240.25,92.582L240.5,82.562L240.75,104.151L241,92.162L241.25,72.547L241.5,58.897L241.75,45.608L242,59.165L242.25,88.616L242.5,59.767L242.75,63.339L243,69.42L243.25,59.387L243.5,47.753L243.75,98.558L244,80.559L244.25,64.503L244.5,62.538L244.75,82.848L245,69.451L245.25,91.143L245.5,117.501L245.75,101.828L246,106.874L246.25,78.293L246.5,59.438L246.75,106.261L247,94.667L247.25,76.777L247.5,96.642L247.75,97.238L248,139.61L248.25,103.849L248.5,101.755L248.75,145.931L249,136.691L249.25,145.655L249.5,109.873L249.75,102.038L250,117.171L250.25,110.152L250.5,122.676L250.75,95.285L251,119.766L251.25,132.786L251.5,125.255L251.75,131.045L252,94.81L252.25,175.727L252.5,178.697L252.75,174.984L253,142.502L253.25,133.834L253.5,172.099L253.75,126.832L254,171.047L254.25,126.796L254.5,112.448L254.75,136.198L255,111.24L255.25,125.71L255.5,164.952L255.75,163.384L256,153.59L256.25,119.976L256.5,119.414L256.75,117.239L257,89.68L257.25,91.994L257.5,166.029L257.75,172.364L258,171.807L258.25,162.028L258.5,170.438L258.75,170.194L259,157.593L259.25,179.48L259.5,185.46L259.75,170.511L260,180.565L260.25,189.907L260.5,181.366L260.75,191.971L261,149.126L261.25,127.702L261.5,110.259L261.75,204.64L262,207.445L262.25,193.711L262.5,180.804L262.75,158.654L263,159.949L263.25,148.821L263.5,142.67L263.75,148.278L264,162.285L264.25,127.312L264.5,193.517L264.75,219.478L265,193.175L265.25,205.723L265.5,229.076L265.75,187.847L266,178.965L266.25,167.669L266.5,142.143L266.75,136.591L267,121.594L267.25,138.551L267.5,209.728L267.75,189.772L268,182.348L268.25,200.446L268.5,199.037L268.75,218.69L269,216.652L269.25,191.205L269.5,167.75L269.75,166.115L270,177.192L270.25,179.618L270.5,203.872L270.75,194.651L271,188.594L271.25,176.407L271.5,230.748L271.75,232.361L272,211.236L272.25,217.456L272.5,211.097L272.75,211.04L273,232.193L273.25,226.112L273.5,226.085L273.75,227.222L274,214.025L274.25,246.167L274.5,231.347L274.75,231.733L275,206.761L275.25,193.559L275.5,210.355L275.75,194.404L276,197.084L276.25,180.654L276.5,189.026L276.75,167.399L277,167.579L277.25,226.517L277.5,251.42L277.75,225.113L278,200.776L278.25,221.467L278.5,196.765L278.75,181.862L279,245.551L279.25,274.352L279.5,286.372L279.75,254.578L280,253.489L280.25,241.649L280.5,228.764L280.75,206.878L281,187.662L281.25,129.325L281.5,199.363L281.75,257.998L282,275.357L282.25,252.328L282.5,247.095L282.75,229.188L283,231.093L283.25,208.766L283.5,216.687L283.75,226.934L284,226.029L284.25,164.364L284.5,206.407L284.75,226.653L285,183.47L285.25,196.656L285.5,233.051L285.75,256.851L286,227.091L286.25,166.848L286.5,220.723L286.75,246.576L287,231.463L287.25,215.102L287.5,224.106L287.75,209.372L288,196.02L288.25,214.61L288.5,229.508L288.75,204.734L289,235.309L289.25,216.957L289.5,214.361L289.75,209.565L290,209.604L290.25,220.223L290.5,208.085L290.75,196.394L291,180.599L291.25,175.107L291.5,176.472L291.75,210.953L292,224.505L292.25,202.221L292.5,207.574L292.75,215.723L293,230.818L293.25,212.981L293.5,219.223L293.75,248.714L294,214.109L294.25,206.462L294.5,200.638L294.75,205.484L295,206.18L295.25,205.56L295.5,204.296L295.75,163.508L296,149.599L296.25,147.764L296.5,147.876L296.75,208.488L297,190.706L297.25,203.871L297.5,145.606L297.75,182.477L298,116.103L298.25,149.465L298.5,136.034L298.75,162.003L299,211.043L299.25,190.088L299.5,173.188L299.75,196.247L300,131.055L300.25,129.807L300.5,152.063L300.75,184.922L301,123.451L301.25,202.432L301.5,175.147L301.75,163.716L302,122.8L302.25,144.391L302.5,180.2L302.75,182.633L303,136.351L303.25,111.452L303.5,124.607L303.75,100.632L304,71.872L304.25,82.945L304.5,161.523L304.75,188.391L305,109.877L305.25,117.374L305.5,115.994L305.75,100.923L306,84.781L306.25,94.87L306.5,182.436L306.75,140.497L307,147.263L307.25,135.604L307.5,61.061L307.75,75.461L308,72.45L308.25,102.86L308.5,81.442L308.75,71.975L309,65.18L309.25,71.884L309.5,110.067L309.75,163.396L310,149.792L310.25,145.26L310.5,119.626L310.75,136.152L311,91.505L311.25,82.915L311.5,84.007L311.75,91.899L312,86.765L312.25,127.522L312.5,123.495L312.75,109.679L313,113.267L313.25,132.337L313.5,120.937L313.75,103.026L314,94.54L314.25,105.435L314.5,75.368L314.75,70.397L315,109.171L315.25,93.196L315.5,91.962L315.75,78.95L316,58.851L316.25,110.973L316.5,98.202L316.75,78.451L317,79.587L317.25,89.427L317.5,67.045L317.75,67.739L318,68.861L318.25,84.054L318.5,60.321L318.75,72.618L319,106.891L319.25,95.735L319.5,102.029L319.75,114.678L320,99.712L320.25,71.983L320.5,67.533L320.75,89.768L321,65.895L321.25,74.286L321.5,62.027L321.75,74.74L322,85.939L322.25,93.209L322.5,79.511L322.75,63.627L323,46.904L323.25,45.081L323.5,48.458L323.75,39.939L324,38.382L324.25,65.559L324.5,55.02L324.75,61.528L325,86.063L325.25,102.52L325.5,77.687L325.75,115.887L326,123.065L326.25,125.943L326.5,94.469L326.75,100.507L327,98.123L327.25,80.64L327.5,67.259L327.75,76.798L328,103.466L328.25,99.478L328.5,76.879L328.75,68.091L329,88.804L329.25,93.472L329.5,74.704L329.75,86.55L330,82.162L330.25,113.465L330.5,113.317L330.75,95.323L331,71.257L331.25,86.822L331.5,85.428L331.75,70.256L332,56.433L332.25,54.909L332.5,94.459L332.75,86.486L333,76.351L333.25,71.353L333.5,48.882L333.75,26.03L334,77.512L334.25,55.514L334.5,29.472L334.75,100.749L335,77.172L335.25,87.721L335.5,93.849L335.75,61.213L336,101.207L336.25,76.357L336.5,74.349L336.75,98.533L337,37.937L337.25,46.203L337.5,53.801L337.75,84.198L338,121.749L338.25,110.44L338.5,133.012L338.75,127.634L339,112.34L339.25,69.733L339.5,77.941L339.75,99.939L340,125.394L340.25,117.086L340.5,119.496L340.75,122.965L341,110.249L341.25,83.487L341.5,80.613L341.75,73.966L342,122.456L342.25,113.474L342.5,99.505L342.75,101.093L343,99.644L343.25,104.983L343.5,87.694L343.75,131.113L344,123.415L344.25,103.955L344.5,110.699L344.75,98.319L345,97.793L345.25,106.43L345.5,129.297L345.75,148.539L346,137.055L346.25,162.367L346.5,155.664L346.75,177.862L347,165.448L347.25,155.141L347.5,154.852L347.75,185.577L348,179.286L348.25,191.574L348.5,186.425L348.75,152.738L349,152.587L349.25,158.615L349.5,165.677L349.75,135.039L350,136.396L350.25,187.424L350.5,178.46L350.75,169.52L351,147.758L351.25,153.39L351.5,153.37L351.75,174.458L352,166.955L352.25,160.308L352.5,172.401L352.75,173.944L353,216.778L353.25,196.057L353.5,171.725L353.75,180.662L354,144.849L354.25,110.804L354.5,193.307L354.75,197.203L355,187.232L355.25,171.343L355.5,197.694L355.75,236.007L356,236.06L356.25,232.112L356.5,223.929L356.75,229.509L357,225.594L357.25,215.114L357.5,169.822L357.75,199.165L358,192.1L358.25,171.597L358.5,157.489L358.75,201.899L359,254.919L359.25,252.192L359.5,253.377L359.75,239.298L360,249.229L360.25,270.127L360.5,265.928L360.75,218.815L361,233.832L361.25,245.348L361.5,247.927L361.75,221.753L362,218.123L362.25,195.437L362.5,218.142L362.75,212.783L363,220.462L363.25,252.246L363.5,263.591L363.75,228.378L364,221.472L364.25,204.891L364.5,180.576L364.75,197.945L365,271.424L365.25,284.376L365.5,258.361L365.75,254.702L366,260.957L366.25,225.542L366.5,233.635L366.75,330.569L367,302.872L367.25,274.688L367.5,231.499L367.75,199.073L368,197.469L368.25,189.98L368.5,185.958L368.75,224.732L369,247.116L369.25,217.762L369.5,254.674L369.75,255.106L370,208.954L370.25,201.811L370.5,277.953L370.75,268.903L371,287.446L371.25,235.706L371.5,239.76L371.75,228.252L372,306.071L372.25,310.676L372.5,256.61L372.75,223.766L373,228.946L373.25,231.342L373.5,253.679L373.75,265.033L374,248.066L374.25,237.413L374.5,268.407L374.75,285.281L375,263.224L375.25,265.211L375.5,284.63L375.75,278.861L376,244.982L376.25,224.779L376.5,252.778L376.75,249.848L377,246.717L377.25,228.355L377.5,196.844L377.75,189.258L378,171.826L378.25,216.275L378.5,224.835L378.75,243.523L379,241.487L379.25,257.344L379.5,267.274L379.75,267.679L380,229.935L380.25,234.15L380.5,274.354L380.75,256.295L381,238.997L381.25,251.214L381.5,218.137L381.75,177.137L382,203.142L382.25,190.796L382.5,168.739L382.75,186.096L383,219.667L383.25,207.898L383.5,166.052L383.75,206.889L384,239.226L384.25,204.358L384.5,166.976L384.75,178.479L385,176.684L385.25,158.516L385.5,205.348L385.75,229.239L386,211.126L386.25,224.784L386.5,209.112L386.75,157.753L387,160.106L387.25,199.259L387.5,161.082L387.75,115.827L388,155.382L388.25,191.084L388.5,189.808L388.75,184.711L389,170.687L389.25,155.896L389.5,168.695L389.75,148.089L390,135.091L390.25,126.555L390.5,119.702L390.75,89.445L391,134.83L391.25,138.394L391.5,209.095L391.75,157.511L392,142.044L392.25,162.835L392.5,135.456L392.75,89.686L393,94.244L393.25,142.997L393.5,180.412L393.75,131.237L394,105.926L394.25,150.618L394.5,143.929L394.75,164.795L395,141.924L395.25,167.464L395.5,178.919L395.75,158L396,118.159L396.25,141.563L396.5,155.216L396.75,132.577L397,85.874L397.25,55.903L397.5,108.729L397.75,96.47L398,80.762L398.25,83.427L398.5,116.243L398.75,161.229L399,166.585L399.25,181.056L399.5,130.292L399.75,110.229L400,114.992L400.25,78.755L400.5,76.008L400.75,111.724L401,121.922L401.25,103.23L401.5,87.168L401.75,57.655L402,73.312L402.25,109.659L402.5,96.445L402.75,95.837L403,73.819L403.25,71.099L403.5,81.882L403.75,71.494L404,106.398L404.25,100.457L404.5,73.308L404.75,80.27L405,105.459L405.25,89.042L405.5,128.658L405.75,122.35L406,86.539L406.25,102.353L406.5,99.58L406.75,68.615L407,57.207L407.25,53.844L407.5,82.242L407.75,91.671L408,75.621L408.25,78.147L408.5,79.102L408.75,90.113L409,63.73L409.25,77.161L409.5,93.174L409.75,72.366L410,68.061L410.25,76.002L410.5,69.547L410.75,90.735L411,106.767L411.25,97.172L411.5,91.33L411.75,96.226L412,68.681L412.25,71.624L412.5,89.341L412.75,87.64L413,94.047L413.25,89.74L413.5,90.89L413.75,69.071L414,84.884L414.25,112.872L414.5,101.019L414.75,107.841L415,90.869L415.25,99.583L415.5,70.704L415.75,75.821L416,60.65L416.25,98.123L416.5,89.147L416.75,102.181L417,91.211L417.25,65.936L417.5,111.231L417.75,86.891L418,83.082L418.25,71.87L418.5,69.396L418.75,59.987L419,64.463L419.25,70.614L419.5,83.207L419.75,87.376L420,76.89L420.25,95.453L420.5,92.477L420.75,79.571L421,80.834L421.25,117.413L421.5,79.556L421.75,116.569L422,96.706L422.25,84.695L422.5,109.26L422.75,77.594L423,73.612L423.25,73.17L423.5,80.14L423.75,76.13L424,71.956L424.25,54.783L424.5,61.305L424.75,68.088L425,81.644L425.25,96.388L425.5,75.802L425.75,77.471L426,75.544L426.25,76.222L426.5,83.508L426.75,77.547L427,66.321L427.25,68.825L427.5,96.757L427.75,93.959L428,97.409L428.25,85.584L428.5,95.03L428.75,156.369L429,159.003L429.25,156.469L429.5,133.419L429.75,140.332L430,124.107L430.25,105.713L430.5,121.73L430.75,89.215L431,81.902L431.25,127.587L431.5,115.746L431.75,105.693L432,100.015L432.25,109.494L432.5,89.527L432.75,97.699L433,95.912L433.25,71.693L433.5,145.997L433.75,113.699L434,111.328L434.25,141.656L434.5,174.944L434.75,160.092L435,138.852L435.25,129.42L435.5,114.618L435.75,140.983L436,148.2L436.25,137.932L436.5,131.992L436.75,113.72L437,135.823L437.25,149.589L437.5,170.065L437.75,140.717L438,178.98L438.25,144.371L438.5,124.084L438.75,161.99L439,148.493L439.25,140.174L439.5,125.629L439.75,111.775L440,136.193L440.25,100.838L440.5,122.096L440.75,174.7L441,167.711L441.25,168.811L441.5,189.794L441.75,164.845L442,126.832L442.25,140.729L442.5,144.797L442.75,170.733L443,198.074L443.25,176.049L443.5,171.245L443.75,145.19L444,145.812L444.25,227.652L444.5,234.366L444.75,237.759L445,226.738L445.25,230.669L445.5,252.929L445.75,275.1L446,218.132L446.25,233.082L446.5,213.313L446.75,174.938L447,164.339L447.25,182.681L447.5,238.515L447.75,234.918L448,232.562L448.25,221.857L448.5,161.921L448.75,179.498L449,239.737L449.25,218.274L449.5,204.024L449.75,211.934L450,206.318L450.25,197.581L450.5,217.95L450.75,219.224L451,190.412L451.25,213.852L451.5,219.239L451.75,199.964L452,184.569L452.25,178.188L452.5,176.177L452.75,194.062L453,231.945L453.25,236.359L453.5,232.287L453.75,217.678L454,213.495L454.25,211.836L454.5,185L454.75,202.062L455,200.42L455.25,180.645L455.5,171.492L455.75,209.655L456,231.837L456.25,258.579L456.5,262.288L456.75,219.708L457,225.494L457.25,217.504L457.5,224.689L457.75,301.515L458,302.086L458.25,303.451L458.5,263.35L458.75,289.976L459,248.345L459.25,229.469L459.5,237.186L459.75,269.904L460,254.029L460.25,219.067L460.5,211.979L460.75,193.874L461,206.942L461.25,200.438L461.5,218.566L461.75,229.731L462,220.536L462.25,228.361L462.5,192.126L462.75,222.501L463,240.027L463.25,228.373L463.5,222.672L463.75,217.151L464,233.234L464.25,216.975L464.5,217.811L464.75,253.505L465,239.808L465.25,243.27L465.5,269.751L465.75,226.485L466,206.967L466.25,204.126L466.5,231.185L466.75,224.522L467,208.391L467.25,277.943L467.5,239.596L467.75,235.874L468,268.054L468.25,272.57L468.5,262.202L468.75,296.219L469,309.136L469.25,259.711L469.5,221.908L469.75,231.112L470,285.916L470.25,239.928L470.5,231.544L470.75,265.165L471,278.813L471.25,253.445L471.5,252.112L471.75,222.242L472,217.911L472.25,214.712L472.5,273.043L472.75,245.903L473,180.005L473.25,198.056L473.5,160.26L473.75,179.368L474,172.208L474.25,147.288L474.5,127.281L474.75,141.407L475,139.187L475.25,101.659L475.5,188.684L475.75,182.448L476,186.408L476.25,178.253L476.5,173.828L476.75,215.655L477,225.26L477.25,211.112L477.5,189.87L477.75,201.344L478,227.032L478.25,217.987L478.5,175.064L478.75,143.339L479,153.307L479.25,105.913L479.5,126.954L479.75,161.961L480,162.914L480.25,120.149L480.5,133.876L480.75,193.934L481,185.996L481.25,105.765L481.5,142.413L481.75,142.827L482,120.919L482.25,136.167L482.5,134.213L482.75,122.703L483,132.846L483.25,96.659L483.5,135.418L483.75,117.368L484,168.799L484.25,152.231L484.5,181.412L484.75,170.089L485,141.879L485.25,173.567L485.5,156.07L485.75,153.953L486,153.66L486.25,138.527L486.5,169.216L486.75,117.803L487,105.089L487.25,95.349L487.5,104.628L487.75,159.328L488,105.717L488.25,80.411L488.5,78.637L488.75,130.141L489,164.034L489.25,127.774L489.5,149.649L489.75,166.928L490,132.432L490.25,102.491L490.5,87.59L490.75,86.103L491,101.934L491.25,166.035L491.5,173.757L491.75,117.152L492,128.058L492.25,89.182L492.5,108.048L492.75,89.411L493,98.488L493.25,104.458L493.5,88.308L493.75,83.274L494,111.524L494.25,151.217L494.5,134.401L494.75,116.996L495,96.645L495.25,72.256L495.5,111.13L495.75,99.422L496,74.191L496.25,71.556L496.5,60.373L496.75,52.627L497,95.996L497.25,123.498L497.5,76.288L497.75,71.826L498,91.344L498.25,111.36L498.5,105.277L498.75,83.807L499,127.998L499.25,93.23L499.5,63.655L499.75,73.895L500,78.196L500.25,85.01L500.5,93.364L500.75,124.245L501,99.546L501.25,93.825L501.5,103.28L501.75,89.314L502,118.149L502.25,113.677L502.5,107.318L502.75,83.289L503,81.893L503.25,68.997L503.5,119.492L503.75,129.315L504,75.514L504.25,79.358L504.5,87.374L504.75,84.349L505,67.717L505.25,66.966L505.5,105.985L505.75,96.008L506,52.016L506.25,63.702L506.5,71.573L506.75,57.987L507,89.551L507.25,92.126L507.5,72.234L507.75,69.477L508,61.411L508.25,85.492L508.5,64.574L508.75,44.526L509,63.978L509.25,65.158L509.5,71.602L509.75,71.835L510,58.19L510.25,79.084L510.5,83.289L510.75,87.949L511,79.703L511.25,79.008L511.5,83.925L511.75,80.216L512,74.967L512.25,76.356L512.5,80.355L512.75,63.699L513,62.233L513.25,56.537L513.5,69.081L513.75,63.409L514,73.519L514.25,94.217L514.5,107.824L514.75,67.682L515,85.46L515.25,96.747L515.5,98.232L515.75,117.361L516,135.022L516.25,103.322L516.5,117.183L516.75,114.408L517,101.095L517.25,88.848L517.5,65.135L517.75,60.062L518,49.152L518.25,65.327L518.5,64.79L518.75,54.814L519,70.424L519.25,81.878L519.5,100.075L519.75,101.2L520,126.308L520.25,120.371L520.5,111.575L520.75,75.261L521,82.703L521.25,69.347L521.5,66.875L521.75,102.073L522,111.407L522.25,109.778L522.5,115.08L522.75,84.783L523,85.451L523.25,100.721L523.5,113.078L523.75,95.172L524,100.637L524.25,95.293L524.5,124.568L524.75,140.76L525,159.816L525.25,138.026L525.5,157.061L525.75,144.761L526,151.721L526.25,105.568L526.5,103.289L526.75,88.497L527,134.216L527.25,127.299L527.5,79.236L527.75,102.044L528,127.239L528.25,134.547L528.5,110.84L528.75,152.697L529,166.921L529.25,148.213L529.5,111.813L529.75,107.057L530,106.698L530.25,145.056L530.5,124.416L530.75,116.282L531,134.512L531.25,150.069L531.5,150.155L531.75,157.885L532,182.815L532.25,159.378L532.5,162.004L532.75,138.969L533,115.66L533.25,106.762L533.5,115.446L533.75,109.877L534,133.742L534.25,157.493L534.5,160.885L534.75,157.779L535,155.391L535.25,133.15L535.5,154.353L535.75,183.284L536,161.155L536.25,130.958L536.5,153.346L536.75,143.086L537,141.755L537.25,181.77L537.5,201.97L537.75,225.481L538,234.189L538.25,197.638L538.5,206.173L538.75,168.136L539,151.108L539.25,145.456L539.5,203.34L539.75,199.57L540,197.948L540.25,199.161L540.5,210.324L540.75,219.099L541,185.913L541.25,177.404L541.5,183.894L541.75,215.081L542,181.252L542.25,166.773L542.5,160.3L542.75,180.057L543,148.329L543.25,136.98L543.5,138.559L543.75,195.563L544,163.537L544.25,217.156L544.5,216.664L544.75,227.298L545,173.472L545.25,166.175L545.5,206.113L545.75,143.826L546,189.066L546.25,201.121L546.5,200.199L546.75,202.606L547,208.935L547.25,205.462L547.5,234.908L547.75,238.854L548,221.054L548.25,231.328L548.5,239.115L548.75,228.405L549,229.207L549.25,212.79L549.5,199.954L549.75,194.789L550,193.964L550.25,256.419L550.5,242.048L550.75,249.88L551,255.571L551.25,182.019L551.5,197.445L551.75,238.067L552,307.349L552.25,308.894L552.5,264.345L552.75,248.424L553,229.903L553.25,233.146L553.5,222.48L553.75,224.967L554,194.645L554.25,222.054L554.5,216.131L554.75,198.758L555,219.95L555.25,188.921L555.5,172.088L555.75,175.876L556,201.854L556.25,208.58L556.5,220.288L556.75,221.294L557,204.259L557.25,202.627L557.5,222.66L557.75,256.942L558,278.141L558.25,261.548L558.5,253.99L558.75,271.438L559,263.163L559.25,244.375L559.5,224.308L559.75,214.487L560,194.21L560.25,133.537L560.5,158.751L560.75,203.988L561,188.535L561.25,205.257L561.5,215.456L561.75,212.771L562,219.369L562.25,162.31L562.5,141.634L562.75,168.014L563,219.485L563.25,220.893L563.5,238.895L563.75,209.998L564,199.341L564.25,165.65L564.5,132.849L564.75,114.631L565,129.705L565.25,169.11L565.5,159.192L565.75,136.045L566,186.194L566.25,165.963L566.5,151.657L566.75,161.185L567,146.24L567.25,175.19L567.5,166.106L567.75,193.39L568,175.621L568.25,138.325L568.5,188.734L568.75,208.1L569,173.538L569.25,163.936L569.5,135.308L569.75,158.012L570,149.042L570.25,138.845L570.5,125.961L570.75,173.753L571,203.432L571.25,105.761L571.5,207.221L571.75,179.618L572,167.962L572.25,190.019L572.5,193.632L572.75,200.284L573,177.666L573.25,165.364L573.5,181.374L573.75,157.63L574,141.37L574.25,113.145L574.5,99.844L574.75,98.865L575,76.612L575.25,161.211L575.5,116.572L575.75,114.012L576,173.611L576.25,146.73L576.5,94.628L576.75,74.012L577,122.579L577.25,180.82L577.5,175.836L577.75,172.535L578,176.888L578.25,175.056L578.5,155.921L578.75,122.915L579,151.572L579.25,130.734L579.5,79.186L579.75,116.326L580,108.598L580.25,145.566L580.5,133.563L580.75,115.599L581,108.717L581.25,122.679L581.5,185.097L581.75,161.212L582,117.256L582.25,150.927L582.5,123.339L582.75,120.242L583,115.395L583.25,89.866L583.5,89.368L583.75,79.408L584,73.354L584.25,87.189L584.5,76.959L584.75,86.766L585,80.35L585.25,84.629L585.5,60.934L585.75,81.5L586,90.086L586.25,96.463L586.5,63.086L586.75,113.565L587,91.047L587.25,87.697L587.5,127.645L587.75,120.711L588,115.157L588.25,53.969L588.5,50.158L588.75,85.01L589,57.12L589.25,69.148L589.5,58.945L589.75,99.498L590,63.686L590.25,62.985L590.5,54.766L590.75,45.488L591,72.734L591.25,96.289L591.5,94.807L591.75,90.532L592,61.052L592.25,53.915L592.5,74.039L592.75,106.663L593,96.816L593.25,88.887L593.5,103.513L593.75,105.591L594,98.719L594.25,94.254L594.5,71.508L594.75,59.24L595,75.503L595.25,52.773L595.5,91.814L595.75,81.932L596,54.585L596.25,71.352L596.5,75.761L596.75,63.79L597,111.142L597.25,93.4L597.5,72.011L597.75,53.411L598,43.13L598.25,64.672L598.5,63.188L598.75,57.664L599,43.882L599.25,30.105L599.5,70.854L599.75,49.797L600,60.814L600.25,68.022L600.5,92.666L600.75,89.836L601,78.302L601.25,70.814L601.5,70.686L601.75,47.661L602,54.993L602.25,76.557L602.5,76.988L602.75,81.784L603,68.008L603.25,70.902L603.5,56.156L603.75,39.978L604,82.692L604.25,74.168L604.5,66.804L604.75,92.817L605,60.144L605.25,56.947L605.5,81.078L605.75,81.006L606,86.524L606.25,94.318L606.5,85.993L606.75,98.015L607,70.887L607.25,82.698L607.5,75.404L607.75,62.869L608,90.744L608.25,75.58L608.5,83.226L608.75,101.922L609,105.791L609.25,106.985L609.5,95.035L609.75,94.776L610,75.102L610.25,49.769L610.5,66.23L610.75,78.208L611,78.393L611.25,97.988L611.5,101.709L611.75,96.34L612,66.753L612.25,104.906L612.5,93.387L612.75,78.562L613,87.518L613.25,74.962L613.5,66.514L613.75,72.46L614,100.239L614.25,87.672L614.5,114.015L614.75,97.399L615,73.573L615.25,117.521L615.5,113.809L615.75,154.646L616,137.142L616.25,136.031L616.5,129.66L616.75,125.247L617,133.551L617.25,103.602L617.5,86.872L617.75,107.392L618,117.812L618.25,132.256L618.5,133.065L618.75,121.099L619,106.651L619.25,118.985L619.5,152.441L619.75,130.932L620,123.258L620.25,98.43L620.5,72.781L620.75,98.878L621,109.788L621.25,161.552L621.5,153.429L621.75,155.185L622,95.484L622.25,144.144L622.5,161.215L622.75,165.691L623,169.595L623.25,127.369L623.5,122.343L623.75,158.551L624,154.735L624.25,94.098L624.5,130.769L624.75,132.091L625,141.674L625.25,121.89L625.5,111.043L625.75,126.482L626,128.511L626.25,140.928L626.5,136.981L626.75,153.202L627,166.412L627.25,161.099L627.5,152.429L627.75,157.217L628,141.648L628.25,101.362L628.5,127.455L628.75,200.705L629,216.031L629.25,211.168L629.5,197.696L629.75,191.553L630,198.144L630.25,201.285L630.5,195.252L630.75,197.774L631,171.56L631.25,156.023L631.5,185.533L631.75,202.075L632,215.287L632.25,213.428L632.5,224.326L632.75,221.479L633,205.478L633.25,240.647L633.5,253.482L633.75,244.631L634,255.946L634.25,223.341L634.5,216.85L634.75,245.783L635,265.685L635.25,294.747L635.5,270.07L635.75,252.587L636,277.808L636.25,269.692L636.5,240.113L636.75,206.261L637,208.992L637.25,207.688L637.5,208.341L637.75,205.06L638,161.632L638.25,236.437L638.5,188.517L638.75,199.938L639,207.819L639.25,205.419L639.5,200.542L639.75,196.541L640,205.561L640.25,260.767L640.5,282.668L640.75,290.07L641,269.177L641.25,262.053L641.5,223.832L641.75,172.106L642,189.793L642.25,226.87L642.5,245.198L642.75,213.696L643,214.456L643.25,207.253L643.5,201.304L643.75,205.831L644,199.269L644.25,187.811L644.5,148.607L644.75,182.559L645,206L645.25,194.073L645.5,194.519L645.75,221.447L646,233.143L646.25,247.345L646.5,234.273L646.75,215.137L647,212.185L647.25,203.485L647.5,250.967L647.75,228.204L648,216.426L648.25,205.316L648.5,166.483L648.75,175.535L649,217.159L649.25,256.025L649.5,200.259L649.75,170.745L650,182.228L650.25,195.197L650.5,179.114L650.75,211.992L651,204.217L651.25,126.74L651.5,118.359L651.75,121.23L652,114.597L652.25,123.595L652.5,122.764L652.75,143.173L653,204.477L653.25,214.585L653.5,172.264L653.75,164.946L654,133.654L654.25,165.462L654.5,226.924L654.75,226.952L655,200.301L655.25,151.932L655.5,130.295L655.75,132.788L656,169.301L656.25,188.028L656.5,206.733L656.75,226.322L657,212.812L657.25,230.116L657.5,243.161L657.75,216.211L658,199.768L658.25,177.805L658.5,191.351L658.75,158.628L659,162.62L659.25,162.504L659.5,206.704L659.75,173.039L660,80.124L660.25,182.916L660.5,135.587L660.75,171.151L661,179.41L661.25,173.021L661.5,186.77L661.75,185.104L662,146.092L662.25,137.37L662.5,159.697L662.75,156.699L663,181.703L663.25,165.973L663.5,169.352L663.75,121.906L664,92.277L664.25,94.09L664.5,159.656L664.75,151.953L665,127.16L665.25,130.573L665.5,77.352L665.75,111.695L666,120.214L666.25,96.599L666.5,112.533L666.75,113.256L667,169.658L667.25,140.707L667.5,110.304L667.75,102.065L668,97.681L668.25,105.543L668.5,141.216L668.75,144.8L669,187.637L669.25,185.234L669.5,159.096L669.75,181.025L670,164.339L670.25,161.994L670.5,138.762L670.75,145.548L671,151.28L671.25,167.378L671.5,151.785L671.75,127.971L672,127.52L672.25,109.62L672.5,78.637L672.75,103.233L673,81.495L673.25,73.536L673.5,75.374L673.75,102.435L674,169.716L674.25,125.978L674.5,130.775L674.75,113.924L675,138.699L675.25,146.3L675.5,114.506L675.75,108.627L676,90.292L676.25,86.564L676.5,87.967L676.75,104.097L677,107.78L677.25,89.324L677.5,70.194L677.75,83.945L678,46.419L678.25,98.105L678.5,94.981L678.75,90.896L679,77.42L679.25,64.865L679.5,57.665L679.75,53.444L680,39.096L680.25,67.345L680.5,40.817L680.75,56.914L681,86.631L681.25,66.634L681.5,82.099L681.75,89.657L682,91.748L682.25,88.136L682.5,69.976L682.75,73.663L683,91.155L683.25,98.35L683.5,96.177L683.75,99.422L684,90.214L684.25,87.034L684.5,85.207L684.75,94.977L685,58.673L685.25,97.201L685.5,72.845L685.75,61.727L686,40.814L686.25,56.586L686.5,83.76L686.75,66.51L687,74.557L687.25,75.658L687.5,82.203L687.75,79.988L688,110.858L688.25,85.762L688.5,86.653L688.75,89.449L689,60.456L689.25,66.588L689.5,66.098L689.75,58.761L690,67.275L690.25,58.945L690.5,106.354L690.75,79.408L691,67.944L691.25,71.816L691.5,87.474L691.75,87.061L692,78.408L692.25,74.524L692.5,82.511L692.75,66.215L693,74.24L693.25,120.424L693.5,91.238L693.75,87.68L694,94.153L694.25,87.497L694.5,69.902L694.75,68.283L695,89.747L695.25,99.392L695.5,96.275L695.75,71.177L696,86.746L696.25,51.009L696.5,78.966L696.75,80.556L697,69.931L697.25,58.781L697.5,61.348L697.75,81.87L698,94.364L698.25,100.763L698.5,109.519L698.75,74.792L699,93.42L699.25,81.702L699.5,81.852L699.75,86.804L700,96.076L700.25,114.572L700.5,85.482L700.75,77.981L701,75.875L701.25,121.941L701.5,122.188L701.75,117.565L702,121.216L702.25,112.149L702.5,115.584L702.75,93.081L703,96.456L703.25,93.916L703.5,76.765L703.75,66.781L704,63.265L704.25,61.564L704.5,98.055L704.75,74.031L705,36.077L705.25,42.485L705.5,47.49L705.75,51.209L706,37.618L706.25,54.282L706.5,52.892L706.75,122.037L707,98.596L707.25,114.683L707.5,112.88L707.75,109.874L708,89.002L708.25,88.979L708.5,91.917L708.75,88.434L709,124.747L709.25,94.411L709.5,91.561L709.75,89.143L710,134.235L710.25,130.989L710.5,128.184L710.75,112.807L711,123.911L711.25,118.976L711.5,135.92L711.75,112.505L712,115.36L712.25,110.32L712.5,100.647L712.75,88.833L713,115.421L713.25,169.295L713.5,167.077L713.75,155.344L714,152.303L714.25,171.705L714.5,202.541L714.75,192.747L715,167.716L715.25,201.762L715.5,184.611L715.75,164.041L716,187.104L716.25,175.674L716.5,162.947L716.75,194.5L717,185.491L717.25,187.434L717.5,193.181L717.75,226.634L718,212.916L718.25,199.954L718.5,207.224L718.75,174.772L719,171.819L719.25,200.936L719.5,175.02L719.75,180.145L720,211.099L720.25,178.269L720.5,193.446L720.75,223.582L721,191.904L721.25,136.099L721.5,161.388L721.75,168.574L722,150.634L722.25,141.708L722.5,180.801L722.75,163.993L723,171.617L723.25,159.218L723.5,141.426L723.75,129.276L724,189.364L724.25,216.01L724.5,235.316L724.75,208.709L725,224.987L725.25,217.395L725.5,206.313L725.75,227.005L726,207.457L726.25,230.478L726.5,208.979L726.75,190.27L727,202.79L727.25,182.313L727.5,174.037L727.75,211.331L728,193.61L728.25,211.767L728.5,224.025L728.75,251.967L729,256.62L729.25,311.244L729.5,290.961L729.75,270.601L730,268.058L730.25,274.628L730.5,283.101L730.75,312.812L731,302.87L731.25,266.7L731.5,283.471L731.75,285.271L732,262.169L732.25,224.843L732.5,214.631L732.75,209.067L733,157.642L733.25,143.727L733.5,254.299L733.75,268.575L734,247.596L734.25,242.788L734.5,244.377L734.75,262.026L735,227.618L735.25,205.142L735.5,185.695L735.75,200.501L736,158.362L736.25,209.009L736.5,235.5L736.75,193.912L737,170.68L737.25,177.489L737.5,189.535L737.75,231.753L738,235.53L738.25,200.248L738.5,208.825L738.75,256.304L739,199.543L739.25,213.305L739.5,281.887L739.75,263.448L740,260.326L740.25,266.235L740.5,243.578L740.75,251.261L741,251.074L741.25,254.196L741.5,209.729L741.75,190.678L742,177.835L742.25,212.898L742.5,210.233L742.75,205.992L743,140.799L743.25,112.007L743.5,215.812L743.75,199.712L744,193.704L744.25,170.12L744.5,178.575L744.75,170.87L745,135.895L745.25,147.871L745.5,191.947L745.75,182.057L746,189.414L746.25,187.398L746.5,201.354L746.75,207.073L747,222.517L747.25,214.963L747.5,195.663L747.75,206.368L748,205.165L748.25,187.733L748.5,216.548L748.75,175.11L749,175.923L749.25,203.825L749.5,187.883L749.75,145.932L750,191.105L750.25,208.64L750.5,203.967L750.75,186.951L751,190.484L751.25,210.47L751.5,193.694L751.75,163.958L752,157.523L752.25,167.258L752.5,162.293L752.75,179.146L753,153.59L753.25,219.283L753.5,192.709L753.75,200.129L754,209.448L754.25,203.129L754.5,216.243L754.75,191.406L755,200.601L755.25,203.746L755.5,179.142L755.75,122.968L756,112.169L756.25,195.272L756.5,191.894L756.75,210.596L757,212.151L757.25,184.726L757.5,208.397L757.75,160.615L758,137.58L758.25,153.803L758.5,141.208L758.75,133.843L759,129.425L759.25,154.844L759.5,119.602L759.75,158.878L760,177.585L760.25,140.518L760.5,92.862L760.75,65.555L761,68.416L761.25,113.87L761.5,102.057L761.75,90.254L762,118.625L762.25,102.877L762.5,82.016L762.75,85.539L763,123.166L763.25,174.85L763.5,174.725L763.75,123.281L764,84.45L764.25,122.486L764.5,103.676L764.75,110.738L765,115.835L765.25,122.688L765.5,160.957L765.75,139.364L766,123.443L766.25,90.377L766.5,74.46L766.75,59.009L767,52.646L767.25,46.837L767.5,36.132L767.75,84.355L768,62.101L768.25,57.201L768.5,98.891L768.75,110.22L769,100.781L769.25,81.141L769.5,110.768L769.75,96.559L770,79.066L770.25,102.658L770.5,75.704L770.75,112.086L771,119.726L771.25,95.667L771.5,89.865L771.75,78.99L772,55.928L772.25,57.46L772.5,44.7L772.75,44.801L773,93.56L773.25,105.384L773.5,124.472L773.75,130.137L774,90.036L774.25,89.523L774.5,94.186L774.75,81.774L775,93.666L775.25,63.169L775.5,39.784L775.75,46.694L776,42.526L776.25,73.98L776.5,62.655L776.75,36.461L777,56.558L777.25,104.162L777.5,76.885L777.75,59.356L778,58.448L778.25,66.23L778.5,59.431L778.75,66.812L779,50.125L779.25,78.534L779.5,51.288L779.75,46.077L780,89.151L780.25,89.391L780.5,65.76L780.75,98.018L781,95.064L781.25,93.837L781.5,77.23L781.75,65.813L782,50.183L782.25,88.397L782.5,84.646L782.75,84.107L783,75.286L783.25,82.289L783.5,84.242L783.75,73.864L784,78.453L784.25,64.67L784.5,45.352L784.75,36.034L785,85.223L785.25,72.179L785.5,65.539L785.75,62.333L786,73.661L786.25,59.941L786.5,65.746L786.75,56.794L787,51.702L787.25,64.806L787.5,64.032L787.75,69.19L788,98.015L788.25,69.078L788.5,96.884L788.75,92.105L789,82.803L789.25,93.973L789.5,107.38L789.75,67.077L790,48.866L790.25,44.938L790.5,58.747L790.75,97.819L791,105.241L791.25,65.342L791.5,70.482L791.75,54.553L792,61.264L792.25,60.141L792.5,49.003L792.75,102.018L793,111.424L793.25,112.966L793.5,116.179L793.75,107.37L794,96.659L794.25,88.878L794.5,95.047L794.75,63.397L795,84.808L795.25,64.346L795.5,55.024L795.75,101.811L796,100.69L796.25,49.64L796.5,79.144L796.75,129.52L797,102.744L797.25,104.744L797.5,71.643L797.75,120.115L798,123.425L798.25,146.692L798.5,146.31L798.75,131.351L799,107.431L799.25,134.877L799.5,64.678L799.75,88.356L800,127.787L800.25,118.252L800.5,128.714L800.75,82.047L801,70.717L801.25,92.242L801.5,167.526L801.75,199.14L802,174.791L802.25,152.113L802.5,184.219L802.75,134.444L803,165.605L803.25,152.531L803.5,166.561L803.75,181.176L804,164.075L804.25,131.277L804.5,155.621L804.75,170.278L805,159.471L805.25,163.875L805.5,154.294L805.75,176.741L806,160.431L806.25,126.158L806.5,157.587L806.75,164.403L807,174.097L807.25,179.118L807.5,166.537L807.75,176.654L808,181.361L808.25,199.578L808.5,195.897L808.75,197.752L809,223.299L809.25,202.284L809.5,218.934L809.75,241.56L810,215.31L810.25,212.821L810.5,204.372L810.75,213.806L811,201.32L811.25,221.776L811.5,207.856L811.75,208.426L812,199.282L812.25,173.229L812.5,185.567L812.75,195.718L813,219.091L813.25,251.743L813.5,236.663L813.75,201.992L814,204.488L814.25,188.681L814.5,193.916L814.75,201.201L815,223.962L815.25,218.377L815.5,222.768L815.75,247.656L816,225.505L816.25,218.611L816.5,221.953L816.75,210.715L817,197.655L817.25,182.739L817.5,208.643L817.75,179.087L818,167.52L818.25,192.467L818.5,199.85L818.75,177.116L819,175.587L819.25,218.093L819.5,226.424L819.75,211.046L820,228.338L820.25,187.199L820.5,180.241L820.75,161.706L821,172.925L821.25,228.139L821.5,221.8L821.75,197.859L822,222.358L822.25,228.977L822.5,203.901L822.75,179.063L823,167.491L823.25,199.832L823.5,168.766L823.75,185.417L824,263.799L824.25,248.931L824.5,232.993L824.75,220.369L825,225.446L825.25,242.46L825.5,229.244L825.75,221.068L826,216.967L826.25,233.393L826.5,241.75L826.75,272.641L827,267.286L827.25,222.837L827.5,208.811L827.75,266.218L828,302.174L828.25,284.069L828.5,285.362L828.75,219.945L829,290.576L829.25,359.38L829.5,306.829L829.75,251.623L830,196.976L830.25,173.478L830.5,173.921L830.75,220.742L831,207.023L831.25,198.927L831.5,284.067L831.75,236.208L832,224.533L832.25,225.723L832.5,230.627L832.75,234.217L833,183.368L833.25,226.364L833.5,232.614L833.75,237.847L834,224.399L834.25,216.692L834.5,203.991L834.75,216.864L835,195.39L835.25,157.985L835.5,173.807L835.75,251.897L836,234.464L836.25,232.902L836.5,235.578L836.75,232.257L837,222.51L837.25,239.87L837.5,280.915L837.75,255.842L838,233.99L838.25,235.475L838.5,215.445L838.75,203.588L839,205.665L839.25,196.386L839.5,178.12L839.75,141.938L840,142.827L840.25,200.112L840.5,194.638L840.75,195.626L841,194.974L841.25,176.27L841.5,181.65L841.75,184.911L842,190.505L842.25,168.85L842.5,182.345L842.75,194.69L843,175.624L843.25,150.625L843.5,124.938L843.75,149.508L844,186.896L844.25,199.186L844.5,177.177L844.75,148.227L845,151.532L845.25,179.794L845.5,144.608L845.75,118.768L846,131.211L846.25,103.325L846.5,121.807L846.75,200.368L847,155.934L847.25,164.624L847.5,170.716L847.75,206.256L848,163.701L848.25,108.399L848.5,93.788L848.75,134.97L849,163.594L849.25,135.192L849.5,82.868L849.75,86.523L850,134.093L850.25,121.19L850.5,114.41L850.75,137.728L851,171.301L851.25,160.357L851.5,172.495L851.75,178.13L852,152.18L852.25,185.091L852.5,156.588L852.75,128.358L853,112.102L853.25,113.101L853.5,182.636L853.75,119.807L854,131.12L854.25,155.736L854.5,171.503L854.75,164.135L855,144.47L855.25,119.994L855.5,103.953L855.75,98.24L856,128.09L856.25,85.673L856.5,106.567L856.75,150.742L857,161.316L857.25,83.409L857.5,100.34L857.75,94.944L858,79.684L858.25,96.064L858.5,107.763L858.75,121.336L859,100.425L859.25,92.049L859.5,90.823L859.75,75.339L860,116.343L860.25,126.453L860.5,84.732L860.75,77.943L861,111.074L861.25,95.36L861.5,94.28L861.75,105.432L862,98.747L862.25,78.02L862.5,111.963L862.75,121.746L863,89.686L863.25,114.321L863.5,148.131L863.75,122.771L864,91.52L864.25,114.799L864.5,110.381L864.75,106.95L865,78.004L865.25,81.695L865.5,96.022L865.75,82.735L866,57.045L866.25,60.02L866.5,54.633L866.75,66.003L867,48.189L867.25,61.042L867.5,62.41L867.75,67.423L868,50.35L868.25,52.938L868.5,79.768L868.75,96.979L869,79.97L869.25,70.683L869.5,34.921L869.75,75.11L870,69.83L870.25,48.447L870.5,54.755L870.75,48.953L871,78.008L871.25,53.855L871.5,65.521L871.75,53.487L872,40.82L872.25,90.995L872.5,102.352L872.75,84.01L873,77.858L873.25,72.301L873.5,74.063L873.75,58.177L874,68.065L874.25,89.881L874.5,91.149L874.75,95.23L875,86.886L875.25,71.585L875.5,52.673L875.75,61.864L876,62.269L876.25,70.695L876.5,68.436L876.75,69.663L877,71.694L877.25,62.924L877.5,79.176L877.75,73.713L878,82.675L878.25,76.785L878.5,99.57L878.75,86.875L879,97.842L879.25,73.579L879.5,71.018L879.75,86.666L880,76.744L880.25,96.386L880.5,99.26L880.75,100.515L881,92.871L881.25,91.688L881.5,95.415L881.75,106.398L882,74.235L882.25,116.279L882.5,115.736L882.75,104.64L883,82.794L883.25,84.805L883.5,118.021L883.75,104.575L884,111.997L884.25,95.162L884.5,129.49L884.75,104.459L885,59.021L885.25,66.876L885.5,92.884L885.75,98.993L886,89.115L886.25,97.593L886.5,101.158L886.75,93.166L887,86.765L887.25,83.429L887.5,62.696L887.75,90.653L888,98.215L888.25,104.169L888.5,93.183L888.75,102.806L889,114.599L889.25,117.873L889.5,107.878L889.75,130.077L890,72.186L890.25,69.555L890.5,130.268L890.75,132.604L891,157.495L891.25,137.341L891.5,124.859L891.75,125.012L892,105.917L892.25,114.377L892.5,117.111L892.75,119.715L893,158.414L893.25,161.961L893.5,156.566L893.75,122.138L894,169.073L894.25,160.154L894.5,146.289L894.75,113.199L895,131.128L895.25,119.437L895.5,181.254L895.75,156.717L896,177.609L896.25,172.322L896.5,179.463L896.75,142.475L897,171.104L897.25,193.798L897.5,193.645L897.75,211.083L898,196.656L898.25,185.102L898.5,177.744L898.75,174.132L899,208.556L899.25,154.351L899.5,230.427L899.75,232.212L900,201.414L900.25,200.171L900.5,229.708L900.75,269.346L901,237.038L901.25,237.73L901.5,203.615L901.75,206.55L902,204.356L902.25,204.547L902.5,198.563L902.75,183.716L903,157.195L903.25,212.221L903.5,205.75L903.75,180.977L904,162.33L904.25,171.457L904.5,155.223L904.75,224.216L905,201.001L905.25,198.372L905.5,187.141L905.75,222.557L906,196.923L906.25,190.808L906.5,196.499L906.75,201.511L907,206.937L907.25,178.176L907.5,182.055L907.75,249.136L908,245.867L908.25,181.893L908.5,182.162L908.75,206.911L909,242.735L909.25,222.532L909.5,231.614L909.75,245.48L910,217.314L910.25,206.07L910.5,186.169L910.75,171.375L911,169.242L911.25,166.865L911.5,149.468L911.75,146.475L912,201.873L912.25,156.361L912.5,145.475L912.75,177.066L913,226.211" stroke="#4c78a8" stroke-width="2"/></g></g><path class="foreground" aria-hidden="true" d="" display="none"/></g></g></g></svg>