<svg xmlns="http://www.w3.org/2000/svg" version="1.1" xmlns:xlink="http://www.w3.org/1999/xlink" xmlns:svgjs="http://svgjs.dev/svgjs" width="950" height="375" id="chartSvg"><path d="M34,189 L34,190 L33,190 L34,187 L36,181 L40,171 L43,162 L44,158 L45,156 L46,153 L47,149 L48,147 L48,146 L49,146 L50,147 L51,149 L52,151 L53,156 L54,165 L55,176 L57,187 L59,196 L61,204 L64,213 L66,222 L68,230 L69,237 L70,243 L71,249 L72,254 L72,259 L73,261 L73,262 L74,262 L74,261 L75,259 L76,254 L78,246 L78,237 L80,226 L83,215 L87,203 L90,191 L94,180 L98,170 L102,161 L105,153 L107,146 L110,139 L112,132 L114,127 L115,124 L116,122 L116,121 L117,119 L117,117 L118,115 L119,113 L121,110 L122,108 L123,104 L124,100 L126,95 L127,90 L128,88 L129,88 L130,88 L132,90 L134,94 L136,102 L138,114 L140,129 L141,144 L144,161 L146,178 L147,192 L149,205 L151,214 L153,222 L154,229 L154,234 L154,237 L155,239 L155,242 L155,244 L156,245 L156,247 L156,249 L157,251 L157,252 L158,254 L158,255 L158,256 L159,259 L160,260 L160,262 L161,265 L162,269 L162,274 L163,278 L164,282 L165,288 L166,294 L168,300 L168,302 L169,301 L169,300 L169,298 L170,293 L171,286 L174,278 L178,272 L183,264 L187,254 L192,244 L197,234 L199,228 L200,222 L201,217 L202,212 L202,210 L202,208 L202,207 L203,208 L204,210 L205,212 L206,215 L208,220 L209,223 L210,225 L211,225 L212,224 L212,223 L213,220 L215,213 L217,204 L219,195 L220,187 L222,180 L224,170 L226,160 L229,150 L232,140 L233,132 L235,125 L236,119 L238,113 L239,110 L241,107 L242,106 L243,107 L244,111 L246,116 L247,122 L249,128 L251,136 L252,147 L253,159 L253,170 L254,180 L254,188 L254,195 L254,202 L254,207 L255,210 L256,209 L256,207 L257,203 L258,198 L259,191 L261,183 L263,175 L266,167 L268,160 L271,154 L273,149 L274,149 L274,151 L274,154 L275,159 L276,165 L277,173 L280,182 L283,190 L286,195 L289,198 L292,199 L295,198 L298,193 L302,185 L305,176 L308,168 L311,162 L314,156 L317,151 L322,145 L327,139 L331,136 L335,136 L339,136 L342,136 L344,136 L347,139 L349,142 L351,147 L354,153 L357,158 L359,162 L361,163 L363,164 L364,163 L366,162 L368,160 L369,157 L371,154 L371,153 L371,154 L371,156 L372,159 L373,166 L373,176 L373,189 L373,200 L373,211 L373,222 L374,234 L374,246 L374,257 L375,266 L377,275 L379,283 L379,289 L380,294 L381,296 L382,297 L383,297 L385,295 L386,292 L389,287 L393,278 L398,266 L403,251 L409,235 L415,220 L421,205 L427,191 L433,179 L438,169 L442,162 L445,157 L447,155 L448,155 L449,155 L450,156 L452,159 L452,163 L453,170 L453,178 L452,188 L451,198 L452,207 L453,215 L454,222 L454,227 L455,229 L456,229 L457,229 L458,229 L459,228 L459,227 L460,227 L461,230 L462,236 L464,243 L464,249 L465,253 L466,255 L468,255 L470,254 L472,250 L475,244 L479,238 L481,235 L482,236 L482,240 L482,248 L482,256 L482,263 L482,266 L483,267 L484,265 L486,259 L488,249 L492,234 L498,216 L503,198 L509,180 L513,164 L518,149 L522,137 L525,127 L529,119 L532,113 L534,109 L536,106 L537,103 L539,101 L540,99 L540,100 L542,102 L544,107 L545,114 L546,123 L547,134 L549,144 L552,152 L555,161 L557,170 L559,179 L560,189 L561,196 L561,200 L562,202 L563,202 L564,200 L566,193 L569,183 L573,172 L577,163 L580,156 L582,152 L583,149 L584,146 L584,147 L584,152 L585,158 L585,167 L586,179 L586,190 L587,200 L589,210 L591,216 L593,219 L596,219 L599,215 L604,210 L608,204 L613,199 L617,196 L621,195 L623,195 L626,196 L628,199 L631,202 L633,208 L633,216 L635,222 L637,225 L640,225 L643,223 L648,219 L652,212 L656,206 L660,199 L664,193 L668,190 L671,189 L674,188 L677,189 L679,191 L681,194 L682,199 L682,204 L682,209 L682,212 L682,213 L682,212 L683,210 L685,205 L688,197 L690,188 L692,183 L692,184 L693,186 L694,189 L696,195 L697,202 L699,210 L701,217 L703,222 L705,226 L706,230 L707,234 L708,236 L708,235 L708,232 L709,227 L710,220 L713,210 L716,200 L719,192 L722,184 L725,175 L728,165 L731,156 L735,146 L739,138 L742,130 L744,122 L746,114 L748,107 L750,101 L751,95 L753,90 L754,85 L755,79 L756,73 L757,68 L758,64 L758,61 L759,57 L760,52 L762,48 L763,44 L764,40 L765,37 L765,35 L766,32 L767,29 L768,26 L769,25 L770,24 L770,22 L770,20 L770,19 L771,17 L772,14 L774,11 L775,9 L776,7 L777,6 L777,5 L777,6 L777,7 L779,8 L780,10 L782,12 L783,13 L785,15 L788,17 L790,19 L792,22 L793,26 L794,29 L796,32 L797,35 L799,38 L800,40 L801,43 L802,44 L802,45 L803,46 L803,45 L803,44 L804,42 L805,39 L807,34 L809,31 L810,29 L809,29 L809,31 L809,34 L809,40 L809,47 L810,54 L811,58 L813,61 L815,63 L816,65 L818,66 L819,66 L820,65 L821,64 L821,66 L822,68 L823,71 L823,73 L823,75 L824,76 L824,75 L824,74 L824,73 L824,72 L824,71 L823,71 L823,72 L823,73 L823,74 L823,76 L822,78 L821,83 L821,88 L820,94 L819,100 L819,105 L819,111 L819,114 L819,117 L818,124 L817,132 L816,140 L816,148 L815,156 L815,162 L815,168 L815,174 L815,179 L816,181 L816,182 L817,182 L819,180 L820,177 L822,173 L824,169 L826,163 L829,156 L831,151 L833,148 L833,149 L834,150 L835,152 L835,154 L836,156 L837,160 L839,166 L843,171 L846,173 L849,172 L851,170 L853,168 L854,166 L855,163 L857,159 L860,157 L861,156 L862,156 L863,158 L864,162 L866,165 L867,167 L869,168 L871,166 L873,164 L876,161 L880,157 L884,153 L889,148 L893,144 L896,143 L898,141 L901,141 L904,142 L908,143 L913,143 L919,143 L926,143 L932,143 L939,142 L945,141 L948,140" fill="none" stroke="red" stroke-width="3"/></svg>