<svg xmlns="http://www.w3.org/2000/svg" xmlns:xlink="http://www.w3.org/1999/xlink" version="1.1" class="marks" width="1012" height="385" viewBox="0 0 1012 385"><rect width="1012" height="385" fill="white"/><rect width="1012" height="385" fill="white"/><path d="M8,215 L8,212 L8,207 L9,202 L9,198 L10,193 L11,188 L12,184 L14,180 L15,176 L16,173 L16,170 L17,168 L17,165 L18,161 L19,156 L20,153 L21,150 L21,149 L21,147 L22,145 L22,144 L22,143 L22,142 L22,143 L22,144 L22,146 L22,148 L22,150 L22,153 L22,155 L22,157 L22,159 L22,161 L22,163 L22,164 L22,165 L22,166 L22,168 L22,171 L22,173 L22,176 L22,178 L22,179 L22,181 L22,184 L22,186 L22,188 L22,190 L22,191 L22,193 L22,195 L22,198 L22,200 L23,203 L23,205 L23,208 L23,211 L23,215 L22,218 L22,220 L22,223 L22,227 L22,231 L22,235 L22,238 L22,241 L22,244 L22,248 L22,251 L22,254 L22,257 L22,260 L22,263 L22,266 L22,269 L21,272 L21,275 L21,277 L21,278 L21,280 L21,281 L21,282 L20,283 L20,282 L21,280 L21,278 L22,275 L23,271 L24,266 L24,263 L24,261 L25,261 L26,259 L27,256 L28,252 L29,249 L31,246 L31,244 L32,243 L32,242 L32,243 L32,244 L32,245 L33,248 L33,251 L33,254 L34,257 L34,261 L34,264 L35,265 L35,266 L36,265 L36,264 L37,263 L37,261 L38,260 L38,259 L39,257 L39,255 L39,254 L40,254 L40,252 L41,251 L42,249 L42,247 L43,245 L44,243 L44,241 L45,239 L45,238 L45,239 L46,240 L46,242 L46,244 L47,247 L48,249 L48,251 L48,254 L49,257 L49,259 L49,261 L50,264 L50,266 L50,268 L51,270 L51,273 L52,275 L53,277 L53,276 L53,275 L53,273 L53,271 L53,268 L54,264 L54,259 L54,256 L54,253 L55,249 L55,245 L56,240 L56,237 L56,234 L57,231 L57,226 L58,221 L59,215 L60,210 L60,207 L61,203 L61,198 L62,192 L63,187 L65,182 L66,178 L66,173 L66,168 L68,162 L68,156 L69,152 L70,148 L71,142 L73,136 L75,129 L75,125 L75,122 L75,120 L76,116 L77,112 L78,109 L78,107 L79,109 L79,112 L79,117 L79,124 L79,130 L78,135 L78,139 L78,141 L78,144 L78,146 L78,149 L78,150 L78,151 L78,153 L78,154 L78,153 L78,152 L78,151 L78,150 L78,149 L79,148 L80,147 L81,146 L82,145 L82,144 L83,144 L83,143 L84,142 L84,140 L85,138 L85,135 L86,133 L87,132 L87,131 L88,129 L89,127 L90,125 L90,124 L91,122 L92,121 L92,120 L93,119 L93,120 L94,121 L94,124 L94,127 L94,129 L94,132 L94,135 L94,137 L94,140 L94,142 L94,145 L94,147 L94,149 L94,152 L94,154 L94,156 L94,158 L94,161 L94,163 L94,166 L94,168 L93,170 L93,172 L92,174 L92,177 L92,179 L92,181 L92,183 L92,184 L92,186 L92,188 L92,189 L92,190 L92,191 L92,192 L92,193 L92,194 L92,195 L92,198 L92,201 L92,205 L93,208 L93,211 L93,213 L94,215 L94,217 L94,221 L94,224 L94,226 L94,227 L94,229 L94,231 L94,233 L94,235 L94,236 L94,235 L95,235 L95,234 L96,234 L97,235 L97,236 L97,237 L97,238 L97,239 L97,240 L97,241 L97,242 L97,243 L97,244 L97,245 L97,246 L98,246 L99,245 L100,245 L100,244 L101,244 L102,243 L103,242 L104,241 L104,240 L105,239 L105,240 L105,242 L106,243 L106,245 L106,246 L106,248 L106,249 L106,251 L106,253 L106,254 L106,256 L106,257 L106,259 L106,261 L106,262 L107,263 L107,264 L107,266 L107,268 L108,269 L108,270 L108,271 L108,272 L108,274 L108,275 L108,276 L108,277 L107,278 L107,277 L107,276 L107,275 L107,274 L108,272 L108,269 L109,266 L110,264 L110,263 L110,261 L111,257 L112,253 L112,250 L113,247 L114,244 L114,241 L115,237 L116,232 L116,227 L117,223 L118,220 L119,217 L119,214 L120,211 L121,209 L122,207 L122,204 L123,202 L123,200 L124,198 L124,199 L124,201 L124,203 L124,206 L124,209 L125,212 L125,215 L125,218 L124,221 L124,224 L124,226 L124,228 L124,229 L124,232 L124,234 L123,235 L123,237 L123,238 L123,239 L123,240 L123,241 L123,242 L123,243 L123,244 L122,244 L122,245 L122,246 L123,245 L124,244 L125,242 L126,242 L127,241 L127,240 L127,239 L128,239 L129,238 L130,237 L131,236 L132,235 L132,234 L133,234 L134,234 L134,235 L135,236 L135,237 L135,238 L136,239 L136,240 L136,241 L136,240 L136,236 L137,230 L138,226 L139,223 L139,221 L141,217 L142,212 L143,207 L143,203 L143,201 L143,199 L144,195 L144,192 L144,189 L145,186 L145,184 L145,181 L145,178 L145,175 L145,171 L146,168 L146,167 L146,166 L146,165 L146,163 L147,161 L147,159 L147,158 L148,157 L148,155 L148,154 L149,153 L149,154 L149,155 L149,156 L150,158 L151,161 L152,164 L152,166 L152,167 L153,169 L153,171 L153,173 L153,174 L153,175 L153,174 L153,172 L153,168 L154,165 L154,163 L155,161 L155,159 L156,156 L157,153 L158,150 L159,148 L159,146 L160,145 L160,143 L161,139 L161,136 L162,134 L162,132 L162,131 L163,129 L163,126 L163,122 L164,119 L164,117 L164,116 L164,114 L165,111 L165,109 L166,107 L166,106 L166,105 L166,103 L167,100 L167,99 L167,98 L167,99 L168,100 L169,103 L170,107 L171,112 L171,117 L171,122 L171,127 L171,132 L171,138 L171,144 L171,149 L171,154 L171,157 L171,161 L171,164 L171,168 L171,172 L171,176 L170,180 L170,185 L170,189 L169,193 L169,197 L169,201 L168,204 L168,208 L168,211 L168,214 L168,215 L168,216 L168,217 L168,218 L168,219 L168,220 L168,222 L168,224 L168,227 L169,229 L169,232 L169,236 L170,239 L170,242 L171,244 L171,246 L171,248 L171,250 L171,253 L171,256 L171,258 L171,260 L171,262 L171,265 L171,268 L171,271 L172,273 L172,275 L172,276 L172,277 L173,276 L174,274 L176,271 L178,267 L180,265 L181,264 L181,265 L182,266 L183,268 L183,270 L184,273 L185,276 L185,278 L186,281 L186,283 L186,286 L186,290 L186,293 L185,295 L185,296 L185,295 L186,293 L187,290 L188,286 L189,281 L190,277 L192,273 L193,270 L193,266 L195,263 L196,259 L197,254 L199,249 L200,245 L200,239 L201,234 L201,229 L202,226 L203,222 L204,217 L205,212 L205,207 L205,205 L205,204 L205,203 L206,201 L207,199 L208,198 L208,197 L208,196 L209,194 L209,193 L210,193 L209,193 L208,193 L208,194 L208,195 L209,197 L210,202 L212,208 L212,215 L212,220 L211,225 L210,229 L210,232 L210,236 L210,239 L210,242 L210,246 L210,250 L210,252 L209,253 L209,254 L210,254 L210,255 L210,253 L210,250 L212,246 L213,241 L214,235 L216,230 L217,225 L218,222 L219,219 L220,215 L221,211 L222,206 L223,200 L224,197 L225,194 L226,190 L228,185 L230,179 L232,174 L232,173 L232,172 L232,171 L233,168 L234,165 L235,161 L236,161 L236,162 L237,164 L237,168 L238,173 L238,178 L238,182 L237,184 L237,185 L236,187 L236,188 L236,189 L236,188 L236,187 L237,185 L237,184 L238,182 L239,180 L239,177 L240,175 L241,172 L242,169 L243,166 L244,164 L245,162 L246,160 L248,157 L249,154 L250,152 L251,150 L251,149 L251,147 L252,144 L252,141 L253,137 L254,135 L254,133 L254,132 L254,131 L254,129 L255,129 L255,128 L255,129 L256,131 L256,134 L256,139 L256,144 L255,150 L255,154 L254,157 L254,161 L254,163 L254,166 L254,168 L254,170 L254,171 L253,171 L254,169 L256,166 L258,163 L259,161 L260,160 L261,160 L262,159 L263,159 L262,161 L261,163 L260,167 L259,171 L258,174 L257,178 L256,180 L256,183 L256,184 L256,185 L256,187 L256,188 L256,189 L256,190 L256,192 L256,193 L256,194 L256,196 L255,199 L254,202 L254,205 L253,208 L253,211 L252,213 L252,216 L252,219 L251,221 L251,224 L251,226 L251,229 L251,231 L251,234 L251,237 L251,239 L250,243 L249,246 L249,249 L249,253 L249,256 L248,260 L247,264 L246,268 L246,273 L246,277 L246,281 L246,284 L246,288 L246,290 L246,292 L246,293 L246,294 L246,295 L246,294 L246,293 L246,291 L246,288 L248,283 L250,277 L252,271 L254,267 L255,263 L257,259 L259,254 L261,248 L263,244 L264,240 L265,238 L266,235 L269,231 L271,224 L273,218 L275,215 L276,212 L276,210 L278,206 L280,200 L282,193 L283,190 L283,188 L284,186 L285,183 L286,178 L288,173 L288,171 L288,170 L289,167 L290,163 L290,161 L291,160 L291,159 L291,156 L293,153 L294,150 L294,149 L294,148 L294,147 L295,145 L296,141 L297,138 L298,135 L298,134 L298,133 L298,132 L298,131 L299,129 L299,128 L299,129 L299,131 L300,135 L300,139 L300,145 L300,150 L298,155 L298,158 L297,162 L297,165 L297,167 L297,170 L296,173 L295,177 L295,180 L294,182 L294,183 L294,182 L295,180 L298,178 L301,176 L303,174 L304,173 L306,172 L307,171 L307,172 L307,173 L307,175 L307,178 L307,181 L307,184 L307,185 L307,186 L307,188 L307,189 L307,190 L307,191 L307,190 L307,188 L308,184 L309,180 L310,176 L312,173 L313,170 L315,166 L318,162 L320,157 L322,154 L324,151 L326,147 L329,141 L330,135 L332,131 L332,130 L332,129 L332,130 L332,131 L332,132 L333,133 L333,134 L333,136 L334,138 L334,141 L335,144 L335,146 L335,149 L335,151 L335,153 L335,155 L335,156 L335,157 L335,158 L335,160 L335,161 L335,163 L334,165 L334,167 L334,169 L333,171 L333,172 L332,174 L332,176 L332,177 L332,178 L331,180 L331,181 L331,183 L330,184 L330,185 L330,186 L330,187 L330,188 L330,189 L330,188 L330,187 L331,186 L332,186 L333,185 L334,185 L335,185 L336,185 L336,186 L337,187 L337,189 L337,190 L337,192 L338,194 L338,195 L339,195 L339,196 L339,197 L339,198 L339,199 L339,200 L339,201 L339,202 L339,204 L338,205 L338,207 L338,209 L337,211 L337,212 L336,215 L336,216 L336,218 L335,220 L335,222 L334,224 L334,227 L333,228 L333,229 L333,232 L332,234 L331,238 L330,241 L330,243 L330,244 L330,246 L329,247 L329,249 L329,250 L329,251 L329,253 L328,254 L327,257 L326,260 L325,263 L324,264 L324,265 L325,264 L326,261 L329,256 L332,251 L336,247 L339,243 L343,239 L345,235 L347,232 L348,231 L348,230 L349,229 L350,228 L351,227 L352,227 L351,227 L352,228 L352,229 L352,232 L353,234 L353,237 L354,239 L354,242 L354,244 L354,246 L353,249 L352,250 L352,252 L352,254 L351,255 L351,257 L351,258 L350,259 L351,259 L351,260 L351,261 L351,262 L351,261 L352,259 L353,254 L354,248 L356,243 L357,238 L359,232 L361,226 L364,220 L365,215 L367,210 L368,206 L370,201 L373,193 L375,187 L376,183 L376,179 L377,174 L378,169 L379,163 L379,158 L380,153 L380,148 L380,144 L380,140 L381,136 L381,134 L382,131 L382,128 L383,125 L383,123 L383,120 L384,118 L384,116 L384,115 L384,114 L384,112 L385,111 L385,109 L385,107 L385,106 L385,105 L385,104 L385,103 L386,102 L386,101 L386,102 L387,103 L387,104 L387,105 L388,106 L388,107 L388,108 L389,109 L389,110 L390,112 L390,115 L391,117 L391,119 L392,122 L393,123 L393,124 L393,126 L393,127 L393,128 L393,129 L392,130 L392,132 L392,134 L391,136 L391,138 L391,139 L391,140 L391,141 L391,144 L390,146 L390,148 L390,149 L390,150 L390,151 L391,152 L391,153 L391,154 L391,155 L392,156 L392,157 L392,158 L392,159 L393,160 L393,161 L393,162 L394,163 L395,164 L396,165 L396,166 L397,168 L398,170 L398,172 L399,174 L400,176 L400,178 L401,180 L401,182 L401,184 L401,185 L401,188 L402,189 L402,190 L402,192 L402,193 L402,194 L402,196 L401,197 L401,198 L401,199 L401,200 L401,201 L400,202 L400,204 L400,205 L399,205 L399,206 L399,207 L399,208 L400,208 L401,207 L401,206 L403,205 L405,203 L407,201 L408,200 L410,198 L411,197 L414,194 L415,191 L417,189 L417,188 L418,187 L418,188 L418,189 L419,190 L420,193 L421,194 L422,196 L423,198 L424,200 L424,201 L425,203 L425,205 L425,207 L426,209 L426,210 L427,212 L427,214 L427,216 L427,218 L427,221 L428,224 L428,226 L428,228 L429,230 L429,232 L430,234 L430,236 L430,238 L430,241 L430,243 L430,244 L430,246 L430,247 L430,249 L430,251 L429,254 L429,256 L429,258 L428,259 L428,261 L428,262 L427,263 L427,264 L427,265 L427,266 L426,266 L425,268 L424,271 L423,272 L422,274 L420,276 L418,278 L418,279 L418,278 L419,278 L420,278 L421,278 L423,276 L426,275 L428,273 L430,271 L433,268 L435,266 L437,264 L438,263 L439,263 L439,262 L440,261 L442,260 L443,259 L444,258 L445,257 L446,255 L448,253 L450,250 L452,248 L452,246 L453,245 L454,243 L455,241 L456,239 L456,238 L457,237 L457,236 L458,234 L459,232 L459,230 L459,229 L459,228 L459,227 L460,226 L460,225 L461,226 L462,227 L463,229 L464,231 L465,232 L466,234 L466,236 L467,237 L467,239 L467,241 L467,242 L467,243 L468,244 L468,246 L468,247 L468,248 L468,249 L468,251 L468,253 L468,255 L468,257 L468,259 L468,260 L467,262 L467,264 L467,266 L467,267 L467,269 L467,271 L467,273 L467,276 L467,278 L467,281 L467,283 L467,286 L466,288 L466,290 L466,291 L466,293 L465,294 L464,295 L464,294 L464,293 L465,291 L466,286 L468,282 L469,278 L470,274 L471,270 L472,265 L474,261 L474,258 L475,255 L476,251 L477,246 L479,240 L479,235 L480,232 L481,230 L481,228 L482,224 L484,219 L486,214 L486,211 L486,209 L486,207 L486,204 L487,200 L488,196 L489,194 L489,193 L489,192 L489,190 L490,188 L490,187 L490,186 L490,185 L490,183 L490,182 L490,181 L490,180 L490,181 L490,182 L491,183 L491,184 L492,185 L492,187 L493,189 L493,191 L493,193 L493,196 L493,199 L493,202 L493,205 L493,208 L493,211 L492,214 L492,217 L492,221 L492,223 L492,226 L492,228 L492,231 L491,235 L491,239 L490,242 L490,244 L489,245 L489,246 L489,247 L488,249 L488,251 L488,252 L487,253 L487,252 L488,251 L489,249 L490,246 L491,243 L493,239 L496,236 L498,232 L499,230 L501,228 L502,225 L503,222 L503,219 L504,215 L505,213 L506,211 L506,209 L507,207 L508,205 L508,203 L509,202 L509,201 L509,202 L509,203 L509,204 L509,205 L509,207 L509,209 L509,211 L509,212 L509,214 L509,215 L509,216 L509,217 L509,220 L509,222 L510,224 L511,226 L511,228 L511,229 L511,231 L511,232 L511,233 L511,235 L511,237 L511,238 L511,239 L511,240 L511,242 L511,243 L511,246 L510,249 L510,251 L509,254 L509,256 L508,258 L508,260 L508,262 L508,264 L507,266 L507,268 L507,269 L508,270 L508,272 L508,273 L508,275 L509,277 L509,278 L510,279 L510,281 L510,283 L510,284 L510,286 L510,285 L511,285 L512,284 L513,284 L514,284 L515,284 L515,285 L516,285 L517,286 L518,286 L518,287 L519,288 L519,290 L519,291 L519,293 L519,296 L519,298 L519,300 L519,301 L519,303 L519,304 L519,305 L519,306 L519,307 L518,308 L518,309 L518,310 L518,311 L518,312 L519,311 L520,311 L521,310 L522,310 L523,310 L524,310 L525,310 L525,309 L526,308 L527,308 L528,306 L528,304 L529,302 L530,300 L531,298 L532,296 L533,293 L534,291 L535,288 L535,285 L535,283 L535,280 L537,277 L538,274 L539,271 L540,269 L540,267 L541,265 L542,262 L543,259 L544,256 L545,253 L545,250 L545,248 L547,245 L548,242 L549,239 L550,236 L550,234 L550,232 L550,230 L551,227 L552,224 L553,221 L554,219 L555,217 L556,214 L557,211 L558,209 L559,207 L559,206 L559,205 L559,206 L559,207 L560,209 L561,212 L562,214 L563,217 L564,219 L565,221 L565,223 L566,226 L567,228 L567,229 L567,230 L567,229 L567,228 L568,228 L568,227 L569,227 L570,226 L571,225 L572,224 L573,224 L574,223 L574,222 L575,222 L575,221 L576,221 L576,220 L577,220 L577,219 L577,218 L578,217 L579,216 L579,215 L580,214 L581,214 L581,213 L582,212 L583,210 L583,209 L584,207 L584,206 L584,205 L585,203 L585,202 L586,201 L586,200 L587,199 L587,198 L588,197 L588,196 L589,195 L589,194 L589,195 L590,195 L591,195 L591,196 L591,197 L591,198 L592,199 L592,200 L593,200 L593,201 L594,201 L594,200 L594,199 L595,198 L596,197 L596,195 L597,194 L599,193 L600,191 L601,189 L602,188 L603,187 L604,186 L604,185 L605,184 L606,183 L607,182 L607,181 L607,182 L608,182 L608,183 L609,184 L610,186 L611,187 L612,188 L613,189 L613,190 L614,190 L614,191 L615,191 L615,192 L616,192 L616,193 L616,194 L617,195 L618,196 L618,197 L619,197 L620,198 L621,198 L621,199 L621,200 L621,201 L620,202 L619,203 L618,205 L618,207 L617,208 L616,209 L616,210 L616,211 L616,212 L615,213 L615,214 L615,215 L614,216 L614,217 L614,218 L614,220 L613,221 L613,223 L613,224 L613,225 L613,226 L613,227 L612,229 L612,231 L611,233 L611,235 L611,237 L610,239 L610,240 L610,241 L610,242 L610,243 L610,244 L611,244 L612,243 L613,242 L616,239 L618,236 L619,234 L620,234 L621,233 L623,232 L625,230 L626,229 L628,228 L628,227 L628,228 L628,229 L628,230 L628,231 L627,233 L627,235 L626,237 L626,239 L626,240 L626,241 L626,242 L626,243 L625,244 L625,245 L625,246 L625,247 L624,248 L624,249 L624,250 L624,251 L623,253 L623,255 L623,256 L623,258 L623,260 L622,261 L622,263 L622,264 L622,265 L622,266 L622,268 L622,269 L622,270 L622,271 L622,273 L622,274 L622,276 L621,277 L621,278 L621,280 L621,281 L621,283 L620,284 L620,285 L620,286 L620,287 L620,288 L621,289 L621,290 L622,291 L622,292 L622,293 L622,294 L622,295 L622,297 L622,298 L622,299 L623,299 L623,300 L624,299 L625,297 L626,295 L626,292 L627,290 L627,287 L628,284 L629,281 L630,278 L631,276 L632,274 L633,272 L634,270 L635,267 L636,264 L637,262 L638,260 L638,259 L639,257 L640,255 L641,253 L642,251 L642,250 L643,249 L643,248 L644,246 L645,245 L645,246 L645,247 L645,248 L645,250 L646,252 L646,254 L647,256 L647,258 L647,259 L647,261 L648,262 L648,264 L648,265 L648,266 L648,268 L649,269 L649,270 L649,272 L649,273 L649,275 L649,276 L649,278 L649,280 L648,281 L648,283 L648,285 L648,286 L648,288 L648,290 L648,291 L648,293 L648,294 L648,296 L648,298 L648,299 L648,300 L648,302 L648,304 L648,305 L648,306 L648,307 L648,308 L649,308 L649,309 L650,309 L651,310 L652,310 L654,310 L655,310 L657,310 L658,310 L659,310 L660,310 L659,310 L659,309 L660,308 L660,307 L660,306 L660,305 L661,305 L661,304 L662,303 L662,302 L662,301 L662,300 L663,299 L663,298 L664,298 L664,297 L665,296 L665,295 L665,294 L665,293 L666,291 L667,289 L667,288 L667,286 L668,285 L668,283 L669,282 L670,281 L670,279 L670,278 L670,277 L670,276 L671,273 L671,271 L672,269 L672,268 L672,266 L672,265 L673,264 L674,261 L674,259 L674,257 L675,255 L675,254 L676,251 L677,249 L678,246 L679,243 L679,241 L679,240 L680,238 L681,237 L682,234 L683,232 L684,229 L684,228 L685,227 L685,226 L686,226 L686,225 L687,226 L688,227 L689,229 L690,230 L691,232 L692,234 L693,236 L694,237 L694,238 L694,239 L695,239 L696,238 L696,237 L698,234 L699,232 L700,230 L701,229 L701,227 L702,226 L703,224 L704,221 L705,219 L705,217 L706,216 L706,215 L707,214 L708,212 L708,211 L709,210 L709,211 L709,213 L709,215 L709,219 L709,222 L709,225 L709,227 L709,229 L709,232 L709,235 L709,239 L708,242 L708,245 L708,248 L708,251 L708,254 L708,257 L707,261 L707,264 L707,267 L706,271 L706,273 L705,276 L705,279 L705,281 L705,283 L704,286 L704,288 L704,291 L704,293 L704,295 L703,296 L703,298 L703,299 L703,300 L703,302 L702,303 L701,305 L701,306 L701,307 L701,308 L700,309 L700,310 L700,311 L700,312 L700,311 L700,310 L700,308 L701,306 L701,305 L702,303 L703,301 L704,299 L705,298 L706,297 L707,295 L709,294 L710,293 L711,291 L711,292 L711,293 L711,294 L711,296 L711,299 L711,302 L711,304 L712,306 L712,308 L712,307 L713,305 L714,303 L714,300 L715,297 L716,294 L716,292 L717,289 L718,287 L719,286 L720,285 L720,286 L720,287 L721,288 L721,289 L722,291 L723,293 L723,295 L724,297 L725,298 L725,299 L725,300 L726,300 L726,301 L726,302 L726,303 L726,302 L727,300 L728,298 L729,295 L730,293 L731,291 L733,288 L735,286 L736,283 L737,282 L738,281 L738,280 L739,278 L740,277 L742,276 L743,275 L743,274 L743,275 L743,274 L743,276 L743,278 L744,280 L744,282 L744,284 L744,287 L744,290 L744,292 L744,295 L745,298 L745,302 L746,305 L747,308 L747,310 L747,312 L747,314 L748,315 L748,316 L748,317 L748,316 L748,315 L749,313 L750,309 L750,306 L752,303 L753,300 L755,297 L755,294 L757,292 L758,289 L759,286 L759,283 L760,280 L761,276 L762,273 L762,270 L763,266 L763,264 L764,261 L765,258 L765,254 L766,251 L767,247 L768,245 L768,242 L769,239 L770,236 L770,232 L772,228 L772,226 L772,224 L772,223 L772,221 L772,219 L772,217 L773,215 L773,213 L773,212 L773,210 L773,207 L774,205 L775,202 L775,198 L776,193 L776,190 L777,187 L777,183 L777,178 L778,173 L779,168 L780,163 L780,159 L780,155 L780,150 L780,145 L781,139 L782,132 L782,127 L783,122 L783,118 L784,114 L784,110 L786,105 L787,99 L788,95 L788,93 L788,91 L789,90 L789,88 L789,87 L790,87 L790,88 L791,89 L792,92 L794,95 L796,100 L798,105 L800,110 L801,112 L802,114 L803,114 L803,112 L805,108 L808,102 L811,95 L812,88 L814,83 L815,79 L816,75 L817,71 L819,67 L819,64 L820,61 L820,59 L820,58 L821,56 L821,55 L821,54 L822,53 L821,53 L821,52 L821,51 L821,50 L821,51 L820,53 L819,55 L819,58 L818,61 L818,64 L817,67 L816,70 L816,73 L816,76 L815,79 L814,83 L814,86 L813,89 L813,93 L812,97 L811,101 L811,105 L810,110 L809,115 L808,120 L807,124 L806,128 L806,132 L806,137 L805,142 L805,147 L805,153 L804,157 L804,161 L803,165 L802,169 L802,173 L802,177 L802,181 L802,186 L800,191 L799,196 L798,201 L797,205 L795,209 L794,213 L793,217 L793,221 L792,224 L792,227 L791,229 L791,231 L790,232 L790,233 L790,234 L790,236 L790,237 L790,238 L790,239 L790,241 L790,242 L791,243 L791,244 L791,245 L791,246 L791,245 L792,244 L792,242 L793,239 L794,235 L795,232 L796,229 L798,227 L799,224 L801,222 L802,218 L803,215 L804,213 L806,211 L807,209 L809,207 L810,205 L810,204 L810,203 L811,202 L811,203 L811,205 L812,207 L812,211 L812,213 L813,215 L813,217 L813,219 L814,221 L814,223 L814,224 L814,225 L814,226 L815,226 L815,227 L815,226 L816,226 L816,225 L816,224 L817,223 L818,222 L819,220 L821,217 L822,215 L824,213 L826,211 L827,209 L828,207 L830,205 L831,204 L831,203 L831,202 L831,203 L831,204 L832,204 L832,205 L833,207 L833,209 L834,211 L835,213 L836,216 L837,219 L838,221 L839,223 L840,225 L841,226 L841,227 L842,228 L842,229 L843,229 L843,230 L843,231 L844,231 L844,230 L846,229 L848,225 L852,221 L856,217 L861,212 L865,207 L870,204 L873,200 L877,195 L880,192 L884,187 L887,182 L890,177 L892,173 L893,170 L895,167 L897,164 L899,161 L901,157 L902,155 L904,153 L905,151 L907,149 L908,148 L909,148 L909,147 L909,146 L909,148 L909,149" fill="none" stroke="red" stroke-width="3"/></svg>