<svg xmlns="http://www.w3.org/2000/svg" version="1.1" xmlns:xlink="http://www.w3.org/1999/xlink" xmlns:svgjs="http://svgjs.dev/svgjs" width="950" height="375" id="chartSvg"><path d="M19,132 L19,131 L18,131 L18,130 L17,129 L17,128 L18,131 L22,135 L24,139 L27,141 L28,142 L28,141 L28,139 L29,135 L30,130 L32,122 L34,115 L36,110 L38,107 L39,105 L40,105 L41,105 L44,110 L47,120 L51,133 L56,146 L61,161 L65,176 L70,193 L72,203 L75,211 L76,217 L76,220 L77,220 L77,219 L77,214 L78,202 L78,181 L80,158 L81,149 L82,144 L83,136 L86,127 L88,118 L90,112 L90,110 L90,109 L90,110 L90,112 L92,117 L92,121 L94,127 L95,137 L100,152 L105,168 L109,178 L113,186 L116,192 L119,198 L122,203 L124,207 L125,207 L126,207 L127,202 L128,193 L129,182 L131,168 L133,148 L135,126 L139,110 L142,98 L145,88 L148,78 L150,70 L151,66 L151,69 L154,79 L157,92 L161,106 L166,122 L172,138 L178,156 L184,172 L189,185 L193,196 L197,206 L200,213 L203,218 L206,220 L208,220 L210,219 L213,214 L215,203 L217,187 L219,168 L220,153 L222,143 L224,135 L227,130 L229,126 L231,122 L232,121 L232,122 L233,127 L234,133 L236,140 L237,148 L238,156 L239,160 L240,162 L241,162 L242,163 L242,161 L243,158 L244,152 L246,145 L248,138 L249,134 L251,132 L253,132 L255,135 L257,140 L261,148 L264,154 L266,156 L268,157 L269,157 L270,156 L272,152 L274,145 L277,136 L280,124 L281,110 L282,97 L283,87 L286,80 L287,74 L288,73 L289,73 L291,74 L292,81 L295,95 L297,112 L300,129 L302,144 L305,160 L307,177 L310,195 L313,208 L316,215 L317,217 L318,214 L318,206 L320,196 L322,184 L325,168 L327,150 L330,139 L332,131 L335,122 L338,112 L341,105 L343,102 L344,102 L345,101 L346,101 L347,101 L348,101 L349,102 L350,102 L352,104 L354,107 L357,110 L360,113 L362,117 L364,121 L366,125 L369,129 L370,131 L370,132 L370,131 L370,130 L370,127 L371,123 L372,117 L374,110 L375,102 L377,94 L379,87 L379,82 L380,80 L381,81 L382,83 L384,86 L387,92 L390,99 L393,107 L396,117 L399,124 L402,130 L405,134 L408,136 L411,136 L414,135 L416,132 L419,128 L422,122 L425,114 L428,105 L430,99 L430,98 L430,100 L432,104 L433,112 L434,122 L435,133 L435,145 L435,156 L437,166 L439,175 L441,183 L444,189 L445,191 L447,191 L449,189 L452,183 L455,176 L459,166 L464,154 L467,139 L469,121 L472,100 L474,86 L475,81 L477,77 L479,75 L480,73 L480,72 L480,73 L481,83 L481,103 L481,124 L483,139 L485,151 L487,162 L490,175 L493,190 L497,205 L501,215 L503,223 L505,228 L506,231 L508,233 L509,234 L511,235 L513,234 L515,228 L517,214 L519,193 L522,175 L525,162 L528,154 L531,146 L535,139 L539,132 L542,127 L544,124 L546,125 L549,129 L552,135 L556,141 L559,147 L562,153 L564,159 L567,163 L569,164 L571,164 L573,163 L574,161 L576,157 L577,151 L579,141 L581,126 L584,109 L586,96 L590,85 L592,76 L595,69 L597,65 L599,63 L601,63 L604,66 L607,76 L610,92 L613,112 L616,132 L619,151 L623,169 L626,183 L630,195 L633,205 L635,215 L638,224 L639,228 L640,227 L640,220 L641,212 L643,202 L644,190 L646,170 L650,148 L652,136 L653,131 L655,123 L658,117 L660,115 L661,115 L664,118 L667,127 L670,137 L672,146 L676,154 L679,161 L683,165 L687,166 L690,166 L693,161 L696,152 L700,140 L703,132 L705,129 L706,127 L707,127 L709,127 L712,127 L716,132 L720,140 L724,151 L728,163 L732,171 L736,178 L740,183 L742,186 L745,186 L748,182 L751,171 L755,154 L760,130 L765,110 L770,92 L774,78 L777,71 L778,68 L780,68 L782,75 L783,93 L784,116 L785,139 L788,161 L791,181 L794,199 L796,212 L798,221 L800,226 L801,227 L803,227 L806,222 L809,215 L813,205 L816,194 L821,178 L827,156 L832,141 L833,136 L834,134 L836,132 L838,129 L840,127 L841,127 L844,132 L847,143 L849,153 L851,161 L853,166 L855,172 L858,176 L860,178 L861,178 L863,175 L866,166 L869,153 L871,144 L872,143 L873,143 L874,143 L877,145 L881,151 L886,159 L891,168 L895,176 L898,180 L902,182 L907,182 L912,179 L918,172 L924,162 L929,146 L935,127 L940,112 L943,102 L946,95 L947,92 L949,88 L952,84 L953,84 L954,88 L954,103 L953,126 L952,147 L953,159 L954,165 L954,168 L955,168" fill="none" stroke="red" stroke-width="3"/></svg>