<svg xmlns="http://www.w3.org/2000/svg" version="1.1" xmlns:xlink="http://www.w3.org/1999/xlink" xmlns:svgjs="http://svgjs.dev/svgjs" width="950" height="375" id="chartSvg"><path d="M31,182 L30,182 L29,183 L29,181 L30,178 L31,173 L31,168 L33,163 L34,157 L35,154 L36,151 L36,149 L37,148 L37,146 L37,144 L38,143 L38,142 L39,142 L39,141 L39,142 L40,143 L41,144 L42,146 L44,146 L45,148 L46,149 L46,151 L47,153 L47,154 L48,154 L48,155 L49,156 L50,157 L51,158 L52,160 L53,161 L54,163 L55,163 L56,164 L56,165 L57,166 L57,167 L58,168 L58,169 L58,170 L58,171 L58,172 L58,173 L58,175 L58,176 L58,177 L58,178 L58,180 L59,182 L59,183 L59,185 L60,186 L61,187 L61,188 L62,189 L62,190 L63,193 L64,195 L64,197 L65,198 L65,199 L66,200 L66,202 L66,204 L66,206 L66,207 L66,208 L66,209 L67,209 L67,212 L67,217 L67,221 L67,224 L67,225 L68,226 L68,227 L68,228 L68,229 L69,229 L70,232 L70,236 L71,240 L72,242 L73,243 L74,243 L75,243 L76,244 L77,246 L78,249 L80,251 L81,254 L82,256 L83,258 L85,260 L86,261 L87,262 L88,262 L88,261 L88,260 L88,259 L88,256 L88,253 L88,250 L88,248 L88,247 L87,246 L87,244 L87,242 L87,239 L88,237 L88,235 L88,234 L88,232 L87,231 L86,229 L85,226 L85,223 L85,220 L85,217 L86,215 L86,214 L86,212 L85,210 L85,208 L84,205 L83,200 L82,197 L82,194 L82,192 L82,191 L83,189 L83,188 L84,187 L85,185 L86,183 L87,180 L88,176 L88,171 L88,168 L88,166 L88,164 L88,162 L89,159 L89,156 L89,153 L89,152 L90,150 L90,147 L92,145 L92,144 L93,142 L94,141 L94,140 L95,137 L95,134 L95,132 L95,130 L95,129 L95,127 L95,124 L96,121 L97,119 L97,118 L98,117 L100,114 L101,113 L102,113 L102,114 L104,114 L105,114 L107,113 L109,111 L110,110 L112,109 L112,110 L114,112 L115,112 L116,112 L117,112 L118,110 L120,109 L122,108 L122,107 L123,107 L124,106 L126,105 L128,103 L130,102 L131,102 L132,103 L137,102 L143,98 L147,96 L149,97 L149,99 L148,102 L147,105 L146,109 L144,112 L142,114 L140,117 L139,120 L139,122 L139,124 L141,124 L143,125 L144,126 L145,128 L146,129 L146,132 L146,134 L146,137 L146,140 L147,142 L148,143 L150,144 L151,144 L154,145 L156,147 L157,149 L157,152 L157,156 L157,160 L157,161 L157,162 L158,163 L158,164 L159,166 L160,169 L161,172 L162,174 L162,177 L163,180 L163,182 L163,184 L163,186 L163,188 L163,189 L163,190 L163,192 L163,194 L163,197 L163,200 L163,201 L163,202 L163,204 L164,205 L165,206 L166,207 L167,208 L168,209 L168,210 L169,211 L169,212 L170,213 L171,214 L172,214 L175,212 L177,209 L180,205 L181,202 L183,199 L183,198 L184,195 L185,193 L185,190 L186,188 L187,184 L188,180 L189,177 L190,176 L190,175 L190,174 L191,172 L192,169 L193,167 L193,165 L193,164 L194,162 L195,160 L197,157 L198,156 L199,156 L199,155 L200,154 L201,153 L202,152 L203,151 L204,150 L205,149 L206,149 L207,149 L208,148 L210,147 L211,146 L213,142 L215,139 L216,136 L216,135 L217,135 L219,135 L221,135 L223,134 L224,134 L225,133 L226,133 L227,134 L227,136 L228,138 L229,139 L229,141 L231,143 L231,144 L232,145 L232,146 L233,146 L234,148 L235,151 L237,153 L238,156 L239,157 L241,157 L243,157 L246,155 L251,153 L254,151 L257,149 L258,149 L259,148 L261,147 L261,146 L262,146 L263,146 L264,146 L264,145 L265,144 L266,144 L266,145 L267,146 L268,148 L269,150 L270,152 L270,155 L270,157 L271,158 L272,157 L273,157 L273,158 L273,160 L273,161 L274,163 L275,165 L276,167 L276,169 L276,171 L276,172 L276,173 L276,175 L275,176 L274,178 L274,179 L273,180 L273,181 L273,183 L273,184 L273,186 L273,187 L274,189 L275,190 L276,192 L276,193 L277,193 L278,193 L280,193 L281,193 L283,192 L284,191 L286,190 L287,189 L289,188 L291,185 L292,183 L293,180 L293,178 L294,174 L295,170 L296,167 L298,165 L299,164 L301,162 L304,159 L308,155 L310,152 L313,151 L314,150 L316,150 L320,150 L322,149 L325,150 L326,151 L328,153 L330,153 L332,151 L334,149 L335,147 L335,146 L336,146 L337,146 L339,148 L341,149 L343,149 L346,149 L348,149 L352,149 L355,149 L358,150 L359,151 L361,153 L361,154 L362,155 L362,157 L363,160 L363,163 L364,165 L364,166 L365,167 L366,169 L367,172 L368,175 L370,178 L371,180 L373,180 L374,182 L374,185 L376,188 L378,190 L380,191 L382,191 L383,191 L385,191 L387,193 L389,197 L391,200 L393,200 L393,198 L393,197 L394,195 L396,192 L397,188 L399,185 L399,184 L400,184 L401,183 L402,182 L402,180 L403,178 L405,175 L408,171 L410,167 L411,166 L412,166 L414,166 L415,165 L417,164 L418,164 L418,163 L419,163 L420,161 L423,159 L425,156 L427,153 L429,152 L430,153 L430,154 L431,155 L432,156 L433,156 L434,156 L435,156 L436,156 L437,154 L440,151 L441,149 L442,148 L442,149 L442,150 L443,151 L445,152 L447,153 L448,153 L449,153 L451,153 L452,154 L452,155 L452,157 L452,158 L453,159 L454,159 L456,158 L459,155 L462,153 L464,152 L465,152 L466,151 L466,149 L467,147 L467,145 L469,142 L470,139 L471,134 L473,129 L476,126 L477,123 L480,121 L483,119 L486,116 L488,115 L489,114 L490,114 L491,114 L491,116 L492,118 L492,121 L492,124 L492,127 L493,129 L493,130 L494,131 L496,131 L497,132 L498,134 L498,138 L498,143 L498,148 L499,150 L501,151 L502,152 L503,153 L503,154 L504,155 L505,156 L506,158 L506,162 L504,168 L503,173 L502,175 L504,176 L506,176 L507,177 L508,178 L511,179 L514,178 L519,176 L523,173 L526,171 L527,170 L529,168 L531,166 L534,163 L535,161 L535,160 L535,158 L535,156 L537,153 L538,151 L539,149 L540,148 L542,146 L543,145 L545,144 L546,145 L547,146 L548,146 L549,147 L550,148 L551,149 L552,149 L552,150 L553,152 L553,154 L554,156 L554,158 L555,161 L555,163 L556,166 L556,169 L556,172 L556,174 L556,177 L556,179 L556,182 L555,185 L555,188 L554,190 L554,191 L555,193 L555,194 L556,195 L557,198 L557,200 L557,202 L557,206 L557,210 L557,215 L557,217 L558,217 L560,217 L562,216 L562,218 L562,222 L562,226 L562,230 L562,234 L562,237 L562,241 L562,244 L563,247 L563,249 L564,252 L564,255 L564,258 L564,261 L564,263 L565,264 L565,266 L566,268 L566,271 L567,274 L568,276 L569,278 L570,280 L571,283 L572,286 L573,288 L574,290 L575,291 L576,294 L576,298 L577,301 L577,303 L578,304 L579,305 L579,307 L579,308 L580,310 L581,310 L581,311 L582,311 L583,310 L584,308 L585,305 L586,302 L587,298 L589,294 L589,291 L590,288 L589,287 L589,286 L589,283 L588,281 L588,278 L587,275 L586,271 L585,268 L585,263 L584,259 L584,256 L582,254 L582,252 L580,250 L580,249 L580,246 L580,244 L581,240 L582,236 L584,232 L586,227 L588,224 L589,220 L591,217 L591,215 L591,213 L591,210 L591,205 L592,199 L592,193 L591,189 L591,185 L591,180 L591,176 L592,171 L592,168 L593,165 L595,160 L598,154 L600,149 L601,147 L602,146 L603,144 L604,140 L606,136 L606,133 L607,131 L607,130 L607,128 L608,125 L609,121 L609,117 L609,115 L609,113 L609,110 L609,106 L610,102 L611,99 L611,98 L612,97 L613,95 L615,92 L616,90 L616,89 L617,89 L618,90 L620,92 L621,95 L622,100 L623,106 L625,112 L627,117 L629,122 L631,126 L633,129 L635,132 L636,135 L638,138 L639,143 L640,149 L641,153 L643,156 L645,158 L648,159 L650,161 L652,162 L654,163 L655,163 L656,163 L656,161 L657,159 L658,157 L659,154 L660,150 L660,147 L661,145 L662,143 L662,140 L663,138 L664,138 L665,137 L667,136 L670,133 L671,131 L672,128 L673,126 L675,124 L677,123 L678,122 L679,124 L680,127 L682,129 L683,130 L684,130 L686,130 L688,131 L689,132 L689,136 L690,139 L692,141 L694,142 L696,144 L697,147 L699,150 L702,151 L706,151 L711,149 L714,147 L716,146 L718,143 L721,140 L722,137 L722,135 L722,132 L721,130 L721,127 L721,123 L721,119 L722,116 L722,112 L723,109 L724,104 L725,101 L726,98 L726,95 L726,92 L727,88 L727,83 L727,80 L727,77 L728,73 L731,68 L732,63 L733,59 L735,56 L737,51 L740,46 L743,42 L745,39 L747,37 L748,34 L751,31 L754,28 L755,25 L756,24 L758,22 L759,19 L760,18 L760,17 L760,18 L761,18 L762,19 L763,22 L764,24 L765,27 L766,29 L767,32 L767,35 L767,38 L767,41 L767,44 L767,47 L767,49 L767,52 L767,55 L767,58 L768,61 L768,63 L768,66 L769,69 L769,71 L770,74 L770,76 L770,79 L771,82 L772,84 L772,86 L773,89 L774,92 L774,94 L775,95 L775,96 L776,97 L776,98 L776,102 L776,105 L776,110 L777,115 L777,118 L779,121 L780,124 L781,127 L782,129 L783,131 L784,132 L784,134 L785,136 L785,139 L786,140 L786,142 L787,145 L788,148 L789,150 L791,151 L793,153 L795,154 L797,154 L799,154 L800,154 L801,154 L802,154 L803,153 L804,151 L805,150 L806,147 L807,143 L808,139 L808,136 L809,134 L809,132 L810,132 L810,131 L811,131 L812,130 L813,129 L814,128 L815,127 L817,124 L818,123 L819,122 L820,122 L820,123 L821,124 L822,124 L823,124 L824,123 L826,120 L827,117 L828,116 L830,116 L831,116 L833,117 L834,117 L835,117 L836,117 L838,117 L839,118 L840,119 L840,120 L841,122 L841,125 L841,127 L841,129 L842,131 L843,132 L845,133 L848,134 L850,135 L853,135 L855,135 L856,136 L857,139 L858,141 L859,144 L860,146 L862,147 L864,147 L866,148 L868,149 L870,150 L871,151 L872,151 L873,151 L874,151 L875,151 L876,149 L876,146 L878,142 L880,137 L883,134 L885,134 L886,133 L888,132 L889,131 L890,131 L891,131 L892,131 L892,132 L893,132 L894,133 L895,134 L896,136 L897,138 L899,140 L902,143 L904,146 L906,150 L907,153 L909,156 L910,158 L913,161 L916,163 L918,164" fill="none" stroke="red" stroke-width="3"/></svg>