<svg xmlns="http://www.w3.org/2000/svg" xmlns:xlink="http://www.w3.org/1999/xlink" version="1.1" class="marks" width="1012" height="385" viewBox="0 0 1012 385"><rect width="1012" height="385" fill="white"/><path d="M16,239 L15,238 L14,238 L14,237 L14,233 L14,226 L15,217 L17,208 L21,200 L26,193 L30,185 L34,180 L35,178 L36,178 L37,180 L39,184 L41,188 L43,192 L46,197 L47,206 L48,216 L49,225 L49,235 L49,244 L51,254 L53,261 L54,264 L54,268 L55,271 L55,274 L56,275 L56,276 L57,274 L58,272 L59,271 L61,269 L62,268 L65,266 L68,264 L70,262 L71,262 L72,262 L72,261 L73,261 L74,260 L75,260 L76,260 L77,259 L78,259 L80,258 L81,258 L82,258 L83,258 L84,259 L85,260 L86,261 L87,262 L88,262 L88,259 L88,255 L89,250 L90,245 L90,241 L90,236 L90,231 L91,224 L91,219 L91,215 L92,211 L92,205 L93,198 L95,190 L95,185 L96,179 L98,172 L100,163 L103,156 L105,151 L107,148 L110,143 L112,138 L116,134 L118,132 L120,131 L122,129 L126,127 L128,124 L129,123 L129,124 L130,124 L131,125 L132,126 L132,128 L133,132 L133,137 L134,144 L135,149 L136,153 L137,156 L138,159 L138,163 L138,168 L139,172 L139,175 L139,176 L139,177 L140,178 L139,180 L139,183 L139,185 L139,186 L139,187 L139,188 L139,191 L138,195 L138,197 L138,198 L139,198 L139,197 L139,195 L140,190 L144,179 L148,166 L151,157 L154,151 L157,143 L161,135 L164,130 L165,127 L166,127 L167,127 L169,127 L171,127 L172,127 L173,127 L173,128 L174,131 L176,134 L178,137 L180,139 L181,141 L182,143 L182,146 L182,148 L183,149 L183,151 L183,152 L183,153 L184,153 L184,154 L184,155 L183,157 L182,161 L180,166 L178,171 L178,175 L178,176 L177,178 L177,181 L176,185 L176,188 L176,191 L176,194 L176,196 L176,198 L176,202 L176,205 L176,210 L175,212 L175,215 L176,217 L176,218 L176,220 L176,222 L176,224 L176,227 L176,229 L177,230 L177,231 L177,232 L177,233 L178,235 L178,236 L178,237 L178,238 L179,239 L179,241 L179,243 L180,244 L181,247 L182,250 L183,254 L184,258 L185,260 L187,260 L188,260 L188,261 L189,261 L190,262 L191,263 L192,263 L193,263 L194,263 L195,262 L197,262 L198,261 L199,260 L200,259 L201,259 L202,259 L203,259 L205,259 L207,259 L208,258 L209,258 L210,259 L212,259 L215,259 L217,259 L219,259 L221,259 L222,259 L224,260 L225,259 L226,258 L227,256 L228,254 L229,253 L230,251 L231,250 L234,247 L235,244 L237,242 L237,241 L238,239 L240,236 L244,231 L246,226 L248,222 L250,217 L252,212 L255,205 L258,197 L260,190 L261,185 L263,180 L266,175 L270,170 L273,163 L274,158 L275,155 L276,152 L278,149 L279,143 L280,138 L280,134 L280,130 L281,127 L281,122 L281,119 L281,117 L281,115 L280,114 L280,113 L280,112 L280,110 L281,110 L281,108 L282,107 L283,107 L283,108 L284,109 L285,109 L286,110 L287,111 L288,111 L289,112 L290,112 L291,113 L291,114 L292,115 L293,117 L294,119 L295,121 L296,124 L297,126 L298,128 L298,129 L298,130 L298,132 L298,134 L298,137 L298,139 L298,141 L298,143 L298,146 L298,148 L297,151 L296,153 L296,154 L296,156 L295,157 L295,158 L295,159 L295,160 L295,161 L295,162 L295,163 L295,164 L295,166 L295,167 L295,168 L295,170 L295,171 L295,172 L294,173 L294,175 L293,177 L293,180 L293,181 L293,183 L293,184 L293,185 L293,186 L293,187 L293,188 L293,189 L293,190 L293,191 L293,192 L293,193 L293,195 L293,198 L293,200 L292,202 L292,205 L292,207 L291,209 L291,210 L291,211 L291,212 L291,214 L290,216 L289,218 L289,220 L289,221 L289,222 L289,224 L289,225 L289,226 L289,227 L289,229 L289,230 L289,232 L289,234 L289,236 L289,238 L289,241 L288,244 L288,248 L287,251 L287,253 L287,254 L287,256 L287,258 L287,260 L287,262 L287,264 L287,265 L287,266 L287,267 L288,268 L288,271 L288,273 L288,275 L288,276 L288,278 L289,279 L289,280 L290,281 L290,280 L291,279 L291,278 L293,277 L294,275 L297,273 L300,269 L303,267 L303,266 L304,266 L305,266 L307,266 L309,264 L310,262 L312,261 L314,260 L317,259 L320,257 L323,255 L327,252 L330,249 L333,247 L335,245 L336,245 L337,245 L338,245 L339,245 L342,244 L345,242 L348,241 L349,240 L350,240 L351,240 L352,240 L353,239 L354,239 L355,238 L357,237 L358,237 L359,237 L360,236 L361,235 L361,234 L362,234 L363,232 L364,229 L366,225 L367,221 L368,217 L368,214 L369,210 L372,205 L376,200 L379,198 L380,196 L382,193 L383,190 L384,189 L385,189 L386,191 L388,195 L391,199 L393,202 L395,206 L396,213 L397,221 L399,229 L401,237 L403,246 L402,258 L401,268 L402,275 L404,281 L406,284 L406,286 L407,287 L407,289 L407,292 L407,293 L407,292 L407,288 L407,281 L407,276 L408,269 L409,262 L412,254 L414,247 L414,242 L414,239 L414,237 L414,233 L414,230 L414,227 L414,226 L414,225 L415,225 L415,224 L416,224 L416,223 L417,223 L418,222 L418,221 L418,220 L418,219 L418,218 L418,217 L418,216 L418,215 L417,215 L417,214 L417,213 L416,213 L416,212 L416,211 L417,209 L418,205 L418,201 L418,198 L418,196 L419,193 L420,191 L421,189 L423,187 L425,185 L427,185 L429,183 L432,182 L434,181 L436,180 L438,179 L441,179 L443,178 L445,178 L447,178 L448,178 L449,178 L450,178 L451,178 L452,178 L454,178 L455,178 L457,178 L460,178 L462,178 L464,178 L464,177 L465,177 L466,177 L467,177 L467,178 L468,179 L469,180 L470,183 L471,187 L471,191 L471,196 L472,200 L473,205 L474,210 L475,215 L476,220 L476,225 L476,231 L475,237 L474,243 L474,249 L474,255 L472,263 L470,271 L470,277 L471,281 L471,283 L471,286 L468,291 L465,296 L465,298 L466,295 L468,288 L471,281 L474,274 L478,267 L482,260 L487,252 L492,244 L496,237 L498,234 L498,233 L498,232 L498,233 L499,235 L499,238 L500,242 L501,246 L502,250 L504,254 L507,255 L508,256 L509,255 L509,254 L509,253 L510,252 L513,249 L517,244 L521,235 L524,225 L526,216 L528,207 L531,197 L534,186 L536,175 L536,167 L536,161 L535,158 L534,155 L534,151 L533,147 L531,144 L530,142 L530,141 L530,139 L530,138 L530,136 L530,135 L530,134 L531,134 L531,135 L532,136 L533,139 L535,141 L535,143 L536,144 L537,144 L537,145 L538,146 L539,147 L540,149 L541,150 L542,151 L543,153 L544,154 L545,156 L547,157 L548,158 L550,160 L552,162 L553,165 L554,168 L555,172 L556,176 L558,180 L560,184 L561,187 L561,190 L561,193 L561,198 L561,202 L561,206 L561,210 L562,212 L562,216 L563,220 L563,222 L564,226 L564,230 L565,233 L567,237 L569,240 L570,242 L572,244 L572,247 L572,250 L572,252 L573,254 L574,255 L574,254 L575,253 L576,251 L578,248 L579,246 L581,244 L582,244 L583,244 L584,243 L584,242 L584,243 L585,243 L585,244 L586,244 L586,245 L587,244 L589,244 L591,243 L592,241 L594,239 L597,237 L598,235 L599,234 L598,234 L598,235 L598,236 L599,236 L599,237 L599,239 L600,241 L601,243 L601,245 L601,247 L601,249 L602,251 L603,254 L604,256 L605,258 L606,259 L606,261 L607,264 L608,265 L609,267 L610,271 L610,275 L611,279 L611,282 L611,284 L612,287 L612,288 L613,288 L613,289 L613,290 L613,289 L615,285 L618,277 L621,266 L623,256 L623,249 L623,243 L623,234 L626,223 L629,213 L630,205 L630,199 L631,194 L631,188 L632,181 L633,175 L635,171 L635,168 L636,168 L638,168 L639,167 L640,166 L641,168 L643,170 L644,172 L646,174 L648,178 L650,183 L651,188 L652,193 L653,198 L655,201 L656,205 L658,208 L659,210 L660,212 L661,214 L661,216 L662,218 L662,219 L662,220 L662,219 L662,218 L662,217 L662,216 L662,215 L663,215 L663,214 L664,212 L665,211 L667,209 L670,205 L673,200 L676,195 L677,193 L678,192 L679,191 L681,190 L682,189 L683,189 L683,190 L683,191 L684,193 L685,194 L686,196 L686,199 L687,203 L687,207 L689,210 L690,213 L691,217 L692,221 L693,226 L694,229 L696,234 L697,239 L699,244 L701,247 L703,251 L705,255 L706,258 L708,259 L709,260 L709,261 L709,263 L710,264 L711,266 L712,267 L713,267 L714,265 L714,263 L715,261 L716,260 L717,257 L719,254 L722,248 L724,241 L725,236 L726,233 L728,231 L732,228 L735,227 L737,225 L739,224 L741,222 L743,221 L744,220 L745,219 L747,218 L749,217 L752,216 L753,215 L754,215 L754,216 L756,217 L758,219 L760,221 L762,224 L764,227 L766,231 L767,234 L770,237 L772,239 L774,241 L775,242 L776,243 L777,244 L778,244 L779,244 L779,245 L779,246 L780,246 L780,247 L781,247 L781,248 L782,248 L782,249 L783,249 L784,250 L785,251 L786,251 L786,252 L787,253 L787,254 L788,254 L788,255 L789,254 L790,253 L792,251 L794,249 L797,246 L799,243 L800,242 L801,242 L802,241 L803,240 L804,240 L806,240 L807,240 L807,241 L808,242 L808,244 L809,247 L809,250 L809,254 L809,256 L809,257 L809,258 L809,259 L809,260 L809,261 L809,262 L810,263 L810,262 L811,261 L813,260 L816,257 L818,253 L819,248 L821,242 L823,235 L823,229 L823,223 L825,219 L827,215 L828,211 L829,205 L828,197 L827,191 L826,187 L827,185 L828,184 L829,181 L829,179 L829,178 L829,177 L829,178 L829,180 L829,183 L830,185 L831,188 L832,193 L833,198 L833,203 L833,209 L833,213 L833,218 L833,223 L833,228 L832,233 L831,236 L831,238 L831,240 L831,242 L829,246 L828,249 L828,251 L828,253 L827,255 L825,257 L824,261 L822,263 L822,265 L822,267 L822,269 L821,272 L819,274 L818,277 L817,280 L817,283 L817,286 L818,287 L818,288 L818,289 L818,291 L818,292 L818,294 L818,295 L819,295 L820,295 L822,294 L825,293 L828,293 L830,293 L831,293 L833,293 L834,294 L836,294 L837,294 L838,294 L838,295 L839,295 L840,295 L841,295 L842,295 L843,295 L844,295 L845,294 L846,294 L847,294 L848,294 L850,295 L851,296 L853,298 L854,298 L854,299 L855,300 L855,302 L856,303 L857,304 L858,303 L859,302 L860,301 L861,300 L862,299 L863,297 L865,295 L865,291 L866,289 L868,287 L868,285 L868,282 L867,278 L865,272 L864,268 L863,264 L863,262 L864,259 L865,254 L865,246 L865,238 L865,231 L867,225 L868,219 L868,212 L867,204 L867,196 L867,188 L867,182 L868,176 L868,171 L868,165 L869,159 L869,153 L869,146 L869,139 L869,134 L870,128 L870,124 L870,120 L870,117 L870,114 L870,111 L871,107 L872,105 L873,102 L875,101 L876,100 L878,100 L880,100 L882,100 L885,101 L886,103 L888,106 L890,110 L892,114 L895,117 L897,120 L899,123 L902,126 L904,127 L905,129 L906,130 L906,129 L907,127 L907,125 L909,122 L910,119 L912,115 L914,109 L915,102 L915,98 L914,96 L914,94 L914,92 L914,90 L915,87 L916,84 L916,82 L917,80 L917,82 L917,85 L919,90 L920,95 L920,102 L919,110 L918,118 L919,126 L923,134 L926,141 L928,150 L928,159 L928,169 L929,178 L931,187 L933,195 L934,204 L934,213 L933,223 L931,232 L929,241 L929,249 L929,256 L930,264 L931,268 L930,272 L928,276 L926,279 L925,281 L925,282 L926,282 L926,280 L926,277 L929,273 L934,267 L943,258 L950,249 L953,244 L960,239 L973,234" fill="none" stroke="red" stroke-width="3"/></svg>