<svg xmlns="http://www.w3.org/2000/svg" xmlns:xlink="http://www.w3.org/1999/xlink" version="1.1" class="marks" width="1012" height="385" viewBox="0 0 1012 385"><rect width="1012" height="385" fill="white"/><path d="M17,264 L17,265 L17,266 L17,268 L18,268 L19,268 L19,265 L20,261 L21,254 L22,249 L24,246 L26,244 L27,240 L29,234 L31,229 L34,225 L35,224 L36,224 L37,225 L39,228 L40,232 L41,239 L43,249 L45,261 L47,272 L49,281 L51,291 L54,299 L56,303 L58,303 L60,302 L62,300 L65,298 L67,297 L69,297 L72,299 L74,305 L77,313 L79,318 L80,319 L81,316 L82,311 L83,308 L83,307 L85,308 L86,313 L88,320 L90,322 L90,320 L91,315 L91,310 L91,307 L90,305 L90,301 L89,295 L89,285 L89,272 L90,261 L91,253 L91,240 L92,224 L92,210 L93,198 L93,189 L93,182 L93,176 L93,173 L93,172 L94,172 L95,172 L98,176 L102,185 L106,200 L109,217 L112,230 L114,241 L117,251 L120,261 L124,270 L127,278 L130,284 L134,288 L136,291 L139,295 L142,301 L145,307 L147,310 L149,311 L151,311 L153,313 L154,313 L156,312 L156,305 L156,297 L157,291 L158,289 L159,291 L161,293 L162,294 L163,294 L163,293 L164,291 L164,290 L165,292 L166,298 L168,303 L171,307 L173,308 L175,305 L176,299 L177,294 L178,291 L180,291 L182,294 L185,296 L187,296 L189,291 L190,281 L191,265 L192,249 L194,229 L195,210 L197,192 L199,178 L200,171 L202,166 L203,161 L205,158 L207,158 L208,158 L210,165 L212,175 L215,188 L217,207 L219,230 L222,254 L224,275 L227,288 L229,296 L231,300 L233,305 L234,307 L236,307 L237,306 L237,303 L237,296 L237,284 L237,268 L238,251 L239,235 L240,219 L242,201 L243,188 L244,179 L245,177 L246,179 L247,184 L248,191 L249,200 L251,213 L253,232 L254,256 L255,277 L256,288 L257,295 L258,300 L259,299 L261,296 L264,293 L267,292 L271,293 L275,297 L279,301 L283,303 L285,303 L286,299 L287,293 L288,291 L289,291 L291,295 L293,298 L296,303 L300,307 L303,308 L306,304 L307,295 L308,284 L310,274 L312,264 L314,256 L317,249 L320,241 L323,234 L325,229 L327,227 L328,227 L328,225 L328,223 L329,221 L329,222 L330,231 L331,244 L332,256 L332,264 L332,269 L332,273 L332,274 L333,271 L334,265 L335,259 L336,252 L338,245 L340,238 L343,229 L345,220 L347,216 L349,213 L352,210 L354,203 L356,195 L359,189 L360,187 L361,187 L361,188 L362,193 L363,206 L364,229 L364,256 L364,281 L365,303 L366,321 L368,337 L370,347 L372,351 L374,353 L377,354 L379,354 L381,352 L382,343 L383,329 L383,312 L383,292 L383,272 L383,250 L384,224 L386,206 L389,194 L392,188 L396,183 L398,178 L401,176 L403,176 L406,184 L409,200 L410,214 L412,224 L413,227 L414,227 L415,224 L416,215 L418,207 L419,199 L422,193 L425,186 L427,183 L430,183 L433,188 L436,196 L439,204 L442,212 L444,219 L445,223 L446,223 L447,219 L449,210 L451,202 L453,198 L455,199 L457,204 L460,211 L464,218 L467,225 L470,229 L471,229 L471,227 L472,221 L472,216 L473,215 L475,217 L478,224 L481,230 L485,236 L487,239 L489,239 L490,239 L490,236 L490,229 L490,220 L491,205 L492,188 L494,174 L497,165 L500,156 L503,148 L506,142 L507,140 L508,143 L508,152 L508,163 L509,178 L509,197 L509,220 L509,244 L510,270 L511,293 L513,311 L515,326 L518,341 L521,353 L523,359 L524,360 L524,357 L524,350 L524,342 L524,332 L524,320 L525,299 L528,275 L532,256 L537,243 L542,232 L546,225 L550,220 L552,219 L555,223 L557,233 L559,244 L560,252 L562,254 L563,252 L564,245 L566,237 L569,228 L573,225 L577,225 L581,231 L585,241 L588,251 L591,259 L593,261 L593,262 L593,260 L594,259 L594,257 L595,254 L596,248 L599,236 L603,220 L607,207 L612,191 L616,171 L621,156 L625,151 L628,151 L630,154 L632,158 L634,168 L635,184 L635,207 L635,234 L636,254 L638,274 L640,293 L643,310 L646,320 L648,325 L650,325 L652,322 L654,315 L656,304 L658,289 L661,269 L665,246 L670,232 L674,222 L677,214 L680,207 L682,206 L684,209 L685,215 L687,222 L687,230 L688,241 L689,252 L689,259 L690,260 L691,256 L692,249 L694,242 L696,236 L699,233 L702,233 L705,235 L708,239 L711,243 L712,244 L713,243 L713,239 L713,236 L713,237 L715,240 L718,245 L721,249 L724,250 L726,249 L727,244 L728,238 L730,235 L732,235 L734,239 L737,246 L740,251 L743,256 L746,260 L748,261 L748,260 L749,256 L750,251 L752,248 L754,249 L757,257 L760,266 L763,273 L766,281 L769,290 L771,296 L773,297 L775,293 L776,284 L777,272 L780,261 L783,251 L786,243 L788,237 L791,233 L792,233 L793,237 L795,243 L797,250 L798,258 L798,268 L799,281 L799,291 L799,295 L800,296 L800,297 L801,297 L802,293 L803,283 L804,265 L806,244 L809,228 L811,212 L813,190 L815,166 L816,145 L817,133 L817,123 L817,114 L818,105 L819,100 L820,97 L821,99 L824,106 L827,119 L830,134 L832,154 L834,176 L837,195 L840,211 L843,228 L847,243 L851,253 L854,256 L856,255 L859,250 L861,245 L864,239 L868,230 L871,217 L874,202 L877,195 L879,193 L881,192 L882,192 L882,195 L883,202 L883,210 L883,220 L882,232 L880,242 L880,246 L880,245 L880,242 L882,234 L884,228 L886,224 L889,222 L891,222 L893,226 L896,232 L898,237 L899,240 L900,241 L900,240 L901,237 L903,233 L904,232 L906,233 L909,239 L911,246 L914,249 L917,249 L920,248 L922,245 L925,241 L930,234 L940,217 L953,202 L966,196 L972,192" fill="none" stroke="red" stroke-width="3"/></svg>