<svg xmlns="http://www.w3.org/2000/svg" xmlns:xlink="http://www.w3.org/1999/xlink" version="1.1" class="marks" width="1012" height="385" viewBox="0 0 1012 385"><rect width="1012" height="385" fill="white"/><g fill="none" stroke-miterlimit="10" transform="translate(5,5)"><g class="mark-group role-frame root" role="graphics-object" aria-roledescription="group mark container"><g transform="translate(0,0)"><path class="background" aria-hidden="true" d="M0.5,0.5h1000v375h-1000Z" stroke="#ddd"/><g><g class="mark-group role-axis" role="graphics-symbol" aria-roledescription="axis" aria-label="X-axis for a linear scale with values from 0 to 500"><g transform="translate(0.5,375.5)"><path class="background" aria-hidden="true" d="M0,0h0v0h0Z" pointer-events="none"/><g><g class="mark-rule role-axis-domain" pointer-events="none"><line transform="translate(0,0)" x2="1000" y2="0" stroke="#888" stroke-width="1" opacity="1"/></g></g><path class="foreground" aria-hidden="true" d="" pointer-events="none" display="none"/></g></g><g class="mark-group role-axis" role="graphics-symbol" aria-roledescription="axis" aria-label="Y-axis for a linear scale with values from −80 to 80"><g transform="translate(0.5,0.5)"><path class="background" aria-hidden="true" d="M0,0h0v0h0Z" pointer-events="none"/><g><g class="mark-rule role-axis-domain" pointer-events="none"><line transform="translate(0,375)" x2="0" y2="-375" stroke="#888" stroke-width="1" opacity="1"/></g></g><path class="foreground" aria-hidden="true" d="" pointer-events="none" display="none"/></g></g><g class="mark-line role-mark marks" role="graphics-object" aria-roledescription="line mark container"><path aria-label="x: 1; y: −28.7520361865" role="graphics-symbol" aria-roledescription="line mark" d="M2,254.888L4,178.273L6,233.464L8,233.997L10,248.368L12,215.656L14,237.378L16,237.615L18,285.259L20,253.315L22,239.908L24,229.757L26,231.384L28,237.717L30,230.662L32,264.211L34,199.333L36,235.849L38,287.913L40,244.616L42,273.688L44,282.939L46,227.112L48,270.621L50,223.892L52,214.018L54,265.446L56,231.097L58,203.656L60,225.068L62,221.251L64,231.88L66,260.714L68,221.057L70,217.523L72,189.923L74,242.48L76,219.474L78,214.961L80,256.752L82,204.89L84,241.605L86,296.841L88,273.473L90,213.009L92,209.854L94,224.091L96,224.049L98,193.815L100,195.903L102,145.339L104,163.639L106,240.909L108,254.602L110,230.664L112,253.336L114,220.583L116,223.195L118,242.809L120,181.037L122,197.511L124,176.122L126,161.031L128,180.061L130,194.318L132,207.799L134,219.522L136,189.615L138,223.397L140,204.831L142,179.017L144,178.788L146,263.191L148,217.059L150,166.626L152,225.143L154,205.119L156,187.56L158,186.797L160,246.829L162,188.86L164,267.161L166,215.548L168,205.399L170,224.091L172,226.367L174,233.857L176,239.466L178,199.295L180,238.956L182,213.79L184,198.502L186,224.412L188,268.043L190,223.406L192,200.674L194,168.493L196,185.946L198,157.214L200,203.492L202,236.39L204,154.922L206,188.067L208,182.046L210,249.383L212,245.228L214,239.085L216,264.252L218,277.703L220,282.89L222,194.602L224,218.792L226,246.457L228,188.826L230,216.518L232,237.352L234,202.862L236,298.064L238,261.417L240,270.694L242,276.082L244,353.713L246,262.545L248,267.303L250,241.86L252,257.767L254,271.331L256,215.739L258,245.368L260,243.806L262,259.191L264,232.723L266,262.648L268,239.388L270,210.455L272,228.668L274,203.203L276,231.216L278,195.425L280,248.922L282,173.255L284,246.368L286,250.473L288,258.83L290,262.367L292,274.6L294,269.929L296,278.994L298,186.735L300,244.157L302,214.553L304,293.138L306,221.974L308,239.123L310,261.623L312,205.395L314,237.311L316,197.191L318,183.196L320,178.193L322,159.304L324,180.202L326,166.298L328,221.875L330,214.056L332,164.53L334,205.542L336,226.344L338,203.473L340,232.759L342,226.594L344,206.538L346,195.572L348,211.473L350,132.338L352,154.548L354,111.825L356,125.202L358,91.064L360,113.74L362,98.873L364,104.679L366,125.965L368,58.125L370,126.461L372,128.687L374,131.614L376,95.767L378,141.689L380,88.515L382,54.982L384,10.669L386,62.218L388,4.269L390,41.196L392,68.007L394,123.4L396,134.813L398,106.464L400,101.776L402,103.966L404,123.616L406,82.898L408,70.241L410,83.935L412,42.112L414,24.024L416,75.237L418,143.659L420,84.864L422,137.037L424,150.761L426,106.036L428,133.183L430,125.387L432,128.766L434,130.254L436,51.819L438,118.367L440,109.788L442,139.364L444,126.27L446,148.012L448,121.478L450,99.832L452,116.287L454,99.823L456,110.364L458,120.512L460,116.488L462,111.186L464,108.157L466,107.623L468,98.836L470,96.21L472,106.081L474,81.416L476,167.861L478,118.909L480,152.359L482,145.816L484,153.616L486,71.226L488,54.779L490,75.46L492,64.32L494,63.296L496,51.998L498,184.676L500,211.838L502,246.287L504,186.892L506,202.043L508,142.795L510,146.524L512,140.255L514,64.448L516,100.845L518,90.212L520,96.506L522,151.439L524,170.165L526,135.55L528,173.166L530,175.074L532,182.502L534,127.263L536,98.986L538,68.902L540,135.959L542,100.288L544,69.244L546,76.151L548,58.874L550,109.187L552,61.713L554,59.739L556,99.415L558,78.154L560,89.798L562,132.998L564,47.211L566,104.055L568,77.508L570,99.415L572,63.861L574,138.877L576,83.593L578,143.258L580,154.663L582,121.602L584,129.404L586,133.429L588,80.661L590,85.845L592,102.559L594,57.133L596,92.232L598,76.922L600,114.125L602,82.052L604,121.391L606,105.691L608,72.281L610,158.775L612,121.675L614,144.757L616,107.381L618,77.886L620,100.475L622,85.808L624,139.391L626,116.838L628,142.742L630,91.848L632,150.423L634,42.868L636,78.13L638,90.133L640,76.386L642,49.08L644,130.96L646,37.649L648,134.089L650,100.03L652,78.196L654,93.464L656,122.34L658,81.504L660,113.946L662,105.417L664,130.204L666,126.041L668,118.576L670,112.911L672,154.911L674,108.666L676,150.831L678,120.488L680,78.206L682,111.623L684,93.004L686,157.05L688,89.682L690,124.154L692,160.539L694,77.651L696,80.699L698,93.427L700,78.397L702,137.211L704,108.776L706,111.277L708,181.913L710,156.723L712,149.129L714,121.992L716,147.583L718,212.965L720,135.141L722,66.384L724,98.894L726,62.834L728,137.98L730,115.428L732,144.378L734,103.823L736,85.402L738,102.668L740,89.144L742,113.76L744,153.128L746,112.632L748,145.606L750,137.566L752,111.052L754,79.96L756,59.953L758,153.621L760,178.793L762,114.911L764,141.743L766,152.692L768,121.369L770,92.363L772,97.109L774,155.679L776,111.779L778,135.767L780,174.078L782,98.981L784,158.118L786,145.344L788,125.673L790,170.06L792,155.995L794,128.01L796,135.799L798,121.423L800,78.101L802,125.233L804,179.579L806,237.299L808,205.016L810,219.121L812,176.41L814,173.153L816,136.2L818,96.095L820,102.862L822,104.624L824,145.671L826,140.569L828,140.118L830,141.865L832,149.825L834,163.22L836,252.977L838,238.312L840,249.425L842,243.87L844,209.706L846,149.63L848,66.546L850,43.442L852,200.903L854,115.199L856,174.325L858,120.613L860,164.464L862,179.001L864,141.596L866,128.966L868,123.961L870,113.786L872,35.57L874,80.142L876,53.254L878,108.055L880,69.563L882,147.447L884,132.237L886,169.817L888,127.472L890,136.132L892,83L894,101.076L896,99.741L898,93.283L900,66.549L902,80.439L904,92.524L906,111.601L908,103.925L910,107.43L912,106.911L914,72.857L916,89.097L918,136.142L920,115.043L922,131.806L924,118.536L926,135.994L928,129.799L930,108.811L932,159.798L934,133.518L936,128.133L938,143.151L940,129.713L942,146.876L944,77.538L946,146.951L948,125.682L950,102.349L952,78.174L954,119.672L956,115.522L958,176.431L960,128.173L962,140.65L964,133.907L966,166.764L968,163.443L970,139.801L972,168.304L974,178.414L976,152.186L978,112.314L980,157.369L982,114.175L984,132.237L986,103.222L988,147.907L990,98.08L992,106.362L994,133.926L996,124.887L998,94.405L1000,74.952" stroke="#4c78a8" stroke-width="2"/></g></g><path class="foreground" aria-hidden="true" d="" display="none"/></g></g></g></svg>