<svg xmlns="http://www.w3.org/2000/svg" version="1.1" xmlns:xlink="http://www.w3.org/1999/xlink" xmlns:svgjs="http://svgjs.dev/svgjs" width="950" height="375" id="chartSvg"><path d="M9,257 L10,257 L12,257 L13,257 L14,258 L16,259 L18,259 L19,260 L21,261 L23,261 L26,262 L29,263 L32,264 L34,265 L36,265 L38,266 L41,266 L44,267 L47,268 L50,268 L52,268 L56,268 L60,268 L65,268 L70,268 L74,268 L79,268 L84,268 L90,268 L97,268 L104,268 L112,267 L120,267 L127,267 L135,267 L143,267 L152,267 L161,267 L171,267 L181,267 L190,267 L200,268 L210,268 L221,268 L232,268 L242,267 L253,266 L264,266 L275,265 L288,264 L300,264 L313,263 L327,262 L341,262 L355,261 L369,261 L384,259 L399,258 L415,256 L429,254 L443,253 L457,251 L471,249 L484,246 L498,244 L512,242 L526,239 L541,236 L555,232 L569,229 L584,224 L597,220 L611,217 L624,213 L638,209 L652,206 L666,201 L679,197 L692,193 L706,189 L719,185 L732,182 L745,178 L758,174 L771,170 L784,166 L798,162 L811,159 L823,155 L836,151 L848,148 L860,144 L871,141 L882,137 L893,134 L904,130 L913,127 L923,124 L932,121 L942,119 L951,117 L960,114" fill="none" stroke="red" stroke-width="3"/></svg>