<svg xmlns="http://www.w3.org/2000/svg" version="1.1" xmlns:xlink="http://www.w3.org/1999/xlink" xmlns:svgjs="http://svgjs.dev/svgjs" width="950" height="375" id="chartSvg"><path d="M23,47 L23,46 L23,45 L22,45 L22,44 L22,45 L23,46 L24,48 L25,50 L27,52 L29,55 L31,57 L32,60 L34,62 L35,64 L36,66 L36,68 L37,70 L38,71 L39,73 L39,74 L40,76 L41,78 L43,79 L44,81 L45,83 L46,84 L47,85 L48,87 L50,89 L51,91 L52,92 L53,94 L54,95 L55,96 L56,97 L56,98 L57,99 L58,99 L58,100 L58,101 L58,102 L59,102 L59,103 L59,104 L59,105 L60,105 L60,106 L60,107 L61,108 L61,109 L61,110 L62,111 L62,112 L63,112 L63,113 L63,114 L64,114 L64,115 L65,116 L66,117 L67,118 L68,119 L68,120 L69,122 L70,123 L71,124 L72,126 L73,127 L74,128 L75,129 L75,130 L76,131 L77,132 L78,132 L79,133 L80,134 L81,135 L82,135 L83,136 L83,137 L84,138 L85,139 L86,140 L86,141 L87,142 L88,143 L88,144 L89,145 L89,146 L90,146 L90,147 L91,148 L91,149 L92,149 L93,150 L94,151 L95,152 L96,154 L97,154 L98,156 L99,157 L100,158 L101,159 L102,160 L103,161 L105,162 L105,163 L107,164 L107,165 L108,166 L109,166 L109,167 L110,168 L111,169 L112,170 L112,171 L113,172 L114,173 L115,174 L116,176 L117,177 L118,178 L119,180 L121,181 L122,183 L123,183 L124,184 L125,185 L126,186 L127,187 L127,188 L128,189 L129,190 L130,191 L131,192 L132,193 L132,194 L133,195 L134,196 L134,197 L135,198 L136,198 L136,199 L137,200 L138,201 L138,202 L139,202 L140,203 L141,204 L141,205 L142,206 L143,207 L144,207 L144,208 L145,208 L145,209 L146,210 L147,210 L148,210 L149,210 L150,211 L151,211 L151,212 L153,212 L154,213 L156,214 L157,215 L158,215 L159,213 L159,212 L160,210 L161,208 L163,207 L164,205 L166,203 L167,201 L169,199 L171,197 L172,195 L174,193 L176,191 L177,189 L179,187 L180,185 L182,184 L183,182 L185,180 L186,179 L187,178 L188,176 L189,175 L190,174 L190,173 L191,172 L191,171 L192,171 L193,170 L193,169 L194,168 L195,167 L196,166 L197,165 L198,163 L199,161 L200,159 L201,158 L202,157 L202,156 L203,155 L205,154 L207,153 L207,152 L208,152 L209,151 L210,151 L211,151 L212,150 L213,149 L214,149 L215,149 L215,148 L216,147 L217,147 L217,146 L218,146 L219,146 L219,145 L220,145 L221,145 L222,146 L223,146 L224,146 L225,146 L226,146 L227,146 L228,145 L229,145 L231,145 L232,145 L233,145 L235,145 L237,145 L238,145 L239,145 L241,145 L242,145 L243,145 L244,145 L246,145 L248,145 L249,145 L250,145 L251,146 L252,146 L254,146 L256,146 L257,146 L258,146 L259,146 L261,146 L261,147 L263,147 L264,147 L266,147 L267,148 L269,148 L271,148 L273,148 L274,149 L276,149 L277,149 L279,150 L281,151 L282,151 L283,151 L285,152 L286,152 L286,153 L287,154 L288,154 L289,155 L290,156 L291,157 L291,158 L292,159 L293,160 L294,161 L295,161 L296,163 L298,163 L300,165 L301,166 L303,166 L304,168 L306,168 L307,169 L308,170 L308,171 L309,171 L309,172 L310,173 L311,175 L312,177 L313,179 L314,181 L316,183 L317,185 L319,187 L321,189 L322,190 L324,192 L325,193 L327,195 L328,196 L330,198 L331,199 L333,200 L335,202 L336,203 L338,204 L339,205 L340,206 L342,207 L343,207 L344,209 L345,210 L347,211 L349,212 L350,213 L352,213 L354,214 L355,214 L357,214 L359,214 L360,214 L361,214 L363,214 L364,214 L365,214 L366,214 L368,214 L369,214 L371,214 L374,214 L375,214 L377,214 L379,214 L380,213 L381,213 L382,212 L383,212 L384,212 L385,211 L386,211 L387,210 L388,210 L390,209 L391,208 L393,207 L394,205 L396,204 L398,203 L399,202 L401,200 L403,199 L404,198 L405,197 L406,196 L407,195 L408,195 L408,194 L409,193 L410,192 L411,191 L412,190 L413,190 L414,190 L415,189 L417,188 L418,188 L419,188 L420,188 L421,188 L422,188 L423,188 L424,188 L425,188 L426,188 L427,188 L429,188 L430,188 L431,188 L432,188 L433,187 L434,187 L435,187 L436,187 L437,187 L439,187 L441,187 L443,186 L446,186 L449,186 L452,186 L454,185 L456,186 L457,186 L459,187 L459,188 L461,188 L461,189 L462,189 L463,190 L464,190 L465,191 L466,191 L467,192 L467,193 L469,193 L469,194 L471,195 L472,195 L474,196 L475,197 L476,198 L477,198 L479,199 L480,199 L481,200 L483,200 L484,200 L484,202 L485,203 L486,204 L488,205 L490,206 L492,207 L495,208 L498,209 L502,210 L506,211 L508,211 L510,212 L512,212 L514,212 L516,213 L518,214 L521,214 L523,215 L525,215 L527,216 L528,217 L530,217 L533,218 L535,218 L538,218 L540,219 L543,219 L546,219 L549,220 L552,220 L555,220 L559,221 L561,222 L562,223 L563,224 L565,225 L568,227 L572,229 L575,232 L579,233 L582,234 L584,234 L587,235 L590,236 L594,237 L597,238 L600,239 L603,239 L606,240 L610,241 L614,241 L618,242 L621,243 L624,244 L628,244 L631,245 L634,246 L637,247 L640,248 L643,249 L647,249 L650,251 L652,251 L655,253 L657,254 L660,255 L663,256 L666,256 L670,257 L673,259 L676,260 L679,261 L682,262 L685,263 L689,264 L692,266 L695,267 L698,268 L701,268 L704,269 L706,269 L709,270 L711,271 L714,272 L718,273 L722,274 L726,276 L729,276 L733,277 L737,278 L742,279 L745,280 L749,281 L754,281 L758,281 L762,282 L767,283 L771,284 L775,284 L779,284 L782,285 L784,286 L787,288 L791,290 L794,291 L797,292 L799,293 L802,293 L804,293 L806,293 L809,294 L811,294 L815,294 L818,294 L821,293 L825,293 L829,293 L834,292 L838,291 L843,291 L848,291 L853,291 L858,291 L863,290 L868,290 L873,290 L878,290 L883,290 L887,289 L892,289 L897,289 L901,289 L906,288 L910,288 L914,288 L918,288 L921,288 L924,288 L926,288" fill="none" stroke="red" stroke-width="3"/></svg>