<svg xmlns="http://www.w3.org/2000/svg" xmlns:xlink="http://www.w3.org/1999/xlink" version="1.1" class="marks" width="1012" height="385" viewBox="0 0 1012 385"><rect width="1012" height="385" fill="white"/><g fill="none" stroke-miterlimit="10" transform="translate(7,5)"><g class="mark-group role-frame root" role="graphics-object" aria-roledescription="group mark container"><g transform="translate(0,0)"><path class="background" aria-hidden="true" d="M0.5,0.5h1000v375h-1000Z" stroke="#ddd"/><g><g class="mark-group role-axis" role="graphics-symbol" aria-roledescription="axis" aria-label="X-axis for a linear scale with values from 0 to 4,000"><g transform="translate(0.5,375.5)"><path class="background" aria-hidden="true" d="M0,0h0v0h0Z" pointer-events="none"/><g><g class="mark-rule role-axis-domain" pointer-events="none"><line transform="translate(0,0)" x2="1000" y2="0" stroke="#888" stroke-width="1" opacity="1"/></g></g><path class="foreground" aria-hidden="true" d="" pointer-events="none" display="none"/></g></g><g class="mark-group role-axis" role="graphics-symbol" aria-roledescription="axis" aria-label="Y-axis for a linear scale with values from −150 to 250"><g transform="translate(0.5,0.5)"><path class="background" aria-hidden="true" d="M0,0h0v0h0Z" pointer-events="none"/><g><g class="mark-rule role-axis-domain" pointer-events="none"><line transform="translate(0,375)" x2="0" y2="-375" stroke="#888" stroke-width="1" opacity="1"/></g></g><path class="foreground" aria-hidden="true" d="" pointer-events="none" display="none"/></g></g><g class="mark-line role-mark marks" role="graphics-object" aria-roledescription="line mark container"><path aria-label="x: 1; y: −14.6488632121" role="graphics-symbol" aria-roledescription="line mark" d="M0.25,248.108L0.5,173.771L0.75,192.07L1,217.257L1.25,265.765L1.5,137.439L1.75,179.08L2,246.841L2.25,248.544L2.5,303.267L2.75,229.165L3,278.001L3.25,190.657L3.5,167.523L3.75,257.72L4,225.178L4.25,271.452L4.5,255.861L4.75,162.491L5,199.679L5.25,235.395L5.5,264.176L5.75,183.214L6,248.26L6.25,240.748L6.5,224.17L6.75,206.057L7,297.694L7.25,223.505L7.5,214.069L7.75,214.89L8,217.292L8.25,190.412L8.5,182.032L8.75,301.296L9,209.566L9.25,317.217L9.5,205.857L9.75,219.804L10,216.281L10.25,113.122L10.5,99.063L10.75,250.841L11,169.953L11.25,211.829L11.5,255.198L11.75,210.379L12,130.628L12.25,152.551L12.5,175.585L12.75,248.646L13,203.311L13.25,203.415L13.5,176.158L13.75,237.33L14,245.11L14.25,273.34L14.5,140.88L14.75,204.214L15,241.342L15.25,196.089L15.5,206.523L15.75,167.498L16,198.097L16.25,156.486L16.5,142.07L16.75,101.856L17,211.458L17.25,168.352L17.5,120.233L17.75,132.74L18,196.765L18.25,258.893L18.5,215.142L18.75,127.588L19,173.702L19.25,212.477L19.5,202.616L19.75,235.702L20,200.809L20.25,237.138L20.5,130.7L20.75,200.905L21,243.198L21.25,208.076L21.5,115.925L21.75,169.056L22,221.768L22.25,207.107L22.5,203.691L22.75,171.537L23,119.013L23.25,181.889L23.5,168.615L23.75,105.584L24,219.54L24.25,201.903L24.5,289.06L24.75,172.885L25,127.886L25.25,203.948L25.5,104.313L25.75,185.738L26,179.8L26.25,136.175L26.5,219.59L26.75,121.129L27,208.256L27.25,114.817L27.5,228.556L27.75,256.126L28,205.603L28.25,208.177L28.5,193.985L28.75,150.164L29,187.21L29.25,295.34L29.5,152.844L29.75,175.564L30,154.238L30.25,169.322L30.5,116.226L30.75,243.477L31,89.694L31.25,175.573L31.5,108.095L31.75,123.511L32,127.526L32.25,167.194L32.5,171.991L32.75,173.531L33,253.205L33.25,226.424L33.5,130.206L33.75,118.076L34,149.813L34.25,164.916L34.5,220.564L34.75,174.641L35,130.582L35.25,131.634L35.5,155.438L35.75,179.582L36,137.859L36.25,169.317L36.5,145.691L36.75,158.636L37,135.06L37.25,158.27L37.5,191.192L37.75,125.312L38,131.424L38.25,117.738L38.5,100.787L38.75,193.426L39,195.273L39.25,199.667L39.5,160.25L39.75,127.35L40,139.037L40.25,141.578L40.5,117.754L40.75,215.538L41,166.094L41.25,227.618L41.5,101.36L41.75,131.083L42,241.513L42.25,160.321L42.5,244.928L42.75,185.835L43,183.705L43.25,89.886L43.5,153.412L43.75,110.494L44,148.612L44.25,180.296L44.5,118.706L44.75,265.566L45,158.896L45.25,121.318L45.5,149.454L45.75,211.22L46,188.232L46.25,217.9L46.5,225.588L46.75,253.037L47,59.623L47.25,100.078L47.5,186.957L47.75,199.644L48,127.414L48.25,219.281L48.5,202.082L48.75,177.873L49,113.385L49.25,153.766L49.5,178.541L49.75,152.367L50,215.167L50.25,205.119L50.5,133.584L50.75,155.87L51,166.805L51.25,112.641L51.5,181.721L51.75,115.13L52,110.456L52.25,243.919L52.5,186.925L52.75,201.086L53,177.869L53.25,147.883L53.5,160.148L53.75,168.44L54,170.954L54.25,160.431L54.5,196.883L54.75,155.577L55,93.337L55.25,132.668L55.5,112.45L55.75,162.549L56,169.653L56.25,228.202L56.5,199.489L56.75,226.863L57,191.045L57.25,219.276L57.5,163.062L57.75,168.27L58,118.66L58.25,111.318L58.5,155.594L58.75,201.537L59,170.137L59.25,188.179L59.5,133.848L59.75,193.125L60,230.114L60.25,168.725L60.5,117.36L60.75,122.514L61,230.8L61.25,147.581L61.5,266.432L61.75,213.968L62,112.116L62.25,157.426L62.5,130.795L62.75,204.354L63,169.677L63.25,91.453L63.5,239.537L63.75,159.219L64,203.632L64.25,171.485L64.5,202.96L64.75,132.803L65,194.046L65.25,150.516L65.5,120.441L65.75,112.797L66,170.878L66.25,117.92L66.5,132.57L66.75,126.755L67,159.605L67.25,217.193L67.5,120.721L67.75,158.029L68,149.303L68.25,231.594L68.5,113.327L68.75,140.581L69,157.787L69.25,166.008L69.5,152.292L69.75,118.739L70,228.806L70.25,188.151L70.5,99.423L70.75,191.642L71,152.7L71.25,283.629L71.5,181.847L71.75,194.305L72,125.201L72.25,164.126L72.5,191.778L72.75,187.092L73,130.939L73.25,178.172L73.5,151.918L73.75,147.07L74,204.039L74.25,163.662L74.5,142.17L74.75,182.39L75,164.275L75.25,159.094L75.5,149.211L75.75,175.206L76,229.891L76.25,176.198L76.5,214.893L76.75,184.677L77,180.569L77.25,190.747L77.5,208.524L77.75,174.294L78,135.364L78.25,166.341L78.5,183.941L78.75,112.477L79,115.494L79.25,182.978L79.5,216.943L79.75,174.391L80,206.072L80.25,210.383L80.5,124.338L80.75,206.876L81,184.744L81.25,223.198L81.5,130.546L81.75,235.094L82,143.488L82.25,186.956L82.5,164.327L82.75,156.367L83,199.325L83.25,245.062L83.5,215.685L83.75,187.987L84,219.163L84.25,183.438L84.5,186.979L84.75,208.892L85,148.979L85.25,154.89L85.5,160.994L85.75,158.831L86,234.881L86.25,212.656L86.5,111.299L86.75,140.94L87,266.441L87.25,249.233L87.5,206.72L87.75,214.297L88,221.722L88.25,240.843L88.5,180.007L88.75,138.217L89,224.252L89.25,139.891L89.5,161.042L89.75,151.861L90,249.233L90.25,168.464L90.5,227.182L90.75,199.819L91,183.972L91.25,240.896L91.5,242.729L91.75,173.223L92,282.264L92.25,220.348L92.5,176.179L92.75,229.931L93,251.151L93.25,232.373L93.5,198.958L93.75,261.167L94,287.567L94.25,247.844L94.5,237.933L94.75,273.093L95,225.104L95.25,179.45L95.5,230.756L95.75,263.135L96,186.95L96.25,221.58L96.5,227.914L96.75,159.266L97,163.294L97.25,129.255L97.5,229.677L97.75,187.546L98,280.875L98.25,209.783L98.5,276.021L98.75,193.554L99,261.937L99.25,269.075L99.5,247.017L99.75,160.052L100,138.288L100.25,211.434L100.5,251.116L100.75,175.094L101,246.203L101.25,195.157L101.5,212.981L101.75,149.034L102,129.382L102.25,152.675L102.5,171.862L102.75,205.886L103,170.154L103.25,129.292L103.5,207.515L103.75,186.449L104,158.337L104.25,150.122L104.5,163.868L104.75,187.863L105,239.227L105.25,141.885L105.5,181.034L105.75,272.009L106,171.257L106.25,191.81L106.5,275.516L106.75,150.133L107,197.764L107.25,238.044L107.5,238.333L107.75,162.621L108,212.85L108.25,287.539L108.5,239.441L108.75,219.447L109,205.764L109.25,151.015L109.5,173.816L109.75,142.37L110,185.849L110.25,179.59L110.5,163.896L110.75,202.741L111,206.557L111.25,185.21L111.5,162.174L111.75,300.712L112,183.055L112.25,214.869L112.5,187.732L112.75,149.857L113,127.426L113.25,223.203L113.5,170.103L113.75,165.211L114,169.614L114.25,162.104L114.5,225.009L114.75,128.365L115,221.654L115.25,153.036L115.5,206.654L115.75,127.126L116,242.553L116.25,132.373L116.5,106.555L116.75,255.694L117,211.006L117.25,222.568L117.5,142.885L117.75,182.044L118,185.377L118.25,205.241L118.5,164.438L118.75,229.002L119,220.317L119.25,209.993L119.5,183.942L119.75,194.045L120,260.447L120.25,175.034L120.5,156.935L120.75,199.712L121,142.667L121.25,182.67L121.5,139.648L121.75,153.843L122,158.156L122.25,174.614L122.5,209.519L122.75,203.71L123,163.433L123.25,202.701L123.5,121.687L123.75,154.442L124,141.833L124.25,235.005L124.5,177.05L124.75,186.846L125,248.969L125.25,152.451L125.5,113.27L125.75,131.847L126,242.891L126.25,87.56L126.5,193.966L126.75,105.769L127,169.636L127.25,132.006L127.5,151.399L127.75,173.448L128,181.841L128.25,164.384L128.5,155.964L128.75,173.845L129,208.556L129.25,229.428L129.5,153.738L129.75,126.114L130,82.66L130.25,80.075L130.5,193.188L130.75,135.732L131,117.674L131.25,173.371L131.5,205.033L131.75,168.705L132,245.536L132.25,235.91L132.5,84.342L132.75,264.136L133,191.349L133.25,179.747L133.5,163.635L133.75,141.093L134,118.772L134.25,112.145L134.5,178.937L134.75,163.004L135,114.731L135.25,183.179L135.5,205.059L135.75,131.458L136,152.545L136.25,152.095L136.5,114.401L136.75,155.577L137,203.109L137.25,134.062L137.5,80.248L137.75,194.73L138,104.417L138.25,222.197L138.5,219.031L138.75,212.403L139,208.053L139.25,186.061L139.5,165.841L139.75,126.373L140,132.97L140.25,83.569L140.5,201.483L140.75,231.603L141,159.352L141.25,92.607L141.5,162.731L141.75,237.757L142,120.85L142.25,193.566L142.5,102.884L142.75,200.425L143,134.161L143.25,126.357L143.5,164.153L143.75,171.628L144,190.219L144.25,182.94L144.5,170.747L144.75,176.724L145,117.913L145.25,119.848L145.5,150.011L145.75,190.652L146,231.35L146.25,142.349L146.5,151.878L146.75,159.669L147,206.012L147.25,133.953L147.5,137.722L147.75,96.858L148,176.894L148.25,247.408L148.5,144.025L148.75,143.13L149,166.541L149.25,174.705L149.5,142.993L149.75,45.813L150,185.826L150.25,204.668L150.5,183.406L150.75,108.322L151,181.579L151.25,178.73L151.5,139.35L151.75,189.628L152,137.971L152.25,125.312L152.5,197.261L152.75,176.691L153,139.926L153.25,157.145L153.5,118.09L153.75,148.856L154,126.362L154.25,165.567L154.5,150.267L154.75,172.139L155,107.247L155.25,179.511L155.5,209.817L155.75,215.708L156,180.867L156.25,173.631L156.5,203.317L156.75,229.571L157,101.277L157.25,110.724L157.5,82.245L157.75,199.582L158,120.072L158.25,232.996L158.5,206.666L158.75,179.111L159,173.234L159.25,120.454L159.5,136.467L159.75,193.219L160,145.558L160.25,174.054L160.5,149.151L160.75,214.697L161,216.866L161.25,141.136L161.5,162.308L161.75,194.913L162,102.875L162.25,74.938L162.5,203.818L162.75,217.343L163,245.808L163.25,146.074L163.5,149.358L163.75,225.914L164,174.985L164.25,168.569L164.5,90.968L164.75,222.675L165,142.23L165.25,116.031L165.5,150.285L165.75,152.542L166,218.346L166.25,174.078L166.5,216.038L166.75,198.05L167,267.215L167.25,162.072L167.5,202.633L167.75,132.011L168,193.915L168.25,208.88L168.5,198.603L168.75,201.863L169,253.153L169.25,183.439L169.5,151.201L169.75,211.177L170,153.838L170.25,143.632L170.5,105.168L170.75,199.669L171,181.465L171.25,136.063L171.5,195.28L171.75,247.338L172,114.304L172.25,201.12L172.5,153.233L172.75,164.134L173,147.828L173.25,265.602L173.5,281.545L173.75,150.889L174,165.456L174.25,204.132L174.5,222.197L174.75,212.29L175,179.865L175.25,117.069L175.5,140.874L175.75,273.958L176,252.597L176.25,113.308L176.5,213.174L176.75,184.655L177,198.06L177.25,242.035L177.5,217.071L177.75,205.817L178,167.648L178.25,232.635L178.5,185.706L178.75,202.17L179,244.448L179.25,185.649L179.5,225.49L179.75,198.72L180,243.085L180.25,217.866L180.5,238.527L180.75,171.445L181,230.719L181.25,232.534L181.5,224.388L181.75,247.563L182,111.533L182.25,180.89L182.5,157.525L182.75,152.381L183,244.523L183.25,171.769L183.5,266.939L183.75,173.753L184,215.288L184.25,232.541L184.5,193.821L184.75,185.099L185,160.059L185.25,204.479L185.5,230.177L185.75,164.544L186,194.014L186.25,161.732L186.5,147.304L186.75,257.73L187,172.778L187.25,258.598L187.5,179.858L187.75,180.316L188,207.447L188.25,289.646L188.5,185.291L188.75,126.798L189,169.61L189.25,230.01L189.5,283.847L189.75,92.219L190,218.639L190.25,222.864L190.5,190.71L190.75,171.069L191,146.477L191.25,218.404L191.5,238.943L191.75,153.116L192,184.614L192.25,188.719L192.5,230.289L192.75,204.11L193,232.078L193.25,204.288L193.5,213.697L193.75,270.37L194,149.043L194.25,182.289L194.5,174.668L194.75,243.791L195,226.025L195.25,183.972L195.5,260.009L195.75,243.835L196,245.311L196.25,270.683L196.5,187.712L196.75,132.547L197,241.782L197.25,253.58L197.5,125.837L197.75,275.359L198,79.452L198.25,159.605L198.5,231.412L198.75,127.384L199,162.39L199.25,187.729L199.5,186.265L199.75,189.076L200,186.107L200.25,171.046L200.5,152.986L200.75,92.613L201,157.154L201.25,220.699L201.5,193.624L201.75,129.203L202,142.327L202.25,150.342L202.5,147.253L202.75,119.275L203,134.208L203.25,152.433L203.5,173.909L203.75,127.307L204,131.063L204.25,136.894L204.5,117.301L204.75,173.916L205,158.176L205.25,207.439L205.5,220.265L205.75,249.714L206,155.258L206.25,130.477L206.5,258.479L206.75,188.988L207,145.035L207.25,260.325L207.5,174.661L207.75,152.916L208,227.148L208.25,153.097L208.5,198.258L208.75,120.39L209,172.976L209.25,206.234L209.5,136.117L209.75,199.656L210,194.698L210.25,204.412L210.5,133.605L210.75,207.46L211,100.394L211.25,205.484L211.5,280.831L211.75,179.255L212,223.277L212.25,193.761L212.5,119.763L212.75,106L213,175.063L213.25,174.339L213.5,146.895L213.75,163.309L214,212.249L214.25,205.573L214.5,162.037L214.75,157.735L215,242.261L215.25,74.114L215.5,192.112L215.75,160.675L216,212.207L216.25,158.591L216.5,160.344L216.75,154.455L217,128.738L217.25,168.047L217.5,166.623L217.75,149.987L218,228.092L218.25,196.314L218.5,141.009L218.75,185.222L219,198.006L219.25,160.709L219.5,205.195L219.75,195.001L220,172.025L220.25,243.097L220.5,205.609L220.75,204.804L221,190.862L221.25,120.267L221.5,181.501L221.75,206.355L222,142.604L222.25,142.214L222.5,103.14L222.75,126.636L223,238.329L223.25,180.536L223.5,125.476L223.75,152.844L224,232.254L224.25,169.042L224.5,239.795L224.75,145.237L225,148.215L225.25,173.51L225.5,80.334L225.75,102.217L226,153.494L226.25,170.358L226.5,117.608L226.75,211.775L227,152.021L227.25,93.049L227.5,104.87L227.75,204.892L228,141.766L228.25,111.241L228.5,149.144L228.75,215.668L229,199.484L229.25,165.721L229.5,151.551L229.75,84.605L230,175.626L230.25,145.231L230.5,220.933L230.75,191.126L231,181.892L231.25,187.564L231.5,124.631L231.75,171.374L232,210.996L232.25,117.321L232.5,166.293L232.75,185.512L233,162.117L233.25,225.155L233.5,203.98L233.75,185.017L234,124.08L234.25,99.684L234.5,123.966L234.75,135.182L235,156.048L235.25,139.561L235.5,110.1L235.75,167.695L236,119.894L236.25,133.991L236.5,120.312L236.75,164.201L237,115.703L237.25,90.578L237.5,124.694L237.75,100.202L238,240.799L238.25,161.34L238.5,195.859L238.75,223.077L239,174.269L239.25,103.841L239.5,109.609L239.75,188.497L240,179.559L240.25,181.547L240.5,172.172L240.75,119.264L241,206.789L241.25,157.946L241.5,169.112L241.75,207.32L242,162.754L242.25,77.514L242.5,160.855L242.75,109.7L243,152.536L243.25,113.677L243.5,129.227L243.75,154.568L244,105.695L244.25,216.561L244.5,118.836L244.75,148.365L245,131.899L245.25,129.824L245.5,201.269L245.75,124.245L246,208.606L246.25,180.932L246.5,178.091L246.75,135.226L247,157.563L247.25,105.226L247.5,130.292L247.75,149.714L248,155.884L248.25,142.447L248.5,152.18L248.75,159.206L249,157.501L249.25,142.584L249.5,211.706L249.75,142.735L250,192.46L250.25,143.091L250.5,238.989L250.75,144.34L251,167.461L251.25,102.538L251.5,178.74L251.75,158.354L252,182.954L252.25,166.812L252.5,204.54L252.75,249.498L253,195.268L253.25,179.589L253.5,180.964L253.75,205.1L254,137.408L254.25,192.749L254.5,172.784L254.75,183.677L255,133.724L255.25,193.389L255.5,180.405L255.75,197.097L256,205.866L256.25,122.246L256.5,220.911L256.75,149.665L257,158.211L257.25,132.716L257.5,193.336L257.75,151.016L258,116.968L258.25,178.466L258.5,265.042L258.75,165.49L259,182.617L259.25,130.052L259.5,185.615L259.75,108.197L260,289.881L260.25,263.55L260.5,250.439L260.75,220.066L261,116.339L261.25,186.169L261.5,174.459L261.75,194.399L262,138.898L262.25,172.586L262.5,127.107L262.75,173.109L263,191.12L263.25,241.833L263.5,167.424L263.75,127.708L264,187.34L264.25,163.058L264.5,173.877L264.75,211.573L265,206.198L265.25,206.43L265.5,182.56L265.75,209.059L266,226.943L266.25,166.372L266.5,211.406L266.75,150.541L267,175.093L267.25,139.49L267.5,182.359L267.75,151.852L268,182.59L268.25,263.763L268.5,193.541L268.75,207.186L269,164.883L269.25,200.485L269.5,170.983L269.75,147.551L270,175.447L270.25,177.825L270.5,159.095L270.75,270.395L271,224.967L271.25,161.591L271.5,132.996L271.75,209.889L272,158.617L272.25,238.856L272.5,168.019L272.75,168.038L273,225.82L273.25,151.732L273.5,325.389L273.75,231.241L274,217.347L274.25,178.936L274.5,134.743L274.75,94.391L275,113.768L275.25,244.045L275.5,300.177L275.75,147.137L276,252.987L276.25,125.774L276.5,254.507L276.75,223.559L277,215.862L277.25,249.974L277.5,254.876L277.75,250.452L278,208.183L278.25,210.684L278.5,268.097L278.75,245.613L279,241.275L279.25,226.728L279.5,209.893L279.75,216.296L280,229.963L280.25,205.331L280.5,259.343L280.75,145.674L281,204.472L281.25,280.307L281.5,179.605L281.75,311.931L282,161.402L282.25,189.456L282.5,225.586L282.75,178.057L283,194.418L283.25,234.859L283.5,114.892L283.75,156.414L284,226.546L284.25,212.903L284.5,205.485L284.75,164.618L285,136.079L285.25,200.145L285.5,241.79L285.75,168.335L286,223.561L286.25,233.713L286.5,111.922L286.75,251.59L287,170.126L287.25,146.522L287.5,180.186L287.75,221.096L288,271.164L288.25,207.999L288.5,165.102L288.75,161.626L289,117.284L289.25,192.784L289.5,190.425L289.75,176.386L290,181.548L290.25,223.12L290.5,122.118L290.75,213.77L291,182.229L291.25,177.167L291.5,167.492L291.75,154.997L292,196.02L292.25,197.932L292.5,241.437L292.75,210.82L293,208.902L293.25,188.48L293.5,211.094L293.75,211.534L294,234.979L294.25,205.892L294.5,174.472L294.75,219.055L295,154.327L295.25,153.264L295.5,182.534L295.75,141.435L296,196.952L296.25,196.364L296.5,152.131L296.75,220.064L297,144.247L297.25,162.017L297.5,181.164L297.75,211.609L298,122.734L298.25,124.084L298.5,211.757L298.75,202.819L299,268.533L299.25,161.885L299.5,199.66L299.75,111.738L300,179.263L300.25,167.144L300.5,260.94L300.75,201.543L301,79.3L301.25,173.074L301.5,311.895L301.75,166.428L302,139.513L302.25,212.372L302.5,240.397L302.75,202.377L303,181.506L303.25,145.793L303.5,139.095L303.75,112.344L304,173.063L304.25,124.841L304.5,187.039L304.75,298.592L305,161.497L305.25,161.639L305.5,143.04L305.75,197.992L306,172.48L306.25,171.204L306.5,204.405L306.75,170.893L307,193.358L307.25,209.831L307.5,165.529L307.75,224.058L308,137.856L308.25,207.941L308.5,198.037L308.75,169.679L309,158.071L309.25,109.155L309.5,178.929L309.75,122.819L310,227.884L310.25,154.107L310.5,173.196L310.75,98.448L311,126.539L311.25,145.327L311.5,166.598L311.75,158.11L312,146.384L312.25,213.199L312.5,208.575L312.75,229.787L313,200.389L313.25,182.017L313.5,155.789L313.75,154.755L314,158.283L314.25,217.17L314.5,145.565L314.75,92.258L315,108.445L315.25,140.873L315.5,184.72L315.75,165.601L316,153.194L316.25,184.186L316.5,176.22L316.75,175.689L317,203.999L317.25,188.154L317.5,116.875L317.75,147.045L318,143.748L318.25,182.723L318.5,109.562L318.75,283.835L319,144.649L319.25,124.085L319.5,169.911L319.75,84.204L320,210.418L320.25,137.508L320.5,218.445L320.75,235.38L321,154.541L321.25,171.624L321.5,135.644L321.75,172.806L322,127.541L322.25,127.952L322.5,166.586L322.75,197.866L323,120.279L323.25,97.053L323.5,197.649L323.75,161.131L324,86.723L324.25,127.418L324.5,128.928L324.75,113.812L325,124.738L325.25,176.108L325.5,127.813L325.75,146.296L326,220.696L326.25,106.466L326.5,150.869L326.75,108.862L327,62.907L327.25,164.86L327.5,227.721L327.75,171.821L328,219.017L328.25,216.77L328.5,174.528L328.75,130.91L329,157.91L329.25,128.288L329.5,64.242L329.75,180.859L330,162.814L330.25,200.94L330.5,159.416L330.75,203.272L331,109.28L331.25,60.556L331.5,248.638L331.75,219.002L332,194.534L332.25,103.253L332.5,102.518L332.75,218.442L333,118.966L333.25,125.005L333.5,187.833L333.75,170.18L334,162.258L334.25,153.048L334.5,41.043L334.75,178.565L335,64.101L335.25,197.029L335.5,125.534L335.75,168.468L336,179.933L336.25,223.459L336.5,165.78L336.75,149.545L337,146.404L337.25,167.068L337.5,162.05L337.75,105.57L338,184.176L338.25,189.264L338.5,109.183L338.75,71.487L339,135.703L339.25,172.235L339.5,201.177L339.75,192.152L340,112.708L340.25,175.67L340.5,161.513L340.75,193.91L341,159.858L341.25,164.724L341.5,143.675L341.75,169.498L342,144.034L342.25,233.342L342.5,194.992L342.75,185.297L343,112.399L343.25,169.193L343.5,150.986L343.75,168.474L344,186.239L344.25,114.897L344.5,193.145L344.75,143.164L345,118.573L345.25,167.241L345.5,177.393L345.75,226.891L346,150.968L346.25,204.893L346.5,149.88L346.75,139.336L347,200.469L347.25,162.008L347.5,139.08L347.75,224.323L348,167.782L348.25,149.773L348.5,86.606L348.75,152.128L349,113.287L349.25,132.598L349.5,154.128L349.75,198.198L350,179.057L350.25,229.104L350.5,219.82L350.75,205.972L351,168.203L351.25,178.347L351.5,191.708L351.75,159.56L352,151.14L352.25,193.225L352.5,130.427L352.75,218.286L353,167.026L353.25,70.206L353.5,134.847L353.75,221.571L354,156.427L354.25,110.151L354.5,205.131L354.75,230.876L355,216.192L355.25,153.774L355.5,122.334L355.75,249.898L356,232.304L356.25,281.444L356.5,139.268L356.75,191.811L357,170.357L357.25,238.231L357.5,195.021L357.75,157.973L358,138.912L358.25,195.177L358.5,250.946L358.75,220.256L359,307.906L359.25,190.723L359.5,213.427L359.75,252.958L360,193.58L360.25,171.799L360.5,207.318L360.75,166.09L361,160.146L361.25,247.798L361.5,228.644L361.75,160.895L362,162.256L362.25,218.451L362.5,197.468L362.75,191.238L363,150.758L363.25,191.296L363.5,237.714L363.75,131.537L364,280.335L364.25,186.085L364.5,177.129L364.75,218.015L365,222.641L365.25,239.775L365.5,266.056L365.75,158.755L366,286.083L366.25,234.585L366.5,190.52L366.75,201.695L367,270.274L367.25,172.529L367.5,239.646L367.75,169.843L368,161.316L368.25,289.916L368.5,250.096L368.75,154.878L369,226.279L369.25,125.394L369.5,218.038L369.75,184.892L370,177.646L370.25,162.642L370.5,155.636L370.75,214.341L371,317.601L371.25,216.685L371.5,193.43L371.75,239.688L372,254.064L372.25,190.365L372.5,201.553L372.75,187.592L373,227.382L373.25,225.073L373.5,184.393L373.75,216.977L374,162.928L374.25,214.574L374.5,207.683L374.75,217.046L375,256.305L375.25,199.488L375.5,226.09L375.75,213.154L376,274.271L376.25,213.217L376.5,250.711L376.75,254.697L377,280.561L377.25,219.994L377.5,160.755L377.75,190.19L378,183.413L378.25,214.474L378.5,200.461L378.75,198.16L379,272.177L379.25,232.023L379.5,176.482L379.75,194.444L380,124.041L380.25,186.625L380.5,153.517L380.75,206.421L381,198.581L381.25,240.227L381.5,194.436L381.75,181.335L382,263.737L382.25,238.257L382.5,224.03L382.75,254.46L383,173.351L383.25,200.413L383.5,127.006L383.75,230.588L384,212.684L384.25,189.115L384.5,165.658L384.75,196.283L385,146.39L385.25,158.003L385.5,190.531L385.75,296.246L386,104.447L386.25,218.923L386.5,223.127L386.75,68.404L387,209.895L387.25,173.825L387.5,144.991L387.75,129.797L388,174.496L388.25,174.72L388.5,224.613L388.75,222.246L389,257.781L389.25,242.546L389.5,139.345L389.75,129.859L390,195.427L390.25,249.36L390.5,140.554L390.75,224.572L391,240.659L391.25,179.364L391.5,218.331L391.75,123.833L392,257.956L392.25,203.958L392.5,203.972L392.75,189.157L393,158.302L393.25,186.294L393.5,223.782L393.75,125.158L394,126.411L394.25,174.343L394.5,211.309L394.75,171.138L395,195.325L395.25,200.506L395.5,183.639L395.75,100.393L396,224.911L396.25,181.739L396.5,171.694L396.75,238.079L397,126.385L397.25,170.867L397.5,178.365L397.75,127.225L398,200.295L398.25,127.498L398.5,243.054L398.75,172.889L399,143.937L399.25,128.257L399.5,200.536L399.75,197.91L400,241.662L400.25,109.358L400.5,42.782L400.75,182.019L401,199.716L401.25,162.905L401.5,104.28L401.75,75.182L402,78.225L402.25,159.288L402.5,139.812L402.75,154.516L403,146.737L403.25,124.464L403.5,174.866L403.75,198.254L404,143.921L404.25,124.039L404.5,155.547L404.75,197.447L405,87.758L405.25,90.31L405.5,282.647L405.75,171.415L406,140.176L406.25,195.155L406.5,133.124L406.75,148.126L407,90.451L407.25,230.875L407.5,189.517L407.75,157.087L408,151.775L408.25,198.585L408.5,164.953L408.75,123.98L409,61.795L409.25,233.501L409.5,83.878L409.75,153.239L410,89.83L410.25,111.126L410.5,169.179L410.75,135.9L411,169.609L411.25,190.211L411.5,183.528L411.75,166.916L412,186.939L412.25,155.622L412.5,93.502L412.75,178.535L413,114.597L413.25,217.765L413.5,98.621L413.75,103.867L414,185.552L414.25,142.774L414.5,98.333L414.75,170.139L415,183.824L415.25,116.501L415.5,185.865L415.75,125.125L416,130.393L416.25,205.985L416.5,158.257L416.75,192.868L417,221.67L417.25,183.002L417.5,172.234L417.75,164.1L418,205.619L418.25,178.116L418.5,96.05L418.75,138.453L419,134.467L419.25,179.465L419.5,181.621L419.75,211.727L420,94.193L420.25,145.975L420.5,166.521L420.75,152.807L421,99.624L421.25,152.124L421.5,74.651L421.75,152.668L422,117.553L422.25,110.673L422.5,186.494L422.75,207.886L423,187.41L423.25,137.879L423.5,168.055L423.75,168.298L424,85.886L424.25,140.02L424.5,162.58L424.75,166.999L425,119.983L425.25,207.063L425.5,176.727L425.75,223.444L426,183.35L426.25,107.175L426.5,165.154L426.75,188.535L427,90.562L427.25,133.079L427.5,157.799L427.75,206.826L428,143.005L428.25,116.453L428.5,109.337L428.75,108.193L429,109.015L429.25,214.488L429.5,207.903L429.75,191.611L430,186.18L430.25,134.802L430.5,123.143L430.75,147.247L431,225.958L431.25,165.17L431.5,151.367L431.75,74.631L432,230.274L432.25,93.552L432.5,171.723L432.75,122.378L433,134.133L433.25,187.36L433.5,172.943L433.75,199.089L434,232.662L434.25,245.124L434.5,189.963L434.75,100.148L435,266.607L435.25,57.113L435.5,222.577L435.75,160.649L436,156.143L436.25,174.458L436.5,192.232L436.75,158.766L437,100.092L437.25,136.024L437.5,207.653L437.75,117.64L438,148.752L438.25,173.331L438.5,116.502L438.75,145.649L439,211.246L439.25,178.511L439.5,132.58L439.75,217.073L440,173.965L440.25,124.817L440.5,120.998L440.75,135.019L441,224.577L441.25,226.86L441.5,229.364L441.75,226.359L442,124.823L442.25,214.144L442.5,276.787L442.75,140.87L443,201.809L443.25,222.793L443.5,209.078L443.75,139.53L444,192.866L444.25,183.244L444.5,271.766L444.75,174.188L445,130.93L445.25,202.725L445.5,176.787L445.75,231.658L446,289.938L446.25,227.603L446.5,227.709L446.75,134.341L447,208.979L447.25,179.896L447.5,180.546L447.75,244.706L448,151.917L448.25,254.869L448.5,191.654L448.75,159.192L449,142.621L449.25,292.216L449.5,232.298L449.75,346.809L450,255.559L450.25,264.994L450.5,178.114L450.75,171.874L451,196.562L451.25,236.506L451.5,211.19L451.75,134.425L452,235.028L452.25,179.958L452.5,255.646L452.75,184.464L453,280.255L453.25,139.661L453.5,213.609L453.75,290.8L454,196.888L454.25,198.508L454.5,148.945L454.75,247.19L455,147.28L455.25,146.581L455.5,194.246L455.75,212.697L456,153.193L456.25,240.827L456.5,203.906L456.75,190.211L457,211.825L457.25,257.885L457.5,227.226L457.75,207.793L458,231.419L458.25,254.579L458.5,228.394L458.75,192.507L459,175.697L459.25,202.213L459.5,209.413L459.75,201.544L460,296.048L460.25,226.481L460.5,154.332L460.75,215.546L461,239.479L461.25,169.692L461.5,178.815L461.75,208.334L462,188.782L462.25,263.415L462.5,235.192L462.75,286.678L463,262.923L463.25,249.211L463.5,208.349L463.75,231.585L464,326.72L464.25,158.582L464.5,133.202L464.75,224.301L465,144.484L465.25,186.36L465.5,201.321L465.75,126.349L466,197.448L466.25,256.806L466.5,176.878L466.75,191.808L467,263.657L467.25,232.212L467.5,209.083L467.75,236.998L468,252.245L468.25,156.914L468.5,238.019L468.75,147.665L469,203.572L469.25,192.723L469.5,202.626L469.75,231.701L470,142.48L470.25,211.603L470.5,181.441L470.75,290.644L471,178.838L471.25,265.572L471.5,203.416L471.75,137.61L472,159.937L472.25,163.712L472.5,187.114L472.75,224.283L473,114.596L473.25,136.702L473.5,154.088L473.75,205.095L474,215.274L474.25,265.215L474.5,288.95L474.75,142.957L475,180.113L475.25,218.456L475.5,281.87L475.75,94.122L476,301.743L476.25,163.167L476.5,267.797L476.75,233.138L477,178.101L477.25,202.22L477.5,182.59L477.75,183.375L478,295.849L478.25,192.052L478.5,94.942L478.75,177.491L479,176.858L479.25,148.323L479.5,87.515L479.75,185.044L480,297.739L480.25,267.795L480.5,219.695L480.75,244.392L481,245.751L481.25,150.742L481.5,121.842L481.75,214.815L482,156.324L482.25,221.25L482.5,167.759L482.75,195.623L483,165.212L483.25,175.263L483.5,209.741L483.75,154.557L484,188.201L484.25,121.326L484.5,224.805L484.75,194.087L485,184.388L485.25,175.286L485.5,195.235L485.75,172.569L486,144.513L486.25,165.174L486.5,160.344L486.75,203.638L487,174.223L487.25,259.127L487.5,174.81L487.75,154.048L488,221.157L488.25,154.03L488.5,131.713L488.75,223.789L489,152.114L489.25,66.024L489.5,224.62L489.75,193.184L490,246.936L490.25,205.812L490.5,252.886L490.75,157.513L491,197.43L491.25,169.14L491.5,203.426L491.75,179.425L492,120.887L492.25,190.505L492.5,153.452L492.75,236.004L493,106.814L493.25,155.345L493.5,187.785L493.75,151.185L494,127.001L494.25,246.43L494.5,136.166L494.75,128.427L495,180.819L495.25,242.608L495.5,176.097L495.75,152.546L496,110.088L496.25,130.299L496.5,129.623L496.75,170.997L497,169.831L497.25,135.04L497.5,174.075L497.75,211.471L498,182.311L498.25,209.577L498.5,115.587L498.75,147.677L499,117.77L499.25,155.065L499.5,149.392L499.75,146.207L500,205.724L500.25,121.807L500.5,178.695L500.75,142.219L501,222.007L501.25,107.8L501.5,178.443L501.75,178.425L502,222.291L502.25,198.124L502.5,153.735L502.75,145.233L503,155.087L503.25,104.269L503.5,112.451L503.75,149.888L504,150.688L504.25,135.766L504.5,203.967L504.75,86.182L505,117.831L505.25,202.73L505.5,92.996L505.75,86.524L506,164.701L506.25,231.702L506.5,221.588L506.75,127.585L507,141.638L507.25,161.957L507.5,112.966L507.75,205.512L508,167.669L508.25,263.049L508.5,141.608L508.75,91.089L509,95.181L509.25,158.997L509.5,206.872L509.75,244.91L510,176.415L510.25,89.786L510.5,163.206L510.75,55.149L511,247.595L511.25,102.93L511.5,198.574L511.75,159.861L512,172.314L512.25,248.335L512.5,193.567L512.75,174.057L513,201.568L513.25,174.717L513.5,154.892L513.75,176.429L514,230.216L514.25,148.511L514.5,157.214L514.75,124.448L515,124.222L515.25,243.238L515.5,191.049L515.75,130.917L516,275.125L516.25,189.158L516.5,156.476L516.75,131.474L517,122.8L517.25,152.291L517.5,223.144L517.75,76.799L518,114.603L518.25,67.921L518.5,224.97L518.75,184.146L519,78.552L519.25,115.732L519.5,129.46L519.75,173.867L520,191.253L520.25,81.715L520.5,218.104L520.75,202.401L521,148.311L521.25,79.216L521.5,120.558L521.75,148.883L522,207.084L522.25,183.685L522.5,118.334L522.75,144.283L523,87.004L523.25,158.149L523.5,102.799L523.75,197.075L524,238.202L524.25,157.639L524.5,153.462L524.75,167.58L525,130.63L525.25,138.332L525.5,220.166L525.75,142.465L526,122.25L526.25,92.478L526.5,108.309L526.75,212.256L527,188.306L527.25,192.069L527.5,129.326L527.75,194.915L528,217.123L528.25,171.866L528.5,185.759L528.75,201.799L529,127.156L529.25,210.331L529.5,170.4L529.75,138.875L530,253.983L530.25,172.989L530.5,163.123L530.75,224.609L531,95.863L531.25,153.142L531.5,204.822L531.75,233.133L532,201.897L532.25,151.524L532.5,108.774L532.75,187.66L533,227.008L533.25,122.787L533.5,185.468L533.75,142.615L534,186.447L534.25,184.742L534.5,179.188L534.75,173.662L535,123.698L535.25,195.085L535.5,176.64L535.75,134.227L536,251.226L536.25,142.967L536.5,248.027L536.75,257.844L537,143.851L537.25,197.136L537.5,152.788L537.75,165.745L538,129.206L538.25,239.777L538.5,160.717L538.75,97.803L539,154.313L539.25,206.366L539.5,229.153L539.75,257.321L540,228.936L540.25,162.779L540.5,188.596L540.75,129.256L541,161.16L541.25,245.78L541.5,227.886L541.75,147.52L542,193.905L542.25,174.615L542.5,89.586L542.75,207.21L543,203.171L543.25,201.295L543.5,156.421L543.75,160.901L544,172.534L544.25,242.92L544.5,242.659L544.75,230.9L545,169.339L545.25,127.584L545.5,189.877L545.75,191.675L546,185.054L546.25,161.807L546.5,222.902L546.75,277.342L547,175.05L547.25,210.508L547.5,172.872L547.75,163.57L548,219.797L548.25,231.761L548.5,120.93L548.75,185.248L549,174.799L549.25,291.318L549.5,266.666L549.75,131.396L550,121.145L550.25,230.406L550.5,174.554L550.75,226.269L551,206.881L551.25,194.676L551.5,265.928L551.75,262.694L552,249.802L552.25,191.203L552.5,174.668L552.75,208.007L553,216.757L553.25,229.058L553.5,191.464L553.75,171.839L554,205.897L554.25,253.87L554.5,94.3L554.75,110.013L555,196.923L555.25,205.855L555.5,219.342L555.75,198.64L556,199.59L556.25,221.974L556.5,177.452L556.75,219.589L557,140.823L557.25,193.365L557.5,183L557.75,211.532L558,203.282L558.25,188.47L558.5,247.102L558.75,279.252L559,91.924L559.25,230.873L559.5,235.068L559.75,259.174L560,213.645L560.25,239.687L560.5,204.7L560.75,212.804L561,186.501L561.25,159.102L561.5,154.831L561.75,182.321L562,234.037L562.25,165.242L562.5,143.247L562.75,306.333L563,177.122L563.25,241.625L563.5,175.883L563.75,222.238L564,137.611L564.25,200.601L564.5,230.542L564.75,196.507L565,165.372L565.25,130.559L565.5,150.382L565.75,118.354L566,119.955L566.25,245.277L566.5,224.551L566.75,163.388L567,160.987L567.25,206.872L567.5,129.874L567.75,172.659L568,142.661L568.25,206.325L568.5,156.918L568.75,210.463L569,199.353L569.25,100.463L569.5,211.551L569.75,192.037L570,147.072L570.25,142.379L570.5,186.039L570.75,209.364L571,223.321L571.25,176.156L571.5,170.531L571.75,192.757L572,168.321L572.25,171.006L572.5,172.185L572.75,208.486L573,182.621L573.25,183.447L573.5,150.944L573.75,173.16L574,219.193L574.25,254.633L574.5,196.331L574.75,130.644L575,197.275L575.25,208.396L575.5,207.569L575.75,149.349L576,160.896L576.25,126.981L576.5,214.843L576.75,157.394L577,234.454L577.25,180.143L577.5,130.999L577.75,250.377L578,232.453L578.25,126.407L578.5,210.835L578.75,128.119L579,282.717L579.25,171.323L579.5,244.141L579.75,240.7L580,152.201L580.25,278.905L580.5,196.021L580.75,168.939L581,156.211L581.25,101.115L581.5,147.609L581.75,99.842L582,183.617L582.25,175.717L582.5,204.381L582.75,114.317L583,147.406L583.25,209.182L583.5,109.716L583.75,216.226L584,205.297L584.25,167.689L584.5,114.101L584.75,179.29L585,177.834L585.25,238.699L585.5,160.848L585.75,231.524L586,181.876L586.25,194.825L586.5,149.068L586.75,130.032L587,164.703L587.25,223.659L587.5,170.629L587.75,170.513L588,141.394L588.25,141.787L588.5,92.242L588.75,135.867L589,204.398L589.25,171.466L589.5,115.775L589.75,136.064L590,173.324L590.25,137.699L590.5,155.632L590.75,62.834L591,137.289L591.25,126.826L591.5,190.583L591.75,239.625L592,131.71L592.25,156.567L592.5,198.514L592.75,132.804L593,174.579L593.25,119.031L593.5,177.969L593.75,160.594L594,192.295L594.25,173.106L594.5,135.914L594.75,47.731L595,189.893L595.25,96.507L595.5,179.056L595.75,139.679L596,178.155L596.25,67.026L596.5,201.53L596.75,145.589L597,208.696L597.25,188.564L597.5,165.119L597.75,232.638L598,184.323L598.25,124.333L598.5,153.945L598.75,146.317L599,129.13L599.25,233.348L599.5,126.519L599.75,92.098L600,261.721L600.25,209.289L600.5,163.821L600.75,240.034L601,88.549L601.25,130.74L601.5,185.777L601.75,113.021L602,231.89L602.25,142.672L602.5,183.699L602.75,85.525L603,174.292L603.25,133.303L603.5,241.48L603.75,114.044L604,145.569L604.25,118.984L604.5,176.465L604.75,172.099L605,227.793L605.25,188.459L605.5,149.918L605.75,147.405L606,228.661L606.25,91.641L606.5,181.598L606.75,187.015L607,124.651L607.25,187.859L607.5,184.972L607.75,72.51L608,195.264L608.25,162.162L608.5,209.817L608.75,205.081L609,150.24L609.25,147.49L609.5,160.144L609.75,150.355L610,217.701L610.25,127.374L610.5,161.956L610.75,176.565L611,206.971L611.25,261.211L611.5,192.521L611.75,40.321L612,162.3L612.25,191.146L612.5,112.18L612.75,237.675L613,84.183L613.25,218.285L613.5,174.066L613.75,155.017L614,210.05L614.25,136.291L614.5,155.627L614.75,164.036L615,132.947L615.25,192.829L615.5,164.051L615.75,170.18L616,153.873L616.25,174.726L616.5,115.877L616.75,205.197L617,236.085L617.25,110.013L617.5,145.638L617.75,72.216L618,183.49L618.25,169.013L618.5,198.986L618.75,194.794L619,120.23L619.25,134.677L619.5,152.142L619.75,166.138L620,132.508L620.25,156.837L620.5,151.057L620.75,194.392L621,237.239L621.25,186.146L621.5,201.93L621.75,220.658L622,151.055L622.25,218.538L622.5,235.057L622.75,150.55L623,158.662L623.25,184.211L623.5,147.359L623.75,179.255L624,298.868L624.25,172.064L624.5,179.547L624.75,193.378L625,192.086L625.25,178.709L625.5,133.936L625.75,213.661L626,276.638L626.25,176.551L626.5,128.431L626.75,200.912L627,177.195L627.25,222.193L627.5,241.328L627.75,174.127L628,189.903L628.25,163.816L628.5,159.799L628.75,183.363L629,245.664L629.25,231.296L629.5,85.958L629.75,216.088L630,177.946L630.25,213.353L630.5,207.205L630.75,202.727L631,135.688L631.25,171.771L631.5,246.03L631.75,149.477L632,205.828L632.25,196.263L632.5,196.694L632.75,262.379L633,130.728L633.25,202.607L633.5,145.309L633.75,200.627L634,170.195L634.25,199.239L634.5,192.505L634.75,208.742L635,172.173L635.25,212.848L635.5,236.513L635.75,217.354L636,196.117L636.25,258.457L636.5,197.196L636.75,131.194L637,250.558L637.25,221.716L637.5,172.28L637.75,138.215L638,129.3L638.25,173.942L638.5,191.751L638.75,197.195L639,293.689L639.25,240.732L639.5,173.559L639.75,145.629L640,143.154L640.25,245.593L640.5,292.372L640.75,224.718L641,246.764L641.25,187.883L641.5,243.356L641.75,194.633L642,172.44L642.25,219.459L642.5,242.767L642.75,262.965L643,182.415L643.25,87.902L643.5,183.733L643.75,193.613L644,122.24L644.25,150.832L644.5,181.583L644.75,205.798L645,239.77L645.25,117.716L645.5,226.898L645.75,238.772L646,173.962L646.25,248.639L646.5,258.765L646.75,206.673L647,247.101L647.25,158.941L647.5,314.259L647.75,189.03L648,147.643L648.25,275.438L648.5,123.137L648.75,115.131L649,143.797L649.25,205.105L649.5,206.032L649.75,134.12L650,226.176L650.25,274.111L650.5,251.729L650.75,246.252L651,164.896L651.25,114.64L651.5,159.175L651.75,151.137L652,147.597L652.25,227.135L652.5,154.104L652.75,195.773L653,227.863L653.25,170.798L653.5,236.693L653.75,171.733L654,209.587L654.25,205.057L654.5,120.128L654.75,169.298L655,190.769L655.25,232.933L655.5,256.921L655.75,158.401L656,192.096L656.25,139.262L656.5,236.324L656.75,210.149L657,234.872L657.25,192.271L657.5,167.414L657.75,189.961L658,228.081L658.25,132.671L658.5,139.172L658.75,197.926L659,177.099L659.25,218.458L659.5,138.796L659.75,148.392L660,260.863L660.25,276.846L660.5,233.912L660.75,259.92L661,211.468L661.25,210.235L661.5,154.369L661.75,150.859L662,193.671L662.25,226.257L662.5,154.201L662.75,136.697L663,190.952L663.25,167.275L663.5,258.264L663.75,129.989L664,215.295L664.25,201.98L664.5,231.674L664.75,157.787L665,212.936L665.25,168.582L665.5,212.806L665.75,204.811L666,166.149L666.25,237.655L666.5,93.172L666.75,189.986L667,169.897L667.25,211.659L667.5,166.222L667.75,216.771L668,152.47L668.25,207.929L668.5,201.465L668.75,174.647L669,237.959L669.25,223.85L669.5,235.759L669.75,180.136L670,117.354L670.25,154.195L670.5,242.536L670.75,229.644L671,213.672L671.25,222.047L671.5,129.44L671.75,162.743L672,178.785L672.25,166.026L672.5,177.519L672.75,146.468L673,148.004L673.25,164.529L673.5,154.46L673.75,104.9L674,146.157L674.25,186.713L674.5,166.656L674.75,231.681L675,143.852L675.25,228.731L675.5,189.268L675.75,162.208L676,155.06L676.25,189.537L676.5,177.869L676.75,206.185L677,117.303L677.25,153.207L677.5,168.07L677.75,252.825L678,127.024L678.25,171.491L678.5,238.239L678.75,79.627L679,166.349L679.25,144.279L679.5,135.461L679.75,208.668L680,98.936L680.25,204.989L680.5,184.71L680.75,148.732L681,225.816L681.25,140.013L681.5,148.669L681.75,74.844L682,213.814L682.25,136.769L682.5,191.12L682.75,197.755L683,174.394L683.25,183.883L683.5,134.873L683.75,165.472L684,163.872L684.25,133.135L684.5,169.999L684.75,66.507L685,151.605L685.25,143.738L685.5,219.086L685.75,207.022L686,113.366L686.25,92.83L686.5,172.494L686.75,67.292L687,80.402L687.25,186.351L687.5,138.496L687.75,149.69L688,182.47L688.25,189.423L688.5,122.781L688.75,162.272L689,171.539L689.25,133.902L689.5,139.428L689.75,155.88L690,146.841L690.25,131.565L690.5,129.812L690.75,145.636L691,122.229L691.25,170.107L691.5,200.946L691.75,137.923L692,186.934L692.25,116.963L692.5,140.961L692.75,149.952L693,109.16L693.25,203.397L693.5,212.037L693.75,119.903L694,157.349L694.25,153.225L694.5,47.138L694.75,224.968L695,175.073L695.25,102.896L695.5,163.273L695.75,176.911L696,114.109L696.25,122.009L696.5,165.374L696.75,166.103L697,84.196L697.25,140.504L697.5,73.584L697.75,185.158L698,177.642L698.25,96.307L698.5,134.903L698.75,67.797L699,203.241L699.25,164.675L699.5,165.7L699.75,189.296L700,209.425L700.25,243.022L700.5,175.878L700.75,170.445L701,207.739L701.25,135.763L701.5,121.34L701.75,191.136L702,82.788L702.25,139.027L702.5,126.378L702.75,91.967L703,141.521L703.25,133.871L703.5,135.831L703.75,148.642L704,142.275L704.25,176.439L704.5,207.658L704.75,201.366L705,139.36L705.25,140.359L705.5,60.762L705.75,168.034L706,81.283L706.25,121.958L706.5,138.992L706.75,78.219L707,185.764L707.25,74.33L707.5,196.36L707.75,205.585L708,240.336L708.25,250.317L708.5,174.724L708.75,162.143L709,120.799L709.25,145.538L709.5,154.89L709.75,244.596L710,109.722L710.25,168.999L710.5,134.651L710.75,252.763L711,64.718L711.25,183.04L711.5,206.551L711.75,133.286L712,259.299L712.25,237.673L712.5,105.09L712.75,187.404L713,210.499L713.25,157.73L713.5,173.744L713.75,170.34L714,228.104L714.25,232.224L714.5,222.126L714.75,193.489L715,205.414L715.25,172.549L715.5,234.683L715.75,188.155L716,214.588L716.25,82.929L716.5,156.25L716.75,205.089L717,212.079L717.25,207.373L717.5,154.013L717.75,227.756L718,160.276L718.25,194.55L718.5,176.99L718.75,182.538L719,227.509L719.25,189.702L719.5,153.936L719.75,216.728L720,211.791L720.25,213.848L720.5,251.772L720.75,252.749L721,174.703L721.25,190.841L721.5,201.386L721.75,180.573L722,166.797L722.25,234.386L722.5,201.563L722.75,144.071L723,220.554L723.25,154.808L723.5,192.983L723.75,212.716L724,204.009L724.25,220.224L724.5,185.461L724.75,235.577L725,206.067L725.25,182.772L725.5,212.542L725.75,201.509L726,200.907L726.25,232.352L726.5,162.155L726.75,250.656L727,129.1L727.25,187.934L727.5,135.409L727.75,190.901L728,228.852L728.25,181.977L728.5,198.338L728.75,245.107L729,223.027L729.25,113.772L729.5,271.397L729.75,239.456L730,241.752L730.25,223.45L730.5,169.621L730.75,183.409L731,248.247L731.25,229.136L731.5,270.072L731.75,220.841L732,238.044L732.25,232.181L732.5,193.212L732.75,188.368L733,209.566L733.25,196.098L733.5,180.013L733.75,226.558L734,253.545L734.25,238.52L734.5,245.469L734.75,253.279L735,195.237L735.25,252.537L735.5,194.014L735.75,187.278L736,234.88L736.25,257.161L736.5,207.974L736.75,254.18L737,196.75L737.25,226.235L737.5,146.169L737.75,131.843L738,316.152L738.25,239.446L738.5,210.945L738.75,205.242L739,154.073L739.25,219.295L739.5,164.055L739.75,290.839L740,253.028L740.25,206.845L740.5,154.774L740.75,153.793L741,232.247L741.25,267.541L741.5,174.48L741.75,143.421L742,212.768L742.25,156.121L742.5,184.52L742.75,145.734L743,203.202L743.25,214.34L743.5,192.125L743.75,167.823L744,156.791L744.25,155.748L744.5,166.626L744.75,137.88L745,197.017L745.25,186.453L745.5,186.866L745.75,134.872L746,151.938L746.25,184.076L746.5,254.896L746.75,209.712L747,174.562L747.25,219.379L747.5,240.741L747.75,160.067L748,202.359L748.25,149.023L748.5,147.508L748.75,124.243L749,199.688L749.25,318.712L749.5,175.993L749.75,129.954L750,209.112L750.25,218.16L750.5,211.42L750.75,167.196L751,217.217L751.25,164.48L751.5,99.318L751.75,192.376L752,134.341L752.25,165.212L752.5,181.137L752.75,129.752L753,221.307L753.25,124.839L753.5,123.429L753.75,214.992L754,232.529L754.25,180.221L754.5,208.232L754.75,213.418L755,205.918L755.25,226.862L755.5,223.866L755.75,156.364L756,144.277L756.25,197.873L756.5,218.213L756.75,161.027L757,202.494L757.25,127.714L757.5,178.506L757.75,202.477L758,177.461L758.25,167.767L758.5,196.222L758.75,157.146L759,179.718L759.25,184.245L759.5,204.848L759.75,161.934L760,155.945L760.25,211.273L760.5,153.704L760.75,136.934L761,142.192L761.25,117.582L761.5,107.955L761.75,114.486L762,118.258L762.25,142.298L762.5,181.267L762.75,129.608L763,160.106L763.25,244.501L763.5,277.297L763.75,237.045L764,82.838L764.25,94.219L764.5,198.875L764.75,171.04L765,156.823L765.25,119.18L765.5,209.831L765.75,159.453L766,152.626L766.25,161.516L766.5,166.983L766.75,25.821L767,149.285L767.25,167.603L767.5,150.165L767.75,162.792L768,145.416L768.25,113.481L768.5,166.55L768.75,166.082L769,166.998L769.25,126.936L769.5,203.12L769.75,198.952L770,110.081L770.25,221.889L770.5,106.718L770.75,124.251L771,189.654L771.25,180.859L771.5,148.364L771.75,155.348L772,162.143L772.25,149.955L772.5,90.904L772.75,135.546L773,181.912L773.25,125.212L773.5,210.858L773.75,249.967L774,136.955L774.25,142.915L774.5,186.47L774.75,129.893L775,85.411L775.25,115.999L775.5,201.91L775.75,117.006L776,110.387L776.25,114.882L776.5,153.405L776.75,119.776L777,93.815L777.25,153.699L777.5,112.558L777.75,74.323L778,210.68L778.25,140.808L778.5,137.75L778.75,114.37L779,147.374L779.25,176.326L779.5,291.102L779.75,165.985L780,115.058L780.25,160.721L780.5,227.148L780.75,79.115L781,171.753L781.25,202.539L781.5,168.17L781.75,201.171L782,75.174L782.25,116.383L782.5,210.841L782.75,217.731L783,221.931L783.25,152.757L783.5,206.93L783.75,197.89L784,92.262L784.25,116.99L784.5,78.465L784.75,164.234L785,196.928L785.25,153.022L785.5,140.303L785.75,151.337L786,156.896L786.25,122.866L786.5,226.544L786.75,161.463L787,28.17L787.25,238.125L787.5,193.03L787.75,119.452L788,169.231L788.25,111.323L788.5,131.325L788.75,200.786L789,124.758L789.25,177.877L789.5,175.685L789.75,144.537L790,142.623L790.25,208.357L790.5,122.884L790.75,121.931L791,149.573L791.25,158.266L791.5,119.38L791.75,140.257L792,177.137L792.25,115.896L792.5,144.27L792.75,128.353L793,191.216L793.25,212.393L793.5,156.908L793.75,169.894L794,130.154L794.25,188.504L794.5,136L794.75,141.583L795,202.97L795.25,125.792L795.5,159.962L795.75,126.074L796,236.302L796.25,141.67L796.5,97.877L796.75,126.747L797,217.714L797.25,216.356L797.5,115.392L797.75,151.271L798,117.996L798.25,213.737L798.5,168.544L798.75,180.562L799,142.299L799.25,194.745L799.5,48.162L799.75,43.034L800,211.049L800.25,169.432L800.5,170.797L800.75,196.842L801,142.868L801.25,102.478L801.5,119.43L801.75,200.76L802,158.864L802.25,152.484L802.5,123.856L802.75,162.834L803,208.837L803.25,172.771L803.5,217.34L803.75,148.259L804,208.806L804.25,145.302L804.5,232.779L804.75,203.676L805,219.755L805.25,265.395L805.5,130.454L805.75,180.371L806,60.015L806.25,185.145L806.5,219.452L806.75,97.04L807,195.291L807.25,130.841L807.5,240.591L807.75,197.773L808,205.454L808.25,270.359L808.5,253.785L808.75,160.364L809,188.226L809.25,152.269L809.5,222.687L809.75,163.71L810,196.056L810.25,220.135L810.5,209.047L810.75,216.725L811,123.52L811.25,212.047L811.5,230.203L811.75,235.977L812,229.968L812.25,208.137L812.5,158.309L812.75,200.28L813,162.993L813.25,211.331L813.5,290.676L813.75,133.25L814,166.327L814.25,227.319L814.5,198.851L814.75,252.472L815,106.32L815.25,175.636L815.5,205.991L815.75,192.31L816,255.575L816.25,225.63L816.5,176.764L816.75,216.558L817,177.793L817.25,150.921L817.5,184.549L817.75,206.97L818,235.732L818.25,230.408L818.5,163.165L818.75,228.225L819,197.282L819.25,222.258L819.5,209.485L819.75,188.056L820,220.198L820.25,168.9L820.5,133.18L820.75,170.886L821,173.605L821.25,204.947L821.5,230.611L821.75,183.302L822,254.461L822.25,139.569L822.5,249.405L822.75,216.329L823,202.286L823.25,162.983L823.5,183.55L823.75,109.395L824,223.321L824.25,257.111L824.5,237.257L824.75,218.243L825,210.099L825.25,205.043L825.5,178.132L825.75,241.341L826,205.631L826.25,171.686L826.5,221.506L826.75,245.614L827,268.047L827.25,227.253L827.5,169.344L827.75,201.524L828,259.589L828.25,221.532L828.5,263.137L828.75,174.988L829,287.195L829.25,272.263L829.5,145.06L829.75,229.185L830,188.962L830.25,172.346L830.5,146.111L830.75,271.009L831,283.79L831.25,258.248L831.5,229.54L831.75,203.736L832,207.167L832.25,237.058L832.5,238.077L832.75,155.189L833,209.094L833.25,253.126L833.5,256.922L833.75,208.025L834,243.704L834.25,238.828L834.5,117.144L834.75,232.74L835,116.241L835.25,96.386L835.5,171.597L835.75,236.919L836,237.878L836.25,244.474L836.5,255.933L836.75,148.825L837,311.786L837.25,244.647L837.5,157.947L837.75,192.387L838,312.722L838.25,242.614L838.5,185.024L838.75,187.26L839,109.242L839.25,228.522L839.5,191.799L839.75,192.235L840,155.619L840.25,175.489L840.5,237.201L840.75,233.007L841,186.279L841.25,178.067L841.5,197.329L841.75,220.875L842,184.185L842.25,118.164L842.5,187.557L842.75,153.751L843,172.822L843.25,138.027L843.5,189.453L843.75,212.721L844,158.924L844.25,212.024L844.5,209.404L844.75,223.751L845,179.309L845.25,223.343L845.5,248.12L845.75,132.541L846,228.424L846.25,135.302L846.5,182.105L846.75,164.99L847,227.271L847.25,268.744L847.5,105.15L847.75,179.084L848,188.751L848.25,209.556L848.5,219.147L848.75,188.271L849,230.678L849.25,173.047L849.5,175.473L849.75,142.212L850,136.579L850.25,203.285L850.5,187.399L850.75,206.29L851,178.21L851.25,231.428L851.5,240.052L851.75,249.598L852,206.379L852.25,246.49L852.5,202.228L852.75,135.269L853,204.569L853.25,120.895L853.5,200.985L853.75,96.54L854,190.484L854.25,160.02L854.5,181.584L854.75,142.891L855,102.462L855.25,200.082L855.5,96.005L855.75,214.508L856,221.189L856.25,170.066L856.5,202.944L856.75,266.209L857,189.887L857.25,138.583L857.5,141.384L857.75,177.711L858,167.814L858.25,165.1L858.5,172.982L858.75,190.068L859,161.123L859.25,150.653L859.5,174.318L859.75,140.01L860,100.968L860.25,203.982L860.5,158.55L860.75,94.653L861,117.267L861.25,197.412L861.5,230.438L861.75,170.014L862,154.62L862.25,142.764L862.5,136.066L862.75,115.014L863,182.65L863.25,178.793L863.5,174.696L863.75,264.097L864,213.538L864.25,139.176L864.5,156.306L864.75,123.387L865,131.785L865.25,166.867L865.5,105.317L865.75,185.768L866,181.125L866.25,150.399L866.5,99.302L866.75,96.73L867,110.422L867.25,128.446L867.5,144.75L867.75,151.341L868,54.904L868.25,148.739L868.5,181.445L868.75,155.171L869,146.385L869.25,200.724L869.5,142.137L869.75,121.447L870,168.02L870.25,75.655L870.5,191.848L870.75,141.193L871,167.4L871.25,152.794L871.5,121.658L871.75,101.828L872,130.776L872.25,110.618L872.5,147.867L872.75,156.046L873,108.3L873.25,128.29L873.5,108.009L873.75,170.311L874,87.349L874.25,151.396L874.5,190.776L874.75,141.017L875,210.524L875.25,136.79L875.5,128.399L875.75,114.144L876,156.846L876.25,201.842L876.5,133.034L876.75,71.871L877,126.648L877.25,112.441L877.5,159.356L877.75,103.628L878,170.419L878.25,176.232L878.5,176.342L878.75,103.358L879,240.706L879.25,154.7L879.5,224.618L879.75,126.227L880,147.889L880.25,81.772L880.5,212.58L880.75,208.731L881,97.216L881.25,173.766L881.5,112.683L881.75,212.451L882,187.011L882.25,186.445L882.5,160.687L882.75,136L883,155.672L883.25,199.962L883.5,197.142L883.75,195.118L884,200.734L884.25,210.654L884.5,278.503L884.75,124.964L885,142.347L885.25,159.937L885.5,209.69L885.75,208.526L886,147.225L886.25,132.851L886.5,211.018L886.75,117.268L887,116.802L887.25,166.115L887.5,176.288L887.75,185.083L888,183.04L888.25,186.733L888.5,132.778L888.75,148.423L889,192.714L889.25,105.591L889.5,147.361L889.75,237.114L890,173.735L890.25,170.866L890.5,212.45L890.75,140.031L891,218.235L891.25,164.017L891.5,211.957L891.75,250.014L892,195.415L892.25,121.302L892.5,197.498L892.75,176.069L893,36.433L893.25,158.81L893.5,186.62L893.75,167.171L894,242.879L894.25,160.64L894.5,208.045L894.75,187.019L895,140.14L895.25,237.648L895.5,197.792L895.75,133.47L896,187.427L896.25,168.639L896.5,150.361L896.75,206.557L897,217.366L897.25,171.498L897.5,199.096L897.75,218.596L898,188.211L898.25,106.728L898.5,219.076L898.75,196.664L899,207.246L899.25,174.525L899.5,205.118L899.75,171.951L900,190.122L900.25,168.391L900.5,205.376L900.75,212.153L901,217.314L901.25,218.78L901.5,234.625L901.75,139.028L902,289.264L902.25,264.516L902.5,212.903L902.75,206.969L903,236.796L903.25,150.829L903.5,176.649L903.75,166.799L904,235.092L904.25,91.232L904.5,193.398L904.75,192.299L905,226.113L905.25,179.66L905.5,176.911L905.75,196.043L906,127.217L906.25,247.961L906.5,210.249L906.75,166.767L907,154.769L907.25,179.078L907.5,225.965L907.75,202.107L908,234.985L908.25,164.189L908.5,152.164L908.75,154.834L909,267.45L909.25,222.383L909.5,203.346L909.75,256.43L910,204.822L910.25,161.985L910.5,214.731L910.75,220.232L911,140.81L911.25,248.216L911.5,173.866L911.75,161.85L912,227.063L912.25,176.834L912.5,124.793L912.75,167.648L913,212.448" stroke="#4c78a8" stroke-width="2"/></g></g><path class="foreground" aria-hidden="true" d="" display="none"/></g></g></g></svg>