<svg xmlns="http://www.w3.org/2000/svg" version="1.1" xmlns:xlink="http://www.w3.org/1999/xlink" xmlns:svgjs="http://svgjs.dev/svgjs" width="950" height="375" id="chartSvg"><path d="M24,257 L23,257 L23,258 L23,259 L24,258 L26,254 L28,249 L30,243 L31,237 L34,227 L36,215 L39,206 L43,200 L46,195 L48,193 L50,193 L53,194 L55,198 L57,205 L61,213 L64,223 L68,234 L73,243 L76,250 L81,254 L85,255 L90,251 L95,242 L102,229 L107,217 L112,209 L117,202 L122,196 L127,191 L133,188 L138,189 L142,194 L146,205 L151,218 L155,234 L159,248 L163,260 L166,267 L168,269 L171,269 L173,265 L177,253 L181,237 L186,218 L192,204 L195,195 L198,188 L201,184 L203,185 L207,190 L212,202 L216,215 L222,227 L229,236 L235,242 L239,246 L243,248 L249,245 L258,233 L270,215 L283,200 L293,191 L303,185 L311,179 L320,176 L327,176 L332,180 L335,188 L337,199 L338,212 L340,227 L341,243 L343,257 L344,267 L347,273 L349,274 L353,271 L363,257 L375,239 L388,220 L400,205 L408,195 L415,187 L420,182 L425,182 L429,186 L434,193 L437,203 L440,214 L444,227 L446,240 L449,252 L454,258 L460,259 L467,252 L476,238 L489,222 L503,210 L514,203 L522,200 L527,200 L531,206 L535,215 L538,227 L541,242 L545,257 L549,274 L553,291 L557,305 L562,316 L565,319 L569,318 L577,313 L586,308 L595,307 L603,304 L611,301 L619,297 L626,289 L633,280 L640,269 L650,252 L663,232 L674,219 L679,212 L680,211 L681,211 L682,213 L682,214 L683,215 L683,216 L683,215 L685,209 L690,197 L698,185 L705,177 L710,169 L716,160 L720,153 L721,151 L721,156 L718,168 L717,183 L719,198 L723,214 L725,228 L726,241 L729,249 L732,253 L735,253 L740,246 L749,230 L761,209 L773,185 L782,167 L787,154 L791,142 L795,133 L797,129 L797,135 L795,144 L794,156 L792,169 L791,183 L791,197 L792,206 L794,209 L797,208 L802,201 L811,186 L823,170 L833,156 L843,145 L854,136 L864,132 L870,133 L874,141 L876,155 L877,171 L880,186 L885,198 L889,210 L892,217 L895,218 L897,217 L904,208 L914,198 L923,187 L931,174 L938,161 L944,149 L948,139 L950,135 L951,134 L951,136 L948,141 L946,149 L943,156 L943,163 L943,168 L943,169 L943,168 L944,168 L945,166 L946,163" fill="none" stroke="red" stroke-width="3"/></svg>