<svg xmlns="http://www.w3.org/2000/svg" xmlns:xlink="http://www.w3.org/1999/xlink" version="1.1" class="marks" width="1010" height="385" viewBox="0 0 1010 385"><rect width="1010" height="385" fill="white"/><g fill="none" stroke-miterlimit="10" transform="translate(5,5)"><g class="mark-group role-frame root" role="graphics-object" aria-roledescription="group mark container"><g transform="translate(0,0)"><path class="background" aria-hidden="true" d="M0.5,0.5h1000v375h-1000Z" stroke="#ddd"/><g><g class="mark-group role-axis" role="graphics-symbol" aria-roledescription="axis" aria-label="X-axis for a linear scale with values from 0 to 500"><g transform="translate(0.5,375.5)"><path class="background" aria-hidden="true" d="M0,0h0v0h0Z" pointer-events="none"/><g><g class="mark-rule role-axis-domain" pointer-events="none"><line transform="translate(0,0)" x2="1000" y2="0" stroke="#888" stroke-width="1" opacity="1"/></g></g><path class="foreground" aria-hidden="true" d="" pointer-events="none" display="none"/></g></g><g class="mark-group role-axis" role="graphics-symbol" aria-roledescription="axis" aria-label="Y-axis for a linear scale with values from −0.2 to 0.7"><g transform="translate(0.5,0.5)"><path class="background" aria-hidden="true" d="M0,0h0v0h0Z" pointer-events="none"/><g><g class="mark-rule role-axis-domain" pointer-events="none"><line transform="translate(0,375)" x2="0" y2="-375" stroke="#888" stroke-width="1" opacity="1"/></g></g><path class="foreground" aria-hidden="true" d="" pointer-events="none" display="none"/></g></g><g class="mark-line role-mark marks" role="graphics-object" aria-roledescription="line mark container"><path aria-label="x: 1; y: 0.552178700605" role="graphics-symbol" aria-roledescription="line mark" d="M2,61.592L4,143.835L6,114.704L8,65.882L10,107.468L12,111.292L14,61.455L16,69.746L18,39.632L20,103.871L22,59.269L24,150.233L26,105.57L28,176.533L30,80.464L32,194.097L34,72.659L36,208.287L38,162.281L40,149.685L42,161.568L44,145.543L46,142.293L48,184.047L50,124.129L52,137.538L54,128.739L56,117.921L58,153.823L60,152.646L62,183.199L64,184.286L66,172.086L68,116.58L70,105.525L72,151.883L74,136.461L76,125.946L78,131.262L80,179.383L82,136.244L84,198.289L86,180.724L88,172.6L90,207.824L92,199.898L94,222.074L96,162.814L98,161.805L100,225.374L102,219.187L104,221.429L106,146.225L108,187.774L110,213.561L112,229.52L114,206.209L116,170.877L118,218.43L120,222.989L122,175.711L124,254.916L126,200.795L128,212.69L130,120.175L132,201.376L134,154.517L136,172.676L138,186.773L140,211.762L142,226.873L144,238.177L146,149.188L148,220.737L150,237.901L152,195.016L154,182.219L156,194.671L158,240.873L160,199.641L162,174.887L164,217.612L166,209.062L168,181.196L170,192.349L172,174.148L174,204.6L176,249.398L178,234.493L180,185.46L182,243.876L184,149.756L186,131.38L188,197.164L190,173.805L192,247.976L194,195.286L196,184.377L198,159.016L200,189.955L202,169.68L204,210.064L206,145.468L208,146.119L210,164.924L212,175.282L214,107.624L216,119.317L218,179.284L220,193.97L222,189.07L224,171.805L226,191.273L228,172.312L230,158.026L232,128.336L234,143.633L236,195.469L238,182.187L240,116.36L242,133.132L244,150.144L246,151.153L248,160.559L250,175.767L252,216.241L254,184.029L256,200.231L258,190.461L260,258.271L262,224.875L264,182.403L266,168.455L268,155.834L270,194.427L272,192.803L274,236.572L276,229.829L278,212.02L280,215.214L282,208.799L284,185.552L286,232.365L288,262.428L290,220.99L292,188.976L294,204.784L296,222.604L298,229.504L300,156.767L302,187.419L304,178.315L306,232.48L308,216.515L310,148.31L312,218.972L314,198.643L316,177.679L318,199.404L320,219.425L322,181.237L324,205.429L326,120.68L328,170.574L330,212.019L332,171.33L334,160.627L336,175.518L338,193.033L340,202.737L342,206.097L344,205.822L346,161.497L348,193.834L350,181.548L352,170.822L354,143.387L356,167.759L358,173.937L360,149.08L362,188.075L364,151.705L366,152.169L368,141.988L370,170.662L372,154.679L374,209.775L376,192.928L378,167.829L380,155.504L382,176.454L384,229.396L386,176.497L388,226.22L390,258.67L392,216.651L394,215.356L396,186.875L398,189.79L400,200.639L402,180.445L404,203.357L406,191.59L408,240.386L410,207.907L412,177.526L414,244.358L416,190.182L418,229.648L420,224.187L422,260.279L424,232.942L426,213.41L428,218.637L430,164.929L432,180.053L434,211.607L436,206.669L438,237.491L440,215.635L442,183.11L444,185.964L446,200.411L448,257.021L450,242.275L452,264.146L454,204.441L456,221.563L458,230.35L460,225.399L462,196.65L464,197.665L466,227.494L468,182.253L470,221.676L472,240.041L474,184.92L476,260.211L478,209.594L480,198.008L482,205.382L484,213.459L486,232.824L488,225.795L490,227.585L492,255.499L494,223.861L496,278.546L498,240.462L500,228.225L502,197.39L504,210.831L506,191.985L508,219.878L510,157.346L512,189.217L514,200.218L516,221.585L518,262.388L520,261.624L522,201.868L524,270.62L526,256.034L528,223.47L530,243.269L532,224.214L534,236.81L536,233.519L538,252.941L540,220.436L542,236.986L544,198.139L546,212.313L548,198.509L550,174.271L552,217.362L554,238.069L556,234.18L558,217.486L560,241.327L562,279.264L564,226.948L566,203.399L568,237.351L570,238.165L572,276.993L574,240.483L576,246.182L578,276.603L580,216.253L582,211.936L584,223.609L586,231.887L588,291.59L590,217.029L592,240.459L594,231.5L596,183.214L598,185.826L600,271.486L602,226.93L604,253.095L606,220.194L608,278.332L610,283.503L612,214.739L614,213.831L616,223.298L618,272.2L620,179.439L622,263.491L624,262.518L626,218.6L628,227.588L630,217.234L632,236.953L634,206.764L636,265.062L638,264.171L640,218.676L642,216.47L644,222.545L646,214.064L648,144.986L650,204.788L652,238.956L654,256.299L656,259.072L658,324.991L660,213.716L662,176.117L664,195.421L666,221.396L668,222.926L670,189.366L672,234.121L674,242.374L676,226.129L678,215.523L680,235.625L682,233.014L684,223.004L686,294.009L688,237.83L690,306.269L692,249.383L694,182.644L696,202.809L698,267.128L700,242.078L702,257.453L704,312.319L706,228.845L708,224.548L710,269.695L712,243.305L714,277.559L716,251.103L718,214.623L720,225.904L722,230.686L724,233.485L726,298.218L728,198.3L730,291.447L732,238.696L734,228.016L736,322.155L738,232.445L740,334.356L742,268.62L744,244.422L746,250.695L748,229.27L750,287.607L752,255.299L754,295.227L756,245.013L758,288.99L760,240.06L762,236.747L764,197.172L766,232.848L768,248.7L770,285.389L772,246.105L774,269.837L776,244.876L778,258.357L780,271.289L782,276.361L784,234.421L786,226.602L788,236.222L790,226.009L792,275.091L794,261.036L796,269.112L798,268.018L800,265.387L802,225.591L804,311.339L806,248.433L808,304.914L810,250.885L812,247.253L814,282.136L816,245.651L818,301.399L820,242.62L822,219.509L824,245.424L826,271.804L828,271.764L830,230.403L832,237.188L834,258.748L836,318.515L838,214.501L840,229.812L842,245.446L844,300.189L846,281.158L848,237.544L850,209.914L852,297.11L854,264.189L856,267.967L858,253.095L860,289.01L862,269.231L864,243.464L866,254.95L868,256.846L870,290.946L872,245.041L874,262.767L876,230.049L878,267.869L880,266.702L882,258.045L884,256.349L886,250.498L888,248.58L890,250.619L892,249.794L894,317.105L896,262.316L898,293.059L900,232.545L902,245.182L904,284L906,244.661L908,194.18L910,242.678L912,249.263L914,242.333L916,224.247L918,224.818L920,198.414L922,200.907L924,253.683L926,258.564L928,271.322L930,279.219L932,234.631L934,255.206L936,262.733L938,272.163L940,257.097L942,270.65L944,278.641L946,311.442L948,329.489L950,271.095L952,254.93L954,271.915L956,260.21L958,277.011L960,256.465L962,291.731L964,256.847L966,289.711L968,308.539L970,228.064" stroke="#4c78a8" stroke-width="2"/></g></g><path class="foreground" aria-hidden="true" d="" display="none"/></g></g></g></svg>