<svg xmlns="http://www.w3.org/2000/svg" version="1.1" xmlns:xlink="http://www.w3.org/1999/xlink" xmlns:svgjs="http://svgjs.dev/svgjs" width="950" height="375" id="chartSvg"><path d="M31,251 L30,251 L31,251 L32,249 L33,248 L34,246 L35,244 L36,242 L37,239 L39,238 L41,236 L42,234 L44,232 L45,230 L47,229 L48,227 L49,226 L50,226 L51,225 L52,225 L53,226 L53,228 L53,232 L53,236 L53,239 L54,242 L56,243 L58,244 L60,245 L61,246 L61,248 L62,251 L62,254 L62,257 L62,259 L62,262 L63,264 L64,267 L65,269 L66,271 L67,272 L67,275 L68,278 L69,280 L70,282 L70,284 L71,286 L72,289 L72,291 L73,292 L74,292 L75,292 L75,293 L75,292 L74,291 L73,288 L73,285 L71,281 L71,277 L70,272 L71,268 L72,264 L73,261 L74,259 L75,256 L75,254 L74,253 L73,251 L72,249 L71,246 L70,243 L70,238 L71,234 L73,229 L73,225 L74,222 L75,217 L75,213 L76,209 L77,207 L78,204 L78,202 L79,198 L81,193 L82,189 L83,186 L83,185 L82,185 L80,185 L79,185 L79,187 L78,190 L79,194 L82,199 L85,204 L88,210 L90,215 L90,222 L89,229 L89,234 L89,239 L89,244 L90,248 L91,251 L94,253 L96,256 L99,259 L100,261 L100,265 L100,268 L99,271 L99,273 L99,274 L99,276 L99,277 L100,277 L100,276 L99,273 L97,270 L96,266 L95,262 L93,256 L93,250 L95,245 L97,241 L99,237 L101,233 L102,229 L103,226 L104,224 L104,222 L104,221 L104,218 L104,214 L105,208 L105,204 L107,200 L108,197 L109,194 L110,191 L112,188 L114,183 L114,180 L114,179 L114,178 L115,175 L117,171 L119,166 L119,165 L119,166 L119,168 L117,170 L116,173 L115,177 L115,182 L117,187 L118,191 L119,195 L120,200 L121,205 L121,210 L120,215 L119,219 L120,222 L122,225 L124,228 L125,231 L126,235 L127,239 L128,242 L129,244 L130,247 L130,249 L130,253 L130,255 L131,257 L131,259 L132,259 L132,260 L132,259 L133,259 L133,257 L134,255 L134,252 L134,249 L134,244 L134,239 L134,233 L135,228 L136,225 L138,222 L139,218 L140,215 L140,213 L141,211 L141,209 L142,206 L143,202 L144,198 L146,195 L147,192 L149,188 L152,183 L154,179 L154,177 L153,178 L152,179 L152,183 L154,187 L156,191 L160,195 L165,199 L168,202 L169,207 L169,213 L169,218 L169,223 L169,227 L170,229 L171,232 L173,235 L176,237 L177,239 L178,241 L179,242 L180,244 L180,246 L179,249 L179,251 L179,254 L180,256 L181,258 L183,259 L185,259 L187,257 L189,255 L190,253 L191,251 L192,249 L192,246 L192,243 L192,240 L192,237 L192,232 L194,228 L195,224 L196,219 L197,215 L198,211 L199,207 L200,204 L200,201 L200,198 L200,196 L201,193 L201,190 L202,185 L202,181 L203,177 L204,173 L206,169 L207,165 L207,162 L208,159 L208,156 L209,155 L209,154 L208,155 L206,159 L205,164 L205,169 L205,174 L209,178 L213,183 L217,186 L219,190 L220,194 L220,198 L220,202 L221,206 L222,209 L222,212 L222,216 L222,220 L223,223 L224,226 L225,229 L226,232 L226,236 L226,239 L226,241 L226,243 L227,245 L227,247 L228,248 L229,249 L230,250 L231,249 L232,247 L234,245 L234,242 L234,237 L234,232 L234,227 L235,223 L236,220 L238,216 L240,212 L243,210 L245,207 L245,205 L245,203 L245,200 L245,198 L245,195 L245,191 L247,187 L249,182 L251,177 L253,172 L254,168 L256,165 L257,161 L257,158 L257,156 L257,155 L256,156 L256,157 L257,159 L258,163 L260,167 L263,173 L266,179 L266,185 L266,191 L266,196 L266,202 L266,207 L266,211 L266,215 L266,219 L267,222 L268,224 L270,226 L271,228 L273,230 L275,232 L277,234 L280,236 L283,238 L285,240 L286,242 L286,244 L286,245 L287,247 L288,248 L288,249 L289,249 L290,249 L291,248 L291,246 L292,244 L292,243 L292,241 L291,239 L290,237 L290,234 L290,230 L291,226 L292,222 L294,217 L295,213 L297,210 L297,206 L297,202 L297,199 L296,195 L296,191 L297,187 L299,183 L302,179 L304,176 L306,173 L308,170 L309,167 L309,164 L309,162 L309,160 L309,158 L310,158 L311,158 L313,159 L313,163 L314,167 L314,171 L314,176 L314,180 L315,185 L319,190 L325,193 L329,196 L331,200 L330,204 L329,208 L328,212 L328,216 L328,219 L328,221 L328,223 L330,226 L332,227 L334,229 L335,232 L337,234 L337,237 L339,239 L341,240 L342,242 L344,242 L345,243 L346,242 L347,242 L347,240 L348,238 L348,236 L347,233 L346,230 L344,227 L344,224 L344,220 L345,215 L347,211 L350,207 L354,202 L357,196 L358,191 L358,188 L357,185 L356,181 L355,176 L355,172 L357,168 L359,164 L362,163 L366,161 L369,159 L370,160 L370,164 L369,170 L367,175 L366,180 L366,184 L368,188 L371,191 L374,195 L376,198 L378,202 L379,205 L380,209 L381,211 L381,214 L382,216 L383,218 L385,220 L386,223 L387,225 L388,227 L388,229 L388,232 L388,234 L388,236 L388,237 L388,238 L388,239 L388,240 L389,240 L391,240 L392,239 L393,238 L394,236 L395,234 L396,232 L396,228 L395,224 L395,221 L395,216 L396,212 L398,208 L401,204 L403,200 L406,197 L408,193 L409,188 L409,185 L408,183 L408,180 L409,178 L411,174 L415,170 L418,165 L421,161 L423,159 L425,157 L426,154 L426,151 L426,149 L425,147 L426,146 L428,144 L431,141 L434,139 L436,137 L437,137 L437,138 L437,139 L437,141 L437,144 L439,146 L442,149 L443,153 L444,156 L444,160 L445,164 L445,169 L445,173 L445,178 L445,183 L447,187 L448,190 L449,193 L449,195 L451,198 L453,200 L454,201 L455,202 L454,204 L452,205 L451,207 L450,208 L450,209 L450,210 L451,211 L452,212 L453,213 L454,215 L455,215 L456,217 L457,218 L458,220 L459,222 L460,224 L462,225 L463,227 L465,227 L466,228 L467,229 L467,228 L468,227 L468,226 L468,224 L468,222 L468,218 L469,213 L471,208 L475,203 L480,199 L485,195 L489,191 L492,189 L492,187 L492,184 L491,182 L491,179 L491,176 L493,171 L497,166 L501,161 L504,156 L507,152 L508,148 L510,143 L510,139 L510,136 L509,134 L509,132 L509,131 L510,131 L511,131 L513,132 L516,134 L519,135 L523,138 L525,142 L525,147 L524,152 L523,157 L522,161 L523,166 L523,170 L525,173 L527,176 L530,179 L533,182 L533,185 L533,188 L532,191 L532,193 L531,195 L532,197 L533,199 L536,200 L540,201 L542,202 L545,202 L545,203 L546,204 L546,205 L545,207 L545,209 L544,210 L544,212 L544,214 L545,216 L545,217 L546,219 L547,221 L547,223 L547,225 L547,227 L547,228 L547,230 L547,232 L547,233 L548,234 L549,235 L550,235 L550,236 L550,237 L551,237 L552,237 L552,238 L552,239 L554,240 L556,241 L557,242 L557,243 L558,244 L559,245 L560,246 L562,246 L563,246 L564,247 L564,248 L564,250 L564,251 L564,254 L564,255 L564,256 L564,258 L565,260 L567,262 L569,264 L570,265 L570,267 L571,268 L571,270 L572,271 L573,272 L574,272 L576,273 L577,273 L579,272 L581,271 L581,270 L582,269 L583,268 L584,269 L585,270 L587,272 L588,273 L589,275 L590,275 L589,273 L586,272 L584,270 L583,268 L582,266 L582,264 L582,263 L582,261 L583,259 L584,256 L586,254 L587,250 L588,246 L589,242 L589,239 L589,235 L589,231 L586,227 L584,224 L583,221 L583,218 L584,215 L586,210 L587,206 L589,202 L591,198 L591,194 L591,190 L590,185 L590,182 L589,180 L588,178 L588,176 L590,173 L592,170 L594,166 L596,164 L598,162 L598,161 L599,158 L599,156 L598,155 L598,154 L599,153 L601,150 L602,147 L602,144 L601,141 L600,140 L599,140 L599,141 L599,143 L600,145 L601,148 L603,152 L606,156 L609,160 L612,164 L613,168 L615,172 L616,176 L617,178 L618,181 L618,183 L619,184 L621,185 L622,187 L623,188 L624,188 L625,188 L627,190 L628,191 L629,193 L630,195 L631,195 L633,195 L634,195 L635,194 L636,193 L636,192 L636,191 L636,190 L636,189 L636,188 L637,185 L637,183 L638,179 L638,175 L638,171 L638,167 L639,163 L639,158 L640,153 L640,149 L640,146 L640,143 L640,140 L640,138 L642,135 L645,130 L648,125 L650,121 L650,119 L650,118 L651,116 L652,113 L654,110 L655,107 L656,106 L657,105 L659,105 L660,104 L661,102 L662,101 L663,98 L664,95 L665,92 L666,91 L667,89 L669,86 L670,82 L671,78 L672,77 L671,76 L671,77 L672,79 L674,81 L676,84 L678,85 L679,87 L681,87 L683,88 L685,88 L687,89 L687,91 L687,94 L688,98 L690,102 L692,104 L694,105 L697,105 L700,105 L703,104 L704,104 L704,105 L706,106 L708,107 L710,108 L712,107 L714,104 L716,101 L717,98 L717,94 L718,91 L718,88 L719,85 L720,83 L721,81 L724,80 L727,79 L730,78 L733,77 L734,75 L736,75 L738,74 L739,74 L740,74 L741,74 L742,75 L743,76 L743,78 L744,80 L745,83 L747,85 L748,88 L750,90 L751,92 L751,93 L751,97 L750,100 L750,103 L753,105 L758,106 L762,106 L765,105 L767,103 L768,102 L768,100 L768,99 L768,98 L768,97 L769,96 L771,95 L773,93 L775,91 L777,88 L779,85 L780,83 L781,82 L782,80 L784,79 L786,77 L789,75 L792,74 L794,73 L795,72 L796,71 L797,72 L799,73 L800,74 L801,76 L802,78 L805,80 L809,81 L813,82 L816,83 L817,83 L817,84 L817,85 L819,88 L824,90 L829,92 L835,93 L838,95 L840,95 L841,96 L841,97 L842,99 L845,101 L850,103 L855,105 L859,107 L860,110 L862,114" fill="none" stroke="red" stroke-width="3"/></svg>