<svg xmlns="http://www.w3.org/2000/svg" version="1.1" xmlns:xlink="http://www.w3.org/1999/xlink" xmlns:svgjs="http://svgjs.dev/svgjs" width="950" height="375" id="chartSvg"><path d="M14,137 L14,136 L14,135 L14,134 L14,132 L15,130 L15,129 L15,130 L16,133 L16,139 L17,145 L17,150 L17,152 L17,153 L17,150 L17,145 L18,136 L19,124 L20,110 L19,97 L20,93 L20,94 L23,97 L26,104 L27,114 L29,124 L30,132 L31,134 L31,131 L32,123 L33,112 L34,97 L34,81 L34,68 L36,60 L37,57 L38,57 L39,61 L41,68 L44,78 L46,88 L47,96 L48,101 L49,102 L49,101 L49,97 L49,89 L48,80 L46,70 L46,65 L48,68 L51,77 L53,90 L54,105 L55,116 L56,122 L56,121 L56,117 L56,110 L55,104 L55,100 L56,101 L60,109 L64,119 L67,128 L69,136 L70,147 L72,157 L73,162 L75,166 L76,168 L77,168 L78,168 L80,163 L80,154 L81,142 L79,125 L78,111 L78,102 L78,101 L80,105 L83,113 L85,124 L87,136 L88,148 L88,158 L89,164 L90,166 L90,163 L92,155 L92,143 L93,129 L94,118 L95,114 L96,115 L99,122 L102,134 L104,147 L105,164 L105,181 L105,192 L105,199 L106,202 L107,200 L107,190 L109,176 L110,158 L110,139 L109,126 L109,122 L110,124 L112,133 L113,147 L113,163 L114,183 L115,199 L117,207 L118,212 L119,215 L120,215 L121,210 L123,200 L124,187 L124,171 L124,151 L125,136 L127,129 L129,127 L131,129 L134,136 L135,149 L137,163 L139,181 L139,197 L140,206 L141,211 L141,213 L141,211 L141,204 L142,192 L143,176 L144,160 L145,154 L145,153 L146,152 L149,154 L151,163 L151,175 L152,187 L154,198 L154,202 L155,203 L155,201 L157,196 L159,187 L161,176 L163,166 L164,162 L166,163 L169,172 L173,184 L175,197 L177,208 L178,217 L178,220 L179,219 L180,214 L183,204 L184,193 L186,180 L189,171 L191,170 L193,171 L196,175 L198,184 L200,195 L201,205 L202,212 L202,213 L202,212 L203,206 L205,197 L207,187 L209,177 L211,170 L213,169 L215,173 L217,182 L218,193 L220,203 L220,215 L220,222 L220,224 L220,223 L222,219 L224,210 L225,200 L227,187 L228,181 L228,182 L230,188 L232,198 L233,207 L233,216 L234,220 L234,216 L236,207 L237,196 L239,182 L241,169 L244,162 L246,160 L247,160 L249,161 L250,163 L250,164 L251,160 L251,153 L251,144 L251,136 L252,133 L254,139 L254,149 L255,159 L256,170 L256,180 L256,187 L257,190 L258,190 L259,188 L261,180 L265,169 L267,154 L270,139 L272,132 L273,132 L275,134 L276,140 L275,150 L273,162 L271,175 L269,185 L268,189 L268,190 L269,188 L272,181 L276,170 L281,156 L286,142 L288,136 L290,136 L292,137 L293,142 L293,154 L291,167 L290,179 L288,189 L287,195 L286,196 L286,195 L286,193 L287,186 L288,178 L291,168 L294,162 L297,163 L300,171 L301,181 L302,194 L302,206 L301,215 L300,221 L300,220 L300,215 L302,207 L304,196 L307,185 L310,182 L312,184 L313,190 L315,199 L315,207 L315,213 L315,216 L315,215 L316,211 L319,204 L322,195 L325,182 L327,171 L328,166 L329,166 L330,168 L331,176 L332,187 L332,197 L332,206 L332,210 L332,207 L333,201 L335,193 L337,181 L339,166 L342,156 L344,152 L345,151 L346,153 L347,159 L347,171 L347,182 L347,192 L346,196 L346,197 L347,196 L348,191 L351,183 L354,173 L358,157 L362,141 L366,130 L369,126 L371,126 L373,131 L374,142 L374,155 L373,169 L371,182 L371,188 L371,190 L372,187 L374,180 L378,170 L381,158 L384,148 L386,145 L388,145 L390,148 L391,155 L391,163 L389,172 L388,179 L388,181 L388,180 L388,178 L391,173 L393,166 L395,157 L398,150 L400,148 L401,152 L403,161 L403,171 L403,179 L403,186 L403,190 L403,189 L404,184 L406,176 L408,166 L410,158 L411,157 L412,160 L413,168 L413,177 L413,188 L411,197 L410,204 L409,207 L409,206 L409,205 L410,201 L413,193 L415,183 L418,168 L420,155 L422,147 L424,143 L425,143 L426,147 L426,157 L425,171 L424,185 L421,200 L420,209 L420,212 L420,211 L420,205 L423,195 L425,183 L427,169 L430,161 L432,159 L433,161 L435,166 L435,176 L436,186 L436,195 L436,199 L436,200 L436,198 L437,193 L440,185 L442,174 L446,161 L449,153 L452,149 L454,149 L457,153 L458,161 L459,173 L459,185 L458,197 L457,205 L457,208 L457,209 L457,208 L457,205 L460,196 L462,185 L465,170 L467,156 L469,153 L470,155 L471,163 L471,175 L471,188 L469,200 L468,208 L468,212 L468,211 L468,210 L469,204 L471,195 L473,184 L475,172 L476,168 L478,168 L479,173 L480,180 L480,190 L480,198 L479,202 L479,204 L479,203 L479,200 L481,194 L484,186 L487,176 L490,170 L491,170 L493,177 L494,187 L495,197 L494,206 L493,212 L492,214 L492,213 L492,211 L493,205 L494,197 L496,186 L498,179 L500,177 L502,178 L504,182 L505,189 L505,198 L505,206 L505,211 L506,213 L506,214 L506,212 L508,209 L510,201 L513,192 L516,182 L519,177 L521,176 L523,180 L524,189 L524,198 L523,209 L522,220 L520,228 L518,234 L518,237 L519,238 L520,237 L523,231 L526,223 L528,212 L530,196 L533,184 L534,180 L534,181 L536,184 L537,192 L537,203 L537,214 L536,224 L536,229 L537,229 L538,226 L541,219 L545,209 L549,198 L554,190 L559,188 L562,191 L565,198 L566,207 L567,217 L566,224 L565,229 L564,231 L564,230 L565,228 L567,221 L570,211 L573,199 L577,190 L580,187 L582,187 L585,190 L586,196 L587,206 L587,219 L586,231 L585,244 L584,256 L584,266 L584,275 L584,281 L586,284 L586,285 L587,286 L587,285 L589,278 L591,268 L591,256 L591,239 L591,222 L590,206 L591,195 L591,193 L591,194 L593,200 L594,210 L595,221 L596,233 L598,246 L599,257 L601,264 L602,268 L604,270 L604,268 L606,261 L608,250 L611,235 L614,217 L617,200 L619,179 L622,157 L625,138 L629,121 L633,107 L637,97 L639,93 L641,92 L644,95 L645,101 L645,111 L645,125 L645,144 L643,167 L641,188 L640,208 L640,226 L640,241 L640,254 L642,263 L643,270 L644,275 L645,277 L645,273 L645,264 L645,250 L646,232 L648,210 L649,189 L650,173 L652,165 L652,162 L653,164 L653,173 L654,187 L654,204 L655,224 L655,242 L657,255 L657,268 L658,281 L658,291 L660,296 L660,297 L661,295 L663,286 L665,273 L666,256 L669,233 L672,210 L673,193 L675,180 L677,173 L678,171 L679,171 L679,178 L679,190 L679,205 L679,223 L678,241 L678,256 L678,266 L678,271 L678,273 L678,272 L679,270 L682,263 L684,252 L687,240 L691,226 L693,215 L696,210 L698,206 L699,205 L699,206 L700,212 L700,223 L700,233 L700,243 L700,249 L701,251 L703,249 L706,244 L709,235 L712,225 L716,219 L718,215 L720,215 L723,219 L724,227 L725,239 L725,249 L725,256 L726,259 L726,258 L729,253 L733,244 L737,234 L741,223 L744,220 L746,220 L749,222 L750,230 L750,241 L750,253 L749,262 L748,266 L748,267 L749,265 L751,259 L754,250 L757,237 L761,223 L764,217 L766,214 L767,214 L768,218 L768,227 L768,238 L767,249 L765,261 L765,269 L765,272 L766,273 L766,272 L769,265 L772,255 L774,242 L777,226 L779,219 L780,218 L781,219 L783,224 L784,232 L784,243 L784,255 L783,263 L784,267 L784,268 L784,265 L787,259 L789,249 L794,238 L799,229 L803,225 L806,223 L809,224 L811,231 L812,243 L811,256 L810,268 L810,277 L810,283 L810,286 L811,287 L812,288 L814,287 L818,281 L824,272 L829,259 L834,242 L837,226 L841,216 L843,212 L844,212 L846,215 L848,225 L848,238 L848,251 L847,264 L847,270 L848,271 L849,271 L852,267 L856,259 L861,247 L868,235 L875,226 L880,220 L883,218 L884,217 L884,218 L884,220 L884,217 L885,212 L887,205 L890,196 L893,187 L896,181 L898,180 L899,182 L902,189 L903,198 L903,207 L903,215 L903,222 L902,226 L902,228 L902,227 L904,222 L907,215 L909,207 L912,201 L914,200 L915,202 L916,206 L917,213 L917,222 L916,231 L915,238 L915,242 L916,244 L917,244 L918,243 L921,239 L924,233 L928,224 L931,215 L935,209 L936,208 L937,208 L938,210 L939,216 L939,224 L937,234 L936,244 L937,249 L938,250 L939,251 L940,250 L942,248 L943,245" fill="none" stroke="red" stroke-width="3"/></svg>