<svg xmlns="http://www.w3.org/2000/svg" xmlns:xlink="http://www.w3.org/1999/xlink" version="1.1" class="marks" width="1012" height="385" viewBox="0 0 1012 385"><rect width="1012" height="385" fill="white"/><path d="M15,102 L14,101 L14,99 L14,93 L13,91 L13,88 L13,85 L14,80 L14,75 L15,70 L16,63 L17,56 L19,50 L21,46 L22,44 L22,46 L22,52 L22,63 L22,78 L22,94 L25,110 L28,126 L32,137 L35,141 L38,144 L40,145 L42,144 L44,139 L45,131 L46,119 L47,107 L47,95 L47,82 L46,70 L46,58 L46,49 L45,44 L45,43 L44,43 L44,45 L44,49 L45,56 L47,64 L49,73 L51,82 L54,90 L57,97 L60,104 L63,109 L65,112 L67,114 L68,114 L69,114 L70,112 L70,107 L70,101 L70,93 L71,83 L72,70 L73,57 L73,44 L74,34 L75,31 L75,33 L74,39 L73,50 L73,65 L73,79 L73,95 L76,109 L79,119 L83,127 L87,133 L90,138 L93,141 L96,144 L98,144 L101,143 L102,140 L104,136 L105,129 L105,120 L106,110 L106,97 L107,80 L109,64 L110,53 L111,51 L111,53 L111,58 L112,67 L112,81 L112,97 L114,114 L116,128 L118,139 L121,146 L124,151 L126,155 L128,156 L131,157 L133,157 L135,155 L136,151 L137,146 L138,137 L138,129 L138,118 L138,106 L138,95 L137,88 L136,90 L136,94 L136,102 L137,112 L139,122 L141,134 L143,143 L145,151 L148,156 L151,159 L154,161 L157,162 L160,162 L163,160 L165,156 L168,150 L170,142 L172,133 L173,123 L174,112 L175,102 L175,97 L175,99 L175,103 L176,111 L176,120 L178,127 L179,134 L181,139 L183,143 L185,145 L188,146 L190,146 L193,146 L196,143 L199,139 L202,132 L205,124 L207,117 L210,108 L212,99 L214,95 L215,94 L215,95 L215,96 L215,102 L216,111 L217,123 L218,135 L220,148 L222,158 L225,166 L229,169 L232,170 L236,170 L239,169 L243,166 L246,160 L249,153 L251,145 L253,136 L254,127 L254,119 L255,111 L255,108 L255,109 L255,110 L256,111 L256,113 L258,117 L259,121 L261,125 L262,131 L264,139 L265,148 L267,158 L268,165 L271,169 L272,171 L274,171 L276,171 L277,171 L278,170 L278,167 L279,163 L279,156 L279,148 L280,136 L280,121 L281,101 L281,81 L281,70 L281,69 L280,72 L278,78 L277,90 L276,108 L276,127 L277,147 L279,165 L281,176 L283,184 L285,189 L287,193 L288,196 L289,198 L290,198 L291,198 L291,196 L292,193 L292,188 L292,179 L293,168 L293,154 L295,134 L298,115 L301,104 L303,101 L303,102 L303,103 L303,105 L303,112 L303,124 L303,136 L303,149 L303,163 L304,179 L305,194 L306,205 L307,213 L309,218 L310,222 L313,223 L314,223 L316,222 L318,219 L320,213 L322,204 L323,193 L324,180 L325,164 L327,147 L328,135 L329,132 L330,132 L330,134 L330,136 L330,143 L331,154 L332,166 L334,179 L336,191 L338,201 L340,209 L342,213 L344,216 L347,217 L349,216 L352,214 L355,209 L357,201 L359,193 L361,184 L362,174 L363,161 L364,148 L366,139 L367,134 L369,133 L371,133 L373,133 L375,134 L377,136 L380,140 L382,144 L384,147 L387,151 L389,157 L391,164 L393,176 L395,189 L397,200 L399,209 L401,214 L404,216 L407,216 L411,215 L415,211 L418,204 L420,195 L422,186 L424,177 L425,167 L426,156 L427,142 L427,131 L428,126 L428,127 L428,132 L427,142 L427,154 L427,168 L427,180 L428,193 L430,202 L432,209 L434,213 L437,215 L439,215 L442,215 L444,213 L447,210 L449,203 L451,196 L453,188 L455,177 L457,163 L460,146 L464,131 L467,127 L468,129 L468,132 L468,138 L468,151 L469,166 L470,178 L471,190 L473,201 L476,207 L479,212 L483,215 L486,216 L489,216 L492,215 L496,213 L499,209 L503,203 L506,198 L508,190 L510,180 L512,168 L515,156 L518,149 L519,149 L520,151 L520,154 L521,161 L522,173 L523,186 L524,197 L525,207 L527,216 L528,222 L531,228 L533,232 L537,234 L540,235 L543,235 L547,233 L550,229 L555,222 L558,215 L562,205 L565,195 L568,182 L571,169 L573,161 L574,160 L575,162 L575,165 L575,173 L575,185 L576,199 L577,210 L578,221 L579,229 L581,233 L583,237 L586,239 L588,240 L591,240 L594,239 L596,236 L599,231 L602,224 L604,217 L607,207 L610,194 L613,179 L615,166 L617,161 L617,163 L617,166 L617,172 L617,184 L616,198 L616,212 L617,223 L618,234 L621,242 L623,247 L626,251 L628,254 L631,254 L633,254 L635,254 L636,252 L637,248 L638,243 L639,237 L640,229 L641,218 L643,205 L645,190 L646,181 L647,181 L647,184 L646,191 L645,202 L645,217 L645,232 L645,244 L646,257 L648,270 L649,278 L650,283 L652,287 L653,288 L655,289 L656,289 L658,288 L660,284 L661,278 L662,269 L662,260 L663,247 L663,232 L664,215 L665,201 L665,199 L665,200 L665,202 L665,205 L665,212 L664,222 L664,232 L664,244 L665,260 L667,274 L669,286 L671,295 L672,299 L674,302 L677,305 L679,306 L681,306 L684,304 L686,300 L688,293 L691,282 L693,271 L695,256 L698,235 L701,216 L705,202 L708,199 L709,201 L710,204 L711,211 L712,222 L713,237 L714,251 L715,264 L717,278 L719,288 L721,293 L724,296 L727,298 L729,299 L732,298 L735,296 L737,293 L739,286 L741,278 L743,268 L745,257 L746,242 L748,229 L751,223 L753,222 L755,223 L755,224 L757,228 L758,234 L759,243 L760,254 L762,264 L764,275 L765,283 L768,288 L771,290 L775,291 L777,292 L780,290 L783,286 L786,281 L789,273 L793,264 L796,255 L798,244 L801,228 L803,214 L806,205 L807,204 L807,207 L807,212 L807,222 L807,235 L807,249 L808,262 L809,273 L811,282 L813,289 L815,292 L817,294 L819,295 L821,294 L824,292 L827,287 L831,281 L834,272 L837,262 L840,251 L843,240 L846,232 L847,230 L847,232 L847,233 L847,237 L847,243 L847,252 L847,260 L846,267 L846,274 L848,278 L849,281 L851,284 L853,286 L855,288 L857,288 L859,288 L862,285 L865,279 L869,273 L871,266 L874,257 L875,249 L876,242 L877,239 L877,241 L876,246 L875,253 L875,261 L875,268 L875,273 L877,276 L879,278 L881,278 L883,278 L885,278 L885,277 L886,276 L886,274 L887,272 L888,268 L890,263 L893,256 L896,251 L898,247 L900,246 L900,247 L900,250 L899,254 L899,260 L899,266 L900,270 L902,273 L904,276 L906,277 L908,277 L912,277 L915,277 L920,277 L925,276 L929,275 L932,272 L935,270 L937,267 L938,265 L939,264 L938,264 L937,264 L936,264 L935,264 L935,265 L935,266 L935,267 L936,267 L938,268 L939,268 L941,268 L942,269 L944,271 L946,273 L948,276 L953,280 L956,282" fill="none" stroke="red" stroke-width="3"/></svg>