<svg xmlns="http://www.w3.org/2000/svg" xmlns:xlink="http://www.w3.org/1999/xlink" version="1.1" class="marks" width="1012" height="385" viewBox="0 0 1012 385"><rect width="1012" height="385" fill="white"/><g fill="none" stroke-miterlimit="10" transform="translate(7,5)"><g class="mark-group role-frame root" role="graphics-object" aria-roledescription="group mark container"><g transform="translate(0,0)"><path class="background" aria-hidden="true" d="M0.5,0.5h1000v375h-1000Z" stroke="#ddd"/><g><g class="mark-group role-axis" role="graphics-symbol" aria-roledescription="axis" aria-label="X-axis for a linear scale with values from 0 to 1,200"><g transform="translate(0.5,375.5)"><path class="background" aria-hidden="true" d="M0,0h0v0h0Z" pointer-events="none"/><g><g class="mark-rule role-axis-domain" pointer-events="none"><line transform="translate(0,0)" x2="1000" y2="0" stroke="#888" stroke-width="1" opacity="1"/></g></g><path class="foreground" aria-hidden="true" d="" pointer-events="none" display="none"/></g></g><g class="mark-group role-axis" role="graphics-symbol" aria-roledescription="axis" aria-label="Y-axis for a linear scale with values from −150,000 to 550,000"><g transform="translate(0.5,0.5)"><path class="background" aria-hidden="true" d="M0,0h0v0h0Z" pointer-events="none"/><g><g class="mark-rule role-axis-domain" pointer-events="none"><line transform="translate(0,375)" x2="0" y2="-375" stroke="#888" stroke-width="1" opacity="1"/></g></g><path class="foreground" aria-hidden="true" d="" pointer-events="none" display="none"/></g></g><g class="mark-line role-mark marks" role="graphics-object" aria-roledescription="line mark container"><path aria-label="x: 1; y: −12404.8454987" role="graphics-symbol" aria-roledescription="line mark" d="M0.833,301.288L1.667,289.238L2.5,306.436L3.333,293.545L4.167,320.208L5,282.959L5.833,283.179L6.667,288.396L7.5,269.19L8.333,304.636L9.167,269.182L10,254.18L10.833,296.777L11.667,301.976L12.5,316.086L13.333,277.466L14.167,298.444L15,280.441L15.833,352.404L16.667,308.98L17.5,320.218L18.333,299.086L19.167,286.829L20,298.339L20.833,308.368L21.667,285.641L22.5,258.382L23.333,285.77L24.167,299.614L25,267.376L25.833,272.984L26.667,291.889L27.5,327.57L28.333,270.163L29.167,335.45L30,290.49L30.833,320.446L31.667,250.322L32.5,294.035L33.333,306.98L34.167,301.403L35,287.558L35.833,294.306L36.667,280.826L37.5,272.809L38.333,304.733L39.167,278.777L40,299.565L40.833,306.852L41.667,285.189L42.5,314.279L43.333,296.952L44.167,314.371L45,289.879L45.833,329.555L46.667,317.056L47.5,301.112L48.333,259.949L49.167,266.964L50,268.805L50.833,275.9L51.667,298.97L52.5,266.52L53.333,280.903L54.167,279.19L55,291.77L55.833,287.706L56.667,301.829L57.5,317.356L58.333,286.115L59.167,322.635L60,305.623L60.833,333.391L61.667,260.483L62.5,275.617L63.333,310.972L64.167,300.462L65,306.245L65.833,270.533L66.667,301.373L67.5,290.789L68.333,289.352L69.167,310.989L70,315.297L70.833,283.436L71.667,327.893L72.5,291.543L73.333,313.69L74.167,276.235L75,304.522L75.833,282.495L76.667,291.887L77.5,257.819L78.333,332.414L79.167,307.233L80,317.186L80.833,310.267L81.667,312.576L82.5,297.536L83.333,267.72L84.167,310.219L85,273.155L85.833,325.744L86.667,296.344L87.5,285.158L88.333,285.386L89.167,307.446L90,310.008L90.833,271.593L91.667,291.435L92.5,269.857L93.333,284.707L94.167,285.725L95,332.895L95.833,321.766L96.667,292.823L97.5,303.218L98.333,292.665L99.167,303.646L100,274.758L100.833,305.396L101.667,302.316L102.5,292.621L103.333,305.717L104.167,312.304L105,322.404L105.833,309.561L106.667,300.413L107.5,267.098L108.333,272.61L109.167,280.328L110,330.794L110.833,293.003L111.667,320.488L112.5,309.777L113.333,297.089L114.167,276.879L115,314.274L115.833,309.988L116.667,329.543L117.5,297.141L118.333,282.444L119.167,294.867L120,275.11L120.833,290.578L121.667,342.132L122.5,268.056L123.333,309.84L124.167,268.841L125,303.933L125.833,280.455L126.667,304.649L127.5,294.164L128.333,288.094L129.167,285.137L130,316.377L130.833,300.311L131.667,318.382L132.5,296.254L133.333,299.286L134.167,293.288L135,271.505L135.833,309.429L136.667,314.751L137.5,279.991L138.333,293.741L139.167,304.849L140,295.908L140.833,294.348L141.667,329.558L142.5,317.024L143.333,272.074L144.167,290.596L145,307.775L145.833,305.232L146.667,259.39L147.5,286.076L148.333,290.064L149.167,313.266L150,319.119L150.833,309.581L151.667,288.817L152.5,275.31L153.333,233.521L154.167,297.867L155,304.897L155.833,332.396L156.667,299.492L157.5,286.229L158.333,301.763L159.167,306.572L160,285.078L160.833,300.059L161.667,298.431L162.5,301.227L163.333,317.952L164.167,313.795L165,296.089L165.833,301.183L166.667,285.178L167.5,270.767L168.333,303.203L169.167,282.822L170,276.013L170.833,315.884L171.667,302.811L172.5,295.761L173.333,311.359L174.167,323.221L175,294.171L175.833,292.362L176.667,285.663L177.5,283.973L178.333,281.441L179.167,323.777L180,300.563L180.833,326.035L181.667,290.81L182.5,332.505L183.333,323.44L184.167,289.961L185,287.793L185.833,304.049L186.667,346.011L187.5,302.631L188.333,260.321L189.167,310.588L190,286.099L190.833,285.73L191.667,325.411L192.5,282.418L193.333,291.208L194.167,265.382L195,274.41L195.833,301.388L196.667,270.906L197.5,273.807L198.333,304.015L199.167,282.163L200,314.857L200.833,313.487L201.667,314.504L202.5,298.732L203.333,320.105L204.167,274.873L205,290.205L205.833,279.695L206.667,271.263L207.5,296.017L208.333,317.715L209.167,298.559L210,314.039L210.833,321.744L211.667,303.196L212.5,317.223L213.333,283.825L214.167,281.353L215,291.158L215.833,309.844L216.667,288.057L217.5,311.439L218.333,323.587L219.167,271.481L220,257.619L220.833,311.041L221.667,296.874L222.5,299.968L223.333,313.873L224.167,272.817L225,298.843L225.833,281.532L226.667,305.486L227.5,289.092L228.333,260.256L229.167,287.401L230,313.386L230.833,308.52L231.667,269.66L232.5,292.184L233.333,313.51L234.167,286.664L235,278.816L235.833,286.364L236.667,293.226L237.5,318.405L238.333,270.716L239.167,315.179L240,304.698L240.833,343.189L241.667,304.2L242.5,302.686L243.333,309.615L244.167,312.455L245,284.89L245.833,290.281L246.667,291.667L247.5,307.507L248.333,319.624L249.167,295.3L250,305.444L250.833,293.215L251.667,334.325L252.5,305.216L253.333,285.233L254.167,281.844L255,271.066L255.833,288.138L256.667,324.084L257.5,300.456L258.333,301.125L259.167,288.459L260,272.637L260.833,289.229L261.667,298.462L262.5,279.813L263.333,289.683L264.167,307.476L265,275.162L265.833,292.652L266.667,291.885L267.5,324.946L268.333,246.948L269.167,306.687L270,322.351L270.833,304.216L271.667,288.929L272.5,312.636L273.333,259.179L274.167,245.052L275,289.142L275.833,308.552L276.667,279.259L277.5,306.008L278.333,301.168L279.167,269.468L280,281.072L280.833,342.064L281.667,275.721L282.5,298.107L283.333,288.269L284.167,313.13L285,319.142L285.833,294.604L286.667,310.85L287.5,318.255L288.333,292.363L289.167,262.052L290,264.721L290.833,307.995L291.667,269.566L292.5,316.329L293.333,308.025L294.167,288.36L295,277.467L295.833,342.107L296.667,277.304L297.5,297.729L298.333,304.133L299.167,296.168L300,320.309L300.833,278.747L301.667,289.252L302.5,315.085L303.333,319.889L304.167,289.971L305,294.988L305.833,290.92L306.667,299.998L307.5,341.64L308.333,320.767L309.167,310.791L310,267.972L310.833,292.763L311.667,250.088L312.5,295.826L313.333,274.845L314.167,286.308L315,303.758L315.833,314.956L316.667,302.159L317.5,278.346L318.333,294.228L319.167,304.217L320,281.828L320.833,303.111L321.667,313.782L322.5,272.955L323.333,287.787L324.167,282.923L325,298.189L325.833,294.18L326.667,340.406L327.5,326.104L328.333,295.056L329.167,319.459L330,267.876L330.833,294.692L331.667,283.291L332.5,294.616L333.333,281.233L334.167,311.141L335,285.575L335.833,308.035L336.667,303.573L337.5,319.651L338.333,303.613L339.167,288.736L340,312.742L340.833,271.28L341.667,298.599L342.5,294.402L343.333,323.002L344.167,300.398L345,322.084L345.833,304.621L346.667,286.56L347.5,299.172L348.333,257.16L349.167,303.711L350,312.325L350.833,283.446L351.667,244.876L352.5,268.515L353.333,315.886L354.167,297.117L355,306.252L355.833,274.881L356.667,255.474L357.5,321.478L358.333,296.55L359.167,270.596L360,269.444L360.833,289.849L361.667,334.33L362.5,300.649L363.333,315.442L364.167,283.897L365,303.17L365.833,305.919L366.667,284.162L367.5,295.075L368.333,289.501L369.167,302.434L370,317.332L370.833,291.866L371.667,312.724L372.5,279.392L373.333,266.455L374.167,255.484L375,292.014L375.833,330.798L376.667,321.055L377.5,297.623L378.333,283.952L379.167,310.632L380,267.464L380.833,328.228L381.667,273.384L382.5,321.509L383.333,245.757L384.167,293.371L385,278.149L385.833,279.227L386.667,280.298L387.5,302.607L388.333,272.024L389.167,283.307L390,273.555L390.833,272.985L391.667,301.398L392.5,289.128L393.333,264.959L394.167,324.517L395,302.047L395.833,275.462L396.667,267.283L397.5,286.606L398.333,296.56L399.167,307.494L400,290.368L400.833,277.19L401.667,323.113L402.5,310.276L403.333,280.415L404.167,288.016L405,305.441L405.833,285L406.667,318.851L407.5,249.305L408.333,274.135L409.167,289.596L410,303.677L410.833,288.376L411.667,256.359L412.5,314.28L413.333,315.42L414.167,314.794L415,322.525L415.833,272.693L416.667,309.356L417.5,310.689L418.333,285.742L419.167,271.144L420,325.443L420.833,301.173L421.667,329.052L422.5,275.241L423.333,302.091L424.167,266.167L425,269.818L425.833,303.138L426.667,304.181L427.5,303.323L428.333,263.432L429.167,282.114L430,270.287L430.833,246.713L431.667,305.825L432.5,281.617L433.333,296.696L434.167,324.453L435,257.331L435.833,281.349L436.667,280.215L437.5,270.701L438.333,267.94L439.167,298.7L440,279.916L440.833,298.808L441.667,277.081L442.5,285.318L443.333,311.317L444.167,270.311L445,277.543L445.833,278.105L446.667,310.819L447.5,275.196L448.333,322.93L449.167,296.443L450,283.347L450.833,313.882L451.667,272.292L452.5,333.305L453.333,295.778L454.167,303.825L455,311.404L455.833,308.225L456.667,317.494L457.5,270.325L458.333,289.569L459.167,308.499L460,288.474L460.833,269.22L461.667,293.841L462.5,287.317L463.333,308.411L464.167,296.996L465,302.265L465.833,277.302L466.667,280.914L467.5,273.672L468.333,296.189L469.167,266.33L470,340.63L470.833,287.006L471.667,285.908L472.5,287.437L473.333,261.364L474.167,320.358L475,271.163L475.833,314.686L476.667,296.086L477.5,262.922L478.333,263.102L479.167,277.754L480,253.821L480.833,261.853L481.667,305.816L482.5,290.78L483.333,330.151L484.167,259.415L485,258.842L485.833,300.152L486.667,299.068L487.5,285.376L488.333,338.106L489.167,292.736L490,253.477L490.833,271.784L491.667,295.623L492.5,301.51L493.333,293.005L494.167,262.537L495,270.304L495.833,234.477L496.667,278.357L497.5,295.443L498.333,326.604L499.167,284.42L500,273.333L500.833,267.665L501.667,256.397L502.5,305.026L503.333,297.241L504.167,297.669L505,288.671L505.833,303.371L506.667,259.001L507.5,255.774L508.333,294.165L509.167,276.954L510,278.568L510.833,236.913L511.667,300.608L512.5,287.482L513.333,266.434L514.167,313.077L515,294.726L515.833,271.895L516.667,319.728L517.5,241.286L518.333,274.657L519.167,300.545L520,274.35L520.833,293.038L521.667,268.222L522.5,316.438L523.333,280.484L524.167,268.127L525,270.872L525.833,291.137L526.667,286.165L527.5,280.845L528.333,299.083L529.167,255.983L530,283.357L530.833,277.288L531.667,264.462L532.5,298.846L533.333,275.59L534.167,278.514L535,281.106L535.833,298.494L536.667,240.42L537.5,263.612L538.333,269.279L539.167,310.613L540,257.592L540.833,250.651L541.667,264.1L542.5,236.734L543.333,299.667L544.167,314.241L545,283.441L545.833,286.736L546.667,308.01L547.5,247.403L548.333,261.135L549.167,261.229L550,293.441L550.833,284.807L551.667,278.541L552.5,281.595L553.333,304.305L554.167,268.756L555,266.458L555.833,273.567L556.667,267.018L557.5,248.27L558.333,266.408L559.167,274.755L560,287.703L560.833,288.014L561.667,303.851L562.5,311.837L563.333,291.2L564.167,285.549L565,281.852L565.833,289.516L566.667,305.672L567.5,241.989L568.333,250.864L569.167,249.155L570,300.496L570.833,277.495L571.667,257.176L572.5,294.117L573.333,293.74L574.167,239.025L575,272.381L575.833,253.018L576.667,298.143L577.5,286.012L578.333,254.878L579.167,265.262L580,278.571L580.833,257.907L581.667,254.02L582.5,279.766L583.333,276.195L584.167,306.065L585,275.102L585.833,289.369L586.667,287.173L587.5,304.169L588.333,293.419L589.167,262.024L590,287.009L590.833,268.327L591.667,267.176L592.5,286.354L593.333,276.687L594.167,307.714L595,279.598L595.833,271.384L596.667,267.395L597.5,250.178L598.333,294.573L599.167,264.909L600,262.08L600.833,262.164L601.667,285.918L602.5,282.185L603.333,275.609L604.167,302.691L605,311.87L605.833,282.77L606.667,291.246L607.5,262.744L608.333,258.974L609.167,239.736L610,270.575L610.833,292.117L611.667,274.692L612.5,302.416L613.333,258.641L614.167,275.348L615,271.929L615.833,251.585L616.667,266.851L617.5,263.345L618.333,276.673L619.167,286.902L620,287.126L620.833,287.668L621.667,250.945L622.5,292.326L623.333,301.73L624.167,271.534L625,267.683L625.833,285.238L626.667,307.794L627.5,266.2L628.333,273.715L629.167,285.717L630,229.411L630.833,275.96L631.667,303.781L632.5,280.966L633.333,251.456L634.167,279.855L635,258.983L635.833,286.215L636.667,262.689L637.5,245.548L638.333,266.194L639.167,220.018L640,286.581L640.833,280.556L641.667,269.175L642.5,294.281L643.333,282.823L644.167,273.743L645,267.477L645.833,298.905L646.667,255.771L647.5,254.44L648.333,235.003L649.167,265.591L650,264.001L650.833,242.306L651.667,300.342L652.5,238.931L653.333,250.954L654.167,285.521L655,264.641L655.833,226.83L656.667,242.288L657.5,242.713L658.333,321.19L659.167,275.288L660,285.863L660.833,270.288L661.667,281.279L662.5,224.89L663.333,270.255L664.167,210.246L665,235.449L665.833,233.838L666.667,266.907L667.5,254.543L668.333,269.283L669.167,225.094L670,300.267L670.833,301.085L671.667,274.648L672.5,244.688L673.333,260.112L674.167,284.987L675,239.94L675.833,240.911L676.667,249.293L677.5,247.514L678.333,252.464L679.167,213.075L680,234.866L680.833,273.878L681.667,275.734L682.5,255.103L683.333,263.844L684.167,256.181L685,275.581L685.833,256.824L686.667,239.389L687.5,242.6L688.333,228.208L689.167,246.944L690,271.354L690.833,253.271L691.667,292.864L692.5,257.309L693.333,275.507L694.167,302.269L695,239.482L695.833,272.645L696.667,262.735L697.5,220.953L698.333,258.677L699.167,242.6L700,255.344L700.833,270.564L701.667,270.16L702.5,250.998L703.333,273.44L704.167,249.371L705,284.505L705.833,221.552L706.667,217.679L707.5,254.635L708.333,249.231L709.167,227.642L710,209.631L710.833,219.937L711.667,288.107L712.5,224.857L713.333,259.772L714.167,241.257L715,292.562L715.833,250.763L716.667,254.697L717.5,212.841L718.333,248.333L719.167,242.101L720,256.428L720.833,262.073L721.667,278.069L722.5,263.01L723.333,246.694L724.167,190.089L725,251.622L725.833,248.457L726.667,239.633L727.5,199.729L728.333,224.88L729.167,225.213L730,260.603L730.833,221.285L731.667,272.43L732.5,273.272L733.333,202.216L734.167,244.533L735,254.653L735.833,218.369L736.667,219.718L737.5,214.661L738.333,209.605L739.167,200.743L740,204.311L740.833,203.369L741.667,267.36L742.5,261.389L743.333,227.8L744.167,236.752L745,263.123L745.833,226.182L746.667,202.638L747.5,156.871L748.333,217.906L749.167,185.231L750,175.636L750.833,226.962L751.667,257.393L752.5,239.184L753.333,238.834L754.167,237.287L755,244.263L755.833,243.261L756.667,210.486L757.5,177.614L758.333,211.381L759.167,224.512L760,209.281L760.833,221.793L761.667,220.04L762.5,231.437L763.333,237.98L764.167,232.198L765,248.063L765.833,255.316L766.667,226.86L767.5,222.847L768.333,163.92L769.167,193.345L770,226.215L770.833,225.964L771.667,224.491L772.5,260.176L773.333,213.037L774.167,231.15L775,275.068L775.833,206.043L776.667,239.55L777.5,184.197L778.333,227.815L779.167,181.629L780,244.244L780.833,256.455L781.667,237.066L782.5,267.462L783.333,253.138L784.167,233.457L785,209.776L785.833,245.051L786.667,215.258L787.5,187.763L788.333,199.824L789.167,137.096L790,218.097L790.833,208.791L791.667,236.389L792.5,264.151L793.333,230.034L794.167,233.062L795,261.77L795.833,242.759L796.667,199.787L797.5,141.985L798.333,194.405L799.167,178.004L800,173.912L800.833,212.346L801.667,220.906L802.5,232.63L803.333,205.026L804.167,238.787L805,211.554L805.833,224.758L806.667,175.371L807.5,159.05L808.333,178.936L809.167,175.143L810,177.26L810.833,194.337L811.667,233.617L812.5,252.634L813.333,247.841L814.167,234.71L815,211.34L815.833,210.943L816.667,141.433L817.5,146.174L818.333,154.933L819.167,210.338L820,201.123L820.833,196.561L821.667,239.337L822.5,253.257L823.333,240.066L824.167,209.113L825,244.201L825.833,189.278L826.667,179.871L827.5,163.227L828.333,148.646L829.167,163.138L830,188.339L830.833,219.155L831.667,238.486L832.5,216.945L833.333,199.079L834.167,221.627L835,204.101L835.833,179.27L836.667,188.842L837.5,134.667L838.333,171.894L839.167,143.369L840,158.989L840.833,207.679L841.667,261.728L842.5,196.04L843.333,202.207L844.167,199.193L845,195.912L845.833,195.157L846.667,187.183L847.5,115.053L848.333,118.168L849.167,161.492L850,129.846L850.833,176.165L851.667,233.157L852.5,233.527L853.333,210.161L854.167,225.646L855,215.271L855.833,197.749L856.667,194.069L857.5,82.614L858.333,154.292L859.167,154.868L860,194.615L860.833,169.412L861.667,219.771L862.5,240.823L863.333,183.978L864.167,185.168L865,211.747L865.833,192.349L866.667,185.378L867.5,119.205L868.333,179.521L869.167,152.179L870,159.145L870.833,170.779L871.667,209.818L872.5,216.686L873.333,222.094L874.167,216.962L875,184.515L875.833,220.709L876.667,180.221L877.5,133.721L878.333,187.546L879.167,163.701L880,184.866L880.833,189.32L881.667,218.818L882.5,252.514L883.333,179.007L884.167,191.189L885,194.536L885.833,159.08L886.667,167.235L887.5,105.372L888.333,159.274L889.167,147.997L890,166.144L890.833,201.262L891.667,200.223L892.5,182.293L893.333,193.9L894.167,215.249L895,215.232L895.833,217.047L896.667,166.39L897.5,67.451L898.333,143.212L899.167,148.309L900,192.694L900.833,185.2L901.667,236.032L902.5,218.407L903.333,197.762L904.167,235.506L905,197.49L905.833,204.736L906.667,181.161L907.5,98.144L908.333,150.089L909.167,164.98L910,146.196L910.833,196.951L911.667,185.504L912.5,225.176L913.333,210.227L914.167,200.23L915,191.289L915.833,201.537L916.667,179.105L917.5,91.964L918.333,184.877L919.167,140.624L920,119.364L920.833,196.243L921.667,248.718L922.5,220.234L923.333,169.524L924.167,173.984L925,165.553L925.833,201.754L926.667,159.832L927.5,109.143L928.333,136.932L929.167,82.52L930,159.767L930.833,188.491L931.667,223.911L932.5,199.257L933.333,183.61L934.167,172.065L935,194.873L935.833,174.924L936.667,97.288L937.5,128.748L938.333,124.547L939.167,114.267L940,159.231L940.833,184.123L941.667,208.235L942.5,190.583L943.333,186.912L944.167,185.077L945,198.635L945.833,173.308L946.667,150.882L947.5,61.766L948.333,121.282L949.167,92.277L950,105.269L950.833,171.268L951.667,203.588L952.5,191.305L953.333,150.761L954.167,198.018L955,171.969L955.833,164.819L956.667,116.485L957.5,40.213L958.333,58.946L959.167,93.584L960,146.997L960.833,91.989L961.667,198.682L962.5,147.127L963.333,147.588L964.167,210.713L965,130.241L965.833,146.761L966.667,69.465L967.5,23.291L968.333,96.999L969.167,81.159L970,97.999L970.833,120.321" stroke="#4c78a8" stroke-width="2"/></g></g><path class="foreground" aria-hidden="true" d="" display="none"/></g></g></g></svg>