<svg xmlns="http://www.w3.org/2000/svg" version="1.1" xmlns:xlink="http://www.w3.org/1999/xlink" xmlns:svgjs="http://svgjs.dev/svgjs" width="950" height="375" id="chartSvg"><path d="M10,244 L9,244 L9,243 L9,244 L9,245 L9,247 L10,249 L11,252 L11,256 L11,259 L12,261 L12,264 L12,266 L12,268 L12,270 L12,272 L12,273 L12,275 L12,276 L12,278 L12,280 L12,281 L12,283 L12,284 L12,286 L12,288 L12,290 L13,291 L13,292 L13,293 L13,294 L13,295 L13,296 L13,298 L13,299 L13,300 L13,302 L13,303 L13,305 L13,306 L13,307 L13,308 L13,310 L13,311 L12,312 L12,313 L12,312 L12,311 L13,310 L13,309 L13,308 L13,306 L14,304 L14,302 L14,300 L14,298 L14,296 L14,293 L14,291 L14,288 L15,286 L15,284 L15,283 L15,281 L15,278 L15,276 L16,273 L16,271 L16,269 L17,266 L17,264 L17,260 L18,257 L18,254 L18,252 L19,249 L19,245 L20,241 L20,237 L21,234 L21,231 L21,227 L21,224 L22,220 L22,216 L22,212 L23,208 L23,205 L23,201 L24,197 L24,193 L25,189 L25,185 L25,182 L25,178 L25,174 L25,170 L26,166 L26,163 L26,160 L26,156 L27,154 L28,150 L28,147 L29,144 L29,141 L29,138 L29,135 L29,132 L30,129 L30,127 L31,124 L31,123 L31,122 L31,119 L31,117 L31,113 L31,110 L31,109 L31,108 L31,107 L32,105 L33,104 L33,103 L33,102 L33,101 L33,100 L33,99 L33,98 L33,97 L33,96 L33,97 L34,97 L34,98 L34,99 L34,100 L34,101 L34,102 L34,103 L34,104 L34,105 L34,106 L34,107 L34,108 L34,109 L34,110 L34,111 L34,112 L34,113 L34,114 L34,115 L34,117 L34,118 L34,119 L34,121 L34,122 L34,124 L34,125 L34,127 L34,129 L34,130 L34,131 L34,132 L34,133 L34,134 L35,135 L35,136 L35,137 L35,138 L35,139 L35,140 L35,141 L35,142 L35,143 L35,144 L35,146 L35,147 L35,149 L35,151 L35,152 L36,154 L36,155 L36,156 L36,158 L36,159 L36,160 L36,162 L37,163 L37,165 L37,166 L37,168 L37,169 L37,171 L37,173 L37,176 L38,179 L38,182 L38,184 L38,186 L38,189 L39,192 L39,195 L39,198 L39,201 L39,204 L39,207 L39,210 L39,214 L39,217 L39,220 L39,224 L39,229 L39,233 L39,237 L39,241 L39,245 L39,249 L39,254 L39,257 L39,261 L39,263 L39,266 L39,270 L39,274 L39,277 L39,279 L39,282 L39,285 L39,288 L39,291 L39,292 L39,291 L39,290 L39,288 L39,282 L39,277 L39,273 L39,269 L39,265 L39,260 L39,256 L39,252 L39,250 L39,249 L39,247 L40,244 L40,240 L41,237 L41,235 L41,234 L42,232 L42,229 L43,227 L44,225 L44,224 L44,223 L44,222 L44,221 L44,220 L45,219 L45,217 L46,216 L46,215 L46,214 L46,213 L46,212 L46,211 L46,210 L47,209 L47,208 L47,209 L47,210 L47,211 L47,212 L48,212 L48,214 L48,215 L48,216 L48,217 L48,219 L49,221 L49,222 L50,224 L50,226 L50,227 L51,228 L51,229 L51,230 L51,231 L51,230 L51,229 L51,228 L51,227 L51,226 L52,224 L52,222 L53,220 L53,219 L53,218 L54,217 L54,216 L54,215 L55,214 L55,213 L56,212 L56,211 L56,210 L56,211 L56,213 L56,215 L56,217 L56,220 L56,223 L56,225 L56,227 L56,229 L56,232 L56,234 L56,236 L56,238 L56,239 L56,241 L56,242 L56,244 L56,246 L57,248 L57,249 L57,250 L57,251 L57,253 L57,254 L57,255 L56,255 L56,256 L56,257 L56,258 L56,259 L56,261 L56,262 L56,264 L56,265 L56,266 L56,267 L56,268 L56,270 L56,271 L56,272 L56,273 L56,274 L56,276 L56,278 L56,280 L56,282 L56,284 L56,286 L56,288 L56,291 L56,294 L55,296 L55,297 L55,298 L55,302 L55,305 L55,306 L55,307 L55,306 L56,305 L56,304 L58,301 L59,298 L60,295 L61,293 L62,292 L63,291 L63,290 L64,288 L65,288 L65,289 L66,291 L66,293 L67,295 L67,298 L68,300 L68,302 L68,304 L68,306 L68,309 L68,311 L68,313 L69,316 L69,319 L70,322 L70,324 L70,326 L70,329 L70,332 L70,335 L70,337 L70,339 L70,340 L70,341 L70,342 L70,343 L70,342 L70,341 L70,339 L71,337 L71,335 L71,333 L71,331 L72,329 L72,327 L72,325 L72,323 L72,322 L72,319 L72,317 L72,314 L72,312 L73,311 L73,310 L73,309 L73,306 L73,303 L73,299 L74,297 L74,295 L74,292 L75,288 L75,286 L75,283 L75,281 L75,279 L75,276 L75,273 L76,271 L76,269 L76,268 L77,264 L77,261 L77,257 L77,255 L77,254 L77,252 L78,250 L78,246 L78,242 L78,240 L78,239 L78,238 L79,236 L79,232 L79,229 L79,227 L80,224 L80,222 L80,219 L80,216 L80,213 L80,211 L80,209 L80,207 L80,204 L80,201 L81,200 L81,199 L81,198 L81,197 L82,195 L82,193 L83,192 L83,191 L83,190 L83,189 L83,188 L83,189 L83,191 L83,195 L83,199 L83,203 L83,205 L83,207 L83,209 L83,212 L83,215 L83,217 L84,217 L84,218 L84,217 L84,216 L84,215 L84,214 L84,213 L84,212 L85,212 L85,211 L85,210 L85,209 L85,208 L85,207 L85,206 L86,205 L86,204 L86,202 L86,201 L86,200 L86,198 L87,196 L87,194 L87,191 L88,189 L88,186 L89,183 L89,180 L90,176 L90,173 L91,169 L92,164 L92,160 L93,157 L94,154 L95,149 L95,143 L97,138 L97,134 L98,130 L99,126 L100,120 L102,116 L102,112 L103,110 L103,109 L103,107 L104,105 L105,102 L105,100 L105,98 L106,97 L106,95 L106,94 L107,94 L107,93 L107,94 L107,96 L107,98 L107,101 L107,105 L107,108 L107,112 L107,115 L108,118 L108,121 L108,124 L109,128 L109,132 L109,135 L109,139 L109,141 L109,144 L109,147 L109,150 L108,153 L108,156 L108,158 L108,159 L107,161 L107,163 L107,165 L106,167 L106,169 L106,171 L105,171 L105,172 L105,173 L105,176 L105,179 L105,183 L104,185 L104,187 L104,189 L103,192 L103,193 L102,195 L102,196 L102,197 L102,198 L102,200 L102,202 L101,204 L101,205 L100,207 L100,209 L100,210 L100,212 L99,214 L99,215 L99,217 L99,218 L99,219 L99,220 L99,221 L99,222 L99,223 L99,224 L99,225 L99,226 L100,225 L101,223 L102,221 L104,219 L105,218 L105,217 L106,217 L107,217 L107,218 L107,219 L107,220 L108,221 L108,222 L108,223 L107,224 L107,225 L107,226 L107,227 L108,227 L109,224 L110,222 L110,217 L111,213 L111,209 L111,205 L112,201 L112,198 L112,197 L112,194 L112,190 L113,186 L114,182 L114,178 L115,174 L116,169 L117,163 L118,158 L119,154 L120,151 L121,146 L122,140 L122,133 L123,127 L124,122 L125,119 L126,115 L127,111 L128,108 L128,109 L128,110 L128,112 L128,118 L127,124 L127,130 L127,136 L126,141 L125,146 L124,152 L124,157 L124,161 L124,164 L124,168 L124,171 L123,175 L123,178 L123,182 L123,186 L123,190 L124,194 L124,198 L124,202 L123,205 L123,209 L123,212 L123,215 L123,218 L123,220 L123,221 L123,222 L123,223 L123,224 L123,225 L123,226 L123,227 L122,227 L122,228 L122,230 L121,234 L120,238 L120,242 L119,245 L119,247 L119,250 L119,254 L119,258 L118,262 L118,265 L117,268 L117,271 L117,274 L117,278 L117,281 L117,283 L117,286 L117,287 L117,288 L117,289 L117,290 L117,291 L117,288 L117,285 L117,281 L117,276 L117,273 L117,270 L118,268 L118,266 L119,264 L119,262 L119,260 L120,258 L121,256 L121,252 L122,249 L122,246 L122,245 L123,244 L123,242 L124,238 L124,236 L125,234 L125,233 L126,231 L126,228 L127,224 L128,221 L128,219 L129,217 L129,215 L129,211 L130,207 L131,204 L131,202 L131,201 L131,199 L132,196 L132,193 L133,189 L133,187 L134,185 L134,184 L134,182 L135,178 L136,174 L136,171 L136,170 L136,169 L136,167 L136,166 L136,165 L136,166 L137,166 L138,167 L138,168 L139,169 L139,171 L139,172 L139,173 L139,174 L139,175 L140,177 L140,178 L140,180 L140,181 L140,182 L140,183 L140,185 L140,186 L141,186 L141,185 L141,184 L141,182 L141,180 L141,179 L141,178 L141,176 L142,173 L143,169 L144,166 L144,162 L145,158 L146,154 L146,150 L147,147 L147,145 L148,143 L148,139 L149,136 L149,134 L150,132 L150,131 L151,129 L151,127 L152,124 L153,122 L153,121 L153,120 L154,119 L154,117 L155,116 L155,117 L155,118 L155,119 L155,120 L155,121 L155,122 L155,123 L155,124 L155,125 L154,127 L154,128 L154,130 L154,131 L153,132 L153,133 L153,135 L152,136 L152,138 L151,140 L151,142 L151,143 L151,144 L151,146 L151,147 L151,148 L151,149 L151,151 L151,153 L150,154 L150,155 L150,156 L150,157 L149,158 L149,160 L149,161 L149,162 L149,163 L149,164 L149,165 L148,167 L148,170 L148,171 L148,172 L148,174 L147,177 L147,180 L147,183 L147,185 L147,188 L147,191 L146,195 L146,198 L146,200 L146,201 L146,202 L146,204 L146,207 L146,210 L146,212 L146,215 L145,217 L145,221 L144,223 L144,225 L144,227 L143,229 L143,230 L142,231 L142,232 L142,231 L142,230 L143,229 L144,227 L145,223 L146,220 L146,217 L147,214 L147,211 L148,208 L148,205 L149,204 L149,203 L150,202 L151,200 L151,197 L152,195 L153,193 L154,192 L155,190 L156,190 L156,189 L156,188 L157,187 L157,186 L158,185 L158,183 L159,182 L160,180 L160,179 L161,178 L161,177 L161,178 L161,179 L161,180 L161,182 L161,184 L161,186 L160,189 L160,191 L160,193 L160,194 L160,195 L160,194 L161,193 L161,191 L162,188 L162,185 L163,181 L163,178 L164,174 L165,169 L166,164 L166,160 L167,156 L168,154 L168,151 L168,148 L169,144 L171,139 L171,135 L172,132 L173,129 L175,124 L177,118 L179,112 L180,110 L180,109 L180,108 L180,105 L181,101 L182,98 L182,97 L182,98 L182,99 L182,100 L182,102 L182,105 L182,107 L182,111 L181,114 L181,119 L181,122 L181,126 L180,131 L180,135 L180,139 L179,142 L179,145 L179,148 L178,151 L178,154 L178,156 L178,159 L177,162 L177,164 L177,166 L176,169 L176,173 L176,176 L175,178 L175,180 L175,183 L174,185 L174,188 L173,190 L173,191 L173,193 L173,194 L172,194 L172,195 L172,197 L171,198 L171,200 L171,201 L171,202 L171,204 L171,206 L170,208 L170,209 L170,210 L169,212 L169,214 L168,216 L168,217 L168,218 L168,217 L169,215 L171,211 L173,207 L174,205 L175,204 L176,202 L177,202 L178,203 L178,204 L178,206 L178,209 L178,212 L178,214 L178,215 L178,216 L178,219 L178,221 L178,224 L177,226 L177,227 L177,228 L177,229 L177,232 L177,234 L176,237 L176,241 L175,246 L174,251 L173,256 L173,259 L172,261 L172,264 L172,266 L173,267 L173,268 L174,269 L174,271 L174,273 L175,275 L175,278 L174,281 L174,283 L174,285 L173,286 L173,287 L173,288 L173,289 L173,288 L174,286 L175,283 L176,280 L177,276 L178,272 L179,268 L179,265 L180,263 L180,261 L180,258 L181,256 L182,254 L182,252 L182,251 L183,249 L184,246 L185,244 L185,242 L186,239 L187,237 L187,234 L188,232 L188,229 L189,227 L189,228 L189,229 L189,232 L189,236 L189,242 L189,248 L188,252 L188,256 L188,259 L188,262 L188,264 L188,265 L189,265 L190,265 L190,264 L191,262 L192,261 L193,259 L193,256 L194,254 L195,252 L195,249 L195,247 L196,244 L196,241 L196,238 L197,235 L197,233 L198,232 L198,229 L198,225 L198,220 L199,215 L199,210 L199,207 L200,204 L200,199 L202,192 L203,185 L204,180 L204,177 L205,173 L206,167 L207,159 L209,154 L209,151 L209,150 L210,147 L212,142 L213,136 L214,133 L214,132 L215,129 L215,126 L216,125 L216,124 L216,123 L217,123 L217,124 L216,127 L215,130 L214,135 L213,139 L212,143 L211,146 L211,149 L210,152 L209,155 L208,158 L207,161 L207,163 L206,166 L205,169 L205,172 L205,175 L204,176 L204,177 L204,178 L204,179 L204,180 L204,181 L204,182 L204,181 L203,181 L203,182 L203,183 L203,185 L202,188 L202,191 L202,194 L201,196 L201,198 L201,200 L201,202 L201,205 L200,207 L200,209 L200,211 L200,212 L200,213 L200,215 L200,216 L200,218 L200,220 L200,221 L200,220 L200,218 L200,215 L200,211 L200,209 L200,208 L200,207 L200,205 L200,204 L200,205 L200,207 L199,212 L198,215 L197,217 L198,215 L198,210 L199,202 L200,192 L202,183 L204,176 L206,170 L209,164 L211,158 L213,151 L215,146 L217,141 L218,137 L220,132 L222,127 L223,121 L224,118 L224,120 L223,124 L221,131 L218,137 L217,144 L215,149 L215,154 L214,159 L212,165 L212,170 L211,174 L210,178 L210,180 L210,183 L210,185 L210,188 L210,191 L210,193 L209,195 L209,198 L209,200 L208,202 L208,205 L207,207 L207,210 L207,211 L207,213 L206,215 L206,216 L205,218 L205,220 L205,222 L205,224 L205,225 L205,226 L204,227 L204,228 L204,229 L204,231 L204,233 L204,235 L203,237 L203,238 L203,240 L202,242 L202,244 L202,245 L202,246 L202,247 L202,248 L202,249 L202,250 L201,249 L200,249 L200,250 L200,251 L201,252 L201,254 L201,255 L201,256 L201,258 L201,260 L201,261 L201,262 L201,263 L201,264 L201,265 L201,266 L201,267 L201,268 L201,269 L201,270 L201,271 L201,272 L200,273 L200,275 L200,276 L200,278 L200,274 L201,268 L202,259 L203,252 L204,247 L205,242 L207,237 L208,232 L209,227 L210,223 L210,218 L211,213 L212,209 L213,206 L214,204 L215,202 L215,200 L217,197 L217,194 L218,192 L218,191 L219,190 L220,187 L220,185 L220,186 L220,189 L219,193 L218,198 L217,205 L215,210 L215,213 L215,217 L215,221 L215,224 L214,228 L214,231 L214,232 L214,234 L214,235 L214,236 L214,235 L213,235 L213,236 L213,237 L213,238 L213,239 L213,240 L213,242 L213,243 L213,244 L213,246 L213,247 L213,249 L214,251 L214,253 L214,256 L214,261 L214,264 L214,266 L213,267 L213,269 L213,271 L212,274 L212,276 L212,278 L212,279 L212,281 L212,282 L212,283 L212,284 L212,285 L212,288 L212,291 L212,294 L212,296 L212,298 L211,299 L211,301 L211,305 L211,308 L210,309 L210,310 L210,311 L210,313 L210,314 L210,313 L211,309 L212,304 L214,297 L216,289 L218,283 L219,279 L220,276 L222,271 L223,266 L224,261 L224,257 L224,254 L225,250 L226,247 L227,244 L228,241 L229,238 L230,234 L230,231 L230,229 L230,228 L231,225 L231,222 L232,218 L233,215 L233,212 L233,211 L233,209 L233,207 L233,203 L234,199 L235,195 L235,193 L235,192 L235,190 L235,187 L236,183 L237,178 L237,174 L238,171 L238,170 L238,169 L239,170 L239,171 L239,174 L239,178 L239,183 L239,187 L239,190 L239,194 L239,199 L239,203 L238,207 L238,209 L238,211 L238,213 L238,216 L238,219 L238,222 L238,225 L237,228 L237,231 L237,233 L237,237 L237,239 L236,243 L236,245 L236,247 L235,250 L235,254 L234,258 L234,261 L234,265 L233,269 L233,273 L232,278 L232,283 L231,288 L231,293 L230,297 L230,302 L229,307 L228,312 L227,316 L227,320 L226,322 L225,325 L225,322 L225,319 L226,315 L227,311 L228,307 L229,303 L229,299 L230,296 L231,293 L232,291 L233,286 L234,279 L235,273 L236,270 L237,269 L237,268 L238,268 L239,268 L240,267 L241,267 L242,265 L243,263 L244,261 L245,257 L246,254 L246,250 L248,246 L248,244 L249,242 L249,239 L250,236 L251,232 L252,228 L253,225 L254,222 L254,219 L256,214 L257,208 L260,201 L262,194 L263,191 L264,188 L265,186 L266,183 L268,178 L270,176 L271,174 L271,173 L272,170 L273,168 L273,167 L273,166 L273,167 L273,169 L273,172 L272,176 L272,180 L271,184 L271,188 L270,193 L270,197 L269,201 L269,205 L268,209 L267,214 L266,218 L266,222 L266,225 L266,229 L265,233 L264,237 L263,242 L262,246 L262,248 L262,251 L261,254 L261,256 L260,259 L259,261 L259,263 L259,264 L259,266 L259,267 L259,269 L258,271 L258,273 L258,275 L258,276 L258,275 L257,274 L256,274 L255,274 L255,275 L254,275 L255,274 L255,272 L256,271 L257,269 L258,267 L260,265 L261,262 L263,260 L264,259 L264,258 L264,256 L266,253 L268,249 L270,244 L271,241 L271,238 L271,235 L272,231 L273,227 L274,222 L275,218 L275,215 L276,213 L277,209 L278,204 L280,198 L281,192 L281,187 L282,183 L283,176 L285,171 L286,166 L286,162 L286,161 L286,162 L286,164 L285,169 L284,175 L283,181 L282,187 L282,191 L281,194 L281,198 L280,201 L279,205 L278,208 L278,211 L278,213 L277,215 L277,218 L277,221 L276,223 L276,225 L276,226 L276,227 L276,229 L276,230 L276,232 L276,234 L276,235 L276,236 L276,237 L276,238 L276,239 L276,240 L276,241 L276,242 L276,243 L276,244 L276,245 L276,246 L276,247 L276,248 L276,249 L276,250 L276,251 L276,253 L276,255 L276,257 L276,259 L275,261 L275,262 L275,264 L275,266 L274,268 L274,271 L273,272 L273,273 L273,275 L273,277 L273,278 L273,279 L273,280 L273,281 L272,282 L272,281 L272,282 L272,283 L272,284 L272,286 L272,283 L273,280 L275,275 L276,272 L277,268 L278,264 L279,259 L281,254 L282,251 L283,249 L284,246 L285,243 L286,238 L288,235 L288,233 L288,232 L289,230 L290,228 L290,227 L290,226 L291,225 L291,224 L291,223 L291,222 L291,221 L291,220 L291,221 L291,222 L291,224 L291,227 L291,231 L291,236 L291,240 L290,244 L290,248 L290,253 L289,257 L289,261 L289,264 L288,266 L288,270 L288,273 L288,276 L288,279 L288,282 L287,285 L287,288 L287,292 L286,295 L286,298 L286,301 L285,304 L284,308 L283,312 L283,314 L282,316 L282,320 L281,324 L281,327 L281,328 L280,329 L280,328 L281,327 L281,324 L282,320 L283,316 L285,310 L287,304 L288,298 L289,293 L291,288 L291,284 L292,281 L293,278 L294,275 L295,271 L295,266 L297,262 L298,259 L298,257 L299,254 L300,250 L301,244 L302,239 L303,236 L303,234 L303,232 L304,229 L305,223 L307,217 L307,212 L308,211 L308,210 L308,207 L308,204 L308,200 L308,196 L309,193 L309,191 L309,190 L310,190 L310,188 L311,185 L312,185 L312,186 L312,188 L313,191 L313,195 L313,200 L313,204 L313,208 L313,211 L313,214 L313,217 L313,220 L313,223 L313,226 L313,228 L313,230 L313,232 L313,233 L312,233 L312,232 L312,230 L312,229 L313,228 L313,227 L313,226 L313,224 L313,221 L314,218 L315,216 L315,215 L315,213 L316,211 L317,207 L317,204 L318,203 L318,202 L318,201 L319,200 L319,197 L320,193 L321,190 L321,187 L322,183 L323,179 L324,173 L325,170 L325,169 L325,168 L326,166 L327,163 L327,160 L327,158 L327,157 L328,155 L328,153 L329,150 L330,146 L330,144 L330,143 L331,143 L332,141 L332,139 L333,139 L333,140 L333,141 L333,144 L333,146 L333,150 L332,154 L332,158 L331,161 L331,165 L330,168 L330,172 L330,176 L329,180 L329,182 L329,184 L328,186 L328,189 L328,192 L327,194 L327,196 L327,198 L326,200 L326,202 L326,204 L325,205 L325,207 L325,209 L324,211 L323,213 L323,214 L323,215 L323,216 L322,217 L322,215 L323,213 L324,211 L325,210 L325,208 L326,207 L327,205 L329,201 L330,198 L331,196 L331,195 L332,195 L332,193 L334,192 L335,190 L336,190 L336,189 L336,190 L336,193 L336,195 L336,199 L335,202 L335,205 L334,207 L334,209 L333,211 L333,212 L333,214 L332,216 L332,218 L331,220 L331,222 L330,224 L330,226 L330,227 L330,229 L329,232 L328,236 L327,239 L327,243 L325,247 L324,253 L323,258 L322,261 L321,264 L320,267 L320,269 L320,271 L320,272 L320,271 L321,269 L324,264 L327,258 L329,251 L331,247 L332,243 L333,239 L335,235 L338,231 L339,228 L340,227 L341,224 L344,218 L346,212 L348,209 L348,208 L348,210 L347,212 L347,215 L346,218 L346,221 L345,224 L345,226 L344,228 L343,232 L342,235 L341,239 L340,242 L340,245 L339,247 L339,250 L338,253 L338,254 L337,256 L337,258 L337,259 L336,259 L335,259 L334,259 L333,259 L333,260 L334,261 L334,264 L335,266 L335,270 L335,275 L335,278 L334,279 L334,280 L333,282 L333,285 L332,287 L332,286 L333,285 L333,284 L333,283 L334,281 L334,280 L335,279 L334,281 L333,284 L332,290 L330,297 L329,302 L328,306 L328,310 L327,313 L327,316 L326,322 L325,329 L323,334 L322,337 L321,339 L320,339 L320,338 L321,336 L322,332 L324,328 L325,322 L327,315 L329,309 L331,301 L334,293 L337,287 L338,283 L339,281 L340,278 L342,274 L345,267 L348,260 L350,255 L353,250 L354,246 L357,241 L360,234 L363,227 L365,222 L367,220 L367,217 L369,214 L371,208 L373,203 L375,200 L376,199 L376,198 L376,197 L376,196 L375,198 L375,200 L374,204 L374,207 L374,210 L374,212 L374,214 L374,217 L373,219 L373,222 L372,224 L372,223 L372,222 L372,221 L374,218 L375,215 L376,213 L377,210 L378,209 L379,206 L381,202 L382,200 L382,198 L383,198 L383,197 L383,195 L384,193 L385,190 L386,187 L386,184 L388,181 L388,179 L389,177 L391,173 L392,170 L393,166 L394,165 L395,167 L395,170 L395,173 L395,176 L394,181 L394,185 L393,187 L393,186 L393,185 L395,182 L397,178 L399,174 L401,172 L402,171 L403,169 L404,168 L405,168 L405,169 L405,171 L405,172 L405,174 L405,176 L405,178 L405,180 L405,181 L405,180 L404,180 L404,181 L404,183 L404,186 L404,189 L404,192 L403,195 L403,198 L403,202 L402,206 L401,210 L401,213 L401,217 L400,221 L399,227 L398,232 L398,237 L397,242 L396,246 L396,251 L394,259 L392,266 L391,271 L391,275 L391,279 L390,283 L389,288 L389,294 L388,298 L388,301 L388,305 L388,310 L386,316 L385,321 L385,325 L384,328 L384,331 L383,335 L383,336 L383,337 L383,336 L383,335 L383,334 L383,332 L383,329 L383,324 L385,318 L386,312 L388,307 L389,303 L391,299 L393,295 L395,292 L396,288 L398,283 L399,279 L400,276 L401,273 L401,271 L402,268 L403,264 L405,259 L406,256 L407,255 L407,254 L408,252 L408,249 L410,244 L411,242 L411,243 L411,242 L411,240 L411,239 L411,237 L411,236 L411,235 L412,233 L413,230 L413,229 L413,228 L413,229 L413,230 L413,232 L413,234 L413,238 L412,242 L411,246 L410,249 L410,253 L410,256 L409,260 L408,264 L408,266 L408,268 L408,270 L408,273 L407,277 L406,281 L405,284 L405,286 L405,288 L404,291 L403,294 L403,298 L403,299 L403,300 L402,300 L402,304 L401,308 L400,312 L400,311 L400,310 L401,306 L403,301 L405,296 L407,292 L409,288 L410,285 L412,282 L413,281 L413,280 L413,279 L414,277 L415,275 L416,274 L417,273 L418,271 L418,270 L418,271 L418,272 L418,273 L418,274 L418,275 L418,276 L418,278 L418,280 L419,282 L419,283 L419,284 L419,285 L419,286 L419,288 L419,289 L419,290 L419,289 L419,291 L418,293 L418,295 L418,296 L417,298 L417,300 L416,302 L416,303 L416,305 L416,307 L415,308 L416,305 L417,302 L418,298 L419,295 L420,292 L420,290 L421,286 L422,282 L423,278 L425,273 L426,269 L428,265 L429,261 L430,256 L432,250 L433,244 L434,240 L435,236 L435,233 L435,229 L436,224 L437,220 L437,214 L439,210 L440,208 L441,204 L442,200 L443,194 L444,189 L445,185 L445,184 L445,182 L445,179 L446,176 L447,173 L447,170 L447,168 L447,166 L448,163 L449,161 L449,159 L449,157 L450,156 L450,157 L450,159 L450,163 L450,168 L450,175 L450,180 L450,185 L449,188 L449,192 L449,195 L449,197 L449,199 L449,200 L449,199 L449,198 L450,196 L451,194 L451,191 L452,188 L453,186 L454,184 L454,182 L455,179 L456,176 L457,173 L457,171 L458,168 L459,164 L460,161 L461,158 L462,155 L464,153 L465,149 L467,146 L468,143 L469,140 L470,137 L471,134 L472,130 L474,126 L474,122 L474,121 L475,121 L475,120 L476,122 L476,124 L476,128 L476,132 L476,136 L475,140 L475,143 L475,147 L475,152 L475,156 L475,159 L476,161 L476,164 L476,167 L477,170 L477,173 L477,176 L477,180 L477,183 L477,187 L477,191 L476,196 L475,202 L474,207 L472,212 L471,217 L471,221 L470,225 L469,230 L467,234 L466,239 L465,244 L464,249 L463,253 L462,257 L461,261 L460,266 L458,272 L457,278 L456,282 L455,286 L455,288 L454,292 L454,295 L452,300 L452,303 L451,306 L451,308 L450,309 L450,310 L450,311 L450,310 L451,308 L452,306 L453,303 L454,300 L454,299 L454,297 L455,295 L456,291 L457,287 L459,285 L459,283 L460,282 L461,281 L462,277 L464,274 L465,273 L466,272 L466,271 L467,269 L469,265 L471,261 L472,259 L473,258 L473,257 L474,256 L474,257 L475,258 L475,259 L475,261 L475,264 L475,266 L475,268 L475,269 L475,271 L474,273 L474,275 L474,277 L473,278 L473,279 L473,280 L473,281 L473,283 L472,284 L472,286 L472,287 L472,288 L472,289 L472,290 L472,291 L472,292 L472,291 L472,290 L472,287 L473,283 L474,280 L474,277 L475,274 L475,270 L476,266 L476,261 L477,256 L479,253 L480,249 L482,243 L484,237 L485,230 L486,224 L487,221 L488,217 L489,214 L489,210 L490,204 L491,198 L492,195 L492,192 L492,190 L493,186 L493,182 L494,177 L495,173 L496,169 L496,166 L496,164 L496,161 L497,160 L498,158 L499,157 L499,156 L500,154 L501,151 L502,149 L502,148 L502,149 L502,150 L503,152 L503,154 L503,157 L503,159 L504,161 L504,164 L503,167 L503,170 L503,173 L503,175 L503,178 L503,180 L503,183 L503,188 L503,191 L503,195 L503,200 L503,204 L503,207 L503,210 L503,208 L503,207 L504,205 L504,202 L505,200 L506,199 L506,198 L507,197 L508,195 L508,193 L509,193 L509,192 L510,190 L511,189 L511,188 L511,187 L511,186 L512,185 L512,184 L513,182 L513,179 L515,175 L516,171 L517,168 L517,167 L517,166 L517,164 L518,161 L519,158 L519,157 L520,157 L520,158 L520,160 L519,162 L519,165 L518,168 L518,172 L518,175 L517,178 L516,181 L516,183 L516,185 L515,188 L515,189 L515,191 L515,193 L515,195 L515,196 L515,198 L515,200 L515,202 L516,203 L516,205 L517,206 L517,207 L517,208 L517,209 L518,210 L518,211 L518,212 L518,213 L518,214 L518,215 L518,216 L518,217 L518,219 L518,221 L518,222 L517,224 L517,226 L516,228 L515,231 L515,235 L514,239 L513,243 L512,246 L511,250 L511,253 L510,257 L510,260 L510,263 L510,266 L509,268 L508,271 L507,275 L507,278 L506,280 L506,281 L506,282 L505,283 L505,285 L504,287 L503,289 L502,290 L502,291 L502,290 L503,289 L504,287 L506,283 L508,281 L510,278 L511,277 L512,276 L513,276 L513,275 L514,276 L515,278 L515,279 L516,280 L517,282 L518,284 L518,287 L519,289 L520,291 L521,293 L521,294 L521,295 L521,294 L521,293 L522,291 L522,288 L523,285 L523,282 L524,279 L525,274 L526,268 L527,264 L527,259 L528,256 L528,252 L529,247 L530,241 L531,236 L532,232 L533,227 L533,223 L533,218 L534,212 L535,207 L535,202 L536,197 L537,193 L537,188 L537,183 L538,177 L539,172 L540,168 L540,166 L541,162 L542,159 L543,156 L544,154 L544,152 L545,152 L545,151 L545,150 L546,149 L547,146 L547,144 L547,146 L548,148 L548,151 L548,156 L548,160 L547,165 L547,169 L547,173 L546,178 L546,182 L545,186 L545,190 L545,194 L545,198 L545,202 L545,206 L545,209 L545,211 L545,212 L545,211 L546,208 L548,203 L550,197 L552,192 L554,188 L556,184 L558,180 L560,176 L562,169 L563,164 L563,162 L563,160 L564,157 L566,154 L568,150 L569,149 L569,150 L570,151 L571,154 L571,156 L571,160 L571,164 L570,168 L569,173 L568,177 L567,182 L566,185 L565,190 L564,193 L564,197 L563,200 L563,204 L563,209 L562,213 L561,217 L561,221 L560,225 L559,229 L559,233 L558,237 L557,241 L556,245 L555,248 L554,251 L554,253 L554,254 L554,256 L553,257 L552,259 L552,261 L551,263 L550,264 L550,265 L550,264 L551,263 L552,260 L555,255 L557,250 L559,246 L560,244 L562,243 L563,241 L564,238 L565,236 L566,235 L566,236 L566,237 L566,238 L566,239 L566,241 L566,243 L566,245 L566,247 L565,250 L565,252 L564,254 L564,256 L564,258 L564,260 L564,261 L564,264 L564,265 L564,266 L563,268 L563,271 L562,274 L562,277 L561,281 L560,284 L560,287 L559,291 L559,294 L558,298 L557,301 L557,304 L556,307 L555,310 L555,314 L553,317 L552,321 L551,325 L551,327 L550,330 L550,332 L550,336 L549,339 L548,342 L548,345 L548,348 L547,352 L547,354 L547,356 L547,357 L547,358 L547,359 L547,360 L547,361 L547,360 L547,359 L548,357 L550,354 L552,350 L554,347 L556,344 L557,342 L559,339 L559,338 L560,337 L560,338 L561,339 L561,341 L562,343 L562,346 L562,349 L563,352 L563,354 L564,352 L564,349 L566,346 L567,342 L568,337 L569,334 L571,330 L573,326 L575,321 L577,317 L577,315 L578,311 L580,305 L582,300 L582,295 L583,291 L583,286 L583,281 L584,275 L585,269 L585,263 L586,258 L586,253 L586,249 L586,246 L586,243 L586,241 L586,240 L586,241 L586,243 L587,246 L587,249 L587,253 L588,257 L588,261 L588,264 L588,267 L588,269 L588,271 L588,273 L588,272 L588,270 L589,268 L589,266 L590,263 L591,260 L591,257 L593,254 L594,251 L595,247 L596,243 L596,239 L597,236 L598,232 L599,228 L599,225 L600,221 L601,217 L601,212 L602,208 L602,205 L603,202 L603,200 L604,198 L604,197 L605,197 L605,198 L606,199 L606,201 L607,204 L607,207 L607,211 L607,216 L606,220 L606,224 L606,227 L606,231 L606,235 L605,240 L604,244 L603,247 L603,250 L602,252 L602,255 L602,257 L602,258 L602,259 L601,261 L601,260 L602,258 L603,256 L604,252 L605,249 L606,245 L607,242 L609,237 L611,234 L612,229 L613,225 L614,222 L616,217 L617,213 L618,209 L619,206 L620,204 L621,202 L621,200 L622,198 L623,195 L623,194 L623,193 L623,194 L623,195 L623,198 L623,200 L622,204 L621,208 L621,212 L620,217 L618,221 L618,225 L617,228 L617,230 L617,232 L617,234 L617,237 L616,239 L616,242 L616,244 L616,247 L615,249 L615,252 L615,255 L615,257 L614,259 L614,260 L614,261 L615,259 L616,257 L618,254 L619,250 L621,247 L622,244 L623,242 L624,238 L625,234 L627,229 L628,226 L629,223 L630,218 L631,213 L632,208 L633,204 L633,201 L633,198 L634,195 L634,191 L635,188 L636,184 L636,182 L637,180 L637,179 L637,177 L638,174 L638,173 L638,174 L638,175 L638,178 L638,180 L639,183 L639,185 L639,187 L639,189 L639,192 L639,195 L639,197 L639,200 L639,203 L639,206 L639,209 L639,212 L639,215 L639,218 L638,222 L638,225 L637,229 L636,232 L635,235 L634,238 L633,242 L632,244 L632,246 L631,246 L631,247 L631,246 L632,245 L634,242 L636,238 L638,234 L640,230 L640,227 L641,224 L642,220 L643,216 L644,212 L644,209 L644,206 L645,202 L646,198 L648,193 L649,189 L650,186 L651,184 L652,181 L652,179 L653,177 L654,175 L654,174 L654,175 L654,176 L654,179 L654,183 L654,188 L654,193 L654,196 L654,199 L654,201 L654,203 L654,205 L654,206 L654,205 L655,204 L655,202 L656,200 L657,198 L657,195 L658,194 L659,193 L660,190 L662,188 L663,185 L664,184 L664,183 L664,182 L664,183 L663,185 L662,188 L662,190 L662,193 L661,195 L661,197 L661,199 L661,200 L661,201 L661,202 L661,203 L661,205 L661,207 L661,208 L661,210 L660,212 L659,215 L658,217 L658,219 L657,221 L657,222 L657,224 L656,225 L656,226 L656,228 L656,229 L656,230 L656,231 L656,232 L655,233 L655,235 L655,237 L655,239 L655,241 L655,242 L655,245 L654,247 L654,249 L654,250 L654,251 L653,252 L653,254 L652,255 L652,256 L652,257 L652,258 L652,260 L652,262 L652,264 L652,265 L652,266 L652,265 L653,262 L655,259 L657,255 L658,251 L660,247 L663,242 L665,237 L666,232 L667,228 L667,226 L668,223 L669,220 L670,216 L670,214 L670,215 L670,217 L670,221 L670,224 L670,227 L669,231 L668,234 L668,238 L667,241 L667,243 L667,246 L666,249 L666,251 L665,254 L665,256 L664,259 L662,261 L662,264 L661,266 L661,267 L661,268 L660,269 L660,270 L660,271 L660,270 L661,270 L661,269 L662,268 L662,267 L663,266 L664,264 L665,263 L665,262 L666,261 L667,260 L668,258 L669,256 L670,254 L671,250 L672,246 L672,244 L673,241 L674,237 L675,233 L677,228 L678,224 L679,220 L679,217 L679,215 L680,211 L681,208 L682,205 L683,202 L683,199 L683,198 L683,197 L684,195 L684,193 L684,192 L684,191 L684,190 L684,189 L684,190 L684,192 L684,194 L684,198 L684,201 L684,205 L684,209 L683,213 L682,217 L681,222 L680,227 L679,232 L677,237 L675,242 L673,247 L672,252 L671,257 L670,262 L667,267 L665,273 L663,278 L661,283 L660,287 L658,291 L657,295 L656,299 L655,303 L655,306 L655,309 L654,313 L654,315 L654,317 L653,320 L652,324 L651,327 L650,329 L650,331 L650,332 L649,333 L649,335 L648,335 L648,336 L648,337 L648,338 L648,339 L647,340 L647,341 L647,342 L647,341 L647,340 L648,339 L648,337 L648,336 L649,335 L650,333 L650,332 L651,331 L652,329 L653,327 L654,325 L655,323 L656,321 L657,318 L658,316 L660,314 L660,311 L661,309 L663,306 L664,303 L665,301 L666,299 L667,296 L667,293 L668,291 L669,288 L670,286 L670,284 L671,282 L672,279 L673,276 L674,272 L675,271 L676,268 L677,266 L678,263 L680,261 L681,259 L682,257 L683,254 L684,251 L685,248 L686,244 L687,240 L689,236 L690,231 L691,227 L692,223 L693,219 L694,216 L694,213 L695,210 L696,207 L697,206 L698,204 L698,203 L698,202 L698,203 L698,204 L698,207 L698,210 L699,213 L699,218 L699,222 L698,227 L697,231 L696,235 L696,239 L695,243 L694,247 L693,251 L692,257 L692,262 L691,266 L691,270 L690,273 L690,276 L689,281 L688,285 L687,288 L687,289 L687,290 L687,291 L687,293 L687,294 L686,295 L686,296 L686,297 L685,299 L685,300 L684,302 L684,303 L684,302 L685,300 L685,298 L686,295 L687,292 L687,287 L689,283 L690,278 L691,272 L692,267 L693,261 L694,256 L694,251 L696,245 L697,239 L699,232 L701,225 L702,218 L703,213 L704,207 L704,202 L706,196 L707,191 L709,185 L710,181 L711,177 L711,173 L712,169 L713,165 L714,161 L714,157 L714,156 L714,154 L714,155 L714,157 L715,160 L715,164 L716,169 L716,174 L716,180 L716,185 L716,190 L716,196 L716,201 L716,207 L716,212 L716,217 L716,221 L716,226 L716,230 L716,234 L716,239 L715,243 L715,247 L715,251 L714,254 L714,257 L714,260 L714,264 L714,266 L713,269 L713,272 L712,274 L712,277 L712,279 L711,282 L711,285 L711,287 L711,289 L711,291 L711,293 L711,295 L710,296 L710,297 L710,298 L710,299 L710,300 L710,301 L710,302 L709,303 L709,304 L709,305 L709,306 L709,307 L709,308 L708,309 L708,310 L708,311 L708,312 L708,311 L708,309 L708,307 L709,304 L709,301 L710,299 L711,296 L711,294 L712,291 L713,287 L714,283 L715,279 L716,275 L718,270 L720,265 L723,259 L724,254 L726,249 L727,244 L728,239 L730,234 L731,229 L732,226 L732,224 L732,222 L733,220 L733,217 L733,216 L733,217 L733,219 L732,222 L732,226 L731,229 L731,233 L731,237 L731,240 L731,244 L731,247 L732,249 L732,252 L733,254 L733,256 L733,259 L733,262 L733,264 L733,266 L733,268 L733,270 L733,272 L733,274 L733,276 L733,278 L733,279 L733,280 L733,281 L733,282 L733,283 L733,285 L733,286 L733,287 L733,288 L733,289 L733,290 L733,291 L732,293 L732,294 L731,295 L731,297 L731,298 L731,299 L731,300 L731,299 L731,298 L731,297 L731,296 L731,294 L733,291 L736,288 L738,284 L740,282 L741,279 L742,277 L743,274 L744,270 L745,266 L745,262 L745,259 L746,254 L746,249 L747,244 L748,240 L749,234 L750,229 L752,224 L753,219 L755,213 L756,207 L758,202 L759,196 L760,191 L761,186 L762,182 L762,178 L762,175 L762,172 L763,170 L763,168 L763,167 L763,166 L763,168 L763,171 L762,174 L762,178 L762,184 L761,190 L760,195 L760,200 L760,203 L760,206 L760,208 L760,210 L761,211 L761,212 L761,213 L761,212 L761,211 L762,210 L762,208 L762,207 L763,205 L763,204 L763,203 L764,202 L764,201 L764,200 L765,199 L765,198 L765,197 L765,196 L765,195 L765,194 L765,193 L766,192 L766,190 L766,189 L766,187 L767,185 L767,183 L767,181 L767,179 L768,178 L768,176 L769,174 L769,172 L770,170 L770,168 L770,166 L770,163 L771,159 L771,155 L772,151 L772,148 L772,145 L773,142 L774,138 L775,133 L777,127 L778,122 L778,119 L778,116 L778,114 L778,112 L779,111 L779,112 L779,113 L779,117 L779,121 L780,127 L780,132 L780,137 L780,142 L780,146 L780,151 L780,155 L780,159 L779,163 L778,168 L777,172 L777,175 L777,178 L776,182 L775,185 L775,189 L775,190 L775,191 L775,190 L776,189 L777,187 L778,183 L780,180 L781,176 L782,173 L782,171 L784,168 L785,166 L787,163 L789,160 L790,158 L792,155 L793,153 L794,151 L794,150 L794,149 L794,150 L794,152 L794,154 L794,158 L794,161 L794,166 L793,169 L793,172 L792,176 L792,179 L791,183 L790,187 L789,190 L788,194 L787,198 L786,202 L786,206 L785,210 L784,214 L784,219 L783,224 L782,229 L782,234 L781,239 L780,243 L780,248 L779,254 L778,259 L777,266 L775,272 L773,279 L772,286 L770,293 L770,299 L769,304 L769,309 L768,313 L768,317 L767,320 L767,322 L768,322 L769,321 L770,320 L771,316 L773,311 L775,305 L777,298 L779,293 L780,286 L782,280 L783,272 L785,264 L786,257 L787,250 L788,242 L789,234 L792,224 L794,215 L796,206 L797,198 L799,190 L801,180 L803,171 L805,161 L807,153 L808,146 L809,139 L809,132 L811,125 L811,119 L812,114 L812,111 L812,109 L812,107 L813,105 L813,104 L813,105 L814,106 L814,107 L814,109 L815,111 L815,113 L815,117 L816,120 L816,123 L816,126 L816,129 L816,132 L816,136 L816,138 L816,141 L816,143 L816,145 L816,147 L816,150 L816,152 L815,155 L815,157 L815,160 L815,163 L815,166 L815,169 L815,171 L815,173 L815,174 L815,176 L814,177 L814,178 L814,180 L814,179 L814,178 L814,177 L814,176 L814,173 L814,171 L815,168 L816,164 L817,160 L819,156 L820,153 L821,149 L823,145 L824,141 L826,136 L827,133 L828,130 L828,128 L828,126 L829,124 L829,125 L829,127 L828,131 L828,136 L826,141 L826,146 L825,152 L824,157 L823,162 L822,166 L822,171 L822,175 L821,179 L821,183 L821,187 L821,190 L820,193 L819,195 L819,198 L818,200 L817,203 L817,206 L816,210 L815,213 L814,217 L814,220 L813,224 L812,228 L811,231 L810,235 L809,239 L808,243 L806,247 L805,251 L804,256 L803,260 L802,263 L802,265 L802,268 L801,270 L801,271 L802,270 L802,268 L803,266 L805,262 L807,258 L811,253 L814,248 L817,244 L820,239 L822,234 L824,230 L826,225 L829,220 L831,215 L833,209 L835,204 L836,201 L836,199 L836,198 L836,197 L836,198 L836,201 L836,205 L835,210 L834,215 L833,221 L833,226 L833,230 L833,235 L833,241 L832,245 L831,249 L831,252 L831,255 L830,257 L829,259 L829,258 L829,255 L829,252 L830,248 L831,243 L833,237 L833,232 L834,227 L835,222 L836,215 L836,208 L837,202 L838,194 L838,188 L839,180 L841,173 L843,165 L845,157 L846,150 L848,143 L849,136 L850,130 L851,123 L852,118 L853,114 L853,110 L853,106 L853,103 L852,102 L852,103 L852,105 L853,107 L853,109 L853,112 L854,115 L854,119 L855,121 L855,124 L855,128 L855,131 L855,135 L856,137 L856,139 L856,141 L857,142 L857,143 L857,144 L858,145 L858,143 L859,140 L860,136 L861,132 L862,129 L863,125 L864,121 L865,118 L867,115 L868,112 L869,109 L870,106 L870,105 L870,104 L870,103 L871,103 L871,105 L871,107 L871,110 L872,114 L872,117 L872,122 L872,126 L872,130 L871,135 L870,139 L870,142 L869,147 L868,152 L866,158 L864,164 L862,170 L860,176 L858,181 L857,187 L856,192 L855,198 L854,202 L854,207 L853,211 L853,215 L852,218 L852,220 L852,221 L853,222 L854,222 L855,221 L855,219 L856,216 L858,213 L858,210 L860,207 L860,203 L862,199 L864,194 L865,189 L867,184 L868,180 L870,175 L871,169 L873,162 L875,156 L876,151 L877,146 L878,142 L880,137 L881,132 L883,128 L884,124 L885,122 L886,119 L887,116 L889,113 L890,110 L891,107 L891,105 L892,104 L892,103 L892,104 L892,106 L892,109 L891,113 L891,118 L891,123 L890,128 L890,133 L890,138 L889,142 L887,148 L887,153 L886,157 L886,160 L886,163 L885,167 L885,170 L883,173 L882,176 L881,178 L880,180 L880,183 L880,185 L879,187 L879,189 L878,191 L877,193 L877,195 L876,198 L875,200 L875,202 L874,205 L874,207 L873,210 L871,214 L870,217 L869,221 L868,223 L868,226 L867,229 L866,232 L865,236 L865,239 L865,242 L864,245 L863,248 L863,251 L862,254 L861,257 L861,259 L861,260 L861,261 L862,261 L862,260 L863,259 L864,256 L865,254 L867,251 L868,249 L869,246 L871,242 L873,239 L874,236 L875,233 L875,230 L876,227 L877,224 L879,220 L880,217 L881,213 L882,210 L883,207 L884,205 L885,202 L885,199 L886,195 L887,193 L888,190 L889,187 L890,183 L891,181 L891,179 L891,176 L892,174 L892,171 L893,169 L893,168 L894,166 L894,164 L894,163 L894,161 L895,159 L895,156 L896,154 L897,152 L898,150 L899,148 L899,146 L900,144 L900,142 L901,141 L902,139 L902,138 L902,139 L902,141 L902,145 L902,150 L901,156 L900,162 L899,167 L898,173 L898,176 L897,180 L897,182 L897,183 L897,184 L898,181 L901,176 L904,169 L906,163 L908,160 L909,157 L910,154 L912,151 L913,148 L913,147 L913,146 L913,147 L912,148 L912,151 L911,154 L910,157 L909,162 L909,166 L908,169 L908,173 L907,176 L906,180 L904,183 L903,187 L902,190 L901,192 L901,195 L900,198 L899,200 L897,202 L897,205 L896,207 L895,209 L894,211 L893,214 L892,217 L892,219 L891,222 L891,224 L890,227 L889,230 L888,234 L887,237 L886,240 L885,243 L885,246 L883,249 L882,253 L881,255 L880,258 L879,260 L877,262 L877,264 L876,266 L876,268 L875,270 L874,272 L874,274 L874,273 L875,271 L876,268 L878,265 L880,261 L882,258 L885,253 L889,247 L892,242 L894,237 L895,233 L897,229 L900,224 L904,218 L906,214 L907,210 L909,207 L909,204 L910,201 L911,199 L911,197 L911,195 L912,194 L912,195 L911,198 L910,202 L909,206 L908,210 L907,215 L906,218 L906,222 L905,224 L905,227 L904,228 L904,229 L903,229 L902,229 L901,231 L901,232 L900,233 L898,235 L895,240 L890,246 L888,250 L888,251 L888,252 L888,253 L888,254 L888,255 L888,256 L889,255 L890,253 L892,249 L895,246 L897,242 L901,238 L904,234 L907,229 L909,224 L911,221 L912,218 L912,215 L914,212 L915,209 L916,208 L917,207 L917,208 L916,210 L916,212 L915,215 L914,219 L913,224 L912,228 L911,231 L910,234 L910,237 L909,241 L909,243 L909,245 L909,246 L909,247 L909,248 L908,249 L908,250 L908,251 L908,250 L909,249 L909,246 L910,242 L912,238 L913,233 L914,227 L915,222 L917,215 L918,208 L919,202 L920,195 L921,187 L922,179 L923,171 L924,161 L924,154 L923,146 L923,139 L923,132 L924,126 L925,119 L926,113 L927,108 L927,104 L928,102 L928,100 L928,99 L928,98 L928,99 L928,101 L928,104 L928,107 L928,111 L928,116 L927,120 L926,125 L926,130 L926,135 L925,139 L925,142 L925,146 L925,150 L925,154 L925,158 L925,162 L926,166 L926,169 L927,172 L928,175 L928,178 L928,181 L929,184 L929,186 L930,188 L930,190 L931,192 L931,193 L931,195 L931,196 L931,197 L931,198 L931,199 L931,200 L932,200 L932,201 L932,202 L932,203 L932,204 L932,205 L933,205 L933,207 L933,208 L933,209 L933,210 L933,212 L933,214 L933,215 L934,216 L934,217 L934,218 L934,219 L934,220 L934,222 L934,223 L934,224 L934,225 L934,224 L934,222 L935,219 L937,213 L939,206 L941,199 L941,193 L942,188 L942,185 L943,180 L944,175 L945,170 L945,164 L946,159 L946,156 L946,153 L946,150 L946,149 L946,148 L946,147 L946,149 L946,151 L945,154 L944,159 L943,164 L942,170 L942,174 L941,178 L941,183 L941,188 L941,191 L941,194 L941,195 L941,197 L941,198 L942,200 L942,201 L943,202 L943,203 L943,204 L943,206 L943,207 L943,209 L943,211 L943,213 L944,214 L944,215 L944,216 L944,217 L945,217 L945,218 L945,219 L945,220 L945,221 L945,222 L945,223 L945,224 L945,225 L945,224 L946,221 L948,217 L950,212 L952,207 L954,202 L956,197 L959,191 L960,186 L961,182 L961,178 L961,175 L961,173 L959,176 L957,180 L954,187 L951,193 L948,202 L946,211 L944,220 L943,228 L941,236 L940,243 L939,249 L939,254 L939,257 L939,260 L939,261 L939,262 L940,262 L940,261 L941,259 L941,257 L941,254 L943,251 L944,248 L946,243 L948,237 L950,231 L953,224 L958,214 L961,205 L963,195 L966,185 L968,173 L970,162 L971,153 L971,146 L970,141 L970,137 L971,135" fill="none" stroke="red" stroke-width="3"/></svg>