<svg xmlns="http://www.w3.org/2000/svg" xmlns:xlink="http://www.w3.org/1999/xlink" version="1.1" class="marks" width="1012" height="385" viewBox="0 0 1012 385"><rect width="1012" height="385" fill="white"/><path d="M13,205 L13,204 L12,204 L11,204 L11,205 L12,200 L15,192 L18,184 L19,180 L20,179 L22,177 L22,175 L23,174 L23,173 L24,173 L24,174 L25,174 L25,175 L25,177 L26,180 L26,183 L26,187 L27,190 L28,195 L29,200 L29,204 L29,207 L30,208 L30,207 L31,206 L32,202 L34,198 L36,193 L39,188 L40,186 L40,188 L40,190 L41,193 L41,197 L41,201 L42,207 L42,210 L42,211 L43,210 L44,207 L46,203 L47,199 L48,195 L50,193 L51,193 L52,195 L52,196 L53,196 L55,193 L56,190 L58,187 L59,184 L61,181 L62,178 L63,177 L63,176 L63,177 L63,178 L63,179 L63,183 L63,189 L64,197 L65,205 L65,212 L65,220 L65,228 L65,236 L65,244 L65,252 L64,260 L64,267 L64,273 L64,277 L64,278 L64,279 L64,278 L64,275 L64,268 L65,260 L66,249 L66,237 L67,224 L68,212 L68,201 L68,190 L68,181 L68,173 L68,167 L68,160 L69,153 L70,145 L71,137 L72,130 L73,122 L74,115 L75,109 L76,105 L76,104 L77,107 L77,112 L78,121 L79,133 L81,149 L82,163 L83,177 L84,192 L84,206 L85,219 L86,232 L87,244 L88,257 L89,266 L90,271 L90,272 L90,271 L91,266 L91,260 L91,251 L92,240 L93,226 L95,210 L97,190 L98,170 L101,158 L103,152 L103,150 L103,153 L104,159 L105,168 L105,178 L106,189 L106,200 L107,213 L107,227 L107,238 L107,246 L108,253 L108,260 L108,265 L108,267 L109,267 L109,265 L109,261 L109,257 L110,251 L110,243 L111,232 L112,219 L113,206 L114,196 L115,188 L116,183 L117,183 L117,185 L117,189 L117,193 L118,198 L119,203 L119,208 L121,215 L122,221 L123,226 L123,227 L124,227 L124,226 L126,224 L127,222 L128,219 L129,215 L130,210 L130,205 L130,203 L130,204 L130,205 L131,207 L131,211 L132,215 L132,219 L133,222 L134,224 L134,225 L134,224 L135,220 L136,212 L137,204 L139,195 L141,187 L143,178 L145,169 L147,162 L148,158 L148,156 L147,155 L147,156 L147,158 L147,162 L147,169 L148,178 L148,190 L149,201 L151,210 L153,218 L154,224 L155,227 L155,232 L155,236 L154,239 L154,242 L155,244 L155,241 L156,234 L156,227 L157,220 L158,212 L159,205 L161,201 L162,200 L163,200 L163,203 L164,208 L166,212 L168,217 L171,222 L173,224 L175,222 L176,217 L178,210 L178,204 L178,198 L178,194 L178,193 L179,195 L179,200 L180,205 L180,210 L180,212 L180,211 L181,207 L183,202 L186,195 L190,187 L193,181 L193,180 L193,181 L193,183 L193,185 L193,190 L194,195 L195,203 L196,210 L198,214 L199,214 L200,211 L202,204 L203,198 L204,191 L204,188 L204,187 L204,188 L205,190 L207,195 L209,201 L212,209 L214,217 L216,224 L218,230 L219,235 L220,240 L221,245 L221,248 L222,250 L222,251 L222,250 L222,247 L222,242 L223,233 L224,221 L224,207 L224,194 L224,181 L227,168 L231,153 L234,141 L237,132 L238,126 L239,122 L239,121 L239,122 L238,124 L238,126 L238,129 L237,134 L237,140 L237,151 L237,168 L237,180 L238,190 L238,200 L237,208 L237,213 L237,215 L237,213 L238,210 L239,205 L240,199 L241,194 L242,191 L243,190 L244,192 L246,196 L249,202 L251,209 L253,215 L254,217 L256,216 L257,211 L259,203 L259,196 L259,190 L259,186 L259,185 L259,186 L259,190 L259,196 L258,203 L258,210 L258,212 L259,209 L260,204 L261,199 L262,193 L264,187 L266,181 L267,178 L268,178 L268,181 L266,187 L265,195 L265,203 L265,210 L266,216 L267,217 L268,216 L268,212 L269,206 L270,200 L270,194 L271,188 L271,184 L271,182 L272,181 L272,180 L272,179 L273,178 L274,180 L276,182 L277,185 L279,188 L281,193 L282,199 L284,203 L286,206 L288,208 L289,210 L290,211 L291,212 L291,210 L292,205 L293,199 L293,191 L294,186 L295,183 L295,185 L295,190 L295,197 L295,205 L295,212 L296,214 L298,212 L299,208 L302,202 L304,197 L307,193 L309,191 L310,192 L310,194 L311,198 L313,202 L314,207 L315,211 L315,213 L315,214 L315,212 L317,208 L318,202 L320,196 L321,192 L321,191 L321,192 L321,193 L321,195 L321,200 L321,206 L321,210 L321,211 L321,210 L322,207 L323,203 L324,200 L325,198 L325,197 L326,196 L327,198 L329,202 L330,206 L330,209 L331,210 L334,208 L338,202 L342,195 L345,190 L346,189 L346,190 L346,193 L346,197 L346,202 L347,206 L349,206 L353,202 L358,196 L362,190 L366,186 L368,183 L369,181 L369,182 L369,185 L369,191 L369,198 L369,204 L370,210 L371,215 L373,221 L374,224 L376,225 L376,224 L376,223 L376,218 L376,210 L377,201 L379,192 L380,184 L381,177 L383,168 L387,159 L391,152 L394,148 L394,147 L393,147 L393,146 L393,145 L393,144 L393,142 L393,140 L393,138 L394,135 L394,132 L396,129 L397,124 L399,120 L400,117 L401,114 L401,113 L402,111 L403,107 L405,102 L407,98 L409,95 L410,91 L412,86 L415,79 L417,73 L418,68 L419,64 L419,62 L419,60 L419,57 L419,53 L420,51 L421,48 L422,44 L424,39 L425,35 L427,32 L427,31 L427,30 L427,29 L427,28 L427,27 L428,27 L428,26 L428,25 L429,24 L429,23 L430,22 L430,21 L431,19 L431,18 L432,17 L432,18 L432,19 L432,20 L432,23 L430,29 L429,36 L427,44 L427,51 L426,57 L425,64 L424,72 L423,80 L422,88 L422,95 L422,103 L421,110 L420,117 L418,123 L417,130 L416,137 L415,143 L413,149 L412,154 L411,161 L410,169 L409,178 L409,186 L410,191 L410,196 L411,201 L412,207 L412,215 L412,222 L413,228 L413,234 L414,240 L415,245 L415,251 L415,257 L416,263 L417,269 L418,276 L418,284 L418,293 L418,301 L418,308 L419,314 L420,320 L420,327 L420,332 L421,335 L421,336 L422,337 L422,339 L422,341 L422,344 L421,345 L421,347 L421,348 L421,350 L421,353 L421,356 L421,359 L421,361 L422,361 L423,363 L423,364 L423,365 L423,366 L423,368 L423,370 L423,371 L423,369 L423,366 L424,362 L425,358 L426,354 L426,351 L427,347 L427,345 L427,344 L427,343 L427,342 L428,340 L428,339 L429,337 L429,335 L430,334 L430,332 L430,330 L430,327 L431,323 L432,320 L432,317 L433,314 L433,312 L433,309 L433,307 L433,305 L433,304 L433,302 L433,300 L433,298 L433,295 L433,293 L433,290 L433,287 L434,282 L435,277 L435,272 L435,267 L435,261 L435,254 L435,246 L436,239 L437,229 L440,218 L444,206 L448,195 L452,185 L454,179 L456,175 L457,172 L457,168 L459,162 L462,158 L463,155 L464,154 L464,153 L464,152 L464,153 L464,156 L465,163 L464,176 L465,188 L466,196 L467,200 L467,201 L467,197 L469,189 L471,181 L472,173 L474,166 L477,160 L479,156 L480,155 L480,156 L481,157 L481,163 L481,171 L481,180 L480,190 L480,193 L481,193 L482,190 L484,183 L488,175 L493,166 L498,159 L502,155 L503,154 L503,155 L503,158 L503,163 L501,170 L500,178 L500,185 L501,189 L503,188 L506,185 L511,178 L518,169 L525,160 L531,153 L535,151 L535,152 L535,156 L534,163 L533,172 L532,182 L531,192 L530,197 L530,201 L530,203 L532,200 L535,193 L540,185 L543,177 L546,172 L546,171 L546,172 L546,173 L546,177 L545,183 L544,191 L543,199 L543,207 L545,213 L546,219 L547,222 L548,224 L549,224 L550,224 L550,222 L552,214 L554,205 L556,195 L557,186 L559,176 L562,165 L565,156 L568,152 L569,152 L569,155 L568,161 L567,168 L565,175 L564,185 L563,200 L562,217 L562,228 L562,229 L562,228 L564,224 L566,217 L569,209 L574,199 L580,186 L587,174 L594,167 L597,166 L598,168 L598,174 L597,182 L596,190 L595,200 L595,208 L595,214 L595,217 L595,215 L596,209 L598,199 L600,187 L604,171 L609,154 L615,136 L620,124 L624,117 L628,110 L630,104 L633,98 L634,92 L635,89 L635,90 L634,93 L633,100 L633,109 L632,120 L631,138 L630,161 L628,183 L624,200 L623,216 L623,230 L623,240 L623,248 L623,254 L624,255 L625,254 L626,247 L628,236 L629,222 L631,206 L633,187 L636,166 L642,143 L650,123 L657,107 L662,95 L667,87 L670,80 L671,75 L672,75 L672,81 L672,90 L672,101 L672,116 L672,136 L671,160 L669,183 L669,200 L670,212 L672,220 L675,223 L677,224 L679,221 L682,212 L685,199 L689,180 L693,156 L699,133 L705,115 L709,103 L713,95 L716,88 L717,85 L718,84 L718,87 L719,95 L721,106 L723,118 L726,132 L728,149 L729,166 L731,182 L733,193 L735,200 L737,204 L738,205 L739,205 L740,200 L742,188 L745,171 L750,149 L756,128 L762,112 L765,101 L769,94 L771,92 L772,92 L773,95 L774,102 L774,113 L775,129 L775,148 L775,166 L775,180 L775,191 L775,196 L777,193 L778,185 L780,173 L782,160 L785,142 L788,128 L792,119 L794,114 L794,112 L795,112 L795,113 L795,119 L794,129 L794,139 L793,149 L793,155 L795,156 L798,151 L801,142 L805,132 L808,122 L811,111 L814,103 L817,99 L818,98 L818,100 L818,104 L818,110 L818,116 L817,122 L818,124 L820,124 L824,120 L829,112 L835,101 L840,92 L843,87 L845,85 L846,87 L847,88 L848,90 L848,93 L848,96 L848,100 L848,105 L849,110 L849,115 L850,120 L851,124 L853,129 L853,134 L855,137 L856,139 L858,141 L858,143 L859,144 L860,144 L860,145 L860,146" fill="none" stroke="red" stroke-width="3"/></svg>