<svg xmlns="http://www.w3.org/2000/svg" version="1.1" xmlns:xlink="http://www.w3.org/1999/xlink" xmlns:svgjs="http://svgjs.dev/svgjs" width="950" height="375" id="chartSvg"><path d="M16,232 L16,231 L16,229 L15,229 L15,228 L15,227 L14,227 L14,228 L15,228 L16,228 L17,229 L18,232 L21,240 L23,247 L24,251 L25,253 L26,253 L26,252 L26,253 L26,255 L27,258 L28,261 L29,262 L29,264 L29,266 L29,264 L29,262 L29,259 L29,254 L29,245 L30,231 L30,217 L30,207 L29,197 L29,187 L29,174 L30,159 L32,144 L34,128 L35,114 L36,105 L36,99 L36,95 L37,90 L39,85 L40,81 L40,82 L42,87 L44,92 L46,95 L48,97 L50,98 L52,102 L53,110 L55,124 L57,136 L60,143 L62,152 L65,164 L68,181 L72,198 L75,208 L77,215 L77,226 L75,240 L74,256 L75,265 L75,266 L75,264 L74,260 L72,259 L71,259 L71,260 L70,260 L69,257 L67,254 L66,254 L65,254 L65,255 L65,256 L64,256 L64,255 L64,251 L65,244 L65,232 L65,223 L64,212 L63,200 L63,183 L63,168 L63,157 L63,150 L63,142 L65,133 L67,126 L68,121 L69,117 L71,113 L72,110 L73,110 L73,111 L74,112 L75,112 L75,114 L76,121 L77,136 L78,158 L78,171 L80,180 L82,192 L85,206 L88,222 L90,239 L93,248 L95,254 L96,259 L96,265 L97,269 L97,270 L97,268 L97,266 L97,263 L97,261 L96,260 L96,259 L95,259 L95,258 L95,255 L95,251 L95,246 L94,242 L94,237 L94,229 L97,216 L100,203 L101,197 L101,193 L102,187 L104,177 L106,165 L106,156 L106,154 L106,151 L108,148 L110,142 L111,135 L112,127 L113,122 L113,119 L114,116 L117,113 L121,110 L123,108 L124,112 L125,120 L126,132 L128,144 L130,154 L133,165 L134,179 L134,200 L134,221 L136,230 L136,231 L136,227 L138,215 L140,197 L141,180 L141,163 L140,146 L142,131 L144,124 L145,123 L146,130 L147,142 L148,158 L149,175 L149,192 L149,208 L149,219 L150,224 L151,224 L151,221 L151,209 L154,190 L156,168 L158,151 L158,143 L159,138 L161,134 L163,129 L164,128 L166,132 L166,146 L166,165 L167,184 L170,196 L171,203 L173,205 L173,206 L173,204 L178,193 L184,173 L191,151 L195,141 L196,140 L199,140 L202,146 L206,158 L206,177 L205,195 L206,208 L207,216 L208,220 L210,219 L215,208 L221,191 L229,170 L234,158 L236,156 L238,156 L240,156 L243,159 L245,168 L244,186 L242,207 L242,221 L243,227 L243,229 L243,222 L244,204 L249,178 L254,146 L259,119 L264,105 L265,101 L265,102 L266,110 L265,127 L259,151 L251,183 L244,220 L241,243 L238,261 L237,273 L237,275 L237,270 L244,249 L253,222 L261,191 L269,166 L274,154 L279,150 L284,152 L289,163 L290,183 L287,213 L284,236 L284,246 L285,252 L285,253 L287,247 L292,229 L302,201 L312,172 L319,154 L323,145 L325,143 L327,145 L330,153 L330,169 L325,194 L318,226 L314,251 L312,270 L310,285 L309,296 L308,300 L308,298 L309,280 L317,249 L323,218 L325,191 L327,168 L331,152 L336,144 L339,141 L342,143 L343,150 L342,167 L338,190 L334,216 L334,237 L334,254 L334,273 L334,291 L335,296 L336,295 L340,283 L348,258 L358,228 L368,202 L376,186 L383,177 L390,171 L395,168 L397,168 L397,175 L393,192 L387,217 L383,244 L384,259 L386,268 L388,273 L387,276 L386,277 L386,273 L390,258 L397,235 L403,207 L404,188 L403,177 L405,169 L409,160 L416,149 L419,143 L418,146 L417,154 L415,163 L414,173 L414,181 L414,191 L413,205 L409,227 L405,250 L403,264 L402,275 L399,285 L397,294 L396,299 L396,300 L396,299 L400,288 L408,264 L418,237 L426,215 L434,200 L442,188 L452,178 L460,171 L464,168 L465,168 L465,170 L465,173 L466,178 L466,182 L466,188 L465,195 L462,206 L457,220 L453,236 L449,251 L447,262 L444,273 L440,286 L435,302 L430,319 L427,330 L425,335 L426,330 L430,313 L434,295 L436,274 L438,254 L441,237 L445,220 L452,203 L459,185 L466,168 L471,157 L472,152 L472,151 L472,150 L473,150 L474,151 L476,154 L478,159 L479,169 L479,181 L476,199 L473,221 L471,241 L471,257 L472,271 L473,285 L474,298 L476,308 L476,315 L476,316 L476,315 L479,306 L483,290 L488,272 L492,254 L496,239 L502,221 L510,200 L518,178 L523,161 L525,150 L525,144 L525,142 L526,142 L526,144 L526,150 L525,157 L522,168 L518,180 L513,198 L510,217 L508,233 L507,249 L505,264 L503,281 L503,295 L502,304 L503,309 L503,310 L503,309 L503,308 L502,305 L503,297 L505,286 L507,276 L508,268 L508,261 L510,254 L513,242 L515,227 L519,212 L523,198 L526,185 L529,171 L533,160 L537,151 L541,144 L545,137 L549,132 L552,127 L553,124 L554,126 L554,131 L553,139 L550,152 L547,166 L546,180 L544,193 L541,210 L537,228 L536,243 L536,253 L535,266 L532,279 L530,291 L529,299 L529,301 L530,301 L530,302 L530,303 L529,304 L529,305 L529,304 L528,301 L528,297 L528,293 L528,290 L529,286 L530,279 L534,269 L539,256 L544,244 L546,234 L549,224 L552,213 L556,200 L561,185 L565,172 L567,164 L567,157 L569,153 L572,147 L578,142 L582,139 L583,139 L584,141 L586,146 L588,154 L589,165 L588,180 L584,198 L580,213 L579,221 L578,227 L577,234 L577,240 L577,244 L579,243 L584,233 L590,218 L597,199 L604,178 L611,158 L618,141 L619,134 L620,132 L621,131 L622,132 L622,139 L619,151 L614,166 L610,180 L609,190 L609,195 L609,200 L609,205 L609,210 L608,214 L610,210 L613,200 L616,188 L617,178 L618,166 L623,152 L629,135 L637,116 L645,99 L650,88 L653,81 L655,76 L657,72 L662,66 L665,58 L668,51 L669,49 L669,50 L669,51 L671,50 L673,47 L676,43 L679,38 L682,32 L685,26 L689,22 L690,19 L691,19 L691,20 L692,24 L694,30 L696,37 L698,44 L700,50 L700,56 L699,63 L697,71 L696,79 L696,85 L696,90 L696,96 L694,102 L693,109 L692,114 L692,117 L691,120 L691,122 L691,121 L691,117 L691,113 L691,110 L691,108 L691,109 L691,108 L692,105 L693,97 L694,89 L696,84 L698,80 L699,76 L700,70 L701,63 L701,61 L701,62 L703,66 L705,70 L706,74 L705,80 L701,91 L694,105 L691,115 L689,124 L685,134 L681,147 L676,159 L672,172 L670,180 L670,182 L670,183 L672,179 L676,169 L682,156 L689,138 L695,124 L702,110 L709,95 L713,83 L714,79 L715,78 L716,77 L718,75 L719,74 L718,75 L715,83 L711,93 L709,105 L706,121 L704,138 L700,153 L697,168 L696,181 L697,189 L700,191 L703,190 L710,181 L719,166 L728,148 L737,130 L746,114 L758,98 L771,83 L782,75 L786,73 L787,74 L787,81 L786,93 L784,108 L782,123 L777,140 L772,155 L770,165 L770,170 L771,171 L773,170 L779,162 L788,148 L797,132 L804,117 L811,107 L818,97 L825,86 L831,79 L833,76 L834,74 L834,75 L834,76 L834,77 L834,78 L834,80 L834,84 L834,88 L833,94 L831,103 L829,112 L828,119 L826,126 L820,139 L814,152 L812,158 L812,160 L813,161 L812,162 L812,164 L811,166 L811,167 L810,168 L808,172 L806,177 L806,181 L806,185 L805,189 L803,194 L801,200 L799,205 L799,209 L799,211 L799,212 L798,213 L797,215 L796,217 L796,216 L797,212 L797,208 L797,205 L798,202 L800,197 L805,187 L810,175 L814,166 L817,158 L823,149 L831,139 L839,130 L844,124 L848,121 L852,118 L854,117 L855,117 L856,117 L857,122 L858,130 L858,139 L859,151 L858,162 L857,173 L856,185 L857,193 L860,196 L863,197 L868,192 L874,182 L881,166 L887,148 L894,132 L899,116 L904,106 L907,102 L910,101 L911,101 L912,103 L913,108 L913,116 L912,127 L910,144 L909,160 L909,173 L911,186 L912,198 L913,208 L914,212 L914,211 L916,206 L920,195 L925,183 L931,168 L939,156 L943,148 L946,142 L948,139 L950,137 L951,137 L952,138 L953,140 L954,142 L955,142 L955,143 L956,141" fill="none" stroke="red" stroke-width="3"/></svg>