<svg xmlns="http://www.w3.org/2000/svg" version="1.1" xmlns:xlink="http://www.w3.org/1999/xlink" xmlns:svgjs="http://svgjs.dev/svgjs" width="950" height="375" id="chartSvg"><path d="M29,301 L28,303 L27,307 L27,310 L27,312 L28,314 L28,315 L29,315 L30,317 L31,318 L33,319 L35,319 L36,313 L37,303 L38,290 L38,279 L38,271 L38,262 L37,251 L36,239 L35,226 L35,215 L34,205 L34,195 L34,183 L34,170 L34,158 L33,148 L33,141 L33,134 L32,125 L32,117 L32,111 L32,107 L32,105 L32,103 L32,102 L33,105 L34,109 L35,113 L36,117 L38,120 L39,122 L40,123 L42,123 L44,124 L46,125 L48,128 L50,131 L52,135 L53,140 L55,145 L56,150 L58,153 L60,154 L62,155 L64,156 L66,158 L68,161 L69,166 L71,173 L73,182 L74,190 L75,195 L77,197 L78,198 L79,200 L80,203 L81,210 L83,222 L84,236 L85,252 L85,267 L86,280 L87,292 L88,304 L90,311 L91,311 L93,308 L95,305 L98,305 L101,307 L103,308 L106,308 L108,303 L110,292 L111,277 L112,261 L113,251 L114,244 L114,238 L114,231 L114,224 L115,222 L114,220 L113,216 L112,213 L110,211 L109,207 L107,201 L107,191 L106,178 L106,167 L106,157 L106,145 L106,131 L107,119 L107,116 L107,117 L106,122 L105,125 L105,122 L105,116 L105,110 L105,105 L106,107 L108,112 L110,117 L112,123 L115,134 L118,150 L121,156 L124,153 L126,146 L128,140 L130,137 L132,136 L135,139 L139,144 L141,151 L144,154 L146,156 L148,156 L149,151 L151,145 L154,141 L157,141 L159,148 L161,157 L162,166 L163,175 L163,180 L163,182 L163,181 L163,180 L164,178 L164,177 L165,177 L166,182 L166,193 L166,205 L166,216 L166,225 L166,229 L166,230 L167,230 L170,234 L174,242 L177,251 L180,261 L183,271 L186,284 L188,298 L191,308 L193,314 L194,317 L196,321 L198,325 L200,326 L201,323 L201,313 L200,300 L200,287 L200,271 L198,246 L197,220 L197,201 L197,189 L196,179 L195,169 L193,158 L191,148 L190,141 L190,134 L190,127 L190,123 L190,122 L191,128 L194,142 L196,159 L198,177 L201,192 L203,203 L205,210 L207,212 L210,210 L212,205 L215,200 L217,194 L219,187 L221,178 L224,170 L226,166 L229,167 L231,176 L233,189 L234,206 L234,222 L235,234 L235,241 L235,242 L237,239 L239,234 L242,225 L245,215 L250,207 L255,205 L260,210 L264,222 L268,241 L271,267 L273,297 L275,318 L276,333 L276,340 L276,342 L276,341 L278,338 L278,330 L278,315 L278,296 L278,272 L278,249 L278,226 L277,201 L276,174 L276,153 L276,146 L276,147 L276,154 L278,166 L279,178 L281,187 L283,188 L285,183 L287,176 L290,172 L293,171 L297,177 L301,185 L305,195 L307,203 L308,210 L310,215 L311,219 L312,220 L313,220 L315,219 L318,223 L321,232 L324,245 L327,259 L329,275 L330,289 L331,301 L332,309 L332,310 L335,311 L337,312 L342,315 L345,317 L347,319 L350,321 L353,323 L355,324 L357,321 L357,310 L357,294 L356,273 L356,247 L356,220 L358,193 L359,170 L361,149 L362,131 L363,119 L364,115 L364,114 L365,122 L365,134 L366,148 L366,161 L366,179 L367,200 L369,221 L369,238 L371,251 L374,265 L377,280 L380,294 L382,304 L384,314 L388,325 L391,336 L394,344 L395,347 L395,345 L396,343 L396,342 L397,337 L397,328 L396,315 L396,296 L396,271 L396,251 L399,238 L401,228 L403,224 L405,222 L408,223 L410,231 L413,242 L415,251 L415,254 L415,252 L413,246 L412,237 L411,225 L410,207 L411,189 L414,180 L417,179 L419,180 L421,183 L424,188 L426,195 L428,198 L429,198 L429,191 L427,179 L426,165 L426,155 L427,150 L429,148 L432,152 L434,164 L437,178 L438,191 L439,201 L440,204 L442,203 L445,200 L447,193 L451,184 L454,180 L458,180 L462,181 L465,181 L467,176 L468,163 L469,151 L470,141 L471,130 L472,123 L474,123 L475,129 L476,144 L478,164 L479,186 L479,204 L479,218 L478,229 L476,233 L475,232 L474,224 L475,216 L478,211 L482,208 L486,209 L491,220 L496,242 L498,264 L499,286 L499,307 L500,323 L502,335 L505,344 L508,349 L513,349 L518,347 L522,341 L526,331 L529,319 L532,309 L534,297 L535,279 L535,258 L537,243 L538,233 L538,221 L537,207 L537,195 L537,191 L538,191 L538,192 L540,193 L542,201 L544,215 L547,226 L548,231 L548,230 L547,227 L547,218 L546,205 L546,191 L548,181 L551,178 L554,171 L557,161 L560,150 L563,140 L565,133 L567,124 L569,114 L571,109 L573,109 L575,113 L577,124 L579,139 L580,156 L582,176 L582,196 L582,213 L582,226 L582,231 L582,232 L584,234 L588,237 L594,241 L600,248 L606,256 L612,268 L616,284 L619,296 L621,305 L622,308 L622,307 L622,297 L622,279 L624,265 L629,254 L633,246 L636,244 L638,244 L641,249 L643,253 L643,255 L643,256 L643,254 L641,247 L640,237 L640,226 L643,220 L645,224 L649,235 L652,245 L655,252 L655,254 L656,253 L657,245 L657,233 L659,217 L662,200 L667,176 L672,149 L676,131 L681,121 L684,112 L687,102 L690,89 L693,75 L695,70 L695,77 L695,90 L694,105 L694,118 L693,126 L693,133 L692,142 L692,154 L692,162 L693,166 L694,168 L696,172 L698,178 L699,187 L701,197 L701,210 L701,227 L700,244 L699,264 L698,284 L696,303 L696,319 L696,333 L695,341 L695,343 L696,342 L699,341 L701,334 L702,320 L704,298 L706,270 L710,251 L714,235 L718,215 L722,202 L726,198 L727,198 L728,203 L730,211 L731,217 L732,220 L732,221 L732,216 L732,206 L734,197 L736,195 L738,195 L740,196 L743,201 L745,210 L748,225 L749,240 L750,245 L750,246 L750,244 L750,239 L751,232 L753,226 L755,221 L758,217 L761,214 L763,211 L765,205 L766,195 L767,184 L768,171 L770,154 L772,134 L776,115 L779,102 L781,93 L783,83 L785,75 L788,70 L789,69 L791,74 L792,88 L794,105 L795,126 L796,148 L797,166 L798,182 L799,197 L800,214 L803,227 L806,231 L809,230 L812,226 L814,223 L817,217 L819,208 L822,196 L825,177 L830,164 L833,164 L834,166 L836,170 L837,176 L838,185 L838,195 L838,202 L838,204 L838,202 L837,199 L837,194 L837,191 L838,193 L840,204 L843,222 L846,232 L848,237 L848,238 L849,237 L849,233 L850,225 L850,219 L851,209 L853,194 L855,177 L858,159 L860,142 L863,127 L866,111 L869,100 L870,99 L871,102 L872,110 L872,122 L871,140 L870,168 L869,200 L868,229 L868,254 L867,274 L866,290 L865,299 L865,300 L865,295 L866,281 L868,259 L872,238 L877,224 L882,217 L886,206 L889,191 L892,176 L894,172 L894,173 L895,178 L897,181 L899,185 L902,192 L905,203 L909,213 L914,215 L919,208 L927,198 L935,192 L945,189 L957,185 L960,184" fill="none" stroke="red" stroke-width="3"/></svg>