<svg xmlns="http://www.w3.org/2000/svg" xmlns:xlink="http://www.w3.org/1999/xlink" version="1.1" class="marks" width="1012" height="385" viewBox="0 0 1012 385"><rect width="1012" height="385" fill="white"/><rect width="1012" height="385" fill="white"/><path d="M39,256 L38,255 L37,255 L37,254 L37,252 L38,251 L39,248 L40,245 L40,242 L41,237 L42,234 L43,230 L45,227 L46,225 L46,224 L46,223 L46,222 L47,222 L48,222 L48,224 L48,228 L49,230 L50,232 L52,234 L54,234 L56,234 L57,236 L58,237 L58,240 L57,243 L56,246 L56,248 L57,249 L59,250 L61,251 L62,252 L63,253 L65,253 L66,254 L68,254 L69,252 L71,251 L74,248 L76,246 L78,243 L78,242 L78,239 L78,237 L78,234 L78,231 L79,227 L80,223 L81,220 L82,217 L82,215 L83,214 L84,212 L85,210 L86,210 L87,210 L88,211 L92,211 L96,210 L99,207 L100,206 L98,207 L97,209 L95,211 L94,213 L92,217 L92,220 L92,222 L94,224 L96,225 L97,227 L98,228 L99,230 L100,232 L100,235 L100,238 L100,240 L99,242 L99,244 L99,245 L100,247 L100,248 L101,249 L101,250 L101,251 L101,252 L102,253 L103,253 L105,252 L107,251 L108,249 L108,248 L109,246 L109,244 L110,242 L111,239 L113,236 L115,233 L117,230 L119,227 L119,223 L120,221 L119,219 L118,218 L118,217 L118,215 L120,212 L123,209 L124,207 L125,206 L126,204 L127,202 L127,201 L127,200 L127,201 L127,203 L127,205 L127,208 L129,211 L131,214 L133,217 L134,221 L135,224 L132,228 L130,231 L130,234 L131,236 L133,237 L136,239 L139,240 L140,242 L140,245 L140,247 L140,248 L140,249 L141,249 L143,249 L145,248 L147,245 L149,243 L149,240 L149,236 L149,231 L149,226 L150,221 L151,217 L155,212 L160,206 L162,201 L163,198 L165,194 L167,190 L168,185 L168,181 L168,179 L168,178 L169,177 L171,176 L174,174 L176,174 L176,175 L176,178 L176,183 L176,188 L173,194 L169,202 L168,209 L169,214 L173,217 L175,219 L177,221 L178,224 L180,228 L180,232 L180,236 L178,239 L176,242 L176,244 L176,246 L177,247 L178,248 L179,250 L180,253 L181,256 L181,258 L180,259 L181,256 L182,254 L184,250 L187,246 L190,240 L194,233 L196,227 L197,223 L197,219 L198,215 L200,210 L201,205 L203,201 L205,197 L209,193 L211,190 L211,187 L211,184 L211,182 L212,179 L213,175 L215,171 L217,166 L219,163 L220,160 L221,158 L220,158 L217,161 L216,166 L215,171 L217,175 L222,178 L224,180 L225,183 L223,188 L221,192 L220,195 L219,199 L218,202 L218,205 L217,209 L219,212 L220,215 L221,217 L222,219 L223,222 L224,225 L224,229 L225,232 L227,234 L229,237 L232,239 L233,241 L234,242 L234,243 L234,242 L235,240 L237,237 L239,234 L240,229 L242,224 L243,220 L243,216 L244,213 L245,210 L248,208 L249,206 L250,204 L251,202 L251,199 L251,196 L251,193 L251,190 L251,188 L251,186 L252,182 L254,176 L256,170 L257,164 L257,159 L258,156 L258,152 L258,149 L259,146 L259,145 L259,146 L260,147 L261,149 L262,152 L263,156 L264,160 L266,164 L267,167 L269,171 L271,173 L273,175 L274,178 L275,180 L275,184 L276,188 L276,191 L277,194 L277,198 L277,200 L278,203 L278,205 L276,207 L275,210 L274,212 L275,214 L278,215 L283,215 L286,215 L288,216 L289,217 L289,219 L289,220 L291,217 L292,214 L293,210 L293,205 L293,201 L292,197 L291,193 L292,190 L295,186 L299,181 L303,175 L305,171 L306,167 L308,163 L310,158 L311,152 L311,146 L311,141 L312,139 L313,137 L316,136 L319,135 L320,135 L321,135 L322,136 L321,139 L320,144 L318,150 L317,156 L318,161 L320,165 L322,168 L323,172 L325,175 L325,179 L324,183 L322,187 L320,191 L320,195 L321,200 L323,202 L325,205 L326,207 L327,210 L327,212 L328,214 L329,216 L330,217 L330,218 L332,218 L335,217 L337,216 L339,213 L339,210 L337,207 L336,205 L335,202 L335,199 L337,195 L342,190 L346,185 L349,180 L351,177 L352,173 L353,168 L354,161 L356,154 L359,148 L362,141 L366,135 L370,129 L373,124 L374,119 L374,116 L374,115 L374,116 L374,118 L373,122 L373,127 L373,133 L374,140 L375,146 L376,151 L375,156 L372,161 L370,167 L370,173 L370,175 L371,177 L372,179 L376,182 L379,186 L381,190 L381,191 L380,193 L380,195 L379,198 L380,202 L381,205 L382,205 L384,205 L386,205 L388,205 L388,204 L388,202 L388,200 L390,196 L391,192 L393,188 L395,183 L398,177 L401,171 L401,167 L402,163 L403,159 L405,155 L407,151 L409,148 L410,144 L413,139 L416,134 L418,129 L420,126 L422,123 L425,119 L427,116 L430,112 L431,109 L432,106 L433,104 L435,102 L436,99 L438,96 L439,92 L440,88 L442,85 L444,81 L446,78 L447,75 L448,72 L450,68 L454,64 L456,61 L458,58 L459,54 L461,51 L463,49 L464,47 L466,46 L467,45 L467,44 L467,43 L466,44 L466,45 L465,46 L464,47 L464,49 L463,51 L462,55 L461,58 L460,62 L458,65 L455,68 L453,72 L452,75 L449,78 L447,82 L445,85 L445,88 L447,90 L448,92 L449,95 L449,97 L449,100 L449,103 L447,106 L445,109 L442,113 L441,116 L441,119 L442,122 L444,123 L445,125 L444,127 L441,131 L439,134 L437,137 L437,139 L437,140 L438,141 L440,141 L442,142 L444,142 L443,142 L443,144 L443,145 L443,148 L443,151 L442,154 L440,158 L439,161 L439,163 L439,165 L440,166 L440,168 L441,172 L442,175 L443,179 L443,181 L441,183 L440,185 L439,189 L438,191 L438,193 L438,192 L438,191 L439,191 L442,192 L449,194 L457,197 L460,198 L460,200 L460,201 L461,202 L462,203 L463,204 L463,205 L463,207 L463,208 L463,210 L463,211 L462,212 L460,213 L458,213 L457,214 L455,215 L454,215 L453,217 L453,218 L454,221 L455,223 L455,224 L454,227 L453,230 L452,234 L451,236 L452,237 L453,238 L455,239 L457,240 L459,241 L459,242 L460,244 L461,247 L462,251 L463,254 L464,257 L465,259 L465,262 L465,264 L465,268 L465,272 L465,275 L465,277 L464,279 L464,281 L463,284 L463,286 L464,287 L464,288 L465,291 L465,293 L465,295 L466,296 L466,297 L467,298 L469,299 L471,301 L473,303 L474,304 L474,305 L475,308 L478,313 L481,316 L481,317 L481,315 L480,314 L480,313 L479,313 L479,312 L478,310 L477,308 L477,305 L478,302 L479,297 L480,291 L481,283 L481,276 L479,270 L477,264 L476,258 L476,253 L476,249 L476,246 L476,244 L476,240 L481,234 L484,229 L485,226 L485,224 L484,222 L483,220 L481,216 L479,212 L477,210 L476,210 L477,208 L479,206 L482,202 L484,198 L485,193 L485,190 L485,186 L485,181 L486,176 L486,172 L486,168 L486,166 L486,165 L487,165 L488,166 L489,169 L490,172 L491,175 L493,178 L493,180 L494,181 L495,182 L496,182 L496,181 L498,180 L499,180 L501,181 L504,183 L507,185 L509,186 L511,187 L512,187 L513,188 L514,190 L515,195 L517,199 L518,201 L519,201 L519,200 L519,199 L520,198 L521,195 L523,193 L524,191 L525,190 L527,189 L529,189 L531,188 L532,188 L533,188 L535,187 L537,186 L540,185 L541,185 L542,185 L543,185 L545,185 L547,186 L550,188 L552,189 L554,191 L555,192 L556,192 L557,191 L558,190 L559,188 L560,186 L562,185 L563,184 L565,184 L566,185 L568,186 L570,187 L572,188 L574,189 L576,189 L578,188 L580,188 L581,187 L582,185 L583,184 L583,181 L584,178 L584,175 L585,169 L587,163 L588,157 L589,152 L590,149 L592,146 L594,140 L596,135 L596,132 L596,130 L597,128 L598,125 L599,121 L600,118 L601,117 L601,116 L601,117 L602,119 L603,121 L603,125 L604,129 L604,133 L604,136 L605,138 L606,139 L606,142 L604,146 L602,152 L602,156 L602,160 L602,164 L602,168 L603,173 L604,177 L605,180 L606,183 L606,186 L606,189 L606,192 L606,195 L607,197 L607,198 L607,197 L608,196 L610,194 L611,191 L613,189 L614,185 L616,180 L617,174 L617,170 L617,166 L618,162 L619,158 L621,154 L624,149 L626,144 L628,141 L630,139 L633,137 L635,136 L635,135 L634,136 L632,139 L630,142 L629,147 L628,152 L627,159 L628,165 L629,168 L630,171 L630,173 L630,176 L630,181 L629,186 L630,190 L630,194 L631,197 L631,201 L632,207 L633,211 L634,215 L634,216 L634,217 L634,220 L633,224 L632,228 L632,232 L632,234 L632,235 L632,238 L633,241 L634,243 L635,244 L636,244 L637,244 L638,242 L638,240 L638,237 L638,234 L639,232 L639,229 L639,227 L638,225 L639,223 L640,221 L642,219 L644,216 L646,211 L647,206 L647,201 L646,197 L645,193 L645,190 L646,187 L649,184 L650,180 L652,177 L654,175 L654,173 L654,171 L654,170 L654,169 L654,171 L656,173 L658,176 L660,178 L662,180 L663,182 L664,182 L665,180 L666,178 L667,177 L669,175 L670,173 L671,170 L672,167 L673,164 L674,161 L676,156 L677,153 L677,150 L678,147 L679,144 L681,140 L682,137 L683,135 L684,133 L684,132 L684,134 L685,135 L685,137 L685,139 L686,141 L687,144 L689,147 L689,150 L689,152 L689,155 L690,157 L691,159 L692,159 L693,161 L693,163 L693,167 L694,171 L694,172 L696,173 L697,174 L699,176 L702,177 L704,179 L705,180 L706,182 L707,185 L708,188 L709,190 L709,189 L710,188 L710,186 L710,185 L710,182 L710,179 L710,174 L712,170 L714,164 L717,158 L720,154 L722,152 L724,151 L725,149 L726,148 L726,146 L727,144 L727,142 L728,141 L730,141 L731,141 L734,144 L738,149 L740,154 L742,158 L741,161 L740,163 L740,166 L740,168 L740,170 L740,171 L741,171 L743,169 L745,168 L746,167 L748,167 L749,168 L750,169 L751,171 L753,173 L754,176 L755,179 L756,180 L757,180 L758,178 L759,175 L760,173 L761,172 L762,172 L763,173 L765,174 L768,177 L772,180 L774,182 L775,183 L777,184 L779,184 L782,185 L784,185 L785,185 L787,185 L788,186 L789,186 L792,186 L794,186 L796,185 L797,185 L798,183 L799,183 L800,183 L802,183 L804,184 L807,185 L811,185 L815,187 L817,189" fill="none" stroke="red" stroke-width="3"/></svg>