<svg xmlns="http://www.w3.org/2000/svg" version="1.1" xmlns:xlink="http://www.w3.org/1999/xlink" xmlns:svgjs="http://svgjs.dev/svgjs" width="950" height="375" id="chartSvg"><path d="M14,124 L12,124 L11,123 L10,123 L10,124 L11,127 L12,131 L14,137 L15,144 L16,149 L16,151 L15,151 L15,150 L16,149 L16,147 L17,142 L17,132 L17,120 L16,112 L16,110 L16,111 L17,114 L18,118 L19,122 L19,124 L20,124 L20,122 L20,116 L20,107 L20,99 L20,97 L20,98 L21,103 L23,110 L25,116 L26,120 L25,116 L24,108 L23,97 L23,86 L25,81 L26,81 L27,83 L29,88 L29,96 L30,104 L30,110 L29,106 L29,100 L29,92 L29,83 L31,76 L32,75 L33,78 L35,83 L36,90 L38,97 L39,100 L39,95 L39,88 L39,77 L40,67 L41,63 L42,65 L43,70 L44,76 L46,84 L48,92 L49,97 L48,95 L48,89 L46,80 L46,68 L45,61 L45,64 L44,69 L43,76 L43,83 L42,88 L42,89 L42,86 L41,79 L41,70 L42,59 L44,52 L46,51 L47,52 L48,55 L51,61 L52,70 L53,80 L53,91 L53,99 L54,100 L54,96 L54,88 L55,76 L57,67 L58,65 L59,67 L60,71 L61,78 L62,85 L63,94 L63,101 L63,103 L63,102 L63,101 L63,100 L62,100 L61,100 L61,102 L62,105 L63,111 L65,120 L66,130 L66,138 L66,145 L66,154 L67,162 L68,166 L69,170 L69,171 L69,170 L69,168 L70,161 L71,149 L72,130 L75,117 L77,111 L78,107 L79,105 L79,107 L79,112 L79,117 L79,123 L80,130 L82,140 L83,150 L83,159 L84,166 L85,169 L85,172 L85,175 L85,178 L85,179 L85,180 L86,180 L86,179 L87,178 L87,177 L87,176 L88,176 L88,175 L88,176 L88,175 L89,171 L91,161 L94,149 L95,142 L95,139 L96,136 L96,135 L96,133 L96,129 L96,125 L96,122 L97,122 L98,124 L99,126 L99,127 L100,127 L100,126 L100,123 L101,118 L102,115 L102,114 L103,116 L103,120 L104,127 L104,134 L105,139 L105,141 L106,142 L106,143 L107,144 L109,141 L111,132 L114,116 L116,103 L117,101 L118,101 L119,102 L120,106 L121,114 L121,124 L122,133 L123,136 L123,137 L124,137 L124,136 L126,132 L128,123 L130,114 L131,110 L132,108 L132,109 L132,113 L133,119 L134,124 L134,127 L134,128 L134,127 L134,126 L134,124 L134,125 L134,126 L134,127 L134,128 L135,129 L135,130 L135,132 L135,134 L135,137 L136,141 L136,143 L137,146 L138,149 L139,151 L140,152 L141,153 L142,154 L143,156 L143,157 L144,158 L144,159 L144,161 L144,165 L144,170 L144,176 L145,182 L146,187 L148,191 L150,197 L152,202 L154,207 L155,210 L156,210 L157,211 L158,211 L159,212 L160,212 L161,212 L162,212 L162,214 L161,217 L160,220 L160,222 L160,224 L160,227 L160,230 L160,233 L160,234 L160,233 L160,232 L161,231 L161,225 L161,215 L161,199 L162,190 L162,188 L163,187 L163,188 L163,189 L163,193 L164,199 L164,207 L166,213 L166,216 L166,215 L166,214 L166,210 L166,204 L167,196 L168,188 L169,183 L170,182 L171,183 L172,187 L173,192 L174,195 L175,198 L175,195 L176,190 L176,186 L177,185 L177,186 L178,185 L179,179 L180,170 L182,160 L182,150 L183,141 L185,140 L186,144 L188,154 L189,163 L190,171 L191,176 L191,173 L190,166 L190,155 L190,141 L191,134 L192,134 L194,136 L195,145 L195,156 L195,171 L195,188 L194,192 L193,191 L193,189 L193,184 L194,177 L195,167 L196,156 L198,150 L198,152 L200,159 L201,168 L202,178 L203,186 L204,193 L204,190 L205,181 L207,170 L209,164 L210,163 L211,163 L212,163 L213,162 L213,161 L213,159 L213,158 L212,157 L211,156 L211,157 L211,158 L212,158 L212,159 L214,160 L215,161 L217,165 L220,171 L222,177 L224,184 L226,192 L227,197 L228,199 L229,199 L229,198 L229,195 L230,193 L231,191 L231,188 L232,187 L232,191 L232,196 L233,199 L233,200 L234,198 L234,193 L235,185 L236,183 L237,184 L239,190 L241,193 L243,195 L243,194 L244,188 L244,182 L244,178 L245,177 L247,178 L250,180 L251,180 L253,178 L255,170 L257,162 L259,157 L261,157 L262,158 L264,158 L265,159 L266,156 L268,151 L270,143 L271,138 L272,136 L273,138 L275,140 L277,142 L278,143 L279,140 L281,134 L284,125 L287,118 L288,116 L288,120 L289,126 L289,133 L289,138 L289,139 L290,134 L291,127 L292,117 L294,107 L296,103 L298,103 L299,108 L299,117 L299,126 L300,133 L300,135 L300,131 L301,123 L302,112 L304,97 L306,90 L307,90 L308,91 L309,96 L310,104 L311,112 L312,118 L312,120 L312,119 L312,117 L311,113 L310,107 L310,102 L310,100 L310,101 L312,105 L313,111 L314,117 L315,121 L315,126 L315,132 L316,138 L316,141 L316,138 L317,134 L318,132 L319,134 L320,141 L320,151 L322,157 L323,161 L323,165 L323,164 L325,163 L327,163 L328,162 L329,162 L330,167 L330,176 L331,183 L332,187 L333,188 L333,187 L333,184 L334,182 L335,180 L335,183 L335,191 L337,200 L338,205 L339,206 L340,206 L341,206 L342,207 L344,207 L345,207 L346,208 L347,210 L347,212 L349,215 L349,217 L351,218 L351,219 L352,219 L352,220 L352,223 L352,226 L352,228 L353,228 L353,226 L353,224 L353,223 L353,222 L354,221 L354,219 L356,212 L357,201 L358,191 L359,189 L360,191 L361,195 L361,198 L362,200 L362,196 L364,188 L365,179 L367,173 L368,172 L369,175 L371,178 L372,181 L372,182 L372,181 L373,176 L374,169 L376,162 L378,161 L378,162 L379,167 L379,171 L380,172 L381,172 L381,167 L382,161 L383,153 L385,149 L386,151 L388,156 L389,160 L391,162 L391,163 L391,160 L392,154 L394,146 L395,141 L396,141 L396,145 L398,149 L398,152 L399,153 L399,152 L400,148 L401,141 L402,130 L403,118 L405,114 L407,115 L408,120 L409,128 L410,136 L411,145 L413,152 L413,154 L413,153 L413,148 L414,137 L416,122 L418,112 L419,113 L420,118 L423,127 L425,136 L427,144 L429,151 L430,153 L431,150 L434,138 L437,124 L439,113 L440,113 L442,117 L444,127 L446,136 L447,144 L447,151 L448,154 L449,152 L451,143 L453,131 L454,123 L455,124 L456,132 L457,139 L458,146 L458,150 L458,151 L459,151 L460,149 L463,145 L465,141 L467,137 L468,136 L468,141 L469,149 L471,156 L472,158 L473,158 L473,157 L474,153 L477,148 L480,146 L483,147 L485,152 L487,156 L489,159 L490,157 L491,154 L494,151 L497,151 L499,153 L501,159 L501,166 L502,172 L503,174 L504,173 L506,169 L509,160 L511,151 L513,149 L513,151 L513,155 L514,161 L515,164 L515,165 L516,164 L518,161 L519,156 L521,152 L521,151 L522,155 L522,161 L521,167 L521,169 L522,170 L523,168 L525,165 L528,159 L531,154 L533,155 L534,162 L535,171 L536,178 L538,184 L540,189 L542,192 L543,192 L544,192 L545,189 L547,182 L550,176 L552,173 L555,173 L557,176 L559,179 L562,183 L564,184 L566,182 L569,178 L573,172 L577,167 L579,166 L579,167 L580,171 L582,176 L582,178 L583,178 L583,177 L584,173 L586,168 L587,165 L587,166 L586,172 L585,180 L585,185 L586,188 L587,187 L589,180 L592,170 L594,165 L594,167 L594,175 L594,183 L594,188 L594,189 L595,189 L596,184 L599,176 L602,169 L604,167 L606,169 L607,174 L608,178 L609,180 L610,180 L611,176 L614,171 L617,168 L618,170 L619,173 L620,173 L621,174 L621,172 L622,170 L622,168 L623,168 L624,167 L626,166 L627,163 L630,157 L634,148 L638,141 L641,138 L643,137 L645,137 L648,136 L649,135 L650,135 L650,134 L650,133 L651,131 L651,130 L651,131 L651,133 L651,134 L652,135 L652,138 L652,144 L653,152 L655,159 L655,163 L657,165 L658,165 L660,163 L662,160 L665,154 L667,148 L667,146 L669,150 L671,159 L673,168 L675,176 L677,178 L680,178 L684,177 L690,173 L696,172 L701,175 L704,183 L706,190 L708,195 L710,197 L713,196 L717,191 L722,184 L725,179 L726,178 L726,179 L726,181 L727,182 L727,183 L728,181 L732,177 L736,171 L739,168 L740,170 L743,173 L744,176 L746,178 L746,179 L747,179 L749,177 L754,171 L760,162 L763,159 L763,162 L763,170 L762,178 L762,184 L762,187 L762,184 L764,176 L767,168 L770,163 L771,165 L772,172 L772,180 L772,186 L773,190 L773,188 L777,183 L781,173 L786,164 L789,163 L789,170 L790,178 L791,186 L793,192 L794,195 L797,196 L800,194 L806,187 L813,177 L818,173 L821,176 L823,186 L825,196 L827,205 L830,209 L831,210 L833,209 L837,202 L841,194 L844,190 L845,190 L846,195 L846,200 L846,203 L846,204 L847,203 L849,200 L854,194 L858,189 L859,189 L860,194 L860,198 L861,200 L862,198 L863,196 L864,194 L865,193 L866,195 L868,198 L870,199 L872,198 L875,196 L879,193 L882,193 L885,194 L889,196 L892,197 L895,196 L898,195 L900,196 L901,200 L902,203 L902,204 L904,202 L908,197 L912,192 L917,191 L919,192 L921,193 L922,193" fill="none" stroke="red" stroke-width="3"/></svg>