<svg xmlns="http://www.w3.org/2000/svg" xmlns:xlink="http://www.w3.org/1999/xlink" version="1.1" class="marks" width="1012" height="385" viewBox="0 0 1012 385"><rect width="1012" height="385" fill="white"/><g fill="none" stroke-miterlimit="10" transform="translate(7,5)"><g class="mark-group role-frame root" role="graphics-object" aria-roledescription="group mark container"><g transform="translate(0,0)"><path class="background" aria-hidden="true" d="M0.5,0.5h1000v375h-1000Z" stroke="#ddd"/><g><g class="mark-group role-axis" role="graphics-symbol" aria-roledescription="axis" aria-label="X-axis for a linear scale with values from 0 to 2,000"><g transform="translate(0.5,375.5)"><path class="background" aria-hidden="true" d="M0,0h0v0h0Z" pointer-events="none"/><g><g class="mark-rule role-axis-domain" pointer-events="none"><line transform="translate(0,0)" x2="1000" y2="0" stroke="#888" stroke-width="1" opacity="1"/></g></g><path class="foreground" aria-hidden="true" d="" pointer-events="none" display="none"/></g></g><g class="mark-group role-axis" role="graphics-symbol" aria-roledescription="axis" aria-label="Y-axis for a linear scale with values from −0.5 to 0.8"><g transform="translate(0.5,0.5)"><path class="background" aria-hidden="true" d="M0,0h0v0h0Z" pointer-events="none"/><g><g class="mark-rule role-axis-domain" pointer-events="none"><line transform="translate(0,375)" x2="0" y2="-375" stroke="#888" stroke-width="1" opacity="1"/></g></g><path class="foreground" aria-hidden="true" d="" pointer-events="none" display="none"/></g></g><g class="mark-line role-mark marks" role="graphics-object" aria-roledescription="line mark container"><path aria-label="x: 1; y: −0.0015493387" role="graphics-symbol" aria-roledescription="line mark" d="M0.5,231.216L1,231.198L1.5,231.368L2,231.457L2.5,231.715L3,230.377L3.5,229.508L4,231.06L4.5,231.123L5,230.821L5.5,231.471L6,230.57L6.5,231.674L7,230.547L7.5,231.162L8,231.369L8.5,231.016L9,230.686L9.5,229.925L10,229.683L10.5,231.608L11,230.976L11.5,230.707L12,230.383L12.5,230.397L13,230.299L13.5,229.81L14,230.914L14.5,230.721L15,230.362L15.5,231.154L16,230.868L16.5,231.629L17,230.534L17.5,231.22L18,231.305L18.5,230.83L19,230.721L19.5,229.575L20,231.599L20.5,230.68L21,230.137L21.5,229.049L22,229.61L22.5,230.15L23,230.583L23.5,231.452L24,229.557L24.5,229.488L25,230.213L25.5,230.287L26,229.571L26.5,230.259L27,230.709L27.5,229.587L28,231.195L28.5,229.89L29,230.501L29.5,230.781L30,230.456L30.5,229.946L31,230.225L31.5,231.494L32,230.795L32.5,231.69L33,230.502L33.5,231.467L34,230.831L34.5,231.486L35,230.912L35.5,231.731L36,231.087L36.5,231.297L37,231.097L37.5,231.426L38,230.604L38.5,230.384L39,230.81L39.5,230.497L40,230.532L40.5,231.013L41,232.23L41.5,231.776L42,230.625L42.5,230.804L43,230.327L43.5,231.094L44,230.938L44.5,230.883L45,231.286L45.5,229.823L46,230.848L46.5,230.961L47,231.69L47.5,231.411L48,230.737L48.5,231.941L49,231.502L49.5,231.067L50,230.622L50.5,230.641L51,230.982L51.5,231.491L52,230.77L52.5,231.259L53,230.184L53.5,230.455L54,231.137L54.5,230.851L55,230.075L55.5,230.882L56,229.789L56.5,231.639L57,231.129L57.5,231.555L58,230.625L58.5,231.254L59,231.377L59.5,230.018L60,231.599L60.5,230.449L61,230.974L61.5,230.682L62,229.2L62.5,230.236L63,231.271L63.5,230.33L64,230.16L64.5,231.233L65,229.842L65.5,231.715L66,231.556L66.5,230.937L67,230.434L67.5,229.788L68,230.894L68.5,231.46L69,230.092L69.5,231.839L70,229.781L70.5,230.418L71,230.237L71.5,230.066L72,230.021L72.5,229.499L73,230.072L73.5,230.119L74,230.651L74.5,231.868L75,231.06L75.5,232.389L76,231.693L76.5,230.13L77,231.954L77.5,231.934L78,230.953L78.5,230.466L79,230.368L79.5,231.104L80,230.724L80.5,230.969L81,230.461L81.5,230.347L82,230.369L82.5,230.738L83,231.852L83.5,231.687L84,231.095L84.5,230.859L85,230.544L85.5,231.274L86,230.98L86.5,230.601L87,230.231L87.5,230.252L88,229.722L88.5,230.506L89,230.362L89.5,231.261L90,230.441L90.5,231.135L91,231.648L91.5,231.461L92,231.214L92.5,230.665L93,231.692L93.5,230.844L94,230.501L94.5,231.171L95,230.487L95.5,230.335L96,230.979L96.5,230.943L97,230.476L97.5,231.25L98,231.234L98.5,230.812L99,229.734L99.5,230.55L100,230.155L100.5,231.771L101,232.385L101.5,230.944L102,231.54L102.5,231.412L103,230.533L103.5,230.629L104,230.962L104.5,230.69L105,231.261L105.5,229.907L106,230.69L106.5,230.373L107,231.403L107.5,231.028L108,230.552L108.5,230.846L109,231.195L109.5,232.157L110,231.113L110.5,229.236L111,230.924L111.5,230.323L112,229.699L112.5,231.108L113,230.28L113.5,229.723L114,231.054L114.5,229.769L115,230.268L115.5,231.447L116,230.118L116.5,229.655L117,231.095L117.5,230.683L118,231.645L118.5,231.09L119,230.825L119.5,231.636L120,231.038L120.5,230.001L121,230.275L121.5,230.872L122,229.522L122.5,229.682L123,230.457L123.5,229.988L124,229.96L124.5,230.264L125,230.114L125.5,230.777L126,230.97L126.5,231.275L127,231.907L127.5,229.655L128,231.436L128.5,231.042L129,232.316L129.5,231.755L130,230.086L130.5,230.706L131,229.694L131.5,230.396L132,230.062L132.5,230.234L133,230.634L133.5,230.37L134,228.981L134.5,230.749L135,230.978L135.5,230.452L136,230.508L136.5,230.598L137,230.05L137.5,230.866L138,231.304L138.5,230.657L139,230.319L139.5,228.69L140,230.581L140.5,231.316L141,230.152L141.5,230.092L142,230.903L142.5,230.263L143,230.77L143.5,229.405L144,230.405L144.5,230.471L145,229.647L145.5,231.337L146,229.828L146.5,231.366L147,230.001L147.5,230.966L148,230.98L148.5,230.477L149,231.788L149.5,230.815L150,231.112L150.5,230.429L151,230.963L151.5,230.713L152,231.549L152.5,231.632L153,230.94L153.5,231.629L154,230.918L154.5,230.75L155,230.562L155.5,230.622L156,231.629L156.5,231.726L157,230.716L157.5,230.514L158,231.116L158.5,230.413L159,229.268L159.5,230.313L160,230.933L160.5,231.351L161,230.65L161.5,231.22L162,231.258L162.5,230.113L163,231.022L163.5,231.592L164,231.689L164.5,231.296L165,231.414L165.5,230.701L166,231.495L166.5,231.593L167,230.21L167.5,229.365L168,231.359L168.5,232.025L169,231.275L169.5,231.281L170,231.537L170.5,231.312L171,231.078L171.5,231.31L172,230.744L172.5,231.189L173,230.594L173.5,231.123L174,231.217L174.5,230.766L175,231.276L175.5,231.346L176,230.833L176.5,231.961L177,230.713L177.5,230.669L178,231.836L178.5,231.138L179,231.264L179.5,230.99L180,230.649L180.5,231.365L181,231.286L181.5,230.912L182,230.376L182.5,230.987L183,231.229L183.5,230.624L184,230.149L184.5,230.895L185,230.777L185.5,231.233L186,230.913L186.5,231.003L187,231.053L187.5,231.222L188,231.002L188.5,230.811L189,230.453L189.5,232.078L190,229.903L190.5,230.737L191,230.827L191.5,230.982L192,230.231L192.5,230.288L193,230.187L193.5,231.133L194,230.791L194.5,231.314L195,230.35L195.5,230L196,230.904L196.5,230.593L197,230.392L197.5,230.727L198,230.211L198.5,230.257L199,231.222L199.5,231.574L200,230.649L200.5,230.271L201,230.666L201.5,230.624L202,230.686L202.5,230.435L203,229.864L203.5,230.552L204,230.776L204.5,232.361L205,230.43L205.5,230.562L206,230.911L206.5,231.573L207,230.682L207.5,230.534L208,229.601L208.5,230.436L209,230.171L209.5,229.955L210,231.196L210.5,230.335L211,230.764L211.5,230.784L212,229.944L212.5,229.762L213,231.374L213.5,230.604L214,230.148L214.5,232.148L215,229.749L215.5,231.019L216,230.123L216.5,231.104L217,230.409L217.5,229.929L218,231.146L218.5,230.139L219,230.432L219.5,229.704L220,230.895L220.5,230.35L221,230.274L221.5,231.722L222,230.968L222.5,230.292L223,230.499L223.5,231.983L224,231.586L224.5,231.802L225,230.391L225.5,229.808L226,230.342L226.5,230.834L227,231.345L227.5,230.417L228,230.67L228.5,231.359L229,231.378L229.5,231.136L230,231.016L230.5,231.005L231,230.992L231.5,230.889L232,230.268L232.5,231.136L233,230.391L233.5,229.765L234,229.748L234.5,231.132L235,230.686L235.5,230.609L236,230.948L236.5,231.073L237,230.542L237.5,231.245L238,230.983L238.5,231.652L239,230.64L239.5,231.684L240,230.498L240.5,230.689L241,230.903L241.5,231.419L242,230.418L242.5,230.402L243,229.772L243.5,230.741L244,231.092L244.5,229.79L245,230.006L245.5,231.675L246,231.582L246.5,231.854L247,231.004L247.5,232.101L248,230.742L248.5,231.276L249,230.85L249.5,230.957L250,231.034L250.5,231.666L251,230.968L251.5,231.062L252,231.313L252.5,231.115L253,230.835L253.5,231.471L254,230.975L254.5,231.515L255,231.41L255.5,231.484L256,230.962L256.5,230.214L257,229.57L257.5,230.494L258,230.49L258.5,230.728L259,230.663L259.5,230.33L260,231.428L260.5,230.678L261,229.053L261.5,230.171L262,229.878L262.5,229.806L263,232.168L263.5,230.866L264,230.151L264.5,231.344L265,231.411L265.5,230.527L266,231.772L266.5,230.629L267,230.214L267.5,230.929L268,229.964L268.5,230.699L269,230.601L269.5,230.525L270,230.558L270.5,230.78L271,230.759L271.5,230.216L272,229.471L272.5,229.791L273,231.099L273.5,229.34L274,230.165L274.5,230.708L275,230.514L275.5,230.759L276,231.375L276.5,230.228L277,230.657L277.5,230.626L278,231.293L278.5,231.042L279,230.144L279.5,231.114L280,230.586L280.5,229.222L281,229.467L281.5,230.266L282,229.785L282.5,229.426L283,230.903L283.5,230.46L284,230.167L284.5,230.51L285,230.039L285.5,228.707L286,229.968L286.5,229.623L287,230.93L287.5,229.79L288,229.375L288.5,231.726L289,229.661L289.5,231.18L290,230.721L290.5,230.231L291,230.37L291.5,230.147L292,230.328L292.5,230.812L293,229.711L293.5,230.444L294,230.175L294.5,230.539L295,231.539L295.5,230.855L296,230.014L296.5,231.007L297,230.981L297.5,231.969L298,230.873L298.5,230.606L299,231.303L299.5,231.491L300,231.319L300.5,231.758L301,232.266L301.5,230.4L302,230.967L302.5,230.566L303,230.293L303.5,231.188L304,231.616L304.5,230.561L305,231.132L305.5,231.151L306,231.239L306.5,230.732L307,229.691L307.5,231.299L308,230.626L308.5,231.083L309,231.539L309.5,231.841L310,230.946L310.5,230.607L311,231.274L311.5,232.198L312,231.061L312.5,230.386L313,230.642L313.5,230.632L314,230.331L314.5,231.073L315,230.919L315.5,231.482L316,230.457L316.5,230.675L317,230.776L317.5,230.971L318,230.716L318.5,231.494L319,230.471L319.5,231.257L320,230.712L320.5,230.485L321,231.274L321.5,231.553L322,230.82L322.5,230.851L323,231.65L323.5,230.84L324,230.868L324.5,231.023L325,231.436L325.5,231.919L326,230.706L326.5,231.619L327,231.176L327.5,230.963L328,230.648L328.5,230.154L329,231.377L329.5,230.525L330,230.43L330.5,230.677L331,230.478L331.5,231.227L332,230.771L332.5,230.766L333,229.505L333.5,230.75L334,229.311L334.5,230.128L335,230.642L335.5,230.788L336,230.183L336.5,230.677L337,229.246L337.5,231.354L338,230.643L338.5,230.283L339,229.673L339.5,231.014L340,230.21L340.5,230.617L341,231.201L341.5,231.51L342,229.842L342.5,230.842L343,230.88L343.5,230.672L344,231.543L344.5,230.289L345,230.397L345.5,229.862L346,229.875L346.5,230.038L347,231.509L347.5,229.678L348,229.772L348.5,229.939L349,231.436L349.5,230.606L350,231.04L350.5,231.004L351,230.745L351.5,231.114L352,230.87L352.5,231.087L353,230.26L353.5,230.997L354,231.222L354.5,231.633L355,232.386L355.5,230.503L356,232.303L356.5,231.102L357,231.325L357.5,231.686L358,232.468L358.5,232.585L359,231.962L359.5,230.885L360,231.911L360.5,231.547L361,230.875L361.5,230.478L362,230.035L362.5,231.668L363,230.275L363.5,230.066L364,231.288L364.5,231.381L365,230.886L365.5,231.244L366,231.035L366.5,231.894L367,231.143L367.5,231.073L368,231.413L368.5,231.469L369,231.578L369.5,231.376L370,230.341L370.5,231.417L371,231.088L371.5,231.806L372,231.219L372.5,231.847L373,230.832L373.5,231.04L374,231.937L374.5,231.403L375,231.516L375.5,231.443L376,231.771L376.5,230.901L377,231.521L377.5,231.088L378,231.455L378.5,229.528L379,230.195L379.5,230.841L380,230.462L380.5,231.423L381,232.15L381.5,230.992L382,230.929L382.5,230.39L383,231.614L383.5,231.307L384,230.871L384.5,230.694L385,230.953L385.5,231.056L386,231.604L386.5,230.243L387,230.85L387.5,230.291L388,230.4L388.5,230.5L389,230.974L389.5,230.814L390,229.933L390.5,230.4L391,229.888L391.5,229.582L392,230.988L392.5,229.734L393,231.171L393.5,229.714L394,230.95L394.5,231.031L395,231.035L395.5,230.513L396,230.168L396.5,229.771L397,230.693L397.5,230.387L398,230.63L398.5,230.283L399,230.683L399.5,230.741L400,230.527L400.5,230.891L401,230.636L401.5,230.682L402,230.676L402.5,229.815L403,230.705L403.5,229.972L404,230.513L404.5,230.438L405,231.692L405.5,233.332L406,230.766L406.5,230.486L407,231.273L407.5,230.37L408,230.523L408.5,230.53L409,230.317L409.5,230.211L410,230.3L410.5,230.024L411,230.726L411.5,230.308L412,231.851L412.5,230.625L413,230.086L413.5,230.262L414,230.591L414.5,230.694L415,231.09L415.5,229.342L416,229.805L416.5,230.159L417,230.193L417.5,230.602L418,231.776L418.5,230.725L419,230.876L419.5,230.73L420,231.073L420.5,231.739L421,231.73L421.5,230.385L422,230.278L422.5,229.988L423,229.846L423.5,230.585L424,229.648L424.5,230.56L425,230.089L425.5,230.991L426,231.536L426.5,229.816L427,231.361L427.5,229.864L428,229.742L428.5,231.674L429,231.285L429.5,230.413L430,230.087L430.5,230.655L431,230.781L431.5,230.972L432,230.295L432.5,230.758L433,231.226L433.5,230.082L434,231.708L434.5,231.291L435,230.917L435.5,230.955L436,231.197L436.5,230.766L437,230.992L437.5,230.068L438,230.995L438.5,230.932L439,230.802L439.5,230.154L440,231.712L440.5,229.872L441,230.568L441.5,230.8L442,230.199L442.5,229.557L443,230.281L443.5,232.179L444,228.515L444.5,231.741L445,232.076L445.5,230.507L446,230.502L446.5,231.228L447,230.809L447.5,230.683L448,230.68L448.5,230.368L449,231.112L449.5,230.841L450,230.654L450.5,230.477L451,229.941L451.5,230.668L452,231.425L452.5,230.564L453,230.621L453.5,232.525L454,231.143L454.5,231.497L455,230.406L455.5,230.239L456,230.385L456.5,232.055L457,230.407L457.5,231.945L458,229.674L458.5,231.274L459,230.952L459.5,231.099L460,231.293L460.5,232.067L461,231.85L461.5,230.891L462,231.152L462.5,230.743L463,230.232L463.5,231.562L464,230.723L464.5,229.989L465,231.52L465.5,231.154L466,230.894L466.5,229.721L467,230.056L467.5,230.967L468,230.3L468.5,230.973L469,230.532L469.5,231.14L470,230.934L470.5,230.705L471,230.821L471.5,231.456L472,230.597L472.5,231.204L473,230.437L473.5,231.787L474,230.733L474.5,231.102L475,230.198L475.5,230.849L476,229.399L476.5,230.499L477,231.056L477.5,230.389L478,229.305L478.5,231.816L479,231.549L479.5,230.32L480,232.116L480.5,229.502L481,231.768L481.5,230.385L482,230.065L482.5,229.861L483,230.038L483.5,231.865L484,230.573L484.5,230.64L485,230.212L485.5,230.328L486,230.728L486.5,230.461L487,230.963L487.5,230.926L488,231.098L488.5,231.701L489,230.925L489.5,230.75L490,229.903L490.5,230.103L491,230.342L491.5,229.264L492,229.769L492.5,229.705L493,230.215L493.5,229.816L494,232.068L494.5,230.729L495,231.244L495.5,230.937L496,231.67L496.5,230.737L497,231.008L497.5,229.914L498,230.85L498.5,229.858L499,230.666L499.5,230.836L500,229.998L500.5,230.744L501,230.112L501.5,230.35L502,231.01L502.5,230.09L503,230.842L503.5,229.887L504,230.873L504.5,229.997L505,230.07L505.5,230.173L506,230.559L506.5,230.676L507,230.836L507.5,229.361L508,229.366L508.5,230.572L509,229.832L509.5,229.855L510,230.206L510.5,230.447L511,230.1L511.5,231.107L512,230.618L512.5,230.565L513,230.79L513.5,229.619L514,230.69L514.5,231.277L515,231.155L515.5,230.56L516,230.742L516.5,231.575L517,231.08L517.5,230.887L518,230.957L518.5,231.041L519,230.349L519.5,231.865L520,230.347L520.5,230.761L521,230.671L521.5,231.182L522,230.731L522.5,231.735L523,231.943L523.5,230.881L524,230.414L524.5,230.293L525,230.531L525.5,230.356L526,230.155L526.5,230.451L527,230.991L527.5,230.954L528,229.925L528.5,230.162L529,230.901L529.5,231.268L530,230.75L530.5,231.474L531,231.639L531.5,229.265L532,231.857L532.5,231.091L533,231.381L533.5,230.596L534,231.489L534.5,230.488L535,229.464L535.5,230.659L536,231.708L536.5,231.923L537,231.132L537.5,230.407L538,230.928L538.5,230.652L539,231.476L539.5,231.677L540,231.732L540.5,230.307L541,230.481L541.5,231.387L542,231.025L542.5,230.851L543,230.432L543.5,229.63L544,230.684L544.5,230.633L545,229.953L545.5,230.338L546,231.489L546.5,230.583L547,230.022L547.5,232.066L548,231.28L548.5,229.684L549,231.495L549.5,230.599L550,230.372L550.5,229.265L551,230.128L551.5,230.787L552,231.102L552.5,230.373L553,230.33L553.5,221.632L554,228.866L554.5,9.943L555,346.725L555.5,251.076L556,231.705L556.5,231.564L557,230.336L557.5,231.005L558,230.914L558.5,230.785L559,230.077L559.5,231.033L560,230.766L560.5,231.628L561,230.985L561.5,231.317L562,230.777L562.5,230.088L563,229.909L563.5,230.751L564,231.649L564.5,230.651L565,230.379L565.5,231.543L566,230.429L566.5,229.782L567,229.842L567.5,229.927L568,231.511L568.5,231.593L569,230.443L569.5,231.467L570,230.587L570.5,230.578L571,230.494L571.5,231.996L572,230.055L572.5,231.308L573,231.232L573.5,231.679L574,230.167L574.5,230.307L575,230.572L575.5,231.321L576,230.948L576.5,229.403L577,230.243L577.5,231.259L578,229.912L578.5,229.329L579,229.975L579.5,231.093L580,231.914L580.5,231.367L581,231.716L581.5,232.003L582,231.031L582.5,229.98L583,231.573L583.5,230.152L584,231.221L584.5,229.736L585,230.632L585.5,230.744L586,231.535L586.5,231.316L587,230.902L587.5,230.104L588,231.516L588.5,231.134L589,231.266L589.5,231.664L590,231.526L590.5,231.08L591,231.698L591.5,231.576L592,231.431L592.5,230.66L593,231.234L593.5,230.763L594,231.181L594.5,230.057L595,230.903L595.5,230.765L596,231.61L596.5,231.701L597,231.43L597.5,231.213L598,230.629L598.5,232.269L599,231.081L599.5,230.809L600,231.679L600.5,231.382L601,231.271L601.5,229.975L602,230.483L602.5,231.08L603,230.161L603.5,231.517L604,230.934L604.5,231.164L605,230.874L605.5,231.833L606,231.475L606.5,230.67L607,230.917L607.5,231.539L608,229.427L608.5,230.799L609,231.513L609.5,231.222L610,232.261L610.5,230.725L611,231.536L611.5,230.198L612,231.426L612.5,231.176L613,230.342L613.5,229.425L614,230.034L614.5,231.566L615,231.687L615.5,230.6L616,229.889L616.5,232.116L617,229.982L617.5,231.096L618,230.982L618.5,230.396L619,231.488L619.5,231.753L620,230.179L620.5,230.722L621,230.126L621.5,232.14L622,230.812L622.5,229.723L623,231.108L623.5,230.29L624,230.681L624.5,230.54L625,230.964L625.5,231.263L626,231.133L626.5,230.936L627,230.367L627.5,230.779L628,230.266L628.5,230.143L629,231.391L629.5,231.097L630,230.28L630.5,230.721L631,230.48L631.5,232.433L632,230.46L632.5,230.562L633,230.626L633.5,230.436L634,230.442L634.5,230.614L635,231.326L635.5,229.747L636,230.763L636.5,231.13L637,230.05L637.5,231.101L638,229.6L638.5,229.888L639,230.977L639.5,231.11L640,231.08L640.5,231.154L641,230.558L641.5,230.084L642,231.31L642.5,231.205L643,231.176L643.5,230.745L644,231.338L644.5,231.463L645,230.477L645.5,230.001L646,229.955L646.5,231.919L647,230.475L647.5,231.088L648,231.021L648.5,230.535L649,230.811L649.5,230.565L650,230.652L650.5,230.751L651,230.053L651.5,230.487L652,230.211L652.5,230.657L653,230.353L653.5,231.203L654,229.579L654.5,230.584L655,229.759L655.5,230.29L656,230.558L656.5,230.865L657,229.465L657.5,231.099L658,230.521L658.5,231.325L659,231.554L659.5,231.208L660,230.871L660.5,230.775L661,231.016L661.5,230.757L662,230.789L662.5,230.836L663,230.169L663.5,229.786L664,231.957L664.5,231.085L665,232.098L665.5,230.293L666,230.288L666.5,231.634L667,230.516L667.5,230.575L668,230.753L668.5,231.983L669,231.414L669.5,231.91L670,230.876L670.5,230.448L671,230.282L671.5,231.321L672,230.302L672.5,230.899L673,232.164L673.5,230.483L674,231.314L674.5,230.836L675,231.348L675.5,230.858L676,231.27L676.5,230.79L677,231.067L677.5,230.985L678,230.949L678.5,231.381L679,230.769L679.5,230.514L680,230.606L680.5,230.921L681,231.102L681.5,231.146L682,230.266L682.5,229.895L683,231.453L683.5,231.458L684,230.683L684.5,230.232L685,231.272L685.5,230.006L686,230.623L686.5,230.076L687,230.778L687.5,228.777L688,230.614L688.5,230.464L689,230.581L689.5,229.73L690,229.655L690.5,229.942L691,230.959L691.5,230.681L692,231.216L692.5,230.841L693,231.156L693.5,230.764L694,231.256L694.5,231.739L695,231.36L695.5,229.681L696,230.815L696.5,232.133L697,230.1L697.5,230.327L698,230.666L698.5,230.842L699,229.657L699.5,229.424L700,231.432L700.5,229.567L701,229.253L701.5,230.768L702,231.319L702.5,232.47L703,230.232L703.5,231.159L704,230.344L704.5,230.411L705,230.148L705.5,231.022L706,231.306L706.5,230.69L707,230.715L707.5,230.396L708,231.255L708.5,230.907L709,230.468L709.5,231.017L710,229.806L710.5,230.309L711,230.106L711.5,230.214L712,229.297L712.5,229.721L713,229.596L713.5,229.53L714,230.514L714.5,231.055L715,230.541L715.5,229.621L716,230.713L716.5,231.054L717,230.324L717.5,230.76L718,230.744L718.5,230.964L719,230.622L719.5,231.148L720,231.35L720.5,231.216L721,231.718L721.5,231.518L722,230.335L722.5,230.056L723,230.887L723.5,230.29L724,230.411L724.5,230.629L725,231.4L725.5,230.665L726,230.332L726.5,230.61L727,230.979L727.5,231.164L728,229.815L728.5,230.622L729,230.786L729.5,231.196L730,230.99L730.5,230.421L731,231.187L731.5,230.934L732,230.616L732.5,230.431L733,231.724L733.5,231.179L734,230.203L734.5,230.854L735,230.657L735.5,231.413L736,230.701L736.5,231.678L737,230.452L737.5,231.096L738,232.821L738.5,230.87L739,230.966L739.5,230.563L740,230.811L740.5,231.836L741,230.818L741.5,230.439L742,229.91L742.5,231.109L743,231.037L743.5,230.625L744,230.892L744.5,231.927L745,230.742L745.5,230.616L746,231.143L746.5,230.765L747,231.608L747.5,229.876L748,230.329L748.5,230.834L749,230.562L749.5,231.924L750,231.851L750.5,230.592L751,231.571L751.5,230.666L752,230.686L752.5,231.503L753,231.055L753.5,230.793L754,229.993L754.5,230.025L755,229.933L755.5,231.68L756,230.916L756.5,230.342L757,231.082L757.5,230.782L758,230.648L758.5,231.311L759,230.714L759.5,231.131L760,231.404L760.5,231.278L761,231.3L761.5,230.697L762,231.355L762.5,230.847L763,230.484L763.5,231.006L764,230.454L764.5,231.595L765,230.682L765.5,232.022L766,230.199L766.5,230.954L767,231.423L767.5,230.347L768,231.231L768.5,230.825L769,230.331L769.5,230.378L770,230.553L770.5,230.669L771,230.257L771.5,230.642L772,231.028L772.5,230.99L773,230.768L773.5,231.106L774,231.087L774.5,231.473L775,230.563L775.5,229.904L776,231.228L776.5,229.748L777,231.015L777.5,230.851L778,230.479L778.5,230.777L779,230.83L779.5,231.613L780,230.121L780.5,230.451L781,230.112L781.5,229.335L782,229.808L782.5,229.739L783,230.624L783.5,230.48L784,229.897L784.5,231.022L785,230.782L785.5,231.147L786,231.118L786.5,230.76L787,231.219L787.5,230.317L788,229.936L788.5,230.375L789,231.188L789.5,230.403L790,230.539L790.5,230.024L791,230.861L791.5,230.659L792,230.979L792.5,231.278L793,230.962L793.5,230.595L794,229.774L794.5,231.425L795,230.562L795.5,229.885L796,231.427L796.5,231.034L797,230.709L797.5,230.13L798,231.055L798.5,230.611L799,229.773L799.5,230.138L800,230.315L800.5,229.151L801,230.562L801.5,229.99L802,230.81L802.5,230.224L803,231.136L803.5,231.54L804,230.629L804.5,231.635L805,230.531L805.5,230.228L806,231.765L806.5,230.845L807,230.16L807.5,230.529L808,231.121L808.5,231.05L809,230.549L809.5,230.992L810,230.068L810.5,230.993L811,229.778L811.5,231.34L812,231.092L812.5,231.292L813,231.697L813.5,229.721L814,230.767L814.5,230.205L815,230.453L815.5,230.865L816,230.699L816.5,230.404L817,230.856L817.5,230.317L818,230.334L818.5,231.1L819,229.758L819.5,230.298L820,231.104L820.5,231.032L821,230.871L821.5,230.324L822,231.645L822.5,231.264L823,230.291L823.5,230.97L824,230.612L824.5,231.587L825,229.666L825.5,231.491L826,231.03L826.5,231.717L827,229.947L827.5,230.103L828,231.073L828.5,231.001L829,230L829.5,231.112L830,230.459L830.5,230.827L831,230.503L831.5,230.657L832,231.173L832.5,230.827L833,231.82L833.5,229.84L834,231.466L834.5,229.495L835,231.214L835.5,229.843L836,230.797L836.5,230.347L837,229.852L837.5,230.996L838,230.989L838.5,230.368L839,231.305L839.5,231.076L840,231.035L840.5,231.655L841,231.511L841.5,229.977L842,230.821L842.5,229.967L843,230.695L843.5,229.699L844,229.83L844.5,229.987L845,230.032L845.5,230.284L846,229.977L846.5,230.621L847,230.751L847.5,231.203L848,230.929L848.5,230.918L849,231.135L849.5,230.795L850,229.966L850.5,230.43L851,231.258L851.5,231.74L852,230.719L852.5,231.267L853,231.175L853.5,229.894L854,231.751L854.5,230.758L855,231.89L855.5,231.933L856,231.262L856.5,231.215L857,230.235L857.5,230.91L858,230.799L858.5,230.378L859,230.988L859.5,231.293L860,230.795L860.5,230.73L861,231.031L861.5,230.94L862,230.12L862.5,231.614L863,230.61L863.5,231.502L864,230.437L864.5,230.486L865,230.358L865.5,230.811L866,230.53L866.5,231.71L867,230.572L867.5,230.895L868,230.996L868.5,231.879L869,230.478L869.5,231.25L870,231.526L870.5,230.656L871,230.187L871.5,230.915L872,231.126L872.5,231.471L873,231.54L873.5,230.974L874,231.121L874.5,231.055L875,231.588L875.5,230.027L876,229.769L876.5,230.358L877,230.748L877.5,231.017L878,231.364L878.5,231.904L879,230.336L879.5,231.564L880,231.856L880.5,231.765L881,230.456L881.5,231.308L882,232.124L882.5,231.932L883,231.295L883.5,231.137L884,230.026L884.5,230.476L885,231.904L885.5,230.839L886,229.837L886.5,230.386L887,231.169L887.5,231.363L888,230.606L888.5,230.516L889,231.378L889.5,230.849L890,231.809L890.5,230.885L891,231.603L891.5,231.863L892,230.187L892.5,230.831L893,230.573L893.5,230.858L894,231.039L894.5,230.181L895,231.257L895.5,230.824L896,230.924L896.5,230.393L897,231.105L897.5,231.069L898,230.487L898.5,231.41L899,230.834L899.5,231.032L900,230.906L900.5,230.517L901,230.474L901.5,230.821L902,231.086L902.5,230.814L903,230.865L903.5,230.728L904,230.471L904.5,230.239L905,231.336L905.5,230.24L906,230.58L906.5,231.691L907,230.559L907.5,231.461L908,231.399L908.5,230.554L909,230.077L909.5,231.079L910,230.905L910.5,231.501L911,230.242L911.5,230.214L912,230.898L912.5,231.361L913,231.636L913.5,231.726L914,230.459L914.5,231.614L915,230.207L915.5,230.858L916,230.158L916.5,230.265L917,231.397L917.5,231.227L918,230.771L918.5,229.759L919,230.196L919.5,230.644L920,231.222L920.5,229.852L921,230.809L921.5,230.064L922,229.994L922.5,230.931L923,230.588L923.5,230.494L924,230.295L924.5,230.594L925,230.148L925.5,231.285L926,230.502L926.5,230.631L927,230.572L927.5,230.455L928,230.956L928.5,230.605L929,229.306L929.5,230.27L930,229.566L930.5,230.247L931,230.182L931.5,230.431L932,230.016L932.5,230.452L933,230.234L933.5,230.778L934,230.55L934.5,231.256L935,231.036L935.5,230.768L936,230.746L936.5,230.223L937,230.692L937.5,230.31L938,229.916L938.5,230.188L939,230.32L939.5,230.432L940,231.801L940.5,230.109L941,230.762L941.5,230.74L942,231.131L942.5,230.011L943,231.549L943.5,230.362L944,230.365L944.5,230.196L945,230.995L945.5,230.36L946,230.29L946.5,229.348L947,230.986L947.5,230.886L948,230.782L948.5,230.161L949,231.208L949.5,231.483L950,230.111L950.5,231.27L951,230.628L951.5,231.68L952,230.424L952.5,231.727L953,230.981L953.5,230.177L954,231.218L954.5,230.557L955,231.237L955.5,230.092L956,230.919L956.5,230.168L957,230.759L957.5,230.958L958,230.032L958.5,230.153L959,231.132L959.5,230.958L960,230.702L960.5,230.777L961,231.053L961.5,230.969L962,229.542L962.5,230.794L963,230.372L963.5,230.605L964,231.621L964.5,231.069L965,230.7L965.5,230.749L966,231.939L966.5,230.545L967,230.58L967.5,231.885L968,230.175L968.5,231.553L969,231.929L969.5,231.19L970,230.665L970.5,230.705L971,230.387L971.5,231.168L972,230.445L972.5,230.96L973,231.463L973.5,231.457" stroke="#4c78a8" stroke-width="2"/></g></g><path class="foreground" aria-hidden="true" d="" display="none"/></g></g></g> xmlns="http://www.w3.org/2000/svg" version="1.1" xmlns:xlink="http://www.w3.org/1999/xlink" xmlns:svgjs="http://svgjs.dev/svgjs" width="950" height="375" id="chartSvg"><path d="M18,229 L18,230 L17,231 L16,231 L15,231 L14,231 L13,231 L12,231 L11,231 L10,231 L12,230 L14,230 L19,230 L25,230 L33,229 L42,226 L52,223 L61,222 L70,222 L79,222 L89,221 L100,219 L110,217 L120,217 L129,217 L140,217 L152,217 L166,217 L180,215 L194,214 L209,213 L223,212 L238,212 L254,212 L270,211 L286,210 L301,210 L317,210 L332,210 L347,210 L363,211 L379,211 L396,210 L413,210 L430,210 L447,211 L464,211 L481,211 L500,212 L518,212 L537,213 L556,215 L575,216 L594,218 L615,219 L636,220 L657,222 L679,223 L700,224 L722,224 L744,225 L766,225 L789,225 L813,225 L836,225 L858,225 L882,225 L903,226 L925,227 L946,229 L965,230 L977,231" fill="none" stroke="red" stroke-width="3"/></svg>