<svg xmlns="http://www.w3.org/2000/svg" version="1.1" xmlns:xlink="http://www.w3.org/1999/xlink" xmlns:svgjs="http://svgjs.dev/svgjs" width="950" height="375" id="chartSvg"><path d="M27,293 L27,294 L27,295 L27,294 L28,293 L29,291 L31,289 L34,286 L37,283 L39,281 L42,279 L46,277 L49,275 L52,273 L56,270 L60,267 L64,265 L67,264 L70,262 L73,261 L76,261 L80,259 L84,258 L87,257 L90,256 L92,256 L95,255 L98,255 L102,255 L105,254 L108,254 L111,254 L114,255 L117,255 L121,255 L124,256 L127,256 L129,257 L132,258 L136,259 L139,260 L141,261 L144,261 L145,261 L147,262 L149,262 L151,263 L154,263 L157,264 L160,264 L163,264 L165,264 L168,264 L170,264 L173,265 L176,266 L178,266 L180,267 L181,267 L183,268 L185,269 L186,270 L188,271 L189,271 L191,272 L193,272 L195,272 L198,272 L200,272 L203,272 L206,272 L209,272 L212,271 L216,271 L218,271 L221,271 L224,271 L227,271 L229,272 L232,272 L234,272 L237,272 L240,271 L244,270 L249,268 L254,267 L259,265 L264,263 L270,261 L275,261 L280,261 L286,261 L290,261 L293,262 L296,263 L300,263 L303,264 L307,264 L310,264 L313,264 L316,264 L319,264 L322,264 L325,264 L327,264 L330,264 L332,265 L335,265 L337,266 L340,266 L343,266 L345,265 L347,264 L349,264 L352,263 L354,262 L356,261 L357,261 L359,261 L360,261 L361,261 L362,261 L362,262 L363,263 L364,263 L364,264 L365,264 L366,264 L368,265 L369,266 L371,266 L373,267 L375,268 L377,268 L379,269 L381,270 L383,270 L386,271 L388,271 L391,271 L394,271 L398,271 L401,272 L403,272 L406,272 L409,272 L412,272 L415,271 L418,271 L420,271 L423,270 L425,269 L428,268 L431,266 L434,265 L437,264 L439,263 L442,261 L445,260 L447,259 L449,258 L451,257 L454,255 L455,254 L457,253 L459,251 L460,250 L462,249 L464,247 L467,246 L469,245 L471,244 L473,243 L474,242 L476,242 L477,241 L479,240 L481,239 L483,239 L484,239 L486,238 L489,237 L490,237 L492,237 L494,236 L496,236 L499,236 L501,235 L504,235 L506,235 L508,235 L511,235 L513,235 L516,235 L519,235 L522,236 L525,236 L527,236 L530,236 L533,235 L536,234 L539,233 L542,231 L544,227 L546,224 L548,222 L550,220 L553,219 L556,218 L559,217 L562,216 L564,215 L567,212 L571,210 L574,208 L578,205 L582,203 L586,200 L590,198 L595,195 L600,192 L604,189 L609,185 L613,182 L618,179 L623,176 L628,173 L633,171 L638,168 L642,167 L647,166 L650,166 L654,166 L657,166 L661,166 L665,166 L669,167 L672,167 L675,168 L679,168 L682,168 L687,168 L690,168 L694,169 L697,170 L701,171 L704,172 L707,173 L710,174 L712,175 L714,177 L717,178 L719,180 L721,183 L723,185 L725,187 L727,189 L728,191 L729,193 L730,195 L731,197 L733,199 L735,201 L737,203 L738,205 L740,208 L741,210 L743,213 L744,216 L745,219 L746,221 L747,224 L748,226 L749,228 L750,230 L751,233 L752,235 L753,237 L755,240 L756,242 L757,244 L758,245 L760,246 L762,246 L763,246 L765,245 L767,243 L769,242 L771,240 L773,238 L775,235 L777,233 L778,230 L780,227 L782,224 L783,222 L785,220 L787,217 L789,215 L792,212 L794,209 L796,207 L798,204 L799,202 L801,199 L802,197 L804,193 L805,190 L806,186 L807,184 L809,182 L809,180 L810,179 L811,177 L813,176 L814,176 L815,176 L816,176 L818,177 L819,178 L821,180 L823,183 L825,184 L826,185 L828,186 L830,188 L832,189 L834,190 L836,190 L837,191 L839,192 L841,193 L842,194 L844,195 L846,195 L848,195 L851,196 L853,197 L855,197 L858,197 L860,198 L864,198 L867,198 L871,197 L874,196 L877,195 L881,194 L885,192 L889,190 L893,188 L897,186 L901,183 L906,179 L911,175 L917,171 L924,166 L931,161 L939,156 L945,151 L951,146 L958,141 L963,136 L966,130 L968,126 L969,126" fill="none" stroke="red" stroke-width="3"/></svg>