<svg xmlns="http://www.w3.org/2000/svg" xmlns:xlink="http://www.w3.org/1999/xlink" version="1.1" class="marks" width="1012" height="385" viewBox="0 0 1012 385"><rect width="1012" height="385" fill="white"/><g fill="none" stroke-miterlimit="10" transform="translate(7,5)"><g class="mark-group role-frame root" role="graphics-object" aria-roledescription="group mark container"><g transform="translate(0,0)"><path class="background" aria-hidden="true" d="M0.5,0.5h1000v375h-1000Z" stroke="#ddd"/><g><g class="mark-group role-axis" role="graphics-symbol" aria-roledescription="axis" aria-label="X-axis for a linear scale with values from 0 to 1,100"><g transform="translate(0.5,375.5)"><path class="background" aria-hidden="true" d="M0,0h0v0h0Z" pointer-events="none"/><g><g class="mark-rule role-axis-domain" pointer-events="none"><line transform="translate(0,0)" x2="1000" y2="0" stroke="#888" stroke-width="1" opacity="1"/></g></g><path class="foreground" aria-hidden="true" d="" pointer-events="none" display="none"/></g></g><g class="mark-group role-axis" role="graphics-symbol" aria-roledescription="axis" aria-label="Y-axis for a linear scale with values from −200,000 to 400,000"><g transform="translate(0.5,0.5)"><path class="background" aria-hidden="true" d="M0,0h0v0h0Z" pointer-events="none"/><g><g class="mark-rule role-axis-domain" pointer-events="none"><line transform="translate(0,375)" x2="0" y2="-375" stroke="#888" stroke-width="1" opacity="1"/></g></g><path class="foreground" aria-hidden="true" d="" pointer-events="none" display="none"/></g></g><g class="mark-line role-mark marks" role="graphics-object" aria-roledescription="line mark container"><path aria-label="x: 1; y: −17428.9132055" role="graphics-symbol" aria-roledescription="line mark" d="M0.909,260.893L1.818,170.681L2.727,236.381L3.636,212.236L4.545,357.1L5.455,260.838L6.364,153.449L7.273,148.935L8.182,66.45L9.091,173.881L10,218.5L10.909,158.554L11.818,141.146L12.727,121.341L13.636,76.334L14.545,280.671L15.455,120.404L16.364,252.551L17.273,258.545L18.182,131.455L19.091,215.977L20,33.744L20.909,219.574L21.818,218.572L22.727,174.246L23.636,148.86L24.545,157.813L25.455,192.754L26.364,109.93L27.273,89.969L28.182,177.114L29.091,199.601L30,133.194L30.909,171.928L31.818,205.469L32.727,225.509L33.636,176.12L34.545,304.444L35.455,210.239L36.364,182.366L37.273,150.055L38.182,164.564L39.091,242.146L40,209.719L40.909,182.92L41.818,300.411L42.727,236.834L43.636,335.047L44.545,142.753L45.455,138.068L46.364,143.255L47.273,247.856L48.182,251.268L49.091,170.462L50,207.289L50.909,178.111L51.818,196.38L52.727,196.194L53.636,271.637L54.545,120.36L55.455,176.954L56.364,100.146L57.273,173.059L58.182,131.754L59.091,163.568L60,259.325L60.909,193.075L61.818,175.52L62.727,213.102L63.636,174.47L64.545,271.564L65.455,178.333L66.364,243.845L67.273,167.639L68.182,183.986L69.091,166.154L70,172.866L70.909,187.946L71.818,200.55L72.727,202.591L73.636,148.516L74.545,171.918L75.455,117.318L76.364,161.414L77.273,143.234L78.182,165.477L79.091,219.4L80,251.537L80.909,193.949L81.818,238.641L82.727,228.528L83.636,303.525L84.545,97.563L85.455,264.72L86.364,161.376L87.273,204.816L88.182,56.055L89.091,232.952L90,156.56L90.909,123.248L91.818,233.257L92.727,167.797L93.636,252.837L94.545,181.88L95.455,110.291L96.364,273.163L97.273,205.389L98.182,181.155L99.091,90.441L100,80.635L100.909,181.848L101.818,121.951L102.727,144.262L103.636,162.454L104.545,158.165L105.455,179.866L106.364,156.981L107.273,200.971L108.182,210.823L109.091,152.539L110,85.617L110.909,137.327L111.818,201.43L112.727,131.334L113.636,307.322L114.545,297.069L115.455,206.226L116.364,98.028L117.273,282.948L118.182,210.371L119.091,222.945L120,108.498L120.909,193.663L121.818,231.436L122.727,197.516L123.636,165.76L124.545,189.343L125.455,131.292L126.364,190.877L127.273,142.303L128.182,211.963L129.091,107.35L130,185.626L130.909,193.916L131.818,227.307L132.727,263.857L133.636,126.167L134.545,247.976L135.455,145.107L136.364,155.492L137.273,229.898L138.182,160.7L139.091,139.076L140,299.073L140.909,173.467L141.818,108.35L142.727,96.207L143.636,177.181L144.545,195.58L145.455,169.813L146.364,223.835L147.273,316.991L148.182,202.82L149.091,181.012L150,278.005L150.909,82.825L151.818,196.865L152.727,246.533L153.636,166.904L154.545,202.583L155.455,231.935L156.364,169.003L157.273,170.133L158.182,169.357L159.091,208.19L160,157.876L160.909,122.495L161.818,210.908L162.727,164.224L163.636,92.596L164.545,184.976L165.455,119.342L166.364,217.738L167.273,183.995L168.182,122.669L169.091,262.373L170,225.296L170.909,189.814L171.818,155.45L172.727,200.984L173.636,130.99L174.545,175.53L175.455,133.501L176.364,113.897L177.273,221.192L178.182,159.489L179.091,254.283L180,175.3L180.909,92.602L181.818,161.652L182.727,116.766L183.636,246.884L184.545,212.764L185.455,194.888L186.364,240.313L187.273,222.091L188.182,230.465L189.091,267.383L190,200.958L190.909,210.997L191.818,262.839L192.727,175.868L193.636,231.847L194.545,184.149L195.455,166.729L196.364,135.632L197.273,131.609L198.182,242.852L199.091,187.756L200,294.642L200.909,162.701L201.818,124.059L202.727,209.445L203.636,175.705L204.545,181.536L205.455,263.71L206.364,257.566L207.273,261.863L208.182,198.488L209.091,246.068L210,92.329L210.909,137.072L211.818,171.676L212.727,242.8L213.636,233.878L214.545,134.709L215.455,150.617L216.364,179.278L217.273,231.617L218.182,221.795L219.091,147.422L220,127.475L220.909,267.6L221.818,172.577L222.727,278.805L223.636,173.084L224.545,157.008L225.455,197.046L226.364,142.894L227.273,141.284L228.182,196.28L229.091,93.255L230,184.416L230.909,180.272L231.818,217.81L232.727,271.593L233.636,214.086L234.545,185.888L235.455,93.216L236.364,195.697L237.273,212.046L238.182,181.489L239.091,189.965L240,296.471L240.909,190.158L241.818,135.197L242.727,104.763L243.636,193.852L244.545,177.254L245.455,212.776L246.364,225.589L247.273,301.531L248.182,229.898L249.091,183.568L250,174.479L250.909,79.339L251.818,206.64L252.727,272.518L253.636,187.43L254.545,162.625L255.455,172.724L256.364,204.529L257.273,189.865L258.182,172.869L259.091,213.082L260,289.431L260.909,169.123L261.818,192.534L262.727,130.939L263.636,179.208L264.545,284.945L265.455,227.395L266.364,185.654L267.273,202.493L268.182,209.766L269.091,122.105L270,207.737L270.909,215.125L271.818,237.529L272.727,272.365L273.636,153.062L274.545,181.762L275.455,254.818L276.364,208.366L277.273,275.006L278.182,260.802L279.091,162.137L280,174.266L280.909,167.9L281.818,203.646L282.727,172.828L283.636,219.324L284.545,177.851L285.455,215.289L286.364,197.218L287.273,162.361L288.182,97.274L289.091,186.923L290,218.426L290.909,171.273L291.818,107.616L292.727,122.056L293.636,172.972L294.545,239.796L295.455,173.485L296.364,148.238L297.273,220.897L298.182,224.803L299.091,188.168L300,180.068L300.909,270.463L301.818,104.759L302.727,270.252L303.636,92.489L304.545,121.922L305.455,193.011L306.364,202.336L307.273,182.821L308.182,270.185L309.091,281.133L310,149.293L310.909,265.447L311.818,229.476L312.727,110.639L313.636,174.412L314.545,74.218L315.455,119.385L316.364,191.729L317.273,82.318L318.182,220.426L319.091,218.109L320,178.62L320.909,189.327L321.818,270.803L322.727,260.293L323.636,216.172L324.545,152.058L325.455,247.053L326.364,150.466L327.273,214.497L328.182,208.116L329.091,157.203L330,182.984L330.909,197.384L331.818,92.643L332.727,147.148L333.636,114.196L334.545,63.647L335.455,61.766L336.364,191.089L337.273,149.719L338.182,167.857L339.091,170.382L340,101.439L340.909,197.345L341.818,215.463L342.727,165.523L343.636,154.248L344.545,122.139L345.455,146.105L346.364,209.774L347.273,183.115L348.182,211.89L349.091,196.923L350,164.391L350.909,231.069L351.818,102.991L352.727,153.614L353.636,110.273L354.545,223.728L355.455,188.043L356.364,180.761L357.273,152.264L358.182,228.209L359.091,159.273L360,193.527L360.909,147.037L361.818,203.685L362.727,159.366L363.636,163.153L364.545,219.254L365.455,157.754L366.364,269.065L367.273,220.352L368.182,136.829L369.091,225.256L370,213.824L370.909,152.078L371.818,260.011L372.727,190.814L373.636,248.039L374.545,234.682L375.455,189.377L376.364,133.535L377.273,197.418L378.182,121.612L379.091,198.827L380,315.745L380.909,229.851L381.818,216.351L382.727,203.801L383.636,242.814L384.545,228.545L385.455,168.578L386.364,194.836L387.273,166.84L388.182,169.759L389.091,277.478L390,223.601L390.909,117.634L391.818,128.057L392.727,144.207L393.636,103.468L394.545,253.24L395.455,246.542L396.364,246.612L397.273,160.414L398.182,198.378L399.091,221.908L400,249.347L400.909,184.858L401.818,206.619L402.727,233.465L403.636,254.837L404.545,219.702L405.455,256.711L406.364,205.154L407.273,209.348L408.182,217.646L409.091,315.829L410,146.85L410.909,131.228L411.818,180.013L412.727,181.724L413.636,178.589L414.545,177.052L415.455,257.627L416.364,223.935L417.273,214.952L418.182,162.126L419.091,240.296L420,207.493L420.909,177.546L421.818,194.306L422.727,231.363L423.636,128.043L424.545,217.074L425.455,156.541L426.364,236.545L427.273,75.72L428.182,194.642L429.091,249.128L430,244.961L430.909,204.152L431.818,171.28L432.727,121.931L433.636,261.444L434.545,194.591L435.455,212.636L436.364,204.207L437.273,228.041L438.182,160.568L439.091,163.562L440,212.228L440.909,152.131L441.818,175.9L442.727,301.378L443.636,159.125L444.545,167.811L445.455,112.847L446.364,88.199L447.273,222.353L448.182,184.938L449.091,163.35L450,198.388L450.909,232.967L451.818,236.788L452.727,214.103L453.636,220.713L454.545,193.992L455.455,211.755L456.364,200.048L457.273,214.822L458.182,105.276L459.091,196.523L460,231.058L460.909,44.258L461.818,200.43L462.727,184.198L463.636,107.917L464.545,95.019L465.455,163.08L466.364,141.456L467.273,69.818L468.182,206.82L469.091,185.578L470,240.244L470.909,185.96L471.818,201.179L472.727,164.384L473.636,213.232L474.545,258.724L475.455,169.515L476.364,228.903L477.273,277.497L478.182,253.571L479.091,201.626L480,144.007L480.909,164.565L481.818,206.8L482.727,125.417L483.636,186.448L484.545,159.242L485.455,96.678L486.364,272.891L487.273,110.494L488.182,207.678L489.091,141.329L490,246.626L490.909,184.505L491.818,161.689L492.727,171.008L493.636,197.515L494.545,173.119L495.455,194.35L496.364,196.097L497.273,149.411L498.182,221.336L499.091,254.194L500,254.014L500.909,107.231L501.818,93.424L502.727,132.143L503.636,184.696L504.545,155.858L505.455,323.775L506.364,241.02L507.273,160.996L508.182,259.754L509.091,152.943L510,98.045L510.909,222.065L511.818,83.214L512.727,186.176L513.636,91.746L514.545,205.928L515.455,169.819L516.364,137.109L517.273,150.07L518.182,98.035L519.091,217.585L520,123.239L520.909,274.167L521.818,201.158L522.727,244.644L523.636,75.388L524.545,110.025L525.455,171.915L526.364,127.046L527.273,83.088L528.182,229.85L529.091,165.662L530,231.233L530.909,178.333L531.818,124.796L532.727,158.598L533.636,165.029L534.545,164.763L535.455,127.733L536.364,194.729L537.273,137.097L538.182,256.889L539.091,82.607L540,101.674L540.909,213.587L541.818,178.499L542.727,151.607L543.636,191.733L544.545,254.481L545.455,254.292L546.364,139.062L547.273,175.245L548.182,214.231L549.091,267.424L550,217.377L550.909,191.368L551.818,226.933L552.727,200.396L553.636,111.09L554.545,246.29L555.455,88.117L556.364,124.147L557.273,222.206L558.182,174.985L559.091,171.293L560,234.344L560.909,163.044L561.818,189.227L562.727,193.954L563.636,243.624L564.545,185.868L565.455,170.652L566.364,175.202L567.273,211.479L568.182,173.133L569.091,211.151L570,127.312L570.909,198.397L571.818,218.457L572.727,129.201L573.636,222.325L574.545,253.364L575.455,118.978L576.364,150.466L577.273,75.458L578.182,248.65L579.091,257.656L580,201.349L580.909,291.578L581.818,221.547L582.727,170.506L583.636,303.776L584.545,197.483L585.455,193.833L586.364,167.157L587.273,166.631L588.182,120.707L589.091,128.979L590,111.131L590.909,283.13L591.818,164.119L592.727,88.325L593.636,98.712L594.545,153.676L595.455,200.308L596.364,184.005L597.273,201.715L598.182,140.214L599.091,88.347L600,232.145L600.909,243.131L601.818,273.169L602.727,209.366L603.636,286.15L604.545,72.502L605.455,135.845L606.364,197.93L607.273,165.773L608.182,206.579L609.091,244.678L610,182.024L610.909,202.762L611.818,223.414L612.727,190.718L613.636,135.024L614.545,145.689L615.455,166.896L616.364,208.254L617.273,174.533L618.182,212.428L619.091,179.257L620,221.104L620.909,136.635L621.818,252.658L622.727,192.381L623.636,128.69L624.545,50.323L625.455,224.605L626.364,181.141L627.273,117.656L628.182,244.473L629.091,174.568L630,237.692L630.909,303.964L631.818,101.104L632.727,160.544L633.636,174.605L634.545,126.933L635.455,144.177L636.364,198.971L637.273,120.363L638.182,196.569L639.091,216.115L640,264.268L640.909,194.868L641.818,136.24L642.727,83.77L643.636,125.952L644.545,139.895L645.455,148.402L646.364,100.055L647.273,256.866L648.182,258.279L649.091,179.608L650,217.356L650.909,158.517L651.818,166.535L652.727,149.501L653.636,161.14L654.545,196.618L655.455,119.186L656.364,245.884L657.273,130.749L658.182,244.381L659.091,213.865L660,199.514L660.909,191.1L661.818,179.869L662.727,182.422L663.636,176.863L664.545,119.995L665.455,204.508L666.364,278.848L667.273,183.756L668.182,211.724L669.091,199.615L670,112.188L670.909,142.824L671.818,166.961L672.727,97.727L673.636,218.677L674.545,165.746L675.455,213.228L676.364,148.505L677.273,202.725L678.182,285.673L679.091,158.413L680,166.592L680.909,172.906L681.818,155.682L682.727,168.758L683.636,192.972L684.545,174.118L685.455,168.297L686.364,158.885L687.273,68.672L688.182,173.38L689.091,155.269L690,161.649L690.909,190.831L691.818,187.258L692.727,146.429L693.636,155.273L694.545,104.36L695.455,230.419L696.364,229.421L697.273,75.975L698.182,260.979L699.091,241.447L700,103.799L700.909,185.382L701.818,230.534L702.727,193.308L703.636,273.297L704.545,163.488L705.455,243.313L706.364,194.447L707.273,132.718L708.182,260.646L709.091,306.725L710,184.994L710.909,189.509L711.818,156.082L712.727,188.256L713.636,244.666L714.545,139.966L715.455,222.098L716.364,158.297L717.273,125.544L718.182,173.672L719.091,108.598L720,202.183L720.909,158.179L721.818,125.78L722.727,187.554L723.636,192.988L724.545,184.705L725.455,163.363L726.364,59.978L727.273,83.836L728.182,165.961L729.091,132.624L730,201.631L730.909,210.594L731.818,181.782L732.727,103.825L733.636,160.043L734.545,178.483L735.455,91.009L736.364,170.209L737.273,206.204L738.182,186.506L739.091,179.812L740,142.509L740.909,197.439L741.818,207.464L742.727,170.515L743.636,270.611L744.545,243.555L745.455,170.848L746.364,207.298L747.273,136.552L748.182,191.26L749.091,208.215L750,174.683L750.909,124.855L751.818,104.047L752.727,79.63L753.636,231.268L754.545,150.102L755.455,138.911L756.364,150.076L757.273,47.178L758.182,116.678L759.091,146.427L760,225.711L760.909,197.817L761.818,129.606L762.727,230.163L763.636,93.118L764.545,119.007L765.455,241.854L766.364,162.147L767.273,226.108L768.182,135.83L769.091,245.411L770,95.186L770.909,129.588L771.818,127.895L772.727,141.759L773.636,199.945L774.545,132.763L775.455,177.97L776.364,106.289L777.273,96.216L778.182,131.373L779.091,185.403L780,171.189L780.909,293.241L781.818,254.644L782.727,185.989L783.636,221.461L784.545,117.939L785.455,36.375L786.364,97.687L787.273,193.748L788.182,220.747L789.091,243.202L790,141.604L790.909,230.22L791.818,165.172L792.727,124.661L793.636,126.758L794.545,125.756L795.455,131.176L796.364,211.395L797.273,133.72L798.182,116.442L799.091,143.604L800,143.851L800.909,212.643L801.818,256.032L802.727,73.58L803.636,135.035L804.545,114.166L805.455,135.621L806.364,48.149L807.273,187.369L808.182,156.194L809.091,114.587L810,221.026L810.909,153.021L811.818,83.297L812.727,159.325L813.636,205.11L814.545,191.79L815.455,108.641L816.364,148.883L817.273,85.008L818.182,166.81L819.091,163.964L820,209.153L820.909,156.233L821.818,239.341L822.727,227.853L823.636,195.788L824.545,149.797L825.455,79.624L826.364,119.884L827.273,167.93L828.182,183.985L829.091,306.621L830,97.394L830.909,98.742L831.818,154.016L832.727,227.231L833.636,101.066L834.545,219.585L835.455,175.006L836.364,211.561L837.273,254.964L838.182,161.46L839.091,107L840,197.962L840.909,158.263L841.818,167.196L842.727,127.4L843.636,145.618L844.545,173.225L845.455,121.947L846.364,108.477L847.273,152.585L848.182,83.74L849.091,166.219L850,172.267L850.909,126.393L851.818,169.62L852.727,215.443L853.636,154.653L854.545,117.005L855.455,229.173L856.364,85.163L857.273,134.163L858.182,186.935L859.091,124.26L860,144.107L860.909,166.281L861.818,152.101L862.727,222.027L863.636,157.119L864.545,167.665L865.455,216.293L866.364,219.021L867.273,69.738L868.182,180.325L869.091,220.048L870,193.148L870.909,201.531L871.818,153.309L872.727,238.524L873.636,96.019L874.545,127.669L875.455,112.629L876.364,94.599L877.273,159.671L878.182,122.21L879.091,177.503L880,188.939L880.909,147.343L881.818,163.064L882.727,176.365L883.636,203.404L884.545,221.734L885.455,137.731L886.364,146.928L887.273,162.039L888.182,148.023L889.091,162.804L890,261.792L890.909,191.155L891.818,186.917L892.727,135.033L893.636,113.341L894.545,118.719L895.455,91.595L896.364,100.933L897.273,203.326L898.182,173.625L899.091,141.146L900,112.453L900.909,271.381L901.818,175.447L902.727,213.362L903.636,107.676L904.545,136.397L905.455,88.126L906.364,122.214L907.273,106.005L908.182,127.24L909.091,206.199L910,158.818L910.909,124.696L911.818,242.147L912.727,183.815L913.636,120.881L914.545,222.406L915.455,150.443L916.364,112.043L917.273,102.906L918.182,84.181L919.091,113.889L920,135.84L920.909,126.521L921.818,230.472L922.727,31.166L923.636,144.373L924.545,177.096L925.455,179.234L926.364,132.968L927.273,139.033L928.182,186.976L929.091,248.18L930,93.522L930.909,148.985L931.818,140.155L932.727,58.952L933.636,176.116L934.545,141.182L935.455,182.817L936.364,95.188L937.273,252.876L938.182,167.312L939.091,113.668L940,174.349L940.909,146.836L941.818,284.816L942.727,189.504L943.636,228.685L944.545,104.213L945.455,135.984L946.364,95.207L947.273,104.453L948.182,77.948L949.091,158.821L950,244.325L950.909,215.47L951.818,235.94L952.727,192.754L953.636,270.827L954.545,286.337L955.455,150.51L956.364,69.041L957.273,152.559L958.182,168.939L959.091,157.166L960,132.343L960.909,119.182L961.818,227.647L962.727,94.385L963.636,205.575L964.545,130.103L965.455,176.257L966.364,95.367L967.273,133.433L968.182,193.202L969.091,183.244L970,213.731L970.909,104.474L971.818,207.889L972.727,185.903L973.636,155.425L974.545,217.765L975.455,152.826L976.364,128.138L977.273,166.557L978.182,91.039L979.091,193.657L980,229.735L980.909,188.442L981.818,175.249L982.727,220.411L983.636,167.62L984.545,138.768L985.455,188.317L986.364,188.92L987.273,211.052L988.182,182.028L989.091,279.837L990,192.881L990.909,144.519L991.818,54.464L992.727,201.246L993.636,185.485L994.545,80.701L995.455,213" stroke="#4c78a8" stroke-width="2"/></g></g><path class="foreground" aria-hidden="true" d="" display="none"/></g></g></g></svg>