<svg xmlns="http://www.w3.org/2000/svg" xmlns:xlink="http://www.w3.org/1999/xlink" version="1.1" class="marks" width="1012" height="385" viewBox="0 0 1012 385"><rect width="1012" height="385" fill="white"/><g fill="none" stroke-miterlimit="10" transform="translate(7,5)"><g class="mark-group role-frame root" role="graphics-object" aria-roledescription="group mark container"><g transform="translate(0,0)"><path class="background" aria-hidden="true" d="M0.5,0.5h1000v375h-1000Z" stroke="#ddd"/><g><g class="mark-group role-axis" role="graphics-symbol" aria-roledescription="axis" aria-label="X-axis for a linear scale with values from 0 to 1,100"><g transform="translate(0.5,375.5)"><path class="background" aria-hidden="true" d="M0,0h0v0h0Z" pointer-events="none"/><g><g class="mark-rule role-axis-domain" pointer-events="none"><line transform="translate(0,0)" x2="1000" y2="0" stroke="#888" stroke-width="1" opacity="1"/></g></g><path class="foreground" aria-hidden="true" d="" pointer-events="none" display="none"/></g></g><g class="mark-group role-axis" role="graphics-symbol" aria-roledescription="axis" aria-label="Y-axis for a linear scale with values from 60,000 to 170,000"><g transform="translate(0.5,0.5)"><path class="background" aria-hidden="true" d="M0,0h0v0h0Z" pointer-events="none"/><g><g class="mark-rule role-axis-domain" pointer-events="none"><line transform="translate(0,375)" x2="0" y2="-375" stroke="#888" stroke-width="1" opacity="1"/></g></g><path class="foreground" aria-hidden="true" d="" pointer-events="none" display="none"/></g></g><g class="mark-line role-mark marks" role="graphics-object" aria-roledescription="line mark container"><path aria-label="x: 1; y: 96709.9328226" role="graphics-symbol" aria-roledescription="line mark" d="M0.909,249.853L1.818,223.997L2.727,199.561L3.636,271.496L4.545,256.228L5.455,231.771L6.364,280.389L7.273,197.17L8.182,201.425L9.091,268.061L10,230.192L10.909,249.194L11.818,260.418L12.727,238.587L13.636,226.92L14.545,283.386L15.455,255.014L16.364,320.087L17.273,319.989L18.182,230.603L19.091,305.671L20,202.683L20.909,181.438L21.818,246.183L22.727,299.144L23.636,177.014L24.545,264.398L25.455,229.948L26.364,186.619L27.273,220.553L28.182,193.219L29.091,232.926L30,256.042L30.909,238.204L31.818,210.624L32.727,256.078L33.636,232.547L34.545,216.831L35.455,250.537L36.364,207.785L37.273,250.6L38.182,292.623L39.091,246.726L40,226.454L40.909,231.671L41.818,228.095L42.727,301.029L43.636,213.256L44.545,225.511L45.455,239.267L46.364,234.524L47.273,300.597L48.182,147.395L49.091,256.532L50,233.209L50.909,218.15L51.818,261.125L52.727,245.332L53.636,301.502L54.545,263.246L55.455,232.643L56.364,289.357L57.273,241.917L58.182,225.402L59.091,237.883L60,274.062L60.909,303.687L61.818,224.558L62.727,251.871L63.636,255.801L64.545,308.647L65.455,230.564L66.364,309.956L67.273,334.925L68.182,337.571L69.091,222.715L70,238.348L70.909,248.752L71.818,249.503L72.727,306.377L73.636,304.011L74.545,186.404L75.455,266.537L76.364,279.165L77.273,263.775L78.182,228.228L79.091,272.366L80,272.588L80.909,226.803L81.818,303.842L82.727,300.369L83.636,204.648L84.545,316.626L85.455,205.157L86.364,237.803L87.273,230.455L88.182,242.15L89.091,244.941L90,270.921L90.909,209.935L91.818,283.008L92.727,229.028L93.636,274.568L94.545,277.422L95.455,246.374L96.364,253.25L97.273,308.489L98.182,233.336L99.091,246.726L100,210.737L100.909,279.304L101.818,217.763L102.727,345.235L103.636,269.342L104.545,261.13L105.455,306.593L106.364,304.616L107.273,271.085L108.182,208.175L109.091,219.36L110,232.294L110.909,224.466L111.818,240.145L112.727,207.255L113.636,285.143L114.545,250.364L115.455,197.359L116.364,270.059L117.273,271.869L118.182,290.198L119.091,278.745L120,169.433L120.909,222.058L121.818,239.476L122.727,230.58L123.636,233.222L124.545,209.287L125.455,190.538L126.364,247.762L127.273,226.351L128.182,234.627L129.091,215.093L130,189.362L130.909,213.105L131.818,318.33L132.727,223.076L133.636,224.418L134.545,199.453L135.455,146.256L136.364,161.942L137.273,272.728L138.182,209.066L139.091,191.201L140,229.104L140.909,178.688L141.818,251.24L142.727,249.442L143.636,276.778L144.545,262.267L145.455,318.239L146.364,286.71L147.273,248.738L148.182,263.733L149.091,237.491L150,326.784L150.909,131.081L151.818,228.519L152.727,286.029L153.636,238.434L154.545,219.067L155.455,265.42L156.364,277.533L157.273,163.668L158.182,208.67L159.091,269.685L160,275.33L160.909,276L161.818,202.892L162.727,258.766L163.636,210.67L164.545,327.014L165.455,145.03L166.364,319.209L167.273,265.684L168.182,233.891L169.091,295.565L170,277.989L170.909,253.414L171.818,250.133L172.727,294.712L173.636,288.5L174.545,292.322L175.455,170.519L176.364,177.094L177.273,234.621L178.182,263.465L179.091,247.24L180,228.312L180.909,211.569L181.818,213.726L182.727,143.158L183.636,251.326L184.545,263.227L185.455,234.199L186.364,279.09L187.273,176.289L188.182,225.593L189.091,225.495L190,299.307L190.909,223.178L191.818,271.116L192.727,321.241L193.636,297.571L194.545,249.623L195.455,232.776L196.364,256.512L197.273,315.465L198.182,295.311L199.091,303.645L200,345.45L200.909,294.846L201.818,271.454L202.727,245.658L203.636,283.213L204.545,230.143L205.455,305.438L206.364,301.313L207.273,278.953L208.182,238.878L209.091,302.124L210,159.3L210.909,275.557L211.818,245.533L212.727,246.283L213.636,230.642L214.545,176.488L215.455,218.578L216.364,219.667L217.273,232.42L218.182,207.515L219.091,184.127L220,227.54L220.909,215.809L221.818,161.788L222.727,297.966L223.636,276.831L224.545,210.846L225.455,226.547L226.364,298.27L227.273,182.403L228.182,273.393L229.091,248.075L230,304.207L230.909,200.494L231.818,286.406L232.727,336.219L233.636,283.018L234.545,272.045L235.455,220.889L236.364,218.105L237.273,261.552L238.182,248.938L239.091,306.352L240,214.454L240.909,257.808L241.818,256.086L242.727,240.777L243.636,293.937L244.545,257.157L245.455,266.567L246.364,241.687L247.273,256.821L248.182,286.593L249.091,220.532L250,297.967L250.909,208.852L251.818,225.836L252.727,268.493L253.636,218.024L254.545,262.59L255.455,202.264L256.364,280.134L257.273,309.011L258.182,205.225L259.091,218.937L260,223.685L260.909,153.126L261.818,235.926L262.727,247.892L263.636,251.031L264.545,206.923L265.455,183.741L266.364,188.006L267.273,234.991L268.182,283.014L269.091,278.239L270,258.354L270.909,259.126L271.818,213.288L272.727,269.862L273.636,226.004L274.545,295.659L275.455,252.509L276.364,229.428L277.273,264.175L278.182,230.148L279.091,219.795L280,309.37L280.909,287.259L281.818,229.613L282.727,280.643L283.636,229.542L284.545,299.123L285.455,175.711L286.364,248.343L287.273,289.341L288.182,243.839L289.091,277.743L290,372.827L290.909,277.551L291.818,309.763L292.727,232.894L293.636,306.492L294.545,253.934L295.455,257.341L296.364,240.582L297.273,227.628L298.182,347.497L299.091,262.904L300,243.309L300.909,245.371L301.818,155.997L302.727,204.112L303.636,183.101L304.545,254.473L305.455,226.089L306.364,281.589L307.273,260.66L308.182,215.157L309.091,263.968L310,238.606L310.909,247.834L311.818,265.047L312.727,237.337L313.636,140.2L314.545,286.028L315.455,247.216L316.364,242.28L317.273,132.127L318.182,293.372L319.091,296.449L320,188.542L320.909,198.495L321.818,233.029L322.727,239.124L323.636,244.215L324.545,211.784L325.455,156.85L326.364,232.756L327.273,249.946L328.182,237.71L329.091,266.673L330,300.885L330.909,214.92L331.818,231.308L332.727,209.678L333.636,219.107L334.545,242.392L335.455,230.415L336.364,225.596L337.273,195.095L338.182,151.64L339.091,154.414L340,273.99L340.909,229.012L341.818,190.462L342.727,206.901L343.636,200.985L344.545,218.086L345.455,212.543L346.364,256.507L347.273,217.518L348.182,249.296L349.091,229.887L350,237.272L350.909,204.433L351.818,210.661L352.727,188.849L353.636,267.273L354.545,271.234L355.455,252.667L356.364,296.931L357.273,264.454L358.182,215.927L359.091,273.349L360,275.306L360.909,236.779L361.818,249.396L362.727,187.501L363.636,243.93L364.545,277.965L365.455,258.689L366.364,223.899L367.273,278.144L368.182,238.596L369.091,212.985L370,293.659L370.909,325.982L371.818,304.045L372.727,206.566L373.636,211.734L374.545,249.656L375.455,295.216L376.364,232.818L377.273,246.701L378.182,184.228L379.091,269.725L380,271.469L380.909,262.185L381.818,297.006L382.727,229.062L383.636,252.326L384.545,276.328L385.455,242.18L386.364,204.59L387.273,181.574L388.182,220.006L389.091,234.394L390,215.497L390.909,188.181L391.818,268.88L392.727,201.365L393.636,202.156L394.545,267.723L395.455,212.104L396.364,229.901L397.273,230.901L398.182,206.451L399.091,248.493L400,242.459L400.909,210.403L401.818,239.842L402.727,217.868L403.636,229.698L404.545,312.067L405.455,276.193L406.364,258.622L407.273,211.887L408.182,263.897L409.091,262.542L410,181.654L410.909,203.819L411.818,258.903L412.727,223.349L413.636,185.636L414.545,155.108L415.455,234.071L416.364,276.441L417.273,227.091L418.182,256.753L419.091,244.2L420,313.756L420.909,195.876L421.818,205.378L422.727,225.863L423.636,218.047L424.545,277.867L425.455,244.112L426.364,304.772L427.273,189L428.182,172.35L429.091,251.998L430,168.884L430.909,229.587L431.818,240.283L432.727,238.241L433.636,238.088L434.545,279.003L435.455,280.204L436.364,348.085L437.273,262.461L438.182,178.257L439.091,226.603L440,246.855L440.909,168.908L441.818,197.378L442.727,194.685L443.636,172.719L444.545,257.429L445.455,215.657L446.364,209.209L447.273,193.728L448.182,227.455L449.091,231.917L450,295.602L450.909,188.768L451.818,228.383L452.727,234.269L453.636,194.806L454.545,156.499L455.455,194.592L456.364,224.286L457.273,213.51L458.182,156.28L459.091,258.086L460,326.841L460.909,200.823L461.818,160.796L462.727,241.929L463.636,213.212L464.545,191.04L465.455,225.638L466.364,178.433L467.273,207.66L468.182,252.034L469.091,202.437L470,193.552L470.909,246.673L471.818,271.584L472.727,248.193L473.636,216.158L474.545,268.041L475.455,153.3L476.364,208.719L477.273,290.022L478.182,240.422L479.091,257.656L480,193.194L480.909,220.111L481.818,316.175L482.727,213.892L483.636,213.452L484.545,171.46L485.455,146.64L486.364,223.724L487.273,176.207L488.182,257.873L489.091,234.252L490,199.856L490.909,268.877L491.818,246.659L492.727,240.749L493.636,244.07L494.545,236.72L495.455,228.178L496.364,258.006L497.273,240.964L498.182,275.276L499.091,229.456L500,217.159L500.909,222.925L501.818,213.616L502.727,239.097L503.636,271.197L504.545,224.993L505.455,326.024L506.364,300.16L507.273,241.574L508.182,313.855L509.091,192.486L510,282.826L510.909,205.676L511.818,219.726L512.727,183.015L513.636,212.118L514.545,268.237L515.455,221.141L516.364,169.004L517.273,345.56L518.182,242.695L519.091,229.446L520,236.666L520.909,284.553L521.818,242.959L522.727,289.06L523.636,262.196L524.545,192.639L525.455,203.902L526.364,292.622L527.273,263.055L528.182,187.63L529.091,274.681L530,243.373L530.909,234.593L531.818,237.492L532.727,213.157L533.636,247.366L534.545,205.963L535.455,274.409L536.364,248.884L537.273,193.796L538.182,240.428L539.091,208.704L540,256.122L540.909,253.684L541.818,220.096L542.727,231.175L543.636,222.391L544.545,231.886L545.455,277.715L546.364,268.16L547.273,258.052L548.182,239.979L549.091,231.859L550,269.571L550.909,186.156L551.818,196.692L552.727,219.698L553.636,254.492L554.545,244.089L555.455,239.989L556.364,170.079L557.273,236.558L558.182,246.75L559.091,228.235L560,215.72L560.909,192.626L561.818,187.026L562.727,168.293L563.636,277.868L564.545,256.937L565.455,292.768L566.364,185.634L567.273,282.008L568.182,159.562L569.091,286.632L570,217.841L570.909,262.293L571.818,192.181L572.727,243.952L573.636,256.693L574.545,145.762L575.455,246.763L576.364,243.834L577.273,223.553L578.182,233.727L579.091,281.036L580,221.208L580.909,205.823L581.818,184.094L582.727,223.041L583.636,268.969L584.545,150.369L585.455,222.745L586.364,256.319L587.273,256.53L588.182,247.057L589.091,225.589L590,192.05L590.909,219.718L591.818,227.063L592.727,226.731L593.636,221.949L594.545,236.712L595.455,225.249L596.364,132.938L597.273,153.089L598.182,237.007L599.091,194.323L600,223.671L600.909,241.659L601.818,260.572L602.727,210.875L603.636,290.334L604.545,169.418L605.455,265.48L606.364,178.144L607.273,183.116L608.182,215.684L609.091,250.539L610,212.288L610.909,207.008L611.818,268.104L612.727,218.109L613.636,171.745L614.545,208.793L615.455,189.92L616.364,250.652L617.273,215.476L618.182,219.455L619.091,211.507L620,95.214L620.909,229.041L621.818,194.441L622.727,133.639L623.636,164.543L624.545,198.967L625.455,226.881L626.364,229.224L627.273,165.202L628.182,152.943L629.091,172.505L630,153.096L630.909,187.303L631.818,209.405L632.727,147.482L633.636,182.434L634.545,232.709L635.455,220.49L636.364,162.262L637.273,242.556L638.182,221.635L639.091,182.438L640,179.571L640.909,184.5L641.818,263.791L642.727,184.013L643.636,95.525L644.545,122.242L645.455,146.778L646.364,269.305L647.273,167.684L648.182,187.525L649.091,160.657L650,342.224L650.909,225.308L651.818,313.877L652.727,246.454L653.636,247.384L654.545,259.942L655.455,184.931L656.364,279.89L657.273,149.882L658.182,202.105L659.091,299.07L660,325.685L660.909,220.331L661.818,217.448L662.727,259.732L663.636,267.555L664.545,220.271L665.455,298.588L666.364,296.274L667.273,261.153L668.182,193.011L669.091,328.116L670,226.463L670.909,205.818L671.818,326.314L672.727,180.118L673.636,259.321L674.545,284.061L675.455,228.865L676.364,224.291L677.273,220.024L678.182,205.501L679.091,243.227L680,213.529L680.909,293.573L681.818,260.036L682.727,204.829L683.636,249.512L684.545,198.474L685.455,215.035L686.364,200.726L687.273,257.324L688.182,284.784L689.091,218.702L690,170.338L690.909,209.148L691.818,193.005L692.727,172.196L693.636,273.603L694.545,205.176L695.455,217.853L696.364,154.524L697.273,232.198L698.182,211.916L699.091,285.775L700,264.966L700.909,227.585L701.818,242.765L702.727,247.948L703.636,312.757L704.545,219.714L705.455,318.957L706.364,258.714L707.273,289.526L708.182,269.767L709.091,221.645L710,263.727L710.909,279.485L711.818,233.609L712.727,88.35L713.636,158.836L714.545,158.197L715.455,145.982L716.364,185.141L717.273,153.327L718.182,138.535L719.091,223.498L720,261.065L720.909,178.975L721.818,166.331L722.727,95.671L723.636,207.865L724.545,210.31L725.455,120.273L726.364,116.408L727.273,175.149L728.182,130.425L729.091,192.167L730,182.08L730.909,79.314L731.818,71.36L732.727,199.177L733.636,149.963L734.545,172.946L735.455,220.92L736.364,125.38L737.273,181.656L738.182,170.522L739.091,132.411L740,91.837L740.909,134.478L741.818,185.872L742.727,136.965L743.636,259.812L744.545,137.77L745.455,164.005L746.364,114.821L747.273,175.403L748.182,197.604L749.091,134.351L750,152.297L750.909,176.192L751.818,121.326L752.727,114.007L753.636,190.013L754.545,201.206L755.455,165.086L756.364,152.49L757.273,105.911L758.182,160.275L759.091,148.812L760,55.854L760.909,113.299L761.818,169.501L762.727,126.733L763.636,136.31L764.545,200.153L765.455,159.292L766.364,147.177L767.273,108.56L768.182,90.496L769.091,154.035L770,69.653L770.909,129.097L771.818,203.955L772.727,132.041L773.636,91.072L774.545,108.226L775.455,44.063L776.364,72.986L777.273,146.263L778.182,122.866L779.091,151.375L780,72.176L780.909,121.074L781.818,51.391L782.727,134.063L783.636,125.537L784.545,71.056L785.455,117.609L786.364,85.82L787.273,124.488L788.182,162.469L789.091,81.069L790,109.794L790.909,107.069L791.818,92.483L792.727,131.522L793.636,66.466L794.545,159.976L795.455,76.979L796.364,119.58L797.273,109.734L798.182,107.229L799.091,113.388L800,123.646L800.909,143.523L801.818,191.387L802.727,128.513L803.636,154.792L804.545,68.079L805.455,127.425L806.364,45.083L807.273,174.429L808.182,199.169L809.091,176.697L810,200.545L810.909,123.908L811.818,130.002L812.727,130.753L813.636,210.486L814.545,118.004L815.455,64.028L816.364,159.872L817.273,102.797L818.182,136.811L819.091,107.641L820,149.713L820.909,121.64L821.818,153.298L822.727,112.281L823.636,61.53L824.545,33.531L825.455,50.513L826.364,139.446L827.273,94.746L828.182,53.731L829.091,123.37L830,172.163L830.909,59.55L831.818,102.277L832.727,132.275L833.636,137.427L834.545,145.347L835.455,160.666L836.364,103.249L837.273,158.537L838.182,76.997L839.091,42.282L840,95.459L840.909,87.142L841.818,59.415L842.727,105.193L843.636,162.651L844.545,67.858L845.455,157.062L846.364,151.392L847.273,124.513L848.182,110.19L849.091,180.699L850,29.532L850.909,125.764L851.818,135.618L852.727,181.496L853.636,160.505L854.545,113.307L855.455,158.146L856.364,124.055L857.273,167.897L858.182,125.805L859.091,104.524L860,88.415L860.909,125.675L861.818,137.813L862.727,47.04L863.636,130.719L864.545,136.143L865.455,153.327L866.364,170.636L867.273,130.429L868.182,110.357L869.091,139.559L870,135.396L870.909,128.911L871.818,93.278L872.727,185.689L873.636,179.185L874.545,48.715L875.455,123.482L876.364,136.646L877.273,56.768L878.182,110.677L879.091,92.541L880,125.147L880.909,64.749L881.818,137.776L882.727,46.461L883.636,94.383L884.545,125.536L885.455,63.564L886.364,170.783L887.273,180.441L888.182,122.782L889.091,108.776L890,131.819L890.909,125.885L891.818,159.224L892.727,73.372L893.636,83.895L894.545,103.179L895.455,119.607L896.364,122.236L897.273,129.685L898.182,73.371L899.091,69.401L900,115.539L900.909,174.526L901.818,113.02L902.727,138.927L903.636,153.756L904.545,83.631L905.455,115.716L906.364,147.773L907.273,164.984L908.182,144.035L909.091,97.753L910,56.27L910.909,60.886L911.818,87.633L912.727,81.306L913.636,93.57L914.545,103.049L915.455,65.571L916.364,129.618L917.273,121.082L918.182,134.6L919.091,122.151L920,116.998L920.909,66.808L921.818,123.047L922.727,33.295L923.636,34.533L924.545,104.469L925.455,112.173L926.364,84.487L927.273,99.931L928.182,77.335L929.091,64.89L930,108.759L930.909,92.173L931.818,93.469L932.727,61.575L933.636,66.083L934.545,131.74L935.455,31.269L936.364,86.618L937.273,128.25L938.182,97.135L939.091,98.158L940,65.747L940.909,86.473L941.818,112.61L942.727,88.547L943.636,115.702L944.545,114.982L945.455,107.197L946.364,131.922L947.273,102.656L948.182,95.944L949.091,167.998L950,101.615L950.909,122.811L951.818,140.96L952.727,181.781L953.636,157.196L954.545,173.419L955.455,162.091L956.364,191.647L957.273,31.888L958.182,73.247L959.091,199.142L960,121.656L960.909,102.435L961.818,143.949L962.727,66.93L963.636,99.905L964.545,169.4L965.455,79.276L966.364,118.464L967.273,66.648L968.182,70.299L969.091,135.956L970,84.327L970.909,127.605L971.818,157.001L972.727,99.565L973.636,170.821L974.545,75.077L975.455,85.199L976.364,56.907L977.273,131.395L978.182,65.578L979.091,122.729L980,173.263L980.909,198.069L981.818,201.194L982.727,157.9L983.636,72.278L984.545,115.128L985.455,120.429L986.364,81.301L987.273,143.56L988.182,120.404L989.091,161.231L990,215.906L990.909,162.648L991.818,261.352L992.727,107.947L993.636,193.877L994.545,150.914L995.455,226.108" stroke="#4c78a8" stroke-width="2"/></g></g><path class="foreground" aria-hidden="true" d="" display="none"/></g></g></g></svg>