<svg xmlns="http://www.w3.org/2000/svg" version="1.1" xmlns:xlink="http://www.w3.org/1999/xlink" xmlns:svgjs="http://svgjs.dev/svgjs" width="950" height="375" id="chartSvg"><path d="M25,246 L24,245 L25,246 L26,247 L26,249 L27,250 L27,251 L27,252 L28,249 L29,242 L31,233 L32,225 L34,222 L35,222 L37,223 L40,224 L43,226 L46,227 L47,227 L48,227 L48,226 L49,224 L50,222 L51,216 L51,207 L51,198 L51,189 L51,184 L52,182 L53,182 L55,182 L57,183 L58,185 L60,185 L61,183 L62,179 L63,172 L64,164 L65,154 L66,140 L67,127 L69,117 L71,109 L73,99 L75,89 L78,78 L79,72 L80,68 L81,68 L82,72 L84,78 L85,86 L85,96 L85,110 L87,124 L88,138 L89,149 L90,158 L90,165 L90,168 L90,169 L90,168 L90,162 L90,156 L90,151 L90,150 L90,149 L91,151 L93,154 L94,157 L95,162 L96,166 L97,170 L99,173 L101,175 L103,176 L105,175 L106,172 L108,167 L109,159 L110,151 L111,146 L113,142 L116,141 L118,141 L120,142 L121,146 L122,153 L123,161 L124,170 L124,178 L125,182 L125,183 L126,183 L127,180 L128,174 L129,168 L131,164 L134,164 L136,166 L139,172 L142,181 L145,193 L146,206 L148,221 L150,237 L151,252 L153,262 L155,268 L157,272 L158,272 L159,269 L160,260 L162,251 L163,244 L166,242 L169,245 L173,251 L177,258 L179,264 L180,271 L181,277 L182,282 L183,286 L183,290 L184,291 L184,288 L184,278 L183,267 L181,251 L180,232 L182,220 L183,217 L184,217 L186,220 L188,224 L189,227 L190,229 L190,226 L190,220 L191,212 L193,202 L194,192 L195,183 L197,180 L198,181 L200,185 L202,190 L203,193 L204,195 L205,195 L205,193 L207,188 L209,180 L211,171 L212,161 L214,154 L215,150 L217,148 L218,148 L220,150 L222,154 L223,159 L224,164 L226,168 L227,171 L228,171 L229,171 L231,169 L233,164 L235,156 L237,146 L238,133 L240,122 L243,112 L246,102 L248,93 L250,81 L251,71 L253,63 L254,56 L256,53 L257,50 L259,47 L260,47 L261,51 L262,58 L263,66 L264,74 L264,86 L264,100 L264,111 L265,117 L266,122 L266,124 L267,122 L268,117 L269,111 L271,103 L271,95 L273,90 L273,89 L273,91 L275,95 L277,101 L278,111 L278,122 L278,132 L278,141 L278,147 L279,151 L281,154 L282,153 L283,150 L283,146 L284,143 L285,142 L286,143 L288,149 L290,160 L290,171 L291,181 L291,191 L291,200 L291,206 L291,211 L291,215 L291,216 L291,213 L291,207 L291,201 L291,195 L291,191 L292,191 L293,194 L295,200 L296,207 L296,215 L297,224 L297,232 L297,239 L298,246 L298,252 L300,256 L300,259 L301,259 L301,258 L302,254 L303,250 L304,249 L306,249 L308,256 L311,266 L313,273 L315,279 L315,284 L316,291 L317,296 L317,298 L318,295 L318,288 L319,277 L321,266 L324,256 L325,253 L326,253 L327,254 L329,257 L330,261 L330,264 L330,265 L330,266 L330,265 L331,261 L332,254 L334,244 L337,231 L339,221 L341,217 L343,215 L344,214 L346,213 L347,215 L349,217 L349,220 L349,218 L350,213 L350,205 L350,195 L350,185 L351,178 L353,173 L354,172 L355,172 L357,174 L359,178 L360,183 L361,187 L361,190 L361,189 L362,186 L362,180 L363,174 L364,171 L365,169 L366,169 L367,171 L369,172 L369,174 L370,175 L371,175 L371,174 L372,171 L373,166 L374,156 L374,146 L375,136 L376,130 L379,125 L380,120 L382,114 L383,107 L384,101 L385,97 L385,98 L386,103 L388,112 L388,122 L388,134 L388,144 L388,152 L388,158 L389,161 L389,163 L389,162 L390,158 L390,152 L391,149 L392,154 L393,163 L394,172 L394,180 L394,185 L393,188 L393,187 L394,184 L396,178 L397,175 L397,173 L398,174 L400,180 L402,188 L403,198 L405,206 L407,212 L408,217 L408,218 L408,217 L408,215 L408,209 L409,200 L410,193 L412,190 L414,191 L416,195 L419,201 L420,208 L421,215 L422,220 L423,224 L424,226 L425,228 L426,229 L427,229 L428,225 L430,217 L431,206 L433,193 L436,182 L437,178 L439,177 L440,177 L442,177 L443,177 L443,175 L443,170 L443,164 L443,158 L444,150 L445,145 L445,144 L447,146 L449,153 L452,161 L455,169 L457,178 L459,187 L461,195 L463,203 L464,208 L466,210 L466,211 L466,210 L466,208 L466,206 L466,205 L466,204 L467,206 L467,212 L467,218 L468,223 L469,227 L469,228 L469,227 L470,222 L471,215 L472,206 L473,202 L473,203 L475,207 L477,214 L479,220 L479,225 L479,228 L479,229 L480,227 L482,222 L483,214 L484,201 L486,186 L488,173 L491,165 L492,161 L493,159 L494,158 L495,159 L496,165 L496,171 L496,178 L496,185 L496,192 L496,198 L496,201 L498,203 L499,206 L500,210 L501,213 L502,216 L503,219 L503,222 L503,224 L503,227 L504,230 L504,235 L505,238 L505,239 L506,239 L507,235 L509,229 L512,220 L515,212 L518,208 L519,210 L520,215 L522,220 L523,223 L523,224 L523,223 L524,220 L525,214 L525,205 L526,193 L528,182 L530,176 L531,171 L532,170 L533,171 L533,172 L533,171 L533,168 L534,163 L535,156 L537,145 L540,136 L542,131 L545,127 L549,124 L551,122 L553,124 L555,130 L556,139 L557,150 L557,161 L556,172 L555,182 L555,189 L555,194 L555,196 L555,195 L556,190 L557,183 L559,179 L560,178 L561,182 L562,192 L563,203 L564,212 L566,219 L566,225 L567,228 L567,229 L568,229 L569,228 L572,224 L574,222 L576,225 L578,233 L580,243 L582,252 L584,258 L585,262 L585,264 L585,263 L585,261 L586,255 L586,247 L587,234 L588,222 L589,216 L589,215 L589,217 L589,220 L589,224 L589,229 L588,234 L588,237 L588,239 L588,238 L589,236 L591,231 L593,224 L596,216 L596,213 L597,214 L600,217 L602,222 L604,227 L606,231 L608,234 L609,239 L611,243 L611,245 L613,245 L613,244 L614,239 L616,231 L617,222 L620,213 L623,207 L628,205 L630,206 L633,210 L635,215 L636,223 L637,231 L638,238 L639,244 L640,251 L640,259 L641,264 L643,268 L643,269 L644,268 L645,265 L646,259 L648,249 L651,240 L653,234 L655,233 L656,234 L658,237 L660,242 L660,249 L660,256 L661,263 L662,268 L663,272 L664,275 L664,276 L665,277 L665,273 L667,266 L670,256 L672,247 L674,241 L675,235 L677,230 L679,225 L679,222 L679,219 L680,213 L682,206 L684,198 L686,191 L689,188 L691,190 L694,194 L698,200 L702,205 L705,208 L707,209 L709,208 L710,205 L712,199 L714,192 L716,183 L718,172 L721,164 L722,160 L723,158 L724,159 L725,163 L726,166 L726,168 L726,169 L726,168 L727,163 L728,158 L731,151 L733,140 L735,127 L738,116 L741,107 L743,100 L745,92 L747,83 L750,73 L752,66 L753,58 L754,51 L754,43 L754,35 L755,26 L755,21 L755,18 L755,19 L755,24 L755,32 L755,43 L755,56 L755,69 L758,80 L760,88 L762,96 L763,100 L764,101 L765,101 L766,96 L769,88 L771,77 L773,66 L777,57 L780,53 L781,52 L782,52 L783,53 L783,58 L783,65 L782,74 L781,84 L780,95 L778,107 L777,119 L776,131 L775,142 L775,151 L775,156 L776,157 L777,157 L778,152 L781,144 L784,133 L787,122 L792,116 L794,115 L796,114 L798,111 L800,105 L802,98 L803,91 L804,84 L805,78 L807,71 L809,68 L809,67 L810,67 L812,70 L814,74 L814,81 L814,90 L813,101 L813,111 L813,119 L813,128 L813,137 L813,146 L813,156 L814,165 L814,172 L815,178 L816,182 L817,184 L818,185 L819,185 L820,183 L822,176 L824,168 L826,161 L829,154 L832,148 L834,142 L836,136 L837,131 L837,129 L837,128 L837,130 L837,136 L836,143 L836,150 L835,156 L835,161 L835,163 L835,161 L837,159 L840,155 L843,152 L845,151 L847,154 L849,159 L850,168 L850,177 L850,185 L850,193 L850,200 L850,205 L851,208 L851,209 L852,209 L853,209 L855,208 L857,210 L858,215 L858,223 L859,230 L860,237 L861,241 L862,246 L862,249 L862,251 L863,250 L865,244 L867,236 L869,223 L872,207 L875,195 L877,189 L880,188 L881,188 L882,189 L883,193 L884,196 L885,200 L885,202 L886,205 L887,205 L888,203 L890,198 L893,192 L895,182 L899,171 L903,166 L906,163 L908,163 L910,165 L913,169 L915,174 L917,180 L918,188 L919,196 L920,201 L920,203" fill="none" stroke="red" stroke-width="3"/></svg>