<svg xmlns="http://www.w3.org/2000/svg" version="1.1" xmlns:xlink="http://www.w3.org/1999/xlink" xmlns:svgjs="http://svgjs.dev/svgjs" width="950" height="375" id="chartSvg"><path d="M13,234 L12,234 L12,235 L11,235 L11,236 L10,236 L9,236 L9,237 L8,237 L7,237 L7,236 L7,234 L7,232 L9,227 L10,223 L10,220 L11,217 L12,213 L14,210 L15,205 L16,200 L17,197 L17,194 L17,192 L17,189 L18,185 L19,181 L19,178 L20,175 L20,173 L20,172 L21,170 L21,168 L21,167 L21,166 L21,165 L21,164 L21,163 L21,162 L21,161 L21,160 L21,158 L22,156 L22,157 L22,158 L22,159 L22,161 L22,163 L22,166 L21,168 L21,170 L21,172 L21,174 L21,176 L21,178 L21,180 L21,183 L21,185 L22,188 L22,191 L22,193 L23,196 L23,198 L23,200 L23,202 L24,205 L24,208 L24,211 L24,214 L24,216 L24,218 L24,221 L23,224 L23,228 L23,232 L22,234 L22,237 L22,240 L22,244 L21,246 L21,249 L21,252 L21,254 L22,257 L22,260 L22,264 L22,266 L23,270 L23,273 L23,276 L23,279 L23,282 L23,283 L23,281 L24,278 L25,273 L27,268 L29,263 L30,260 L31,259 L31,260 L31,261 L32,265 L32,269 L32,273 L32,275 L32,274 L33,272 L33,270 L34,267 L34,266 L35,266 L36,266 L36,268 L36,271 L37,273 L37,272 L38,270 L38,269 L39,271 L39,273 L39,274 L40,275 L40,276 L40,275 L40,272 L40,270 L40,268 L41,271 L42,274 L42,278 L43,279 L43,278 L43,276 L44,273 L44,270 L44,268 L45,268 L46,270 L46,273 L47,278 L47,282 L47,286 L47,288 L48,289 L48,288 L49,286 L50,282 L51,277 L51,272 L52,268 L52,265 L53,264 L54,264 L54,262 L54,261 L55,258 L56,254 L56,249 L57,246 L57,242 L58,240 L58,236 L59,231 L60,228 L60,227 L60,228 L60,229 L60,231 L59,234 L59,240 L58,248 L58,256 L58,262 L58,266 L58,269 L58,271 L58,274 L58,276 L58,277 L58,279 L58,281 L58,283 L58,286 L58,289 L58,291 L58,293 L58,296 L58,298 L58,300 L58,302 L58,303 L58,304 L57,305 L57,303 L58,300 L58,298 L59,295 L61,291 L63,286 L64,284 L65,286 L65,289 L66,292 L66,295 L67,295 L67,294 L68,292 L69,290 L69,289 L70,289 L70,290 L70,293 L70,295 L71,296 L71,294 L72,292 L72,291 L73,290 L73,291 L74,293 L75,295 L75,296 L75,294 L75,291 L75,285 L75,280 L76,275 L76,269 L77,265 L78,261 L78,256 L78,252 L78,247 L79,243 L79,240 L79,236 L79,231 L80,227 L80,224 L80,220 L80,217 L80,213 L80,210 L80,207 L81,204 L81,202 L81,200 L81,199 L82,197 L82,195 L83,193 L83,192 L83,191 L83,190 L83,189 L83,190 L83,191 L83,193 L83,195 L83,197 L84,200 L84,203 L85,207 L85,210 L85,212 L85,215 L85,217 L85,219 L85,222 L85,225 L86,228 L86,230 L87,232 L88,234 L88,236 L88,239 L89,242 L89,244 L89,246 L89,249 L90,250 L90,251 L90,252 L90,254 L90,256 L91,258 L91,260 L91,262 L91,265 L91,268 L92,272 L92,275 L92,277 L92,279 L92,281 L92,283 L92,286 L92,289 L92,291 L92,293 L92,294 L92,293 L92,292 L92,288 L94,283 L95,277 L96,269 L97,264 L98,261 L99,259 L99,260 L99,262 L100,266 L101,270 L102,273 L103,271 L103,267 L104,263 L104,261 L104,262 L104,265 L104,268 L104,271 L105,271 L105,267 L105,262 L105,257 L105,254 L105,252 L105,253 L105,256 L105,262 L105,268 L105,273 L106,277 L106,278 L106,277 L106,274 L107,270 L108,265 L109,260 L110,256 L110,257 L110,261 L110,264 L110,268 L110,271 L110,270 L110,268 L110,267 L110,269 L110,274 L111,281 L111,286 L111,291 L111,295 L111,297 L112,298 L112,299 L112,300 L112,302 L112,304 L112,306 L112,308 L112,310 L112,312 L112,314 L112,316 L112,318 L112,319 L112,320 L112,321 L112,319 L112,317 L112,315 L112,313 L112,310 L112,308 L112,307 L112,306 L112,305 L112,303 L111,301 L111,299 L110,298 L110,296 L110,294 L111,291 L111,289 L111,287 L112,286 L112,284 L112,283 L112,280 L113,278 L114,275 L114,272 L114,270 L114,266 L114,263 L114,259 L114,256 L115,254 L115,251 L116,248 L117,244 L117,240 L118,236 L118,234 L118,231 L118,228 L118,225 L118,222 L118,219 L118,216 L119,213 L119,210 L119,206 L120,202 L121,200 L121,199 L121,198 L122,196 L122,194 L122,192 L122,191 L122,190 L122,191 L123,193 L123,195 L124,198 L124,203 L124,208 L124,214 L124,220 L124,227 L123,232 L123,238 L123,243 L124,247 L124,252 L124,258 L124,264 L123,269 L123,275 L123,278 L122,282 L122,285 L122,287 L122,290 L122,293 L122,296 L123,298 L123,300 L123,301 L123,303 L123,306 L122,310 L122,313 L122,316 L122,319 L122,322 L122,325 L122,326 L122,328 L122,330 L121,330 L121,328 L121,325 L121,320 L121,315 L121,310 L121,305 L121,300 L122,294 L123,289 L124,286 L124,282 L124,278 L125,275 L125,271 L126,268 L127,268 L128,267 L129,266 L129,264 L129,263 L129,264 L130,263 L131,262 L132,261 L132,260 L133,260 L134,260 L134,261 L134,263 L134,264 L135,262 L135,261 L135,260 L135,259 L134,261 L133,264 L133,266 L132,267 L133,267 L134,264 L136,261 L137,258 L138,256 L137,257 L136,260 L136,262 L136,264 L136,262 L136,258 L136,253 L136,248 L136,243 L135,238 L135,234 L135,231 L135,226 L135,221 L135,217 L136,214 L136,212 L137,210 L139,207 L139,206 L139,207 L140,207 L141,207 L141,208 L142,210 L143,214 L144,219 L145,224 L146,229 L146,234 L145,240 L145,245 L145,249 L146,253 L147,256 L148,260 L148,264 L148,267 L148,271 L148,274 L148,277 L148,279 L148,281 L148,283 L148,285 L148,286 L148,287 L148,288 L147,289 L147,291 L147,292 L147,293 L147,292 L147,291 L147,288 L147,285 L147,283 L148,281 L148,279 L149,277 L149,275 L149,273 L150,271 L150,270 L150,269 L150,268 L150,269 L150,268 L151,267 L151,265 L152,264 L152,263 L153,266 L154,269 L154,272 L154,273 L155,274 L155,273 L156,271 L156,268 L157,267 L157,266 L158,267 L158,271 L158,276 L158,280 L158,283 L158,285 L159,285 L159,286 L160,287 L160,291 L160,294 L160,298 L160,300 L159,301 L159,302 L159,301 L160,299 L161,295 L162,291 L162,286 L162,280 L162,275 L162,271 L163,267 L164,263 L165,259 L165,254 L166,250 L166,246 L166,243 L166,241 L166,238 L166,235 L167,232 L168,228 L168,226 L168,225 L168,226 L169,226 L170,226 L170,225 L171,225 L171,226 L171,228 L172,230 L172,232 L173,232 L173,230 L173,228 L174,224 L174,222 L174,221 L174,222 L175,222 L176,220 L177,216 L177,214 L178,212 L178,214 L178,215 L178,216 L178,217 L179,215 L179,213 L180,211 L180,210 L180,212 L181,215 L181,217 L182,219 L182,220 L183,221 L183,220 L185,217 L185,214 L186,210 L187,205 L187,200 L187,195 L188,190 L188,187 L189,186 L189,187 L190,188 L191,190 L192,193 L193,197 L193,201 L193,205 L194,209 L194,213 L193,218 L193,223 L191,228 L190,233 L190,238 L189,242 L188,247 L187,251 L187,254 L187,258 L187,262 L187,266 L187,270 L187,273 L187,277 L187,281 L186,284 L185,289 L185,295 L185,300 L185,303 L185,305 L185,308 L185,310 L185,311 L184,313 L184,314 L183,315 L183,313 L183,311 L183,307 L183,302 L183,297 L183,293 L185,288 L187,284 L190,279 L192,274 L193,270 L194,268 L195,267 L196,266 L197,266 L198,266 L199,266 L200,268 L200,271 L201,273 L201,274 L201,275 L201,273 L202,270 L202,267 L202,265 L202,266 L202,269 L202,270 L202,271 L203,271 L203,270 L203,269 L204,269 L204,270 L204,271 L205,271 L206,270 L207,269 L207,268 L207,269 L207,271 L207,274 L207,276 L207,275 L208,275 L208,274 L209,274 L210,273 L210,276 L210,279 L210,282 L210,284 L210,286 L209,289 L208,295 L208,299 L208,301 L208,302 L208,301 L208,300 L208,299 L208,295 L209,290 L209,284 L209,279 L210,276 L210,272 L211,267 L211,263 L211,258 L212,254 L213,249 L214,246 L215,242 L215,238 L215,234 L215,230 L215,227 L216,224 L216,221 L216,219 L216,218 L216,217 L217,217 L217,215 L218,213 L218,211 L218,210 L219,210 L220,209 L220,208 L221,209 L221,210 L222,210 L223,207 L224,205 L225,203 L225,202 L225,203 L226,205 L227,206 L228,206 L229,204 L230,200 L231,196 L232,194 L232,195 L233,195 L234,197 L235,200 L235,203 L236,206 L236,210 L236,213 L236,217 L236,221 L236,224 L236,225 L237,225 L237,227 L237,230 L237,234 L237,237 L236,240 L235,243 L235,244 L234,245 L234,246 L234,247 L235,248 L235,249 L235,251 L235,253 L236,254 L236,256 L237,257 L237,259 L237,261 L238,262 L238,263 L238,264 L239,265 L239,267 L239,268 L239,270 L239,271 L239,273 L239,275 L239,276 L239,278 L239,280 L238,281 L238,283 L238,285 L238,286 L237,287 L237,286 L238,286 L239,284 L240,281 L242,276 L244,271 L245,266 L246,263 L246,259 L246,256 L246,254 L247,253 L247,252 L248,254 L248,256 L249,257 L249,258 L250,257 L250,255 L250,253 L250,252 L250,254 L250,257 L250,259 L249,261 L250,258 L251,255 L251,254 L251,253 L251,255 L251,258 L251,259 L252,256 L254,254 L254,251 L255,252 L255,255 L255,256 L256,257 L256,258 L256,257 L256,256 L256,254 L257,251 L257,250 L258,249 L258,248 L259,246 L260,244 L260,240 L261,237 L261,234 L262,231 L262,228 L263,225 L263,222 L263,218 L264,215 L264,212 L265,210 L267,207 L268,204 L270,202 L270,201 L270,200 L271,199 L271,198 L272,198 L272,197 L272,198 L272,201 L273,205 L273,210 L273,215 L272,220 L271,224 L271,229 L270,233 L270,237 L269,241 L269,244 L268,246 L268,249 L268,253 L268,257 L267,261 L267,264 L266,267 L266,270 L266,273 L266,276 L266,279 L266,282 L265,284 L265,286 L264,288 L263,290 L262,291 L262,292 L261,293 L261,294 L261,295 L261,297 L261,300 L260,302 L260,303 L260,301 L260,299 L260,296 L261,293 L261,290 L262,286 L263,284 L264,282 L264,280 L265,278 L266,276 L266,275 L266,273 L267,271 L267,268 L268,265 L268,263 L268,262 L268,261 L269,261 L270,260 L270,259 L271,258 L272,257 L272,256 L272,255 L273,255 L273,256 L273,258 L274,260 L274,261 L275,260 L276,257 L277,254 L278,252 L279,255 L279,258 L280,260 L280,261 L280,260 L281,258 L282,255 L283,254 L283,253 L283,255 L283,258 L283,261 L283,262 L283,263 L283,262 L285,260 L286,258 L287,256 L288,256 L288,257 L289,259 L289,260 L290,258 L291,254 L291,248 L291,243 L291,238 L291,233 L292,230 L293,228 L293,226 L293,228 L294,232 L294,237 L294,242 L294,248 L293,254 L292,261 L291,265 L291,269 L291,273 L291,277 L290,279 L289,282 L288,285 L288,288 L287,291 L287,294 L286,297 L286,300 L286,303 L285,305 L285,306 L285,307 L285,306 L285,305 L285,304 L286,303 L286,301 L286,299 L287,297 L288,294 L288,291 L290,288 L291,286 L292,283 L293,280 L294,278 L295,276 L296,273 L297,271 L298,269 L298,267 L299,265 L300,263 L300,261 L301,261 L301,260 L302,259 L303,257 L305,256 L306,254 L307,253 L308,252 L308,253 L308,254 L308,256 L308,259 L308,261 L308,262 L308,263 L308,262 L308,261 L308,259 L308,258 L308,259 L308,260 L308,261 L309,259 L309,257 L310,255 L310,253 L310,252 L310,251 L311,250 L311,248 L312,246 L313,244 L313,242 L313,240 L313,238 L314,235 L314,232 L314,228 L315,225 L316,222 L317,220 L318,216 L319,213 L320,210 L320,209 L320,207 L321,205 L321,202 L321,200 L322,198 L322,197 L322,196 L323,195 L323,194 L324,194 L324,195 L325,198 L326,201 L327,205 L328,210 L329,214 L329,219 L330,223 L330,228 L330,233 L330,238 L330,244 L329,249 L327,253 L326,257 L325,261 L325,265 L324,269 L323,273 L323,276 L322,280 L322,284 L321,288 L320,291 L319,295 L318,299 L317,302 L317,305 L317,307 L317,308 L317,307 L317,304 L318,299 L319,295 L320,289 L321,287 L322,285 L323,282 L324,281 L324,282 L324,283 L325,284 L326,284 L327,283 L327,281 L328,280 L328,281 L328,283 L329,283 L329,282 L330,281 L330,279 L330,278 L331,275 L331,271 L332,266 L332,260 L333,255 L333,249 L334,244 L335,239 L335,234 L335,229 L336,225 L337,222 L337,218 L338,214 L339,211 L339,208 L341,205 L341,203 L342,202 L342,201 L343,204 L344,207 L344,210 L345,213 L345,215 L345,217 L345,219 L344,220 L344,221 L345,220 L346,217 L347,216 L347,215 L348,214 L348,216 L348,219 L348,220 L348,221 L349,220 L351,218 L352,217 L353,216 L354,216 L354,217 L354,218 L354,220 L355,223 L355,225 L356,229 L357,232 L357,236 L357,239 L356,243 L355,246 L354,249 L353,253 L352,256 L352,260 L351,264 L351,266 L350,270 L349,273 L348,276 L348,278 L347,281 L347,282 L346,285 L345,288 L345,289 L344,291 L344,292 L344,290 L345,286 L346,280 L347,273 L348,267 L349,264 L350,261 L352,259 L353,255 L354,251 L354,247 L355,243 L357,238 L358,234 L359,231 L361,229 L362,227 L363,226 L364,226 L364,225 L364,226 L364,227 L365,228 L366,228 L368,228 L369,227 L369,228 L369,232 L369,238 L369,244 L369,247 L369,249 L369,252 L368,257 L368,262 L368,265 L368,266 L368,265 L368,264 L368,261 L369,260 L367,264 L366,271 L365,278 L365,281 L365,282 L366,281 L365,282 L365,284 L364,287 L364,289 L364,291 L363,293 L363,292 L364,290 L364,289 L365,288 L365,287 L366,287 L366,286 L367,286 L368,285 L370,282 L371,279 L373,275 L373,270 L373,267 L373,265 L373,263 L373,261 L373,260 L374,258 L374,256 L374,255 L375,255 L375,256 L376,257 L377,259 L379,262 L380,265 L380,267 L381,267 L381,266 L382,264 L383,261 L384,260 L384,259 L385,259 L385,261 L386,264 L386,266 L387,268 L387,267 L388,265 L389,263 L390,262 L390,261 L390,262 L390,264 L390,267 L390,269 L389,271 L390,269 L390,266 L391,262 L391,256 L391,250 L393,244 L394,239 L395,235 L396,232 L397,228 L397,224 L398,220 L398,215 L399,211 L400,206 L400,202 L401,197 L401,192 L401,187 L401,183 L401,179 L401,176 L402,173 L403,170 L404,167 L405,165 L405,163 L405,162 L406,161 L407,159 L407,158 L407,159 L407,161 L407,164 L408,166 L408,168 L408,171 L408,173 L408,177 L409,181 L409,185 L408,188 L408,191 L407,195 L406,199 L406,203 L406,208 L406,212 L406,215 L406,218 L406,221 L406,224 L406,227 L406,230 L406,232 L406,235 L406,238 L406,242 L405,245 L405,247 L404,250 L403,252 L403,255 L403,257 L402,259 L402,260 L402,262 L402,265 L401,267 L401,269 L401,271 L401,273 L401,275 L400,277 L399,280 L399,282 L398,284 L398,286 L398,287 L398,288 L397,290 L397,292 L397,293 L397,294 L397,295 L397,296 L397,298 L397,299 L397,301 L397,303 L397,305 L396,307 L396,309 L396,310 L396,311 L396,313 L396,314 L396,315 L396,316 L396,315 L396,313 L398,310 L399,306 L401,303 L402,300 L403,297 L405,294 L406,292 L406,291 L406,292 L407,293 L408,295 L408,296 L408,297 L408,298 L408,297 L409,295 L409,294 L410,294 L410,297 L409,300 L409,304 L409,305 L409,306 L409,305 L409,306 L408,308 L408,312 L407,316 L407,320 L406,323 L405,326 L405,327 L405,330 L405,331 L405,332 L405,334 L405,335 L405,334 L405,333 L406,331 L407,328 L408,325 L409,323 L410,321 L411,320 L412,318 L413,317 L413,316 L414,315 L415,314 L416,313 L417,312 L417,313 L417,315 L417,320 L417,325 L416,330 L415,334 L415,337 L415,339 L414,340 L414,339 L414,338 L414,336 L415,333 L416,330 L418,327 L419,325 L420,324 L420,325 L420,326 L421,325 L422,324 L423,324 L424,326 L425,328 L425,329 L425,328 L426,326 L426,323 L426,321 L427,320 L427,322 L426,326 L426,330 L426,331 L426,328 L427,325 L428,322 L429,320 L429,322 L430,324 L430,325 L430,326 L430,327 L430,326 L430,325 L431,325 L432,323 L433,322 L433,321 L434,318 L434,314 L435,310 L435,305 L435,300 L436,295 L436,290 L437,284 L437,281 L437,278 L438,275 L438,273 L438,271 L439,270 L439,266 L440,264 L440,262 L440,261 L440,262 L440,263 L441,264 L443,268 L444,272 L445,276 L445,279 L445,283 L445,286 L445,290 L444,294 L443,296 L443,298 L442,300 L442,303 L442,305 L441,308 L441,310 L441,311 L441,312 L441,313 L441,314 L441,313 L442,311 L443,308 L444,305 L445,302 L447,299 L448,297 L449,295 L450,294 L450,293 L450,294 L450,296 L451,298 L451,300 L452,300 L453,297 L454,294 L454,293 L454,292 L454,294 L454,295 L454,297 L454,298 L455,296 L455,293 L456,288 L456,282 L456,278 L457,276 L458,274 L459,274 L460,276 L461,278 L462,281 L462,284 L463,287 L464,291 L464,293 L464,296 L464,298 L464,301 L463,302 L463,303 L462,304 L462,305 L462,306 L462,307 L461,308 L461,310 L460,312 L460,313 L459,314 L460,314 L460,313 L461,313 L462,311 L462,310 L463,309 L463,308 L464,306 L465,303 L467,299 L469,295 L470,291 L471,286 L472,282 L472,279 L472,278 L472,277 L472,275 L473,272 L473,269 L474,267 L474,266 L474,267 L475,268 L475,271 L476,274 L476,277 L476,280 L477,282 L477,284 L477,285 L476,286 L476,287 L476,288 L476,289 L476,291 L476,293 L476,295 L476,296 L476,298 L476,299 L476,300 L476,301 L476,302 L476,303 L476,304 L476,305 L476,306 L476,307 L477,307 L477,308 L477,309 L477,310 L477,311 L478,312 L478,313 L478,314 L478,315 L478,316 L478,317 L478,318 L478,319 L478,320 L477,320 L478,320 L479,318 L480,316 L482,312 L485,308 L486,305 L486,306 L486,308 L487,309 L487,310 L488,311 L489,311 L490,310 L491,308 L493,306 L493,305 L494,305 L494,306 L494,308 L494,310 L494,312 L494,313 L494,312 L495,311 L495,314 L495,317 L494,322 L493,326 L493,328 L492,330 L492,332 L491,334 L491,335 L490,337 L490,338 L490,339 L489,339 L490,339 L491,336 L493,329 L496,319 L498,310 L499,304 L500,300 L501,296 L503,293 L505,291 L506,290 L507,291 L508,291 L509,291 L509,292 L509,293 L509,295 L509,300 L509,307 L508,313 L508,316 L508,317 L508,316 L508,317 L508,320 L508,324 L507,328 L506,332 L506,335 L505,337 L505,339 L505,340 L504,343 L503,345 L502,347 L502,349 L501,350 L501,352 L501,354 L501,356 L501,357 L500,358 L500,359 L500,360 L500,361 L501,361 L501,360 L501,359 L502,358 L503,357 L503,355 L504,353 L505,351 L506,350 L506,349 L506,350 L506,351 L506,352 L506,353 L506,352 L507,352 L507,351 L507,352 L507,353 L507,355 L507,356 L507,357 L508,357 L508,355 L508,354 L508,352 L509,351 L509,350 L510,349 L511,348 L511,346 L512,342 L512,337 L513,332 L513,327 L514,321 L515,317 L517,312 L517,306 L517,301 L517,296 L518,293 L518,289 L519,285 L520,280 L520,275 L520,269 L520,264 L520,260 L520,256 L521,251 L522,246 L522,242 L522,238 L522,235 L522,232 L521,229 L521,225 L521,221 L521,218 L522,216 L522,215 L522,212 L522,210 L522,208 L522,206 L522,205 L523,204 L523,202 L523,201 L524,200 L524,201 L524,202 L525,203 L525,205 L526,206 L527,208 L528,210 L529,213 L530,216 L530,219 L530,221 L530,224 L531,227 L531,229 L532,232 L532,234 L532,238 L532,242 L532,245 L532,248 L532,252 L532,255 L532,258 L533,261 L533,264 L534,267 L535,271 L535,274 L535,277 L535,280 L535,283 L534,286 L534,289 L533,292 L533,295 L533,298 L533,300 L533,302 L533,304 L532,305 L532,307 L532,308 L532,310 L532,311 L532,312 L532,313 L532,314 L532,313 L533,311 L533,308 L534,303 L535,297 L535,294 L536,292 L537,292 L537,293 L537,294 L538,295 L538,296 L539,297 L540,297 L540,295 L541,294 L541,293 L541,292 L541,293 L541,295 L541,296 L542,297 L542,296 L542,294 L543,292 L543,291 L543,292 L543,293 L544,294 L545,294 L545,293 L546,293 L546,294 L547,294 L548,293 L549,289 L550,284 L551,278 L552,271 L552,266 L552,262 L553,259 L553,256 L554,251 L554,247 L554,244 L554,242 L555,239 L555,237 L557,233 L557,229 L558,225 L558,224 L559,222 L560,221 L561,219 L562,217 L563,216 L563,217 L563,218 L564,220 L564,223 L565,227 L565,231 L565,235 L564,238 L564,241 L564,243 L564,246 L564,249 L564,253 L564,257 L564,261 L564,264 L564,266 L564,268 L564,271 L564,274 L564,276 L564,278 L564,279 L564,278 L564,277 L564,274 L565,269 L566,263 L566,258 L566,256 L566,257 L566,258 L566,259 L566,258 L567,256 L567,251 L567,244 L567,242 L567,239 L567,236 L567,235 L567,234 L567,233 L568,231 L569,229 L569,227 L569,226 L569,225 L569,224 L570,223 L571,221 L572,220 L572,218 L572,219 L572,220 L572,221 L573,224 L573,227 L574,232 L574,236 L574,241 L574,244 L574,246 L574,247 L574,249 L574,250 L574,251 L573,253 L573,256 L573,257 L572,258 L572,259 L572,260 L572,261 L572,262 L571,263 L571,264 L570,265 L570,267 L569,270 L569,272 L568,274 L568,275 L568,274 L568,272 L568,270 L569,269 L569,268 L569,269 L569,273 L569,277 L569,281 L569,283 L569,282 L569,281 L569,278 L569,276 L569,273 L569,271 L569,274 L569,278 L568,282 L568,285 L567,288 L566,291 L566,293 L566,295 L565,297 L565,299 L565,301 L565,303 L565,305 L564,305 L564,304 L565,304 L566,302 L568,298 L571,293 L572,289 L574,287 L574,286 L575,284 L577,282 L577,280 L578,279 L579,278 L579,280 L578,283 L578,286 L578,287 L578,288 L579,287 L579,285 L580,282 L581,281 L580,284 L579,288 L579,291 L579,292 L579,291 L579,290 L580,288 L580,287 L580,288 L579,291 L578,295 L578,300 L578,302 L578,303 L578,302 L579,301 L579,299 L581,295 L582,292 L584,288 L585,286 L586,285 L586,284 L586,285 L586,287 L586,289 L586,291 L586,292 L586,291 L586,290 L586,292 L586,294 L586,295 L586,296 L586,295 L586,293 L586,292 L586,291 L586,290 L586,291 L587,291 L587,289 L587,286 L588,282 L588,279 L588,275 L588,270 L588,265 L588,261 L588,258 L588,255 L588,251 L588,247 L588,243 L589,240 L589,238 L589,237 L589,236 L589,235 L589,234 L590,233 L590,232 L591,232 L591,233 L591,234 L592,233 L593,232 L594,230 L594,228 L594,226 L594,229 L594,233 L594,237 L594,240 L594,241 L595,240 L596,238 L597,235 L598,232 L599,231 L599,232 L599,234 L599,237 L599,239 L600,239 L601,238 L601,237 L602,235 L602,234 L603,233 L603,234 L604,236 L604,238 L605,239 L605,240 L605,239 L605,238 L605,236 L605,233 L606,230 L606,228 L606,227 L606,229 L606,231 L607,234 L607,235 L607,236 L608,235 L608,233 L609,230 L609,227 L610,225 L610,224 L610,225 L610,227 L610,229 L610,230 L611,228 L611,225 L612,224 L612,223 L612,224 L613,227 L613,229 L613,231 L614,232 L614,233 L614,232 L614,231 L614,229 L614,227 L614,226 L615,226 L615,227 L615,230 L616,234 L616,235 L616,236 L616,235 L617,233 L618,232 L618,230 L618,231 L618,233 L618,235 L618,236 L619,234 L619,232 L619,229 L620,227 L620,226 L620,227 L620,229 L620,232 L620,233 L620,232 L620,230 L621,228 L621,227 L621,226 L621,227 L621,230 L621,234 L621,239 L621,243 L621,245 L621,246 L621,245 L622,244 L623,241 L623,236 L625,230 L626,224 L626,220 L626,217 L626,214 L626,211 L627,208 L627,205 L627,203 L628,202 L628,200 L628,199 L628,197 L629,195 L629,196 L629,198 L628,202 L628,207 L628,213 L626,221 L625,228 L624,233 L624,237 L624,242 L624,245 L624,247 L624,249 L623,251 L622,254 L621,258 L621,260 L620,261 L620,262 L619,265 L618,268 L618,270 L618,271 L618,270 L618,269 L619,267 L620,264 L621,261 L622,255 L623,249 L625,244 L626,242 L627,240 L628,238 L629,236 L631,234 L632,232 L633,230 L635,228 L635,227 L636,226 L636,225 L637,225 L637,224 L637,226 L638,227 L638,229 L638,230 L639,230 L640,229 L640,227 L640,224 L641,223 L640,224 L640,227 L640,229 L640,231 L640,232 L641,231 L643,229 L645,226 L645,224 L645,227 L645,229 L645,230 L645,228 L645,224 L645,220 L645,216 L645,212 L645,209 L646,206 L647,203 L648,200 L649,196 L650,192 L651,188 L652,185 L652,183 L652,182 L653,181 L653,180 L653,181 L654,183 L654,185 L655,186 L655,187 L655,189 L655,191 L655,193 L655,194 L655,195 L655,194 L655,193 L655,192 L656,191 L657,192 L657,195 L658,198 L658,200 L658,202 L657,206 L656,213 L654,222 L654,230 L654,235 L654,237 L654,238 L655,238 L655,237 L655,235 L655,233 L654,232 L654,231 L654,232 L654,233 L655,234 L655,236 L657,237 L658,238 L661,237 L663,234 L665,231 L666,228 L667,225 L667,222 L668,218 L668,211 L668,207 L669,203 L670,200 L672,194 L674,189 L676,183 L678,176 L679,169 L681,162 L683,155 L685,149 L687,142 L689,135 L690,128 L692,121 L692,115 L693,111 L694,107 L695,102 L696,98 L698,93 L699,90 L699,89 L699,87 L700,85 L701,83 L701,81 L702,81 L702,82 L702,83 L702,87 L701,91 L700,97 L699,102 L698,107 L697,112 L697,116 L696,119 L696,123 L695,126 L694,129 L693,132 L693,135 L692,137 L692,140 L692,143 L691,146 L690,149 L690,152 L689,155 L688,158 L686,162 L684,166 L683,169 L682,172 L681,176 L680,179 L678,184 L677,188 L677,190 L677,192 L676,193 L676,195 L675,198 L674,200 L674,202 L674,204 L674,205 L674,207 L673,208 L673,210 L673,211 L672,212 L672,213 L672,215 L672,216 L672,217 L672,219 L672,220 L673,220 L673,221 L673,220 L673,221 L673,222 L673,223 L673,224 L672,224 L672,225 L672,226 L672,227 L672,228 L672,229 L672,230 L672,231 L672,232 L672,233 L672,234 L672,235 L672,236 L672,237 L672,239 L672,241 L672,242 L672,241 L672,239 L673,236 L674,234 L675,233 L675,234 L675,237 L676,239 L676,241 L677,242 L678,241 L680,238 L682,235 L682,233 L683,232 L682,234 L682,237 L682,240 L682,242 L682,243 L683,242 L684,239 L686,237 L687,234 L687,233 L687,234 L687,238 L687,242 L686,247 L686,250 L686,253 L686,254 L686,256 L686,257 L686,258 L686,259 L686,261 L685,264 L685,267 L685,270 L685,272 L686,273 L686,274 L686,275 L687,276 L687,275 L688,273 L690,269 L691,265 L692,260 L694,254 L694,248 L694,246 L694,247 L694,248 L694,249 L695,250 L695,251 L695,252 L696,251 L698,247 L699,242 L700,239 L701,239 L701,241 L701,243 L701,245 L701,246 L701,245 L702,242 L704,236 L705,229 L706,222 L708,217 L709,211 L711,207 L712,203 L713,202 L713,203 L713,204 L713,207 L713,212 L713,219 L713,225 L713,230 L713,232 L713,234 L714,234 L713,234 L713,236 L712,239 L712,240 L712,242 L712,243 L712,244 L713,244 L714,243 L715,242 L716,241 L716,240 L717,240 L717,241 L717,244 L717,249 L717,252 L717,254 L717,253 L718,251 L719,248 L720,245 L721,243 L721,242 L721,243 L719,246 L718,250 L716,254 L716,257 L716,258 L716,257 L717,255 L719,252 L721,249 L722,247 L722,250 L721,254 L721,257 L721,260 L721,261 L721,260 L722,258 L723,256 L723,254 L723,255 L722,258 L722,261 L721,264 L721,265 L721,264 L723,262 L724,259 L725,254 L726,250 L727,246 L728,245 L728,246 L728,247 L728,249 L729,251 L730,253 L731,252 L733,249 L734,246 L735,244 L735,243 L735,244 L734,245 L734,246 L734,248 L734,249 L734,248 L734,245 L734,241 L734,238 L735,237 L735,236 L735,237 L735,238 L735,239 L735,240 L735,241 L736,241 L736,240 L736,238 L737,235 L737,232 L737,230 L737,229 L737,230 L737,229 L737,228 L737,227 L737,228 L737,229 L737,230 L737,231 L737,232 L738,231 L738,229 L739,226 L740,223 L740,221 L741,220 L741,222 L741,225 L741,229 L742,232 L742,235 L743,235 L743,234 L743,233 L744,231 L745,228 L745,226 L746,224 L747,224 L747,225 L746,229 L745,234 L745,239 L745,241 L745,242 L745,241 L746,239 L747,237 L748,234 L748,232 L749,231 L749,230 L749,231 L748,235 L747,240 L745,245 L745,248 L747,246 L748,243 L749,239 L750,233 L752,226 L754,220 L755,215 L756,211 L758,209 L759,207 L759,206 L759,207 L759,208 L759,212 L759,218 L759,225 L759,232 L759,237 L759,241 L759,244 L759,245 L760,246 L760,247 L760,248 L760,249 L760,250 L760,251 L760,252 L760,254 L760,256 L760,258 L760,259 L760,261 L760,262 L760,263 L760,264 L759,265 L759,264 L759,265 L759,266 L758,267 L758,268 L757,269 L757,270 L757,271 L757,270 L757,269 L757,268 L758,268 L758,267 L758,266 L759,265 L759,264 L759,263 L760,262 L760,261 L760,260 L760,259 L760,258 L760,257 L760,256 L761,254 L761,253 L762,251 L762,249 L762,248 L762,247 L763,246 L763,245 L764,244 L764,243 L765,242 L765,241 L765,239 L766,235 L767,231 L768,227 L768,221 L768,216 L768,210 L769,205 L769,201 L770,195 L770,190 L770,186 L771,183 L772,179 L774,176 L775,174 L776,172 L777,171 L778,170 L778,171 L778,174 L777,179 L777,186 L777,194 L777,203 L777,210 L776,216 L775,222 L773,227 L771,233 L770,238 L769,243 L768,248 L768,253 L768,256 L768,258 L768,259 L768,260 L768,261 L768,262 L768,264 L768,268 L767,272 L767,277 L766,282 L765,288 L765,291 L764,293 L764,295 L764,297 L764,298 L764,299 L764,300 L764,299 L764,300 L764,303 L763,306 L763,310 L762,313 L762,316 L762,318 L762,319 L762,320 L762,322 L761,323 L761,324 L761,325 L761,326 L760,327 L760,328 L760,330 L760,331 L760,332 L760,333 L759,334 L759,335 L759,334 L760,332 L760,330 L761,327 L762,323 L762,320 L763,318 L765,316 L765,314 L766,310 L767,307 L768,304 L769,302 L770,300 L770,298 L772,296 L773,293 L774,289 L775,286 L775,284 L776,282 L777,279 L779,276 L780,271 L781,267 L781,264 L782,262 L782,260 L782,258 L783,256 L784,254 L784,252 L784,253 L784,251 L784,250 L784,249 L784,250 L784,251 L784,252 L784,253 L784,252 L784,250 L785,249 L785,247 L786,247 L786,248 L786,249 L786,250 L786,251 L787,251 L787,250 L787,249 L788,250 L788,251 L789,251 L790,250 L791,248 L792,246 L793,244 L794,243 L794,244 L794,246 L794,249 L794,250 L794,251 L794,250 L794,249 L794,251 L794,254 L793,256 L794,254 L795,251 L796,250 L796,249 L795,251 L795,255 L794,258 L794,260 L794,259 L794,258 L795,256 L796,251 L797,245 L797,239 L797,232 L797,227 L797,223 L797,218 L797,213 L797,209 L797,206 L797,203 L798,202 L798,203 L798,206 L798,210 L798,214 L798,217 L799,217 L800,215 L802,213 L804,211 L804,210 L804,211 L804,214 L804,219 L804,223 L804,224 L804,225 L805,224 L806,221 L809,217 L812,210 L815,204 L817,198 L818,195 L818,194 L819,193 L819,192 L819,190 L820,188 L820,187 L820,186 L820,188 L819,193 L818,201 L817,209 L816,216 L815,220 L814,223 L813,226 L812,229 L812,230 L812,232 L812,233 L812,234 L811,238 L811,243 L811,247 L811,250 L811,251 L811,252 L810,252 L810,254 L809,257 L809,261 L809,264 L808,266 L808,265 L808,264 L808,263 L808,261 L807,259 L806,260 L805,263 L804,268 L803,272 L802,274 L802,275 L802,274 L802,277 L802,283 L801,291 L800,298 L800,301 L799,304 L799,306 L799,309 L799,310 L798,313 L798,314 L798,315 L799,317 L799,319 L799,322 L799,325 L798,327 L798,328 L797,328 L797,327 L798,325 L799,320 L800,313 L801,306 L802,298 L803,291 L804,285 L805,280 L806,277 L807,273 L809,270 L809,266 L810,263 L810,261 L810,260 L810,259 L809,259 L810,259 L810,260 L811,262 L813,264 L815,266 L816,268 L817,268 L818,266 L819,264 L819,263 L820,262 L820,263 L820,264 L820,267 L820,269 L820,270 L820,271 L820,270 L821,268 L823,264 L824,261 L825,259 L825,258 L825,257 L826,255 L826,250 L828,243 L829,235 L831,228 L832,222 L833,217 L833,211 L834,206 L835,202 L836,200 L836,198 L837,195 L838,193 L840,192 L841,191 L841,190 L841,191 L841,193 L841,197 L840,202 L839,207 L838,212 L836,215 L834,217 L832,221 L831,224 L830,227 L830,229 L829,232 L828,234 L828,237 L827,239 L827,240 L826,242 L826,244 L826,245 L826,246 L826,248 L826,249 L826,250 L826,251 L826,250 L826,249 L826,250 L826,253 L827,259 L828,264 L828,267 L828,268 L828,267 L828,266 L829,265 L829,264 L830,263 L831,261 L833,259 L835,254 L836,248 L838,241 L839,235 L840,231 L840,228 L840,227 L840,228 L841,227 L842,223 L845,216 L848,210 L850,207 L850,206 L850,207 L850,210 L850,213 L850,216 L850,218 L850,220 L849,220 L850,220 L850,224 L850,230 L849,238 L849,244 L850,246 L850,245 L852,244 L854,241 L858,236 L861,229 L863,225 L863,224 L863,225 L863,227 L863,231 L863,234 L863,237 L863,239 L863,238 L865,235 L867,232 L868,230 L868,229 L867,232 L865,236 L863,239 L863,242 L862,243 L863,242 L863,240 L865,235 L866,230 L868,223 L870,216 L870,210 L870,206 L870,203 L870,201 L870,200 L870,201 L870,203 L869,207 L867,214 L864,223 L862,232 L860,238 L858,243 L856,249 L854,254 L853,259 L851,264 L850,268 L849,274 L848,280 L846,285 L845,291 L843,297 L841,303 L840,308 L838,313 L836,317 L835,321 L834,324 L833,327 L832,330 L832,332 L832,334 L832,335 L832,336 L833,334 L835,330 L838,325 L841,316 L845,308 L848,299 L851,293 L854,287 L856,283 L858,281 L860,279 L863,278 L865,277 L866,276 L865,276 L865,278 L865,281 L864,283 L863,286 L863,288 L864,286 L865,283 L866,279 L867,277 L867,278 L866,281 L865,282 L865,283 L865,284 L865,283 L866,281 L867,277 L868,276 L868,275 L868,276 L868,278 L868,280 L868,281 L868,282 L869,281 L871,278 L873,273 L875,266 L877,261 L878,256 L880,253 L882,249 L884,244 L886,240 L887,236 L888,232 L889,230 L889,227 L890,224 L890,222 L890,220 L890,218 L890,217 L890,215 L891,213 L891,212 L891,210 L892,210 L892,209 L893,207 L894,206 L894,205 L895,202 L895,200 L895,198 L895,195 L895,193 L895,194 L895,195 L895,199 L893,205 L891,213 L890,220 L889,224 L888,229 L887,234 L885,239 L884,243 L882,247 L881,250 L880,254 L879,258 L878,261 L878,264 L877,266 L877,267 L876,268 L877,266 L877,264 L877,263 L877,262 L877,261 L877,263 L877,267 L877,271 L877,273 L877,274 L879,272 L881,269 L883,267 L884,265 L884,266 L884,267 L885,269 L885,271 L885,272 L886,272 L887,268 L888,263 L889,255 L890,247 L891,243 L892,243 L892,241 L892,239 L893,236 L893,234 L893,231 L893,229 L893,226 L893,224 L894,222 L894,221 L894,220 L894,219 L894,221 L894,224 L894,229 L893,236 L893,243 L893,249 L892,256 L892,264 L891,273 L890,282 L890,288 L888,293 L887,296 L887,299 L886,301 L885,303 L885,304 L885,305 L885,306 L886,306 L886,305 L887,303 L887,297 L887,292 L887,289 L887,291 L886,295 L885,302 L884,309 L883,315 L882,319 L882,321 L882,322 L881,323 L881,325 L880,327 L880,331 L880,334 L880,335 L880,336 L880,335 L880,334 L882,331 L883,327 L885,322 L887,317 L888,314 L890,310 L891,306 L892,302 L894,299 L895,296 L896,293 L896,290 L896,287 L897,284 L897,281 L898,279 L899,278 L899,277 L900,276 L900,275 L901,273 L902,272 L902,271 L902,270 L904,267 L905,261 L907,256 L908,252 L908,250 L908,249 L908,251 L908,253 L909,255 L909,257 L909,258 L909,257 L910,255 L912,250 L913,244 L915,239 L917,234 L919,232 L919,231 L919,232 L918,237 L917,243 L916,248 L915,251 L914,251 L914,250 L915,249 L916,245 L918,240 L920,233 L921,228 L922,227 L922,228 L922,230 L922,236 L922,242 L922,246 L922,249 L923,249 L923,248 L923,247 L921,251 L920,258 L919,264 L918,267 L918,268 L918,267 L918,266 L919,265 L919,262 L920,256 L921,247 L922,237 L923,229 L923,224 L923,220 L924,216 L924,212 L924,208 L925,205 L926,203 L926,202 L926,201 L926,202 L926,205 L925,210 L925,217 L925,222 L925,224 L926,224 L926,222 L927,220 L929,214 L931,209 L931,206 L932,206 L932,207 L932,210 L932,217 L932,225 L932,232 L932,238 L932,242 L933,244 L933,245 L933,246 L933,247 L933,249 L933,251 L933,256 L933,261 L933,265 L933,269 L933,272 L932,273 L933,272 L933,271 L934,268 L936,262 L937,256 L939,249 L941,244 L942,239 L943,234 L944,229 L944,226 L945,224 L946,222 L946,221 L946,223 L946,228 L945,233 L944,238 L943,240 L943,239 L944,237 L945,232 L946,225 L946,221 L946,220 L946,221 L946,225 L946,232 L946,239 L946,243 L946,244 L946,243 L946,242 L946,240 L946,237 L947,236 L947,235 L948,235 L948,239 L949,246 L951,255 L953,261 L955,266 L956,268 L957,270 L957,271 L957,269 L957,267 L957,263 L957,261 L957,259 L957,261 L957,266 L957,273 L958,279 L958,283 L957,284 L954,286 L949,288 L948,289" fill="none" stroke="red" stroke-width="3"/></svg>