<svg xmlns="http://www.w3.org/2000/svg" version="1.1" xmlns:xlink="http://www.w3.org/1999/xlink" xmlns:svgjs="http://svgjs.dev/svgjs" width="950" height="375" id="chartSvg"><path d="M8,292 L9,290 L10,289 L10,290 L11,290 L12,291 L12,292 L13,292 L14,292 L14,291 L15,291 L15,289 L16,286 L17,281 L17,278 L17,276 L17,278 L17,280 L17,283 L17,285 L17,286 L17,288 L17,287 L18,284 L19,281 L21,278 L22,276 L23,274 L23,273 L24,273 L24,272 L24,273 L24,274 L24,275 L24,276 L24,278 L23,282 L23,287 L23,292 L23,296 L24,299 L24,302 L24,305 L24,307 L25,308 L25,310 L25,313 L25,314 L25,316 L25,318 L25,320 L25,322 L25,323 L25,324 L25,325 L24,325 L23,325 L24,325 L24,324 L25,323 L26,322 L26,321 L27,320 L27,319 L28,318 L28,317 L29,315 L29,314 L29,313 L29,311 L30,310 L30,308 L31,308 L31,307 L31,306 L31,305 L31,304 L32,303 L32,302 L32,301 L32,300 L33,300 L33,298 L34,297 L34,296 L34,295 L35,293 L35,291 L36,291 L35,292 L35,293 L35,295 L35,298 L35,299 L35,300 L35,299 L36,297 L36,295 L37,293 L38,293 L39,295 L39,296 L39,298 L40,300 L41,301 L41,302 L42,302 L42,300 L42,297 L42,293 L41,288 L41,284 L41,282 L40,279 L40,276 L40,273 L41,271 L41,267 L41,263 L42,259 L42,254 L42,252 L42,250 L42,249 L42,250 L43,251 L43,252 L43,254 L44,255 L44,257 L44,261 L44,264 L45,268 L46,272 L46,276 L47,279 L47,282 L48,285 L49,288 L49,291 L50,295 L50,298 L50,301 L51,304 L51,308 L51,313 L52,317 L53,322 L53,326 L54,330 L55,335 L56,339 L56,342 L56,345 L56,347 L56,349 L56,350 L56,351 L56,352 L56,353 L56,354 L56,356 L56,357 L56,359 L56,360 L56,361 L56,360 L55,360 L55,361 L55,360 L54,359 L54,358 L54,357 L54,356 L54,355 L54,354 L55,354 L55,353 L55,352 L55,351 L55,350 L55,349 L56,349 L56,348 L56,347 L56,346 L56,345 L56,344 L56,343 L56,342 L56,341 L56,339 L56,338 L56,336 L56,335 L56,333 L56,332 L56,330 L56,327 L57,325 L57,322 L58,320 L58,317 L58,315 L58,313 L58,311 L58,308 L58,307 L58,306 L58,305 L57,305 L57,304 L57,303 L58,303 L58,301 L59,300 L60,298 L61,297 L61,296 L61,295 L62,295 L63,296 L63,298 L65,298 L66,299 L67,300 L68,298 L68,296 L68,293 L69,289 L69,286 L70,283 L71,280 L72,277 L73,273 L73,270 L75,267 L75,264 L77,261 L77,259 L78,258 L78,257 L78,256 L78,255 L78,254 L78,255 L78,256 L78,257 L78,258 L78,259 L78,260 L78,261 L78,262 L78,263 L78,264 L78,265 L79,266 L79,268 L79,270 L79,271 L79,273 L79,274 L79,276 L79,277 L78,278 L78,280 L78,281 L78,282 L78,283 L77,284 L77,286 L76,289 L76,292 L75,295 L75,298 L75,300 L75,302 L75,303 L75,305 L75,307 L75,308 L75,309 L75,310 L74,310 L74,312 L74,313 L74,314 L74,315 L74,316 L74,317 L74,316 L74,315 L75,313 L76,311 L76,310 L77,309 L78,308 L78,307 L79,307 L79,308 L80,309 L80,310 L81,310 L81,311 L82,311 L82,310 L81,310 L81,309 L82,309 L83,308 L83,307 L83,306 L83,305 L83,304 L83,302 L84,300 L84,299 L85,297 L85,295 L85,293 L86,291 L86,290 L86,288 L86,286 L86,283 L86,281 L86,280 L86,278 L87,275 L87,271 L87,269 L88,267 L88,266 L88,264 L88,262 L89,261 L89,259 L90,257 L90,256 L90,255 L90,254 L90,253 L91,254 L91,256 L91,258 L92,259 L92,260 L92,259 L92,257 L93,255 L93,254 L94,253 L94,254 L94,255 L95,258 L95,261 L95,266 L95,273 L96,280 L96,288 L96,295 L96,300 L96,305 L96,307 L96,308 L96,307 L96,306 L97,305 L97,303 L97,302 L97,301 L98,301 L98,300 L99,300 L99,301 L100,303 L100,305 L101,308 L102,311 L102,314 L103,317 L105,321 L105,324 L105,327 L105,331 L106,334 L106,337 L106,339 L106,340 L107,341 L107,340 L107,339 L107,338 L107,336 L107,334 L107,332 L107,330 L107,328 L107,327 L107,326 L107,325 L108,324 L108,323 L108,322 L107,322 L107,321 L107,320 L107,319 L107,317 L107,315 L107,314 L107,312 L107,310 L108,307 L108,304 L108,301 L109,299 L109,297 L109,295 L108,292 L108,289 L108,286 L108,284 L108,281 L108,278 L109,273 L109,270 L110,267 L110,266 L110,265 L110,264 L110,263 L110,261 L110,260 L110,259 L110,258 L110,257 L110,256 L110,257 L110,258 L110,260 L110,261 L111,263 L111,264 L112,267 L112,269 L112,273 L112,276 L112,278 L113,280 L113,283 L113,286 L113,289 L113,293 L112,295 L112,299 L112,302 L112,304 L112,306 L112,308 L112,309 L113,309 L113,310 L114,310 L113,310 L113,309 L113,308 L113,307 L113,306 L113,305 L113,304 L113,303 L114,302 L114,301 L114,300 L114,298 L114,296 L114,294 L115,291 L115,288 L116,285 L117,281 L117,278 L117,275 L118,271 L118,268 L118,264 L118,259 L117,255 L117,251 L117,248 L117,246 L118,243 L118,239 L119,235 L119,232 L119,231 L120,230 L120,229 L121,229 L121,230 L122,233 L122,237 L123,240 L124,243 L124,245 L124,246 L124,245 L125,244 L125,243 L126,242 L126,240 L127,239 L127,237 L128,236 L128,235 L128,236 L128,237 L128,239 L128,242 L129,244 L129,247 L129,250 L129,252 L129,254 L130,255 L130,256 L130,257 L130,259 L131,261 L131,263 L131,265 L132,267 L132,269 L132,271 L132,273 L133,274 L133,276 L133,277 L133,278 L133,279 L133,280 L133,281 L133,282 L133,283 L133,284 L133,285 L133,286 L132,286 L132,287 L132,288 L133,288 L134,288 L135,290 L135,294 L135,300 L134,308 L134,313 L134,316 L134,315 L135,312 L136,306 L136,301 L137,297 L137,294 L138,294 L138,295 L138,296 L139,298 L140,300 L140,301 L141,300 L141,295 L141,291 L141,289 L142,289 L142,291 L143,293 L143,294 L143,295 L143,294 L143,293 L144,291 L144,287 L144,280 L145,273 L146,268 L146,262 L146,258 L147,253 L148,248 L149,244 L149,242 L150,241 L151,239 L151,238 L151,235 L152,234 L152,233 L152,232 L153,232 L153,231 L153,232 L153,233 L153,234 L153,235 L153,236 L153,237 L153,238 L153,239 L153,240 L153,242 L153,243 L153,244 L153,246 L153,248 L153,249 L153,250 L153,251 L153,252 L152,254 L152,255 L152,256 L152,257 L152,259 L151,260 L151,261 L151,262 L151,264 L151,265 L151,266 L151,267 L150,268 L150,269 L150,270 L150,271 L150,273 L150,274 L150,275 L150,276 L150,278 L150,279 L151,281 L151,282 L151,283 L151,284 L151,285 L151,286 L151,287 L151,288 L152,286 L153,285 L153,283 L154,282 L154,281 L155,281 L155,282 L155,284 L155,286 L156,287 L157,285 L158,281 L159,279 L160,278 L160,280 L160,281 L161,282 L161,280 L162,278 L162,276 L163,276 L163,278 L164,281 L165,283 L166,286 L166,291 L166,294 L165,298 L165,300 L164,303 L164,305 L163,308 L163,310 L163,312 L163,315 L163,317 L163,319 L163,321 L163,322 L163,324 L163,323 L163,322 L163,321 L163,320 L163,318 L164,317 L164,314 L164,312 L165,310 L165,307 L165,304 L166,300 L166,297 L167,294 L167,292 L167,290 L167,286 L168,283 L169,280 L169,278 L170,277 L170,276 L171,273 L172,271 L173,269 L173,268 L173,267 L173,266 L174,266 L174,265 L175,264 L176,264 L176,263 L176,262 L177,261 L178,259 L178,258 L178,256 L179,253 L179,249 L179,247 L179,244 L179,243 L179,241 L179,239 L180,239 L180,240 L180,241 L180,242 L180,244 L180,246 L180,247 L180,249 L179,250 L179,251 L179,252 L179,253 L179,254 L179,255 L179,256 L179,257 L179,258 L180,259 L181,259 L182,259 L183,260 L184,260 L185,260 L186,260 L186,261 L187,263 L187,266 L186,270 L186,274 L186,277 L186,280 L186,283 L186,285 L186,286 L186,287 L186,288 L187,287 L188,286 L189,285 L190,284 L191,283 L192,283 L193,282 L193,281 L193,280 L192,279 L192,278 L191,277 L191,276 L190,273 L190,271 L189,269 L189,267 L190,265 L190,262 L191,259 L191,254 L192,247 L193,241 L193,237 L193,233 L193,229 L193,226 L194,223 L195,221 L195,220 L196,219 L196,218 L196,216 L197,215 L197,214 L197,212 L198,211 L198,210 L199,212 L200,214 L200,215 L201,217 L202,216 L203,213 L203,211 L204,209 L204,208 L205,208 L207,208 L208,207 L209,205 L210,202 L211,200 L212,197 L214,195 L215,195 L215,193 L216,193 L216,192 L216,193 L216,195 L216,197 L216,198 L216,200 L216,202 L215,205 L215,207 L214,210 L214,211 L213,212 L213,213 L212,215 L212,216 L212,217 L212,219 L212,220 L211,221 L211,222 L211,224 L211,225 L211,226 L210,227 L210,229 L210,230 L210,231 L210,232 L210,233 L210,234 L210,235 L210,237 L210,239 L210,241 L210,242 L210,244 L210,246 L210,248 L210,250 L210,251 L210,253 L210,255 L210,257 L209,259 L209,261 L209,264 L209,266 L209,268 L209,270 L209,272 L209,274 L209,276 L209,278 L209,281 L208,283 L208,286 L208,289 L208,293 L208,296 L208,299 L208,302 L208,305 L208,308 L208,310 L208,312 L208,314 L208,316 L208,317 L208,319 L208,320 L208,322 L208,324 L208,325 L208,326 L208,327 L208,329 L208,330 L208,329 L208,328 L209,328 L209,327 L210,325 L211,323 L212,321 L213,319 L215,316 L217,313 L218,311 L218,312 L218,314 L218,316 L218,318 L218,321 L218,323 L218,324 L218,323 L218,322 L219,321 L221,319 L222,315 L224,311 L225,308 L226,305 L226,301 L227,298 L227,295 L227,293 L228,291 L228,289 L228,287 L228,285 L228,283 L228,282 L228,281 L228,280 L229,279 L229,277 L229,275 L229,273 L229,272 L230,271 L230,269 L230,268 L230,267 L230,266 L231,266 L232,266 L232,267 L232,268 L232,269 L232,271 L232,273 L232,275 L232,276 L232,278 L232,279 L232,281 L232,282 L232,283 L232,284 L232,286 L232,287 L232,288 L231,290 L231,292 L231,293 L231,295 L231,297 L231,299 L231,301 L231,303 L232,305 L232,306 L232,308 L233,309 L233,311 L233,312 L234,313 L234,314 L234,315 L234,314 L235,313 L235,311 L236,310 L237,308 L237,307 L238,305 L239,304 L240,302 L241,301 L241,300 L241,301 L241,302 L241,303 L241,304 L241,305 L241,306 L241,307 L241,308 L241,309 L241,311 L241,313 L240,314 L240,316 L240,317 L240,318 L239,319 L239,320 L239,321 L239,323 L239,325 L239,327 L240,329 L241,331 L242,333 L242,335 L243,335 L243,336 L244,337 L244,338 L244,337 L244,336 L245,335 L246,333 L246,331 L247,330 L248,328 L249,326 L250,325 L251,324 L251,323 L251,324 L251,325 L251,326 L251,327 L251,329 L250,330 L250,331 L250,333 L249,334 L249,336 L249,337 L249,339 L248,341 L248,343 L248,345 L248,348 L249,351 L249,354 L249,357 L249,361 L249,365 L249,369 L249,372 L249,374 L250,376 L250,378 L251,379 L251,378 L251,376 L252,373 L253,368 L254,362 L256,358 L256,354 L256,352 L256,350 L256,348 L256,346 L256,343 L257,341 L257,339 L258,337 L259,335 L259,334 L260,332 L260,331 L261,330 L261,329 L261,328 L261,329 L261,330 L261,329 L261,328 L261,327 L262,327 L262,328 L263,328 L263,329 L263,330 L264,330 L264,328 L265,326 L266,322 L266,320 L266,318 L266,317 L266,316 L265,314 L265,312 L264,310 L264,307 L264,305 L263,301 L263,298 L262,295 L262,292 L261,289 L261,287 L261,285 L261,283 L261,282 L261,281 L261,280 L262,279 L262,278 L262,277 L263,277 L263,278 L264,278 L264,279 L264,280 L264,281 L265,281 L265,280 L266,278 L267,277 L268,276 L269,275 L270,275 L270,276 L271,276 L271,275 L272,274 L272,273 L273,273 L274,273 L274,274 L274,275 L274,276 L274,277 L274,278 L274,279 L274,281 L274,282 L274,283 L274,284 L274,285 L274,287 L274,289 L274,291 L274,294 L274,297 L275,300 L276,303 L276,307 L276,309 L276,310 L276,311 L276,312 L276,311 L276,309 L276,306 L277,302 L278,299 L278,296 L278,295 L278,293 L278,294 L278,295 L279,295 L279,294 L280,292 L280,290 L280,287 L280,285 L279,281 L278,279 L278,276 L278,275 L277,273 L277,272 L277,270 L276,268 L276,267 L276,266 L276,265 L276,264 L276,262 L276,261 L277,261 L278,261 L278,260 L278,259 L278,258 L279,257 L279,256 L279,255 L280,254 L280,253 L281,251 L281,250 L281,249 L282,249 L282,250 L282,251 L283,251 L283,253 L283,254 L283,256 L284,258 L285,259 L285,260 L286,261 L286,263 L286,264 L286,265 L286,266 L287,266 L287,268 L287,269 L287,271 L287,272 L287,273 L287,275 L287,278 L287,281 L287,285 L288,290 L288,293 L288,297 L288,300 L288,303 L288,304 L288,305 L288,304 L288,303 L289,301 L289,298 L290,295 L291,292 L291,290 L291,289 L292,289 L292,291 L292,293 L293,294 L293,295 L294,294 L294,293 L294,292 L295,292 L296,293 L296,294 L297,294 L298,293 L299,292 L300,292 L301,291 L302,289 L303,286 L303,281 L303,277 L303,276 L303,275 L303,273 L304,271 L304,269 L305,267 L305,264 L305,262 L305,260 L306,259 L306,258 L306,257 L305,257 L305,256 L304,256 L304,255 L303,255 L304,256 L305,258 L305,260 L305,261 L306,263 L306,265 L306,266 L306,268 L306,269 L307,271 L307,273 L308,274 L308,276 L309,278 L310,278 L310,279 L310,280 L311,279 L312,279 L313,279 L314,278 L316,275 L317,272 L318,269 L319,267 L319,266 L319,264 L319,261 L319,258 L319,255 L319,253 L318,250 L318,247 L318,243 L319,239 L320,236 L320,233 L320,230 L321,227 L322,224 L323,222 L324,220 L325,218 L325,216 L325,214 L326,212 L327,209 L327,207 L327,208 L328,209 L329,211 L330,214 L330,217 L331,222 L331,225 L331,227 L332,226 L332,224 L333,221 L334,217 L334,215 L335,214 L335,215 L336,218 L337,221 L338,222 L339,220 L340,218 L341,217 L342,217 L342,218 L342,220 L343,220 L344,221 L345,220 L346,219 L346,218 L346,219 L345,219 L344,218 L343,217 L342,216 L341,215 L340,212 L339,210 L338,207 L338,205 L337,201 L337,198 L337,193 L337,190 L337,186 L338,183 L338,179 L339,175 L339,171 L339,166 L339,162 L339,157 L339,153 L340,148 L340,144 L341,141 L341,138 L341,136 L341,134 L342,132 L342,130 L342,129 L343,127 L343,125 L343,123 L343,121 L343,119 L343,117 L344,114 L344,111 L344,108 L344,105 L344,104 L344,102 L345,101 L345,100 L345,98 L346,97 L347,97 L348,97 L349,99 L349,100 L349,102 L350,105 L350,108 L350,111 L351,112 L351,111 L351,110 L351,109 L351,107 L352,105 L352,103 L352,102 L352,101 L352,102 L353,103 L353,105 L354,105 L354,106 L354,107 L354,106 L354,105 L355,100 L356,97 L356,95 L357,96 L358,100 L359,102 L359,104 L359,105 L359,103 L359,102 L359,101 L358,100 L358,101 L359,101 L359,102 L359,103 L359,107 L359,112 L359,117 L359,122 L359,123 L359,124 L359,123 L359,122 L359,121 L359,120 L359,119 L359,118 L360,117 L360,116 L361,114 L361,112 L361,111 L361,109 L362,107 L363,106 L363,105 L364,103 L364,102 L364,100 L364,98 L365,95 L366,92 L366,90 L367,87 L368,84 L368,81 L369,78 L371,74 L371,71 L373,67 L374,63 L375,58 L376,54 L378,50 L378,47 L379,44 L379,40 L379,36 L379,33 L379,29 L380,26 L380,23 L381,20 L381,17 L381,15 L381,13 L381,12 L381,11 L381,10 L381,9 L382,9 L382,8 L382,7 L382,6 L382,7 L382,9 L382,10 L382,12 L382,14 L382,17 L382,19 L382,21 L382,23 L382,26 L382,28 L382,30 L382,33 L383,35 L383,38 L383,40 L384,42 L385,45 L386,47 L386,49 L387,51 L387,53 L388,56 L388,58 L388,61 L388,63 L388,66 L389,68 L389,70 L389,73 L389,75 L389,77 L389,79 L388,80 L388,82 L388,83 L388,85 L387,86 L386,88 L386,89 L386,91 L386,92 L385,94 L385,95 L385,97 L385,98 L385,99 L385,100 L385,101 L384,102 L384,103 L384,104 L384,105 L384,106 L384,107 L384,108 L384,109 L384,110 L384,111 L384,112 L384,113 L384,114 L384,115 L383,116 L383,117 L383,118 L382,118 L381,119 L380,119 L380,120 L380,121 L380,122 L380,123 L380,124 L380,125 L380,126 L380,127 L380,128 L380,129 L379,129 L379,128 L379,127 L379,126 L379,125 L379,124 L379,123 L380,123 L380,122 L381,122 L381,121 L381,120 L382,119 L382,118 L383,117 L384,116 L384,115 L385,114 L386,114 L387,114 L387,115 L388,115 L389,114 L389,111 L390,107 L391,103 L391,102 L392,103 L393,104 L394,104 L395,103 L396,100 L396,97 L397,98 L397,95 L398,89 L398,81 L399,74 L400,72 L401,71 L401,70 L402,69 L403,67 L404,65 L404,63 L405,61 L405,58 L405,56 L405,57 L405,58 L405,59 L405,60 L405,61 L405,62 L404,63 L404,65 L404,67 L404,70 L405,73 L405,75 L405,78 L405,81 L405,83 L406,85 L406,87 L406,89 L406,90 L406,91 L406,93 L407,94 L407,96 L407,97 L407,98 L407,99 L407,100 L407,101 L408,101 L408,102 L409,102 L410,104 L410,105 L411,106 L411,108 L411,110 L410,113 L408,114 L408,115 L408,116 L408,117 L409,117 L409,118 L410,119 L410,120 L410,123 L410,128 L411,133 L411,136 L411,139 L411,140 L411,142 L411,143 L411,142 L411,140 L412,138 L412,136 L412,134 L412,132 L412,130 L413,129 L413,130 L413,132 L414,133 L414,134 L415,133 L415,131 L416,129 L416,127 L417,124 L417,121 L418,117 L418,113 L418,108 L418,106 L419,104 L420,102 L420,100 L421,97 L421,94 L422,90 L422,88 L422,86 L423,85 L423,86 L423,87 L423,88 L423,89 L423,90 L423,91 L423,92 L424,92 L424,93 L424,94 L424,95 L424,98 L424,101 L425,104 L425,107 L426,110 L427,112 L428,114 L429,117 L430,120 L430,122 L430,124 L429,127 L428,129 L428,132 L428,133 L428,135 L428,136 L429,138 L429,141 L430,144 L430,146 L431,149 L431,151 L432,153 L432,156 L432,158 L432,160 L432,161 L432,160 L433,159 L433,156 L433,153 L433,151 L433,149 L433,147 L433,145 L433,143 L433,141 L433,140 L433,139 L433,138 L434,136 L434,134 L435,130 L435,127 L436,125 L436,122 L437,119 L437,116 L438,112 L438,109 L439,106 L439,103 L440,100 L440,96 L442,92 L442,90 L442,88 L443,86 L443,85 L443,83 L443,81 L444,81 L444,82 L444,83 L445,83 L445,84 L445,86 L447,89 L448,92 L448,94 L449,92 L449,90 L449,88 L450,88 L451,88 L452,90 L453,91 L453,92 L454,92 L455,90 L455,88 L456,88 L457,89 L457,90 L458,89 L458,88 L458,87 L458,86 L457,86 L457,88 L457,89 L457,91 L456,93 L456,95 L456,97 L456,98 L456,100 L456,101 L456,102 L456,103 L456,105 L457,106 L458,108 L459,110 L461,111 L463,113 L464,115 L465,117 L466,119 L466,121 L466,122 L466,124 L466,127 L466,130 L466,134 L467,136 L467,139 L468,143 L468,145 L469,148 L469,150 L469,151 L469,153 L470,154 L470,155 L470,154 L470,153 L470,150 L471,147 L471,143 L471,139 L471,136 L471,132 L471,129 L471,127 L471,125 L471,123 L471,119 L472,114 L473,110 L474,105 L474,99 L475,94 L475,89 L475,83 L475,79 L475,75 L476,71 L476,67 L476,63 L477,58 L477,54 L477,51 L477,48 L477,46 L477,44 L477,43 L477,44 L478,44 L478,45 L478,46 L479,48 L479,49 L479,51 L479,54 L479,56 L479,58 L479,59 L479,61 L479,62 L479,63 L479,64 L479,66 L479,67 L479,69 L479,72 L480,74 L481,76 L481,78 L482,80 L482,82 L483,84 L483,85 L483,86 L483,87 L483,88 L484,90 L484,91 L484,92 L484,94 L484,95 L484,97 L484,98 L484,100 L484,101 L484,102 L484,103 L484,104 L484,105 L484,106 L484,107 L484,108 L484,109 L484,110 L484,111 L484,112 L485,114 L485,115 L485,116 L485,117 L485,119 L485,120 L485,121 L485,122 L485,123 L485,124 L485,125 L485,126 L485,127 L485,128 L485,129 L486,129 L486,130 L486,132 L486,133 L486,134 L486,135 L486,136 L486,137 L486,138 L486,139 L486,140 L486,141 L486,142 L486,143 L486,144 L486,145 L486,146 L486,147 L486,149 L486,150 L486,151 L486,153 L486,154 L486,155 L487,156 L487,158 L487,159 L487,160 L487,161 L487,163 L487,165 L487,166 L487,167 L487,169 L487,170 L487,172 L487,173 L487,175 L488,177 L488,179 L488,181 L488,183 L488,185 L489,188 L489,190 L489,193 L489,195 L489,197 L489,199 L490,202 L490,204 L490,206 L490,209 L490,211 L490,213 L490,216 L490,219 L490,222 L490,225 L490,228 L490,231 L490,234 L490,237 L490,240 L490,243 L490,245 L490,247 L490,249 L490,250 L490,249 L490,248 L491,245 L493,242 L494,239 L495,239 L496,240 L496,242 L497,244 L497,245 L497,244 L497,242 L496,241 L496,240 L497,240 L497,241 L498,241 L499,240 L499,239 L499,238 L499,237 L499,236 L499,234 L499,233 L499,232 L498,231 L498,229 L498,228 L498,227 L498,225 L498,223 L498,221 L498,219 L498,217 L498,216 L498,215 L498,213 L498,212 L498,210 L498,209 L498,208 L498,207 L498,206 L498,205 L498,204 L498,203 L498,202 L498,201 L498,200 L498,198 L498,195 L498,193 L498,191 L498,189 L498,186 L498,184 L498,182 L498,180 L498,177 L498,175 L498,173 L498,171 L498,170 L498,168 L498,166 L498,165 L499,163 L499,162 L499,161 L499,160 L499,159 L499,158 L499,157 L498,156 L498,154 L498,153 L498,151 L498,150 L498,149 L498,148 L498,146 L498,145 L498,144 L498,143 L498,142 L498,141 L498,140 L498,139 L499,139 L499,138 L499,137 L499,136 L499,135 L499,134 L499,133 L498,132 L498,134 L499,135 L499,137 L500,139 L500,141 L500,144 L500,146 L501,149 L501,152 L502,155 L503,158 L504,162 L506,165 L507,168 L508,170 L509,173 L509,175 L510,177 L511,179 L511,181 L511,183 L512,184 L512,186 L513,187 L513,189 L513,190 L513,192 L513,193 L514,195 L514,197 L515,199 L515,200 L515,202 L516,204 L517,206 L517,208 L517,210 L518,212 L518,215 L518,216 L518,218 L518,219 L518,218 L518,217 L518,216 L518,215 L519,214 L519,212 L519,211 L519,209 L519,206 L519,204 L519,202 L519,200 L519,199 L519,198 L519,196 L519,194 L519,192 L519,190 L519,188 L519,187 L518,185 L518,183 L518,181 L518,179 L518,177 L517,176 L517,173 L517,171 L517,169 L517,167 L517,165 L517,163 L517,162 L516,161 L516,159 L516,158 L516,157 L516,156 L516,154 L516,153 L516,152 L516,150 L516,149 L516,146 L516,144 L516,141 L516,138 L516,134 L515,132 L515,128 L515,125 L515,122 L515,119 L515,116 L515,113 L515,111 L514,108 L514,106 L514,104 L514,102 L514,101 L514,100 L514,99 L514,98 L514,99 L515,99 L515,100 L515,101 L516,102 L517,103 L518,104 L518,105 L519,104 L519,102 L519,100 L520,97 L520,95 L521,95 L521,96 L522,97 L523,97 L523,96 L523,95 L523,91 L524,88 L524,86 L524,85 L524,83 L524,82 L524,80 L524,79 L524,78 L524,75 L525,72 L525,68 L525,64 L526,60 L526,57 L526,55 L526,53 L526,51 L526,49 L526,47 L526,46 L526,47 L526,48 L526,49 L527,52 L528,54 L528,56 L529,53 L529,51 L530,48 L530,46 L531,47 L532,49 L533,52 L534,54 L534,55 L535,56 L535,55 L536,53 L537,50 L537,47 L538,44 L539,40 L540,38 L540,35 L540,34 L540,35 L540,36 L540,37 L539,38 L539,39 L539,41 L538,43 L538,45 L538,48 L537,51 L537,53 L537,55 L536,57 L536,58 L536,61 L536,63 L536,66 L537,68 L537,72 L538,76 L539,80 L539,85 L540,88 L541,92 L542,95 L542,97 L542,100 L543,102 L543,103 L543,105 L543,106 L543,107 L543,108 L543,109 L543,110 L543,111 L543,112 L543,113 L543,114 L543,115 L543,116 L543,117 L542,119 L542,121 L542,123 L542,125 L542,127 L542,128 L542,127 L542,126 L542,125 L542,123 L543,122 L544,119 L545,116 L547,113 L548,109 L549,106 L549,105 L549,106 L549,108 L549,112 L550,116 L550,119 L550,120 L551,119 L551,118 L551,117 L551,116 L551,117 L551,120 L552,123 L552,125 L552,126 L552,125 L552,124 L552,125 L553,129 L553,133 L554,136 L555,138 L556,140 L557,143 L557,148 L558,153 L559,157 L560,160 L561,163 L561,167 L562,170 L562,173 L562,174 L562,176 L562,178 L562,180 L562,182 L562,185 L562,188 L562,191 L562,193 L562,195 L562,196 L562,195 L562,194 L562,193 L562,192 L562,190 L561,188 L560,186 L559,184 L559,182 L558,180 L558,178 L557,177 L557,176 L557,174 L557,173 L557,171 L557,169 L556,166 L556,164 L556,162 L555,159 L555,155 L555,151 L555,146 L555,140 L555,134 L555,131 L555,130 L555,132 L556,134 L557,136 L557,137 L557,138 L558,138 L559,135 L560,129 L562,122 L562,120 L562,122 L562,126 L563,129 L564,129 L564,127 L565,122 L566,116 L567,110 L568,106 L569,103 L570,100 L572,95 L575,89 L578,83 L580,76 L580,72 L580,68 L580,65 L581,62 L581,60 L581,58 L581,59 L581,60 L581,61 L581,62 L580,63 L580,64 L580,65 L580,67 L579,70 L579,73 L578,77 L578,81 L578,84 L577,88 L577,91 L577,95 L576,99 L575,103 L575,106 L575,108 L577,107 L578,103 L579,101 L580,100 L580,99 L581,101 L581,104 L582,108 L582,113 L582,116 L582,118 L582,117 L582,115 L583,114 L583,113 L584,114 L584,118 L585,123 L585,128 L585,132 L586,135 L586,136 L586,135 L586,136 L586,139 L588,145 L589,152 L589,161 L589,169 L590,177 L591,183 L593,188 L594,190 L594,191 L594,190 L594,189 L593,187 L593,182 L592,176 L592,170 L592,165 L592,160 L593,156 L594,153 L594,150 L594,147 L595,144 L595,140 L596,136 L597,133 L598,129 L599,125 L600,122 L601,118 L601,115 L601,113 L601,112 L602,111 L602,110 L602,111 L602,112 L602,114 L602,115 L602,117 L602,119 L602,121 L602,123 L602,126 L602,128 L601,130 L601,132 L601,134 L601,136 L601,139 L601,141 L601,144 L602,146 L602,149 L602,152 L602,155 L602,158 L603,161 L603,163 L603,166 L603,168 L603,171 L603,173 L603,175 L603,177 L603,180 L603,182 L603,184 L603,187 L603,188 L603,190 L603,192 L603,193 L603,194 L603,195 L603,194 L603,193 L603,192 L603,191 L604,190 L604,188 L604,186 L604,184 L604,183 L604,181 L604,180 L604,178 L605,176 L605,175 L606,172 L607,169 L608,166 L608,163 L609,160 L610,157 L611,154 L611,150 L611,146 L612,141 L612,136 L612,131 L612,125 L612,119 L613,114 L613,108 L614,102 L614,96 L614,92 L614,88 L614,85 L614,82 L614,80 L614,83 L615,88 L616,92 L617,95 L618,97 L618,94 L619,90 L620,83 L621,76 L622,73 L622,76 L622,83 L623,88 L623,92 L624,95 L624,94 L625,92 L626,87 L627,82 L628,79 L628,80 L628,84 L628,88 L628,90 L628,91 L628,90 L628,86 L629,82 L630,78 L631,80 L631,83 L631,85 L632,85 L632,84 L631,85 L631,88 L630,91 L630,95 L629,97 L628,100 L628,103 L627,105 L627,108 L627,111 L627,113 L627,115 L627,117 L627,120 L627,122 L627,125 L627,127 L627,130 L627,133 L627,136 L627,139 L627,141 L627,143 L627,144 L627,146 L628,148 L628,150 L628,151 L628,153 L628,155 L629,156 L629,158 L629,159 L629,161 L630,162 L630,163 L630,164 L630,165 L630,166 L630,167 L630,168 L630,169 L630,170 L630,171 L630,172 L630,173 L631,173 L631,174 L631,175 L631,176 L631,177 L631,178 L631,179 L631,180 L631,179 L631,177 L632,176 L632,174 L633,172 L633,171 L633,169 L633,168 L633,166 L634,164 L634,161 L635,158 L636,155 L637,151 L638,147 L640,143 L641,138 L643,134 L643,131 L643,128 L644,125 L644,123 L645,120 L645,119 L645,118 L645,120 L644,124 L644,128 L643,132 L642,137 L641,144 L640,150 L640,156 L641,162 L642,168 L642,173 L643,178 L644,182 L645,186 L645,190 L646,191 L646,189 L647,185 L648,180 L650,174 L652,168 L654,161 L655,155 L656,149 L657,144 L657,140 L658,137 L658,135 L659,134 L659,132 L660,131 L659,133 L658,136 L657,140 L656,144 L655,150 L655,156 L655,161 L656,165 L656,169 L656,173 L657,176 L657,178 L657,180 L658,178 L658,176 L660,173 L662,168 L664,163 L666,157 L667,150 L669,144 L670,139 L670,134 L670,131 L670,129 L670,126 L670,124 L670,123 L670,124 L670,125 L670,128 L669,132 L668,135 L667,139 L666,145 L666,150 L666,155 L667,160 L667,165 L667,170 L667,174 L667,178 L667,181 L668,183 L669,180 L669,176 L670,172 L670,167 L672,161 L673,155 L674,149 L676,144 L677,139 L677,134 L677,131 L678,129 L678,130 L678,131 L678,132 L677,131 L677,129 L677,128 L677,126 L677,123 L676,121 L676,119 L676,117 L676,116 L676,114 L676,113 L676,112 L675,111 L675,110 L675,108 L675,107 L675,106 L675,105 L675,104 L675,102 L675,101 L675,100 L675,99 L675,98 L675,97 L675,96 L675,95 L676,95 L676,94 L677,94 L677,93 L678,92 L678,91 L679,90 L679,89 L679,88 L679,87 L679,86 L679,85 L679,84 L679,85 L679,86 L679,87 L679,88 L679,89 L679,90 L678,91 L678,92 L678,93 L678,94 L678,95 L678,97 L677,99 L677,100 L677,102 L677,103 L677,105 L676,106 L676,107 L676,109 L675,111 L675,113 L674,115 L674,117 L674,119 L674,122 L675,124 L676,127 L676,130 L677,134 L677,136 L677,139 L678,142 L678,144 L678,147 L678,150 L678,153 L678,156 L678,159 L678,161 L679,163 L679,165 L679,166 L679,168 L679,167 L680,166 L680,165 L680,164 L680,163 L681,163 L681,162 L682,162 L682,161 L682,160 L683,159 L683,158 L684,157 L684,155 L684,154 L685,152 L685,151 L686,150 L686,149 L687,148 L687,149 L687,151 L688,154 L689,156 L689,159 L689,162 L689,163 L690,164 L690,163 L690,161 L691,157 L692,152 L693,149 L694,149 L694,150 L694,153 L694,157 L694,160 L695,163 L696,163 L697,162 L697,161 L698,161 L698,160 L699,159 L699,158 L699,157 L699,156 L699,155 L699,154 L700,151 L700,148 L701,144 L701,140 L701,137 L701,133 L701,129 L701,126 L701,122 L701,118 L701,115 L701,112 L702,108 L702,104 L703,100 L703,97 L704,95 L704,91 L704,88 L704,85 L705,83 L705,81 L705,84 L705,89 L705,95 L705,103 L704,112 L704,121 L704,127 L705,132 L706,134 L707,134 L707,132 L707,127 L707,120 L707,112 L707,101 L708,90 L709,83 L709,79 L709,78 L709,79 L709,83 L709,91 L709,99 L709,108 L710,117 L711,123 L713,125 L714,125 L714,123 L714,117 L714,109 L715,100 L718,90 L719,85 L719,87 L719,93 L720,100 L720,108 L719,117 L719,124 L719,130 L721,134 L723,135 L723,134 L724,129 L724,122 L725,113 L726,103 L728,95 L729,91 L730,90 L730,94 L729,101 L728,110 L728,118 L728,125 L728,131 L728,134 L729,135 L730,132 L730,128 L731,122 L731,116 L733,108 L735,102 L736,100 L736,101 L736,102 L736,103 L736,104 L736,105 L736,106 L736,108 L736,111 L736,113 L736,114 L736,113 L736,112 L737,112 L737,111 L737,110 L737,109 L737,107 L738,105 L738,102 L738,100 L738,99 L738,101 L738,103 L737,105 L737,106 L737,105 L738,103 L739,100 L740,96 L741,95 L741,94 L741,95 L741,96 L741,97 L742,97 L743,96 L745,95 L746,94 L747,94 L748,94 L748,95 L749,94 L750,92 L750,88 L751,86 L751,88 L751,89 L751,90 L752,90 L753,89 L753,88 L753,87 L753,86 L753,85 L753,86 L753,87 L753,88 L753,90 L752,91 L752,92 L752,93 L751,95 L751,96 L750,98 L750,100 L750,102 L749,104 L748,106 L748,109 L747,112 L746,114 L745,117 L744,119 L743,122 L743,125 L742,127 L742,130 L742,133 L742,136 L742,139 L743,142 L743,146 L744,149 L744,152 L744,155 L744,156 L745,157 L745,156 L746,154 L747,152 L749,149 L750,146 L751,142 L751,139 L751,137 L751,134 L752,131 L753,127 L753,124 L754,121 L754,118 L754,115 L755,112 L756,110 L756,107 L757,105 L758,103 L758,101 L759,99 L760,97 L760,95 L761,93 L761,92 L761,90 L761,88 L762,88 L762,87 L762,88 L762,90 L762,92 L762,94 L762,96 L762,99 L762,102 L762,104 L761,107 L761,109 L761,111 L761,113 L761,114 L760,116 L760,118 L760,120 L760,123 L760,124 L760,126 L760,127 L760,128 L760,129 L760,131 L760,130 L761,130 L762,129 L763,129 L764,129 L765,129 L766,129 L766,130 L766,131 L767,133 L767,134 L767,136 L767,139 L767,141 L767,143 L767,145 L767,147 L767,150 L767,153 L767,155 L767,158 L767,161 L767,163 L767,167 L767,170 L768,173 L768,176 L769,178 L769,180 L770,182 L770,183 L770,184 L770,183 L770,182 L771,181 L772,180 L772,179 L773,177 L774,176 L774,173 L775,172 L775,171 L774,171 L773,170 L773,169 L772,167 L772,165 L772,163 L772,162 L772,161 L773,161 L774,161 L775,163 L775,165 L776,167 L777,168 L777,167 L777,165 L778,163 L778,161 L778,160 L778,159 L778,158 L778,157 L778,155 L778,154 L778,151 L778,149 L779,146 L780,141 L780,137 L780,133 L780,129 L780,125 L780,121 L781,117 L782,114 L782,111 L782,107 L783,105 L783,102 L783,101 L783,100 L783,101 L783,102 L783,104 L783,105 L783,106 L783,107 L783,109 L782,112 L782,114 L782,117 L782,121 L783,123 L784,126 L784,129 L785,132 L786,134 L786,137 L787,140 L787,142 L787,145 L788,149 L788,151 L789,155 L789,158 L789,160 L790,163 L790,166 L791,169 L791,172 L791,175 L792,178 L792,180 L792,184 L792,187 L792,190 L792,193 L792,195 L792,198 L792,201 L792,204 L791,207 L791,210 L791,212 L790,215 L790,218 L790,221 L790,224 L790,227 L789,229 L789,232 L789,234 L789,237 L789,239 L788,240 L788,241 L788,240 L788,238 L788,236 L789,234 L789,232 L789,228 L790,224 L790,221 L791,217 L791,212 L792,209 L792,205 L792,201 L793,197 L794,193 L795,189 L796,186 L796,183 L797,179 L797,176 L798,172 L799,169 L799,166 L799,162 L800,158 L800,155 L801,151 L801,148 L801,145 L801,141 L801,139 L802,136 L802,133 L802,130 L802,128 L802,126 L802,124 L803,122 L803,120 L803,119 L803,117 L804,117 L804,116 L804,117 L804,119 L804,120 L804,121 L804,122 L804,123 L804,124 L804,125 L804,126 L804,127 L803,128 L803,129 L802,131 L802,132 L802,134 L802,136 L802,139 L802,141 L802,144 L803,147 L803,150 L803,153 L803,156 L803,160 L803,163 L803,166 L804,169 L804,171 L804,174 L804,176 L804,178 L804,180 L805,183 L805,184 L805,186 L806,187 L806,188 L806,189 L806,190 L806,191 L807,192 L807,193 L807,194 L808,195 L808,196 L808,197 L808,198 L809,200 L809,202 L809,203 L809,204 L809,205 L809,207 L809,208 L809,210 L809,212 L809,214 L809,217 L809,219 L809,222 L809,225 L810,228 L810,232 L810,235 L811,238 L811,242 L811,244 L811,247 L811,249 L811,252 L812,255 L812,258 L812,261 L812,265 L811,268 L811,273 L811,277 L811,281 L810,286 L810,290 L809,294 L809,298 L809,301 L809,303 L808,305 L808,306 L808,305 L808,304 L808,303 L808,302 L808,301 L808,300 L808,299 L808,298 L808,297 L808,295 L808,293 L809,290 L809,286 L809,281 L810,278 L811,274 L811,270 L811,266 L812,263 L812,259 L813,256 L814,252 L814,249 L814,245 L814,242 L814,238 L815,234 L815,230 L815,227 L815,224 L815,220 L815,217 L816,214 L816,211 L816,207 L816,204 L817,200 L818,196 L818,192 L819,188 L819,185 L819,182 L820,180 L820,178 L820,177 L820,176 L820,175 L820,174 L820,173 L820,172 L820,171 L820,170 L821,169 L821,168 L821,167 L821,166 L821,165 L821,164 L821,163 L821,162 L821,161 L821,160 L821,158 L821,157 L821,156 L821,155 L821,154 L821,152 L821,151 L821,148 L821,146 L821,145 L822,145 L822,147 L822,149 L823,151 L823,154 L823,155 L823,156 L823,155 L823,154 L823,153 L823,152 L823,153 L823,154 L823,155 L823,156 L822,159 L822,162 L822,164 L822,167 L821,170 L821,172 L821,174 L821,175 L821,177 L821,178 L821,180 L821,181 L821,183 L821,184 L822,185 L822,187 L823,188 L823,190 L824,191 L824,192 L824,193 L825,193 L826,191 L826,190 L827,190 L828,189 L828,188 L829,189 L830,192 L831,197 L831,203 L831,207 L832,210 L832,209 L833,206 L835,202 L836,199 L836,198 L837,200 L837,203 L838,206 L838,208 L838,207 L839,205 L840,208 L840,213 L840,220 L840,227 L839,232 L840,234 L840,235 L841,233 L841,229 L843,224 L844,218 L845,212 L845,208 L845,204 L844,199 L844,195 L844,191 L844,188 L844,186 L843,182 L843,177 L843,172 L844,166 L845,161 L845,156 L846,150 L846,145 L847,141 L847,138 L847,136 L848,134 L848,132 L848,131 L848,130 L848,128 L849,127 L848,127 L848,126 L848,125 L848,124 L848,123 L849,123 L849,122 L849,121 L849,119 L849,117 L849,114 L849,110 L849,106 L850,101 L850,96 L850,91 L850,87 L850,84 L850,83 L850,82 L851,82 L851,83 L851,85 L851,88 L851,89 L851,90 L852,87 L853,81 L855,74 L855,70 L855,73 L855,75 L855,77 L857,73 L859,67 L860,64 L860,65 L859,68 L859,71 L858,74 L858,78 L858,81 L857,85 L856,89 L855,92 L854,97 L853,102 L853,107 L852,112 L851,117 L851,121 L851,125 L851,129 L851,133 L851,136 L851,138 L851,140 L851,141 L851,142 L851,143 L851,142 L851,143 L851,144 L850,145 L850,144 L850,145 L850,146 L850,148 L850,149 L850,151 L850,152 L850,153 L851,153 L851,154 L852,155 L852,156 L853,157 L853,158 L853,159 L853,160 L854,161 L855,161 L856,160 L856,159 L857,158 L858,156 L858,155 L859,154 L859,153 L860,152 L860,151 L860,150 L860,149 L860,146 L861,144 L861,142 L861,139 L862,136 L863,133 L864,129 L865,125 L865,124 L865,125 L867,126 L868,127 L870,128 L871,128 L872,127 L872,124 L872,123 L872,122 L872,121 L872,119 L873,117 L873,113 L874,107 L876,101 L877,96 L879,91 L880,87 L880,84 L880,82 L881,81 L881,80 L881,79 L882,79 L882,78 L882,77 L883,77 L883,76 L884,76 L884,77 L884,78 L884,79 L885,80 L885,83 L885,85 L885,89 L885,92 L885,96 L883,100 L882,104 L881,108 L880,113 L880,118 L880,123 L880,128 L880,133 L880,138 L880,142 L880,147 L880,151 L881,155 L881,158 L882,160 L882,161 L883,158 L884,156 L885,152 L887,148 L888,142 L890,136 L892,131 L893,126 L895,122 L895,118 L896,115 L897,114 L897,113 L897,114 L897,115 L897,117 L897,119 L897,122 L898,124 L898,126 L899,128 L899,129 L900,129 L900,130 L900,131 L900,132 L899,135 L899,138 L898,142 L897,144 L897,145 L897,146 L897,147 L896,149 L895,153 L895,156 L894,159 L894,162 L894,165 L893,168 L892,172 L891,173 L891,174 L891,173 L892,172 L892,171 L892,170 L893,170 L893,169 L894,169 L895,169 L896,168 L897,168 L897,167 L898,167 L899,166 L899,164 L901,162 L902,159 L903,156 L903,154 L903,153 L903,152 L903,151 L902,150 L902,148 L902,146 L902,144 L903,143 L903,141 L904,139 L905,137 L905,134 L907,132 L907,128 L909,124 L910,121 L910,119 L911,117 L912,114 L914,112 L915,110 L916,109 L916,108 L917,107 L917,105 L918,105 L918,104 L918,105 L918,106 L918,107 L918,110 L918,112 L919,114 L919,117 L919,118 L919,117 L920,115 L921,113 L922,111 L923,109 L924,107 L925,107 L926,104 L927,100 L929,95 L930,90 L930,88 L931,86 L931,84 L931,83 L932,82 L932,83 L932,84 L932,85 L932,86 L932,87 L932,89 L932,91 L932,94 L932,96 L932,99 L932,101 L932,104 L931,107 L930,109 L929,112 L929,113 L929,114 L929,113 L930,112 L931,110 L933,108 L934,107 L935,106 L936,107 L936,109 L936,111 L936,113 L936,116 L936,119 L936,121 L935,124 L934,129 L932,132 L931,137 L931,142 L929,149 L927,156 L925,163 L923,170 L921,176 L920,179 L920,181 L920,182 L921,182 L922,179 L925,174 L927,168 L928,163 L928,162 L928,163 L928,166 L929,168 L930,169 L931,168 L934,163 L937,151 L942,139 L942,137 L942,136 L943,134 L946,132 L948,128 L950,124 L951,122 L953,119 L955,117 L958,115 L961,112 L962,110 L962,107 L961,104 L961,101 L961,97 L963,94 L964,91 L965,89 L965,87 L965,83 L965,81 L966,80 L967,79 L967,80" fill="none" stroke="red" stroke-width="3"/></svg>