<svg xmlns="http://www.w3.org/2000/svg" version="1.1" xmlns:xlink="http://www.w3.org/1999/xlink" xmlns:svgjs="http://svgjs.dev/svgjs" width="950" height="375" id="chartSvg"><path d="M8,283 L7,283 L6,283 L6,282 L6,281 L6,280 L7,278 L7,276 L8,273 L9,271 L9,270 L10,269 L10,271 L11,272 L12,274 L12,276 L12,277 L12,276 L12,275 L12,274 L13,273 L13,272 L13,271 L14,271 L14,272 L14,273 L14,274 L14,276 L15,277 L15,278 L15,277 L15,276 L15,275 L15,274 L15,273 L16,273 L16,272 L16,271 L16,270 L16,269 L17,268 L17,266 L17,265 L17,264 L17,262 L18,261 L18,260 L18,259 L18,258 L18,257 L19,256 L19,255 L19,254 L19,253 L19,251 L19,249 L20,249 L20,248 L20,247 L21,246 L21,245 L21,244 L22,244 L22,243 L22,244 L23,245 L23,246 L24,248 L24,249 L24,251 L24,252 L24,253 L24,254 L24,255 L24,256 L25,256 L25,258 L25,259 L26,261 L26,263 L26,265 L26,268 L27,270 L27,273 L28,275 L28,277 L29,278 L29,277 L29,276 L30,273 L31,271 L33,268 L34,265 L34,263 L35,262 L35,264 L35,265 L36,267 L36,269 L36,271 L37,274 L37,277 L37,279 L37,282 L38,285 L38,288 L39,291 L39,295 L40,298 L41,301 L42,304 L43,307 L45,309 L46,312 L47,315 L48,317 L48,318 L48,319 L49,319 L49,318 L49,316 L49,313 L49,309 L50,305 L50,300 L51,297 L51,293 L51,290 L52,288 L52,285 L53,282 L53,280 L53,278 L54,276 L55,275 L55,274 L56,273 L57,274 L58,276 L59,277 L60,278 L60,279 L61,280 L61,279 L61,277 L62,275 L63,274 L64,274 L64,275 L65,276 L65,275 L65,273 L65,271 L65,266 L66,261 L67,256 L68,251 L69,247 L69,245 L70,243 L70,242 L70,241 L70,242 L70,243 L71,245 L72,248 L72,250 L73,254 L73,257 L73,261 L73,264 L73,268 L73,271 L73,274 L73,277 L73,281 L73,284 L73,288 L73,291 L73,295 L73,299 L73,303 L73,308 L74,313 L75,317 L76,321 L77,325 L78,330 L79,333 L80,337 L81,341 L82,344 L83,348 L85,351 L85,353 L86,355 L87,357 L87,359 L88,360 L88,361 L88,362 L88,363 L89,364 L89,365 L89,366 L89,367 L90,368 L90,369 L90,370 L90,371 L90,372 L91,372 L91,373 L91,374 L91,375 L92,375 L92,376 L92,377 L92,378 L92,379 L92,380 L93,380 L93,381 L93,379 L93,377 L93,373 L94,369 L94,365 L94,361 L94,357 L94,353 L94,349 L94,345 L94,340 L94,336 L94,332 L94,328 L94,323 L95,318 L95,314 L95,311 L95,308 L95,305 L95,302 L95,299 L95,295 L95,293 L95,291 L95,288 L95,286 L95,285 L95,283 L95,282 L95,281 L95,280 L95,279 L94,278 L94,277 L94,276 L94,275 L94,274 L94,273 L94,274 L95,275 L95,276 L95,277 L96,278 L97,277 L97,275 L98,274 L99,273 L99,272 L100,271 L100,270 L100,268 L100,266 L101,264 L101,261 L102,259 L103,258 L104,256 L105,256 L106,258 L107,259 L108,261 L109,264 L109,266 L109,268 L110,270 L110,271 L110,272 L110,271 L110,269 L111,268 L112,266 L112,265 L112,264 L113,264 L113,265 L113,266 L114,268 L114,271 L115,273 L116,275 L116,277 L117,278 L117,279 L117,278 L117,276 L117,273 L117,270 L117,265 L118,261 L119,257 L119,254 L120,252 L120,251 L121,249 L122,247 L122,246 L123,245 L123,246 L124,247 L124,249 L125,251 L126,253 L126,254 L126,253 L127,251 L127,249 L128,247 L129,246 L129,244 L130,244 L131,245 L132,246 L132,248 L132,250 L132,252 L132,254 L132,257 L132,259 L132,261 L132,264 L132,266 L132,268 L132,271 L132,273 L132,276 L132,278 L132,280 L132,281 L132,283 L132,285 L132,287 L133,289 L133,290 L133,291 L134,291 L134,290 L135,288 L136,284 L138,281 L140,278 L141,276 L141,277 L141,278 L141,281 L141,282 L142,283 L142,284 L142,285 L143,283 L144,282 L145,284 L145,288 L146,292 L146,297 L146,300 L147,304 L148,306 L149,309 L150,311 L150,312 L150,311 L150,309 L151,306 L151,303 L151,299 L151,294 L151,290 L151,286 L151,282 L151,279 L151,276 L151,273 L152,271 L152,268 L152,264 L153,262 L153,260 L153,258 L154,256 L154,254 L154,252 L154,251 L154,249 L154,248 L155,249 L155,251 L156,253 L156,255 L157,257 L157,258 L157,259 L157,257 L158,256 L158,254 L159,252 L159,251 L160,251 L160,253 L160,254 L161,256 L161,255 L162,253 L163,251 L164,248 L165,246 L166,245 L166,247 L166,249 L166,252 L166,255 L166,259 L166,262 L166,264 L166,267 L166,269 L166,271 L166,273 L166,275 L166,276 L167,276 L167,275 L168,273 L168,271 L170,267 L172,264 L173,262 L174,261 L174,262 L174,264 L174,265 L174,266 L174,267 L174,268 L174,267 L175,266 L176,265 L176,264 L177,264 L178,266 L178,268 L178,270 L178,271 L178,272 L178,271 L177,268 L177,264 L177,260 L177,254 L177,249 L178,244 L178,241 L178,237 L178,233 L179,230 L179,227 L180,226 L180,227 L181,229 L182,232 L183,234 L183,237 L184,238 L184,237 L185,235 L186,233 L187,232 L188,231 L189,231 L189,232 L190,233 L190,234 L191,232 L192,231 L192,230 L192,232 L193,234 L193,237 L193,240 L193,242 L193,244 L193,246 L193,247 L193,249 L193,251 L193,252 L193,254 L193,256 L193,257 L193,259 L193,261 L193,264 L193,266 L193,270 L193,273 L194,277 L194,280 L195,283 L195,284 L195,283 L195,282 L195,279 L196,275 L196,270 L197,264 L198,258 L199,252 L200,248 L200,245 L201,243 L201,241 L202,239 L202,237 L202,235 L202,234 L202,233 L203,232 L203,231 L203,230 L203,231 L204,233 L204,235 L204,237 L204,238 L204,239 L205,238 L205,237 L205,235 L206,234 L206,233 L207,233 L207,234 L207,236 L207,238 L207,239 L207,240 L208,239 L209,237 L210,235 L211,234 L211,235 L211,237 L211,240 L211,243 L211,245 L211,247 L211,249 L210,251 L210,253 L210,254 L210,255 L210,256 L210,255 L211,253 L213,251 L214,249 L215,248 L216,248 L216,247 L216,248 L216,249 L216,251 L216,254 L216,256 L216,259 L216,261 L216,262 L217,261 L217,260 L218,259 L219,259 L219,261 L219,264 L219,267 L220,271 L220,274 L220,277 L220,280 L220,283 L221,286 L221,288 L222,290 L222,292 L222,294 L223,295 L223,298 L224,299 L224,301 L224,303 L225,304 L225,306 L226,308 L226,309 L226,310 L227,311 L227,312 L227,313 L227,314 L227,315 L228,315 L228,316 L228,315 L228,314 L228,312 L228,310 L228,306 L229,302 L229,298 L230,295 L231,291 L232,288 L232,285 L233,282 L234,280 L234,277 L235,274 L237,271 L237,268 L238,266 L239,264 L239,265 L240,267 L240,270 L241,272 L241,273 L241,274 L241,273 L242,271 L242,269 L243,267 L243,266 L244,266 L244,268 L244,270 L244,273 L244,274 L244,275 L244,273 L245,272 L246,271 L247,271 L247,274 L248,278 L248,281 L248,283 L248,284 L248,283 L248,281 L249,279 L249,276 L249,272 L249,268 L249,263 L249,259 L249,256 L250,253 L250,249 L251,246 L252,244 L253,241 L253,239 L254,237 L254,236 L255,235 L255,234 L256,234 L256,236 L257,238 L258,240 L259,242 L260,244 L260,243 L261,242 L261,239 L263,237 L264,233 L265,229 L267,226 L269,222 L271,217 L272,214 L273,211 L274,210 L274,212 L274,215 L274,217 L274,220 L274,222 L274,225 L274,227 L273,230 L273,232 L273,234 L273,237 L273,239 L273,240 L273,242 L273,244 L273,246 L273,248 L273,249 L273,251 L273,252 L273,253 L273,254 L273,256 L273,258 L273,259 L273,260 L273,261 L273,262 L273,263 L273,265 L273,266 L273,268 L273,269 L273,271 L273,273 L273,275 L273,277 L274,279 L275,282 L276,284 L276,286 L277,288 L277,290 L278,292 L278,294 L278,295 L278,298 L278,299 L278,301 L278,303 L278,305 L278,307 L278,308 L278,310 L278,312 L278,314 L278,315 L277,317 L277,318 L277,320 L277,321 L277,323 L277,325 L277,327 L277,329 L277,330 L277,332 L277,333 L277,334 L277,335 L277,334 L277,333 L277,331 L277,328 L277,325 L277,321 L277,317 L278,315 L278,312 L278,308 L278,306 L279,304 L280,303 L281,305 L282,309 L283,312 L283,314 L283,315 L283,316 L283,315 L284,314 L285,312 L286,310 L287,309 L288,312 L288,315 L289,318 L289,319 L288,318 L288,317 L287,314 L286,310 L286,305 L285,301 L285,297 L284,293 L284,288 L284,285 L284,282 L284,279 L284,277 L285,275 L285,272 L286,270 L286,268 L286,266 L286,265 L287,264 L287,265 L287,266 L288,268 L288,271 L288,273 L288,274 L288,275 L289,275 L289,273 L291,272 L291,270 L292,268 L293,267 L293,266 L293,267 L293,270 L293,273 L293,276 L293,278 L293,281 L293,283 L293,286 L293,288 L294,290 L294,291 L294,292 L294,291 L295,291 L296,290 L297,288 L298,287 L298,286 L299,285 L299,286 L299,287 L299,288 L299,289 L299,290 L298,291 L298,292 L298,293 L298,294 L298,295 L298,296 L298,297 L298,298 L298,299 L298,300 L298,301 L298,302 L298,303 L298,304 L298,305 L299,306 L299,308 L299,309 L300,310 L300,311 L300,313 L301,315 L302,316 L302,318 L303,320 L303,322 L304,324 L305,326 L305,328 L306,330 L307,332 L307,334 L308,335 L308,336 L308,338 L309,339 L310,341 L310,342 L311,345 L312,347 L313,349 L313,351 L314,353 L314,355 L315,356 L315,358 L315,359 L315,360 L315,359 L315,357 L315,355 L315,354 L315,352 L315,350 L315,349 L315,348 L315,347 L315,346 L315,345 L315,344 L315,342 L315,341 L315,340 L315,339 L315,338 L314,337 L314,335 L314,334 L314,333 L313,332 L313,331 L313,330 L313,329 L312,329 L312,328 L312,327 L312,326 L312,325 L312,324 L311,324 L311,323 L311,322 L311,321 L311,320 L311,319 L311,318 L310,317 L310,316 L310,315 L310,314 L310,313 L310,312 L310,311 L310,310 L310,309 L310,308 L310,307 L310,305 L310,304 L310,303 L310,302 L310,301 L310,300 L310,299 L310,298 L310,297 L310,296 L310,295 L310,294 L310,292 L310,291 L310,289 L311,287 L311,286 L312,284 L312,283 L313,282 L313,281 L314,282 L314,284 L315,286 L315,287 L316,288 L316,289 L317,290 L317,288 L318,286 L319,284 L320,283 L320,282 L321,282 L321,283 L321,284 L321,285 L322,287 L322,289 L322,291 L322,293 L322,294 L322,295 L322,294 L322,293 L323,292 L324,290 L325,287 L326,284 L327,281 L329,278 L330,276 L330,275 L330,276 L331,277 L332,279 L333,280 L334,281 L335,282 L336,281 L336,280 L337,278 L338,276 L339,273 L341,270 L343,266 L345,262 L346,259 L347,258 L347,259 L347,260 L347,262 L347,264 L347,266 L347,269 L347,272 L347,275 L347,278 L348,281 L348,283 L348,285 L348,286 L348,288 L348,289 L347,291 L347,292 L347,293 L347,294 L346,295 L346,297 L345,298 L345,299 L345,300 L344,301 L344,302 L344,303 L344,305 L344,306 L344,308 L344,309 L344,310 L344,312 L344,313 L344,314 L344,315 L344,316 L344,317 L344,318 L344,319 L345,319 L345,320 L345,321 L345,322 L345,323 L345,324 L346,324 L346,323 L347,322 L348,322 L350,321 L351,321 L352,321 L353,321 L354,322 L354,323 L354,322 L354,321 L354,320 L355,317 L355,314 L356,312 L357,309 L357,307 L357,305 L358,303 L358,302 L358,301 L358,300 L358,299 L358,298 L358,297 L358,296 L358,295 L359,293 L359,292 L359,291 L359,290 L359,289 L359,288 L359,287 L359,286 L360,285 L360,284 L360,283 L361,283 L361,282 L361,281 L362,280 L362,279 L362,278 L363,278 L363,277 L364,276 L364,275 L364,274 L364,273 L364,272 L365,272 L365,271 L366,270 L366,269 L366,268 L367,268 L367,270 L368,271 L368,272 L369,273 L369,274 L369,273 L370,271 L371,269 L372,267 L373,265 L374,264 L374,265 L374,266 L374,268 L375,270 L375,272 L375,275 L376,278 L376,281 L376,283 L376,286 L376,288 L376,290 L376,291 L377,293 L377,295 L377,296 L378,298 L378,299 L379,301 L379,303 L379,304 L379,305 L379,307 L379,308 L379,310 L380,310 L380,311 L380,313 L380,314 L381,315 L382,316 L383,317 L383,316 L383,315 L384,315 L385,313 L386,312 L386,310 L388,308 L389,305 L390,302 L391,299 L392,298 L392,296 L393,295 L393,294 L393,293 L394,292 L394,290 L395,288 L395,287 L396,285 L396,282 L397,281 L397,279 L397,278 L398,277 L398,276 L398,275 L398,273 L398,272 L398,271 L398,268 L398,267 L398,265 L399,263 L399,261 L399,259 L400,258 L400,256 L400,254 L401,253 L401,251 L401,249 L402,248 L402,246 L402,245 L403,244 L403,242 L403,240 L404,238 L405,236 L405,234 L406,232 L407,229 L408,226 L409,224 L410,222 L411,219 L413,217 L413,218 L413,220 L414,222 L415,224 L415,227 L416,228 L416,229 L417,229 L418,228 L418,226 L419,225 L419,224 L421,222 L423,220 L424,217 L426,216 L426,215 L427,215 L428,216 L428,217 L429,218 L430,220 L430,222 L431,224 L431,226 L431,227 L431,229 L431,230 L431,229 L432,229 L432,228 L432,227 L432,226 L433,224 L433,223 L433,222 L434,221 L434,220 L435,219 L435,218 L435,217 L435,216 L436,215 L436,213 L436,212 L436,210 L436,208 L437,207 L437,205 L437,203 L437,201 L437,199 L437,197 L437,195 L437,193 L437,191 L437,190 L438,188 L438,186 L438,185 L438,183 L439,181 L439,180 L440,178 L440,176 L441,174 L441,173 L442,171 L442,169 L443,168 L443,166 L444,165 L445,163 L445,162 L446,160 L446,158 L447,156 L447,155 L448,153 L448,151 L449,149 L449,148 L449,146 L449,145 L450,144 L450,145 L450,146 L450,148 L450,150 L451,152 L451,154 L452,157 L452,160 L453,163 L453,165 L453,168 L453,170 L453,173 L453,175 L453,177 L454,180 L454,183 L454,185 L454,188 L454,191 L455,194 L455,196 L455,200 L455,202 L455,205 L455,207 L455,210 L455,211 L455,213 L455,214 L455,216 L455,217 L454,218 L454,219 L454,218 L454,217 L455,216 L456,215 L457,212 L459,209 L460,206 L462,203 L464,200 L465,198 L467,194 L468,191 L470,189 L471,187 L472,184 L474,182 L475,180 L476,179 L476,178 L476,180 L476,182 L476,184 L475,187 L475,190 L474,193 L474,195 L474,196 L473,199 L472,202 L472,203 L471,205 L471,207 L471,208 L471,210 L471,211 L471,213 L470,214 L470,216 L470,217 L470,219 L470,221 L469,222 L469,224 L469,226 L469,227 L469,228 L468,229 L468,230 L468,231 L468,232 L468,235 L468,237 L467,240 L467,242 L467,244 L467,245 L467,246 L467,247 L467,249 L467,251 L467,250 L467,249 L468,247 L469,245 L469,242 L470,239 L471,237 L471,234 L471,232 L472,231 L473,229 L473,227 L474,226 L474,225 L475,224 L476,223 L476,222 L477,222 L477,221 L478,222 L478,223 L478,224 L478,226 L478,227 L479,229 L479,231 L479,232 L479,234 L479,235 L479,237 L478,238 L478,239 L478,240 L478,242 L478,243 L478,244 L478,245 L479,246 L479,247 L479,248 L480,248 L480,247 L480,246 L481,244 L481,243 L482,240 L483,238 L484,236 L485,233 L485,232 L486,230 L486,229 L487,227 L488,227 L489,225 L489,224 L490,224 L491,223 L491,222 L492,222 L492,221 L493,221 L493,220 L494,220 L495,219 L496,217 L497,215 L498,214 L498,212 L499,211 L500,210 L500,208 L501,208 L501,209 L500,210 L500,211 L500,213 L500,215 L500,216 L500,218 L499,219 L499,220 L499,222 L499,223 L499,224 L499,225 L498,226 L498,227 L498,228 L498,229 L498,230 L497,231 L497,232 L497,234 L496,234 L496,236 L496,237 L496,239 L495,240 L495,241 L495,242 L495,243 L495,244 L495,245 L495,246 L495,247 L495,248 L495,249 L496,249 L496,248 L497,247 L498,246 L499,244 L500,243 L501,241 L502,238 L503,236 L503,233 L504,230 L505,228 L506,225 L506,222 L507,220 L508,217 L509,214 L511,212 L512,210 L513,209 L514,209 L514,210 L514,211 L514,212 L514,214 L514,216 L514,217 L513,219 L513,221 L513,222 L512,224 L511,226 L511,227 L510,228 L509,229 L509,230 L508,231 L508,232 L508,233 L507,234 L507,235 L506,237 L506,238 L505,239 L505,241 L504,242 L504,244 L503,245 L503,247 L502,249 L502,251 L502,254 L501,256 L501,258 L501,259 L500,261 L500,263 L499,264 L499,266 L498,267 L498,268 L498,270 L497,272 L497,273 L496,275 L496,276 L496,278 L495,279 L495,280 L494,281 L494,282 L494,283 L494,285 L493,286 L493,287 L493,288 L493,290 L492,291 L492,293 L491,294 L491,295 L491,297 L490,298 L490,299 L489,301 L489,302 L489,304 L488,305 L488,307 L488,308 L488,309 L488,310 L488,311 L488,312 L487,313 L487,314 L487,315 L487,316 L487,317 L487,319 L487,320 L487,321 L488,322 L488,323 L488,324 L488,325 L489,324 L489,323 L489,322 L490,321 L491,319 L492,317 L493,315 L494,313 L496,311 L497,309 L498,307 L498,304 L499,302 L500,300 L500,298 L501,297 L501,295 L501,294 L501,292 L501,291 L502,289 L502,287 L502,286 L503,284 L503,282 L503,281 L503,279 L503,278 L503,276 L504,274 L504,272 L504,270 L505,268 L505,265 L506,263 L506,260 L506,258 L506,256 L507,254 L507,252 L508,251 L508,250 L508,249 L508,250 L508,251 L509,253 L509,255 L510,257 L510,260 L511,262 L511,264 L511,266 L511,268 L511,269 L511,271 L511,272 L511,273 L511,274 L511,276 L511,278 L511,281 L511,282 L511,284 L511,286 L511,287 L511,288 L511,289 L511,290 L511,289 L511,288 L512,288 L512,286 L513,284 L514,282 L515,279 L515,277 L516,274 L517,272 L518,271 L518,269 L518,268 L518,266 L518,265 L518,264 L518,262 L518,261 L519,259 L519,258 L519,256 L519,254 L520,252 L520,251 L520,249 L520,246 L521,244 L521,242 L522,239 L522,237 L523,234 L523,232 L523,229 L523,227 L523,225 L524,224 L524,222 L525,223 L525,224 L525,226 L526,227 L526,228 L526,229 L527,227 L527,226 L528,224 L529,222 L530,219 L531,217 L531,218 L531,219 L531,220 L531,217 L532,214 L532,210 L533,206 L535,202 L535,200 L536,198 L536,199 L536,200 L536,201 L536,202 L537,202 L537,201 L537,200 L539,197 L541,193 L543,190 L544,190 L544,191 L544,193 L544,194 L544,195 L544,194 L545,193 L546,191 L547,190 L548,189 L549,188 L549,189 L549,191 L550,193 L550,195 L550,198 L550,201 L550,204 L550,207 L550,210 L550,212 L550,213 L550,214 L551,213 L552,212 L553,212 L554,211 L555,211 L555,210 L555,211 L555,212 L555,214 L554,216 L553,218 L553,221 L552,223 L552,225 L551,227 L550,229 L550,231 L549,234 L548,235 L548,237 L547,239 L547,241 L547,243 L547,245 L546,247 L546,250 L546,252 L545,255 L545,258 L545,261 L545,263 L545,266 L545,268 L545,271 L545,273 L544,276 L544,278 L544,279 L544,281 L544,283 L544,284 L544,286 L544,288 L543,290 L543,291 L543,292 L543,293 L544,291 L545,289 L546,286 L548,281 L550,278 L551,276 L552,271 L554,270 L554,269 L554,270 L554,271 L553,274 L553,276 L553,277 L553,278 L553,279 L553,278 L554,277 L555,276 L556,273 L557,272 L558,272 L558,274 L558,276 L558,273 L558,270 L558,265 L559,260 L559,258 L560,255 L561,251 L562,247 L563,245 L563,243 L564,242 L564,240 L565,238 L566,237 L567,234 L568,232 L569,231 L569,229 L570,227 L571,226 L572,225 L572,224 L573,223 L573,224 L573,226 L573,228 L573,230 L573,232 L574,235 L574,237 L574,239 L574,241 L574,242 L574,244 L574,246 L574,247 L574,249 L574,251 L573,252 L573,254 L573,255 L573,256 L573,258 L573,259 L574,260 L574,261 L574,262 L574,263 L574,264 L574,266 L574,267 L574,268 L574,267 L574,266 L575,265 L577,262 L579,259 L582,255 L584,251 L586,249 L586,250 L586,251 L586,254 L586,256 L585,259 L585,262 L584,264 L584,266 L584,267 L584,266 L584,265 L585,265 L585,264 L586,266 L586,269 L586,272 L586,276 L586,278 L586,281 L586,282 L586,283 L586,282 L586,281 L588,278 L589,275 L590,271 L591,266 L592,262 L593,259 L594,256 L594,253 L594,251 L595,248 L596,246 L596,244 L596,242 L596,241 L597,239 L597,238 L598,236 L598,235 L599,234 L599,233 L600,232 L600,231 L601,230 L601,229 L601,228 L602,228 L602,230 L602,232 L602,234 L602,236 L602,237 L602,238 L602,237 L603,236 L604,234 L605,233 L605,232 L606,232 L606,234 L606,235 L605,237 L605,238 L605,239 L605,240 L605,241 L605,242 L605,244 L604,246 L604,248 L603,249 L602,251 L602,252 L602,253 L602,254 L602,255 L602,257 L602,259 L601,261 L601,264 L601,266 L600,268 L599,270 L599,272 L598,274 L598,276 L598,278 L598,277 L599,276 L600,273 L601,270 L604,266 L606,261 L608,260 L608,259 L608,260 L608,261 L608,262 L608,264 L608,266 L607,267 L607,268 L607,270 L607,271 L607,272 L607,273 L607,274 L607,276 L607,277 L607,276 L608,274 L609,271 L611,268 L613,264 L616,261 L618,257 L619,255 L619,254 L620,252 L620,251 L621,251 L621,252 L621,254 L620,256 L619,259 L619,262 L618,265 L618,268 L617,270 L616,271 L616,273 L616,275 L616,276 L615,277 L615,278 L615,279 L615,281 L615,283 L614,284 L614,285 L614,286 L614,288 L613,289 L613,291 L614,289 L615,287 L616,285 L617,281 L618,278 L619,274 L620,271 L620,267 L621,265 L621,262 L621,261 L621,260 L621,258 L622,256 L622,254 L623,251 L623,248 L624,246 L624,244 L624,242 L624,240 L624,238 L625,236 L625,233 L626,231 L626,229 L626,227 L627,225 L627,224 L628,222 L628,223 L628,224 L628,226 L628,228 L628,231 L628,234 L628,237 L628,239 L628,242 L628,244 L628,246 L628,248 L628,250 L628,252 L628,254 L628,255 L629,257 L629,258 L629,260 L629,261 L629,262 L629,263 L629,264 L629,265 L629,266 L628,267 L628,268 L628,269 L628,270 L628,271 L628,273 L628,274 L628,275 L627,276 L627,277 L627,278 L628,276 L628,274 L629,271 L630,267 L632,263 L633,259 L634,256 L635,252 L635,249 L636,246 L636,244 L637,243 L637,241 L638,239 L638,237 L639,235 L640,232 L641,230 L642,229 L643,227 L643,226 L643,227 L643,229 L643,231 L644,233 L644,236 L644,238 L644,241 L643,242 L643,244 L643,246 L643,248 L643,250 L642,252 L642,254 L642,257 L642,259 L642,260 L642,261 L642,260 L643,259 L644,258 L646,256 L648,253 L650,250 L652,248 L653,247 L654,246 L653,246 L653,247 L653,248 L653,249 L653,251 L652,253 L652,255 L651,258 L650,260 L650,262 L649,265 L648,267 L648,269 L647,271 L647,274 L646,276 L646,279 L646,281 L645,283 L645,284 L645,285 L645,286 L645,287 L645,286 L646,286 L647,284 L648,282 L649,280 L651,277 L652,273 L654,271 L655,268 L655,266 L656,264 L657,262 L657,260 L658,258 L660,256 L660,254 L662,252 L662,251 L663,250 L663,249 L663,250 L663,251 L663,254 L663,256 L663,258 L662,261 L662,264 L661,266 L660,268 L660,271 L659,274 L658,276 L658,279 L657,281 L657,282 L657,283 L658,284 L658,283 L659,282 L660,280 L662,276 L664,273 L666,268 L668,265 L670,263 L670,261 L671,259 L671,257 L672,256 L672,257 L672,259 L672,261 L671,263 L671,265 L670,268 L669,271 L668,274 L668,277 L667,280 L667,283 L667,286 L667,288 L667,289 L667,290 L667,288 L669,287 L670,284 L672,281 L674,276 L677,272 L679,268 L682,264 L682,262 L683,259 L684,257 L684,256 L686,254 L687,252 L687,251 L689,249 L690,247 L691,246 L692,245 L692,244 L692,246 L692,248 L691,250 L690,253 L689,256 L689,259 L688,263 L687,266 L685,270 L684,273 L683,277 L682,281 L681,284 L680,287 L679,291 L678,294 L677,297 L676,300 L675,304 L674,307 L673,310 L672,313 L672,316 L671,318 L671,321 L670,323 L670,325 L670,327 L670,328 L670,329 L671,327 L672,326 L673,324 L674,322 L677,319 L679,316 L681,313 L683,309 L684,306 L686,303 L687,300 L688,297 L689,295 L689,292 L689,289 L690,286 L690,284 L691,281 L692,279 L692,277 L693,275 L693,273 L694,272 L694,270 L694,269 L694,268 L694,267 L695,266 L695,265 L695,264 L696,264 L696,265 L697,266 L697,267 L697,268 L698,270 L698,271 L699,273 L699,276 L699,278 L699,280 L700,281 L700,283 L700,285 L701,287 L701,289 L701,291 L701,293 L701,295 L702,297 L702,299 L702,301 L702,303 L703,305 L703,308 L703,310 L703,313 L703,315 L703,318 L703,320 L704,323 L704,326 L704,329 L705,332 L706,335 L706,337 L706,339 L707,341 L708,342 L708,344 L709,346 L709,349 L709,351 L710,353 L710,354 L711,356 L711,358 L711,359 L712,360 L712,361 L712,362 L713,363 L713,362 L713,361 L714,359 L714,357 L715,354 L716,352 L717,349 L718,346 L718,344 L718,342 L718,340 L719,338 L719,337 L719,335 L720,333 L720,332 L720,330 L721,328 L721,327 L721,325 L721,323 L722,321 L722,319 L722,317 L722,315 L722,314 L722,312 L722,310 L722,309 L722,308 L722,307 L722,305 L722,304 L722,303 L722,302 L722,301 L722,300 L722,299 L722,298 L722,297 L722,296 L722,295 L722,294 L722,293 L722,292 L723,291 L723,290 L723,289 L723,288 L723,287 L723,286 L723,285 L724,284 L724,283 L724,282 L725,281 L725,280 L725,279 L725,278 L725,277 L725,276 L726,276 L726,275 L726,273 L726,272 L726,271 L726,270 L726,269 L726,268 L727,268 L727,267 L727,266 L727,265 L727,264 L727,263 L727,262 L727,261 L728,261 L728,260 L728,259 L728,258 L729,256 L730,255 L730,254 L731,254 L731,253 L732,253 L732,252 L732,253 L733,253 L733,254 L733,255 L734,257 L734,259 L735,262 L736,264 L736,267 L737,269 L737,272 L737,274 L737,277 L737,279 L738,281 L738,283 L738,285 L738,286 L738,288 L738,289 L738,290 L738,291 L738,292 L738,293 L738,294 L738,295 L738,296 L738,297 L738,298 L738,300 L738,301 L738,302 L738,303 L738,305 L738,306 L738,308 L738,311 L738,314 L738,317 L738,320 L738,324 L739,327 L739,331 L739,335 L740,338 L740,342 L740,346 L741,349 L741,353 L742,356 L743,358 L743,360 L743,362 L744,364 L744,365 L744,366 L744,367 L744,368 L744,369 L745,369 L745,370 L745,371 L745,372 L745,373 L745,374 L746,376 L746,377 L747,378 L747,379 L748,380 L748,381 L748,382 L749,383 L749,384 L749,385 L750,385 L750,386 L750,388 L750,389 L750,390 L750,389 L751,388 L751,387 L752,387 L752,386 L753,386 L753,387 L753,388 L753,389 L753,390 L754,391 L754,392 L754,393 L755,393 L755,391 L755,390 L756,387 L758,385 L758,382 L760,379 L760,376 L761,373 L762,370 L762,367 L762,364 L762,361 L762,359 L763,355 L763,352 L763,349 L763,346 L763,343 L763,339 L764,336 L764,332 L764,329 L764,325 L764,322 L764,319 L765,316 L765,313 L765,311 L765,308 L766,304 L766,301 L767,298 L767,295 L768,293 L769,290 L770,287 L770,284 L770,282 L771,280 L771,278 L771,277 L772,275 L772,273 L773,271 L774,268 L775,266 L776,264 L777,262 L777,260 L778,259 L778,257 L778,256 L779,255 L779,254 L778,254 L778,253 L777,253 L777,252 L776,251 L776,250 L775,249 L775,248 L774,247 L773,245 L773,243 L772,241 L772,239 L772,237 L772,235 L772,234 L772,235 L772,236 L772,237 L772,239 L772,241 L771,244 L771,248 L770,252 L770,256 L769,261 L768,265 L767,268 L767,269 L768,269 L769,267 L770,264 L773,261 L776,257 L778,254 L780,253 L780,254 L780,256 L780,258 L780,261 L780,263 L780,266 L779,270 L778,274 L778,277 L777,281 L777,284 L777,287 L776,291 L776,292 L776,293 L776,296 L775,299 L775,301 L775,303 L775,304 L775,305 L776,305 L777,304 L778,302 L780,298 L782,295 L784,291 L786,286 L787,282 L789,278 L790,273 L791,270 L792,266 L794,262 L795,259 L796,255 L797,251 L798,247 L799,243 L800,239 L801,235 L802,231 L803,227 L804,224 L805,220 L806,217 L807,214 L808,211 L809,209 L810,207 L811,207 L811,206 L811,208 L811,210 L811,213 L811,216 L810,219 L810,222 L810,224 L810,225 L810,224 L811,223 L812,222 L813,221 L814,220 L816,219 L817,217 L818,217 L818,219 L817,221 L817,224 L816,227 L815,231 L814,234 L814,238 L813,242 L812,245 L812,248 L811,251 L811,254 L811,256 L811,258 L811,259 L810,261 L810,262 L810,264 L810,265 L810,267 L810,268 L810,269 L810,270 L811,270 L811,269 L812,268 L814,264 L816,260 L820,256 L823,251 L826,249 L827,248 L827,250 L828,253 L828,256 L828,259 L828,260 L828,261 L828,260 L828,258 L829,255 L830,251 L831,246 L833,242 L833,239 L834,235 L835,232 L836,228 L838,225 L839,221 L840,218 L841,215 L842,211 L843,208 L844,205 L844,203 L845,201 L845,200 L845,199 L845,198 L845,199 L845,201 L845,203 L845,206 L845,210 L845,213 L845,216 L845,218 L845,219 L845,218 L845,217 L847,215 L848,212 L850,210 L852,209 L853,207 L853,208 L853,209 L853,211 L853,214 L853,217 L853,220 L852,223 L852,225 L852,226 L852,225 L853,224 L854,223 L855,222 L855,224 L855,227 L854,232 L853,237 L852,242 L851,246 L850,251 L850,254 L849,256 L849,258 L849,259 L849,258 L850,257 L851,255 L853,253 L855,250 L858,246 L860,244 L863,242 L864,242 L864,245 L864,248 L864,251 L864,254 L864,255 L865,254 L866,253 L869,251 L872,249 L874,247 L875,247 L875,249 L875,250 L875,252 L875,254 L875,256 L875,258 L875,259 L875,261 L875,262 L875,263 L875,264 L875,265 L874,266 L874,267 L874,268 L874,269 L874,271 L873,272 L873,275 L873,277 L873,278 L873,280 L873,281 L873,283 L872,283 L872,284 L872,285 L872,286 L872,287 L872,288 L872,287 L873,285 L874,282 L877,278 L879,272 L882,268 L884,264 L886,259 L888,255 L890,250 L892,246 L895,242 L897,238 L899,234 L901,230 L902,227 L904,224 L905,223 L906,222 L906,221 L906,222 L906,224 L906,225 L905,227 L905,230 L905,232 L904,235 L904,239 L903,242 L903,245 L902,248 L902,250 L902,252 L901,254 L901,256 L900,258 L900,259 L899,261 L899,262 L899,263 L899,264 L899,265 L899,266 L898,268 L898,269 L898,271 L898,272 L899,271 L900,269 L903,266 L906,264 L909,262 L910,261 L910,262 L909,264 L909,266 L909,268 L908,271 L907,274 L907,277 L906,281 L905,284 L904,288 L903,291 L903,295 L902,298 L902,300 L902,302 L901,303 L901,304 L901,305 L901,307 L900,308 L900,310 L900,311 L900,313 L899,315 L899,317 L899,318 L899,320 L899,322 L898,323 L898,325 L897,326 L897,328 L897,330 L897,332 L896,333 L896,335 L896,336 L896,337 L896,338 L895,338 L895,339 L896,338 L897,336 L900,332 L904,329 L906,327 L907,326 L907,327 L907,329 L907,331 L906,332 L906,333 L906,334 L907,334 L908,333 L909,333 L910,332 L911,333 L912,335 L913,337 L914,338 L914,339 L914,338 L914,337 L915,336 L915,335 L916,334 L917,332 L919,330 L920,328 L921,326 L921,324 L922,322 L922,321 L923,320 L923,319 L924,318 L924,317 L924,316 L924,315 L924,313 L924,311 L925,310 L925,309 L925,308 L925,307 L925,306 L925,305 L925,304 L925,303 L925,302 L925,301 L926,300 L926,298 L926,296 L926,295 L926,293 L926,292 L926,291 L926,290 L926,289 L926,288 L926,286 L926,285 L926,283 L926,281 L926,280 L926,278 L926,276 L926,273 L926,271 L926,268 L926,266 L926,267 L927,269 L927,271 L928,273 L928,274 L929,275 L929,276 L929,275 L929,274 L930,273 L932,271 L934,270 L934,269 L935,269 L936,270 L936,271 L937,272 L938,273 L939,272 L939,269 L941,266 L942,263 L943,259 L943,256 L943,252 L944,249 L945,245 L946,241 L946,237 L947,234 L947,230 L947,227 L947,224 L947,222 L947,219 L947,216 L948,213 L948,210 L948,208 L948,205 L948,203 L948,201 L949,199 L949,198 L950,197 L951,195 L951,194 L952,194 L953,193 L953,192 L954,192 L955,191 L956,191 L957,190 L958,190 L957,190 L956,190" fill="none" stroke="red" stroke-width="3"/></svg>