<svg xmlns="http://www.w3.org/2000/svg" version="1.1" xmlns:xlink="http://www.w3.org/1999/xlink" xmlns:svgjs="http://svgjs.dev/svgjs" width="950" height="375" id="chartSvg"><path d="M16,273 L16,272 L16,271 L16,273 L17,276 L18,279 L19,282 L20,284 L21,286 L22,287 L23,288 L24,290 L25,292 L26,293 L27,295 L29,296 L30,297 L31,299 L33,300 L34,301 L35,302 L36,303 L37,304 L38,305 L39,307 L40,308 L41,308 L43,309 L44,310 L46,311 L47,312 L48,312 L50,313 L51,314 L53,315 L55,316 L57,317 L59,319 L62,320 L66,320 L68,320 L71,321 L74,321 L78,321 L82,320 L85,319 L88,318 L91,316 L93,314 L95,312 L97,310 L99,307 L101,303 L103,300 L105,298 L107,295 L108,291 L110,288 L112,285 L114,281 L115,277 L117,274 L118,271 L119,269 L120,266 L121,263 L122,260 L123,256 L124,253 L124,249 L125,246 L126,243 L127,241 L128,239 L129,237 L129,234 L130,232 L131,230 L132,228 L133,226 L135,224 L137,221 L139,219 L142,218 L144,217 L146,217 L148,217 L150,217 L153,218 L156,219 L158,220 L161,222 L162,223 L164,224 L166,226 L168,228 L171,229 L173,232 L176,234 L179,237 L181,239 L184,241 L187,243 L190,245 L193,248 L196,251 L198,255 L201,258 L203,260 L206,263 L209,266 L212,269 L215,272 L216,275 L218,278 L220,281 L223,283 L225,286 L228,288 L230,291 L232,293 L234,295 L236,296 L237,298 L239,299 L240,300 L242,302 L244,303 L246,303 L248,304 L250,305 L252,306 L254,307 L256,308 L258,308 L260,308 L261,308 L263,308 L265,305 L266,303 L268,299 L268,295 L270,290 L271,284 L273,278 L275,272 L278,265 L281,259 L283,252 L286,246 L287,240 L289,234 L290,227 L291,221 L292,215 L293,209 L295,203 L296,198 L298,191 L298,185 L300,180 L301,174 L303,169 L304,164 L305,160 L306,155 L307,152 L308,149 L308,146 L308,143 L308,139 L309,135 L309,132 L310,129 L310,127 L311,124 L311,121 L312,117 L312,112 L313,107 L313,103 L313,101 L314,100 L315,99 L315,96 L316,92 L317,87 L318,83 L319,80 L320,78 L321,75 L322,73 L323,69 L325,68 L325,67 L326,67 L327,67 L328,67 L330,66 L332,66 L335,66 L337,66 L340,67 L343,68 L347,69 L351,70 L355,72 L360,73 L364,75 L369,77 L374,79 L379,81 L381,82 L383,84 L386,85 L389,86 L391,88 L394,90 L396,92 L398,93 L400,95 L402,97 L405,100 L408,102 L410,104 L413,107 L416,109 L419,111 L422,114 L425,116 L428,117 L431,119 L434,120 L437,121 L440,123 L443,125 L447,127 L451,129 L454,130 L457,131 L461,132 L464,133 L467,134 L470,134 L473,135 L475,135 L479,136 L481,136 L484,136 L486,136 L489,137 L491,137 L493,137 L496,138 L499,138 L502,138 L505,138 L508,138 L510,139 L513,139 L516,139 L519,139 L522,140 L525,140 L528,141 L530,141 L534,141 L539,142 L542,142 L546,143 L549,143 L552,143 L555,143 L559,144 L562,144 L564,144 L566,144 L569,144 L572,145 L574,145 L577,146 L580,147 L582,147 L585,148 L589,149 L593,149 L597,150 L601,150 L604,151 L608,151 L613,152 L617,153 L621,153 L625,154 L629,154 L633,154 L636,154 L639,154 L641,154 L643,155 L645,155 L646,155 L648,155 L649,155 L650,156 L652,156 L652,157 L653,159 L654,161 L656,164 L658,167 L660,171 L663,175 L666,180 L669,186 L671,192 L673,200 L676,208 L680,217 L684,226 L688,235 L691,244 L693,255 L696,267 L700,278 L704,290 L707,301 L709,310 L712,319 L714,326 L716,332 L718,337 L719,339 L720,341 L721,341 L722,341 L724,339 L726,337 L728,333 L731,327 L732,318 L734,308 L737,299 L740,290 L743,280 L747,269 L751,256 L754,242 L755,228 L756,218 L759,208 L762,199 L765,189 L766,177 L767,165 L769,154 L770,146 L772,139 L773,134 L775,128 L777,120 L778,113 L780,110 L781,107 L782,105 L784,102 L786,98 L789,94 L792,91 L794,89 L797,88 L799,88 L803,87 L808,86 L813,85 L817,85 L822,86 L828,88 L833,90 L837,92 L841,93 L846,95 L850,97 L854,99 L856,100 L859,102 L862,104 L865,106 L868,108 L870,111 L871,113 L873,115 L874,117 L875,119 L877,122 L880,125 L882,129 L885,133 L887,136 L889,138 L891,141 L893,146 L896,151 L899,156 L902,160 L905,163 L907,167 L910,171 L913,174 L917,179 L920,184 L921,188 L924,191 L926,195 L928,199 L929,200 L930,201 L931,200 L933,199 L936,195 L939,191 L941,186 L943,180 L944,174 L946,168 L947,161 L948,154 L950,148 L952,144 L953,142 L954,142 L954,143 L953,144 L953,145" fill="none" stroke="red" stroke-width="3"/></svg>