<svg xmlns="http://www.w3.org/2000/svg" version="1.1" xmlns:xlink="http://www.w3.org/1999/xlink" xmlns:svgjs="http://svgjs.dev/svgjs" width="950" height="375" id="chartSvg"><path d="M20,337 L21,337 L22,337 L22,336 L23,335 L24,334 L25,332 L26,331 L27,328 L29,325 L31,322 L33,319 L35,315 L36,313 L38,311 L39,310 L40,310 L41,310 L43,310 L45,311 L46,313 L48,315 L50,317 L52,319 L53,322 L55,324 L56,327 L58,330 L59,333 L61,335 L62,338 L64,341 L66,344 L67,346 L68,349 L70,352 L71,354 L72,357 L73,359 L74,361 L75,362 L75,364 L76,364 L77,365 L78,365 L79,366 L80,366 L81,366 L83,366 L85,366 L86,366 L87,366 L88,366 L89,366 L90,365 L90,364 L91,363 L92,362 L93,361 L94,359 L95,357 L96,354 L97,352 L99,349 L101,347 L103,344 L105,342 L106,339 L107,336 L109,334 L110,331 L110,329 L112,326 L113,323 L114,321 L116,318 L118,316 L119,314 L121,311 L122,309 L124,306 L125,304 L127,302 L128,299 L129,297 L130,295 L131,293 L132,291 L134,290 L135,287 L136,285 L138,283 L139,281 L141,278 L142,276 L144,274 L145,272 L146,269 L147,267 L149,265 L150,264 L151,262 L152,261 L154,259 L155,258 L156,257 L157,256 L157,255 L158,254 L158,253 L158,254 L159,255 L160,256 L161,257 L161,258 L162,259 L163,259 L164,261 L165,261 L166,263 L167,264 L169,266 L170,267 L172,268 L173,271 L175,272 L176,274 L178,276 L180,278 L181,280 L182,282 L184,284 L185,286 L187,289 L189,292 L191,295 L193,298 L195,301 L197,304 L199,308 L201,311 L202,314 L204,316 L206,319 L208,322 L210,324 L212,327 L213,329 L215,331 L217,333 L218,335 L220,337 L221,339 L222,340 L224,342 L225,343 L227,344 L228,345 L229,345 L230,345 L231,345 L232,345 L234,344 L235,342 L237,340 L238,338 L239,335 L240,333 L241,330 L242,327 L243,324 L243,321 L244,318 L245,315 L246,311 L246,308 L247,304 L247,300 L248,295 L249,291 L249,287 L250,283 L251,278 L251,275 L252,270 L252,265 L253,261 L254,256 L254,251 L255,245 L256,240 L256,235 L257,230 L258,224 L259,219 L260,213 L262,208 L264,202 L265,197 L267,191 L269,185 L271,179 L273,173 L274,168 L276,162 L278,156 L281,150 L283,145 L285,139 L288,134 L289,129 L291,123 L293,118 L296,113 L298,107 L301,102 L303,97 L306,92 L308,86 L310,82 L312,77 L314,72 L317,67 L319,63 L321,58 L322,54 L325,50 L326,46 L328,42 L330,39 L331,34 L333,31 L335,28 L336,25 L337,22 L338,19 L339,17 L341,16 L342,14 L343,13 L344,13 L345,13 L346,13 L346,14 L347,14 L347,15 L348,16 L348,17 L349,19 L350,21 L350,23 L351,24 L352,26 L353,28 L354,30 L355,33 L356,35 L357,38 L358,40 L359,43 L361,46 L361,49 L363,52 L364,55 L365,58 L366,61 L367,65 L368,68 L369,71 L370,75 L371,78 L372,81 L373,84 L374,88 L374,90 L375,93 L376,97 L377,100 L378,102 L379,105 L379,109 L380,112 L381,115 L381,118 L382,121 L383,125 L383,128 L384,131 L385,134 L385,136 L386,137 L386,139 L387,141 L388,142 L388,143 L389,144 L390,145 L391,146 L391,147 L392,148 L393,148 L393,147 L393,146 L394,146 L394,147 L395,149 L396,150 L397,152 L399,155 L401,158 L402,160 L404,163 L405,166 L407,168 L408,169 L409,171 L410,173 L411,173 L412,175 L413,174 L413,173 L413,172 L414,171 L414,168 L415,166 L415,164 L415,161 L416,158 L417,155 L418,151 L419,147 L420,143 L422,139 L424,135 L425,131 L427,127 L429,123 L431,119 L433,115 L434,112 L436,109 L437,106 L439,103 L441,100 L443,98 L444,95 L446,93 L447,91 L448,90 L449,88 L450,86 L451,85 L451,84 L452,83 L452,82 L453,82 L453,81 L454,81 L454,80 L455,80 L457,80 L459,80 L460,80 L462,80 L463,81 L465,81 L467,82 L469,83 L471,83 L472,83 L474,84 L477,85 L479,85 L482,85 L484,86 L487,87 L489,87 L492,88 L494,89 L496,90 L498,90 L501,91 L503,92 L506,93 L508,94 L510,95 L512,96 L514,97 L516,98 L518,99 L520,100 L523,102 L524,103 L525,105 L527,107 L528,109 L530,111 L531,113 L532,116 L533,119 L535,122 L536,125 L537,129 L538,132 L539,135 L540,137 L541,140 L541,142 L542,144 L542,146 L542,148 L543,149 L543,151 L544,152 L545,151 L545,150 L546,148 L547,146 L547,144 L548,142 L549,140 L550,137 L551,134 L552,132 L553,129 L555,125 L556,122 L558,120 L560,118 L562,116 L564,115 L566,113 L568,112 L570,112 L572,112 L574,112 L576,112 L578,112 L580,112 L582,113 L584,115 L586,117 L587,119 L589,121 L591,123 L592,126 L594,129 L595,132 L596,134 L597,137 L599,139 L599,141 L601,143 L602,144 L603,145 L604,146 L606,146 L607,146 L609,146 L611,146 L613,146 L615,146 L617,144 L620,143 L622,142 L625,140 L628,139 L631,137 L633,136 L636,135 L639,133 L642,132 L645,131 L647,130 L650,129 L652,129 L654,129 L655,128 L657,128 L658,128 L659,128 L660,128 L661,128 L662,129 L663,129 L664,130 L664,131 L665,132 L665,134 L665,136 L665,137 L666,138 L666,140 L667,141 L667,143 L668,145 L669,147 L670,149 L672,151 L672,153 L674,155 L675,157 L677,160 L678,162 L680,165 L681,167 L683,170 L684,173 L686,175 L687,178 L689,181 L690,184 L691,187 L692,190 L693,193 L694,196 L695,199 L696,202 L696,205 L697,209 L698,212 L699,215 L699,218 L700,222 L701,225 L701,229 L702,232 L704,236 L704,240 L705,244 L706,247 L707,251 L707,255 L708,259 L709,263 L709,266 L710,270 L710,274 L711,277 L711,281 L712,284 L713,288 L714,292 L715,295 L716,299 L716,303 L717,307 L717,311 L718,315 L718,318 L718,321 L719,325 L719,328 L719,332 L719,335 L720,338 L720,340 L720,343 L720,346 L720,348 L721,350 L721,352 L721,354 L721,355 L722,356 L722,357 L722,359 L722,360 L722,361 L722,362 L722,363 L722,364 L722,363 L722,362 L722,361 L722,359 L722,358 L723,357 L723,355 L723,353 L723,351 L723,348 L723,345 L724,342 L724,338 L725,335 L725,331 L725,327 L726,324 L726,320 L726,316 L726,312 L727,308 L728,303 L728,299 L728,294 L729,290 L730,285 L731,279 L731,275 L732,269 L733,264 L734,258 L735,252 L736,246 L737,239 L738,233 L739,227 L740,221 L741,215 L742,208 L743,202 L744,196 L745,190 L745,184 L746,178 L747,172 L748,166 L748,161 L748,155 L749,150 L750,145 L750,140 L751,136 L752,132 L753,129 L753,126 L754,123 L755,121 L755,119 L756,117 L757,116 L757,114 L758,113 L758,112 L758,113 L759,114 L759,115 L760,117 L760,119 L761,121 L762,123 L763,125 L764,127 L765,130 L767,132 L768,135 L770,137 L772,140 L774,143 L776,145 L777,147 L779,149 L780,151 L782,153 L783,154 L785,156 L786,157 L788,158 L790,158 L792,158 L793,158 L794,158 L796,158 L797,157 L798,156 L799,155 L800,154 L801,152 L802,151 L804,149 L805,147 L806,144 L808,142 L809,139 L811,137 L813,134 L814,132 L816,131 L817,129 L818,129 L819,128 L820,128 L821,128 L822,128 L823,129 L824,129 L825,130 L826,131 L827,132 L828,134 L830,136 L831,138 L832,140 L834,143 L835,145 L836,149 L837,152 L838,154 L838,156 L839,159 L840,161 L841,163 L841,165 L842,166 L843,168 L844,169 L845,171 L846,171 L846,173 L847,173 L848,174 L849,174 L850,174 L851,173 L852,172 L853,171 L853,170 L854,169 L856,167 L858,165 L860,162 L863,159 L866,156 L870,151 L874,147 L879,143 L885,138 L892,133 L901,128 L911,124 L921,119 L929,116 L937,112 L945,108 L952,104 L959,101 L965,98 L970,96 L975,93" fill="none" stroke="red" stroke-width="3"/></svg>