<svg xmlns="http://www.w3.org/2000/svg" version="1.1" xmlns:xlink="http://www.w3.org/1999/xlink" xmlns:svgjs="http://svgjs.dev/svgjs" width="950" height="375" id="chartSvg"><path d="M15,252 L14,252 L13,252 L13,253 L14,253 L14,252 L14,250 L14,244 L15,234 L16,225 L17,218 L18,213 L20,209 L22,205 L23,202 L24,201 L24,200 L24,199 L25,198 L26,197 L26,198 L26,199 L27,201 L28,204 L29,207 L30,211 L30,220 L30,234 L30,246 L32,254 L33,261 L34,266 L34,273 L34,281 L34,288 L34,292 L35,295 L36,298 L37,302 L38,304 L39,304 L39,302 L39,297 L40,290 L41,279 L44,265 L47,256 L48,254 L49,256 L53,259 L56,268 L58,281 L58,295 L58,301 L59,302 L61,298 L63,286 L68,270 L71,257 L73,254 L73,256 L73,263 L73,270 L74,275 L74,276 L75,273 L77,266 L82,255 L85,248 L85,247 L86,251 L86,258 L86,264 L87,267 L89,266 L93,259 L98,249 L101,244 L102,242 L103,242 L104,244 L105,246 L107,248 L109,248 L114,242 L121,232 L125,227 L127,226 L127,229 L128,233 L129,237 L131,238 L134,236 L139,229 L142,224 L143,224 L143,225 L141,231 L141,235 L141,237 L143,237 L146,231 L151,224 L154,219 L154,218 L154,222 L153,229 L154,235 L155,240 L156,242 L158,243 L160,241 L161,237 L162,234 L163,232 L162,234 L161,241 L161,249 L161,254 L161,255 L161,254 L161,253 L161,249 L163,243 L163,238 L164,235 L166,232 L169,227 L173,219 L176,213 L178,210 L179,210 L181,212 L185,213 L190,215 L194,218 L196,224 L197,232 L198,238 L199,239 L200,239 L200,236 L201,232 L202,227 L205,217 L210,202 L211,195 L211,196 L210,200 L210,207 L210,214 L210,217 L211,212 L214,202 L219,188 L225,175 L228,171 L229,173 L231,178 L231,188 L229,199 L227,215 L224,230 L225,240 L227,245 L231,245 L234,242 L237,235 L241,226 L246,215 L253,202 L254,198 L254,200 L254,206 L255,212 L256,215 L257,216 L257,213 L259,207 L263,197 L269,188 L271,186 L271,188 L272,194 L273,199 L276,202 L279,202 L284,197 L290,190 L295,181 L300,175 L303,173 L304,174 L304,179 L304,186 L305,192 L307,193 L308,192 L313,186 L316,178 L321,168 L327,159 L329,156 L329,157 L327,163 L327,172 L326,179 L327,184 L329,185 L330,184 L332,180 L335,173 L340,163 L345,154 L347,152 L349,151 L350,152 L352,155 L353,158 L353,162 L353,163 L353,161 L354,156 L355,150 L357,140 L359,130 L361,122 L361,116 L361,115 L361,114 L361,110 L362,103 L364,97 L364,94 L364,93 L364,94 L365,92 L368,87 L371,80 L372,75 L372,74 L372,73 L373,70 L374,66 L374,61 L374,58 L373,58 L373,57 L373,55 L373,53 L373,51 L373,48 L373,44 L376,36 L378,29 L378,28 L378,30 L378,31 L379,33 L379,32 L379,30 L380,27 L381,24 L383,20 L386,16 L389,13 L391,14 L391,20 L392,28 L394,36 L395,45 L393,59 L388,79 L384,98 L384,109 L386,115 L388,119 L389,121 L389,119 L390,112 L394,100 L400,85 L404,77 L404,82 L403,91 L401,103 L399,115 L397,124 L395,131 L394,135 L396,132 L399,122 L404,110 L409,99 L411,95 L411,97 L411,105 L409,116 L408,127 L408,134 L409,137 L410,137 L412,136 L417,132 L423,123 L429,116 L430,114 L430,116 L430,122 L430,132 L428,146 L428,157 L428,164 L430,167 L432,168 L436,164 L441,155 L447,144 L450,139 L450,141 L450,147 L449,155 L447,164 L446,171 L445,176 L444,178 L446,174 L451,166 L457,154 L461,146 L462,145 L462,146 L464,151 L465,158 L465,166 L465,173 L466,176 L467,174 L469,168 L475,158 L481,149 L483,146 L482,147 L482,150 L484,154 L485,158 L487,161 L488,162 L489,161 L492,156 L497,151 L504,144 L508,142 L509,145 L509,151 L509,158 L509,164 L511,168 L515,168 L521,164 L527,159 L532,152 L538,146 L540,144 L540,146 L540,151 L539,159 L539,167 L540,173 L542,174 L544,173 L547,168 L552,160 L559,149 L568,137 L574,130 L576,129 L575,132 L574,141 L570,153 L566,165 L562,175 L560,183 L559,188 L559,190 L562,185 L566,174 L574,159 L581,144 L585,137 L585,136 L585,138 L585,142 L583,150 L580,158 L575,168 L572,177 L573,181 L576,182 L581,177 L589,168 L600,156 L609,144 L611,142 L611,144 L611,149 L611,155 L612,161 L611,165 L610,169 L609,173 L610,173 L613,170 L618,163 L624,154 L628,148 L630,146 L630,148 L631,153 L631,160 L629,168 L627,178 L626,186 L625,192 L626,194 L628,194 L630,191 L635,184 L642,173 L652,162 L658,155 L659,154 L659,155 L657,161 L654,170 L649,181 L643,193 L638,202 L637,207 L637,206 L639,200 L644,189 L652,173 L662,155 L669,145 L671,143 L671,144 L672,148 L672,156 L670,166 L667,178 L664,190 L662,200 L662,206 L664,207 L666,205 L671,196 L679,183 L689,170 L695,162 L697,160 L697,161 L697,166 L694,174 L689,183 L684,193 L681,200 L679,205 L679,207 L679,206 L682,203 L689,195 L696,184 L704,174 L707,170 L708,169 L708,170 L708,173 L706,178 L702,185 L699,191 L696,196 L695,199 L696,198 L699,194 L705,185 L713,174 L719,166 L722,161 L723,161 L723,162 L722,167 L721,173 L720,181 L719,188 L719,193 L719,195 L720,195 L724,190 L731,183 L740,176 L745,171 L747,169 L747,170 L745,174 L740,181 L733,188 L728,194 L727,197 L728,197 L729,195 L733,190 L740,185 L745,182 L746,182 L746,183 L746,184 L746,185 L746,186 L746,185 L747,185 L748,183 L751,180 L754,178 L758,176 L762,174 L766,173 L767,173 L767,174 L767,176 L767,183 L763,193 L758,206 L756,216 L758,220 L759,222 L762,222 L768,216 L779,207 L793,193 L802,183 L804,178 L805,178 L805,179 L804,185 L801,193 L796,203 L790,214 L787,221 L787,222 L789,220 L794,212 L802,202 L812,187 L826,172 L833,164 L833,163 L832,164 L828,171 L822,181 L816,191 L810,203 L805,213 L804,217 L805,218 L808,214 L814,205 L822,193 L834,178 L845,163 L850,157 L850,159 L848,165 L845,174 L840,184 L834,196 L832,205 L832,210 L832,212 L832,214 L831,217 L830,220 L829,222 L828,222 L828,223 L827,224 L826,226 L824,229 L821,232 L817,237 L811,244 L807,251 L805,255 L804,259 L802,264 L798,270 L795,275 L793,279 L793,280 L794,278 L797,269 L801,256 L808,238 L816,219 L819,207 L822,198 L823,190 L826,184 L829,178 L832,175 L833,174 L833,176 L834,180 L835,186 L836,193 L836,200 L836,210 L833,222 L831,231 L832,236 L834,238 L837,238 L841,234 L846,225 L851,215 L856,202 L861,192 L866,184 L870,177 L872,172 L873,171 L873,176 L873,182 L873,189 L872,195 L871,202 L870,209 L868,214 L867,217 L867,219 L867,218 L867,215 L868,210 L870,203 L873,195 L876,188 L878,185 L879,183 L880,180 L881,180 L881,181 L881,185 L881,192 L880,200 L879,208 L878,215 L877,219 L877,220 L877,218 L878,213 L881,206 L886,195 L895,183 L900,176 L903,173 L905,173 L907,174 L909,178 L910,185 L911,194 L910,203 L908,212 L907,218 L907,220 L907,217 L909,212 L913,203 L920,191 L927,181 L929,178 L929,181 L928,187 L926,195 L924,202 L922,210 L921,214 L921,215 L923,213 L926,207 L932,201 L940,194 L945,190 L945,191 L944,195 L943,200 L943,204 L943,207 L943,208 L944,207 L948,205 L951,203 L953,202 L953,204 L951,207 L950,210 L948,214 L948,217 L947,221 L946,224 L946,226 L946,227" fill="none" stroke="red" stroke-width="3"/></svg>