<svg xmlns="http://www.w3.org/2000/svg" version="1.1" xmlns:xlink="http://www.w3.org/1999/xlink" xmlns:svgjs="http://svgjs.dev/svgjs" width="950" height="375" id="chartSvg"><path d="M34,263 L36,263 L38,263 L41,263 L46,263 L50,264 L53,264 L57,264 L61,265 L66,265 L70,266 L74,266 L77,266 L81,267 L84,267 L87,268 L89,268 L91,268 L92,268 L94,268 L95,268 L97,268 L98,268 L100,268 L101,268 L103,268 L104,268 L106,268 L107,267 L109,267 L110,267 L112,266 L114,266 L116,266 L119,266 L121,266 L123,266 L126,266 L128,266 L129,266 L132,266 L134,266 L136,266 L138,265 L140,265 L142,265 L144,264 L146,264 L148,264 L150,263 L153,262 L156,261 L158,259 L161,257 L163,256 L166,254 L169,251 L172,249 L176,246 L179,244 L182,243 L185,241 L188,239 L191,238 L194,236 L197,235 L198,234 L200,233 L201,233 L202,233 L204,232 L205,232 L206,232 L207,232 L208,232 L209,232 L210,232 L211,233 L212,233 L214,234 L215,234 L216,234 L217,235 L219,236 L220,236 L222,237 L224,238 L225,239 L227,240 L229,242 L230,243 L231,245 L232,247 L234,249 L235,251 L237,254 L238,256 L240,259 L242,261 L244,262 L245,264 L247,266 L249,268 L251,271 L252,273 L254,276 L255,277 L256,279 L258,281 L259,283 L260,284 L261,286 L263,288 L264,288 L265,289 L266,290 L268,291 L269,291 L271,290 L272,289 L274,287 L277,284 L281,281 L285,278 L289,274 L293,270 L296,267 L300,264 L303,261 L306,259 L309,257 L311,255 L314,253 L316,251 L319,249 L320,248 L322,246 L325,245 L326,244 L328,243 L330,242 L333,242 L335,242 L337,242 L338,242 L339,242 L341,243 L342,244 L343,245 L345,246 L346,248 L348,249 L349,251 L351,253 L353,255 L355,257 L357,258 L358,260 L360,262 L361,264 L362,266 L364,268 L365,270 L366,272 L368,274 L369,276 L371,278 L372,279 L373,280 L375,282 L376,283 L378,285 L379,286 L380,286 L381,287 L382,288 L383,289 L385,289 L387,289 L389,289 L391,289 L395,288 L398,286 L402,284 L405,282 L410,281 L414,279 L417,278 L420,277 L423,276 L426,275 L428,274 L430,273 L432,272 L435,270 L437,268 L438,266 L440,264 L442,262 L445,261 L447,260 L449,259 L452,257 L454,256 L456,255 L458,254 L461,253 L463,252 L465,251 L468,251 L470,250 L471,250 L473,249 L475,249 L477,249 L480,248 L482,248 L484,248 L486,248 L488,247 L490,247 L492,246 L494,246 L495,246 L496,246 L498,246 L499,246 L501,246 L502,247 L503,248 L506,249 L507,250 L509,251 L511,252 L513,253 L514,254 L517,255 L519,256 L521,256 L523,256 L525,256 L527,256 L530,256 L533,254 L535,251 L539,249 L542,247 L545,246 L549,245 L552,244 L556,244 L560,244 L564,244 L568,244 L572,243 L576,243 L580,242 L584,241 L587,241 L591,241 L596,242 L600,243 L604,244 L608,245 L612,246 L616,247 L619,249 L623,250 L627,251 L631,253 L634,254 L637,255 L640,256 L643,256 L645,257 L649,257 L651,257 L654,255 L656,252 L658,249 L661,245 L665,241 L669,237 L673,232 L677,228 L680,224 L685,221 L689,217 L693,214 L698,210 L704,206 L708,202 L712,198 L716,194 L722,190 L727,187 L731,184 L736,181 L742,178 L747,176 L752,173 L757,172 L762,170 L767,169 L773,168 L779,166 L785,166 L792,164 L798,162 L804,161 L811,159 L817,158 L823,156 L830,155 L836,154 L842,152 L849,151 L856,150 L863,150 L870,150 L877,150 L884,151 L891,151 L896,152 L902,153 L909,154 L914,154 L918,155 L920,155 L921,156 L922,156 L924,156 L925,157 L928,157 L932,158 L936,160 L939,161 L941,162 L942,163 L943,163 L942,163 L943,163 L943,164 L944,166 L945,168 L946,172 L948,176 L950,179 L951,183 L951,187 L952,190 L952,191 L952,190 L951,189" fill="none" stroke="red" stroke-width="3"/></svg>