<svg xmlns="http://www.w3.org/2000/svg" xmlns:xlink="http://www.w3.org/1999/xlink" version="1.1" class="marks" width="1012" height="385" viewBox="0 0 1012 385"><rect width="1012" height="385" fill="white"/><path d="M9,266 L8,265 L9,265 L10,265 L11,265 L13,265 L14,265 L17,265 L20,266 L24,267 L26,267 L29,268 L33,268 L35,268 L36,268 L38,269 L39,269 L42,270 L45,271 L48,271 L51,272 L54,272 L57,273 L60,273 L63,273 L66,273 L70,273 L73,273 L75,273 L78,273 L82,273 L85,273 L89,273 L93,273 L99,273 L105,273 L110,272 L114,272 L120,272 L126,271 L132,271 L138,271 L143,270 L147,269 L152,268 L157,267 L162,266 L166,265 L171,264 L174,262 L178,261 L181,260 L184,259 L188,257 L192,255 L196,252 L200,250 L204,248 L207,246 L212,245 L217,244 L220,242 L224,241 L229,239 L232,238 L236,237 L239,235 L242,234 L244,232 L248,231 L251,229 L254,228 L256,227 L258,226 L261,225 L264,225 L268,224 L271,223 L274,222 L277,222 L281,221 L285,221 L288,221 L292,221 L295,221 L299,220 L303,220 L307,220 L310,220 L312,220 L316,220 L319,220 L323,221 L327,221 L330,221 L332,222 L335,222 L339,222 L342,223 L346,224 L349,224 L353,224 L357,225 L360,226 L363,226 L367,227 L371,227 L376,228 L381,228 L384,229 L388,229 L393,229 L398,229 L403,230 L408,230 L414,231 L420,232 L426,232 L433,233 L440,234 L447,234 L453,234 L460,234 L468,234 L474,235 L481,235 L489,235 L495,235 L502,235 L509,235 L515,235 L521,235 L528,236 L534,236 L541,236 L547,236 L554,235 L561,235 L568,235 L574,234 L581,234 L588,234 L595,234 L602,234 L608,233 L614,232 L621,232 L627,230 L633,229 L639,228 L645,227 L652,225 L658,224 L665,222 L670,221 L676,219 L682,217 L689,215 L695,213 L703,211 L709,209 L714,206 L719,203 L725,200 L731,198 L738,195 L743,191 L749,188 L755,184 L761,181 L767,178 L773,174 L780,171 L785,168 L791,166 L796,164 L800,162 L804,159 L809,156 L812,154 L815,152 L818,151 L821,150 L824,149 L827,148 L831,146 L835,143 L838,141 L843,140 L848,139 L853,139 L858,137 L863,136 L867,136 L871,135 L874,135 L877,136 L881,136 L883,136 L885,136 L886,137 L888,138 L890,139 L892,139 L894,141 L896,142 L898,143 L901,145 L904,147 L907,150 L910,153 L913,155 L915,158 L918,161 L920,164 L922,167 L925,171 L927,174 L929,178 L931,181 L933,184 L935,187 L938,191 L940,194 L943,198 L945,202 L946,205 L948,207 L951,210 L953,213 L956,217 L960,220 L964,224 L968,229 L972,233" fill="none" stroke="red" stroke-width="3"/></svg>