<svg xmlns="http://www.w3.org/2000/svg" xmlns:xlink="http://www.w3.org/1999/xlink" version="1.1" class="marks" width="1012" height="385" viewBox="0 0 1012 385"><rect width="1012" height="385" fill="white"/><g fill="none" stroke-miterlimit="10" transform="translate(7,5)"><g class="mark-group role-frame root" role="graphics-object" aria-roledescription="group mark container"><g transform="translate(0,0)"><path class="background" aria-hidden="true" d="M0.5,0.5h1000v375h-1000Z" stroke="#ddd"/><g><g class="mark-group role-axis" role="graphics-symbol" aria-roledescription="axis" aria-label="X-axis for a linear scale with values from 0 to 2,000"><g transform="translate(0.5,375.5)"><path class="background" aria-hidden="true" d="M0,0h0v0h0Z" pointer-events="none"/><g><g class="mark-rule role-axis-domain" pointer-events="none"><line transform="translate(0,0)" x2="1000" y2="0" stroke="#888" stroke-width="1" opacity="1"/></g></g><path class="foreground" aria-hidden="true" d="" pointer-events="none" display="none"/></g></g><g class="mark-group role-axis" role="graphics-symbol" aria-roledescription="axis" aria-label="Y-axis for a linear scale with values from −0.5 to 0.8"><g transform="translate(0.5,0.5)"><path class="background" aria-hidden="true" d="M0,0h0v0h0Z" pointer-events="none"/><g><g class="mark-rule role-axis-domain" pointer-events="none"><line transform="translate(0,375)" x2="0" y2="-375" stroke="#888" stroke-width="1" opacity="1"/></g></g><path class="foreground" aria-hidden="true" d="" pointer-events="none" display="none"/></g></g><g class="mark-line role-mark marks" role="graphics-object" aria-roledescription="line mark container"><path aria-label="x: 1; y: −0.0084780867353" role="graphics-symbol" aria-roledescription="line mark" d="M0.5,233.215L1,230.859L1.5,235.472L2,230.549L2.5,229.72L3,233.402L3.5,233.51L4,231.481L4.5,231.818L5,228.819L5.5,230.559L6,228.671L6.5,231.544L7,227.899L7.5,233.959L8,231.753L8.5,229.533L9,231.158L9.5,227.541L10,228.979L10.5,231.798L11,229.589L11.5,231.836L12,231.235L12.5,227.217L13,232.147L13.5,228.584L14,232.108L14.5,231.59L15,230.724L15.5,232.313L16,230.636L16.5,231.45L17,229.016L17.5,232.171L18,232.455L18.5,230.731L19,231.93L19.5,226.506L20,230.728L20.5,230.73L21,226.3L21.5,227.932L22,230.276L22.5,231.117L23,227.021L23.5,231.342L24,231.322L24.5,230.29L25,232.949L25.5,232.951L26,230.24L26.5,229.384L27,232.653L27.5,231.19L28,231.446L28.5,229.156L29,229.846L29.5,229.28L30,228.787L30.5,232.495L31,231.514L31.5,233.378L32,232.084L32.5,234.274L33,228.607L33.5,233.873L34,230.162L34.5,234.362L35,232.366L35.5,231.675L36,231.698L36.5,229.392L37,229.391L37.5,230.343L38,229.201L38.5,228.855L39,231.313L39.5,229.094L40,228.581L40.5,228.787L41,230.837L41.5,231.444L42,231.718L42.5,231.239L43,232.547L43.5,230.811L44,230.168L44.5,230.94L45,230.596L45.5,229.177L46,233.787L46.5,230.737L47,230.629L47.5,232.297L48,230.524L48.5,230.471L49,232.7L49.5,232.863L50,233.957L50.5,231.362L51,230.299L51.5,232.304L52,229.396L52.5,229.671L53,231.011L53.5,228.825L54,228.705L54.5,229.521L55,228.738L55.5,229.474L56,228.414L56.5,231.048L57,230.401L57.5,233.268L58,230.8L58.5,232.382L59,229.131L59.5,226.848L60,230.208L60.5,230.904L61,228.436L61.5,231.001L62,228.758L62.5,232.255L63,229.982L63.5,229.519L64,226.427L64.5,229.197L65,231.112L65.5,232.159L66,230.732L66.5,233.156L67,231.819L67.5,229.527L68,229.9L68.5,230.368L69,227.491L69.5,231.367L70,225.381L70.5,232.838L71,232.184L71.5,230.342L72,228.887L72.5,230.288L73,232.964L73.5,227.485L74,228.455L74.5,233.745L75,231.568L75.5,232.044L76,231.318L76.5,231.657L77,229.09L77.5,230.204L78,227.986L78.5,232.113L79,233.913L79.5,228.774L80,232.206L80.5,230.429L81,229.08L81.5,230.074L82,232.584L82.5,229.33L83,234.732L83.5,231.473L84,232.169L84.5,227.3L85,228.514L85.5,230.602L86,234.838L86.5,228.74L87,232.323L87.5,231.578L88,228.958L88.5,229.546L89,229.173L89.5,228.561L90,231.457L90.5,230.883L91,234.024L91.5,231.573L92,228.322L92.5,233.335L93,228.289L93.5,233.099L94,230.416L94.5,230.627L95,234.03L95.5,230.151L96,230.521L96.5,232.331L97,231.297L97.5,229.254L98,229.616L98.5,229.635L99,230.202L99.5,230.407L100,232.076L100.5,229.673L101,231.127L101.5,231.601L102,231.452L102.5,230.614L103,232.566L103.5,230.715L104,232.843L104.5,229.593L105,230.391L105.5,227.784L106,229.28L106.5,232.409L107,228.815L107.5,231.027L108,230.17L108.5,229.368L109,229.559L109.5,232.293L110,230.249L110.5,228.608L111,228.502L111.5,230.181L112,227.975L112.5,230.225L113,228.429L113.5,230.253L114,229.215L114.5,228.884L115,229.895L115.5,231.816L116,230.81L116.5,232.125L117,226.001L117.5,230.752L118,235.776L118.5,231.869L119,227.294L119.5,230.81L120,233.383L120.5,229.367L121,229.216L121.5,231.608L122,230.296L122.5,231.511L123,230.089L123.5,229.438L124,227.482L124.5,230.898L125,231.259L125.5,229.219L126,233.208L126.5,233.866L127,234.375L127.5,227.714L128,229.437L128.5,228.598L129,233.311L129.5,232.46L130,227.498L130.5,227.806L131,230.034L131.5,231.212L132,232.498L132.5,224.818L133,231.758L133.5,234.343L134,229.242L134.5,233.079L135,233.11L135.5,231.695L136,230.7L136.5,231.521L137,232.534L137.5,229.109L138,230.218L138.5,229.13L139,226.288L139.5,228.486L140,231.146L140.5,229.041L141,227.844L141.5,230.092L142,231.061L142.5,231.12L143,230.951L143.5,229.769L144,231.658L144.5,229.962L145,226.817L145.5,229.777L146,229.525L146.5,229.951L147,231.108L147.5,231.512L148,231.446L148.5,231.138L149,233.602L149.5,228.548L150,229.381L150.5,231.326L151,231.277L151.5,229.772L152,230.354L152.5,227.95L153,230.86L153.5,231.558L154,230.255L154.5,228.555L155,229.565L155.5,232.992L156,231.706L156.5,230.664L157,235.024L157.5,231.632L158,230.433L158.5,226.962L159,229.342L159.5,234.824L160,230.739L160.5,230.298L161,236.837L161.5,232.474L162,232.585L162.5,230.705L163,231.768L163.5,231.956L164,232.66L164.5,231.252L165,231.76L165.5,230.455L166,231.219L166.5,233.915L167,229.388L167.5,228.471L168,231.305L168.5,231.122L169,234.291L169.5,231.889L170,233.07L170.5,231.993L171,229.757L171.5,231.241L172,229.637L172.5,229.267L173,232.882L173.5,229.132L174,229.583L174.5,229.906L175,230.145L175.5,232.121L176,231.775L176.5,230.54L177,231.113L177.5,231.745L178,233.128L178.5,229.426L179,231.287L179.5,229.857L180,227.179L180.5,230.193L181,230.745L181.5,232.343L182,225.981L182.5,227.75L183,231.797L183.5,228.205L184,230.141L184.5,234.527L185,228.99L185.5,229.162L186,231.152L186.5,231.327L187,231.777L187.5,231.264L188,228.461L188.5,229.133L189,227.764L189.5,230.383L190,229.37L190.5,231.471L191,229.404L191.5,232.768L192,228.578L192.5,233.081L193,234.651L193.5,234.556L194,229.493L194.5,232.155L195,227.741L195.5,230.059L196,232.955L196.5,233.056L197,232.878L197.5,230.409L198,228.82L198.5,229.916L199,229.787L199.5,232.344L200,233.454L200.5,234.039L201,229.635L201.5,232.761L202,233.909L202.5,231.016L203,229.752L203.5,233.825L204,232.678L204.5,232.437L205,231.509L205.5,229.424L206,234.453L206.5,234.611L207,234.033L207.5,230.546L208,230.138L208.5,232.067L209,231.262L209.5,234.27L210,230.787L210.5,228.399L211,232.409L211.5,233.819L212,227.628L212.5,230.542L213,234.211L213.5,232.452L214,229.796L214.5,231.548L215,230.541L215.5,232.39L216,227.688L216.5,232.284L217,228.259L217.5,228.51L218,230.269L218.5,231.889L219,229.861L219.5,230.931L220,229.362L220.5,228.365L221,227.903L221.5,231.682L222,229.869L222.5,232.373L223,231.523L223.5,230.911L224,231.315L224.5,233.724L225,230.546L225.5,231.526L226,227.097L226.5,230.95L227,232.629L227.5,230.394L228,229.865L228.5,230.658L229,231.278L229.5,231.747L230,228.342L230.5,230.279L231,229.929L231.5,232.087L232,231.624L232.5,230.625L233,231.151L233.5,229.864L234,228.179L234.5,232.165L235,230.04L235.5,229.234L236,228.368L236.5,229.519L237,231.706L237.5,232.1L238,229.123L238.5,230.424L239,228.657L239.5,234.515L240,232.611L240.5,230.335L241,228L241.5,231.44L242,227.621L242.5,230.18L243,228.195L243.5,227.797L244,230.408L244.5,229.569L245,227.915L245.5,231.162L246,232.71L246.5,231.446L247,230.984L247.5,234.755L248,231.966L248.5,229.112L249,229.121L249.5,229.712L250,231.944L250.5,231.475L251,234.192L251.5,231.933L252,229.337L252.5,233.155L253,229.23L253.5,230.023L254,228.916L254.5,232.85L255,230.613L255.5,231.613L256,226.661L256.5,229.192L257,229.666L257.5,231.098L258,229.036L258.5,231.081L259,230.712L259.5,230.443L260,232.425L260.5,231.432L261,227.057L261.5,230.095L262,229.961L262.5,231.6L263,233.661L263.5,229.906L264,231.619L264.5,229.998L265,229.326L265.5,230.103L266,232.934L266.5,228.806L267,231.195L267.5,229.88L268,230.371L268.5,230.023L269,230.609L269.5,231.61L270,232.264L270.5,229.157L271,230.387L271.5,231.735L272,227.99L272.5,229.114L273,228.352L273.5,227.888L274,230.077L274.5,232.878L275,229.437L275.5,233.253L276,231.379L276.5,232.546L277,232.302L277.5,227.47L278,229.63L278.5,228.66L279,228.198L279.5,229.272L280,226.792L280.5,227.528L281,229.019L281.5,232.728L282,228.152L282.5,230.506L283,233.946L283.5,230.8L284,228.821L284.5,230.007L285,227.624L285.5,228.836L286,230.222L286.5,229.002L287,234.364L287.5,230.21L288,231.024L288.5,231.949L289,231.728L289.5,232.656L290,230.101L290.5,234.117L291,233.752L291.5,233.046L292,227.136L292.5,233.464L293,228.73L293.5,230.189L294,229.154L294.5,231.692L295,230.364L295.5,231.185L296,232.239L296.5,230.789L297,229.838L297.5,233.008L298,228.783L298.5,229.904L299,231.983L299.5,231.916L300,231.521L300.5,234.188L301,232.029L301.5,230.944L302,232.442L302.5,229.42L303,229.592L303.5,234.871L304,233.119L304.5,230.504L305,231.241L305.5,232.148L306,230.1L306.5,231.182L307,229.882L307.5,230.052L308,229.853L308.5,230.474L309,233.655L309.5,232.126L310,232.449L310.5,230.901L311,230.153L311.5,233.559L312,231.203L312.5,231.111L313,229.702L313.5,228.833L314,231.111L314.5,231.303L315,233.903L315.5,230.715L316,229.211L316.5,233.737L317,227.823L317.5,233.082L318,233.314L318.5,232.133L319,232.82L319.5,230.587L320,228.759L320.5,231.864L321,231.741L321.5,230.72L322,232.685L322.5,230.994L323,229.357L323.5,229.933L324,228.798L324.5,232.877L325,232.023L325.5,231.457L326,230.348L326.5,231.868L327,231.439L327.5,229.033L328,228.926L328.5,229.863L329,229.43L329.5,229.181L330,230.489L330.5,230.47L331,228.532L331.5,233.353L332,232.13L332.5,227.242L333,226.716L333.5,233.322L334,228.586L334.5,227.878L335,231.63L335.5,228.994L336,229.906L336.5,231.231L337,229.847L337.5,231.499L338,232.45L338.5,228.389L339,229.466L339.5,228.184L340,231.324L340.5,232.768L341,230.299L341.5,233.623L342,227.614L342.5,236.01L343,227.081L343.5,234.804L344,234.452L344.5,230.782L345,232.446L345.5,229.434L346,228.868L346.5,225.196L347,231.914L347.5,228.64L348,230.341L348.5,230.829L349,227.369L349.5,229.805L350,229.515L350.5,233.004L351,233.173L351.5,230.496L352,228.777L352.5,230.906L353,230.207L353.5,231.705L354,231.98L354.5,234.098L355,235.178L355.5,231.011L356,234.163L356.5,230.606L357,231.473L357.5,231.469L358,230.745L358.5,231.202L359,232.315L359.5,230.892L360,232.993L360.5,232.117L361,231.617L361.5,229.848L362,227.194L362.5,230.267L363,232.245L363.5,230.025L364,232.118L364.5,230.275L365,230.279L365.5,234.218L366,228.429L366.5,230.567L367,229.716L367.5,231.474L368,229.996L368.5,231.691L369,230.593L369.5,228.6L370,231.431L370.5,232.267L371,231.314L371.5,229.81L372,233.927L372.5,230.337L373,232.139L373.5,230.968L374,232.306L374.5,231.654L375,230.172L375.5,230.203L376,232.806L376.5,230.22L377,236.467L377.5,229.954L378,231.689L378.5,228.546L379,230.456L379.5,232.541L380,229.166L380.5,229.622L381,233.188L381.5,229.383L382,233.005L382.5,230.312L383,231.871L383.5,230.304L384,228.746L384.5,228.909L385,230.097L385.5,231.561L386,230.619L386.5,228.924L387,232.323L387.5,231.913L388,229.707L388.5,230.303L389,229.182L389.5,230.293L390,227.834L390.5,231.916L391,231.075L391.5,231.086L392,230.682L392.5,229.152L393,229.937L393.5,226.713L394,230.337L394.5,230.416L395,233.106L395.5,230.864L396,230.189L396.5,229.194L397,230.124L397.5,230.095L398,231.346L398.5,232.627L399,231.167L399.5,229.445L400,230.457L400.5,227.791L401,233.811L401.5,231.496L402,230.32L402.5,231.366L403,231.465L403.5,232.684L404,230.041L404.5,231.703L405,232.513L405.5,230.932L406,228.06L406.5,231.003L407,230.839L407.5,231.694L408,229.181L408.5,230.291L409,230.27L409.5,231.781L410,229.858L410.5,228.222L411,231.965L411.5,234.149L412,233.509L412.5,229.681L413,227.644L413.5,232.217L414,229.4L414.5,229.98L415,230.162L415.5,228.024L416,227.225L416.5,227.137L417,228.685L417.5,232.182L418,230.059L418.5,230.432L419,233.51L419.5,230.793L420,233.149L420.5,230.985L421,228.376L421.5,231.24L422,228.977L422.5,229.066L423,229.994L423.5,228.682L424,229.889L424.5,234.006L425,229.124L425.5,227.415L426,229.698L426.5,230.719L427,231.638L427.5,232.605L428,232.441L428.5,229.124L429,231.211L429.5,230.133L430,229.623L430.5,229.401L431,230.985L431.5,229.513L432,230.609L432.5,228.834L433,230.701L433.5,227.969L434,230.761L434.5,230.304L435,231.746L435.5,229.514L436,230.716L436.5,231.292L437,231.49L437.5,230.384L438,228.697L438.5,229.312L439,234.169L439.5,227.4L440,230.272L440.5,232.844L441,229.824L441.5,233.19L442,230.959L442.5,232.134L443,229.94L443.5,233.108L444,227.93L444.5,233.43L445,230.884L445.5,231.679L446,230.117L446.5,232.614L447,234.11L447.5,231.022L448,230.567L448.5,230.07L449,229.154L449.5,227.157L450,231.895L450.5,232.05L451,228.783L451.5,227.677L452,229.948L452.5,229.885L453,227.654L453.5,230.442L454,229.047L454.5,233.4L455,232.45L455.5,233.902L456,228.003L456.5,232.473L457,230.049L457.5,231.684L458,228.809L458.5,229.969L459,232.838L459.5,228.562L460,230.776L460.5,230.567L461,229.863L461.5,227.273L462,230.49L462.5,230.509L463,230.376L463.5,231.06L464,230.902L464.5,230.993L465,232.015L465.5,230.619L466,231.74L466.5,231.422L467,226.536L467.5,232.356L468,226.089L468.5,229.889L469,225.862L469.5,228.291L470,233.197L470.5,230.926L471,231.949L471.5,233.407L472,230.149L472.5,229.721L473,233.552L473.5,232.952L474,233.736L474.5,230.926L475,231.558L475.5,230.937L476,229.551L476.5,234.034L477,231.319L477.5,232.218L478,228.606L478.5,234.181L479,230.66L479.5,228.284L480,231.533L480.5,227.83L481,230.413L481.5,230.3L482,233.216L482.5,227.655L483,231.353L483.5,231.54L484,231.544L484.5,232.215L485,231.131L485.5,229.56L486,231.463L486.5,231.341L487,232.831L487.5,234.334L488,231.817L488.5,231.188L489,232.57L489.5,229.8L490,232.29L490.5,228.178L491,229.662L491.5,231.001L492,228.509L492.5,227.145L493,231.163L493.5,227.326L494,232.71L494.5,230.601L495,236.649L495.5,232.479L496,231.742L496.5,227.908L497,233.28L497.5,230.017L498,234.853L498.5,226.968L499,230.382L499.5,231.176L500,227.698L500.5,233.545L501,232.804L501.5,229.604L502,230.755L502.5,227.865L503,233.981L503.5,229.952L504,233.086L504.5,233.35L505,229.945L505.5,230.506L506,231.8L506.5,227.758L507,232.194L507.5,231.641L508,229.463L508.5,229.662L509,230.251L509.5,225.766L510,228.963L510.5,230.507L511,230.632L511.5,230.855L512,232.184L512.5,227.286L513,232.435L513.5,228.214L514,228.843L514.5,230.78L515,230.896L515.5,229.824L516,231.264L516.5,232.359L517,232.096L517.5,234.87L518,229.848L518.5,231.036L519,230.679L519.5,230.386L520,229.455L520.5,229.733L521,229.24L521.5,233.368L522,232.039L522.5,235.079L523,231.811L523.5,231.62L524,229.125L524.5,231.748L525,231.687L525.5,229.167L526,231.019L526.5,231.863L527,228.689L527.5,228.758L528,230.639L528.5,230.246L529,232.557L529.5,233.286L530,230.019L530.5,233.072L531,230.72L531.5,230.09L532,231.451L532.5,230.353L533,232.781L533.5,228.887L534,231.565L534.5,229.374L535,231.486L535.5,227.055L536,232.085L536.5,232.046L537,229.082L537.5,231.044L538,232.188L538.5,231.124L539,229.26L539.5,232.053L540,230.308L540.5,227.185L541,231.245L541.5,230.139L542,229.589L542.5,232.659L543,232.084L543.5,232.409L544,232.266L544.5,230.124L545,231.489L545.5,231.838L546,232.939L546.5,228.25L547,229.386L547.5,235.009L548,230.833L548.5,228.288L549,230.595L549.5,231.967L550,229.702L550.5,230.592L551,230.71L551.5,227.869L552,230.12L552.5,232.48L553,230.478L553.5,218.998L554,228.887L554.5,7.559L555,348.985L555.5,249.749L556,231.235L556.5,233.037L557,230.543L557.5,231.282L558,231.438L558.5,226.681L559,229.921L559.5,235.387L560,229.513L560.5,232.861L561,230.327L561.5,230.015L562,232.34L562.5,228.985L563,228.107L563.5,231.693L564,230.446L564.5,231.066L565,231.758L565.5,232.355L566,230.578L566.5,228.93L567,227.132L567.5,228.926L568,229.01L568.5,235.317L569,228.844L569.5,233.452L570,227.994L570.5,229.571L571,227.582L571.5,234.206L572,227.889L572.5,229.044L573,232.167L573.5,232.433L574,230.178L574.5,229.905L575,233.145L575.5,231.101L576,229.848L576.5,229.559L577,230.667L577.5,232.829L578,230.704L578.5,229.341L579,231.133L579.5,232.791L580,230.857L580.5,231.207L581,233.892L581.5,234.179L582,231.975L582.5,230.339L583,232.411L583.5,232.071L584,231.71L584.5,228.478L585,227.746L585.5,232.573L586,231.048L586.5,229.617L587,232.827L587.5,231.099L588,235.028L588.5,232.716L589,232.352L589.5,231.32L590,233.154L590.5,232.108L591,229.875L591.5,231.274L592,229.862L592.5,231.069L593,230.73L593.5,230.746L594,232.544L594.5,232.01L595,230.634L595.5,231.206L596,232.407L596.5,230.409L597,232.678L597.5,229.248L598,231.209L598.5,234.256L599,230.856L599.5,228.179L600,229.82L600.5,232.309L601,233.034L601.5,228.753L602,231.451L602.5,231.033L603,233.007L603.5,233.068L604,229.489L604.5,231.547L605,233.557L605.5,232.021L606,233.001L606.5,229.019L607,229.515L607.5,230.571L608,229.411L608.5,232.135L609,228.67L609.5,229.297L610,232.792L610.5,232.54L611,231.117L611.5,229.99L612,228.452L612.5,229.786L613,229.954L613.5,228.182L614,231.732L614.5,231.086L615,235.489L615.5,231.561L616,232.376L616.5,230.295L617,231.588L617.5,230.444L618,231.875L618.5,230.176L619,232.616L619.5,228.466L620,230.733L620.5,231.112L621,229.541L621.5,227.996L622,229.245L622.5,233.277L623,230.278L623.5,229.596L624,233.81L624.5,231.231L625,231.754L625.5,231.576L626,229.592L626.5,233.057L627,231.107L627.5,232.718L628,231.004L628.5,230.52L629,228.954L629.5,233.156L630,230.182L630.5,232.164L631,232.175L631.5,232.934L632,229.213L632.5,229.696L633,232.86L633.5,230.378L634,228.064L634.5,229.093L635,230.179L635.5,230.594L636,231.247L636.5,228.961L637,231.958L637.5,228.58L638,229.567L638.5,228.069L639,228.373L639.5,229.843L640,228.845L640.5,229.61L641,228.422L641.5,233.231L642,229.574L642.5,230.558L643,229.583L643.5,231.806L644,228.407L644.5,232.139L645,231.775L645.5,229.656L646,226.569L646.5,231.483L647,231.031L647.5,233.209L648,229.996L648.5,230.056L649,230.569L649.5,230.271L650,232.747L650.5,229.909L651,229.696L651.5,229.326L652,229.93L652.5,232.949L653,233.295L653.5,230.725L654,227.91L654.5,230.86L655,229.87L655.5,229.783L656,230.616L656.5,228.079L657,228.268L657.5,233.505L658,233.827L658.5,230.95L659,231.838L659.5,230.176L660,231.34L660.5,229.564L661,231.78L661.5,225.927L662,231.511L662.5,230.758L663,231.084L663.5,229.518L664,236.532L664.5,228.007L665,230.952L665.5,232.934L666,231.579L666.5,231.472L667,230.772L667.5,227.766L668,226.734L668.5,233.013L669,230.024L669.5,230.669L670,229.68L670.5,230.806L671,228.084L671.5,229.172L672,228.171L672.5,230.136L673,230.93L673.5,230.414L674,230.133L674.5,232.604L675,228.937L675.5,231.714L676,232.412L676.5,234.252L677,229.986L677.5,228.498L678,231.265L678.5,231.168L679,230.382L679.5,232.804L680,229.363L680.5,230.42L681,230.472L681.5,229.302L682,228.901L682.5,229.845L683,230.562L683.5,232.81L684,228.483L684.5,229.742L685,229.518L685.5,231.632L686,230.221L686.5,228.85L687,230.573L687.5,228.184L688,228.325L688.5,232.887L689,232.373L689.5,227.032L690,228.581L690.5,228.497L691,233.517L691.5,235.476L692,230.086L692.5,228.524L693,230.865L693.5,228.065L694,229.731L694.5,232.424L695,233.192L695.5,226.721L696,232.187L696.5,230.441L697,230.455L697.5,229.141L698,232.445L698.5,228.474L699,231.856L699.5,232.019L700,232.373L700.5,229.598L701,230.783L701.5,228.274L702,234.392L702.5,235.127L703,232.217L703.5,230.179L704,228.224L704.5,228.67L705,230.46L705.5,230.27L706,229.746L706.5,231.849L707,231.223L707.5,230.788L708,233.101L708.5,231.072L709,231.877L709.5,230.191L710,230.606L710.5,229.031L711,233.031L711.5,228.868L712,230.54L712.5,230.305L713,228.67L713.5,228.21L714,233.086L714.5,230.054L715,229.6L715.5,226.168L716,230.999L716.5,231.819L717,226.338L717.5,233.192L718,229.406L718.5,233.504L719,230.251L719.5,229.711L720,227.782L720.5,231.772L721,229.978L721.5,229.895L722,233.108L722.5,228.085L723,230.39L723.5,229.657L724,229.656L724.5,229.26L725,230.303L725.5,234.3L726,228.232L726.5,228.03L727,231.339L727.5,233.455L728,229.93L728.5,230.886L729,228.686L729.5,230.178L730,228.049L730.5,231.803L731,231.479L731.5,230.182L732,234.386L732.5,233.554L733,234.366L733.5,229.255L734,230.133L734.5,231.96L735,230.662L735.5,231.967L736,232.004L736.5,229.173L737,232.386L737.5,230.938L738,233.777L738.5,232.178L739,232.451L739.5,228.636L740,229.373L740.5,232.44L741,230.195L741.5,230.425L742,228.698L742.5,230.266L743,232.822L743.5,232.181L744,230.545L744.5,229.935L745,228.588L745.5,231.366L746,230.873L746.5,226.048L747,233.008L747.5,230.443L748,234.87L748.5,230.625L749,228.917L749.5,230.113L750,231.246L750.5,232.823L751,229.77L751.5,232.701L752,230.504L752.5,229.946L753,230.371L753.5,230.32L754,230.929L754.5,233.208L755,227.66L755.5,232.256L756,231.566L756.5,227.98L757,231.864L757.5,229.444L758,231.252L758.5,230.772L759,232.367L759.5,231.183L760,232.023L760.5,230.443L761,232.948L761.5,228.695L762,231.263L762.5,230.173L763,230.946L763.5,234.248L764,229.143L764.5,232.864L765,229.532L765.5,232.966L766,231.435L766.5,229.704L767,232.232L767.5,230.148L768,230.648L768.5,231.848L769,229.161L769.5,229.904L770,232.209L770.5,232.531L771,228.817L771.5,230.318L772,233.032L772.5,233.631L773,230.301L773.5,231.757L774,233.127L774.5,228.442L775,232.106L775.5,231.962L776,231.965L776.5,231.845L777,232.766L777.5,233.717L778,229.156L778.5,232.46L779,231.661L779.5,234.053L780,228.929L780.5,232.764L781,233.53L781.5,230.746L782,230.243L782.5,232.105L783,231.272L783.5,232.066L784,230.535L784.5,234.347L785,231.529L785.5,230.529L786,231.371L786.5,227.53L787,233.574L787.5,229.141L788,233.523L788.5,230.976L789,229.969L789.5,229.16L790,230.415L790.5,230.974L791,229.636L791.5,230.532L792,232.215L792.5,231.462L793,229.702L793.5,231.696L794,227.388L794.5,231.859L795,228.746L795.5,230.14L796,230.622L796.5,228.652L797,231.806L797.5,227.45L798,230.728L798.5,228.706L799,229.556L799.5,230.374L800,229.889L800.5,228.385L801,235.982L801.5,233.832L802,234.727L802.5,232.125L803,227.432L803.5,238.326L804,231.912L804.5,229.616L805,231.076L805.5,231.034L806,230.309L806.5,231.768L807,232.199L807.5,230.714L808,229.826L808.5,231.534L809,229.958L809.5,230.581L810,229.414L810.5,234.912L811,228.919L811.5,230.517L812,231.765L812.5,229.116L813,232.625L813.5,231.731L814,229.429L814.5,231.363L815,232.65L815.5,229.582L816,230.595L816.5,229.461L817,232.514L817.5,228.445L818,231.959L818.5,233.007L819,227.359L819.5,231.979L820,230.298L820.5,231.956L821,233.086L821.5,231.663L822,228.838L822.5,233.399L823,230.034L823.5,230.479L824,228.901L824.5,232.27L825,230.869L825.5,233.42L826,228.678L826.5,235.789L827,232.058L827.5,229.439L828,230.428L828.5,230.239L829,229.126L829.5,231.229L830,231.642L830.5,230.818L831,231.344L831.5,228.549L832,230.974L832.5,230.035L833,236.156L833.5,229.723L834,231.275L834.5,230.057L835,231.648L835.5,228.85L836,231.436L836.5,228.882L837,231.541L837.5,228.608L838,233.344L838.5,231.454L839,236.029L839.5,232.606L840,230.052L840.5,233.404L841,232.928L841.5,229.166L842,228.981L842.5,228.679L843,232.932L843.5,228.369L844,232.039L844.5,232.149L845,230.208L845.5,229.78L846,233.724L846.5,231.548L847,229.551L847.5,231.085L848,229.458L848.5,231.385L849,231.502L849.5,230.229L850,229.406L850.5,229.428L851,234.271L851.5,232.111L852,230.886L852.5,231.704L853,231.212L853.5,230.745L854,234.874L854.5,230.922L855,227.348L855.5,231.947L856,229.56L856.5,230.278L857,228.305L857.5,231.656L858,231.618L858.5,229.686L859,229.864L859.5,230.734L860,230.229L860.5,226.74L861,232.063L861.5,229.959L862,229.743L862.5,231.075L863,228.022L863.5,230.535L864,230.666L864.5,232.241L865,230.221L865.5,230.089L866,226.444L866.5,234.657L867,228.179L867.5,232.508L868,233.248L868.5,231.405L869,231.873L869.5,230.284L870,228.04L870.5,231.931L871,230.202L871.5,231.695L872,231.189L872.5,227.757L873,230.265L873.5,228.252L874,232.067L874.5,231.8L875,230.945L875.5,231.684L876,229.577L876.5,227.751L877,225.344L877.5,230.102L878,233.725L878.5,234.491L879,229.001L879.5,234.948L880,232.087L880.5,230.159L881,230.667L881.5,230.957L882,230.532L882.5,233.459L883,228.225L883.5,230.228L884,229.006L884.5,230.373L885,234.531L885.5,234.322L886,229.499L886.5,228.578L887,228.839L887.5,230.063L888,230.127L888.5,229.445L889,231.916L889.5,230.517L890,235.15L890.5,228.852L891,233.699L891.5,234.058L892,232.165L892.5,229.01L893,230.531L893.5,231.53L894,231.438L894.5,232.309L895,232.776L895.5,232.243L896,229.837L896.5,233.431L897,233.48L897.5,231.149L898,228.546L898.5,233.894L899,230.033L899.5,229.743L900,234.245L900.5,229.696L901,228.267L901.5,232.626L902,231.709L902.5,229.061L903,232.4L903.5,232.454L904,229.217L904.5,225.563L905,231.138L905.5,229.542L906,233.599L906.5,231.115L907,230.303L907.5,233.164L908,230.196L908.5,229.044L909,231.195L909.5,234.335L910,231.842L910.5,229.751L911,230.108L911.5,226.727L912,231.021L912.5,231.936L913,234.645L913.5,229.607L914,227.231L914.5,232.705L915,228.935L915.5,228.832L916,233.217L916.5,226.153L917,229.828L917.5,229.268L918,231.131L918.5,229.796L919,229.626L919.5,228.976L920,229.973L920.5,231.048L921,229.289L921.5,231.782L922,230.267L922.5,229.449L923,234.325L923.5,226.875L924,231.363L924.5,231.888L925,233.046L925.5,230.048L926,229.68L926.5,232.615L927,231.608L927.5,229.514L928,227.961L928.5,227.847L929,231.086L929.5,230.254L930,229.206L930.5,231.088L931,230.739L931.5,231.875L932,228.747L932.5,234.014L933,232.103L933.5,230.051L934,230.639L934.5,229.358L935,231.346L935.5,230.495L936,229.037L936.5,229.528L937,231.462L937.5,232.239L938,231.223L938.5,232.435L939,230.646L939.5,230.719L940,229.727L940.5,229.751L941,229.185L941.5,230.562L942,230.841L942.5,229.154L943,232.104L943.5,230.274L944,230.689L944.5,230.766L945,230.955L945.5,231.378L946,229.34L946.5,229.139L947,231.629L947.5,229.382L948,230.109L948.5,232.228L949,229.891L949.5,228.58L950,225.395L950.5,231.357L951,230.288L951.5,231.814L952,230.662L952.5,228.201L953,233.401L953.5,227.841L954,232.9L954.5,228.734L955,229.535L955.5,231.469L956,233.166L956.5,229.829L957,231.929L957.5,231.046L958,228.599L958.5,229.933L959,231.548L959.5,229.061L960,231.65L960.5,233.319L961,234.405L961.5,233.655L962,228.855L962.5,232.985L963,231.917L963.5,233.299L964,232.947L964.5,234.886L965,230.225L965.5,229.252L966,231.916L966.5,227.531L967,227.445L967.5,230.858L968,229.413L968.5,229.7L969,234.929L969.5,229.337L970,227.778L970.5,229.648L971,231.687L971.5,229.82L972,232.918L972.5,230.404L973,233.482L973.5,235.571" stroke="#4c78a8" stroke-width="2"/></g></g><path class="foreground" aria-hidden="true" d="" display="none"/></g></g></g></svg>