<svg xmlns="http://www.w3.org/2000/svg" xmlns:xlink="http://www.w3.org/1999/xlink" version="1.1" class="marks" width="1012" height="385" viewBox="0 0 1012 385"><rect width="1012" height="385" fill="white"/><g fill="none" stroke-miterlimit="10" transform="translate(7,5)"><g class="mark-group role-frame root" role="graphics-object" aria-roledescription="group mark container"><g transform="translate(0,0)"><path class="background" aria-hidden="true" d="M0.5,0.5h1000v375h-1000Z" stroke="#ddd"/><g><g class="mark-group role-axis" role="graphics-symbol" aria-roledescription="axis" aria-label="X-axis for a linear scale with values from 0 to 2,000"><g transform="translate(0.5,375.5)"><path class="background" aria-hidden="true" d="M0,0h0v0h0Z" pointer-events="none"/><g><g class="mark-rule role-axis-domain" pointer-events="none"><line transform="translate(0,0)" x2="1000" y2="0" stroke="#888" stroke-width="1" opacity="1"/></g></g><path class="foreground" aria-hidden="true" d="" pointer-events="none" display="none"/></g></g><g class="mark-group role-axis" role="graphics-symbol" aria-roledescription="axis" aria-label="Y-axis for a linear scale with values from −0.5 to 0.8"><g transform="translate(0.5,0.5)"><path class="background" aria-hidden="true" d="M0,0h0v0h0Z" pointer-events="none"/><g><g class="mark-rule role-axis-domain" pointer-events="none"><line transform="translate(0,375)" x2="0" y2="-375" stroke="#888" stroke-width="1" opacity="1"/></g></g><path class="foreground" aria-hidden="true" d="" pointer-events="none" display="none"/></g></g><g class="mark-line role-mark marks" role="graphics-object" aria-roledescription="line mark container"><path aria-label="x: 1; y: −0.00201212411137" role="graphics-symbol" aria-roledescription="line mark" d="M0.5,231.35L1,230.923L1.5,230.99L2,231.393L2.5,231.942L3,230.373L3.5,229.461L4,231.114L4.5,231.105L5,230.903L5.5,231.259L6,230.681L6.5,231.907L7,230.421L7.5,231.325L8,231.586L8.5,230.917L9,230.784L9.5,229.984L10,229.841L10.5,232.052L11,231.027L11.5,230.716L12,230.221L12.5,230.425L13,230.349L13.5,229.556L14,230.851L14.5,230.537L15,230.384L15.5,231.215L16,230.911L16.5,231.34L17,230.551L17.5,231.098L18,231.233L18.5,231.131L19,230.783L19.5,229.679L20,231.6L20.5,230.691L21,230.596L21.5,229.1L22,229.784L22.5,230.236L23,230.392L23.5,231.124L24,229.572L24.5,229.256L25,230.362L25.5,230.317L26,229.457L26.5,230.459L27,230.649L27.5,229.627L28,231.022L28.5,229.722L29,230.718L29.5,230.53L30,230.486L30.5,230.034L31,230.237L31.5,231.241L32,230.677L32.5,231.773L33,230.616L33.5,231.901L34,230.847L34.5,231.319L35,231.017L35.5,231.58L36,231.091L36.5,230.922L37,230.94L37.5,231.273L38,230.568L38.5,230.407L39,230.971L39.5,230.524L40,230.496L40.5,230.988L41,232.235L41.5,232.004L42,230.686L42.5,230.677L43,230.207L43.5,230.987L44,230.863L44.5,231.088L45,231.106L45.5,229.634L46,230.831L46.5,230.682L47,231.949L47.5,231.488L48,230.85L48.5,231.896L49,231.374L49.5,230.874L50,230.315L50.5,230.492L51,231.077L51.5,231.477L52,230.892L52.5,231.37L53,230.107L53.5,230.166L54,231.337L54.5,231.071L55,230.205L55.5,230.92L56,229.823L56.5,231.506L57,230.957L57.5,231.778L58,230.571L58.5,231.047L59,231.315L59.5,229.866L60,231.474L60.5,230.335L61,230.757L61.5,230.594L62,228.648L62.5,230.231L63,231.469L63.5,229.975L64,230.358L64.5,231.013L65,229.58L65.5,231.758L66,231.374L66.5,231.231L67,230.658L67.5,229.969L68,230.787L68.5,231.432L69,229.947L69.5,232.172L70,229.738L70.5,230.551L71,230.149L71.5,230.179L72,230.117L72.5,229.098L73,229.892L73.5,230.033L74,230.565L74.5,231.698L75,231.052L75.5,232.31L76,231.453L76.5,230.111L77,231.856L77.5,231.958L78,230.908L78.5,230.604L79,230.263L79.5,230.67L80,230.641L80.5,230.943L81,230.593L81.5,230.103L82,230.54L82.5,230.815L83,231.741L83.5,231.932L84,231.133L84.5,230.766L85,230.449L85.5,231.195L86,230.844L86.5,230.387L87,230.106L87.5,230.209L88,229.937L88.5,230.388L89,230.455L89.5,231.173L90,230.534L90.5,230.895L91,231.549L91.5,231.439L92,230.959L92.5,230.823L93,231.749L93.5,230.653L94,230.389L94.5,231.374L95,230.69L95.5,230.302L96,230.811L96.5,231.18L97,230.116L97.5,231.071L98,231.178L98.5,231.255L99,229.475L99.5,230.32L100,230.364L100.5,231.961L101,232.598L101.5,230.718L102,231.304L102.5,231.029L103,230.577L103.5,230.463L104,230.647L104.5,230.719L105,231.509L105.5,229.707L106,230.686L106.5,230.446L107,231.583L107.5,231.042L108,230.496L108.5,230.957L109,231.205L109.5,232.175L110,230.981L110.5,229.373L111,230.737L111.5,230.166L112,229.838L112.5,231.035L113,230.101L113.5,229.893L114,231.084L114.5,229.85L115,229.957L115.5,231.635L116,230.219L116.5,229.654L117,231.169L117.5,230.612L118,231.917L118.5,231.021L119,230.619L119.5,231.775L120,231.173L120.5,229.618L121,230.03L121.5,230.853L122,229.401L122.5,229.927L123,230.463L123.5,230.026L124,230.166L124.5,230.477L125,230.017L125.5,230.647L126,231.019L126.5,231.116L127,231.827L127.5,229.668L128,231.582L128.5,231.016L129,232.426L129.5,231.557L130,230.012L130.5,230.917L131,229.495L131.5,230.609L132,230.27L132.5,230.003L133,230.567L133.5,230.439L134,228.996L134.5,230.86L135,231.106L135.5,230.521L136,230.772L136.5,230.821L137,230.198L137.5,230.802L138,231.353L138.5,230.299L139,230.116L139.5,229.012L140,230.505L140.5,231.256L141,230.166L141.5,230.095L142,231.164L142.5,230.302L143,230.554L143.5,229.39L144,230.425L144.5,230.259L145,229.728L145.5,231.371L146,230.151L146.5,231.668L147,229.731L147.5,230.806L148,231.153L148.5,230.729L149,231.73L149.5,230.748L150,231.381L150.5,230.543L151,230.847L151.5,230.813L152,231.477L152.5,231.474L153,230.877L153.5,231.486L154,231.235L154.5,230.974L155,230.803L155.5,230.589L156,231.606L156.5,231.774L157,230.914L157.5,230.561L158,230.962L158.5,230.363L159,229.053L159.5,230.297L160,231.026L160.5,231.179L161,230.87L161.5,231.162L162,231.277L162.5,230.143L163,231.05L163.5,231.625L164,232.079L164.5,231.57L165,231.528L165.5,230.64L166,231.411L166.5,231.497L167,230.082L167.5,229.12L168,231.403L168.5,231.989L169,231.369L169.5,231.202L170,231.49L170.5,231.202L171,230.808L171.5,231.244L172,230.656L172.5,231.282L173,230.552L173.5,231.249L174,231.156L174.5,230.448L175,231.53L175.5,231.509L176,231.063L176.5,232.048L177,230.673L177.5,230.584L178,231.697L178.5,230.859L179,231.043L179.5,231.023L180,230.404L180.5,231.229L181,231.157L181.5,230.762L182,230.391L182.5,230.684L183,231.287L183.5,230.606L184,230.465L184.5,230.843L185,230.907L185.5,231.353L186,231.072L186.5,230.778L187,231.105L187.5,231.326L188,230.967L188.5,230.84L189,230.17L189.5,232.233L190,230.259L190.5,230.689L191,230.928L191.5,231.116L192,230.019L192.5,230.398L193,230.254L193.5,231.411L194,230.52L194.5,231.125L195,230.102L195.5,230.236L196,231.147L196.5,230.745L197,230.576L197.5,230.854L198,230.321L198.5,230.298L199,231.166L199.5,231.67L200,230.544L200.5,230.268L201,230.656L201.5,231.107L202,230.555L202.5,230.55L203,229.991L203.5,230.627L204,230.642L204.5,232.309L205,230.2L205.5,230.433L206,231.099L206.5,231.835L207,230.935L207.5,230.514L208,229.676L208.5,230.465L209,229.823L209.5,229.599L210,231.19L210.5,230.326L211,230.894L211.5,231.119L212,229.829L212.5,229.653L213,231.334L213.5,230.588L214,229.86L214.5,232.081L215,229.81L215.5,230.849L216,230.02L216.5,231.047L217,230.377L217.5,229.929L218,231.136L218.5,230.208L219,230.569L219.5,229.73L220,230.742L220.5,230.431L221,229.98L221.5,231.702L222,231.062L222.5,230.106L223,230.7L223.5,232.167L224,231.892L224.5,232.092L225,230.387L225.5,229.713L226,230.594L226.5,230.902L227,231.41L227.5,230.492L228,230.64L228.5,231.351L229,231.32L229.5,231.367L230,230.863L230.5,230.809L231,230.892L231.5,231.005L232,230.253L232.5,231.217L233,230.427L233.5,229.833L234,229.893L234.5,231.365L235,230.721L235.5,230.644L236,230.942L236.5,230.945L237,230.444L237.5,231.001L238,230.816L238.5,231.58L239,230.733L239.5,231.786L240,230.273L240.5,230.789L241,231.186L241.5,231.226L242,230.335L242.5,230.49L243,229.447L243.5,230.708L244,230.821L244.5,229.815L245,230.121L245.5,231.93L246,231.618L246.5,231.826L247,230.763L247.5,232.017L248,230.892L248.5,231.275L249,230.874L249.5,231.001L250,231.029L250.5,231.647L251,231.011L251.5,230.907L252,231.109L252.5,231.096L253,230.7L253.5,231.61L254,231.199L254.5,231.325L255,231.809L255.5,231.616L256,230.735L256.5,230.368L257,229.686L257.5,230.521L258,230.348L258.5,230.731L259,230.762L259.5,230.174L260,231.184L260.5,230.325L261,228.723L261.5,230.437L262,229.816L262.5,229.699L263,232.323L263.5,230.576L264,230.355L264.5,231.384L265,231.248L265.5,230.528L266,232.004L266.5,230.622L267,230.211L267.5,230.821L268,230.067L268.5,230.804L269,230.204L269.5,230.427L270,230.377L270.5,230.837L271,230.589L271.5,230.159L272,229.63L272.5,229.914L273,231.028L273.5,229.315L274,230.441L274.5,230.719L275,230.465L275.5,230.954L276,231.513L276.5,230.418L277,230.468L277.5,230.895L278,231.282L278.5,231.179L279,230.311L279.5,231.02L280,230.507L280.5,229.15L281,229.502L281.5,230.262L282,229.555L282.5,229.326L283,230.851L283.5,230.42L284,230.369L284.5,230.785L285,229.533L285.5,228.449L286,230.201L286.5,229.79L287,230.896L287.5,229.666L288,229.504L288.5,231.962L289,229.446L289.5,231.312L290,231.055L290.5,230.032L291,229.955L291.5,230.172L292,230.323L292.5,230.481L293,229.883L293.5,230.398L294,230.14L294.5,230.213L295,231.653L295.5,230.818L296,230.118L296.5,230.981L297,230.855L297.5,231.797L298,230.914L298.5,230.76L299,231.33L299.5,231.309L300,231.2L300.5,231.663L301,232.829L301.5,230.368L302,230.905L302.5,230.574L303,230.127L303.5,231.335L304,231.434L304.5,230.55L305,230.865L305.5,231.332L306,231.52L306.5,230.531L307,229.573L307.5,231.436L308,230.374L308.5,231.143L309,231.564L309.5,231.803L310,230.944L310.5,230.718L311,231.298L311.5,231.902L312,231.059L312.5,230.246L313,230.483L313.5,230.272L314,230.381L314.5,231.071L315,231.111L315.5,231.56L316,230.419L316.5,230.563L317,230.796L317.5,231.307L318,230.545L318.5,231.13L319,230.537L319.5,231.329L320,230.804L320.5,230.886L321,231.341L321.5,231.716L322,230.968L322.5,230.947L323,231.292L323.5,230.701L324,231.131L324.5,230.904L325,231.555L325.5,231.64L326,230.769L326.5,231.624L327,231.236L327.5,230.959L328,230.473L328.5,230.044L329,231.176L329.5,230.234L330,230.47L330.5,230.601L331,230.355L331.5,231.01L332,230.922L332.5,230.539L333,229.286L333.5,230.893L334,229.321L334.5,230.344L335,230.783L335.5,230.721L336,230.042L336.5,230.396L337,229.177L337.5,231.223L338,230.591L338.5,230.312L339,229.542L339.5,231.089L340,230.27L340.5,230.553L341,231.032L341.5,231.453L342,229.852L342.5,231.185L343,230.78L343.5,230.879L344,231.699L344.5,230.142L345,230.45L345.5,230.073L346,229.825L346.5,229.797L347,231.608L347.5,229.784L348,229.693L348.5,230.01L349,231.126L349.5,230.728L350,230.959L350.5,230.991L351,230.577L351.5,230.967L352,230.718L352.5,231.06L353,230.139L353.5,231.256L354,231.114L354.5,231.805L355,232.164L355.5,230.649L356,232.336L356.5,230.99L357,231.207L357.5,231.72L358,232.26L358.5,232.483L359,232.136L359.5,230.804L360,231.663L360.5,231.291L361,230.7L361.5,230.45L362,229.755L362.5,231.769L363,230.191L363.5,230.13L364,231.402L364.5,231.319L365,230.956L365.5,231.485L366,231.303L366.5,231.708L367,231.325L367.5,231.162L368,231.496L368.5,231.355L369,231.59L369.5,231.159L370,230.477L370.5,231.259L371,230.951L371.5,231.879L372,231.252L372.5,231.976L373,230.782L373.5,231.194L374,231.827L374.5,231.203L375,231.689L375.5,231.332L376,231.566L376.5,230.921L377,231.504L377.5,231.01L378,231.43L378.5,229.378L379,230.266L379.5,230.8L380,230.489L380.5,231.453L381,232.29L381.5,230.935L382,230.957L382.5,230.542L383,231.515L383.5,231.23L384,230.495L384.5,230.768L385,230.99L385.5,230.91L386,231.817L386.5,230.059L387,230.986L387.5,230.604L388,230.245L388.5,230.555L389,230.981L389.5,231.064L390,229.96L390.5,230.257L391,230.264L391.5,229.603L392,230.561L392.5,229.964L393,231.13L393.5,229.767L394,230.934L394.5,230.945L395,231.43L395.5,230.381L396,230.096L396.5,229.711L397,230.476L397.5,229.923L398,230.648L398.5,230.368L399,230.658L399.5,230.735L400,230.551L400.5,230.905L401,230.419L401.5,230.763L402,230.678L402.5,229.668L403,230.454L403.5,230.052L404,230.47L404.5,230.223L405,231.508L405.5,233.208L406,230.743L406.5,230.792L407,230.86L407.5,230.327L408,230.334L408.5,230.709L409,230.041L409.5,230.192L410,230.245L410.5,229.739L411,230.863L411.5,230.589L412,232.051L412.5,230.825L413,230.387L413.5,230.323L414,230.478L414.5,230.808L415,231.052L415.5,229.411L416,229.583L416.5,230.094L417,230.411L417.5,230.592L418,231.687L418.5,230.832L419,230.614L419.5,230.726L420,231.251L420.5,231.534L421,231.916L421.5,230.589L422,230.2L422.5,229.728L423,229.759L423.5,230.744L424,229.421L424.5,230.665L425,229.784L425.5,230.824L426,231.765L426.5,229.664L427,231.004L427.5,230.023L428,229.824L428.5,231.565L429,231.167L429.5,230.356L430,229.937L430.5,230.753L431,230.856L431.5,230.956L432,230.399L432.5,230.853L433,231.194L433.5,229.867L434,231.919L434.5,231.434L435,231.138L435.5,231.176L436,231.02L436.5,230.779L437,230.717L437.5,229.945L438,231.057L438.5,231.131L439,230.561L439.5,230.061L440,231.905L440.5,229.9L441,230.794L441.5,230.712L442,230.422L442.5,229.672L443,230.149L443.5,232.453L444,228.635L444.5,231.746L445,232.098L445.5,230.397L446,230.488L446.5,231.111L447,230.905L447.5,230.611L448,230.894L448.5,230.14L449,231.284L449.5,230.722L450,230.313L450.5,230.386L451,230.011L451.5,230.688L452,231.278L452.5,230.771L453,230.665L453.5,232.371L454,230.897L454.5,231.742L455,230.684L455.5,230.302L456,230.457L456.5,232.14L457,230.256L457.5,231.778L458,229.726L458.5,231.538L459,231.135L459.5,231.053L460,231.404L460.5,231.955L461,231.801L461.5,230.958L462,231.286L462.5,230.842L463,230.5L463.5,231.581L464,230.819L464.5,229.906L465,231.34L465.5,231.157L466,230.709L466.5,229.71L467,229.965L467.5,231.131L468,230.357L468.5,230.919L469,230.527L469.5,230.925L470,231.079L470.5,230.925L471,231.016L471.5,231.376L472,230.736L472.5,231.378L473,230.445L473.5,231.833L474,230.743L474.5,231.147L475,230.239L475.5,230.812L476,229.479L476.5,230.678L477,230.838L477.5,230.47L478,229.744L478.5,231.715L479,231.626L479.5,230.325L480,232.078L480.5,229.342L481,231.718L481.5,230.211L482,230.308L482.5,229.664L483,230.177L483.5,231.933L484,230.466L484.5,230.842L485,230.596L485.5,230.685L486,230.461L486.5,230.45L487,230.927L487.5,230.962L488,230.81L488.5,231.972L489,230.868L489.5,230.894L490,229.91L490.5,230.03L491,230.043L491.5,229.275L492,230.09L492.5,229.79L493,230.152L493.5,229.825L494,232.073L494.5,230.757L495,231.583L495.5,230.737L496,231.75L496.5,230.75L497,230.931L497.5,230.296L498,230.813L498.5,229.85L499,230.645L499.5,230.75L500,229.823L500.5,230.748L501,230.068L501.5,230.431L502,230.967L502.5,230.104L503,230.81L503.5,229.93L504,230.93L504.5,229.829L505,229.848L505.5,230.313L506,230.414L506.5,230.357L507,230.888L507.5,229.548L508,229.197L508.5,230.29L509,230.1L509.5,230.127L510,229.912L510.5,230.512L511,230.036L511.5,231.042L512,230.573L512.5,230.541L513,230.705L513.5,229.548L514,230.745L514.5,231.13L515,231.068L515.5,230.743L516,230.779L516.5,231.727L517,231.083L517.5,230.445L518,230.846L518.5,230.85L519,230.625L519.5,231.845L520,230.501L520.5,230.858L521,230.866L521.5,231.103L522,230.748L522.5,231.657L523,232.027L523.5,230.77L524,230.689L524.5,230.523L525,230.77L525.5,230.421L526,230.228L526.5,230.488L527,231.03L527.5,230.977L528,229.836L528.5,230.148L529,230.968L529.5,231.464L530,230.858L530.5,231.588L531,231.861L531.5,229.085L532,231.679L532.5,231.044L533,231.384L533.5,230.578L534,231.698L534.5,230.509L535,229.346L535.5,230.631L536,231.908L536.5,232.131L537,231.199L537.5,230.571L538,231.09L538.5,230.548L539,231.424L539.5,231.678L540,231.892L540.5,230.58L541,230.753L541.5,231.382L542,230.772L542.5,230.781L543,230.297L543.5,229.741L544,230.554L544.5,230.791L545,229.908L545.5,230.175L546,231.567L546.5,230.825L547,230.378L547.5,231.942L548,231.335L548.5,229.672L549,231.482L549.5,230.523L550,230.279L550.5,229.344L551,230.243L551.5,230.954L552,231.238L552.5,230.326L553,230.346L553.5,221.516L554,228.948L554.5,9.924L555,346.973L555.5,251.068L556,231.553L556.5,231.501L557,230.563L557.5,230.831L558,230.788L558.5,230.821L559,229.814L559.5,230.878L560,230.772L560.5,231.806L561,231.064L561.5,231.296L562,230.873L562.5,230.088L563,229.795L563.5,230.656L564,231.627L564.5,230.27L565,230.538L565.5,231.443L566,230.192L566.5,229.467L567,229.714L567.5,229.855L568,231.458L568.5,231.69L569,230.652L569.5,231.476L570,230.593L570.5,230.572L571,230.468L571.5,232.018L572,230.078L572.5,231.235L573,231.179L573.5,231.666L574,230.192L574.5,230.334L575,230.353L575.5,231.501L576,230.839L576.5,229.645L577,230.179L577.5,231.5L578,229.918L578.5,228.996L579,229.6L579.5,231.041L580,232.123L580.5,231.179L581,231.664L581.5,231.952L582,231.037L582.5,230.22L583,231.478L583.5,229.809L584,231.007L584.5,229.835L585,230.736L585.5,230.903L586,231.454L586.5,231.25L587,231.035L587.5,230.178L588,231.422L588.5,231.273L589,231.245L589.5,231.749L590,231.228L590.5,231.014L591,231.894L591.5,231.836L592,231.424L592.5,230.795L593,231.196L593.5,230.98L594,231.512L594.5,229.982L595,230.887L595.5,230.892L596,231.374L596.5,231.755L597,231.376L597.5,231.306L598,230.553L598.5,232.437L599,231.184L599.5,230.927L600,231.544L600.5,231.208L601,231.119L601.5,230.013L602,230.453L602.5,231.046L603,230.193L603.5,231.607L604,231.12L604.5,231.072L605,231.081L605.5,231.773L606,231.593L606.5,230.569L607,230.761L607.5,231.558L608,229.736L608.5,230.663L609,231.51L609.5,231.316L610,232.293L610.5,230.771L611,231.777L611.5,230.078L612,231.538L612.5,230.82L613,230.506L613.5,229.474L614,230.148L614.5,231.706L615,231.653L615.5,230.48L616,229.716L616.5,232.016L617,230.055L617.5,231.096L618,230.906L618.5,230.585L619,231.555L619.5,231.512L620,230.14L620.5,230.386L621,230.061L621.5,232.271L622,230.854L622.5,229.658L623,231.235L623.5,230.095L624,230.773L624.5,230.298L625,231.321L625.5,231.156L626,231.217L626.5,230.924L627,230.084L627.5,230.588L628,230.253L628.5,230.152L629,231.274L629.5,231.175L630,230.337L630.5,230.89L631,230.478L631.5,232.557L632,230.477L632.5,230.412L633,230.298L633.5,230.306L634,230.493L634.5,230.509L635,231.057L635.5,229.769L636,230.621L636.5,231.165L637,229.946L637.5,231.075L638,229.711L638.5,230.094L639,231.025L639.5,231.303L640,231.009L640.5,231.161L641,230.338L641.5,230.024L642,231.101L642.5,231.385L643,231.065L643.5,230.711L644,231.099L644.5,231.41L645,230.35L645.5,229.956L646,229.958L646.5,231.896L647,230.232L647.5,231.189L648,230.946L648.5,230.596L649,231.046L649.5,230.459L650,230.619L650.5,230.365L651,230.123L651.5,230.45L652,230.315L652.5,230.957L653,230.323L653.5,230.946L654,229.426L654.5,230.457L655,230.105L655.5,230.203L656,230.386L656.5,230.704L657,229.286L657.5,231.1L658,230.405L658.5,231.634L659,231.458L659.5,230.824L660,230.875L660.5,231.088L661,231.089L661.5,230.65L662,230.881L662.5,230.908L663,230.042L663.5,229.863L664,232.208L664.5,230.951L665,231.738L665.5,230.607L666,230.561L666.5,231.659L667,230.641L667.5,230.557L668,230.679L668.5,231.866L669,231.46L669.5,232.105L670,230.848L670.5,230.44L671,230.156L671.5,231.257L672,230.159L672.5,230.81L673,231.911L673.5,230.474L674,231.273L674.5,230.714L675,231.102L675.5,230.933L676,231.003L676.5,230.648L677,231.154L677.5,231.016L678,230.792L678.5,231.646L679,230.752L679.5,230.687L680,230.701L680.5,231.035L681,230.899L681.5,230.932L682,230.355L682.5,230.036L683,231.449L683.5,231.543L684,230.487L684.5,230.295L685,231.267L685.5,230.077L686,230.61L686.5,230.104L687,230.773L687.5,228.559L688,230.501L688.5,230.545L689,230.713L689.5,229.872L690,229.855L690.5,229.953L691,230.583L691.5,230.46L692,231.364L692.5,230.768L693,231.412L693.5,230.616L694,231.424L694.5,231.73L695,231.454L695.5,229.648L696,231.128L696.5,231.859L697,229.951L697.5,230.295L698,230.433L698.5,230.747L699,229.594L699.5,229.523L700,231.125L700.5,229.455L701,229.233L701.5,231.17L702,231.475L702.5,232.502L703,230.26L703.5,231.044L704,230.072L704.5,230.389L705,230.2L705.5,230.993L706,231.435L706.5,230.256L707,230.566L707.5,230.613L708,230.948L708.5,231.015L709,230.606L709.5,230.64L710,229.947L710.5,230.286L711,230.324L711.5,230.216L712,229.106L712.5,229.585L713,229.868L713.5,229.655L714,230.136L714.5,230.883L715,230.694L715.5,229.466L716,231.057L716.5,231.121L717,230.16L717.5,231.239L718,230.679L718.5,231.104L719,230.625L719.5,230.984L720,231.308L720.5,231.153L721,231.534L721.5,231.539L722,230.347L722.5,229.722L723,230.74L723.5,230.202L724,230.513L724.5,230.94L725,231.385L725.5,230.653L726,230.333L726.5,230.69L727,230.864L727.5,231.157L728,229.847L728.5,230.764L729,230.877L729.5,231.062L730,231.038L730.5,230.56L731,231.233L731.5,230.577L732,230.656L732.5,230.463L733,231.817L733.5,231.161L734,230.442L734.5,230.894L735,230.363L735.5,231.368L736,230.895L736.5,231.396L737,230.63L737.5,230.913L738,233.091L738.5,230.972L739,230.907L739.5,230.581L740,230.786L740.5,232.235L741,230.855L741.5,230.675L742,229.865L742.5,231.053L743,230.982L743.5,230.721L744,230.999L744.5,232.052L745,230.827L745.5,230.62L746,231.365L746.5,230.79L747,231.736L747.5,229.646L748,230.535L748.5,230.63L749,230.599L749.5,231.916L750,231.678L750.5,230.224L751,231.29L751.5,230.907L752,230.667L752.5,231.359L753,230.942L753.5,230.804L754,229.886L754.5,230.271L755,229.919L755.5,231.859L756,230.854L756.5,230.214L757,231.059L757.5,230.845L758,230.464L758.5,231.455L759,230.77L759.5,231.021L760,231.348L760.5,231.289L761,231.398L761.5,230.667L762,231.475L762.5,230.633L763,230.552L763.5,230.937L764,230.49L764.5,231.652L765,230.624L765.5,232.044L766,230.107L766.5,230.8L767,231.466L767.5,230.743L768,231.254L768.5,230.707L769,230.276L769.5,230.467L770,230.543L770.5,230.706L771,230.336L771.5,230.721L772,231.21L772.5,230.846L773,230.478L773.5,231.058L774,231.035L774.5,231.455L775,230.496L775.5,229.553L776,231.236L776.5,229.878L777,231.217L777.5,230.822L778,230.321L778.5,230.824L779,230.823L779.5,231.354L780,230.17L780.5,230.127L781,229.942L781.5,229.263L782,229.673L782.5,229.951L783,230.649L783.5,230.62L784,229.715L784.5,230.923L785,230.647L785.5,230.986L786,231.169L786.5,230.736L787,231.158L787.5,230.169L788,229.767L788.5,230.301L789,231.143L789.5,230.089L790,230.501L790.5,230.077L791,230.87L791.5,230.692L792,231.02L792.5,231.121L793,230.855L793.5,230.699L794,229.85L794.5,231.474L795,230.425L795.5,229.783L796,231.189L796.5,230.758L797,230.662L797.5,229.948L798,230.884L798.5,230.676L799,229.953L799.5,230.196L800,230.432L800.5,228.604L801,230.609L801.5,230.065L802,230.929L802.5,230.429L803,231.052L803.5,231.574L804,230.739L804.5,231.807L805,230.144L805.5,230.137L806,231.747L806.5,230.954L807,230.194L807.5,230.635L808,230.936L808.5,231.059L809,230.669L809.5,230.831L810,230.066L810.5,230.97L811,230.056L811.5,231.461L812,231.097L812.5,231.186L813,231.691L813.5,229.685L814,230.841L814.5,230.271L815,230.566L815.5,231.006L816,230.631L816.5,230.557L817,230.971L817.5,230.192L818,230.468L818.5,230.938L819,229.666L819.5,230.352L820,230.758L820.5,231.492L821,230.692L821.5,230.251L822,231.821L822.5,231.24L823,230.465L823.5,231.168L824,230.557L824.5,231.625L825,229.852L825.5,231.341L826,230.846L826.5,232.145L827,230.057L827.5,229.964L828,230.931L828.5,230.881L829,229.921L829.5,231.488L830,230.233L830.5,231.14L831,230.595L831.5,230.663L832,231.113L832.5,230.785L833,231.871L833.5,230.035L834,231.554L834.5,229.715L835,231.248L835.5,230.017L836,230.757L836.5,230.157L837,229.764L837.5,231.086L838,230.632L838.5,230.313L839,231.335L839.5,230.905L840,230.989L840.5,231.823L841,231.57L841.5,229.972L842,230.858L842.5,229.837L843,230.5L843.5,229.949L844,229.859L844.5,229.816L845,229.934L845.5,230.376L846,229.95L846.5,230.665L847,230.71L847.5,230.949L848,230.94L848.5,230.88L849,231.185L849.5,230.927L850,230.129L850.5,230.299L851,231.484L851.5,231.871L852,230.615L852.5,230.905L853,231.218L853.5,229.922L854,231.906L854.5,230.844L855,232.023L855.5,231.817L856,231.529L856.5,231.338L857,230.436L857.5,230.959L858,230.767L858.5,230.364L859,230.801L859.5,231.486L860,230.804L860.5,230.707L861,231.002L861.5,230.921L862,230.406L862.5,231.444L863,230.677L863.5,231.462L864,230.316L864.5,230.601L865,230.446L865.5,231.184L866,230.418L866.5,232.146L867,230.378L867.5,230.919L868,230.915L868.5,231.86L869,230.306L869.5,230.999L870,231.42L870.5,230.681L871,230.195L871.5,231.024L872,231.108L872.5,231.566L873,231.662L873.5,231.139L874,231.056L874.5,230.92L875,231.548L875.5,230.369L876,229.768L876.5,230.42L877,230.757L877.5,230.994L878,231.292L878.5,231.989L879,230.535L879.5,231.675L880,232.193L880.5,231.541L881,230.618L881.5,231.354L882,232.436L882.5,231.911L883,231.458L883.5,230.993L884,230.075L884.5,230.671L885,231.779L885.5,230.988L886,230.178L886.5,230.438L887,231.01L887.5,231.287L888,230.163L888.5,230.835L889,231.214L889.5,230.893L890,231.878L890.5,230.714L891,231.442L891.5,231.886L892,230.328L892.5,230.821L893,230.522L893.5,230.729L894,231.135L894.5,230.108L895,231.012L895.5,230.965L896,231.261L896.5,230.603L897,231.169L897.5,230.988L898,230.575L898.5,231.29L899,230.563L899.5,230.998L900,230.855L900.5,230.688L901,230.517L901.5,230.916L902,231.163L902.5,230.71L903,230.819L903.5,231.005L904,230.697L904.5,230.209L905,231.349L905.5,230.11L906,230.346L906.5,231.921L907,230.56L907.5,231.649L908,231.289L908.5,230.301L909,230.012L909.5,231.084L910,230.804L910.5,231.199L911,230.084L911.5,230.02L912,230.639L912.5,231.26L913,231.832L913.5,231.67L914,230.399L914.5,231.559L915,230.131L915.5,230.943L916,230.143L916.5,230.264L917,231.378L917.5,230.877L918,230.824L918.5,229.528L919,230.289L919.5,230.541L920,231.308L920.5,229.869L921,230.822L921.5,229.87L922,229.967L922.5,231.09L923,230.406L923.5,230.475L924,230.013L924.5,230.39L925,230.03L925.5,231.014L926,230.592L926.5,230.435L927,230.968L927.5,230.281L928,230.926L928.5,230.587L929,229.365L929.5,229.817L930,229.582L930.5,230.278L931,230.04L931.5,230.275L932,230.074L932.5,230.842L933,230.233L933.5,230.698L934,230.484L934.5,231.545L935,231.048L935.5,231.031L936,230.37L936.5,230.179L937,230.985L937.5,230.551L938,230.285L938.5,230.127L939,230.487L939.5,230.642L940,231.71L940.5,230.073L941,230.638L941.5,230.762L942,231.254L942.5,229.682L943,231.79L943.5,230.442L944,230.315L944.5,230.332L945,230.858L945.5,230.348L946,230.169L946.5,229.356L947,230.773L947.5,231.106L948,230.891L948.5,230.146L949,231.163L949.5,231.441L950,229.923L950.5,231.277L951,230.775L951.5,231.514L952,230.442L952.5,231.752L953,230.875L953.5,230.35L954,231.119L954.5,230.328L955,230.993L955.5,230.129L956,231.195L956.5,230.026L957,230.803L957.5,231.13L958,230.173L958.5,230.385L959,231.261L959.5,230.718L960,230.918L960.5,230.911L961,231.244L961.5,231.007L962,229.698L962.5,230.622L963,230.424L963.5,230.407L964,231.516L964.5,230.955L965,230.804L965.5,230.937L966,232.152L966.5,230.647L967,230.08L967.5,231.812L968,230.145L968.5,231.235L969,232.043L969.5,231.082L970,230.644L970.5,230.623L971,230.435L971.5,231.324L972,230.645L972.5,231.13L973,231.69L973.5,231.339" stroke="#4c78a8" stroke-width="2"/></g></g><path class="foreground" aria-hidden="true" d="" display="none"/></g></g></g></svg>