<svg xmlns="http://www.w3.org/2000/svg" xmlns:xlink="http://www.w3.org/1999/xlink" version="1.1" class="marks" width="1012" height="385" viewBox="0 0 1012 385"><rect width="1012" height="385" fill="white"/><rect width="1012" height="385" fill="white"/><path d="M17,229 L18,229 L19,230 L21,231 L22,232 L24,232 L25,231 L27,230 L29,229 L32,228 L35,227 L38,226 L40,225 L42,225 L44,225 L46,225 L48,226 L51,228 L53,229 L55,229 L56,229 L57,227 L58,227 L61,227 L63,227 L66,227 L68,227 L70,227 L71,227 L72,227 L74,227 L76,228 L78,228 L80,228 L81,229 L84,229 L87,230 L90,230 L92,229 L94,229 L96,229 L99,229 L102,228 L104,228 L107,228 L109,227 L112,227 L114,227 L117,227 L120,227 L123,226 L126,226 L129,226 L132,225 L136,225 L139,225 L144,226 L149,227 L153,227 L158,227 L161,225 L163,224 L165,226 L169,229 L173,233 L177,234 L179,235 L180,234 L181,234 L182,233 L184,233 L186,234 L189,234 L192,234 L195,234 L198,234 L201,234 L205,234 L209,233 L213,233 L217,233 L220,233 L224,233 L229,233 L234,234 L239,234 L244,234 L250,234 L255,234 L261,234 L268,234 L274,234 L280,234 L287,234 L293,234 L300,234 L307,234 L313,234 L320,234 L326,233 L332,233 L338,232 L344,232 L349,232 L355,232 L361,232 L366,233 L371,234 L376,234 L381,234 L385,234 L391,235 L396,235 L401,235 L407,235 L413,235 L418,234 L422,234 L426,234 L431,234 L435,235 L440,235 L445,236 L449,236 L454,236 L459,236 L464,235 L469,235 L474,235 L479,235 L484,235 L490,234 L494,234 L500,234 L506,234 L511,234 L516,234 L522,234 L527,234 L532,234 L537,234 L541,234 L546,234 L550,234 L555,234 L560,234 L564,233 L569,232 L573,232 L576,232 L578,232 L579,232 L579,233 L579,234 L579,231 L578,225 L577,213 L576,199 L575,186 L574,171 L573,152 L573,132 L574,118 L574,107 L574,97 L574,88 L575,82 L576,80 L576,79 L577,80 L579,84 L580,89 L581,94 L582,99 L584,104 L585,111 L586,122 L587,141 L588,163 L588,180 L589,194 L589,210 L589,227 L589,241 L589,253 L591,263 L591,271 L593,276 L594,281 L596,288 L599,295 L601,303 L602,308 L603,310 L603,311 L603,312 L604,313 L604,316 L605,317 L605,314 L604,310 L603,305 L603,299 L602,289 L602,275 L601,264 L600,258 L599,254 L599,249 L598,243 L598,238 L598,236 L598,235 L598,234 L598,233 L598,234 L599,234 L601,234 L604,234 L608,234 L613,234 L616,234 L620,234 L623,235 L627,235 L631,234 L635,234 L638,234 L641,234 L645,234 L649,234 L653,233 L657,233 L661,233 L666,233 L670,233 L674,233 L678,233 L683,232 L689,232 L694,232 L700,231 L706,231 L711,231 L717,231 L723,231 L729,231 L736,230 L743,230 L750,229 L757,229 L765,229 L772,228 L781,228 L788,228 L797,228 L804,228 L812,228 L820,228 L828,228 L836,228 L843,228 L852,228 L859,229 L868,229 L875,229 L882,229 L890,229 L897,230 L903,230 L909,230 L915,230 L922,230 L927,231 L931,231 L933,232" fill="none" stroke="red" stroke-width="3"/></svg>