<svg xmlns="http://www.w3.org/2000/svg" version="1.1" xmlns:xlink="http://www.w3.org/1999/xlink" xmlns:svgjs="http://svgjs.dev/svgjs" width="950" height="375" id="chartSvg"><path d="M51,223 L50,223 L49,224 L49,223 L49,222 L50,221 L51,220 L52,219 L55,219 L57,219 L59,221 L62,223 L64,225 L65,226 L66,225 L67,223 L68,221 L70,220 L73,218 L75,218 L78,219 L82,220 L85,220 L88,221 L90,222 L91,222 L92,222 L95,221 L97,219 L98,218 L100,218 L102,218 L106,219 L109,220 L112,221 L114,222 L117,222 L120,222 L123,221 L125,220 L127,217 L129,216 L131,216 L134,216 L138,217 L142,219 L146,220 L150,221 L153,221 L155,221 L157,220 L158,219 L160,217 L162,216 L163,216 L165,216 L168,217 L171,219 L176,220 L180,220 L183,220 L185,220 L187,219 L190,217 L192,216 L195,216 L198,216 L201,217 L205,218 L209,220 L212,220 L215,220 L218,220 L220,218 L221,217 L223,215 L226,214 L229,214 L233,213 L236,215 L238,216 L241,218 L244,219 L247,219 L249,218 L251,217 L253,215 L256,213 L259,212 L262,212 L265,213 L268,214 L272,215 L275,215 L278,216 L281,216 L283,216 L285,214 L288,212 L291,211 L293,211 L295,210 L298,211 L300,212 L304,213 L307,214 L309,215 L311,215 L313,215 L315,214 L317,212 L320,212 L322,211 L325,211 L328,211 L331,212 L334,213 L336,213 L338,214 L339,213 L341,212 L342,211 L344,210 L346,209 L349,208 L352,209 L355,210 L357,210 L360,212 L363,212 L365,213 L367,213 L369,212 L371,211 L374,210 L377,210 L380,210 L383,210 L385,211 L388,212 L391,213 L393,213 L396,213 L397,212 L398,210 L399,209 L401,208 L403,208 L405,208 L408,210 L410,210 L412,212 L414,212 L416,212 L418,213 L420,212 L422,211 L424,211 L426,211 L429,211 L431,212 L434,213 L438,214 L441,215 L444,215 L447,214 L450,213 L453,212 L456,212 L458,212 L460,212 L463,212 L465,213 L466,214 L467,215 L467,216 L467,215 L467,214 L467,212 L467,211 L467,210 L467,208 L467,207 L467,205 L467,203 L468,201 L469,200 L469,198 L469,196 L469,194 L469,192 L469,190 L468,189 L468,188 L468,187 L468,186 L468,185 L468,183 L468,182 L468,180 L468,179 L469,177 L470,175 L471,173 L471,171 L472,170 L472,168 L472,166 L472,164 L472,162 L472,160 L471,158 L471,155 L471,153 L471,151 L471,148 L471,146 L472,144 L472,141 L472,138 L472,135 L471,133 L471,131 L471,129 L471,127 L471,126 L471,124 L471,123 L471,122 L471,120 L471,119 L472,118 L472,117 L473,115 L473,114 L474,114 L474,113 L475,113 L475,112 L476,111 L476,110 L477,109 L477,108 L477,107 L477,105 L477,103 L477,102 L477,101 L477,100 L477,99 L477,98 L478,97 L478,96 L478,95 L478,94 L478,92 L478,90 L478,88 L478,86 L479,85 L479,84 L479,83 L479,82 L479,80 L480,79 L480,78 L480,77 L480,76 L480,78 L480,80 L480,82 L479,85 L479,88 L478,92 L476,96 L476,99 L475,102 L475,105 L474,108 L474,110 L476,112 L477,115 L479,117 L479,119 L480,122 L480,124 L480,128 L480,131 L480,134 L480,136 L480,139 L479,141 L479,144 L478,147 L477,150 L476,154 L475,157 L474,161 L473,165 L472,169 L471,173 L471,177 L471,180 L472,184 L473,188 L472,191 L471,195 L471,199 L472,201 L474,204 L474,206 L474,208 L472,211 L471,215 L471,218 L472,222 L474,226 L475,229 L476,230 L476,232 L477,233 L479,234 L479,236 L479,238 L479,241 L479,244 L481,248 L482,252 L483,256 L483,259 L481,263 L480,266 L479,270 L479,273 L479,277 L479,279 L479,282 L480,284 L481,286 L481,288 L483,290 L484,292 L484,294 L484,296 L484,298 L484,299 L484,301 L484,303 L484,304 L484,306 L484,308 L485,310 L485,312 L485,313 L485,315 L484,317 L484,320 L484,322 L483,325 L483,327 L484,329 L484,331 L485,333 L486,335 L487,336 L488,337 L488,339 L489,342 L489,344 L490,345 L490,346 L491,347 L491,348 L491,349 L491,347 L491,345 L492,342 L493,337 L493,330 L494,322 L495,316 L495,310 L495,304 L493,298 L492,293 L491,288 L490,283 L489,278 L487,274 L486,269 L484,265 L483,261 L483,258 L483,254 L484,251 L484,249 L484,248 L484,247 L484,246 L484,245 L484,244 L483,242 L483,239 L483,237 L483,235 L484,234 L484,232 L486,229 L486,227 L486,226 L487,225 L487,224 L488,223 L489,222 L490,221 L491,220 L493,220 L495,220 L498,220 L501,220 L503,220 L505,218 L507,217 L508,215 L509,215 L511,215 L513,216 L515,216 L519,216 L522,214 L524,212 L525,211 L525,210 L525,211 L528,211 L532,212 L537,212 L541,211 L544,208 L547,204 L551,201 L553,200 L556,200 L559,200 L562,201 L565,203 L568,204 L571,204 L574,204 L578,202 L580,201 L582,201 L584,200 L587,200 L592,202 L597,203 L601,204 L604,204 L607,202 L610,200 L613,199 L616,199 L618,199 L620,199 L621,199 L624,200 L628,200 L630,202 L631,202 L633,202 L634,201 L636,200 L638,200 L641,200 L644,200 L647,201 L650,202 L653,203 L655,203 L657,203 L659,203 L661,202 L663,200 L665,200 L667,200 L668,200 L670,200 L673,202 L676,202 L678,203 L681,203 L683,202 L685,201 L687,200 L690,200 L692,200 L694,201 L696,201 L699,202 L701,202 L704,202 L706,202 L708,201 L709,200 L711,200 L713,200 L714,200 L714,201 L714,202 L713,202 L715,202 L718,202 L721,202 L724,201 L726,200 L728,200 L730,201 L731,203 L733,205 L735,206 L739,207 L743,207 L745,206 L749,205 L752,205 L754,204 L757,204 L758,205 L761,206 L764,207 L767,208 L770,207 L772,206 L775,204 L779,202 L783,201 L786,200 L789,201 L792,202 L795,205 L798,207 L801,207 L803,207 L804,207 L807,206 L811,205 L816,204 L820,203 L824,202 L829,202 L835,202 L841,203 L846,203 L849,204 L851,204 L853,204 L855,205" fill="none" stroke="red" stroke-width="3"/></svg>