<svg xmlns="http://www.w3.org/2000/svg" version="1.1" xmlns:xlink="http://www.w3.org/1999/xlink" xmlns:svgjs="http://svgjs.dev/svgjs" width="950" height="375" id="chartSvg"><path d="M14,218 L14,219 L15,219 L15,220 L16,220 L16,221 L16,222 L17,222 L17,223 L17,224 L18,224 L19,225 L19,226 L19,227 L20,227 L20,228 L20,229 L21,229 L21,230 L21,232 L22,233 L22,234 L23,236 L24,237 L25,239 L26,240 L28,242 L29,243 L31,244 L31,246 L33,247 L34,249 L35,251 L36,252 L37,253 L38,254 L39,255 L40,256 L41,257 L42,257 L44,257 L45,257 L47,257 L49,256 L51,254 L52,251 L54,249 L56,244 L59,240 L62,235 L65,229 L68,224 L70,220 L73,215 L75,210 L79,206 L82,203 L84,202 L87,201 L89,200 L91,200 L94,200 L97,200 L100,199 L102,199 L105,200 L107,200 L109,201 L110,202 L112,202 L114,202 L115,202 L116,202 L118,203 L119,203 L120,203 L122,204 L123,204 L124,205 L125,205 L126,206 L127,206 L128,207 L129,208 L130,208 L132,209 L133,210 L134,210 L136,211 L137,212 L139,213 L140,214 L141,214 L142,215 L143,216 L144,217 L145,217 L146,218 L147,219 L148,219 L149,220 L150,221 L151,221 L151,222 L152,223 L153,223 L153,224 L154,224 L155,225 L156,226 L157,227 L158,228 L159,229 L160,230 L161,231 L162,232 L163,233 L164,234 L165,234 L166,235 L167,236 L168,237 L169,237 L170,237 L171,238 L173,239 L174,239 L176,240 L178,241 L180,242 L182,243 L184,244 L186,245 L188,246 L190,247 L192,248 L194,249 L195,249 L196,250 L197,250 L198,251 L199,251 L200,252 L202,252 L203,253 L204,254 L205,254 L206,256 L207,256 L208,257 L210,257 L211,258 L212,258 L214,259 L215,259 L216,260 L217,260 L219,261 L220,261 L221,262 L223,262 L224,263 L225,264 L226,264 L227,265 L228,266 L229,266 L231,267 L232,267 L233,268 L234,268 L234,269 L235,270 L236,270 L237,271 L237,272 L238,272 L239,273 L240,273 L241,274 L242,275 L243,275 L244,276 L245,276 L247,277 L249,278 L250,278 L252,278 L254,278 L255,279 L257,279 L259,279 L260,279 L262,279 L263,280 L265,280 L266,280 L267,280 L268,279 L269,279 L270,278 L271,278 L272,278 L273,278 L274,278 L275,277 L276,277 L277,277 L278,276 L279,276 L280,276 L282,275 L283,275 L285,274 L286,274 L288,273 L289,273 L291,273 L292,272 L294,272 L296,272 L298,271 L300,271 L303,271 L305,270 L308,269 L310,268 L313,267 L315,265 L318,263 L321,261 L324,260 L327,258 L329,256 L331,255 L334,253 L337,251 L339,249 L342,248 L344,247 L347,246 L350,245 L353,244 L357,244 L360,244 L363,244 L366,245 L369,246 L372,247 L375,248 L378,249 L381,250 L383,251 L385,251 L388,252 L390,253 L393,254 L395,255 L397,256 L399,256 L401,257 L404,257 L407,258 L410,259 L413,261 L416,262 L418,263 L421,265 L424,267 L427,269 L431,271 L434,273 L437,276 L440,278 L444,282 L447,285 L450,288 L452,290 L454,292 L457,294 L459,296 L462,298 L465,299 L467,300 L469,301 L471,302 L472,302 L474,302 L475,302 L476,302 L477,301 L479,300 L479,299 L480,298 L481,298 L482,296 L484,295 L485,294 L486,293 L488,293 L489,293 L491,293 L492,293 L494,293 L496,293 L497,293 L499,293 L501,293 L503,293 L505,293 L507,293 L509,293 L511,293 L513,294 L515,294 L517,294 L519,295 L522,295 L524,295 L526,295 L528,296 L529,296 L531,297 L533,297 L534,298 L535,298 L536,298 L537,298 L538,298 L539,298 L540,298 L541,297 L542,296 L544,295 L545,294 L547,292 L550,290 L552,288 L555,286 L557,284 L560,282 L562,281 L565,279 L568,277 L571,275 L574,274 L577,273 L581,272 L584,271 L587,270 L590,269 L594,269 L596,269 L600,269 L603,269 L606,270 L610,271 L613,271 L616,271 L619,271 L622,272 L625,272 L628,272 L630,272 L633,271 L635,270 L638,268 L640,267 L643,266 L645,264 L647,261 L649,258 L651,255 L653,251 L655,247 L657,244 L658,240 L660,236 L663,232 L665,228 L667,223 L670,219 L672,214 L674,209 L678,204 L681,200 L684,195 L688,190 L691,185 L695,180 L699,174 L702,169 L706,166 L709,162 L712,158 L716,155 L720,152 L723,149 L726,148 L728,147 L731,146 L734,145 L737,144 L739,144 L741,144 L743,144 L744,145 L746,146 L748,148 L750,149 L752,151 L753,154 L755,157 L757,161 L758,164 L760,168 L762,171 L763,176 L765,180 L767,184 L769,188 L771,192 L773,195 L776,199 L778,202 L780,205 L782,207 L784,209 L787,210 L789,212 L792,213 L795,213 L797,214 L799,214 L802,213 L805,213 L808,212 L812,212 L816,210 L819,209 L823,207 L828,204 L832,202 L836,200 L841,197 L846,194 L850,190 L854,187 L858,184 L863,181 L868,179 L872,176 L876,173 L881,169 L887,166 L891,165 L895,164 L897,163 L900,162 L904,160 L907,158 L910,156 L913,154 L916,153 L918,152 L921,151 L923,151 L924,151" fill="none" stroke="red" stroke-width="3"/></svg>