<svg xmlns="http://www.w3.org/2000/svg" version="1.1" xmlns:xlink="http://www.w3.org/1999/xlink" xmlns:svgjs="http://svgjs.dev/svgjs" width="950" height="375" id="chartSvg"><path d="M14,307 L13,306 L13,305 L12,305 L12,306 L13,306 L14,306 L15,305 L16,305 L17,304 L19,303 L20,302 L22,301 L22,300 L23,300 L24,300 L25,299 L26,299 L27,298 L28,298 L29,298 L31,297 L32,296 L34,295 L35,295 L37,295 L38,295 L40,294 L42,294 L45,294 L47,293 L50,293 L52,293 L53,293 L55,293 L56,293 L57,293 L58,293 L60,293 L61,294 L63,294 L65,294 L67,294 L69,294 L71,294 L73,295 L75,295 L77,295 L79,295 L81,296 L83,296 L84,296 L86,296 L88,296 L89,296 L91,295 L93,295 L95,294 L97,293 L100,292 L103,292 L106,291 L109,291 L112,291 L114,291 L118,292 L121,292 L124,292 L128,292 L132,292 L135,292 L139,293 L143,293 L146,294 L150,294 L154,294 L158,293 L163,293 L168,291 L173,289 L179,287 L183,286 L188,284 L193,283 L197,283 L200,281 L203,281 L206,281 L210,282 L212,282 L215,283 L218,283 L220,283 L222,283 L226,283 L229,283 L233,283 L237,283 L239,283 L242,283 L245,283 L247,283 L250,283 L252,283 L255,284 L256,284 L259,285 L261,285 L264,286 L267,286 L271,286 L274,286 L277,286 L281,286 L286,285 L289,284 L293,283 L296,283 L299,283 L302,282 L305,282 L308,282 L311,281 L313,281 L316,281 L320,281 L323,280 L327,280 L330,279 L333,278 L337,277 L340,276 L343,276 L345,276 L347,276 L349,276 L351,276 L353,276 L355,276 L357,276 L359,277 L361,277 L364,277 L366,277 L368,277 L370,277 L374,276 L377,275 L380,273 L383,272 L385,271 L387,269 L390,268 L392,266 L394,265 L397,264 L399,262 L402,260 L404,259 L408,257 L411,255 L414,254 L418,252 L420,251 L423,249 L426,249 L430,248 L432,247 L436,246 L439,245 L441,244 L444,244 L447,243 L449,243 L451,243 L453,243 L455,243 L456,243 L457,244 L459,245 L460,246 L463,246 L466,246 L469,246 L471,246 L474,245 L476,245 L479,244 L482,244 L485,243 L488,242 L491,241 L493,240 L495,239 L498,238 L500,237 L502,237 L504,236 L506,235 L508,235 L509,234 L511,233 L512,232 L514,231 L515,230 L518,229 L520,227 L523,225 L525,223 L528,221 L530,219 L532,217 L534,214 L536,212 L539,209 L542,206 L544,203 L547,200 L549,198 L552,195 L555,192 L557,190 L560,188 L562,186 L564,185 L567,183 L569,181 L571,180 L573,178 L575,176 L577,175 L579,174 L581,172 L583,169 L586,167 L588,165 L591,163 L594,161 L596,160 L599,158 L602,156 L605,154 L608,153 L612,152 L616,151 L619,151 L623,150 L627,150 L630,150 L634,150 L638,150 L640,151 L643,151 L647,153 L650,154 L653,154 L656,156 L659,157 L661,158 L664,160 L667,162 L669,163 L671,165 L673,166 L674,168 L676,169 L677,170 L679,171 L680,172 L682,173 L684,175 L686,176 L689,177 L692,178 L694,180 L696,181 L698,183 L700,185 L702,187 L704,189 L706,191 L708,193 L710,196 L711,198 L714,200 L716,202 L719,205 L721,207 L724,209 L727,211 L729,214 L732,216 L735,218 L738,220 L741,222 L744,223 L746,225 L748,227 L750,228 L753,229 L755,230 L758,231 L760,232 L762,232 L763,232 L765,232 L767,232 L768,231 L770,230 L772,229 L774,228 L776,227 L778,226 L780,225 L782,224 L784,222 L787,221 L790,219 L793,217 L795,216 L797,215 L798,214 L799,214 L799,213 L800,213 L801,213 L802,212 L803,212 L804,212 L804,211 L805,211 L806,210 L807,209 L809,209 L810,208 L811,207 L812,207 L813,206 L814,205 L815,205 L815,204 L816,204 L816,203 L817,202 L818,201 L819,200 L820,199 L821,198 L821,197 L823,195 L823,194 L824,193 L824,192 L825,191 L825,189 L826,188 L826,185 L826,183 L828,181 L828,179 L830,176 L832,173 L833,170 L835,166 L837,162 L839,158 L841,153 L843,149 L845,145 L847,141 L849,136 L851,132 L853,128 L855,123 L857,119 L859,116 L861,112 L863,108 L865,104 L867,100 L869,97 L870,94 L872,91 L873,88 L875,85 L877,81 L880,78 L882,75 L885,71 L887,68 L890,65 L892,61 L893,58 L896,55 L899,52 L902,49 L904,46 L907,44 L909,43 L910,41 L913,40 L917,38 L920,37 L923,36 L926,35 L930,34 L935,33 L942,32 L948,31 L953,31 L957,31 L961,31 L964,31 L965,31" fill="none" stroke="red" stroke-width="3"/></svg>