<svg xmlns="http://www.w3.org/2000/svg" xmlns:xlink="http://www.w3.org/1999/xlink" version="1.1" class="marks" width="1012" height="385" viewBox="0 0 1012 385"><rect width="1012" height="385" fill="white"/><path d="M15,236 L15,237 L15,236 L15,235 L16,234 L17,232 L19,230 L22,228 L25,227 L28,225 L31,224 L34,222 L36,220 L38,218 L39,215 L42,213 L45,211 L49,209 L53,207 L56,205 L59,203 L63,200 L68,198 L72,195 L76,193 L80,191 L84,189 L89,187 L93,185 L99,183 L104,182 L110,180 L114,179 L119,178 L124,178 L128,178 L133,178 L139,178 L145,179 L150,180 L156,181 L162,181 L167,183 L174,184 L181,186 L187,188 L194,190 L200,193 L204,195 L210,197 L215,200 L221,202 L226,205 L232,208 L237,210 L242,213 L248,217 L253,220 L259,223 L266,227 L272,229 L276,232 L282,234 L287,236 L292,238 L298,239 L305,241 L312,243 L317,244 L323,244 L328,244 L334,244 L339,243 L345,242 L350,241 L356,239 L361,238 L367,235 L373,232 L380,229 L386,227 L393,224 L399,221 L405,217 L412,214 L418,210 L424,207 L430,204 L436,201 L440,198 L444,196 L448,193 L452,192 L454,190 L458,188 L462,186 L466,184 L470,182 L474,180 L478,179 L483,177 L489,175 L495,173 L501,171 L507,170 L512,168 L518,166 L525,164 L532,161 L540,158 L548,156 L555,154 L563,150 L570,146 L578,143 L584,139 L591,137 L597,135 L603,133 L609,131 L614,128 L620,126 L626,122 L633,120 L640,117 L648,115 L654,113 L661,111 L667,110 L673,108 L678,106 L683,105 L688,104 L692,102 L695,102 L699,101 L701,101 L703,101 L705,101 L706,102 L708,103 L709,105 L711,107 L713,110 L715,113 L717,116 L720,120 L722,123 L725,127 L728,131 L730,134 L733,137 L737,141 L740,145 L744,149 L746,153 L749,156 L752,159 L755,164 L758,170 L761,175 L764,178 L766,179 L769,179 L773,179 L777,178 L782,176 L786,174 L791,171 L796,168 L801,164 L805,161 L811,157 L817,153 L823,149 L831,145 L837,141 L845,137 L853,133 L861,129 L870,124 L878,120 L887,116 L894,112 L901,107 L908,102 L916,98 L925,93 L935,90 L946,85 L961,82 L971,80" fill="none" stroke="red" stroke-width="3"/></svg>