<svg xmlns="http://www.w3.org/2000/svg" version="1.1" xmlns:xlink="http://www.w3.org/1999/xlink" xmlns:svgjs="http://svgjs.dev/svgjs" width="950" height="375" id="chartSvg"><path d="M60,319 L60,320 L61,319 L63,318 L65,317 L68,315 L70,313 L73,312 L75,311 L78,310 L81,309 L85,308 L88,307 L90,306 L92,305 L94,305 L96,304 L98,304 L100,303 L102,303 L105,302 L107,301 L109,300 L111,299 L113,298 L115,298 L118,297 L122,296 L125,295 L129,295 L132,294 L136,294 L140,294 L144,294 L148,294 L151,294 L156,294 L161,295 L165,295 L169,296 L174,296 L179,297 L184,298 L188,298 L194,299 L199,299 L204,300 L209,300 L215,300 L219,301 L224,302 L229,303 L234,304 L238,304 L242,305 L247,305 L252,305 L256,305 L260,305 L264,305 L269,305 L272,305 L275,305 L277,305 L279,305 L282,305 L284,305 L286,305 L288,305 L290,305 L292,306 L293,306 L295,307 L298,307 L302,306 L306,305 L311,303 L316,302 L321,300 L327,299 L332,297 L338,296 L343,295 L347,294 L352,293 L357,292 L361,291 L364,291 L367,290 L370,289 L374,288 L376,288 L378,287 L380,286 L382,286 L383,286 L384,286 L386,286 L388,286 L390,285 L393,284 L396,283 L399,282 L403,280 L407,278 L412,276 L418,274 L423,272 L429,269 L435,267 L440,264 L447,262 L452,260 L457,257 L463,255 L468,252 L473,249 L478,247 L483,245 L488,243 L493,241 L498,239 L503,236 L508,234 L513,232 L518,230 L524,228 L528,227 L533,225 L538,223 L542,222 L546,220 L550,218 L555,217 L559,215 L563,212 L567,210 L570,209 L574,207 L579,205 L582,202 L586,200 L589,198 L593,195 L596,193 L599,191 L602,189 L606,187 L608,185 L612,182 L615,180 L617,178 L620,176 L623,175 L627,173 L630,172 L635,171 L638,171 L642,171 L646,171 L650,171 L654,172 L657,173 L661,175 L665,177 L667,179 L670,182 L672,184 L674,187 L675,189 L677,191 L678,194 L679,196 L680,199 L682,201 L684,202 L685,204 L687,205 L689,207 L691,208 L693,209 L695,210 L698,211 L700,212 L702,212 L705,213 L707,214 L709,215 L710,215 L712,215 L714,215 L716,215 L717,215 L719,215 L720,214 L722,213 L723,212 L725,212 L726,211 L728,210 L731,210 L733,209 L736,208 L740,207 L743,206 L746,205 L749,203 L753,202 L755,200 L758,200 L761,199 L762,198 L765,196 L766,195 L768,193 L771,191 L773,190 L775,188 L778,186 L780,184 L782,182 L784,181 L786,180 L788,179 L791,178 L794,177 L796,176 L798,176 L800,176 L802,176 L804,177 L807,178 L809,178 L811,180 L814,181 L816,182 L818,183 L820,185 L822,185 L824,186 L827,187 L830,188 L833,187 L837,185 L841,182 L844,179 L849,175 L853,171 L858,165 L864,159 L870,154 L875,148 L882,141 L890,134 L897,127 L904,120 L911,114 L918,107 L924,100 L928,94 L931,88 L934,82 L936,77 L938,73 L939,69 L940,66 L941,64 L941,63 L940,63" fill="none" stroke="red" stroke-width="3"/></svg>