<svg xmlns="http://www.w3.org/2000/svg" xmlns:xlink="http://www.w3.org/1999/xlink" version="1.1" class="marks" width="1010" height="385" viewBox="0 0 1010 385"><rect width="1010" height="385" fill="white"/><g fill="none" stroke-miterlimit="10" transform="translate(5,5)"><g class="mark-group role-frame root" role="graphics-object" aria-roledescription="group mark container"><g transform="translate(0,0)"><path class="background" aria-hidden="true" d="M0.5,0.5h1000v375h-1000Z" stroke="#ddd"/><g><g class="mark-group role-axis" role="graphics-symbol" aria-roledescription="axis" aria-label="X-axis for a linear scale with values from 0 to 130"><g transform="translate(0.5,375.5)"><path class="background" aria-hidden="true" d="M0,0h0v0h0Z" pointer-events="none"/><g><g class="mark-rule role-axis-domain" pointer-events="none"><line transform="translate(0,0)" x2="1000" y2="0" stroke="#888" stroke-width="1" opacity="1"/></g></g><path class="foreground" aria-hidden="true" d="" pointer-events="none" display="none"/></g></g><g class="mark-group role-axis" role="graphics-symbol" aria-roledescription="axis" aria-label="Y-axis for a linear scale with values from −250 to 450"><g transform="translate(0.5,0.5)"><path class="background" aria-hidden="true" d="M0,0h0v0h0Z" pointer-events="none"/><g><g class="mark-rule role-axis-domain" pointer-events="none"><line transform="translate(0,375)" x2="0" y2="-375" stroke="#888" stroke-width="1" opacity="1"/></g></g><path class="foreground" aria-hidden="true" d="" pointer-events="none" display="none"/></g></g><g class="mark-line role-mark marks" role="graphics-object" aria-roledescription="line mark container"><path aria-label="x: 1; y: 260.022688521" role="graphics-symbol" aria-roledescription="line mark" d="M7.692,101.774L15.385,153.676L23.077,92.919L30.769,232.716L38.462,271.193L46.154,138.665L53.846,206.603L61.538,148.147L69.231,308.438L76.923,129.683L84.615,66.797L92.308,52.722L100,260.797L107.692,131.258L115.385,39.41L123.077,217.436L130.769,121.511L138.462,167.28L146.154,147.939L153.846,82.557L161.538,262.635L169.231,119.858L176.923,154.767L184.615,90.425L192.308,115.288L200,136.465L207.692,99.667L215.385,99.588L223.077,231.551L230.769,222.128L238.462,195.544L246.154,217.783L253.846,128.627L261.538,227.534L269.231,234.797L276.923,139.028L284.615,227.103L292.308,96.623L300,178.268L307.692,73.002L315.385,208.997L323.077,170.264L330.769,166.893L338.462,118.052L346.154,163.513L353.846,133.838L361.538,169.432L369.231,93.632L376.923,181.856L384.615,106.886L392.308,172.584L400,168.342L407.692,236.475L415.385,269.779L423.077,200.548L430.769,174.568L438.462,298.576L446.154,222.023L453.846,97.146L461.538,209.429L469.231,185.75L476.923,145.618L484.615,91.903L492.308,161.114L500,237.337L507.692,289.203L515.385,196.045L523.077,166.483L530.769,183.923L538.462,214.886L546.154,106.313L553.846,100.817L561.538,181.338L569.231,177.971L576.923,129.929L584.615,114.626L592.308,187.255L600,349.952L607.692,171.386L615.385,142.323L623.077,120.904L630.769,263.256L638.462,281.592L646.154,130.865L653.846,255.222L661.538,121.87L669.231,176.736L676.923,207.631L684.615,189.585L692.308,239.543L700,99.357L707.692,169.037L715.385,202.879L723.077,146.128L730.769,162.581L738.462,118.142L746.154,111.573L753.846,217.994L761.538,122.517L769.231,193.002L776.923,172.971L784.615,254.489L792.308,239.025L800,148.706L807.692,268.323L815.385,247L823.077,160.493L830.769,122.692L838.462,45.377L846.154,4.285L853.846,24.106L861.538,137.85L869.231,155.445L876.923,75.257L884.615,117.981L892.308,61.963L900,188.473L907.692,29.592L915.385,104.161L923.077,125.766L930.769,138.88L938.462,112.291" stroke="#4c78a8" stroke-width="2"/></g></g><path class="foreground" aria-hidden="true" d="" display="none"/></g></g></g></svg>