<svg xmlns="http://www.w3.org/2000/svg" version="1.1" xmlns:xlink="http://www.w3.org/1999/xlink" xmlns:svgjs="http://svgjs.dev/svgjs" width="950" height="375" id="chartSvg"><path d="M55,248 L56,249 L57,249 L58,249 L58,248 L59,248 L60,248 L61,248 L63,248 L64,248 L66,248 L69,248 L72,247 L75,246 L77,246 L80,246 L82,246 L84,246 L86,246 L88,246 L90,246 L91,246 L93,247 L95,247 L96,248 L98,248 L100,249 L103,249 L106,249 L109,250 L112,250 L115,250 L119,250 L122,250 L126,250 L129,249 L133,249 L136,248 L139,247 L143,246 L145,245 L147,245 L149,245 L151,246 L154,246 L157,246 L161,245 L164,245 L166,245 L169,246 L172,247 L175,249 L177,250 L180,251 L182,252 L185,253 L190,251 L197,249 L204,246 L210,243 L216,241 L221,240 L224,239 L227,239 L230,240 L232,242 L232,244 L233,246 L234,249 L237,250 L240,251 L245,251 L251,251 L258,251 L265,250 L273,249 L281,247 L290,246 L296,246 L303,246 L309,246 L314,246 L319,247 L324,247 L328,247 L333,247 L339,247 L345,246 L352,245 L359,243 L366,242 L374,240 L381,239 L389,237 L398,236 L405,235 L415,234 L423,232 L432,232 L442,231 L453,230 L462,229 L473,229 L484,229 L492,229 L501,230 L509,232 L515,233 L523,234 L529,236 L535,237 L542,238 L549,238 L557,238 L564,237 L572,236 L580,236 L588,235 L597,234 L606,233 L617,232 L628,231 L638,230 L649,229 L659,228 L668,228 L677,228 L684,228 L690,228 L694,229 L699,229 L705,229 L711,229 L718,229 L724,229 L731,229 L740,229 L748,228 L759,227 L769,227 L779,227 L788,227 L797,227 L806,228 L815,229 L823,229 L831,229 L838,230 L844,230 L850,231 L855,232 L858,233 L862,234 L868,234 L873,234 L878,234 L883,233 L888,233 L893,232 L897,232 L902,232 L905,231 L907,230" fill="none" stroke="red" stroke-width="3"/></svg>