<svg xmlns="http://www.w3.org/2000/svg" xmlns:xlink="http://www.w3.org/1999/xlink" version="1.1" class="marks" width="1012" height="385" viewBox="0 0 1012 385"><rect width="1012" height="385" fill="white"/><path d="M18,229 L18,230 L17,231 L16,231 L15,231 L14,231 L13,231 L12,231 L11,231 L10,231 L12,230 L14,230 L19,230 L25,230 L33,229 L42,226 L52,223 L61,222 L70,222 L79,222 L89,221 L100,219 L110,217 L120,217 L129,217 L140,217 L152,217 L166,217 L180,215 L194,214 L209,213 L223,212 L238,212 L254,212 L270,211 L286,210 L301,210 L317,210 L332,210 L347,210 L363,211 L379,211 L396,210 L413,210 L430,210 L447,211 L464,211 L481,211 L500,212 L518,212 L537,213 L556,215 L575,216 L594,218 L615,219 L636,220 L657,222 L679,223 L700,224 L722,224 L744,225 L766,225 L789,225 L813,225 L836,225 L858,225 L882,225 L903,226 L925,227 L946,229 L965,230 L977,231" fill="none" stroke="red" stroke-width="3"/></svg>