<svg xmlns="http://www.w3.org/2000/svg" xmlns:xlink="http://www.w3.org/1999/xlink" version="1.1" class="marks" width="1010" height="386" viewBox="0 0 1010 386"><rect width="1010" height="386" fill="white"/><g fill="none" stroke-miterlimit="10" transform="translate(5,6)"><g class="mark-group role-frame root" role="graphics-object" aria-roledescription="group mark container"><g transform="translate(0,0)"><path class="background" aria-hidden="true" d="M0.5,0.5h1000v375h-1000Z" stroke="#ddd"/><g><g class="mark-group role-axis" role="graphics-symbol" aria-roledescription="axis" aria-label="X-axis for a linear scale with values from 0 to 240"><g transform="translate(0.5,375.5)"><path class="background" aria-hidden="true" d="M0,0h0v0h0Z" pointer-events="none"/><g><g class="mark-rule role-axis-domain" pointer-events="none"><line transform="translate(0,0)" x2="1000" y2="0" stroke="#888" stroke-width="1" opacity="1"/></g></g><path class="foreground" aria-hidden="true" d="" pointer-events="none" display="none"/></g></g><g class="mark-group role-axis" role="graphics-symbol" aria-roledescription="axis" aria-label="Y-axis for a linear scale with values from −10 to 100"><g transform="translate(0.5,0.5)"><path class="background" aria-hidden="true" d="M0,0h0v0h0Z" pointer-events="none"/><g><g class="mark-rule role-axis-domain" pointer-events="none"><line transform="translate(0,375)" x2="0" y2="-375" stroke="#888" stroke-width="1" opacity="1"/></g></g><path class="foreground" aria-hidden="true" d="" pointer-events="none" display="none"/></g></g><g class="mark-line role-mark marks" role="graphics-object" aria-roledescription="line mark container"><path aria-label="x: 1; y: 39.1051578493" role="graphics-symbol" aria-roledescription="line mark" d="M4.167,207.596L8.333,296.972L12.5,182.187L16.667,124.903L20.833,102.804L25,69.897L29.167,18.313L33.333,241L37.5,151.443L41.667,178.181L45.833,151.932L50,244.422L54.167,224.395L58.333,315.264L62.5,209.83L66.667,148.714L70.833,170.155L75,135.772L79.167,127.538L83.333,35.524L87.5,167.682L91.667,158.712L95.833,178.394L100,42.021L104.167,276.138L108.333,172.653L112.5,128.769L116.667,150.319L120.833,52.029L125,168.073L129.167,120.631L133.333,131.655L137.5,30.807L141.667,189.588L145.833,149.672L150,207.541L154.167,217.698L158.333,275.1L162.5,215.742L166.667,200.153L170.833,255.028L175,53.151L179.167,237.878L183.333,141.931L187.5,283.932L191.667,249.069L195.833,139.89L200,124.538L204.167,342.047L208.333,249.732L212.5,255.114L216.667,242.722L220.833,148.767L225,126.786L229.167,159.498L233.333,179.377L237.5,290.053L241.667,131.438L245.833,252.933L250,203.174L254.167,230.709L258.333,287.059L262.5,325.225L266.667,152.989L270.833,215.345L275,178.895L279.167,74.596L283.333,215.745L287.5,133.326L291.667,249.853L295.833,200.416L300,164.342L304.167,309.013L308.333,214.046L312.5,173.841L316.667,185.893L320.833,155.386L325,143.019L329.167,163.183L333.333,142.208L337.5,221.673L341.667,250.975L345.833,302.145L350,209.652L354.167,259.223L358.333,313.345L362.5,262.402L366.667,293.973L370.833,250.358L375,202.033L379.167,157.606L383.333,216.296L387.5,102.675L391.667,182.746L395.833,209.587L400,238.691L404.167,295.473L408.333,299.714L412.5,236.94L416.667,227.907L420.833,246.54L425,261.653L429.167,183.241L433.333,137.729L437.5,193.524L441.667,190.681L445.833,198.212L450,142.309L454.167,269.711L458.333,244.514L462.5,272.208L466.667,156.809L470.833,126.66L475,187.36L479.167,165.916L483.333,96.825L487.5,234.583L491.667,200.228L495.833,253.326L500,346.302L504.167,319.61L508.333,333.772L512.5,282.567L516.667,224.777L520.833,243.924L525,181.203L529.167,164.67L533.333,239.128L537.5,249.854L541.667,163.742L545.833,198.828L550,263.328L554.167,195.867L558.333,137.501L562.5,149.845L566.667,238.737L570.833,142.413L575,157.564L579.167,195.49L583.333,140.635L587.5,155.854L591.667,231.002L595.833,163.19L600,251.847L604.167,149.817L608.333,338.955L612.5,331.8L616.667,276.102L620.833,167.184L625,306.271L629.167,179.88L633.333,118.395L637.5,184.938L641.667,292.466L645.833,332.078L650,291.679L654.167,194.241L658.333,315.94L662.5,289.044L666.667,237.255L670.833,157.204L675,238.257L679.167,170.704L683.333,90.011L687.5,104.447L691.667,207.735L695.833,175.152L700,120.617L704.167,189.218L708.333,303.578L712.5,327.742L716.667,269.932L720.833,230.18L725,83.958L729.167,43.44L733.333,170.658L737.5,87.715L741.667,249.92L745.833,254.194L750,231.885L754.167,139.584L758.333,178.322L762.5,237.03L766.667,145.534L770.833,62.929L775,65.297L779.167,82.311L783.333,1.434L787.5,168.15L791.667,22.613L795.833,63.586L800,100.249L804.167,130.969L808.333,159.188L812.5,195.614L816.667,199.912L820.833,158.76L825,54.972L829.167,60.411L833.333,111.876L837.5,134.535L841.667,55.757L845.833,109.222L850,197.112L854.167,228.713L858.333,130.757L862.5,222.718L866.667,204.558L870.833,174.088L875,233.268L879.167,152.756L883.333,39.161L887.5,205.492L891.667,93.757L895.833,134.42L900,250.251L904.167,253.253L908.333,214.24L912.5,188.06L916.667,120.162L920.833,136.825L925,78.105" stroke="#4c78a8" stroke-width="2"/></g></g><path class="foreground" aria-hidden="true" d="" display="none"/></g></g></g></svg>