<svg xmlns="http://www.w3.org/2000/svg" version="1.1" xmlns:xlink="http://www.w3.org/1999/xlink" xmlns:svgjs="http://svgjs.dev/svgjs" width="950" height="375" id="chartSvg"><path d="M9,249 L9,250 L8,250 L8,249 L9,248 L9,245 L10,243 L10,241 L11,239 L12,237 L12,236 L12,235 L12,237 L13,238 L14,241 L14,244 L14,246 L14,248 L14,249 L14,247 L14,244 L15,242 L15,239 L16,237 L16,236 L16,235 L17,235 L17,236 L17,237 L18,239 L18,242 L19,244 L19,246 L19,247 L19,246 L20,243 L21,239 L22,237 L22,234 L23,234 L23,236 L23,238 L24,241 L24,244 L25,246 L25,250 L26,253 L26,257 L26,260 L26,264 L27,267 L27,270 L28,273 L28,276 L29,278 L30,281 L31,284 L31,287 L32,290 L33,292 L34,295 L34,297 L35,299 L35,301 L36,303 L36,305 L36,307 L36,309 L37,310 L37,312 L37,313 L38,314 L38,315 L38,314 L38,312 L38,309 L37,305 L37,300 L36,294 L36,290 L35,285 L35,281 L35,276 L35,272 L35,268 L35,263 L35,258 L35,254 L36,248 L36,243 L36,238 L36,234 L36,229 L37,224 L38,219 L39,214 L39,209 L40,204 L41,200 L42,194 L43,190 L44,185 L45,180 L46,176 L48,171 L49,169 L50,168 L51,168 L51,171 L52,173 L53,176 L54,180 L55,183 L55,188 L56,191 L56,195 L56,200 L56,204 L56,208 L56,211 L56,215 L56,218 L56,222 L56,226 L56,230 L56,233 L56,237 L56,240 L56,243 L56,247 L56,250 L56,254 L56,258 L56,261 L56,265 L57,268 L57,271 L57,273 L57,274 L57,275 L57,273 L58,271 L58,268 L59,263 L60,258 L61,251 L61,247 L62,244 L62,246 L63,249 L63,252 L63,255 L63,256 L64,257 L64,254 L66,251 L67,246 L68,243 L69,244 L70,247 L70,251 L71,254 L71,256 L72,258 L72,259 L72,258 L72,256 L72,252 L73,246 L73,239 L73,234 L74,230 L74,229 L74,228 L75,230 L75,234 L76,237 L77,241 L77,244 L78,246 L78,248 L78,249 L78,248 L78,246 L77,244 L77,240 L77,235 L77,229 L78,224 L78,220 L79,215 L80,209 L82,205 L83,201 L83,197 L84,194 L85,191 L86,190 L87,193 L88,196 L88,201 L89,205 L89,210 L89,213 L89,215 L90,216 L90,215 L90,212 L91,209 L92,205 L94,200 L95,196 L97,193 L97,189 L98,185 L98,182 L99,178 L100,175 L101,171 L102,169 L103,167 L104,165 L105,164 L105,165 L106,167 L106,170 L107,173 L107,176 L107,179 L107,183 L107,187 L106,190 L106,193 L106,196 L105,199 L105,202 L105,204 L105,206 L104,209 L104,211 L104,213 L104,216 L104,218 L104,221 L104,223 L105,226 L105,229 L105,232 L105,234 L105,237 L105,241 L105,244 L105,247 L104,250 L104,253 L104,254 L104,253 L104,249 L104,244 L105,238 L107,229 L108,224 L109,222 L109,225 L109,228 L110,232 L110,234 L110,236 L110,234 L111,231 L112,227 L113,224 L114,224 L114,226 L115,229 L115,231 L115,232 L115,229 L116,226 L117,221 L118,216 L119,213 L119,215 L119,219 L119,223 L120,227 L120,232 L120,236 L120,240 L120,244 L120,247 L119,251 L119,256 L119,261 L119,265 L120,269 L120,273 L120,276 L120,279 L120,281 L120,282 L121,284 L121,285 L121,286 L121,284 L121,281 L121,276 L122,271 L122,265 L123,260 L123,255 L124,251 L124,248 L124,245 L124,243 L124,240 L124,237 L125,235 L125,232 L126,229 L126,227 L127,224 L127,220 L127,217 L128,212 L129,209 L129,205 L129,202 L129,199 L129,196 L130,194 L130,192 L130,190 L130,189 L130,188 L131,186 L131,185 L131,184 L131,183 L132,182 L132,180 L132,178 L133,176 L134,174 L135,171 L136,168 L137,164 L137,161 L138,158 L138,156 L138,157 L139,160 L139,163 L139,166 L140,170 L140,174 L140,177 L140,180 L141,183 L141,186 L141,189 L141,192 L141,195 L141,198 L141,200 L141,203 L141,206 L141,208 L141,211 L141,213 L141,216 L140,218 L140,221 L140,223 L140,225 L140,227 L140,229 L140,231 L140,233 L140,235 L140,236 L140,237 L140,238 L140,239 L140,240 L140,239 L141,237 L142,232 L144,225 L145,220 L145,219 L145,220 L145,223 L145,227 L145,230 L145,233 L145,236 L145,237 L145,236 L145,233 L146,230 L146,228 L146,227 L147,226 L147,227 L147,229 L147,232 L148,235 L148,238 L148,239 L148,237 L148,234 L148,229 L148,224 L149,220 L149,216 L150,213 L151,210 L152,209 L152,208 L153,209 L154,210 L154,212 L155,214 L156,215 L156,216 L156,214 L156,210 L158,206 L159,200 L161,195 L162,192 L163,189 L164,187 L164,186 L164,188 L164,190 L164,192 L164,195 L164,198 L164,201 L164,205 L164,208 L163,212 L163,215 L163,219 L163,223 L163,226 L162,230 L162,234 L162,237 L162,239 L162,237 L163,234 L164,231 L166,226 L168,221 L169,218 L170,218 L170,220 L170,222 L170,224 L170,226 L170,227 L171,227 L171,226 L172,225 L173,227 L174,229 L174,233 L174,237 L174,242 L174,246 L173,250 L173,254 L173,258 L173,261 L173,264 L173,266 L173,269 L172,271 L172,273 L172,275 L172,274 L172,273 L172,269 L173,265 L173,260 L174,255 L176,249 L176,244 L178,240 L178,235 L178,231 L179,227 L179,223 L179,219 L180,215 L180,211 L181,207 L182,203 L183,199 L183,195 L183,192 L184,188 L184,185 L185,182 L186,178 L187,174 L188,171 L188,169 L188,168 L189,168 L189,171 L190,174 L190,178 L190,180 L191,183 L191,184 L191,183 L191,181 L192,179 L193,177 L193,176 L194,175 L194,176 L195,178 L195,181 L195,184 L195,187 L194,190 L194,193 L193,197 L193,200 L192,204 L191,208 L191,211 L191,215 L191,219 L191,222 L191,226 L191,229 L191,232 L190,235 L190,238 L190,241 L190,243 L190,246 L190,249 L190,252 L190,255 L190,258 L191,261 L191,263 L191,266 L191,268 L191,271 L191,273 L191,276 L191,279 L191,281 L191,284 L191,287 L191,290 L191,292 L191,294 L191,296 L191,298 L191,299 L191,300 L191,301 L191,302 L191,303 L191,302 L191,301 L192,299 L192,295 L192,291 L193,287 L193,283 L194,278 L194,276 L195,273 L195,271 L196,268 L196,265 L197,262 L198,260 L198,257 L199,254 L200,251 L200,249 L200,246 L200,244 L201,245 L201,247 L201,250 L202,252 L202,254 L202,256 L202,255 L202,253 L203,250 L204,247 L205,245 L206,244 L207,244 L207,246 L208,249 L209,251 L209,252 L210,252 L210,253 L210,252 L210,251 L210,249 L211,246 L213,242 L214,240 L215,239 L215,240 L215,242 L216,245 L217,247 L217,249 L217,250 L217,251 L217,252 L217,253 L217,254 L217,255 L217,256 L217,257 L217,258 L217,259 L217,258 L216,258 L215,259 L215,260 L215,261 L215,263 L215,265 L215,266 L214,267 L214,268 L214,269 L214,270 L214,271 L214,272 L214,273 L214,271 L213,269 L213,267 L213,265 L213,263 L213,261 L213,260 L213,259 L213,258 L213,256 L213,255 L213,254 L213,252 L213,250 L213,248 L213,247 L213,246 L213,244 L213,243 L213,242 L213,241 L213,240 L213,239 L213,237 L213,236 L213,235 L213,234 L213,233 L213,232 L213,231 L213,230 L213,229 L213,228 L213,227 L213,228 L214,229 L214,230 L214,231 L215,232 L215,234 L215,235 L215,237 L215,238 L215,239 L215,241 L215,242 L215,243 L215,244 L215,245 L215,246 L215,247 L215,249 L215,250 L215,251 L214,252 L214,253 L214,254 L214,255 L214,256 L214,257 L214,258 L213,259 L213,260 L213,261 L213,262 L213,264 L212,264 L212,266 L212,267 L212,268 L212,270 L212,272 L212,273 L212,275 L212,277 L212,278 L212,280 L211,281 L211,283 L211,284 L211,286 L211,287 L211,289 L212,291 L212,293 L212,295 L212,296 L212,298 L212,299 L212,300 L212,302 L212,303 L212,304 L212,305 L212,306 L212,307 L212,308 L212,309 L212,310 L213,310 L213,311 L213,312 L213,313 L213,314 L213,313 L213,310 L213,308 L214,303 L214,299 L215,295 L215,292 L215,288 L215,284 L216,280 L217,277 L217,273 L217,268 L218,264 L219,260 L219,256 L220,251 L220,248 L221,244 L221,241 L222,237 L222,234 L223,230 L223,227 L224,223 L225,220 L226,217 L226,213 L227,210 L227,206 L227,202 L227,199 L228,195 L229,192 L229,189 L230,187 L231,184 L231,182 L232,180 L232,178 L232,176 L233,174 L233,173 L234,172 L234,171 L234,172 L234,173 L234,175 L234,178 L234,181 L234,184 L234,188 L234,193 L233,196 L233,200 L232,205 L232,208 L232,212 L232,215 L232,219 L232,222 L232,226 L231,229 L231,232 L231,235 L231,238 L231,241 L231,244 L231,246 L231,249 L231,251 L231,254 L231,256 L231,257 L231,259 L231,261 L231,262 L231,263 L231,264 L231,263 L232,260 L232,256 L234,251 L235,245 L237,238 L239,233 L239,231 L240,231 L240,232 L240,235 L240,239 L240,242 L240,246 L239,248 L239,249 L239,248 L239,247 L240,244 L241,242 L242,238 L243,236 L243,237 L243,240 L243,244 L243,246 L243,248 L243,249 L242,249 L242,247 L243,245 L244,242 L245,239 L246,237 L247,237 L248,239 L248,243 L248,246 L248,248 L248,249 L247,249 L247,248 L247,247 L247,246 L248,244 L249,242 L249,237 L250,232 L251,226 L251,220 L252,215 L253,209 L254,205 L255,200 L256,198 L257,196 L257,195 L258,195 L258,197 L258,199 L258,202 L259,205 L259,208 L259,212 L259,215 L258,219 L257,222 L256,226 L256,229 L255,232 L254,236 L254,239 L253,242 L253,245 L252,247 L252,250 L252,254 L251,256 L251,259 L251,262 L251,264 L250,266 L250,269 L249,271 L249,273 L249,276 L249,278 L249,281 L248,283 L248,284 L248,286 L248,288 L248,290 L248,291 L248,292 L248,291 L248,290 L248,288 L248,285 L249,280 L249,274 L249,269 L249,265 L249,264 L249,263 L249,264 L249,265 L249,267 L249,270 L249,273 L249,277 L249,281 L248,284 L248,288 L248,292 L248,295 L248,299 L248,303 L247,306 L247,310 L246,315 L246,317 L246,320 L246,322 L246,323 L246,324 L246,323 L246,322 L246,318 L246,314 L246,308 L247,300 L249,292 L250,284 L251,277 L251,271 L252,266 L253,263 L253,261 L253,260 L253,261 L254,263 L254,266 L254,271 L254,275 L254,278 L254,281 L254,283 L254,281 L254,277 L255,272 L256,265 L259,258 L261,252 L262,248 L262,247 L262,248 L262,251 L262,257 L261,263 L261,268 L261,272 L261,275 L260,276 L261,275 L261,273 L262,270 L264,265 L266,260 L268,255 L270,251 L271,251 L271,254 L270,259 L270,264 L269,268 L269,271 L268,274 L268,275 L268,274 L268,272 L270,269 L271,264 L273,259 L275,255 L277,252 L277,253 L277,256 L277,259 L277,264 L277,267 L277,270 L277,273 L277,275 L277,277 L277,278 L277,277 L277,275 L277,273 L278,269 L279,264 L282,257 L284,252 L286,249 L286,248 L286,249 L286,250 L286,252 L286,255 L286,258 L286,261 L286,264 L286,267 L286,270 L286,272 L285,274 L285,276 L285,275 L285,273 L285,271 L286,269 L286,266 L287,262 L288,258 L289,253 L290,249 L291,245 L291,241 L292,238 L293,234 L295,230 L297,226 L298,222 L299,219 L300,215 L301,211 L302,207 L303,204 L303,201 L304,198 L304,194 L305,190 L305,187 L305,183 L305,179 L305,175 L305,171 L305,168 L305,164 L305,161 L305,158 L305,156 L305,154 L305,152 L305,151 L305,150 L305,149 L305,148 L305,147 L305,146 L305,145 L305,144 L305,143 L305,142 L305,141 L305,140 L305,141 L305,142 L305,143 L305,144 L305,146 L305,149 L305,151 L305,154 L305,157 L305,159 L305,162 L305,165 L305,168 L305,171 L305,173 L305,175 L305,177 L305,180 L305,181 L305,184 L305,186 L305,188 L304,190 L304,192 L304,194 L304,195 L304,198 L303,200 L303,202 L303,204 L303,206 L302,208 L301,210 L301,212 L300,214 L300,216 L300,218 L299,221 L298,223 L298,226 L298,228 L297,230 L297,232 L296,234 L295,236 L295,238 L295,240 L294,242 L294,243 L294,244 L293,245 L293,246 L293,248 L292,249 L292,251 L292,252 L291,254 L291,255 L291,257 L291,259 L291,260 L290,262 L290,264 L289,265 L289,267 L289,269 L288,271 L288,273 L288,274 L288,276 L288,277 L288,279 L288,280 L287,281 L287,283 L287,284 L287,285 L287,287 L286,288 L286,290 L286,291 L286,293 L286,294 L285,296 L285,297 L285,298 L285,299 L285,300 L284,301 L284,302 L284,303 L284,304 L284,305 L284,306 L284,307 L284,308 L284,309 L284,310 L285,310 L285,309 L285,308 L286,306 L286,304 L287,302 L288,299 L289,296 L290,293 L291,291 L291,288 L291,286 L292,283 L292,281 L292,280 L293,278 L293,276 L293,274 L294,272 L294,270 L295,267 L295,264 L295,262 L296,259 L298,256 L298,254 L299,251 L300,248 L301,246 L302,243 L303,241 L304,239 L305,236 L306,234 L307,231 L308,229 L308,226 L308,224 L308,223 L309,222 L309,223 L308,226 L308,229 L307,234 L306,240 L305,245 L304,250 L304,253 L304,254 L304,255 L304,254 L305,252 L306,250 L308,246 L310,242 L312,237 L313,233 L314,230 L315,229 L315,230 L315,232 L314,236 L313,241 L312,245 L310,250 L310,254 L310,256 L310,258 L310,259 L310,257 L312,255 L314,251 L316,247 L318,243 L320,239 L321,238 L321,239 L321,240 L321,243 L321,247 L320,250 L320,253 L320,256 L320,258 L320,259 L319,260 L319,261 L319,260 L319,259 L320,258 L320,255 L322,251 L324,244 L326,238 L327,232 L329,226 L330,221 L331,218 L332,215 L332,213 L333,211 L333,210 L334,209 L334,208 L335,207 L335,205 L336,204 L337,202 L338,200 L338,198 L339,197 L339,196 L339,195 L339,194 L339,196 L339,198 L339,202 L339,205 L339,210 L338,215 L338,220 L337,224 L336,229 L335,233 L334,238 L333,243 L332,247 L332,251 L331,256 L330,260 L330,264 L330,267 L330,271 L329,275 L329,278 L329,281 L329,283 L329,285 L329,286 L329,284 L329,283 L329,280 L330,276 L330,270 L332,263 L333,256 L334,249 L335,244 L336,239 L337,234 L337,229 L338,225 L339,220 L340,216 L342,212 L342,208 L343,206 L344,204 L344,201 L345,200 L345,199 L345,200 L345,202 L345,205 L345,207 L345,210 L345,214 L345,218 L345,222 L345,225 L345,228 L345,231 L345,234 L344,237 L344,239 L344,242 L344,245 L343,247 L343,250 L343,253 L342,256 L342,258 L342,260 L342,261 L342,263 L342,264 L342,263 L342,261 L343,259 L344,255 L346,249 L348,243 L350,237 L351,233 L352,231 L352,230 L352,231 L352,232 L352,236 L352,239 L352,243 L352,246 L351,249 L351,251 L350,252 L350,253 L350,252 L351,251 L352,249 L353,246 L354,242 L357,237 L358,233 L359,231 L359,232 L359,234 L359,237 L359,241 L359,244 L359,246 L359,249 L358,249 L359,247 L359,245 L360,242 L362,237 L364,233 L364,231 L364,233 L364,236 L364,239 L364,242 L364,244 L364,246 L364,245 L364,244 L364,243 L364,240 L364,237 L364,232 L365,227 L366,222 L367,218 L369,214 L370,210 L371,207 L372,204 L373,201 L374,198 L375,195 L376,192 L376,189 L377,186 L377,184 L378,182 L378,181 L378,180 L378,182 L378,184 L377,186 L376,189 L376,193 L374,197 L374,201 L372,205 L372,208 L372,212 L371,215 L371,218 L371,222 L371,225 L370,228 L369,232 L369,235 L368,238 L367,242 L366,245 L366,248 L365,251 L364,254 L362,258 L361,261 L360,264 L359,267 L359,271 L358,273 L357,276 L357,278 L356,281 L356,283 L355,284 L355,286 L355,288 L355,289 L354,291 L354,292 L354,293 L354,294 L354,295 L353,296 L353,298 L353,299 L352,301 L352,303 L352,306 L352,307 L351,308 L351,310 L351,311 L351,310 L351,309 L351,308 L351,306 L351,305 L351,303 L351,300 L351,298 L351,296 L351,293 L351,291 L352,287 L352,283 L353,280 L354,277 L354,273 L355,269 L356,266 L357,264 L357,263 L358,259 L359,256 L360,253 L361,250 L362,247 L363,245 L364,242 L364,241 L364,239 L365,237 L366,235 L366,234 L366,233 L367,232 L367,230 L368,229 L369,227 L369,226 L370,224 L371,222 L372,220 L373,219 L373,217 L374,217 L374,216 L374,215 L375,213 L376,212 L376,211 L377,210 L378,209 L378,208 L379,207 L379,206 L379,205 L380,205 L380,204 L381,203 L381,202 L381,203 L381,206 L381,210 L381,215 L381,220 L381,225 L381,229 L381,232 L381,235 L382,237 L382,235 L383,233 L384,230 L386,226 L388,222 L390,220 L391,218 L391,219 L391,221 L391,224 L390,228 L390,233 L389,237 L388,241 L388,244 L387,246 L387,244 L388,242 L389,239 L390,235 L391,232 L393,229 L393,227 L394,227 L394,226 L394,225 L395,225 L395,224 L396,224 L396,223 L396,222 L397,220 L398,218 L399,216 L400,214 L401,211 L402,209 L403,207 L403,206 L404,204 L405,202 L405,201 L405,200 L406,198 L407,197 L407,195 L408,194 L408,192 L409,190 L409,189 L410,187 L410,185 L410,183 L410,180 L411,179 L411,178 L411,177 L410,177 L410,178 L410,180 L409,182 L408,185 L407,188 L405,191 L404,195 L403,197 L402,198 L401,202 L400,206 L399,209 L398,212 L398,215 L397,218 L396,221 L396,224 L395,226 L395,229 L394,231 L393,234 L393,237 L392,239 L391,242 L391,244 L391,247 L390,250 L390,253 L389,256 L389,259 L388,262 L388,265 L388,267 L388,270 L388,273 L388,276 L388,278 L388,281 L388,284 L388,287 L388,290 L388,293 L389,295 L389,297 L389,298 L389,300 L389,301 L389,302 L389,303 L389,305 L389,306 L389,308 L389,310 L389,311 L389,312 L389,311 L389,310 L389,309 L389,308 L389,305 L389,303 L389,299 L389,296 L390,293 L390,289 L391,286 L391,282 L391,279 L392,276 L392,273 L393,270 L393,266 L393,263 L394,259 L395,256 L396,253 L397,250 L397,246 L398,244 L399,241 L399,238 L400,235 L401,232 L401,229 L402,227 L403,224 L404,221 L405,219 L406,216 L407,212 L408,210 L409,206 L409,203 L410,200 L411,196 L411,192 L413,188 L413,184 L414,180 L415,176 L415,172 L416,169 L416,166 L417,162 L418,159 L419,156 L420,153 L420,150 L421,148 L422,146 L422,145 L422,146 L423,146 L423,148 L423,150 L423,152 L423,155 L423,158 L423,163 L423,167 L423,171 L423,175 L423,178 L423,181 L423,184 L423,187 L423,190 L423,192 L423,194 L423,196 L423,199 L423,201 L422,204 L422,207 L422,210 L422,213 L422,216 L421,219 L421,222 L421,224 L420,227 L420,229 L420,232 L419,234 L419,237 L418,239 L418,241 L418,242 L417,244 L417,245 L416,246 L416,247 L416,248 L416,249 L415,250 L415,251 L415,253 L415,254 L415,256 L414,258 L414,259 L414,261 L414,262 L414,264 L414,266 L414,267 L414,268 L414,267 L414,265 L414,261 L415,256 L417,250 L418,244 L420,239 L420,236 L420,235 L420,236 L420,239 L420,242 L421,244 L421,247 L421,249 L421,250 L421,249 L422,247 L423,244 L424,240 L426,237 L427,235 L428,234 L428,237 L428,239 L429,242 L429,244 L429,246 L429,247 L429,246 L429,245 L430,242 L430,239 L432,234 L433,229 L434,224 L435,219 L437,216 L437,213 L438,211 L438,210 L438,209 L438,211 L438,212 L437,215 L437,218 L436,222 L435,226 L435,229 L434,233 L434,237 L433,240 L432,243 L432,246 L432,249 L432,252 L431,256 L431,259 L430,262 L430,266 L430,268 L430,271 L429,274 L429,276 L429,279 L428,281 L428,283 L428,286 L427,289 L427,291 L427,294 L427,297 L427,299 L427,300 L427,302 L427,303 L427,302 L427,301 L427,300 L427,297 L427,293 L429,287 L430,281 L431,278 L432,276 L433,271 L433,267 L434,264 L435,261 L435,258 L436,255 L437,251 L437,248 L438,246 L438,244 L439,242 L440,240 L440,238 L441,234 L442,230 L444,227 L445,223 L447,219 L448,216 L449,212 L451,209 L452,206 L452,203 L453,200 L454,198 L454,195 L455,193 L455,192 L455,190 L455,192 L455,194 L455,198 L455,202 L454,206 L453,211 L452,216 L451,220 L451,222 L451,224 L451,225 L451,224 L451,222 L452,220 L453,217 L454,213 L457,209 L458,206 L459,204 L459,205 L459,207 L459,211 L458,215 L457,220 L456,223 L455,226 L455,228 L455,227 L456,226 L457,224 L459,221 L461,217 L463,215 L464,213 L464,214 L464,216 L464,220 L464,223 L464,227 L463,231 L463,234 L462,237 L462,238 L462,237 L462,234 L462,232 L463,228 L464,223 L465,218 L466,214 L467,209 L468,205 L470,200 L471,195 L473,191 L474,187 L476,183 L477,179 L478,176 L479,173 L480,170 L481,168 L481,166 L482,164 L482,162 L483,161 L483,162 L483,163 L482,166 L482,169 L481,172 L481,176 L480,180 L479,184 L478,188 L477,192 L476,195 L476,199 L475,203 L474,206 L474,209 L473,212 L473,216 L472,219 L471,222 L470,225 L469,229 L468,232 L467,234 L466,238 L464,241 L463,244 L461,247 L459,250 L459,253 L457,256 L457,259 L456,261 L455,263 L455,265 L454,266 L454,268 L454,269 L454,270 L454,271 L454,272 L454,273 L454,272 L454,270 L455,268 L457,264 L460,260 L463,255 L467,250 L469,246 L471,242 L474,237 L476,233 L478,229 L480,225 L482,221 L484,217 L486,214 L487,210 L489,208 L490,205 L490,203 L491,202 L491,200 L491,201 L491,203 L491,207 L491,211 L491,217 L490,222 L489,227 L489,230 L489,232 L489,233 L489,232 L489,229 L491,226 L493,222 L496,217 L498,214 L498,212 L498,214 L498,216 L497,219 L497,223 L496,226 L496,229 L496,231 L496,230 L496,228 L498,226 L500,223 L502,220 L504,217 L505,217 L505,218 L506,221 L506,224 L506,226 L506,228 L506,229 L506,228 L506,227 L506,225 L506,222 L508,218 L509,213 L511,209 L513,205 L515,201 L516,197 L518,193 L520,188 L522,185 L523,181 L525,178 L525,174 L527,171 L528,168 L528,166 L529,164 L530,161 L530,159 L530,157 L531,155 L531,153 L531,151 L532,149 L532,148 L532,146 L533,145 L533,144 L533,145 L533,147 L532,149 L532,152 L531,156 L530,159 L528,163 L527,166 L525,170 L525,173 L523,176 L523,179 L521,183 L520,185 L518,188 L517,192 L515,195 L513,199 L511,203 L509,207 L508,210 L506,214 L504,219 L503,222 L501,227 L500,230 L498,234 L497,237 L496,241 L494,244 L493,247 L491,251 L490,254 L489,258 L487,261 L486,264 L484,267 L483,270 L481,272 L480,274 L479,276 L479,278 L478,280 L478,281 L478,282 L477,283 L477,284 L477,285 L476,286 L476,287 L476,288 L476,289 L476,291 L476,292 L476,294 L476,296 L476,298 L476,300 L476,302 L476,303 L476,304 L476,305 L476,303 L476,302 L478,299 L479,295 L482,290 L485,284 L488,278 L490,273 L492,269 L493,265 L494,262 L496,259 L497,256 L498,253 L499,250 L501,248 L501,246 L503,244 L503,242 L505,240 L506,237 L508,234 L510,231 L513,227 L515,224 L518,221 L521,217 L523,214 L525,211 L526,209 L526,208 L527,207 L527,209 L527,212 L526,215 L526,218 L526,222 L525,224 L525,226 L525,227 L526,226 L527,224 L529,222 L531,218 L534,215 L537,211 L538,210 L537,212 L537,216 L535,220 L534,224 L533,227 L532,229 L532,230 L532,231 L532,230 L533,229 L533,227 L534,224 L535,222 L537,219 L538,217 L539,215 L540,215 L540,214 L540,213 L540,212 L540,211 L541,209 L541,207 L542,205 L544,202 L545,198 L547,195 L549,191 L550,188 L552,186 L552,184 L553,181 L553,179 L554,177 L554,175 L555,173 L555,172 L555,171 L556,170 L556,168 L556,170 L555,172 L555,176 L553,180 L552,185 L550,189 L549,193 L547,197 L546,201 L545,205 L544,208 L543,212 L542,216 L540,220 L539,224 L537,228 L536,233 L535,238 L533,242 L531,246 L530,250 L528,254 L527,258 L525,261 L524,264 L523,267 L522,270 L521,272 L520,275 L519,277 L519,279 L518,281 L518,282 L518,283 L518,282 L518,281 L519,280 L520,278 L522,274 L524,270 L527,266 L528,261 L530,258 L531,255 L533,251 L533,248 L535,244 L535,241 L536,238 L537,234 L539,231 L540,228 L541,225 L542,222 L543,219 L544,216 L545,214 L546,211 L547,210 L547,208 L548,207 L548,206 L548,208 L548,211 L548,215 L547,219 L547,224 L547,227 L547,230 L547,231 L547,232 L547,231 L547,230 L549,227 L550,224 L552,220 L554,217 L555,216 L555,215 L555,216 L555,218 L555,221 L555,224 L555,227 L554,229 L554,231 L554,230 L555,228 L556,225 L558,222 L560,219 L562,216 L562,215 L562,217 L562,219 L561,222 L561,224 L561,227 L561,228 L561,229 L562,227 L563,225 L564,222 L566,219 L568,215 L570,211 L572,208 L573,206 L574,202 L575,200 L576,196 L577,193 L578,190 L579,186 L579,183 L580,181 L580,179 L580,178 L580,180 L580,182 L579,185 L579,189 L578,193 L577,197 L577,202 L576,205 L575,209 L574,212 L574,215 L573,218 L573,221 L572,224 L572,226 L572,229 L571,231 L570,234 L570,237 L569,239 L569,242 L568,245 L567,247 L567,250 L566,253 L565,256 L565,259 L564,261 L564,264 L564,267 L563,271 L562,274 L562,278 L561,281 L561,285 L560,288 L560,292 L560,295 L559,298 L559,301 L559,303 L559,306 L559,308 L558,310 L558,311 L558,310 L558,309 L559,308 L559,305 L560,303 L561,299 L563,295 L564,291 L566,286 L567,281 L569,276 L570,271 L572,266 L573,261 L575,257 L577,252 L578,246 L579,242 L581,236 L583,231 L585,226 L586,221 L589,217 L590,212 L592,208 L594,204 L595,200 L596,197 L597,193 L599,190 L599,187 L600,185 L601,182 L601,179 L602,176 L602,173 L603,171 L604,169 L605,167 L606,164 L606,162 L606,161 L606,160 L606,159 L606,160 L606,161 L606,163 L606,165 L605,168 L604,171 L602,175 L601,179 L600,183 L599,188 L598,192 L597,197 L596,202 L596,207 L595,211 L594,216 L594,220 L593,224 L593,228 L592,231 L592,234 L591,236 L591,237 L591,238 L592,237 L594,234 L596,230 L598,224 L601,218 L605,212 L608,207 L612,203 L613,201 L613,202 L612,205 L611,209 L610,213 L608,217 L608,221 L608,223 L608,222 L609,220 L611,217 L613,215 L615,211 L616,210 L617,210 L617,212 L617,216 L616,219 L616,222 L616,224 L616,222 L617,220 L619,217 L621,215 L622,214 L623,214 L623,217 L623,220 L623,223 L623,225 L623,226 L623,225 L623,224 L624,222 L625,220 L626,215 L629,209 L632,203 L635,197 L638,191 L640,185 L643,180 L644,176 L645,173 L646,171 L647,170 L647,171 L646,172 L645,176 L645,179 L644,183 L643,188 L643,193 L642,199 L641,204 L640,208 L638,213 L638,218 L637,223 L636,227 L635,232 L635,237 L634,242 L634,246 L633,251 L633,256 L633,261 L632,265 L631,268 L630,271 L630,273 L630,275 L630,274 L631,272 L632,270 L633,267 L635,263 L637,258 L639,252 L642,246 L644,240 L646,234 L648,227 L650,221 L652,215 L653,209 L655,202 L657,196 L660,190 L663,184 L665,178 L668,172 L670,166 L672,160 L674,154 L677,149 L679,144 L681,139 L683,134 L685,130 L688,126 L690,122 L692,119 L693,116 L694,113 L696,110 L697,106 L699,102 L701,99 L703,95 L704,92 L706,88 L707,85 L708,83 L708,80 L709,78 L709,76 L709,75 L709,74 L709,73 L709,72 L709,73 L709,74 L708,75 L706,77 L705,79 L703,81 L702,83 L700,85 L699,88 L697,90 L696,92 L695,94 L694,96 L692,99 L691,101 L690,103 L689,105 L688,107 L687,110 L685,112 L684,114 L683,116 L682,119 L681,120 L679,122 L679,124 L677,126 L676,128 L675,130 L674,132 L673,134 L672,136 L671,139 L670,141 L669,145 L667,149 L666,152 L665,155 L663,159 L662,163 L660,166 L658,171 L657,175 L655,179 L654,183 L652,187 L651,192 L649,196 L648,200 L646,204 L644,208 L642,212 L640,216 L638,220 L636,224 L634,228 L632,232 L630,236 L628,240 L627,244 L626,248 L624,251 L623,256 L621,259 L620,263 L618,266 L616,270 L615,274 L614,278 L613,281 L612,284 L611,287 L611,289 L609,291 L609,293 L608,295 L607,297 L606,298 L606,300 L606,301 L605,302 L605,303 L604,304 L604,305 L604,306 L604,307 L603,308 L603,309 L603,310 L603,309 L603,308 L604,306 L606,303 L607,300 L609,297 L611,293 L612,289 L614,286 L615,282 L616,278 L618,274 L619,270 L621,266 L622,262 L624,259 L626,254 L627,251 L629,246 L630,243 L632,239 L633,236 L635,232 L636,229 L637,226 L638,223 L639,220 L641,217 L642,215 L644,212 L645,210 L647,208 L648,206 L649,204 L650,203 L650,202 L650,203 L650,205 L650,207 L649,210 L649,213 L649,217 L648,222 L648,228 L647,233 L646,238 L645,242 L645,246 L645,249 L644,251 L644,253 L644,254 L645,253 L645,252 L647,249 L649,246 L652,242 L656,236 L659,231 L661,227 L662,225 L663,224 L663,225 L662,227 L662,230 L662,233 L662,236 L662,239 L662,241 L661,242 L661,241 L662,239 L663,237 L664,233 L666,229 L668,224 L669,221 L671,217 L672,213 L674,210 L675,207 L677,203 L678,200 L679,197 L681,194 L682,192 L682,189 L683,188 L684,185 L684,183 L685,182 L685,180 L686,179 L686,180 L685,181 L685,183 L684,186 L684,190 L683,194 L682,198 L682,203 L681,207 L680,211 L680,215 L679,219 L679,222 L679,227 L678,230 L678,234 L677,238 L677,242 L676,245 L676,249 L675,252 L675,255 L674,258 L674,261 L674,263 L674,264 L674,266 L673,267 L673,268 L674,266 L674,264 L676,261 L678,255 L682,249 L685,242 L688,237 L690,232 L692,229 L694,225 L695,222 L696,219 L698,217 L699,215 L699,214 L699,215 L699,217 L698,219 L698,222 L696,226 L695,230 L694,234 L693,239 L691,244 L690,248 L689,253 L689,257 L688,262 L687,266 L687,271 L686,276 L685,281 L684,286 L683,291 L682,295 L680,300 L679,303 L679,307 L679,310 L678,313 L678,315 L678,317 L677,317 L677,316 L678,314 L679,311 L679,307 L681,302 L682,295 L684,289 L687,283 L689,276 L691,269 L692,263 L694,256 L696,251 L697,245 L699,239 L701,234 L703,229 L704,224 L706,219 L707,215 L708,211 L709,208 L709,206 L710,205 L711,203 L711,202 L712,202 L712,203 L712,205 L712,208 L712,212 L711,218 L710,224 L709,229 L708,234 L707,238 L706,242 L706,245 L705,247 L705,248 L705,246 L706,244 L708,240 L710,235 L712,228 L716,222 L718,216 L720,213 L721,212 L721,214 L721,217 L721,220 L720,224 L720,229 L719,232 L719,235 L719,236 L719,237 L719,236 L719,235 L719,233 L721,230 L722,225 L723,220 L726,213 L728,207 L730,202 L732,196 L734,192 L735,188 L736,185 L737,184 L737,185 L737,186 L736,189 L736,193 L735,197 L734,202 L733,207 L732,213 L731,218 L729,223 L728,228 L726,234 L724,240 L723,246 L721,252 L719,259 L718,264 L716,270 L715,276 L714,281 L712,284 L711,287 L711,289 L710,290 L710,291 L710,290 L710,289 L711,286 L711,283 L712,279 L714,274 L715,268 L717,262 L719,256 L721,250 L723,244 L725,239 L727,234 L729,229 L731,224 L734,220 L736,215 L738,211 L740,207 L741,204 L743,201 L744,199 L745,197 L745,196 L746,196 L746,197 L746,199 L746,202 L746,206 L745,211 L745,216 L744,222 L743,226 L743,229 L743,231 L743,232 L743,231 L743,230 L744,228 L745,224 L747,219 L750,214 L752,209 L754,207 L755,206 L754,207 L754,210 L753,215 L752,220 L752,224 L752,228 L752,230 L752,229 L753,227 L754,224 L755,222 L756,220 L759,216 L761,212 L762,211 L762,212 L762,215 L761,219 L761,223 L761,227 L760,231 L760,234 L760,235 L760,234 L760,232 L761,229 L762,225 L763,221 L764,215 L765,210 L765,206 L765,202 L765,197 L766,193 L767,188 L767,184 L768,180 L770,175 L770,171 L772,166 L772,162 L774,157 L775,153 L776,149 L777,145 L777,141 L778,138 L779,135 L780,133 L781,130 L781,128 L782,126 L782,124 L783,124 L783,123 L783,124 L783,125 L783,127 L782,130 L782,133 L782,137 L781,141 L780,146 L779,151 L778,156 L777,160 L777,164 L776,168 L775,171 L775,175 L774,178 L773,181 L772,185 L770,189 L769,192 L768,196 L767,200 L765,204 L764,207 L762,211 L761,215 L760,218 L758,222 L757,224 L755,228 L754,232 L753,235 L752,239 L751,243 L750,246 L749,249 L748,253 L748,256 L748,259 L747,261 L747,264 L747,266 L746,268 L746,270 L746,271 L746,273 L746,272 L747,271 L747,270 L747,269 L748,268 L748,266 L750,264 L751,261 L752,257 L754,253 L755,249 L758,244 L759,240 L761,235 L762,230 L765,226 L767,221 L770,217 L772,212 L775,207 L777,203 L780,200 L782,196 L783,193 L785,191 L786,190 L787,189 L787,188 L787,189 L787,190 L787,194 L787,198 L787,204 L787,210 L787,214 L787,217 L786,219 L786,220 L786,219 L787,218 L787,216 L789,212 L791,208 L792,205 L793,203 L794,203 L794,206 L793,209 L793,212 L793,216 L792,219 L792,222 L792,223 L792,222 L793,219 L794,215 L795,211 L797,205 L798,200 L799,194 L801,189 L802,183 L804,178 L805,172 L807,166 L809,162 L810,156 L812,151 L814,146 L815,141 L816,136 L817,133 L818,129 L818,126 L819,123 L819,121 L819,119 L820,117 L820,116 L820,117 L820,118 L820,120 L819,122 L819,126 L818,130 L817,134 L816,139 L815,144 L814,148 L814,153 L813,157 L812,161 L812,165 L811,170 L810,174 L809,178 L809,183 L808,188 L807,192 L806,197 L805,202 L804,207 L803,212 L802,217 L801,222 L800,227 L799,231 L798,235 L797,239 L797,243 L796,247 L795,251 L795,254 L794,259 L794,262 L793,266 L793,270 L792,273 L792,276 L792,279 L792,281 L792,282 L792,283 L792,282 L792,280 L792,278 L793,275 L794,272 L796,267 L797,262 L799,258 L800,252 L802,247 L804,242 L805,237 L807,231 L809,226 L811,220 L812,215 L814,209 L817,203 L819,198 L821,191 L824,185 L826,180 L828,173 L830,168 L831,162 L833,157 L834,152 L836,148 L837,143 L838,139 L840,135 L841,131 L842,128 L843,125 L844,122 L846,120 L846,117 L847,115 L848,113 L849,111 L850,110 L850,108 L850,107 L850,105 L851,104 L851,103 L852,102 L852,101 L852,100 L853,99 L853,98 L853,99 L853,100 L852,102 L852,104 L851,107 L851,110 L850,112 L850,115 L849,118 L848,121 L848,124 L847,127 L846,130 L845,134 L844,137 L843,141 L841,145 L840,149 L838,154 L837,158 L836,162 L835,166 L833,171 L832,175 L830,180 L829,184 L827,188 L826,193 L824,197 L822,201 L820,206 L819,210 L817,215 L816,219 L815,223 L814,226 L814,229 L813,231 L813,233 L813,234 L813,232 L814,230 L815,227 L816,222 L818,216 L821,210 L824,204 L826,198 L829,193 L831,187 L833,182 L836,177 L838,172 L840,168 L841,166 L843,163 L843,164 L843,166 L841,171 L840,175 L838,180 L837,186 L836,191 L835,193 L835,195 L835,194 L835,193 L836,191 L839,188 L842,183 L846,176 L849,171 L851,169 L853,168 L853,169 L853,170 L853,173 L853,177 L852,181 L851,186 L851,190 L851,193 L852,191 L853,189 L855,187 L857,184 L858,183 L858,182 L858,183 L858,185 L858,188 L858,193 L857,198 L856,203 L856,207 L855,210 L855,212 L855,211 L856,209 L857,206 L859,202 L860,197 L862,191 L864,186 L865,181 L866,176 L868,172 L868,167 L870,161 L870,157 L872,153 L873,148 L874,144 L875,140 L876,136 L877,134 L878,131 L879,129 L880,127 L880,126 L881,124 L882,123 L882,122 L882,121 L882,120 L882,119 L883,119 L883,120 L882,121 L882,122 L882,124 L881,127 L880,129 L880,132 L879,135 L879,137 L878,139 L878,141 L877,144 L877,146 L877,148 L877,150 L876,152 L876,154 L875,157 L875,159 L874,161 L874,164 L873,166 L873,169 L873,171 L872,174 L872,176 L871,179 L870,182 L870,185 L870,188 L869,191 L868,195 L868,198 L867,201 L866,205 L865,207 L865,210 L864,213 L863,217 L863,220 L862,222 L862,225 L861,228 L861,230 L860,233 L860,235 L859,238 L858,240 L858,243 L858,245 L857,248 L857,250 L856,252 L856,255 L856,257 L855,260 L855,262 L855,264 L855,265 L855,267 L855,268 L854,269 L854,270 L854,271 L854,272 L854,273 L854,274 L854,275 L854,276 L853,277 L853,278 L853,279 L853,280 L853,281 L853,282 L853,283 L853,284 L853,285 L852,286 L852,287 L852,288 L852,290 L851,291 L851,293 L851,294 L851,295 L851,296 L851,297 L851,298 L850,298 L850,299 L850,300 L850,301 L850,302 L850,303 L850,304 L850,305 L850,306 L850,307 L850,308 L850,309 L850,310 L850,311 L850,312 L850,311 L850,309 L851,308 L852,305 L853,303 L854,300 L855,297 L856,295 L857,292 L858,290 L860,287 L860,285 L862,282 L863,280 L863,278 L864,275 L865,272 L866,269 L867,266 L868,262 L868,259 L869,256 L870,253 L870,250 L871,246 L872,243 L873,240 L873,237 L874,234 L875,230 L875,227 L876,224 L877,221 L877,218 L878,215 L879,212 L880,210 L881,207 L882,204 L883,202 L884,199 L885,196 L886,193 L887,190 L889,188 L890,185 L890,183 L891,181 L892,179 L893,177 L894,174 L895,172 L895,170 L896,168 L897,166 L897,164 L898,163 L899,161 L900,158 L901,157 L901,156 L902,154 L902,153 L903,152 L903,151 L904,151 L904,153 L903,155 L903,158 L903,161 L902,165 L902,169 L902,171 L902,172 L902,173 L902,172 L902,171 L903,169 L905,166 L907,163 L909,159 L911,156 L912,155 L912,154 L912,155 L912,157 L912,160 L911,163 L911,168 L910,173 L910,177 L909,180 L909,184 L909,187 L909,189 L909,191 L908,193 L908,194 L908,196 L907,198 L907,200 L906,202 L906,205 L905,208 L904,211 L904,214 L903,217 L902,221 L901,224 L901,227 L901,228 L901,229 L901,228 L901,227 L901,226 L902,224 L903,222 L904,219 L905,215 L907,212 L909,208 L909,205 L911,201 L912,198 L912,194 L913,191 L914,188 L914,186 L915,183 L916,180 L917,178 L918,175 L919,173 L919,170 L920,168 L921,165 L922,163 L923,161 L923,160 L924,159 L924,158 L924,159 L924,160 L924,162 L923,163 L923,166 L923,169 L922,172 L922,175 L921,179 L921,182 L921,185 L920,188 L920,191 L919,194 L919,197 L919,200 L918,203 L918,207 L918,210 L917,212 L917,215 L917,218 L916,221 L916,223 L915,226 L915,228 L915,230 L914,232 L914,233 L914,234 L914,235 L913,236 L913,237 L913,238 L913,239 L913,240 L913,239 L914,237 L914,234 L916,231 L918,227 L919,224 L921,220 L922,216 L924,212 L924,209 L925,205 L926,202 L927,199 L928,195 L929,193 L929,190 L930,188 L931,186 L931,184 L932,183 L932,182 L932,183 L932,185 L931,188 L931,191 L931,194 L930,198 L929,201 L929,205 L928,208 L927,212 L927,215 L926,218 L926,222 L925,224 L925,228 L924,231 L924,234 L924,236 L923,238 L923,240 L923,242 L923,243 L922,243 L923,242 L924,241 L925,239 L927,236 L929,232 L932,229 L936,225 L939,222 L940,220 L942,217 L943,215 L943,214 L943,215 L943,217 L943,219 L943,222 L942,226 L942,230 L941,235 L941,240 L941,245 L940,250 L940,254 L940,259 L940,261 L941,264 L941,265 L941,264 L942,262 L944,259 L946,256 L948,252 L950,248 L951,246 L952,244 L953,243 L954,242 L955,241 L956,240 L956,242 L956,244 L956,247 L956,250 L956,254 L956,259 L956,263 L956,266 L956,269 L956,272 L957,275 L957,277 L957,278 L958,280 L958,281 L959,282 L960,283 L960,284" fill="none" stroke="red" stroke-width="3"/></svg>