<svg xmlns="http://www.w3.org/2000/svg" xmlns:xlink="http://www.w3.org/1999/xlink" version="1.1" class="marks" width="1010" height="385" viewBox="0 0 1010 385"><rect width="1010" height="385" fill="white"/><g fill="none" stroke-miterlimit="10" transform="translate(5,5)"><g class="mark-group role-frame root" role="graphics-object" aria-roledescription="group mark container"><g transform="translate(0,0)"><path class="background" aria-hidden="true" d="M0.5,0.5h1000v375h-1000Z" stroke="#ddd"/><g><g class="mark-group role-axis" role="graphics-symbol" aria-roledescription="axis" aria-label="X-axis for a linear scale with values from 0 to 130"><g transform="translate(0.5,375.5)"><path class="background" aria-hidden="true" d="M0,0h0v0h0Z" pointer-events="none"/><g><g class="mark-rule role-axis-domain" pointer-events="none"><line transform="translate(0,0)" x2="1000" y2="0" stroke="#888" stroke-width="1" opacity="1"/></g></g><path class="foreground" aria-hidden="true" d="" pointer-events="none" display="none"/></g></g><g class="mark-group role-axis" role="graphics-symbol" aria-roledescription="axis" aria-label="Y-axis for a linear scale with values from 0 to 350"><g transform="translate(0.5,0.5)"><path class="background" aria-hidden="true" d="M0,0h0v0h0Z" pointer-events="none"/><g><g class="mark-rule role-axis-domain" pointer-events="none"><line transform="translate(0,375)" x2="0" y2="-375" stroke="#888" stroke-width="1" opacity="1"/></g></g><path class="foreground" aria-hidden="true" d="" pointer-events="none" display="none"/></g></g><g class="mark-line role-mark marks" role="graphics-object" aria-roledescription="line mark container"><path aria-label="x: 1; y: 155.728922341" role="graphics-symbol" aria-roledescription="line mark" d="M7.692,208.148L15.385,182.519L23.077,214.683L30.769,226.168L38.462,296.391L46.154,264.179L53.846,300.141L61.538,257.779L69.231,246.558L76.923,254.728L84.615,174.769L92.308,157.697L100,168.232L107.692,165.901L115.385,82.098L123.077,233.106L130.769,263.831L138.462,228.544L146.154,258.705L153.846,226.354L161.538,261.165L169.231,242.59L176.923,219.448L184.615,171.93L192.308,162.125L200,177.311L207.692,85.778L215.385,210.375L223.077,276.903L230.769,283.655L238.462,241.753L246.154,250.926L253.846,283.363L261.538,274.699L269.231,234.687L276.923,248.64L284.615,207.881L292.308,186.821L300,207.369L307.692,205.325L315.385,229.367L323.077,275.831L330.769,262.109L338.462,191.499L346.154,272.529L353.846,226.127L361.538,215.359L369.231,230.682L376.923,180.092L384.615,193.674L392.308,210.935L400,266.772L407.692,272.107L415.385,256.295L423.077,216.608L430.769,265.295L438.462,272.875L446.154,271.396L453.846,225.449L461.538,199.301L469.231,211.501L476.923,260.879L484.615,228.447L492.308,286.339L500,300.129L507.692,287.766L515.385,300.787L523.077,268.114L530.769,244.967L538.462,285.365L546.154,251.276L553.846,246.635L561.538,222.841L569.231,229.042L576.923,247.106L584.615,287.573L592.308,289.036L600,337.592L607.692,314.962L615.385,286.971L623.077,294.74L630.769,293.364L638.462,245.332L646.154,223.219L653.846,240.554L661.538,244.567L669.231,246.579L676.923,302.803L684.615,301.569L692.308,305.737L700,327.731L707.692,316.913L715.385,320.764L723.077,324.647L730.769,285.126L738.462,283.46L746.154,247.89L753.846,236.415L761.538,186.115L769.231,262.069L776.923,265.369L784.615,287.098L792.308,250.015L800,251.793L807.692,282.588L815.385,274.536L823.077,242.917L830.769,133.038L838.462,102.9L846.154,107.65L853.846,113.999L861.538,189.927L869.231,225.708L876.923,184.155L884.615,183.171L892.308,161.241L900,209.041L907.692,188.999L915.385,182.582L923.077,59.232L930.769,28.233L938.462,63.122" stroke="#4c78a8" stroke-width="2"/></g></g><path class="foreground" aria-hidden="true" d="" display="none"/></g></g></g></svg>