<svg xmlns="http://www.w3.org/2000/svg" xmlns:xlink="http://www.w3.org/1999/xlink" version="1.1" class="marks" width="1010" height="385" viewBox="0 0 1010 385"><rect width="1010" height="385" fill="white"/><g fill="none" stroke-miterlimit="10" transform="translate(5,5)"><g class="mark-group role-frame root" role="graphics-object" aria-roledescription="group mark container"><g transform="translate(0,0)"><path class="background" aria-hidden="true" d="M0.5,0.5h1000v375h-1000Z" stroke="#ddd"/><g><g class="mark-group role-axis" role="graphics-symbol" aria-roledescription="axis" aria-label="X-axis for a linear scale with values from 0 to 130"><g transform="translate(0.5,375.5)"><path class="background" aria-hidden="true" d="M0,0h0v0h0Z" pointer-events="none"/><g><g class="mark-rule role-axis-domain" pointer-events="none"><line transform="translate(0,0)" x2="1000" y2="0" stroke="#888" stroke-width="1" opacity="1"/></g></g><path class="foreground" aria-hidden="true" d="" pointer-events="none" display="none"/></g></g><g class="mark-group role-axis" role="graphics-symbol" aria-roledescription="axis" aria-label="Y-axis for a linear scale with values from −50 to 400"><g transform="translate(0.5,0.5)"><path class="background" aria-hidden="true" d="M0,0h0v0h0Z" pointer-events="none"/><g><g class="mark-rule role-axis-domain" pointer-events="none"><line transform="translate(0,375)" x2="0" y2="-375" stroke="#888" stroke-width="1" opacity="1"/></g></g><path class="foreground" aria-hidden="true" d="" pointer-events="none" display="none"/></g></g><g class="mark-line role-mark marks" role="graphics-object" aria-roledescription="line mark container"><path aria-label="x: 1; y: 130.505143485" role="graphics-symbol" aria-roledescription="line mark" d="M7.692,224.579L15.385,160.282L23.077,150.574L30.769,247.618L38.462,298.695L46.154,261.473L53.846,279.825L61.538,233.315L69.231,278.094L76.923,280.447L84.615,88.705L92.308,166.494L100,188.205L107.692,105.317L115.385,160.355L123.077,201.041L130.769,223.125L138.462,220.226L146.154,269.753L153.846,178.572L161.538,243.608L169.231,224.31L176.923,248.638L184.615,117.349L192.308,176.966L200,244.987L207.692,89.627L215.385,201.784L223.077,275.697L230.769,286.474L238.462,257.972L246.154,306.691L253.846,190.987L261.538,286.991L269.231,209.448L276.923,170.197L284.615,212.43L292.308,129.847L300,196.736L307.692,173.343L315.385,234.088L323.077,308.534L330.769,329.559L338.462,132.631L346.154,215.165L353.846,224.155L361.538,197.806L369.231,218.565L376.923,161.533L384.615,142.877L392.308,195.984L400,198.37L407.692,304.879L415.385,299.303L423.077,237.561L430.769,260.45L438.462,277.207L446.154,283.506L453.846,100.39L461.538,190.337L469.231,203.689L476.923,226.203L484.615,214.052L492.308,273.61L500,303.166L507.692,301.41L515.385,298.209L523.077,275.524L530.769,245.158L538.462,350.074L546.154,242.907L553.846,181.406L561.538,215.165L569.231,276.403L576.923,216.909L584.615,262.474L592.308,296.016L600,294.9L607.692,325.715L615.385,252.903L623.077,253.44L630.769,228.957L638.462,247.002L646.154,222.477L653.846,222.843L661.538,269.194L669.231,237.52L676.923,294.865L684.615,285.679L692.308,289.818L700,251.936L707.692,307.289L715.385,293.859L723.077,289.203L730.769,255.892L738.462,233.22L746.154,239.459L753.846,220.879L761.538,194.613L769.231,313.658L776.923,285.92L784.615,302.566L792.308,276.157L800,294.107L807.692,247.379L815.385,309.985L823.077,270.148L830.769,170.814L838.462,80.736L846.154,109.359L853.846,32.145L861.538,150.076L869.231,228.007L876.923,171.38L884.615,203.802L892.308,172.236L900,159.847L907.692,172.94L915.385,182.601L923.077,152.618L930.769,118.859L938.462,115.962" stroke="#4c78a8" stroke-width="2"/></g></g><path class="foreground" aria-hidden="true" d="" display="none"/></g></g></g></svg>