<svg xmlns="http://www.w3.org/2000/svg" version="1.1" xmlns:xlink="http://www.w3.org/1999/xlink" xmlns:svgjs="http://svgjs.dev/svgjs" width="950" height="375" id="chartSvg"><path d="M49,330 L48,330 L47,330 L46,330 L46,329 L47,329 L48,327 L50,326 L51,325 L53,324 L56,323 L58,322 L61,322 L65,322 L68,322 L71,323 L75,323 L78,324 L82,325 L86,325 L90,324 L94,323 L98,322 L102,322 L107,321 L110,320 L113,319 L117,319 L120,319 L124,319 L128,319 L132,318 L136,318 L141,318 L147,317 L152,317 L159,316 L165,315 L172,314 L180,313 L186,311 L192,311 L199,310 L205,309 L212,308 L220,306 L227,305 L235,305 L243,303 L252,302 L262,300 L273,298 L284,296 L295,295 L305,294 L315,293 L325,293 L335,292 L344,292 L352,292 L361,293 L370,293 L380,294 L389,294 L398,293 L408,291 L418,290 L428,289 L438,288 L450,286 L460,285 L470,284 L479,283 L487,283 L494,283 L502,283 L508,283 L515,282 L523,280 L530,279 L537,277 L544,276 L550,274 L557,273 L561,272 L564,272 L567,272 L571,272 L573,273 L576,274 L578,276 L581,276 L584,277 L589,278 L593,278 L598,278 L603,278 L608,278 L613,277 L618,276 L621,273 L626,271 L630,268 L633,264 L635,261 L638,258 L639,255 L641,252 L643,249 L646,246 L649,243 L651,239 L654,236 L657,232 L660,227 L663,224 L666,220 L670,217 L673,212 L677,209 L682,205 L686,202 L690,198 L694,195 L699,191 L704,188 L709,184 L714,181 L719,178 L726,176 L731,173 L738,172 L745,171 L751,169 L759,169 L767,169 L774,169 L781,170 L787,171 L793,173 L799,176 L805,178 L811,180 L815,183 L818,185 L821,188 L824,190 L827,193 L830,196 L833,199 L836,202 L838,205 L842,208 L847,210 L852,211 L856,212 L861,213 L866,213 L871,213 L876,213 L881,213 L886,213 L891,213 L895,213 L899,213 L903,213 L906,213 L909,214 L912,214 L914,215 L916,215 L918,216 L920,217 L921,218 L922,219 L923,219 L923,220 L924,221 L924,222 L924,223 L923,223 L923,224 L923,225 L923,226 L923,227 L923,228 L923,229 L922,229 L922,230 L921,231 L921,232" fill="none" stroke="red" stroke-width="3"/></svg>