<svg xmlns="http://www.w3.org/2000/svg" version="1.1" xmlns:xlink="http://www.w3.org/1999/xlink" xmlns:svgjs="http://svgjs.dev/svgjs" width="950" height="375" id="chartSvg"><path d="M17,259 L17,260 L16,260 L15,260 L15,259 L14,259 L13,259 L12,258 L11,258 L11,257 L11,256 L12,256 L13,255 L15,254 L17,252 L20,251 L23,250 L26,249 L28,248 L31,248 L34,247 L36,246 L39,246 L43,245 L47,244 L51,243 L55,243 L59,242 L63,241 L68,240 L72,239 L75,239 L79,239 L84,238 L88,237 L92,237 L96,237 L101,237 L105,237 L110,237 L115,236 L121,235 L126,235 L131,234 L137,234 L143,234 L149,232 L155,232 L160,232 L165,232 L170,232 L176,232 L181,231 L186,231 L191,231 L197,231 L202,231 L207,231 L212,231 L218,231 L222,231 L227,231 L233,231 L237,231 L242,232 L248,232 L253,232 L257,232 L262,233 L267,233 L272,233 L276,234 L280,234 L284,235 L288,235 L292,236 L296,237 L300,237 L304,238 L308,239 L312,239 L315,239 L320,240 L324,240 L327,240 L331,241 L335,241 L339,241 L343,241 L347,241 L352,242 L357,242 L362,242 L367,242 L373,242 L379,242 L384,242 L390,242 L396,242 L401,242 L407,242 L413,241 L419,241 L425,240 L431,240 L437,239 L443,239 L450,238 L456,237 L463,236 L469,234 L474,233 L479,232 L484,232 L489,230 L494,229 L498,228 L503,227 L509,226 L514,224 L519,223 L524,221 L530,218 L535,216 L540,214 L544,212 L547,210 L549,210 L551,210 L554,208 L558,206 L564,203 L571,200 L577,196 L583,193 L588,190 L594,188 L600,185 L606,181 L613,177 L620,174 L626,171 L633,167 L640,163 L648,158 L657,154 L666,149 L674,145 L681,141 L689,138 L696,135 L706,131 L714,127 L723,124 L731,122 L740,119 L748,118 L756,117 L764,115 L772,114 L780,113 L787,113 L794,113 L801,113 L807,113 L814,113 L821,113 L829,113 L836,113 L843,113 L849,114 L856,115 L864,115 L873,116 L881,117 L889,119 L895,120 L902,122 L908,125 L913,128 L919,131 L923,135 L926,138 L930,141 L935,145 L940,148 L944,150 L946,154 L948,157 L951,161 L955,163 L959,166 L961,168 L963,170 L963,174" fill="none" stroke="red" stroke-width="3"/></svg>