<svg xmlns="http://www.w3.org/2000/svg" version="1.1" xmlns:xlink="http://www.w3.org/1999/xlink" xmlns:svgjs="http://svgjs.dev/svgjs" width="950" height="375" id="chartSvg"><path d="M33,268 L32,269 L31,271 L31,272 L31,273 L32,274 L31,274 L30,272 L30,264 L30,248 L30,223 L30,203 L29,190 L28,175 L28,164 L28,161 L29,161 L30,165 L31,173 L33,185 L34,200 L37,218 L39,226 L39,224 L39,217 L39,200 L38,178 L38,153 L39,139 L40,135 L41,136 L44,144 L47,158 L50,176 L53,196 L55,207 L55,206 L53,198 L51,182 L49,160 L49,134 L52,125 L53,122 L54,124 L55,137 L53,157 L53,180 L53,196 L53,199 L53,197 L52,189 L52,175 L52,160 L53,153 L54,155 L56,163 L57,178 L58,194 L61,208 L62,217 L63,218 L63,213 L63,198 L63,174 L64,151 L66,145 L66,149 L68,164 L69,188 L70,218 L73,243 L73,254 L72,245 L71,225 L70,199 L70,168 L72,148 L74,140 L75,138 L78,144 L80,161 L80,186 L80,216 L83,240 L85,255 L85,256 L83,246 L81,227 L80,198 L85,165 L91,147 L95,139 L98,136 L100,136 L102,145 L103,165 L103,192 L104,222 L106,242 L107,251 L107,249 L106,236 L106,210 L108,177 L114,151 L120,139 L124,132 L126,129 L127,129 L128,141 L127,161 L125,186 L124,211 L125,224 L125,225 L125,221 L125,206 L127,183 L130,156 L136,143 L141,139 L144,141 L145,154 L146,174 L146,197 L146,218 L146,234 L147,237 L148,231 L149,213 L151,185 L155,156 L158,142 L161,141 L162,146 L164,163 L166,190 L168,218 L171,239 L171,243 L171,236 L172,216 L174,190 L177,163 L181,150 L184,150 L187,154 L190,166 L193,183 L195,200 L197,214 L197,216 L198,210 L200,193 L203,166 L207,145 L210,143 L211,148 L212,162 L212,182 L211,206 L211,223 L211,228 L212,224 L215,209 L218,185 L224,154 L231,139 L235,139 L237,146 L238,161 L238,180 L239,204 L240,221 L240,228 L241,225 L243,210 L246,186 L251,158 L256,144 L257,142 L258,144 L259,151 L260,167 L261,187 L261,204 L263,212 L264,211 L267,198 L271,174 L276,144 L282,121 L287,117 L289,123 L290,137 L291,157 L291,180 L292,196 L292,203 L292,201 L293,189 L294,164 L299,128 L305,94 L308,82 L308,83 L307,94 L305,113 L305,136 L305,162 L306,183 L306,189 L306,186 L306,172 L308,147 L311,118 L317,90 L322,78 L324,78 L326,83 L326,101 L325,123 L325,148 L324,172 L324,185 L323,185 L325,173 L328,151 L333,125 L339,105 L343,104 L345,111 L346,130 L347,153 L349,173 L350,188 L350,190 L352,183 L356,163 L360,144 L365,137 L368,143 L369,154 L372,165 L374,173 L378,176 L381,173 L386,165 L392,151 L400,139 L405,141 L408,148 L412,159 L414,168 L415,176 L415,178 L416,176 L419,168 L422,156 L424,150 L425,151 L425,161 L424,171 L423,178 L423,180 L424,177 L430,165 L437,148 L444,135 L446,137 L447,149 L445,164 L444,177 L443,186 L443,187 L445,184 L449,171 L455,151 L462,127 L467,118 L467,122 L466,135 L464,152 L462,168 L462,182 L462,190 L462,189 L464,178 L469,155 L476,126 L484,105 L486,105 L486,117 L485,137 L485,158 L485,177 L485,192 L485,200 L486,198 L488,182 L494,154 L502,119 L510,101 L513,99 L514,102 L515,113 L515,134 L515,158 L515,180 L514,193 L514,194 L514,190 L517,171 L522,142 L529,109 L535,91 L535,90 L535,91 L536,102 L536,124 L535,149 L532,171 L530,185 L530,188 L530,183 L534,167 L539,143 L544,113 L548,92 L550,89 L551,91 L552,100 L552,122 L550,152 L549,180 L548,193 L548,196 L549,192 L553,172 L560,143 L568,112 L574,100 L574,102 L576,110 L576,127 L577,146 L577,166 L577,181 L577,189 L577,190 L579,188 L582,174 L586,151 L590,124 L594,107 L596,102 L597,101 L598,100 L600,106 L601,123 L601,147 L601,171 L601,185 L601,193 L602,187 L605,169 L609,146 L614,119 L616,97 L618,90 L618,97 L618,116 L617,139 L616,160 L614,172 L613,179 L612,179 L612,175 L615,158 L619,133 L625,105 L629,94 L631,95 L633,105 L634,126 L635,147 L635,162 L635,171 L635,173 L636,168 L641,152 L648,130 L655,110 L661,105 L665,110 L665,124 L665,143 L665,161 L665,174 L663,184 L662,186 L662,183 L668,165 L679,135 L692,110 L695,106 L696,110 L695,122 L692,142 L689,162 L686,178 L682,190 L679,194 L679,192 L682,183 L688,164 L694,144 L699,127 L700,123 L701,124 L704,128 L706,141 L706,156 L708,167 L709,175 L708,180 L708,181 L708,180 L711,174 L717,162 L722,148 L724,138 L726,135 L727,140 L726,152 L725,164 L725,170 L725,171 L727,165 L734,151 L742,132 L748,107 L755,86 L758,77 L758,79 L756,91 L753,114 L750,137 L749,157 L747,174 L745,186 L746,190 L749,184 L754,166 L760,139 L768,105 L777,82 L781,78 L783,83 L784,98 L784,118 L785,135 L787,146 L788,154 L789,156 L790,155 L795,146 L800,126 L807,100 L813,83 L813,85 L812,92 L811,108 L809,128 L807,149 L806,168 L805,179 L807,175 L814,158 L822,134 L831,107 L836,94 L836,96 L836,108 L836,127 L836,144 L838,156 L838,161 L840,159 L846,149 L854,130 L863,104 L870,87 L872,85 L873,91 L873,107 L870,127 L868,144 L868,155 L866,162 L865,163 L866,162 L870,155 L876,139 L885,114 L893,92 L894,90 L893,98 L890,117 L887,137 L887,152 L887,164 L887,170 L887,167 L893,154 L902,132 L912,105 L919,83 L921,80 L920,84 L917,100 L913,124 L912,146 L912,160 L912,167 L912,168 L915,159 L924,136 L937,111 L948,100 L952,110 L956,133 L969,163" fill="none" stroke="red" stroke-width="3"/></svg>