<svg xmlns="http://www.w3.org/2000/svg" version="1.1" xmlns:xlink="http://www.w3.org/1999/xlink" xmlns:svgjs="http://svgjs.dev/svgjs" width="950" height="375" id="chartSvg"><path d="M15,211 L14,211 L15,211 L15,212 L15,211 L15,210 L15,209 L16,208 L16,206 L17,204 L17,202 L18,200 L19,198 L20,195 L21,192 L21,189 L22,186 L22,183 L22,180 L23,176 L24,173 L24,171 L25,168 L25,167 L26,164 L26,161 L27,158 L27,156 L28,154 L29,153 L30,151 L31,149 L31,148 L31,147 L32,147 L32,148 L32,149 L32,150 L32,151 L32,152 L32,153 L32,154 L32,155 L32,156 L32,157 L33,158 L34,159 L34,160 L35,161 L35,163 L36,166 L36,170 L37,175 L39,180 L40,186 L41,192 L43,198 L44,204 L46,209 L47,215 L49,221 L51,227 L52,231 L53,235 L54,239 L54,242 L55,244 L56,246 L57,249 L58,252 L58,255 L59,256 L60,258 L60,259 L61,261 L61,259 L60,256 L60,254 L60,249 L59,243 L58,236 L58,229 L59,224 L59,218 L60,212 L60,207 L61,202 L61,197 L62,193 L63,190 L63,187 L63,185 L63,183 L63,181 L63,180 L64,178 L64,177 L65,176 L66,176 L66,175 L66,174 L67,174 L68,175 L69,176 L70,178 L71,180 L73,183 L74,186 L75,188 L76,190 L77,192 L78,194 L78,195 L79,196 L79,197 L78,197 L78,196 L78,195 L78,196 L79,196 L80,196 L81,196 L82,196 L83,196 L84,196 L85,196 L86,196 L87,196 L88,196 L89,196 L90,196 L91,196 L92,196 L93,196 L94,196 L95,196 L96,196 L97,196 L98,196 L99,196 L100,196 L101,196 L102,196 L102,197 L103,197 L104,197 L105,197 L106,196 L107,195 L108,195 L109,193 L110,193 L111,192 L112,191 L113,190 L114,190 L115,189 L116,189 L116,188 L117,188 L117,187 L118,186 L118,185 L119,185 L118,185 L118,184 L118,183 L119,183 L120,183 L121,183 L122,183 L123,182 L124,181 L125,180 L126,180 L127,179 L128,178 L128,177 L129,176 L130,176 L131,176 L132,176 L134,176 L137,176 L141,176 L144,177 L148,178 L151,179 L154,180 L157,180 L160,181 L162,182 L165,183 L168,183 L170,184 L173,185 L176,185 L178,187 L180,188 L182,189 L184,190 L185,192 L187,193 L188,194 L189,195 L190,195 L192,195 L194,195 L196,194 L198,193 L200,191 L203,189 L206,188 L210,186 L213,185 L216,184 L219,183 L222,182 L225,182 L229,182 L232,182 L234,182 L237,182 L239,183 L241,183 L244,184 L246,185 L249,186 L252,187 L256,188 L259,189 L263,190 L267,191 L271,192 L274,193 L278,194 L282,195 L287,195 L291,195 L296,194 L301,194 L307,193 L313,190 L319,187 L325,184 L330,183 L335,180 L339,178 L343,177 L346,175 L347,174 L349,173 L350,173 L351,173 L352,173 L352,172 L353,172 L354,172 L354,171 L355,171 L356,170 L357,170 L358,169 L360,168 L361,166 L363,165 L365,164 L367,163 L369,163 L370,163 L371,163 L372,163 L373,163 L374,163 L374,164 L375,164 L376,165 L378,165 L379,166 L381,167 L384,167 L387,168 L391,168 L394,169 L398,170 L401,171 L405,171 L410,171 L414,172 L419,173 L423,174 L427,176 L432,176 L436,178 L440,178 L444,180 L448,181 L452,182 L455,183 L459,185 L462,186 L466,186 L469,186 L472,186 L474,186 L476,186 L479,186 L481,185 L483,185 L484,184 L485,184 L486,184 L487,183 L489,183 L490,183 L491,183 L492,183 L493,182 L494,182 L495,182 L496,182 L498,182 L500,182 L502,182 L504,183 L506,183 L508,182 L511,182 L513,181 L515,180 L517,179 L520,178 L523,176 L526,173 L528,173 L531,172 L533,171 L536,171 L538,170 L540,170 L541,170 L542,169 L544,169 L545,168 L546,168 L547,168 L549,168 L550,167 L552,166 L554,166 L557,166 L559,166 L562,167 L565,168 L568,169 L571,171 L574,172 L577,175 L579,177 L581,180 L584,183 L586,185 L589,188 L592,190 L594,193 L597,194 L600,195 L602,197 L604,198 L607,199 L609,200 L612,202 L615,202 L617,203 L619,204 L621,205 L623,205 L626,206 L629,206 L631,207 L633,207 L635,207 L636,207 L638,208 L639,208 L641,208 L643,208 L645,207 L648,206 L650,205 L652,203 L655,200 L657,197 L661,193 L664,190 L668,187 L672,184 L674,181 L677,178 L680,176 L684,174 L687,172 L690,171 L692,170 L695,168 L697,167 L700,166 L703,166 L705,166 L708,166 L710,166 L712,167 L714,168 L717,169 L721,171 L723,173 L726,176 L730,178 L733,180 L737,183 L741,185 L745,188 L749,190 L754,192 L758,194 L763,196 L767,198 L772,201 L777,203 L782,206 L786,208 L792,210 L797,211 L802,213 L807,215 L813,218 L819,220 L825,221 L831,220 L836,220 L841,217 L848,214 L854,209 L860,203 L865,198 L869,195 L874,192 L877,190 L881,190 L885,190 L887,191 L890,192 L892,195 L895,198 L898,202 L902,206 L907,208 L911,210 L916,211 L921,211 L926,210 L931,206 L938,202 L943,198 L948,193 L953,189 L957,184 L961,179 L963,176 L964,174 L964,173" fill="none" stroke="red" stroke-width="3"/></svg>