<svg xmlns="http://www.w3.org/2000/svg" version="1.1" xmlns:xlink="http://www.w3.org/1999/xlink" xmlns:svgjs="http://svgjs.dev/svgjs" width="950" height="375" id="chartSvg"><path d="M18,244 L19,241 L20,230 L20,213 L19,199 L21,191 L24,189 L26,188 L27,188 L29,195 L29,212 L27,234 L29,246 L31,247 L31,246 L31,241 L30,226 L32,201 L39,171 L42,160 L42,159 L45,162 L49,175 L51,195 L52,212 L52,219 L52,220 L52,218 L53,210 L58,190 L67,162 L73,149 L75,155 L75,172 L73,200 L70,227 L68,239 L68,243 L68,242 L74,225 L88,188 L99,160 L101,156 L102,158 L105,164 L106,179 L105,206 L101,236 L100,252 L99,259 L98,260 L98,256 L100,238 L107,205 L115,180 L116,179 L116,182 L117,193 L116,216 L113,242 L110,259 L110,263 L110,256 L114,232 L122,199 L127,180 L127,181 L127,182 L128,191 L127,207 L127,221 L127,227 L128,227 L129,223 L135,208 L141,186 L146,176 L146,177 L146,183 L144,202 L139,226 L137,237 L137,236 L140,226 L146,206 L155,181 L158,176 L158,183 L154,200 L149,221 L145,235 L144,237 L144,235 L146,225 L154,202 L166,174 L173,165 L174,170 L173,185 L168,209 L164,232 L163,240 L163,241 L162,238 L162,226 L169,202 L186,167 L199,149 L201,147 L202,151 L200,171 L190,208 L180,245 L180,254 L180,256 L180,246 L188,221 L204,180 L220,155 L222,155 L223,162 L222,178 L218,201 L215,224 L215,233 L216,235 L216,233 L220,218 L233,189 L250,160 L255,156 L256,161 L256,177 L250,203 L242,234 L237,254 L237,259 L237,251 L242,227 L254,190 L275,151 L278,149 L277,154 L272,171 L263,199 L252,234 L246,257 L245,264 L245,265 L244,258 L248,237 L257,206 L275,173 L277,173 L278,177 L276,193 L270,221 L262,252 L258,267 L258,268 L258,266 L261,249 L271,222 L290,185 L303,173 L305,175 L306,185 L303,206 L297,233 L294,251 L293,258 L293,253 L297,232 L311,195 L329,161 L333,155 L332,158 L329,174 L320,203 L309,236 L303,257 L301,264 L301,256 L308,232 L324,198 L344,167 L350,163 L352,167 L354,180 L350,204 L344,229 L343,243 L344,245 L344,244 L347,232 L358,204 L373,170 L386,145 L389,139 L388,143 L381,159 L372,186 L364,218 L360,239 L360,246 L359,246 L360,243 L365,224 L379,196 L399,162 L406,154 L407,155 L408,165 L406,188 L398,221 L391,250 L390,261 L390,259 L394,242 L407,212 L430,171 L450,142 L454,137 L454,138 L454,151 L447,179 L435,215 L430,241 L429,249 L429,251 L429,246 L434,228 L448,198 L470,163 L478,153 L478,154 L480,164 L476,186 L469,220 L462,249 L461,260 L461,264 L462,263 L467,249 L479,221 L501,185 L515,165 L518,162 L518,165 L515,178 L509,200 L501,230 L495,255 L495,265 L496,260 L503,242 L515,214 L531,182 L545,159 L548,153 L547,156 L542,175 L532,202 L523,229 L523,241 L524,241 L526,237 L536,220 L552,194 L572,163 L582,150 L580,158 L574,176 L567,194 L565,203 L566,204 L566,201 L569,191 L578,173 L595,148 L607,133 L608,133 L603,143 L592,163 L581,187 L577,201 L576,203 L576,202 L576,192 L582,173 L597,145 L616,119 L619,115 L618,115 L617,122 L610,142 L598,174 L589,208 L589,223 L591,227 L592,225 L602,211 L619,188 L641,156 L661,131 L667,122 L666,127 L659,146 L648,171 L639,192 L638,198 L639,198 L641,190 L649,172 L662,146 L680,119 L686,110 L680,120 L666,144 L651,175 L640,200 L640,209 L639,209 L640,206 L648,190 L662,163 L684,128 L699,105 L700,101 L699,104 L692,121 L682,147 L671,179 L668,202 L671,212 L672,214 L675,211 L686,195 L704,171 L725,144 L734,129 L729,137 L720,156 L711,178 L710,194 L713,198 L714,199 L720,192 L732,176 L749,154 L766,134 L771,129 L769,131 L762,144 L750,167 L739,194 L737,211 L738,220 L739,224 L740,222 L746,211 L758,192 L773,170 L782,158 L778,169 L767,189 L755,215 L748,236 L746,246 L746,248 L748,246 L759,234 L777,212 L799,184 L812,168 L813,166 L809,173 L799,193 L786,220 L773,246 L767,256 L767,257 L768,249 L774,229 L786,201 L806,168 L822,145 L826,136 L823,144 L814,165 L805,187 L802,205 L803,213 L804,212 L809,206 L821,190 L838,171 L853,156 L855,154 L855,156 L851,168 L845,188 L839,207 L838,217 L842,212 L852,198 L866,177 L884,155 L892,145 L891,145 L888,153 L880,169 L870,189 L864,205 L863,210 L864,210 L869,203 L880,189 L896,168 L914,148 L921,141 L920,142 L917,152 L914,168 L908,192 L901,215 L899,227 L900,227 L902,221 L908,207 L916,188 L926,168 L936,152 L937,150 L936,151 L936,156 L936,164 L940,171 L947,176 L959,183 L968,188 L972,190 L970,192" fill="none" stroke="red" stroke-width="3"/></svg>