<svg xmlns="http://www.w3.org/2000/svg" xmlns:xlink="http://www.w3.org/1999/xlink" version="1.1" class="marks" width="1010" height="385" viewBox="0 0 1010 385"><rect width="1010" height="385" fill="white"/><g fill="none" stroke-miterlimit="10" transform="translate(5,5)"><g class="mark-group role-frame root" role="graphics-object" aria-roledescription="group mark container"><g transform="translate(0,0)"><path class="background" aria-hidden="true" d="M0.5,0.5h1000v375h-1000Z" stroke="#ddd"/><g><g class="mark-group role-axis" role="graphics-symbol" aria-roledescription="axis" aria-label="X-axis for a linear scale with values from 0 to 240"><g transform="translate(0.5,375.5)"><path class="background" aria-hidden="true" d="M0,0h0v0h0Z" pointer-events="none"/><g><g class="mark-rule role-axis-domain" pointer-events="none"><line transform="translate(0,0)" x2="1000" y2="0" stroke="#888" stroke-width="1" opacity="1"/></g></g><path class="foreground" aria-hidden="true" d="" pointer-events="none" display="none"/></g></g><g class="mark-group role-axis" role="graphics-symbol" aria-roledescription="axis" aria-label="Y-axis for a linear scale with values from −100 to 160"><g transform="translate(0.5,0.5)"><path class="background" aria-hidden="true" d="M0,0h0v0h0Z" pointer-events="none"/><g><g class="mark-rule role-axis-domain" pointer-events="none"><line transform="translate(0,375)" x2="0" y2="-375" stroke="#888" stroke-width="1" opacity="1"/></g></g><path class="foreground" aria-hidden="true" d="" pointer-events="none" display="none"/></g></g><g class="mark-line role-mark marks" role="graphics-object" aria-roledescription="line mark container"><path aria-label="x: 1; y: 73.6868826313" role="graphics-symbol" aria-roledescription="line mark" d="M4.167,124.49L8.333,190.856L12.5,146.332L16.667,197.011L20.833,151.578L25,132.634L29.167,139.944L33.333,240.142L37.5,117.328L41.667,247.243L45.833,83.738L50,200.609L54.167,180.402L58.333,286.213L62.5,152.647L66.667,130.104L70.833,180.637L75,91.584L79.167,51.298L83.333,176.849L87.5,111.826L91.667,215.059L95.833,90.751L100,44.387L104.167,160.905L108.333,123.304L112.5,95.15L116.667,137.79L120.833,94.144L125,116.746L129.167,187.053L133.333,103.152L137.5,177.967L141.667,244.242L145.833,128.642L150,154.854L154.167,193.863L158.333,209.468L162.5,109.433L166.667,187.535L170.833,164.44L175,117.855L179.167,176.792L183.333,155.427L187.5,162.568L191.667,190.504L195.833,119.613L200,65.876L204.167,155.146L208.333,240.47L212.5,157.042L216.667,114.567L220.833,111.59L225,131.421L229.167,174.594L233.333,150.303L237.5,149.4L241.667,203.256L245.833,235.376L250,170.085L254.167,219.283L258.333,207.759L262.5,220.838L266.667,164.013L270.833,249.709L275,205.568L279.167,122.15L283.333,184.768L287.5,107.605L291.667,154.347L295.833,168.154L300,223.083L304.167,262.844L308.333,106.998L312.5,169.65L316.667,183.27L320.833,81.068L325,168.727L329.167,191.173L333.333,182.769L337.5,106.507L341.667,179.525L345.833,257.66L350,196.578L354.167,151.857L358.333,179.426L362.5,236.198L366.667,188.891L370.833,244.779L375,179.235L379.167,101.543L383.333,184.114L387.5,178.088L391.667,199.423L395.833,165.005L400,224.933L404.167,222.86L408.333,201.125L412.5,169.749L416.667,169.332L420.833,214.975L425,140.179L429.167,235.496L433.333,171.986L437.5,131.979L441.667,100.696L445.833,214.788L450,96.738L454.167,255.818L458.333,105.614L462.5,222.118L466.667,157.708L470.833,89.289L475,185.203L479.167,120.794L483.333,19.29L487.5,216.716L491.667,159.664L495.833,172.298L500,359.141L504.167,187.63L508.333,153.04L512.5,226.111L516.667,102.968L520.833,225.119L525,110.087L529.167,189.266L533.333,222.23L537.5,183.137L541.667,180.43L545.833,123.017L550,162.009L554.167,194.623L558.333,145.672L562.5,159.349L566.667,170.802L570.833,143.176L575,211.906L579.167,169.784L583.333,223.659L587.5,190.692L591.667,185.47L595.833,217.53L600,188.466L604.167,202.147L608.333,279.117L612.5,230.423L616.667,221.37L620.833,102.643L625,236.504L629.167,173.576L633.333,155.381L637.5,181.53L641.667,170.752L645.833,289.307L650,282.38L654.167,134.722L658.333,225.947L662.5,281.209L666.667,203.678L670.833,120.585L675,247.179L679.167,198.093L683.333,113.614L687.5,173.096L691.667,192.637L695.833,184.027L700,45.693L704.167,157.427L708.333,144.357L712.5,220.8L716.667,222.597L720.833,192.612L725,102.373L729.167,82.986L733.333,61.845L737.5,108.838L741.667,219.645L745.833,272.791L750,191.966L754.167,56.727L758.333,148.927L762.5,155.003L766.667,90.176L770.833,50.125L775,115.091L779.167,163.746L783.333,91.436L787.5,116.772L791.667,90.483L795.833,169.84L800,131.548L804.167,212.891L808.333,196.228L812.5,179.675L816.667,163.896L820.833,85.756L825,132.483L829.167,147.036L833.333,192.915L837.5,139.265L841.667,23.82L845.833,111.074L850,144.54L854.167,152.222L858.333,123.737L862.5,189.12L866.667,138.305L870.833,133.222L875,190.751L879.167,197.848L883.333,86.585L887.5,208.99L891.667,123.231L895.833,31.043L900,121.12L904.167,201.565L908.333,109.977L912.5,137.178L916.667,167.59L920.833,162.764L925,174.167" stroke="#4c78a8" stroke-width="2"/></g></g><path class="foreground" aria-hidden="true" d="" display="none"/></g></g></g></svg>