<svg xmlns="http://www.w3.org/2000/svg" version="1.1" xmlns:xlink="http://www.w3.org/1999/xlink" xmlns:svgjs="http://svgjs.dev/svgjs" width="950" height="375" id="chartSvg"><path d="M9,275 L8,275 L7,275 L8,274 L9,274 L10,274 L11,273 L10,269 L9,261 L8,247 L8,236 L9,229 L10,233 L10,244 L9,259 L7,271 L6,280 L6,283 L7,280 L7,271 L7,256 L7,237 L8,225 L9,224 L9,228 L10,239 L10,251 L10,266 L11,279 L12,285 L13,283 L14,274 L14,259 L14,239 L14,225 L16,222 L16,225 L16,234 L15,246 L14,259 L14,270 L14,274 L14,271 L14,262 L14,247 L15,231 L16,224 L16,226 L16,235 L16,247 L16,259 L16,268 L16,270 L16,264 L16,249 L16,229 L17,208 L19,197 L20,196 L20,200 L19,210 L18,223 L17,240 L16,255 L16,261 L17,258 L17,249 L17,234 L18,213 L19,190 L21,178 L22,178 L22,185 L22,200 L22,217 L20,237 L20,257 L20,268 L22,270 L23,266 L23,251 L23,228 L23,200 L24,176 L25,165 L26,163 L25,166 L24,178 L24,193 L23,208 L23,223 L24,230 L24,227 L24,213 L23,193 L22,167 L22,151 L22,150 L22,156 L21,171 L20,189 L19,207 L19,218 L20,220 L22,215 L22,198 L23,173 L24,146 L26,137 L27,141 L26,154 L24,170 L22,188 L20,202 L20,206 L21,203 L21,190 L21,169 L23,145 L25,135 L25,138 L25,150 L23,166 L22,183 L22,197 L22,200 L24,193 L25,175 L26,151 L27,132 L29,127 L29,130 L29,141 L29,156 L29,171 L29,179 L30,178 L31,167 L32,146 L33,121 L34,100 L35,96 L35,101 L35,115 L35,132 L35,149 L34,158 L35,157 L36,148 L38,127 L40,102 L42,81 L44,76 L44,78 L44,88 L42,101 L41,113 L40,122 L41,125 L42,123 L43,113 L45,96 L47,77 L49,65 L49,64 L49,69 L48,81 L47,94 L46,103 L46,107 L46,106 L47,100 L48,86 L49,70 L50,58 L51,55 L50,57 L50,64 L49,74 L48,83 L48,90 L48,95 L49,97 L49,94 L51,83 L51,69 L52,57 L53,51 L53,50 L53,53 L53,60 L53,72 L52,86 L52,99 L53,103 L54,99 L55,88 L56,70 L58,54 L59,45 L59,44 L59,46 L59,56 L57,69 L56,78 L56,83 L57,80 L58,71 L59,60 L61,53 L61,52 L61,59 L61,72 L59,87 L58,97 L58,99 L58,96 L61,84 L63,69 L66,57 L67,56 L67,63 L64,76 L62,90 L61,98 L61,99 L64,93 L67,79 L70,64 L72,57 L72,61 L71,72 L69,85 L68,95 L67,99 L68,95 L70,83 L73,67 L75,58 L76,61 L75,72 L74,85 L73,98 L72,105 L72,103 L74,90 L76,74 L77,64 L78,68 L76,81 L74,97 L73,110 L72,114 L73,109 L75,94 L78,78 L80,71 L80,74 L79,87 L78,101 L77,112 L77,115 L78,110 L81,97 L83,84 L85,80 L85,88 L85,103 L83,119 L82,134 L81,144 L82,146 L83,144 L84,137 L84,122 L84,106 L85,94 L86,94 L86,97 L86,107 L85,121 L84,137 L84,154 L85,163 L86,164 L87,159 L86,146 L86,132 L86,119 L86,116 L86,122 L87,134 L87,147 L87,158 L88,165 L89,165 L89,158 L89,142 L89,125 L89,119 L90,121 L90,129 L90,139 L90,150 L90,159 L90,161 L90,158 L90,147 L91,134 L92,126 L92,127 L93,135 L93,147 L92,160 L93,172 L94,179 L95,179 L96,173 L97,159 L97,146 L97,142 L97,144 L98,153 L98,164 L98,178 L100,195 L102,205 L104,206 L105,205 L105,198 L103,185 L102,171 L101,161 L102,158 L102,161 L103,167 L103,178 L103,188 L104,199 L105,204 L105,202 L106,194 L105,179 L104,166 L104,161 L104,163 L105,172 L106,185 L106,200 L106,210 L107,212 L107,211 L107,204 L105,189 L105,171 L105,164 L105,165 L105,172 L105,184 L105,199 L105,215 L107,230 L108,239 L109,239 L109,237 L109,228 L108,215 L107,202 L107,191 L107,185 L107,186 L107,195 L107,210 L108,229 L109,247 L110,259 L111,262 L111,261 L111,257 L110,244 L109,227 L108,208 L108,195 L109,192 L109,194 L109,202 L109,216 L109,234 L110,256 L112,272 L113,274 L114,271 L114,255 L113,234 L113,210 L114,197 L116,195 L116,200 L115,212 L114,229 L113,249 L113,267 L114,276 L115,268 L114,250 L114,227 L114,207 L114,203 L114,206 L113,217 L112,234 L112,254 L112,273 L114,281 L116,283 L117,277 L117,259 L115,237 L114,217 L114,212 L114,214 L114,222 L114,234 L114,247 L114,257 L115,262 L116,261 L116,255 L116,243 L115,232 L115,224 L115,225 L115,229 L116,239 L116,251 L117,266 L119,276 L120,284 L122,291 L122,296 L122,298 L122,299 L121,299 L120,299 L119,300 L117,299 L116,298 L115,298 L114,298 L114,297 L114,296 L114,294 L114,291 L114,288 L114,286 L114,284 L114,282 L113,278 L113,273 L112,269 L112,270 L112,271 L113,271 L114,271 L114,272 L115,273 L116,275 L117,278 L117,281 L118,283 L118,284 L119,285 L118,283 L118,281 L117,275 L117,267 L118,261 L119,261 L119,262 L118,264 L118,266 L118,270 L118,273 L119,276 L119,278 L119,277 L119,276 L119,274 L118,272 L117,267 L117,261 L117,256 L117,252 L117,249 L117,246 L117,243 L117,239 L117,236 L117,235 L117,236 L117,237 L118,239 L119,244 L119,250 L119,255 L120,258 L120,256 L119,249 L119,239 L121,216 L124,200 L127,195 L127,197 L128,205 L127,216 L126,227 L125,236 L124,240 L124,239 L124,235 L125,223 L125,202 L126,188 L127,185 L127,187 L127,194 L125,204 L124,211 L124,215 L125,214 L126,209 L126,198 L127,185 L127,179 L127,184 L127,192 L127,200 L127,206 L127,207 L128,201 L128,191 L129,180 L130,172 L132,172 L132,176 L132,185 L132,194 L132,204 L132,210 L132,207 L133,199 L133,188 L134,177 L135,169 L136,168 L136,170 L135,177 L134,188 L132,201 L131,211 L131,212 L131,209 L131,198 L132,182 L133,163 L134,150 L136,144 L137,143 L137,146 L136,155 L133,168 L132,183 L132,193 L133,195 L134,191 L135,181 L136,166 L138,151 L139,143 L139,144 L139,147 L138,155 L137,164 L137,171 L137,174 L139,173 L140,163 L141,146 L142,130 L144,122 L144,121 L144,124 L144,133 L143,145 L141,158 L141,165 L142,165 L143,161 L144,150 L144,134 L145,120 L145,116 L145,117 L145,125 L144,138 L143,151 L142,158 L142,157 L143,146 L144,126 L144,107 L143,98 L142,101 L141,110 L141,121 L141,129 L141,132 L143,130 L144,120 L146,107 L146,94 L146,88 L146,91 L146,101 L146,112 L145,125 L145,133 L145,134 L146,130 L146,118 L147,102 L148,84 L149,73 L149,70 L149,71 L149,78 L149,89 L149,102 L149,113 L150,117 L151,115 L152,105 L153,89 L154,71 L155,61 L155,65 L155,76 L155,88 L154,98 L154,102 L155,100 L156,90 L157,74 L158,59 L159,55 L159,57 L159,65 L158,77 L158,86 L157,93 L157,95 L158,93 L159,84 L160,70 L160,56 L161,51 L161,56 L161,63 L162,73 L162,81 L162,89 L163,93 L164,93 L165,90 L165,82 L165,71 L165,58 L165,51 L165,54 L165,61 L165,70 L164,79 L164,88 L164,92 L164,93 L165,91 L165,83 L166,71 L166,60 L167,54 L167,58 L167,67 L166,79 L165,90 L165,97 L165,98 L166,95 L166,86 L167,74 L167,62 L168,58 L168,66 L168,76 L167,89 L167,101 L167,107 L169,109 L170,105 L172,95 L173,83 L174,75 L174,77 L174,85 L174,97 L173,109 L173,119 L173,122 L174,120 L175,111 L175,97 L174,85 L172,80 L171,81 L171,86 L171,97 L171,107 L170,117 L170,123 L171,119 L171,108 L171,96 L171,87 L171,90 L170,99 L168,111 L168,121 L168,127 L169,124 L170,115 L171,103 L173,97 L173,96 L173,99 L173,110 L172,124 L171,139 L171,150 L172,154 L173,153 L174,146 L175,133 L176,121 L176,114 L177,112 L177,113 L177,116 L176,125 L174,136 L173,146 L173,155 L174,158 L175,158 L175,157 L176,156 L176,150 L176,142 L177,134 L177,129 L177,137 L176,149 L175,162 L175,175 L176,183 L176,185 L177,180 L178,167 L179,152 L180,143 L180,146 L180,155 L180,164 L180,174 L180,180 L181,180 L182,173 L183,157 L184,143 L186,134 L186,133 L186,134 L186,139 L185,147 L185,156 L185,165 L187,173 L188,174 L189,173 L189,168 L189,157 L190,144 L191,135 L191,139 L191,150 L191,162 L192,175 L193,185 L193,190 L194,190 L194,189 L195,184 L195,173 L195,162 L195,154 L195,153 L195,156 L195,165 L194,175 L194,185 L195,191 L195,192 L195,189 L195,180 L195,170 L195,163 L195,166 L196,173 L196,183 L197,194 L198,204 L199,207 L200,201 L200,192 L200,184 L200,181 L200,182 L200,185 L200,193 L201,202 L201,215 L202,224 L204,224 L205,221 L205,210 L205,200 L205,194 L205,196 L205,202 L205,210 L205,217 L206,222 L207,222 L207,217 L205,205 L204,193 L204,189 L204,190 L204,192 L204,199 L204,207 L205,216 L205,222 L205,223 L205,222 L205,217 L202,208 L201,202 L200,197 L199,195 L198,193 L197,192 L197,194 L198,198 L198,205 L198,215 L198,225 L199,234 L200,237 L201,235 L201,231 L200,220 L200,207 L199,196 L200,194 L200,196 L200,203 L200,215 L201,227 L202,238 L203,244 L205,244 L205,239 L205,225 L204,210 L204,198 L205,195 L205,196 L205,203 L205,215 L205,228 L206,239 L207,243 L207,242 L208,235 L207,221 L207,206 L207,198 L208,198 L208,200 L209,210 L210,220 L211,232 L214,242 L215,245 L215,244 L215,239 L213,229 L212,217 L212,210 L212,209 L212,211 L212,214 L212,221 L212,228 L213,237 L215,243 L215,244 L215,242 L215,236 L215,227 L215,220 L215,216 L215,218 L215,222 L215,227 L215,232 L215,234 L216,234 L216,232 L215,225 L214,216 L214,211 L214,210 L213,212 L213,215 L215,222 L216,232 L218,246 L219,259 L221,268 L222,273 L223,276 L224,278 L224,279 L224,280 L224,281 L224,279 L224,278 L223,276 L223,275 L223,273 L222,272 L222,270 L222,267 L221,264 L221,259 L221,254 L220,246 L218,233 L216,212 L217,195 L220,188 L222,186 L222,187 L222,193 L221,202 L221,212 L220,223 L222,234 L223,236 L223,235 L223,233 L222,228 L220,219 L219,206 L218,195 L219,193 L220,195 L221,202 L222,209 L222,215 L223,220 L223,219 L222,211 L221,199 L218,181 L217,162 L217,149 L219,146 L219,147 L219,151 L219,160 L219,169 L219,181 L220,194 L221,207 L222,212 L222,209 L221,201 L220,190 L220,174 L221,157 L222,148 L222,145 L222,146 L221,148 L220,155 L220,165 L220,173 L221,182 L222,187 L223,188 L223,187 L223,185 L221,178 L220,163 L220,142 L220,124 L221,114 L221,111 L221,116 L221,130 L221,146 L222,163 L223,180 L224,191 L225,196 L225,195 L224,190 L222,177 L221,156 L221,134 L222,122 L222,117 L222,118 L222,119 L221,124 L221,134 L221,146 L222,161 L222,173 L223,180 L224,183 L224,184 L224,180 L223,169 L222,153 L221,136 L221,127 L221,125 L221,126 L221,127 L221,133 L221,142 L222,154 L222,169 L222,179 L222,181 L222,176 L222,163 L221,146 L220,123 L220,110 L221,105 L221,106 L221,109 L222,120 L222,133 L222,146 L222,156 L222,158 L222,156 L222,151 L221,138 L220,122 L219,104 L219,91 L219,84 L219,82 L219,85 L220,92 L221,102 L223,119 L225,137 L227,148 L228,155 L229,158 L229,157 L229,155 L229,144 L229,129 L230,107 L231,90 L232,80 L232,72 L232,69 L233,72 L234,79 L235,90 L236,100 L237,107 L237,105 L237,97 L236,86 L236,71 L237,55 L238,41 L238,34 L238,32 L238,36 L238,45 L238,54 L237,64 L237,78 L237,90 L237,94 L237,93 L238,91 L239,84 L241,73 L242,58 L244,48 L247,44 L249,45 L250,53 L249,62 L249,70 L248,74 L248,75 L248,73 L249,66 L250,56 L251,48 L251,46 L251,48 L251,52 L250,56 L250,58 L249,59 L249,58 L249,57 L249,56 L249,55 L249,54 L249,53 L249,51 L249,48 L249,46 L249,43 L249,41 L249,42 L249,47 L249,58 L249,73 L249,88 L249,94 L249,93 L249,89 L248,79 L247,64 L247,45 L249,35 L249,34 L249,36 L249,43 L248,55 L247,68 L245,85 L244,101 L243,110 L244,110 L244,107 L244,96 L244,82 L243,66 L242,56 L242,55 L243,57 L244,63 L246,75 L247,87 L249,99 L249,104 L250,104 L251,101 L251,92 L251,78 L251,64 L251,56 L252,54 L253,55 L253,56 L254,59 L254,66 L254,75 L254,88 L254,99 L255,104 L255,105 L255,103 L254,95 L254,81 L255,65 L256,53 L256,51 L256,53 L256,57 L256,65 L256,72 L257,78 L257,84 L258,89 L259,92 L260,92 L261,92 L261,91 L260,83 L259,71 L258,61 L258,59 L258,61 L259,66 L259,73 L260,81 L261,90 L263,97 L263,102 L263,103 L263,100 L262,92 L261,82 L261,75 L262,78 L263,85 L264,94 L264,102 L265,111 L266,117 L266,118 L266,117 L266,111 L265,102 L265,94 L265,89 L265,91 L266,97 L266,105 L266,113 L267,120 L267,123 L267,121 L267,115 L267,106 L267,97 L267,92 L267,94 L268,99 L269,105 L270,112 L270,118 L271,123 L271,124 L271,123 L271,119 L271,111 L270,101 L269,93 L269,92 L269,93 L271,97 L271,105 L272,114 L273,127 L273,137 L273,139 L273,137 L273,129 L273,117 L273,105 L273,99 L273,104 L274,113 L274,122 L275,131 L275,136 L275,132 L275,124 L275,114 L276,108 L278,108 L278,110 L280,115 L281,123 L281,133 L281,144 L283,156 L285,160 L286,161 L287,160 L287,156 L287,148 L286,138 L285,129 L285,124 L285,128 L286,137 L286,147 L286,156 L288,162 L289,164 L290,163 L289,157 L288,146 L286,136 L286,130 L286,133 L287,140 L288,149 L288,158 L290,166 L291,171 L292,170 L293,166 L293,156 L291,143 L291,133 L291,132 L291,134 L291,141 L292,149 L293,158 L293,168 L294,177 L295,182 L295,183 L295,182 L295,178 L293,171 L291,161 L290,152 L290,146 L290,145 L290,146 L291,150 L291,157 L292,166 L292,175 L293,184 L293,190 L293,192 L293,191 L293,190 L292,185 L291,176 L291,167 L291,160 L291,159 L291,161 L291,164 L292,171 L293,179 L294,190 L295,198 L296,201 L297,201 L297,200 L297,197 L294,188 L293,177 L293,172 L293,173 L294,176 L295,183 L297,191 L298,199 L300,207 L302,212 L303,214 L303,213 L303,209 L300,202 L299,195 L298,190 L298,189 L299,191 L301,196 L303,204 L305,212 L306,222 L307,230 L308,233 L308,231 L308,228 L307,224 L306,220 L305,217 L305,216 L305,217 L307,224 L308,232 L309,238 L309,242 L310,242 L310,240 L310,236 L309,230 L309,227 L309,226 L309,229 L310,235 L310,243 L311,250 L312,255 L312,256 L312,255 L312,254 L312,255 L313,258 L313,262 L314,266 L314,269 L314,270 L313,266 L311,258 L310,246 L308,235 L306,223 L304,213 L303,209 L303,210 L304,215 L305,223 L306,231 L307,237 L307,238 L307,236 L306,225 L305,210 L303,194 L303,185 L303,184 L303,189 L303,200 L303,211 L304,221 L305,226 L305,225 L304,220 L302,207 L300,194 L299,185 L298,183 L298,185 L300,195 L301,209 L302,224 L303,238 L303,243 L303,241 L303,228 L302,210 L302,192 L302,183 L303,182 L303,185 L305,197 L305,212 L305,227 L306,240 L308,245 L308,244 L308,237 L308,220 L307,206 L307,202 L307,204 L308,211 L308,224 L309,239 L310,252 L310,257 L311,255 L310,243 L309,225 L308,209 L308,204 L308,205 L309,212 L310,226 L311,238 L312,248 L313,252 L314,250 L314,238 L313,222 L313,209 L313,207 L313,210 L314,220 L316,233 L318,247 L320,259 L322,263 L322,260 L320,246 L318,230 L316,218 L316,222 L318,232 L320,244 L322,256 L325,268 L328,281 L330,290 L331,295 L330,293 L327,282 L325,267 L322,248 L323,230 L324,222 L325,221 L325,226 L325,241 L325,259 L325,276 L325,287 L326,289 L326,285 L325,271 L323,253 L321,233 L321,224 L321,227 L322,239 L322,254 L323,267 L325,273 L326,272 L326,264 L325,247 L325,231 L326,225 L326,227 L327,232 L327,243 L328,250 L329,253 L330,251 L330,239 L329,222 L329,212 L330,212 L331,216 L333,225 L335,232 L335,237 L336,236 L337,229 L337,216 L337,204 L337,201 L337,202 L337,203 L336,207 L335,218 L333,236 L330,256 L328,266 L327,266 L327,265 L327,256 L326,244 L325,229 L325,215 L325,204 L325,200 L325,201 L324,206 L324,218 L323,230 L322,243 L322,247 L322,246 L322,243 L320,232 L320,219 L320,201 L320,189 L320,191 L319,202 L319,216 L318,230 L319,242 L320,244 L320,239 L319,222 L317,200 L316,175 L316,158 L318,154 L319,154 L320,160 L320,173 L320,188 L320,207 L321,227 L322,241 L323,247 L323,246 L322,237 L321,221 L319,201 L318,182 L318,177 L318,178 L319,186 L320,200 L321,217 L322,236 L323,250 L325,258 L326,259 L327,256 L327,249 L327,235 L327,220 L329,207 L330,205 L330,207 L330,215 L331,226 L331,239 L332,250 L333,253 L334,248 L334,231 L334,211 L335,191 L337,178 L338,176 L338,183 L337,196 L337,210 L339,224 L343,234 L346,239 L347,238 L347,234 L346,222 L344,207 L344,195 L344,188 L344,187 L344,188 L345,192 L346,201 L347,212 L348,224 L348,227 L348,224 L347,215 L346,203 L344,186 L343,168 L345,160 L347,159 L347,161 L348,169 L348,182 L348,195 L348,205 L349,209 L350,208 L349,205 L349,201 L349,195 L349,191 L349,190 L349,191 L350,197 L351,202 L351,206 L352,207 L351,204 L348,193 L345,175 L343,153 L342,134 L343,127 L344,127 L344,131 L345,142 L345,154 L345,166 L346,177 L347,182 L347,181 L347,175 L347,162 L347,148 L347,138 L347,137 L348,141 L349,151 L350,161 L350,169 L350,170 L350,168 L350,158 L350,144 L352,129 L353,126 L353,127 L354,134 L354,141 L354,144 L355,139 L356,129 L357,116 L359,102 L361,99 L362,103 L363,109 L363,116 L363,124 L363,129 L363,131 L363,130 L363,129 L363,127 L362,119 L361,110 L361,98 L361,91 L361,90 L361,91 L361,96 L361,106 L361,119 L361,131 L360,136 L360,137 L360,136 L360,134 L360,124 L359,112 L359,99 L359,91 L359,90 L359,93 L360,101 L360,111 L360,120 L360,124 L360,120 L360,111 L360,98 L360,84 L360,77 L361,78 L361,84 L361,92 L361,100 L361,106 L361,110 L361,111 L361,109 L361,102 L361,92 L361,82 L360,75 L360,72 L360,73 L361,75 L361,80 L361,88 L362,96 L362,101 L362,102 L363,100 L363,95 L363,85 L363,73 L362,63 L363,56 L363,54 L364,54 L364,56 L365,64 L366,76 L366,89 L366,102 L366,109 L366,105 L367,97 L367,85 L367,72 L367,61 L367,56 L367,58 L367,64 L367,70 L368,76 L368,78 L368,75 L369,69 L370,62 L371,57 L371,56 L371,58 L371,64 L371,72 L371,80 L371,90 L371,95 L373,90 L374,80 L376,68 L377,60 L379,58 L380,59 L381,65 L382,73 L382,82 L382,89 L381,92 L381,90 L381,83 L381,74 L382,67 L383,66 L383,71 L383,80 L382,88 L381,95 L381,97 L381,95 L382,86 L382,77 L383,71 L383,77 L383,85 L383,92 L382,99 L382,102 L382,101 L383,93 L384,82 L385,72 L385,70 L385,73 L386,78 L385,85 L385,90 L384,93 L384,94 L384,93 L384,94 L383,95 L383,97 L383,99 L382,100 L382,102 L382,103 L381,104 L381,103 L381,102 L381,101 L381,100 L381,99 L381,97 L381,95 L381,93 L381,91 L381,89 L381,86 L381,83 L381,80 L380,75 L380,70 L379,63 L379,54 L378,44 L377,35 L377,29 L376,27 L376,28 L377,30 L378,36 L379,45 L379,54 L379,64 L379,72 L378,80 L377,83 L377,82 L377,80 L377,73 L377,63 L377,51 L377,40 L378,31 L379,25 L380,22 L381,21 L381,22 L381,23 L382,28 L382,36 L381,48 L381,63 L380,76 L380,84 L380,87 L380,86 L381,80 L381,70 L382,58 L383,46 L383,39 L384,33 L384,32 L384,33 L384,38 L384,48 L383,59 L382,70 L382,77 L382,78 L382,77 L382,73 L382,63 L383,51 L384,41 L384,39 L384,42 L384,48 L384,57 L384,67 L383,77 L383,81 L383,82 L383,81 L383,78 L384,70 L386,60 L387,52 L388,50 L388,51 L388,54 L388,60 L388,67 L388,77 L388,88 L390,93 L390,94 L390,93 L390,90 L390,85 L390,78 L390,70 L390,63 L390,61 L390,62 L390,63 L390,64 L390,67 L390,72 L390,79 L390,88 L390,95 L390,100 L390,103 L390,104 L390,102 L390,97 L389,88 L388,78 L388,71 L389,70 L389,71 L389,76 L388,85 L388,94 L388,102 L388,107 L388,109 L388,107 L388,101 L388,90 L389,78 L390,71 L391,71 L391,73 L390,78 L389,88 L388,100 L388,115 L388,124 L391,126 L393,126 L395,122 L395,114 L394,102 L392,88 L391,83 L391,84 L392,88 L392,95 L392,102 L392,112 L391,123 L391,134 L391,138 L391,135 L391,128 L390,118 L389,107 L390,95 L392,90 L392,89 L392,91 L392,99 L391,110 L391,122 L390,132 L390,138 L391,139 L391,137 L392,131 L391,117 L390,101 L390,88 L391,85 L392,85 L392,88 L393,93 L393,100 L393,110 L392,122 L392,130 L392,133 L392,132 L392,128 L392,117 L392,102 L394,90 L396,86 L396,90 L396,98 L396,107 L396,117 L396,126 L396,131 L396,132 L396,131 L396,128 L396,122 L396,113 L397,104 L398,98 L398,100 L397,106 L397,116 L396,128 L396,141 L396,148 L396,151 L397,151 L397,150 L397,149 L398,149 L398,148 L398,147 L398,148 L398,147 L398,146 L398,142 L398,137 L398,133 L399,130 L399,127 L399,123 L399,116 L399,110 L399,107 L399,106 L399,111 L399,118 L400,125 L400,133 L401,141 L401,152 L401,166 L401,176 L401,183 L401,185 L402,183 L402,178 L402,169 L402,156 L401,139 L401,124 L401,121 L401,122 L401,127 L401,135 L401,143 L401,153 L402,164 L403,173 L405,182 L407,190 L408,199 L409,205 L409,207 L408,207 L408,206 L406,203 L405,198 L403,189 L402,177 L401,161 L401,146 L400,136 L400,132 L400,130 L400,129 L400,132 L400,142 L400,156 L400,173 L400,187 L401,200 L401,210 L401,216 L401,212 L400,200 L398,183 L397,166 L397,154 L396,146 L396,140 L396,138 L396,143 L398,156 L400,172 L401,190 L402,204 L403,213 L404,221 L404,222 L404,220 L403,207 L402,188 L402,167 L404,151 L406,144 L407,142 L407,143 L407,150 L407,164 L407,182 L408,200 L409,214 L410,219 L411,218 L412,212 L412,195 L411,175 L411,155 L412,145 L413,145 L413,149 L413,163 L413,179 L412,196 L413,212 L415,221 L416,222 L417,219 L417,207 L415,190 L413,171 L412,159 L412,157 L412,158 L413,165 L413,178 L413,193 L412,208 L412,219 L412,221 L412,219 L411,207 L408,190 L405,171 L405,158 L405,156 L405,157 L405,164 L405,177 L405,191 L405,207 L406,217 L407,218 L408,214 L408,201 L409,185 L410,168 L412,158 L413,157 L413,159 L414,170 L415,185 L415,202 L415,217 L416,225 L417,227 L417,226 L417,218 L416,202 L415,185 L414,172 L414,169 L414,170 L414,174 L415,184 L415,198 L415,214 L416,227 L418,234 L418,235 L418,232 L418,220 L416,201 L416,179 L417,166 L418,164 L418,166 L418,175 L418,188 L418,203 L419,219 L419,229 L420,232 L420,231 L420,227 L418,216 L418,204 L418,193 L418,185 L419,181 L419,185 L419,194 L419,206 L420,222 L420,236 L420,245 L421,251 L421,252 L421,249 L420,238 L420,224 L420,209 L422,201 L423,200 L423,201 L423,205 L422,214 L422,227 L422,244 L422,258 L423,265 L423,261 L423,254 L423,244 L423,235 L424,227 L425,222 L426,222 L426,223 L426,224 L425,225 L425,226 L425,227 L424,227 L423,227 L422,227 L421,227 L420,227 L419,227 L418,227 L418,226 L417,224 L415,220 L413,215 L412,211 L412,209 L412,208 L412,209 L413,212 L415,218 L418,229 L420,241 L421,248 L422,251 L422,250 L422,249 L420,243 L419,232 L418,219 L417,209 L417,207 L417,209 L417,214 L418,226 L419,241 L420,260 L422,275 L424,281 L426,283 L427,281 L427,276 L427,266 L426,256 L425,243 L425,231 L426,226 L427,227 L427,230 L428,240 L429,252 L429,266 L429,280 L429,289 L428,292 L428,291 L427,287 L426,278 L425,266 L424,254 L424,245 L424,243 L424,244 L424,246 L425,254 L426,265 L427,278 L429,291 L430,300 L431,303 L431,301 L430,293 L427,281 L425,266 L424,256 L424,255 L424,256 L424,259 L425,266 L427,276 L429,288 L431,301 L432,312 L434,319 L436,327 L437,336 L439,342 L439,346 L439,348 L438,349 L438,347 L437,342 L436,333 L435,322 L433,312 L432,304 L432,300 L432,302 L433,309 L435,320 L437,333 L439,343 L439,348 L439,347 L438,340 L437,328 L435,313 L434,295 L433,282 L433,279 L433,280 L433,283 L433,291 L435,302 L437,314 L439,326 L441,337 L443,347 L447,359 L449,372 L450,381 L450,388 L451,391 L452,393 L452,392 L452,391 L452,389 L452,385 L452,377 L449,364 L447,350 L445,339 L443,329 L441,318 L441,310 L440,305 L440,303 L440,301 L439,300 L439,302 L439,306 L440,313 L440,321 L441,333 L442,344 L442,351 L442,354 L442,353 L442,348 L442,338 L442,326 L443,314 L444,304 L445,294 L444,282 L443,270 L443,261 L444,258 L443,258 L443,259 L444,264 L445,272 L446,276 L446,277 L447,277 L447,274 L447,266 L447,254 L447,240 L445,230 L444,224 L444,222 L444,223 L445,224 L446,231 L448,242 L449,252 L449,263 L449,270 L449,273 L450,273 L450,271 L450,261 L449,247 L449,233 L449,222 L451,220 L451,221 L452,226 L453,237 L454,249 L455,260 L457,269 L458,273 L458,274 L459,272 L459,264 L458,250 L457,236 L457,229 L457,228 L457,229 L458,232 L459,239 L461,249 L464,262 L467,273 L467,274 L467,273 L466,268 L464,259 L463,246 L462,229 L460,211 L458,194 L457,182 L457,173 L457,168 L457,166 L458,168 L459,176 L459,188 L459,200 L460,215 L460,227 L460,230 L460,229 L460,221 L459,207 L459,193 L459,182 L459,175 L459,171 L459,172 L459,173 L459,179 L459,192 L459,206 L458,218 L459,232 L461,244 L462,253 L462,259 L462,262 L462,263 L461,264 L460,263 L459,259 L459,251 L459,239 L459,224 L458,207 L457,197 L457,193 L457,199 L456,213 L455,233 L454,255 L453,271 L452,278 L452,280 L452,278 L452,270 L452,255 L452,240 L453,225 L453,211 L453,204 L453,203 L453,204 L453,207 L454,214 L454,223 L455,234 L456,246 L457,253 L458,253 L458,250 L458,240 L458,224 L458,199 L457,178 L458,171 L458,169 L458,170 L458,176 L459,189 L460,204 L462,221 L463,238 L463,246 L463,247 L463,244 L463,234 L462,220 L462,201 L462,181 L462,168 L462,164 L462,165 L462,168 L462,177 L463,185 L464,195 L466,202 L467,205 L468,201 L468,190 L467,176 L466,159 L465,150 L465,149 L465,151 L467,158 L468,168 L469,177 L470,183 L471,184 L471,183 L471,177 L471,167 L469,156 L469,147 L469,144 L470,144 L471,146 L472,152 L473,161 L474,170 L474,177 L474,178 L474,176 L474,168 L474,156 L473,141 L473,129 L473,127 L473,129 L474,135 L474,144 L474,152 L474,157 L475,158 L475,156 L475,150 L475,139 L474,128 L474,121 L474,120 L474,123 L476,132 L477,142 L477,152 L476,160 L476,161 L476,158 L476,148 L476,133 L475,118 L474,108 L474,106 L474,108 L475,115 L475,126 L475,136 L475,145 L475,152 L475,154 L475,146 L475,135 L474,122 L474,111 L474,107 L474,108 L474,113 L474,124 L474,136 L474,149 L473,155 L472,155 L472,149 L472,136 L471,119 L470,101 L470,94 L471,95 L471,99 L471,109 L471,121 L470,132 L470,139 L470,141 L471,138 L471,129 L472,115 L474,100 L475,90 L476,87 L476,88 L477,97 L476,109 L476,120 L475,127 L475,123 L476,113 L476,99 L476,85 L476,80 L477,82 L477,90 L476,102 L476,115 L475,123 L475,124 L475,122 L476,112 L476,99 L477,86 L477,82 L477,83 L477,90 L477,100 L477,107 L477,112 L477,109 L478,100 L479,88 L480,80 L481,79 L482,82 L483,90 L482,100 L481,108 L481,112 L481,113 L481,111 L482,105 L483,95 L484,85 L484,81 L485,81 L485,84 L485,91 L485,98 L485,105 L485,109 L485,110 L485,108 L485,102 L486,92 L486,83 L487,77 L487,75 L487,78 L487,86 L486,95 L485,102 L485,107 L485,105 L486,100 L486,90 L486,78 L486,73 L486,74 L486,83 L484,94 L482,105 L480,113 L479,115 L479,110 L479,99 L478,88 L477,81 L477,82 L477,86 L478,97 L477,108 L476,118 L476,123 L476,122 L476,119 L477,109 L478,95 L480,83 L481,79 L482,80 L483,84 L483,94 L484,103 L484,111 L484,117 L484,119 L484,116 L484,106 L485,92 L486,80 L486,76 L486,79 L486,86 L486,96 L485,105 L484,114 L483,118 L483,117 L483,114 L483,109 L484,102 L484,95 L484,85 L484,76 L484,70 L484,69 L483,69 L483,73 L483,78 L484,84 L484,90 L484,97 L485,103 L485,110 L485,114 L485,115 L485,114 L485,113 L485,110 L485,107 L485,104 L485,100 L485,93 L485,85 L484,76 L484,69 L483,64 L483,61 L483,59 L483,58 L483,59 L484,62 L484,68 L484,75 L484,83 L483,92 L483,100 L483,107 L483,112 L484,115 L484,116 L484,115 L484,112 L484,105 L486,95 L487,84 L488,79 L488,83 L487,92 L486,101 L486,108 L486,112 L486,113 L487,112 L487,105 L488,96 L489,85 L490,82 L490,83 L490,89 L490,97 L490,107 L490,115 L490,120 L490,116 L491,105 L491,95 L492,90 L492,92 L493,97 L493,104 L492,111 L492,117 L492,119 L492,118 L492,114 L492,105 L493,96 L493,88 L493,81 L493,74 L493,66 L495,59 L497,56 L497,55 L497,56 L497,59 L496,64 L496,68 L495,74 L494,81 L493,90 L493,99 L492,105 L492,107 L492,108 L492,107 L492,104 L493,99 L494,92 L495,86 L495,83 L496,83 L496,86 L494,94 L493,101 L493,108 L493,113 L493,114 L494,113 L495,107 L496,98 L497,89 L497,85 L497,89 L496,98 L496,107 L495,115 L495,119 L495,118 L496,112 L497,100 L498,88 L499,83 L499,88 L499,96 L499,104 L498,111 L498,116 L498,117 L498,116 L500,109 L501,98 L502,87 L503,80 L504,79 L504,83 L504,92 L503,101 L503,109 L503,113 L503,114 L503,113 L503,111 L503,105 L504,99 L505,92 L506,85 L507,78 L507,70 L507,62 L508,56 L508,53 L508,54 L508,58 L508,63 L507,70 L506,79 L505,89 L505,98 L505,102 L506,102 L506,103 L506,105 L506,106 L505,107 L505,108 L505,109 L505,110 L505,111 L505,112 L505,113 L505,114 L505,117 L505,120 L505,123 L505,124 L505,123 L505,118 L506,109 L506,97 L507,87 L508,85 L508,86 L508,90 L507,100 L506,109 L506,119 L506,127 L506,128 L506,126 L506,119 L507,107 L508,95 L508,88 L508,89 L508,91 L508,99 L508,105 L507,110 L507,112 L508,107 L509,98 L510,88 L511,82 L511,81 L512,82 L512,83 L513,86 L513,92 L513,101 L513,111 L513,117 L513,119 L513,117 L513,110 L515,99 L518,84 L522,70 L526,61 L528,55 L528,53 L528,52 L528,53 L527,56 L526,60 L524,66 L523,74 L520,85 L518,96 L516,105 L514,114 L513,121 L513,125 L512,127 L512,126 L512,125 L511,124 L510,121 L510,119 L509,117 L508,116 L507,115 L506,115 L506,116 L505,116 L504,117 L503,117 L502,118 L501,119 L500,119 L501,119 L502,119 L503,119 L504,119 L505,119 L506,120 L507,122 L509,124 L510,125 L511,125 L511,119 L511,107 L512,92 L512,87 L513,87 L513,88 L513,95 L514,105 L514,117 L513,127 L513,131 L513,127 L514,116 L516,103 L519,91 L522,86 L523,88 L523,95 L523,105 L522,115 L521,121 L520,123 L520,122 L521,119 L521,110 L522,102 L522,96 L522,95 L522,96 L522,98 L522,103 L522,112 L522,122 L523,129 L524,132 L524,133 L523,135 L523,136 L523,134 L523,129 L523,122 L523,114 L523,109 L523,108 L523,112 L523,121 L523,130 L523,140 L522,152 L522,162 L522,168 L522,173 L523,178 L523,182 L523,183 L523,182 L522,177 L521,172 L521,168 L520,163 L520,158 L520,150 L520,139 L520,131 L519,127 L519,124 L519,122 L519,124 L519,127 L520,133 L520,139 L520,149 L520,160 L520,169 L520,177 L520,185 L520,188 L520,183 L520,172 L520,159 L521,144 L523,127 L524,112 L525,106 L525,105 L525,107 L525,114 L524,127 L523,139 L522,154 L522,168 L523,173 L524,174 L524,172 L524,161 L525,146 L526,131 L527,122 L527,119 L527,120 L527,124 L526,134 L525,148 L524,166 L523,183 L523,188 L524,188 L524,184 L524,174 L524,161 L524,148 L525,140 L525,139 L525,140 L525,144 L525,152 L524,164 L523,178 L523,185 L524,186 L524,184 L524,176 L524,163 L525,149 L526,141 L526,139 L526,140 L526,144 L526,153 L525,164 L525,176 L525,187 L525,192 L526,192 L526,191 L527,186 L528,176 L530,166 L532,160 L533,160 L533,163 L532,170 L531,178 L531,190 L530,203 L530,211 L530,212 L531,211 L530,205 L530,195 L529,182 L529,166 L529,151 L529,145 L529,146 L529,151 L528,162 L527,177 L526,197 L526,212 L526,220 L526,221 L526,220 L526,214 L525,202 L525,187 L525,167 L526,151 L526,141 L525,136 L525,137 L525,145 L524,158 L524,175 L524,199 L524,220 L524,235 L524,245 L522,249 L521,249 L521,245 L521,237 L521,226 L522,213 L523,198 L524,178 L525,162 L525,156 L525,158 L525,166 L525,179 L525,196 L526,215 L527,227 L528,224 L528,214 L528,200 L530,187 L533,177 L534,175 L534,176 L533,182 L533,195 L531,211 L530,231 L530,245 L530,250 L531,251 L531,249 L531,241 L531,227 L532,212 L533,203 L534,202 L534,205 L533,210 L532,221 L532,233 L532,246 L533,256 L533,259 L533,258 L533,251 L532,238 L533,227 L534,220 L535,219 L535,220 L535,223 L535,229 L535,238 L536,250 L537,260 L539,264 L539,265 L540,260 L538,247 L537,231 L536,215 L536,208 L536,210 L535,215 L535,224 L535,235 L535,245 L537,252 L537,253 L537,250 L537,241 L537,232 L536,223 L537,216 L538,213 L538,215 L538,220 L538,229 L538,240 L538,249 L537,253 L537,251 L537,247 L537,239 L537,227 L539,215 L541,208 L541,211 L541,219 L541,228 L542,239 L542,251 L544,257 L545,259 L545,257 L546,253 L546,243 L546,233 L546,227 L546,226 L546,227 L546,230 L547,235 L547,242 L547,250 L548,259 L548,264 L549,265 L549,264 L549,257 L548,245 L548,233 L548,222 L548,220 L548,222 L548,229 L548,238 L548,251 L550,266 L551,276 L552,282 L554,286 L555,288 L554,281 L551,270 L548,256 L547,244 L547,237 L547,234 L548,234 L548,235 L548,237 L548,242 L549,248 L550,255 L550,260 L550,261 L550,260 L549,252 L548,242 L548,233 L548,229 L548,228 L547,228 L547,229 L547,232 L547,236 L548,239 L548,241 L547,237 L547,233 L546,232 L546,231 L546,230 L545,229 L545,230 L546,237 L548,249 L549,263 L549,271 L549,274 L548,271 L547,264 L545,254 L544,242 L542,230 L542,226 L542,227 L543,232 L544,239 L545,247 L545,254 L545,256 L545,253 L545,244 L544,235 L543,229 L543,227 L543,228 L545,233 L547,241 L549,251 L551,264 L553,279 L555,291 L556,303 L557,315 L557,326 L557,334 L558,338 L559,339 L559,338 L559,335 L558,329 L558,321 L557,308 L557,294 L555,280 L552,266 L550,250 L548,237 L547,228 L547,224 L547,222 L547,225 L548,231 L549,236 L549,242 L550,249 L552,259 L553,270 L553,276 L553,275 L553,271 L552,265 L551,256 L550,244 L550,235 L551,233 L551,234 L551,237 L552,246 L553,256 L555,270 L557,281 L558,285 L558,283 L557,275 L554,260 L551,242 L549,227 L549,222 L549,224 L550,226 L551,234 L552,244 L554,254 L555,259 L556,254 L555,245 L554,236 L553,230 L554,229 L555,231 L557,237 L559,244 L561,253 L563,263 L564,267 L564,266 L562,260 L560,249 L557,238 L557,232 L557,230 L559,230 L560,230 L562,233 L563,239 L565,248 L568,261 L570,273 L572,284 L573,295 L576,308 L577,318 L578,325 L579,327 L578,324 L575,315 L573,302 L571,287 L571,273 L569,259 L568,242 L567,227 L567,217 L567,210 L567,205 L567,201 L568,199 L568,198 L568,199 L568,200 L568,202 L569,206 L569,210 L571,217 L573,225 L574,232 L574,234 L574,233 L572,229 L569,221 L567,211 L566,200 L565,195 L565,194 L566,196 L567,204 L569,213 L570,222 L571,229 L572,232 L572,231 L571,226 L569,215 L566,202 L564,187 L564,175 L564,171 L564,173 L565,182 L567,195 L568,210 L570,223 L570,230 L570,232 L570,231 L570,228 L569,220 L567,208 L567,196 L566,185 L565,175 L564,165 L564,156 L565,151 L565,152 L565,153 L566,156 L567,161 L567,168 L567,176 L568,186 L568,195 L569,200 L569,198 L569,190 L569,182 L568,173 L567,166 L567,159 L567,155 L567,156 L567,162 L568,172 L569,180 L570,188 L570,192 L570,190 L570,183 L569,171 L567,155 L566,141 L566,131 L567,124 L568,119 L569,117 L569,122 L569,131 L570,142 L570,154 L571,163 L572,170 L572,171 L571,169 L571,163 L571,153 L571,142 L571,133 L570,130 L570,131 L570,135 L570,144 L570,156 L572,169 L573,177 L574,178 L574,177 L574,168 L574,154 L572,136 L570,122 L570,116 L570,115 L571,117 L572,126 L574,136 L574,146 L576,155 L577,158 L577,154 L577,144 L576,131 L574,114 L574,102 L576,99 L577,99 L579,102 L579,112 L579,125 L579,142 L579,152 L580,153 L580,150 L580,141 L580,129 L579,113 L578,99 L578,93 L579,93 L581,95 L582,102 L582,111 L582,119 L582,126 L582,127 L582,126 L582,121 L582,112 L582,99 L582,85 L583,75 L584,73 L584,74 L584,78 L584,85 L584,94 L585,103 L586,111 L586,114 L586,112 L587,103 L588,92 L588,79 L589,67 L590,63 L591,65 L591,70 L591,80 L591,89 L590,97 L590,100 L590,99 L590,95 L591,87 L591,78 L592,68 L593,64 L594,65 L594,69 L594,78 L594,86 L594,91 L594,92 L594,89 L595,81 L596,72 L596,63 L596,60 L596,61 L596,63 L597,66 L597,69 L597,73 L597,78 L597,81 L597,83 L597,82 L597,81 L597,80 L596,80 L595,77 L595,72 L595,68 L595,66 L595,64 L596,64 L596,67 L596,72 L596,79 L595,86 L594,90 L594,91 L594,90 L594,87 L594,83 L594,78 L595,72 L596,66 L596,61 L596,58 L596,57 L596,58 L596,60 L596,62 L596,65 L596,67 L596,70 L596,74 L596,77 L596,79 L596,81 L596,83 L596,84 L596,85 L597,85 L597,83 L598,80 L598,76 L599,71 L599,68 L599,66 L599,67 L599,68 L599,70 L599,72 L599,74 L599,77 L599,78 L599,80 L599,82 L599,80 L599,78 L599,73 L599,67 L599,60 L600,53 L600,48 L601,46 L601,47 L601,50 L601,53 L600,57 L600,61 L600,66 L600,71 L600,77 L599,81 L599,83 L599,85 L600,85 L601,86 L601,87 L601,89 L602,90 L602,91 L602,90 L602,89 L601,86 L601,83 L601,79 L602,76 L602,75 L603,78 L603,81 L603,87 L603,93 L603,97 L604,100 L604,101 L604,100 L604,97 L604,92 L604,84 L604,75 L603,68 L603,69 L603,73 L603,78 L603,84 L603,92 L603,98 L603,99 L604,98 L604,92 L604,84 L604,75 L604,67 L604,63 L604,64 L605,68 L605,74 L606,82 L607,89 L607,93 L607,92 L607,89 L607,83 L608,77 L609,72 L610,68 L610,69 L610,72 L610,78 L611,84 L611,91 L611,96 L611,99 L611,100 L611,99 L611,94 L613,86 L614,79 L615,73 L615,71 L615,74 L615,79 L615,85 L615,92 L614,99 L614,103 L614,104 L615,102 L615,95 L616,89 L616,83 L616,79 L616,78 L616,80 L617,84 L617,90 L617,97 L617,104 L617,109 L617,108 L616,105 L616,98 L616,90 L616,83 L616,79 L617,78 L617,79 L617,83 L617,91 L616,100 L616,110 L615,117 L615,119 L615,118 L615,114 L616,107 L616,99 L616,92 L616,89 L616,90 L616,92 L616,98 L617,105 L617,111 L618,114 L618,112 L618,108 L619,102 L619,98 L619,96 L619,95 L619,96 L619,97 L618,97 L618,96 L618,95 L618,94 L618,93 L618,92 L618,91 L618,90 L618,93 L618,100 L618,110 L618,119 L618,122 L618,121 L618,116 L618,109 L618,99 L618,89 L618,83 L618,82 L618,83 L618,89 L618,97 L618,107 L618,118 L618,128 L618,137 L618,145 L618,152 L618,159 L618,168 L618,176 L619,180 L620,181 L620,180 L621,178 L621,172 L620,162 L619,147 L618,129 L618,115 L617,105 L617,97 L617,94 L617,95 L617,100 L618,109 L618,119 L618,130 L618,147 L619,163 L620,172 L621,176 L621,172 L620,162 L619,151 L618,139 L618,126 L618,118 L618,116 L618,117 L618,120 L619,127 L620,138 L621,152 L623,167 L623,176 L624,185 L625,194 L626,203 L627,210 L627,211 L627,210 L628,211 L628,209 L626,200 L625,189 L623,178 L623,172 L622,167 L621,160 L621,152 L621,146 L621,144 L621,143 L621,142 L621,141 L621,140 L621,141 L621,142 L621,144 L621,145 L621,146 L621,148 L621,150 L621,152 L622,153 L622,154 L622,155 L622,156 L622,158 L623,160 L623,161 L623,163 L623,165 L623,167 L623,171 L624,173 L624,176 L625,178 L625,179 L625,182 L625,187 L625,193 L625,198 L626,204 L626,209 L627,215 L628,222 L629,228 L630,232 L630,234 L630,233 L630,230 L630,224 L629,219 L629,213 L628,207 L628,201 L628,193 L628,186 L628,183 L628,180 L628,178 L628,175 L628,172 L628,170 L628,171 L628,173 L628,175 L628,177 L628,180 L628,182 L628,183 L628,185 L628,187 L628,188 L628,189 L628,190 L628,191 L628,192 L628,193 L628,194 L628,195 L628,197 L628,198 L628,199 L628,200 L628,201 L628,202 L628,203 L628,205 L628,206 L628,207 L628,209 L629,210 L629,213 L629,217 L630,220 L630,222 L630,224 L630,227 L629,230 L628,235 L628,241 L627,248 L626,254 L625,262 L625,271 L625,281 L625,290 L625,298 L625,306 L624,313 L624,317 L623,319 L623,320 L623,319 L623,318 L623,314 L623,308 L623,298 L625,286 L626,277 L626,269 L625,259 L624,246 L623,236 L622,229 L622,224 L622,221 L622,222 L622,225 L623,231 L623,239 L623,250 L623,263 L624,273 L624,283 L624,291 L624,298 L625,302 L626,304 L626,305 L626,299 L625,289 L625,274 L625,254 L625,237 L625,220 L625,205 L626,194 L626,188 L626,184 L626,189 L626,199 L626,210 L626,226 L626,247 L625,266 L624,280 L623,291 L624,296 L625,297 L626,293 L626,283 L627,270 L628,254 L630,236 L632,217 L633,197 L635,183 L636,178 L636,177 L636,178 L635,188 L634,200 L633,214 L631,232 L630,251 L630,267 L630,278 L630,288 L630,292 L629,293 L629,288 L629,278 L629,264 L629,247 L630,228 L631,210 L633,193 L634,183 L634,177 L634,173 L634,172 L634,171 L634,173 L633,182 L633,196 L633,214 L634,232 L635,244 L635,250 L635,253 L634,254 L634,250 L634,238 L635,222 L636,201 L637,182 L638,170 L638,161 L638,154 L638,153 L638,157 L638,167 L638,180 L638,195 L638,213 L639,229 L639,237 L639,239 L640,238 L640,234 L640,224 L641,210 L641,195 L640,181 L638,167 L637,156 L636,151 L636,152 L636,154 L637,162 L638,171 L639,181 L640,198 L641,215 L642,225 L643,228 L643,227 L643,225 L643,217 L642,206 L641,195 L640,182 L639,171 L638,164 L637,163 L638,169 L639,179 L640,191 L640,205 L641,216 L642,221 L643,222 L643,220 L644,215 L645,207 L645,197 L645,184 L645,167 L645,157 L645,154 L644,154 L644,155 L644,158 L645,166 L646,176 L647,186 L648,195 L649,206 L650,212 L652,215 L651,210 L651,202 L650,193 L650,180 L650,167 L650,158 L650,153 L650,149 L650,147 L650,149 L651,156 L651,168 L652,183 L654,202 L655,217 L656,223 L656,226 L657,226 L657,223 L656,213 L655,200 L654,183 L654,166 L653,155 L652,146 L652,141 L651,139 L651,141 L651,147 L651,156 L651,165 L651,177 L651,193 L651,206 L651,214 L652,217 L652,214 L652,206 L652,194 L652,179 L652,159 L650,139 L649,126 L648,116 L648,110 L647,109 L647,111 L647,117 L646,127 L645,138 L645,154 L643,173 L642,190 L641,203 L640,214 L640,222 L642,227 L643,229 L643,225 L643,217 L643,208 L643,197 L643,180 L644,163 L643,147 L642,131 L642,116 L642,107 L642,101 L643,97 L644,94 L644,93 L645,95 L645,101 L644,111 L643,122 L642,139 L641,161 L640,182 L640,201 L640,217 L640,224 L640,226 L641,226 L641,224 L641,218 L640,207 L640,191 L642,168 L644,139 L645,122 L645,109 L645,98 L645,88 L645,81 L645,80 L645,88 L645,102 L644,119 L643,141 L640,166 L639,187 L637,206 L636,222 L636,233 L637,237 L639,237 L640,232 L641,220 L643,207 L643,195 L644,180 L644,162 L643,143 L643,123 L643,112 L643,104 L643,97 L644,92 L644,90 L645,92 L645,97 L645,103 L645,112 L645,124 L644,144 L643,161 L643,172 L643,180 L643,184 L644,184 L645,182 L645,174 L645,162 L645,148 L646,131 L646,117 L646,111 L646,110 L646,115 L647,126 L647,139 L647,153 L648,163 L649,166 L650,166 L650,164 L650,156 L650,144 L650,134 L650,129 L650,130 L650,135 L650,144 L650,156 L650,169 L650,176 L651,175 L652,168 L653,157 L654,145 L655,136 L655,135 L656,136 L656,144 L657,154 L657,163 L657,170 L657,173 L658,171 L659,161 L659,149 L659,135 L658,130 L658,131 L658,136 L659,148 L660,161 L661,175 L661,184 L662,185 L662,183 L662,174 L662,163 L662,150 L662,136 L663,120 L663,104 L662,87 L662,73 L661,64 L661,59 L662,57 L662,59 L663,67 L663,78 L663,89 L663,103 L665,117 L666,130 L668,147 L669,162 L669,171 L670,178 L671,182 L671,181 L670,177 L670,171 L670,164 L670,155 L670,142 L670,127 L670,115 L670,106 L671,96 L672,85 L672,83 L672,85 L673,90 L674,96 L674,102 L674,109 L674,113 L674,114 L674,113 L674,111 L674,104 L674,95 L675,87 L675,83 L675,87 L675,95 L674,103 L674,110 L674,112 L674,111 L674,109 L674,102 L675,93 L677,85 L677,81 L677,84 L677,92 L676,100 L676,105 L676,107 L676,105 L677,99 L677,90 L678,80 L678,73 L678,72 L678,76 L678,83 L678,89 L678,94 L678,95 L678,94 L678,90 L678,83 L678,72 L679,58 L679,47 L679,39 L680,32 L682,26 L683,21 L683,19 L683,20 L683,21 L682,21 L682,22 L682,23 L682,25 L682,26 L682,28 L682,29 L682,31 L682,32 L682,33 L682,34 L682,35 L682,38 L682,42 L682,48 L682,55 L682,63 L682,72 L682,78 L682,82 L682,84 L682,85 L682,84 L682,83 L682,79 L683,71 L685,61 L687,48 L688,39 L689,34 L689,31 L689,29 L689,30 L688,35 L687,43 L686,51 L685,59 L684,66 L684,68 L684,66 L684,63 L684,58 L684,51 L685,45 L686,41 L686,40 L686,41 L686,44 L685,51 L684,59 L682,68 L680,72 L680,70 L680,64 L680,55 L680,45 L681,38 L681,37 L681,40 L682,48 L682,58 L682,66 L682,69 L682,68 L682,63 L684,54 L685,44 L687,38 L687,42 L687,51 L687,60 L687,67 L687,70 L687,68 L687,63 L688,56 L690,49 L691,46 L692,46 L692,48 L693,51 L693,56 L693,63 L692,73 L690,85 L689,95 L688,103 L688,107 L688,104 L689,96 L691,86 L692,74 L694,60 L696,46 L697,40 L697,39 L697,43 L696,50 L696,58 L694,67 L693,78 L692,86 L692,89 L692,88 L692,86 L692,78 L692,67 L692,55 L692,48 L693,51 L693,59 L693,69 L693,80 L692,91 L692,96 L692,97 L692,95 L694,89 L695,80 L696,69 L698,59 L699,56 L699,58 L699,61 L700,67 L701,73 L701,80 L701,88 L701,95 L702,96 L702,95 L703,89 L704,81 L705,74 L705,71 L705,73 L705,72 L705,71 L705,70 L705,68 L705,66 L706,64 L706,62 L707,61 L708,60 L708,59 L709,58 L709,57 L708,56 L707,56 L708,59 L708,63 L709,70 L709,76 L709,80 L709,81 L709,80 L709,76 L709,69 L709,62 L708,57 L707,57 L707,61 L705,68 L703,79 L700,88 L698,90 L697,90 L697,85 L697,75 L699,60 L699,48 L699,47 L698,51 L696,63 L694,75 L693,85 L692,92 L691,94 L691,88 L692,78 L693,66 L695,53 L696,47 L696,48 L696,56 L696,68 L697,81 L698,91 L700,97 L701,98 L704,94 L706,83 L707,70 L707,60 L707,57 L707,59 L707,68 L706,81 L706,93 L706,101 L706,99 L707,88 L707,75 L707,62 L707,59 L707,62 L708,71 L709,82 L709,88 L709,87 L710,83 L710,76 L711,70 L711,69 L712,70 L713,75 L714,80 L715,85 L715,89 L715,91 L715,92 L715,91 L715,87 L716,81 L716,76 L717,74 L718,73 L718,76 L718,82 L718,88 L718,95 L718,100 L718,103 L718,102 L718,101 L718,100 L718,98 L718,97 L718,95 L718,94 L718,92 L718,89 L718,83 L718,74 L718,63 L718,55 L717,47 L717,39 L716,31 L716,28 L716,27 L716,28 L718,31 L718,37 L719,45 L718,57 L716,72 L715,81 L715,86 L715,91 L716,95 L716,100 L716,105 L717,107 L717,106 L717,105 L717,103 L717,99 L718,92 L720,83 L721,77 L721,75 L721,78 L722,84 L722,94 L722,105 L721,114 L720,120 L720,122 L720,121 L720,119 L721,112 L722,102 L724,90 L726,77 L728,69 L729,66 L729,68 L729,71 L729,75 L729,79 L729,81 L730,82 L730,81 L730,80 L730,81 L730,82 L729,82 L729,83 L728,83 L728,84 L727,85 L727,86 L726,88 L725,91 L724,94 L723,97 L723,101 L723,103 L723,105 L723,106 L722,107 L722,108 L722,110 L722,112 L721,114 L721,116 L721,117 L721,118 L720,119 L720,121 L720,122 L720,123 L720,124 L719,125 L719,126 L719,127 L719,128 L719,129 L719,130 L718,131 L718,132 L718,133 L718,134 L717,136 L716,138 L716,140 L716,143 L715,145 L715,147 L715,148 L714,149 L714,151 L714,152 L714,154 L713,156 L712,158 L712,160 L711,162 L711,164 L711,166 L711,167 L711,168 L711,169 L711,170 L711,172 L711,173 L711,174 L711,176 L711,177 L711,178 L711,179 L711,180 L711,181 L711,183 L711,185 L711,187 L711,190 L711,192 L711,194 L711,196 L711,198 L711,201 L711,203 L710,205 L710,208 L710,210 L710,212 L710,213 L710,215 L710,216 L710,217 L710,218 L710,219 L710,220 L710,221 L710,222 L710,221 L710,220 L711,218 L711,217 L711,215 L712,212 L713,210 L713,208 L714,206 L714,205 L715,203 L715,202 L716,200 L716,199 L716,197 L717,194 L718,191 L718,189 L719,186 L719,183 L720,178 L721,172 L721,168 L721,163 L721,159 L722,154 L723,149 L724,145 L724,141 L725,138 L726,133 L728,127 L730,122 L731,118 L732,115 L732,114 L732,115 L731,117 L731,119 L730,124 L729,132 L728,140 L728,149 L727,154 L727,158 L726,163 L726,168 L726,169 L726,170 L726,169 L726,165 L728,158 L730,146 L732,132 L735,123 L735,120 L735,121 L735,122 L735,128 L733,135 L732,144 L731,154 L731,161 L730,166 L730,168 L729,163 L729,154 L730,143 L730,134 L730,132 L730,134 L730,139 L730,149 L730,160 L730,171 L730,177 L730,178 L730,177 L728,173 L728,165 L728,156 L728,150 L728,149 L728,152 L729,157 L729,163 L729,171 L730,178 L730,185 L731,191 L731,198 L732,205 L732,212 L732,217 L732,224 L733,232 L733,238 L733,244 L734,250 L734,255 L735,261 L735,266 L734,271 L733,275 L733,279 L733,284 L732,289 L732,294 L731,298 L731,300 L731,304 L731,307 L731,310 L731,312 L731,311 L730,311 L730,310 L729,308 L729,305 L728,303 L728,301 L728,299 L728,297 L728,295 L728,293 L728,290 L728,288 L728,286 L728,284 L728,282 L727,280 L727,278 L727,275 L726,273 L726,271 L726,269 L726,267 L726,266 L725,264 L725,263 L725,261 L724,261 L724,259 L724,258 L724,257 L724,256 L724,255 L724,254 L724,252 L724,251 L724,250 L724,249 L724,247 L724,246 L724,244 L724,242 L724,241 L724,239 L724,238 L724,236 L724,234 L724,232 L724,230 L724,228 L724,226 L724,223 L724,220 L724,217 L724,214 L724,212 L724,209 L724,207 L723,205 L723,204 L723,202 L723,201 L723,200 L723,199 L724,197 L724,195 L724,193 L725,191 L725,190 L725,189 L725,188 L725,187 L725,186 L725,185 L725,184 L725,183 L725,182 L725,180 L725,179 L725,178 L725,176 L724,175 L724,174 L724,173 L724,172 L724,171 L724,170 L724,169 L724,168 L725,167 L725,166 L725,164 L725,163 L725,161 L725,158 L726,155 L726,152 L727,150 L727,149 L727,150 L727,151 L728,154 L728,160 L729,170 L729,180 L729,189 L729,196 L729,203 L728,207 L728,206 L728,199 L728,185 L729,166 L730,145 L731,137 L731,138 L731,141 L732,155 L732,171 L732,187 L732,199 L732,206 L733,206 L733,203 L733,190 L733,175 L734,157 L736,149 L737,149 L738,153 L738,162 L738,173 L738,183 L738,193 L739,200 L740,200 L740,195 L740,181 L740,161 L743,140 L745,129 L745,138 L744,152 L742,165 L741,177 L740,183 L740,178 L739,165 L739,148 L739,130 L740,124 L740,126 L742,132 L742,144 L742,155 L742,166 L743,172 L743,173 L743,170 L744,156 L744,139 L745,118 L747,109 L748,109 L749,112 L750,123 L750,136 L749,151 L748,166 L747,172 L748,172 L748,163 L748,148 L748,129 L748,108 L748,100 L749,101 L749,108 L749,123 L749,139 L749,155 L748,163 L748,165 L748,161 L748,148 L749,130 L748,108 L748,93 L748,91 L749,93 L750,104 L750,117 L750,131 L749,139 L748,141 L748,139 L749,127 L750,110 L752,90 L753,79 L755,77 L755,78 L755,83 L755,90 L755,95 L755,97 L755,100 L754,103 L754,107 L753,110 L754,114 L755,119 L755,123 L755,124 L756,121 L757,112 L758,100 L760,88 L761,77 L762,72 L762,71 L762,72 L761,78 L760,86 L759,94 L758,102 L758,108 L758,109 L758,108 L756,103 L756,94 L756,80 L757,64 L758,51 L759,46 L759,44 L758,45 L758,53 L757,64 L756,75 L756,87 L756,95 L756,97 L756,96 L756,93 L756,84 L756,70 L757,54 L757,47 L758,47 L758,50 L759,58 L759,69 L760,81 L760,90 L759,92 L759,90 L759,83 L759,71 L759,57 L759,41 L760,29 L761,24 L761,25 L762,31 L762,42 L763,53 L763,64 L764,72 L765,75 L765,73 L765,65 L766,52 L767,38 L768,27 L769,24 L770,27 L770,38 L769,51 L768,61 L767,66 L767,64 L768,57 L769,45 L770,30 L770,17 L772,13 L772,16 L772,24 L771,34 L770,45 L768,51 L767,53 L767,52 L767,49 L767,41 L768,29 L769,17 L770,10 L771,9 L771,11 L771,17 L771,27 L770,36 L769,45 L767,50 L767,51 L767,50 L767,46 L769,39 L770,28 L772,17 L773,12 L774,13 L774,20 L773,31 L772,42 L770,50 L770,52 L770,51 L771,44 L773,32 L775,18 L777,8 L777,5 L778,6 L778,12 L778,22 L777,33 L774,44 L772,51 L773,48 L775,39 L777,27 L778,16 L780,9 L781,9 L781,12 L781,22 L780,33 L779,42 L778,48 L777,50 L777,49 L778,43 L780,34 L780,23 L780,12 L780,4 L780,6 L780,10 L780,18 L780,26 L779,35 L778,41 L778,43 L778,42 L778,41 L778,35 L780,26 L780,17 L781,11 L781,10 L781,14 L781,25 L781,38 L780,51 L779,60 L779,62 L779,60 L779,52 L780,40 L781,26 L782,13 L783,7 L783,9 L783,14 L783,25 L783,36 L782,45 L782,52 L782,53 L782,52 L784,47 L785,37 L786,27 L787,17 L787,15 L787,17 L787,25 L788,37 L788,49 L787,59 L787,63 L787,56 L789,44 L789,29 L789,14 L789,9 L789,10 L791,17 L791,27 L791,40 L789,54 L787,64 L786,66 L787,62 L789,52 L791,39 L792,26 L793,16 L794,15 L794,21 L794,34 L793,48 L791,60 L790,64 L790,63 L791,58 L794,48 L797,37 L799,26 L802,23 L803,23 L804,27 L805,36 L805,47 L804,59 L803,70 L802,76 L802,75 L802,72 L802,64 L801,53 L800,40 L800,27 L802,22 L802,23 L802,25 L802,35 L801,46 L799,57 L798,69 L797,75 L797,76 L797,74 L798,68 L799,59 L800,49 L801,42 L802,39 L802,40 L803,41 L803,42 L803,43 L804,44 L804,45 L804,46 L804,48 L804,50 L804,52 L804,55 L804,58 L804,60 L804,63 L804,66 L804,68 L804,70 L804,71 L804,72 L804,73 L804,74 L804,75 L804,76 L804,78 L804,80 L804,81 L804,83 L804,85 L804,89 L802,93 L802,95 L802,96 L802,95 L802,91 L803,82 L804,70 L805,56 L806,46 L806,42 L806,41 L806,45 L805,54 L804,63 L803,73 L803,80 L803,82 L803,81 L804,76 L805,66 L805,56 L806,46 L806,42 L806,43 L806,51 L806,63 L806,76 L805,88 L804,91 L804,92 L805,91 L805,86 L806,77 L806,65 L807,53 L808,47 L808,49 L808,56 L807,66 L806,78 L804,90 L803,98 L803,101 L803,102 L804,104 L804,102 L806,95 L807,85 L809,75 L809,71 L809,72 L809,75 L809,83 L808,91 L806,101 L805,111 L804,117 L804,120 L804,119 L804,118 L804,112 L804,104 L806,94 L808,81 L811,74 L811,76 L811,82 L810,88 L809,95 L809,102 L807,112 L806,121 L805,126 L805,130 L806,135 L806,141 L806,146 L806,147 L806,146 L806,145 L806,144 L806,142 L805,138 L805,133 L805,127 L806,119 L806,110 L809,101 L811,94 L813,89 L814,88 L814,87 L814,88 L814,90 L814,94 L813,100 L812,107 L811,116 L810,124 L809,129 L808,133 L807,136 L807,137 L807,138 L807,136 L806,132 L806,125 L806,119 L807,112 L807,106 L807,102 L806,99 L806,97 L806,98 L807,100 L808,102 L808,105 L808,110 L809,114 L809,119 L810,122 L811,125 L811,130 L811,134 L811,138 L811,140 L812,141 L812,144 L812,146 L812,149 L812,151 L812,152 L812,153 L812,154 L812,156 L812,158 L812,160 L812,162 L812,163 L812,165 L812,167 L812,169 L812,171 L812,173 L812,174 L812,175 L812,176 L812,177 L812,178 L812,179 L812,180 L812,181 L812,182 L812,183 L812,185 L812,188 L812,191 L811,194 L811,195 L811,194 L811,193 L811,188 L812,181 L813,172 L814,163 L815,152 L818,141 L819,132 L821,128 L821,129 L820,135 L819,142 L819,149 L818,158 L817,169 L816,180 L816,185 L816,186 L816,185 L815,183 L814,175 L814,164 L814,151 L814,137 L814,130 L812,129 L811,131 L810,139 L809,149 L808,161 L807,174 L808,182 L809,186 L809,188 L809,187 L810,180 L811,168 L813,151 L815,134 L816,128 L816,127 L816,128 L816,130 L815,138 L814,151 L813,165 L812,178 L811,184 L812,184 L812,183 L812,180 L812,171 L812,158 L814,139 L816,124 L817,117 L818,115 L818,116 L816,125 L816,136 L815,147 L815,157 L815,162 L816,162 L816,160 L816,152 L816,139 L816,123 L818,111 L818,109 L819,112 L819,124 L819,138 L818,154 L816,166 L816,175 L816,179 L816,180 L816,181 L816,176 L816,163 L817,144 L818,123 L818,109 L818,107 L818,108 L818,116 L818,132 L817,150 L816,171 L816,183 L818,186 L818,184 L819,173 L819,157 L821,138 L824,129 L826,130 L827,139 L827,151 L826,163 L824,176 L824,183 L824,185 L824,182 L825,169 L827,155 L828,145 L829,145 L830,149 L831,156 L831,164 L832,171 L832,178 L831,185 L831,190 L830,193 L830,196 L831,202 L831,207 L831,213 L831,217 L832,220 L833,224 L833,229 L833,235 L833,240 L833,244 L833,247 L833,251 L832,258 L831,265 L830,269 L830,273 L829,277 L829,281 L828,286 L828,291 L828,295 L828,298 L828,300 L828,302 L828,305 L828,309 L828,312 L828,313 L828,315 L828,317 L828,320 L827,323 L827,326 L826,329 L826,332 L825,335 L825,339 L824,344 L824,349 L824,352 L824,354 L824,357 L824,361 L824,364 L824,366 L824,365 L823,364 L822,362 L821,360 L820,357 L819,354 L819,349 L818,345 L818,341 L818,337 L818,335 L818,332 L818,330 L818,327 L818,325 L818,323 L818,321 L818,320 L818,317 L818,313 L818,310 L818,306 L818,304 L818,301 L818,298 L818,295 L818,293 L818,291 L818,290 L818,288 L818,286 L818,283 L818,281 L818,278 L818,276 L817,274 L817,272 L817,269 L817,267 L817,265 L817,263 L817,261 L817,258 L817,255 L817,253 L817,251 L817,247 L817,243 L818,239 L818,234 L818,230 L819,225 L819,219 L820,212 L820,207 L820,202 L820,198 L820,195 L820,196 L821,201 L821,207 L823,217 L824,233 L824,251 L824,268 L822,283 L821,298 L820,309 L819,315 L819,316 L819,315 L819,307 L819,293 L819,272 L821,244 L824,220 L828,203 L830,195 L830,193 L828,199 L826,212 L824,227 L821,242 L820,252 L820,254 L820,253 L820,246 L820,230 L822,208 L825,189 L829,182 L831,181 L832,185 L833,196 L833,209 L831,224 L827,238 L825,243 L825,242 L824,234 L823,220 L822,201 L822,179 L825,167 L826,165 L826,166 L826,176 L825,190 L823,207 L820,225 L818,238 L816,242 L816,235 L817,219 L818,200 L819,180 L822,167 L825,166 L827,169 L829,181 L829,195 L828,211 L826,227 L824,239 L822,242 L822,241 L822,231 L822,215 L823,195 L826,176 L830,169 L833,170 L835,176 L836,190 L836,205 L835,222 L833,237 L831,242 L830,240 L829,232 L829,215 L829,198 L831,180 L833,170 L834,168 L834,169 L835,175 L835,187 L835,200 L835,215 L834,227 L834,233 L834,230 L833,220 L833,205 L833,187 L835,173 L837,170 L838,172 L839,181 L841,195 L841,210 L839,225 L838,238 L837,243 L837,242 L836,237 L836,224 L836,210 L837,195 L839,188 L841,188 L842,197 L843,212 L843,226 L841,239 L839,246 L839,247 L839,246 L839,243 L839,234 L841,219 L843,198 L846,178 L849,172 L850,172 L850,177 L850,187 L848,198 L847,210 L845,221 L844,223 L843,219 L843,206 L842,186 L843,162 L845,146 L848,142 L848,143 L849,151 L849,164 L849,179 L848,194 L847,204 L846,209 L845,207 L844,201 L843,188 L843,170 L842,150 L843,137 L845,136 L847,139 L849,151 L851,165 L851,177 L850,188 L849,193 L848,189 L848,177 L848,161 L848,141 L850,125 L852,119 L854,118 L856,123 L858,135 L859,149 L858,163 L857,172 L855,176 L854,170 L853,156 L852,137 L851,119 L853,108 L853,106 L854,112 L855,125 L855,139 L855,151 L855,157 L855,154 L854,146 L854,132 L853,115 L854,100 L855,96 L856,97 L858,105 L860,118 L862,130 L862,140 L861,146 L860,147 L860,143 L860,132 L859,117 L858,98 L858,88 L859,88 L862,93 L865,105 L867,117 L868,127 L866,132 L865,133 L865,128 L864,117 L864,101 L863,83 L863,76 L865,77 L866,87 L867,100 L867,111 L864,118 L862,119 L861,118 L860,108 L860,93 L860,75 L862,66 L863,66 L863,68 L863,78 L862,89 L860,99 L859,102 L858,100 L859,92 L861,79 L863,64 L865,57 L865,63 L865,74 L865,85 L863,91 L862,92 L862,87 L863,75 L865,61 L865,51 L865,50 L866,57 L867,67 L868,75 L868,78 L868,73 L868,63 L868,52 L868,48 L868,52 L869,64 L869,74 L869,83 L869,85 L869,83 L870,72 L870,58 L868,45 L868,40 L868,42 L869,52 L870,62 L870,70 L870,73 L869,73 L869,67 L869,55 L869,41 L869,32 L870,34 L872,43 L873,53 L873,61 L872,64 L871,63 L871,57 L871,45 L871,32 L871,27 L871,29 L872,36 L872,42 L872,46 L872,48 L871,48 L871,47 L871,48 L872,48 L873,48 L873,49 L873,50 L874,51 L875,52 L875,53 L876,56 L877,59 L878,61 L879,63 L879,64 L880,65 L880,64 L879,63 L879,62 L879,61 L880,61 L880,60 L880,57 L881,54 L882,49 L883,44 L883,39 L884,36 L884,33 L883,31 L883,30 L883,31 L883,33 L884,37 L885,41 L885,44 L885,46 L885,44 L885,38 L885,30 L885,24 L886,22 L886,24 L887,29 L887,34 L887,39 L886,43 L886,48 L886,51 L886,52 L887,53 L888,53 L889,55 L889,54 L889,53 L889,52 L889,50 L889,48 L890,46 L890,44 L890,42 L890,40 L890,39 L890,36 L890,34 L890,32 L890,29 L891,27 L892,24 L892,22 L893,19 L894,18 L894,16 L894,14 L894,11 L894,8 L894,5 L894,2 L895,0 L895,1 L895,2 L896,3 L896,4 L897,5 L897,7 L897,9 L897,11 L897,14 L897,18 L896,24 L895,32 L894,40 L892,47 L891,51 L891,53 L891,52 L891,50 L891,44 L892,35 L895,24 L897,12 L898,6 L898,4 L898,5 L897,11 L896,19 L895,29 L893,40 L892,48 L892,53 L892,54 L892,53 L894,46 L896,34 L898,19 L900,11 L900,12 L900,15 L899,24 L897,36 L895,49 L894,57 L893,59 L893,58 L893,56 L893,48 L893,34 L893,18 L894,9 L895,9 L895,12 L895,22 L894,33 L893,44 L891,52 L890,57 L889,58 L889,57 L889,55 L890,48 L892,41 L893,35 L894,34 L895,39 L895,48 L893,57 L892,63 L891,68 L891,66 L892,60 L893,51 L895,39 L897,33 L897,34 L898,37 L898,46 L898,54 L897,63 L895,70 L895,73 L895,69 L897,61 L898,49 L901,39 L903,36 L904,37 L904,42 L904,50 L904,58 L903,64 L902,66 L902,65 L903,58 L905,48 L906,41 L907,41 L907,46 L907,55 L907,64 L905,71 L904,75 L904,74 L905,69 L907,61 L908,53 L909,52 L909,54 L909,61 L908,68 L907,74 L907,76 L907,71 L909,61 L910,49 L911,45 L911,47 L911,55 L911,64 L910,72 L909,77 L909,73 L910,62 L912,48 L912,41 L913,39 L913,41 L912,45 L911,51 L909,56 L909,60 L909,62 L909,61 L909,57 L909,51 L909,47 L909,44 L908,44 L907,44 L907,46 L906,49 L905,52 L904,56 L903,60 L903,61 L903,60 L903,59 L903,56 L904,53 L904,49 L905,47 L905,46 L904,46 L903,48 L902,53 L900,60 L898,66 L897,70 L897,72 L897,73 L897,74 L897,75 L897,77 L897,79 L897,81 L897,83 L896,85 L896,87 L896,89 L896,90 L896,92 L896,93 L896,95 L896,97 L895,102 L895,106 L894,111 L894,117 L893,122 L893,124 L893,123 L893,118 L893,113 L894,108 L895,102 L895,96 L895,90 L895,86 L895,84 L895,83 L895,82 L894,78 L894,73 L895,71 L895,75 L896,80 L897,85 L897,93 L896,102 L895,109 L895,114 L895,117 L895,119 L895,114 L895,103 L895,90 L895,80 L894,77 L894,78 L894,81 L895,90 L895,103 L895,120 L893,136 L892,145 L891,149 L890,151 L890,149 L891,140 L891,126 L892,110 L894,97 L896,91 L897,91 L898,91 L898,92 L899,99 L899,108 L899,119 L899,131 L899,142 L899,151 L899,160 L899,170 L899,179 L899,187 L900,192 L900,194 L901,194 L902,194 L902,191 L902,185 L901,177 L901,167 L901,157 L902,148 L903,141 L904,134 L905,131 L905,133 L905,138 L905,144 L906,151 L906,160 L906,171 L905,181 L905,186 L905,189 L906,190 L907,190 L908,190 L908,185 L908,177 L908,165 L909,149 L909,135 L909,122 L909,111 L909,102 L908,96 L907,94 L906,94 L906,95 L906,96 L906,100 L907,107 L907,115 L907,125 L907,139 L907,153 L906,165 L906,176 L905,186 L905,194 L905,200 L904,204 L904,207 L904,210 L903,212 L903,210 L903,204 L903,195 L904,185 L906,174 L907,168 L908,168 L908,170 L908,175 L908,181 L908,190 L908,200 L908,209 L909,217 L909,226 L910,234 L911,241 L911,245 L911,246 L909,244 L908,237 L906,224 L904,206 L904,190 L903,180 L903,174 L903,172 L903,173 L903,180 L903,190 L904,202 L904,215 L905,227 L906,238 L906,249 L905,260 L905,267 L904,269 L904,268 L904,264 L904,254 L904,242 L904,228 L905,218 L905,215 L905,216 L905,217 L906,224 L907,234 L907,245 L907,257 L906,264 L906,265 L906,264 L906,258 L906,246 L907,231 L909,214 L912,206 L915,205 L917,208 L918,219 L919,233 L917,249 L915,262 L912,272 L910,276 L910,274 L910,266 L912,253 L914,238 L917,224 L920,216 L921,216 L921,220 L921,231 L920,242 L917,254 L914,262 L912,264 L911,260 L911,248 L911,232 L912,215 L914,207 L915,207 L916,210 L917,217 L917,224 L916,233 L915,241 L914,244 L914,242 L916,235 L917,224 L919,215 L921,210 L922,211 L923,214 L924,221 L924,230 L924,242 L922,251 L922,254 L922,252 L923,243 L925,226 L926,206 L929,191 L931,185 L932,184 L932,187 L931,196 L929,209 L927,222 L925,234 L924,240 L924,233 L926,218 L927,199 L930,173 L933,159" fill="none" stroke="red" stroke-width="3"/></svg>