<svg xmlns="http://www.w3.org/2000/svg" version="1.1" xmlns:xlink="http://www.w3.org/1999/xlink" xmlns:svgjs="http://svgjs.dev/svgjs" width="950" height="375" id="chartSvg"><path d="M14,258 L13,259 L12,263 L12,264 L12,263 L10,259 L9,254 L7,244 L6,231 L6,224 L7,222 L7,223 L8,226 L9,234 L9,244 L11,256 L12,266 L13,270 L13,269 L13,264 L13,251 L12,233 L12,209 L13,194 L14,190 L14,192 L14,200 L14,214 L13,229 L12,245 L12,263 L13,278 L13,286 L14,289 L14,288 L14,282 L14,270 L13,253 L12,230 L13,207 L15,194 L15,192 L15,193 L16,199 L16,209 L16,222 L16,238 L17,255 L18,268 L19,275 L19,276 L20,275 L20,271 L20,263 L20,251 L20,234 L21,213 L22,198 L23,193 L24,194 L24,200 L24,210 L24,223 L24,241 L25,261 L26,275 L27,282 L27,283 L28,283 L29,281 L29,274 L28,264 L28,247 L27,225 L28,209 L29,200 L29,198 L29,200 L29,209 L30,222 L31,238 L32,256 L34,268 L35,275 L36,279 L36,280 L37,280 L38,276 L38,266 L36,249 L36,228 L36,207 L36,194 L36,187 L36,185 L36,192 L36,205 L36,222 L37,241 L38,258 L39,268 L39,270 L39,269 L39,263 L39,250 L39,234 L39,216 L41,206 L41,203 L41,205 L41,215 L41,227 L41,238 L41,242 L42,235 L42,224 L43,206 L45,189 L47,184 L48,186 L48,196 L48,210 L48,229 L50,251 L52,269 L55,282 L58,291 L61,295 L64,297 L67,300 L68,301 L69,301 L68,301 L67,295 L64,283 L62,268 L62,249 L62,230 L63,213 L64,202 L64,200 L65,204 L66,217 L66,236 L67,256 L69,271 L71,278 L73,279 L75,277 L75,267 L73,247 L71,220 L71,195 L71,177 L71,164 L72,158 L72,157 L72,159 L72,168 L73,180 L74,195 L77,215 L80,236 L84,258 L88,280 L90,297 L90,303 L90,304 L90,302 L90,293 L88,278 L86,261 L86,239 L86,219 L87,207 L87,203 L87,206 L87,215 L88,227 L88,240 L89,253 L89,259 L90,260 L90,259 L89,254 L88,241 L86,224 L86,212 L86,210 L86,212 L85,219 L85,228 L84,239 L85,251 L86,259 L87,262 L87,261 L88,261 L88,257 L88,247 L87,235 L87,222 L87,211 L88,202 L88,192 L89,180 L90,169 L91,160 L91,152 L91,146 L91,142 L91,139 L91,135 L91,131 L92,121 L94,116 L95,115 L94,117 L94,121 L93,130 L92,143 L91,168 L90,198 L90,218 L91,237 L92,256 L93,267 L95,276 L96,283 L97,289 L98,291 L97,287 L96,276 L95,259 L95,241 L96,216 L97,194 L100,185 L99,190 L98,202 L97,214 L96,227 L98,237 L100,242 L101,242 L101,237 L101,224 L101,207 L101,195 L101,192 L101,195 L101,203 L102,217 L102,237 L104,259 L106,274 L106,276 L107,273 L106,264 L105,247 L105,233 L107,224 L108,223 L109,225 L110,232 L110,243 L112,256 L114,268 L116,270 L117,267 L117,258 L116,241 L115,221 L115,203 L115,186 L115,173 L115,159 L115,147 L115,142 L115,140 L115,139 L114,139 L113,139 L112,139 L112,140 L112,141 L112,143 L113,150 L114,166 L114,182 L114,196 L114,209 L115,223 L116,238 L117,252 L118,261 L120,268 L122,271 L123,271 L124,269 L124,262 L123,249 L123,231 L122,207 L124,184 L125,166 L127,151 L129,145 L129,144 L131,148 L131,161 L132,179 L131,205 L131,237 L131,261 L131,274 L131,280 L131,281 L131,277 L131,266 L130,248 L130,224 L131,201 L132,186 L132,176 L132,171 L133,171 L133,172 L134,180 L135,197 L136,218 L139,243 L141,264 L143,276 L143,278 L143,274 L141,262 L141,244 L140,224 L141,203 L142,191 L142,186 L142,185 L141,186 L141,191 L142,201 L143,214 L144,226 L145,234 L146,238 L146,241 L147,242 L147,239 L147,230 L146,218 L147,206 L148,200 L149,202 L149,207 L151,218 L151,230 L153,241 L154,244 L154,242 L154,236 L155,229 L156,223 L157,222 L158,224 L159,232 L160,242 L161,251 L163,256 L164,258 L164,259 L165,257 L163,249 L161,235 L159,220 L159,210 L159,207 L159,212 L159,221 L160,234 L160,250 L160,259 L160,260 L160,259 L160,256 L158,247 L156,236 L156,224 L155,214 L155,209 L154,210 L154,214 L154,222 L155,231 L156,239 L156,243 L156,242 L156,240 L156,236 L156,229 L156,221 L157,214 L158,212 L158,213 L158,215 L158,220 L158,227 L158,237 L158,244 L158,246 L158,245 L158,242 L158,235 L158,228 L159,222 L159,219 L160,219 L160,223 L160,230 L160,239 L161,249 L161,259 L161,264 L161,261 L160,257 L159,249 L158,238 L157,224 L157,211 L156,198 L156,184 L156,169 L156,158 L156,152 L156,149 L156,148 L155,146 L155,144 L154,142 L154,143 L155,144 L156,148 L157,155 L158,163 L158,171 L158,175 L159,181 L160,189 L160,197 L160,207 L160,213 L160,217 L160,218 L161,219 L162,221 L163,223 L163,224 L163,222 L163,214 L163,200 L163,188 L164,181 L164,180 L165,181 L165,186 L165,198 L165,213 L166,229 L166,239 L167,244 L167,245 L167,244 L166,240 L164,231 L163,216 L163,198 L164,184 L164,177 L165,174 L166,178 L167,189 L168,203 L169,218 L169,227 L169,229 L169,228 L169,225 L168,217 L168,205 L169,198 L170,198 L171,203 L171,212 L170,221 L169,226 L169,222 L169,211 L169,195 L170,177 L172,163 L173,154 L173,147 L171,143 L171,141 L171,144 L171,151 L171,159 L171,167 L173,178 L174,194 L174,212 L174,230 L174,239 L175,241 L175,240 L176,239 L176,232 L177,220 L178,204 L180,187 L182,172 L182,157 L183,143 L185,132 L186,127 L186,126 L186,127 L186,132 L186,140 L186,153 L186,169 L186,190 L187,212 L188,230 L188,242 L190,249 L191,251 L191,246 L191,236 L190,222 L189,205 L188,188 L188,175 L188,163 L188,154 L188,148 L190,145 L190,146 L190,149 L190,154 L189,160 L188,167 L187,178 L186,192 L184,205 L184,213 L184,220 L184,226 L184,227 L184,228 L184,227 L184,226 L184,224 L184,220 L184,210 L186,198 L188,186 L189,181 L190,179 L190,180 L190,182 L190,187 L190,193 L190,198 L191,201 L192,202 L192,201 L192,200 L192,196 L193,190 L193,183 L194,179 L194,178 L194,180 L194,186 L194,194 L194,201 L194,204 L194,205 L194,202 L195,198 L195,195 L196,192 L197,195 L198,199 L199,205 L201,215 L201,226 L201,233 L201,237 L202,240 L203,245 L204,252 L205,258 L205,260 L205,259 L205,260 L205,261 L205,264 L207,266 L208,270 L209,272 L210,273 L210,274 L211,275 L212,276 L213,276 L212,276 L211,275 L210,273 L209,268 L208,260 L207,251 L207,246 L207,241 L206,234 L205,228 L205,223 L204,219 L203,214 L203,209 L203,205 L203,200 L203,194 L203,187 L203,179 L204,171 L205,166 L205,161 L206,154 L206,146 L208,136 L211,128 L213,122 L214,119 L214,120 L214,122 L214,128 L213,135 L212,143 L212,151 L211,160 L210,171 L210,185 L209,196 L209,202 L210,207 L212,214 L213,221 L214,226 L215,229 L215,230 L216,231 L216,232 L216,231 L215,226 L215,218 L215,207 L215,196 L216,190 L217,189 L217,190 L217,192 L217,197 L217,203 L218,208 L218,212 L219,210 L219,207 L219,201 L220,195 L220,192 L221,191 L222,193 L222,198 L224,206 L224,215 L225,223 L226,227 L226,226 L226,223 L226,216 L225,206 L225,194 L226,188 L227,187 L227,188 L227,190 L227,195 L228,202 L229,211 L230,218 L231,220 L231,217 L231,210 L231,200 L231,193 L232,191 L233,193 L234,198 L235,205 L235,213 L236,219 L237,221 L238,221 L239,222 L240,224 L241,224 L241,222 L241,218 L240,213 L240,209 L240,205 L239,200 L239,194 L239,186 L239,179 L239,174 L239,171 L239,168 L239,164 L239,158 L239,151 L239,146 L240,143 L240,140 L240,137 L240,136 L240,137 L240,141 L240,147 L239,155 L239,166 L239,184 L239,202 L239,216 L239,230 L240,241 L242,246 L242,242 L242,233 L241,221 L240,205 L239,185 L240,171 L241,163 L241,158 L241,157 L240,158 L240,165 L239,176 L239,188 L239,201 L240,216 L240,230 L240,241 L240,249 L239,254 L239,255 L239,254 L239,250 L238,241 L237,228 L237,209 L239,193 L241,185 L242,182 L242,185 L242,193 L242,206 L242,221 L241,236 L241,245 L241,250 L241,252 L241,251 L241,243 L240,229 L241,212 L243,195 L244,185 L245,178 L246,177 L246,179 L246,186 L247,196 L246,209 L246,224 L246,240 L245,253 L244,260 L244,263 L245,263 L246,263 L246,261 L246,254 L245,243 L245,226 L245,204 L246,185 L248,171 L249,165 L249,163 L249,164 L249,166 L249,171 L249,178 L248,188 L248,201 L248,221 L248,238 L249,251 L248,259 L248,264 L249,261 L249,251 L249,236 L250,217 L251,204 L253,201 L253,202 L254,207 L255,217 L256,231 L258,246 L259,254 L259,255 L259,254 L259,251 L259,242 L259,229 L260,211 L262,194 L264,185 L265,183 L265,185 L266,193 L266,205 L267,222 L268,241 L268,258 L269,266 L269,267 L268,263 L267,251 L267,237 L267,221 L268,209 L269,207 L269,210 L269,219 L269,231 L269,242 L269,249 L269,246 L268,240 L268,229 L268,215 L268,201 L269,193 L270,192 L270,193 L271,195 L272,201 L273,212 L273,229 L273,248 L273,264 L272,281 L272,296 L273,307 L273,315 L273,319 L274,320 L274,319 L274,314 L274,305 L274,295 L275,281 L276,265 L277,247 L277,230 L277,214 L277,198 L277,184 L278,170 L279,159 L280,150 L281,143 L282,139 L282,135 L282,134 L281,134 L280,134 L280,136 L280,141 L278,153 L278,164 L278,173 L278,182 L280,194 L281,207 L281,221 L279,232 L279,241 L279,247 L279,249 L279,247 L278,245 L276,242 L275,238 L274,233 L273,224 L273,212 L273,202 L274,197 L275,196 L275,197 L276,198 L277,203 L277,212 L278,222 L279,237 L280,249 L280,254 L281,258 L282,259 L282,257 L282,249 L281,236 L281,219 L282,203 L283,197 L284,198 L284,200 L285,208 L285,218 L285,227 L285,236 L285,242 L285,243 L285,242 L285,239 L285,233 L285,224 L285,216 L285,211 L286,211 L286,212 L286,213 L286,215 L286,218 L286,223 L286,227 L286,231 L286,233 L286,234 L286,235 L286,234 L286,233 L286,232 L285,229 L285,226 L285,222 L286,220 L286,217 L287,218 L288,220 L289,225 L290,232 L291,239 L292,243 L292,244 L292,245 L292,244 L292,242 L292,241 L291,240 L291,239 L291,238 L290,232 L290,223 L290,216 L290,215 L290,216 L291,219 L291,224 L292,230 L292,237 L293,244 L293,247 L293,243 L292,234 L291,223 L291,212 L291,207 L292,207 L293,209 L294,213 L296,223 L299,234 L302,244 L303,247 L303,248 L303,246 L301,244 L299,240 L297,235 L295,226 L295,216 L295,210 L294,206 L293,203 L295,207 L298,215 L300,222 L301,229 L302,234 L302,238 L302,237 L301,234 L300,224 L299,211 L300,200 L301,197 L303,198 L303,202 L305,210 L305,221 L305,234 L305,243 L305,247 L305,246 L305,241 L303,229 L300,216 L300,202 L300,196 L301,196 L301,200 L301,209 L299,221 L298,234 L297,245 L297,247 L297,246 L297,242 L297,233 L296,224 L297,216 L298,211 L299,210 L298,211 L297,212 L296,215 L295,222 L295,229 L295,236 L296,240 L297,242 L297,241 L295,233 L294,221 L293,207 L293,203 L293,205 L293,214 L293,227 L293,240 L292,252 L291,259 L291,260 L291,255 L289,243 L288,227 L288,211 L290,206 L290,207 L290,214 L290,224 L290,235 L290,246 L290,249 L290,248 L291,242 L292,233 L294,224 L297,219 L298,218 L299,219 L300,222 L301,227 L302,234 L303,239 L303,237 L303,234 L303,231 L303,229 L302,227 L302,224 L302,220 L302,212 L302,202 L302,191 L303,178 L303,164 L305,152 L305,144 L305,138 L306,135 L306,136 L306,137 L306,139 L306,142 L306,143 L306,145 L306,146 L307,147 L307,150 L307,153 L307,155 L307,156 L307,157 L307,158 L307,159 L307,160 L308,160 L308,159 L308,160 L307,163 L306,168 L305,172 L305,174 L305,177 L305,181 L305,186 L305,192 L304,196 L304,198 L303,200 L303,203 L303,207 L303,210 L303,212 L304,212 L304,211 L305,210 L306,209 L308,205 L309,200 L310,195 L311,190 L313,186 L313,181 L314,176 L315,170 L316,165 L317,158 L317,152 L319,146 L320,141 L321,137 L322,134 L322,130 L322,127 L322,125 L322,126 L322,127 L321,129 L320,133 L318,137 L317,141 L317,145 L316,149 L316,152 L317,154 L317,157 L317,161 L317,165 L316,169 L316,174 L315,179 L315,185 L314,191 L314,196 L314,202 L314,207 L314,214 L314,220 L314,224 L314,228 L314,231 L315,235 L315,239 L315,244 L315,248 L315,251 L315,256 L314,260 L314,266 L314,272 L314,277 L315,282 L315,287 L315,292 L315,298 L315,303 L315,306 L315,307 L315,308 L316,310 L316,313 L316,314 L316,313 L315,313 L315,311 L315,309 L315,306 L314,300 L313,293 L313,284 L313,278 L313,274 L313,268 L313,261 L313,254 L313,250 L313,247 L313,244 L313,237 L313,229 L313,222 L313,221 L313,222 L312,221 L312,219 L312,218 L312,217 L311,217 L311,216 L311,215 L312,215 L312,214 L312,213 L313,213 L314,213 L314,214 L315,214 L316,214 L316,213 L316,210 L316,204 L317,196 L319,192 L320,191 L320,192 L321,194 L322,201 L322,211 L322,223 L322,231 L322,234 L323,234 L324,234 L324,233 L325,228 L325,217 L326,205 L327,193 L328,189 L328,190 L328,193 L328,200 L328,207 L327,216 L327,224 L328,227 L328,225 L329,219 L329,210 L330,202 L330,201 L330,202 L332,207 L333,215 L334,222 L335,226 L336,227 L337,227 L337,223 L337,215 L336,205 L336,190 L336,176 L337,164 L337,157 L338,153 L338,152 L338,154 L339,164 L339,178 L339,192 L339,206 L341,220 L342,229 L342,235 L343,239 L343,235 L342,225 L342,210 L342,192 L344,174 L345,165 L346,162 L346,164 L346,171 L346,183 L346,197 L346,213 L346,229 L346,240 L347,245 L347,248 L347,246 L347,238 L347,225 L346,210 L346,193 L346,178 L346,171 L345,170 L344,170 L344,173 L343,183 L343,197 L342,213 L342,230 L341,242 L341,247 L341,251 L341,249 L341,240 L340,226 L340,209 L341,190 L342,179 L342,176 L341,177 L341,185 L340,199 L340,216 L340,234 L339,246 L340,253 L340,254 L340,253 L340,248 L340,236 L341,220 L342,202 L343,187 L344,181 L344,180 L344,181 L344,185 L343,194 L342,208 L342,224 L342,238 L343,245 L344,248 L345,246 L347,240 L348,229 L349,215 L350,198 L350,187 L350,183 L349,184 L349,190 L348,200 L347,213 L347,225 L347,236 L347,241 L347,240 L347,238 L347,231 L346,218 L346,202 L347,186 L348,179 L348,180 L348,188 L348,198 L348,209 L348,219 L349,228 L349,232 L349,231 L349,229 L349,223 L349,212 L349,200 L350,188 L352,183 L352,185 L354,188 L356,195 L357,203 L359,210 L359,215 L360,218 L361,220 L361,217 L360,207 L358,194 L357,179 L356,171 L356,168 L356,170 L357,177 L358,188 L360,202 L360,217 L361,227 L361,234 L362,241 L362,244 L362,245 L362,244 L362,239 L361,232 L361,223 L361,213 L361,199 L361,187 L362,180 L363,179 L363,181 L364,188 L364,198 L364,206 L364,208 L364,206 L364,198 L364,183 L363,161 L363,141 L364,129 L364,124 L365,123 L365,124 L365,125 L365,131 L365,141 L365,155 L366,176 L367,193 L367,205 L368,212 L369,217 L371,220 L372,221 L372,220 L372,214 L372,202 L373,191 L374,180 L376,171 L377,159 L379,146 L381,133 L382,122 L383,112 L383,105 L383,101 L383,102 L383,106 L383,113 L383,122 L383,138 L380,161 L378,180 L378,196 L378,212 L377,223 L377,230 L377,233 L378,233 L378,232 L378,231 L379,231 L379,230 L379,229 L380,228 L380,227 L380,226 L380,223 L380,219 L380,214 L380,210 L380,205 L380,198 L381,189 L381,180 L381,175 L381,176 L381,178 L381,183 L382,190 L383,199 L384,208 L386,213 L387,214 L388,213 L387,210 L387,200 L387,189 L388,181 L388,178 L389,178 L389,180 L390,185 L391,194 L392,203 L393,210 L393,211 L393,210 L393,206 L392,198 L392,190 L392,184 L393,186 L394,192 L394,199 L394,205 L395,210 L395,212 L395,211 L395,207 L395,202 L395,197 L395,192 L396,186 L396,180 L396,174 L396,169 L396,164 L396,161 L397,158 L397,154 L397,149 L398,145 L398,142 L398,141 L397,141 L396,140 L395,139 L393,139 L392,139 L391,139 L392,139 L392,140 L393,140 L393,141 L393,143 L394,152 L393,169 L393,186 L392,202 L392,217 L393,232 L394,247 L394,259 L394,270 L394,280 L394,292 L395,303 L395,310 L395,314 L396,316 L397,319 L397,320 L397,319 L397,317 L396,313 L396,310 L396,306 L395,300 L394,287 L395,269 L398,258 L400,253 L400,248 L400,243 L399,238 L399,233 L399,230 L399,229 L399,227 L399,224 L399,219 L399,213 L399,210 L400,209 L400,210 L400,211 L401,212 L401,213 L401,215 L402,217 L403,220 L403,222 L403,223 L403,222 L403,221 L403,217 L403,210 L403,204 L403,199 L403,200 L404,201 L405,202 L405,203 L406,205 L407,206 L408,207 L407,205 L407,201 L407,195 L407,189 L407,182 L407,177 L407,172 L407,167 L407,160 L407,153 L407,146 L407,140 L407,135 L408,130 L408,122 L408,112 L409,104 L410,98 L410,95 L410,96 L410,97 L411,100 L411,104 L411,107 L411,110 L411,113 L412,116 L412,119 L412,125 L412,130 L412,134 L412,138 L412,143 L413,148 L413,153 L413,158 L413,162 L413,166 L413,170 L413,173 L413,176 L413,180 L413,183 L413,187 L414,191 L414,195 L414,199 L414,201 L415,202 L416,202 L416,203 L416,201 L417,196 L418,188 L420,181 L421,172 L422,161 L422,149 L423,136 L423,124 L424,115 L424,106 L424,97 L425,89 L426,84 L426,81 L426,80 L426,83 L426,87 L426,94 L426,103 L425,116 L423,131 L423,145 L421,160 L420,174 L420,185 L420,192 L420,197 L420,200 L420,202 L420,203 L420,204 L420,205 L420,207 L421,207 L422,207 L423,207 L423,203 L424,195 L425,185 L426,178 L428,176 L429,178 L430,183 L430,188 L431,193 L431,197 L431,196 L430,192 L429,185 L429,178 L429,171 L430,165 L430,161 L431,163 L431,171 L431,185 L430,200 L429,215 L428,224 L427,226 L427,225 L427,221 L427,210 L427,196 L429,179 L430,161 L432,150 L434,144 L435,144 L435,151 L435,160 L435,170 L435,180 L437,189 L438,197 L439,200 L439,199 L438,193 L438,182 L438,169 L440,155 L441,145 L442,138 L442,130 L442,124 L443,122 L443,123 L443,124 L444,124 L444,125 L443,126 L442,126 L441,126 L440,126 L440,125 L440,124 L440,121 L441,117 L442,114 L443,112 L444,109 L444,105 L443,103 L443,105 L443,107 L443,110 L442,113 L441,120 L440,130 L438,139 L437,147 L437,154 L436,160 L436,166 L435,172 L435,173 L435,174 L436,175 L436,176 L436,175 L436,172 L435,166 L435,158 L436,150 L437,143 L438,139 L439,136 L439,134 L439,136 L439,145 L439,155 L439,166 L438,177 L438,187 L438,195 L437,198 L437,197 L437,193 L438,187 L438,179 L440,171 L441,162 L442,153 L443,146 L444,144 L444,145 L444,150 L442,159 L440,172 L438,187 L436,200 L435,207 L435,209 L435,207 L435,200 L435,190 L436,176 L437,166 L437,165 L437,167 L438,174 L438,184 L438,197 L439,210 L440,219 L440,220 L440,217 L440,210 L440,199 L441,186 L442,175 L444,170 L445,169 L445,170 L445,171 L447,174 L447,183 L448,195 L449,207 L449,212 L449,211 L448,210 L447,205 L447,198 L446,190 L446,181 L447,176 L448,175 L448,176 L449,179 L449,184 L449,190 L449,200 L449,213 L448,227 L448,242 L448,254 L448,266 L448,277 L448,286 L448,290 L448,291 L448,290 L448,289 L448,285 L448,278 L448,271 L449,261 L449,247 L450,237 L450,229 L450,222 L451,215 L451,207 L452,199 L452,192 L452,186 L452,180 L453,175 L453,167 L453,158 L454,151 L454,146 L454,141 L454,134 L455,127 L456,117 L457,110 L458,105 L458,100 L458,96 L458,90 L459,83 L459,78 L460,73 L460,72 L460,73 L460,76 L460,80 L460,85 L459,90 L459,95 L458,101 L457,109 L457,116 L456,122 L456,127 L456,132 L455,138 L455,145 L454,154 L454,161 L454,168 L454,174 L455,180 L455,185 L455,191 L455,195 L455,200 L455,205 L455,211 L455,216 L454,219 L454,220 L454,218 L454,214 L455,207 L455,198 L457,183 L458,168 L460,156 L462,148 L462,141 L463,135 L463,132 L463,134 L463,140 L463,148 L461,159 L459,173 L457,183 L456,188 L456,187 L456,184 L456,173 L457,156 L459,139 L460,134 L460,135 L460,141 L459,154 L458,169 L457,182 L456,188 L456,186 L457,176 L458,157 L460,139 L462,132 L463,133 L464,141 L463,154 L461,168 L460,176 L460,175 L460,167 L462,153 L464,140 L466,137 L466,144 L465,156 L464,170 L463,179 L463,180 L463,176 L463,167 L464,159 L464,157 L464,162 L464,173 L464,181 L464,183 L464,182 L464,174 L465,162 L465,156 L465,164 L465,173 L464,179 L463,180 L463,178 L462,174 L462,169 L462,167 L462,166 L462,167 L461,167 L460,166 L460,165 L460,164 L459,164 L459,163 L458,162 L457,162 L456,161 L456,158 L456,153 L456,147 L456,144 L456,143 L456,144 L456,145 L457,151 L459,162 L462,176 L463,182 L463,184 L463,185 L463,184 L462,183 L462,179 L462,174 L462,168 L463,161 L464,157 L464,156 L464,157 L464,159 L464,166 L465,175 L465,184 L466,193 L467,199 L469,204 L469,205 L469,202 L469,195 L469,186 L470,176 L471,171 L471,172 L471,173 L471,179 L472,190 L472,202 L473,211 L473,210 L473,203 L472,192 L472,181 L473,175 L474,176 L474,178 L475,183 L475,187 L475,189 L475,184 L475,176 L475,172 L475,171 L476,176 L476,186 L476,198 L476,210 L476,220 L477,227 L478,231 L478,233 L478,234 L478,233 L478,231 L478,229 L479,226 L479,222 L479,219 L479,214 L479,209 L479,205 L478,202 L478,198 L477,195 L477,192 L477,190 L477,189 L476,188 L476,186 L476,183 L475,179 L475,174 L475,170 L474,166 L474,163 L474,160 L474,156 L474,152 L473,149 L473,146 L473,144 L473,143 L473,141 L472,139 L472,138 L472,137 L472,138 L472,137 L473,137 L473,135 L473,133 L474,130 L474,129 L474,128 L474,129 L474,130 L475,132 L475,133 L475,135 L475,136 L475,138 L475,139 L475,140 L475,141 L476,142 L476,144 L476,146 L476,149 L477,154 L478,159 L478,164 L478,168 L478,171 L478,172 L477,171 L476,166 L475,158 L474,146 L474,136 L474,129 L474,127 L474,128 L474,129 L474,132 L474,138 L475,143 L475,149 L475,153 L475,154 L475,152 L474,148 L474,141 L474,135 L474,131 L474,129 L474,130 L474,131 L474,133 L475,136 L476,141 L476,149 L478,155 L478,159 L479,159 L479,158 L479,157 L479,156 L479,153 L479,149 L479,144 L479,140 L479,138 L479,139 L480,139 L481,143 L483,148 L484,155 L485,160 L486,163 L486,161 L485,157 L485,152 L484,144 L484,133 L485,122 L486,111 L487,103 L488,98 L489,96 L489,97 L489,98 L489,102 L489,109 L489,118 L489,132 L488,149 L487,164 L486,177 L486,188 L486,198 L486,204 L486,205 L487,205 L487,204 L486,200 L486,195 L486,189 L486,182 L487,175 L489,168 L489,164 L490,161 L490,160 L490,161 L490,163 L490,167 L490,171 L490,176 L490,180 L491,182 L491,183 L491,184 L491,183 L491,178 L491,171 L492,161 L492,149 L493,137 L494,128 L494,122 L494,117 L494,110 L496,105 L497,101 L497,100 L497,101 L498,102 L498,104 L498,108 L497,114 L497,122 L496,136 L495,150 L494,162 L494,173 L494,182 L494,189 L494,194 L494,196 L494,197 L494,196 L493,193 L493,187 L493,178 L493,165 L494,150 L494,137 L494,130 L494,129 L494,131 L494,139 L494,149 L493,159 L493,170 L493,180 L492,184 L492,185 L492,184 L492,180 L492,169 L492,157 L492,149 L493,147 L493,149 L493,154 L493,161 L493,170 L493,176 L493,180 L494,181 L494,179 L494,173 L494,164 L494,156 L495,150 L496,149 L496,152 L498,159 L498,167 L499,174 L499,182 L500,188 L500,187 L499,183 L499,176 L499,168 L499,163 L501,161 L501,163 L503,170 L503,178 L503,189 L502,198 L502,200 L503,199 L503,194 L504,183 L504,167 L505,153 L506,146 L506,149 L505,156 L504,167 L502,183 L501,202 L500,221 L499,241 L499,257 L500,268 L501,276 L501,281 L501,283 L501,281 L501,276 L500,269 L500,262 L500,255 L500,244 L500,227 L500,209 L501,196 L501,188 L501,182 L501,177 L500,171 L499,166 L499,164 L499,165 L499,168 L500,172 L500,178 L501,186 L502,196 L502,201 L502,200 L502,194 L502,185 L503,171 L505,159 L506,153 L507,151 L507,152 L507,153 L507,158 L507,167 L507,178 L507,189 L507,195 L508,195 L508,194 L508,189 L508,179 L508,165 L509,151 L510,148 L511,149 L511,154 L511,163 L511,171 L511,180 L511,185 L512,185 L512,182 L512,174 L511,165 L511,156 L512,152 L513,151 L513,152 L513,153 L513,155 L513,156 L513,158 L513,159 L513,162 L513,171 L515,185 L516,201 L518,215 L520,229 L521,239 L521,243 L520,243 L519,240 L516,232 L514,221 L513,212 L513,202 L512,191 L512,180 L512,170 L512,164 L512,163 L512,165 L512,166 L512,167 L512,168 L512,169 L512,170 L512,167 L512,163 L512,160 L512,157 L512,156 L513,156 L513,159 L514,168 L514,180 L514,190 L515,194 L515,193 L515,191 L515,181 L515,169 L515,158 L516,156 L517,157 L518,162 L518,170 L519,176 L519,183 L519,188 L519,189 L519,188 L518,183 L517,177 L516,172 L517,171 L518,173 L519,176 L520,181 L520,187 L520,191 L520,193 L520,192 L519,190 L518,190 L518,193 L519,199 L520,209 L521,222 L523,237 L523,254 L523,273 L523,292 L524,309 L525,321 L526,329 L527,333 L528,335 L527,331 L526,327 L526,323 L525,319 L524,313 L523,302 L522,289 L522,280 L522,276 L521,271 L520,262 L519,253 L519,246 L519,242 L519,239 L519,234 L518,226 L518,221 L519,219 L519,220 L520,224 L520,233 L521,243 L522,256 L522,268 L523,278 L524,288 L524,293 L524,291 L523,284 L522,273 L522,262 L523,254 L523,253 L523,254 L523,259 L523,267 L524,276 L525,282 L525,283 L526,278 L525,266 L524,250 L524,237 L525,234 L525,236 L525,241 L525,249 L525,257 L526,264 L527,266 L528,263 L528,254 L527,240 L526,228 L526,224 L526,226 L528,230 L528,237 L530,244 L533,254 L534,257 L534,256 L533,249 L531,239 L529,227 L528,217 L528,215 L529,215 L529,216 L530,221 L531,228 L533,236 L534,243 L535,246 L535,245 L534,240 L532,232 L530,224 L530,217 L530,210 L530,206 L530,203 L530,199 L530,197 L530,195 L530,194 L529,193 L528,193 L527,192 L526,192 L525,192 L524,192 L523,192 L523,193 L523,194 L523,195 L523,197 L523,200 L523,202 L523,203 L523,205 L525,207 L526,211 L526,213 L527,214 L527,213 L527,212 L526,205 L526,196 L525,185 L524,175 L524,167 L525,162 L525,159 L525,157 L525,153 L525,149 L525,148 L525,149 L525,150 L525,151 L525,152 L525,156 L526,165 L528,175 L528,180 L529,181 L529,180 L528,174 L527,164 L527,152 L526,144 L527,142 L527,143 L528,147 L529,154 L529,162 L530,169 L530,174 L530,173 L530,166 L530,156 L529,144 L529,135 L530,134 L531,136 L532,140 L533,148 L533,155 L533,161 L534,167 L535,171 L535,173 L535,172 L534,168 L533,162 L533,156 L533,153 L535,155 L536,159 L538,167 L540,177 L542,184 L542,186 L542,185 L542,181 L542,174 L542,166 L543,158 L544,151 L545,145 L545,140 L545,137 L545,134 L545,127 L545,121 L545,116 L545,114 L545,118 L545,123 L545,131 L545,140 L545,156 L545,176 L543,190 L542,200 L542,209 L543,218 L545,224 L545,227 L545,226 L545,225 L544,221 L543,214 L543,205 L543,192 L544,175 L544,159 L543,148 L542,137 L542,126 L542,117 L543,112 L543,111 L543,112 L543,115 L543,120 L543,129 L543,143 L543,162 L543,180 L543,196 L543,210 L544,220 L544,223 L544,222 L544,218 L544,209 L544,199 L544,189 L545,177 L545,164 L545,151 L545,140 L544,132 L544,127 L544,123 L544,120 L545,118 L545,116 L545,121 L545,128 L545,136 L545,146 L545,160 L547,174 L549,186 L550,193 L550,197 L550,199 L550,197 L549,193 L548,189 L547,184 L547,177 L546,168 L546,157 L546,148 L546,144 L546,141 L546,139 L546,136 L546,135 L546,136 L546,139 L546,143 L546,149 L546,157 L546,164 L546,166 L546,165 L546,163 L545,163 L545,162 L545,161 L545,160 L544,160 L543,160 L542,160 L541,160 L540,160 L539,160 L538,160 L537,160 L536,160 L535,158 L534,155 L532,152 L532,151 L531,150 L532,153 L533,160 L533,170 L533,177 L533,180 L533,179 L534,178 L535,175 L535,170 L535,166 L535,163 L536,165 L538,169 L540,174 L542,180 L545,189 L547,200 L547,209 L547,214 L547,210 L546,203 L546,196 L546,193 L546,196 L548,205 L549,215 L550,224 L552,234 L554,244 L555,253 L555,259 L555,263 L555,264 L555,263 L556,260 L557,255 L558,248 L558,237 L557,221 L556,208 L556,204 L556,205 L557,210 L557,219 L558,230 L559,242 L560,252 L560,257 L560,256 L559,249 L557,237 L555,222 L553,207 L552,201 L552,200 L552,202 L553,209 L555,221 L556,235 L556,250 L556,260 L556,263 L556,262 L555,258 L553,247 L551,231 L549,210 L549,193 L549,186 L549,185 L549,186 L550,189 L550,196 L551,205 L552,215 L554,228 L555,238 L556,242 L556,241 L555,238 L554,228 L552,215 L552,199 L551,185 L550,173 L549,164 L548,156 L548,152 L548,149 L548,146 L548,140 L548,135 L548,131 L548,130 L548,131 L548,136 L548,146 L548,159 L548,178 L548,195 L550,208 L552,219 L552,226 L553,227 L553,224 L552,216 L552,205 L551,193 L551,180 L551,168 L551,158 L551,149 L551,144 L551,143 L552,147 L552,156 L554,168 L555,181 L555,195 L557,206 L558,212 L558,214 L558,208 L557,197 L557,183 L557,171 L557,161 L557,154 L556,151 L556,153 L557,158 L559,167 L560,179 L561,193 L562,203 L564,208 L565,212 L566,213 L566,214 L566,213 L565,209 L565,204 L564,200 L564,196 L564,193 L564,192 L564,191 L564,190 L564,189 L563,188 L562,188 L562,187 L561,187 L560,187 L559,187 L558,187 L557,187 L557,188 L556,188 L555,189 L554,190 L553,190 L552,190 L551,190 L551,189 L550,189 L550,187 L550,183 L550,177 L551,172 L551,167 L551,162 L552,156 L552,151 L552,147 L553,144 L553,143 L553,142 L553,141 L553,142 L554,146 L554,153 L555,164 L556,179 L556,193 L555,205 L555,216 L555,221 L556,222 L557,221 L557,217 L557,207 L557,192 L557,173 L557,154 L557,141 L557,138 L557,137 L557,138 L557,141 L557,151 L558,165 L560,183 L561,200 L562,205 L563,206 L564,204 L564,196 L564,184 L564,171 L564,161 L564,159 L564,160 L565,164 L566,173 L567,183 L569,192 L569,195 L569,194 L569,190 L567,181 L566,173 L565,170 L566,172 L568,179 L571,190 L574,203 L577,217 L578,231 L579,242 L580,250 L580,254 L579,254 L579,253 L579,249 L578,241 L577,233 L577,224 L576,214 L574,202 L572,189 L571,179 L571,173 L571,168 L570,164 L570,161 L569,156 L569,152 L569,151 L569,149 L569,148 L569,146 L569,143 L569,140 L569,137 L570,135 L570,133 L570,132 L570,130 L570,131 L571,134 L572,142 L572,155 L573,171 L573,183 L573,195 L574,205 L574,212 L575,214 L576,214 L576,211 L576,204 L577,198 L577,191 L578,183 L579,175 L579,165 L579,157 L580,152 L581,150 L581,149 L581,148 L581,145 L582,141 L583,136 L583,132 L583,129 L583,127 L583,125 L583,121 L583,116 L583,110 L583,105 L583,102 L583,100 L583,98 L583,96 L583,95 L582,96 L582,100 L582,108 L582,121 L581,139 L579,156 L577,169 L577,179 L577,187 L579,192 L580,195 L581,196 L581,195 L581,190 L581,183 L581,176 L582,166 L583,154 L584,144 L584,136 L584,126 L584,116 L584,107 L585,101 L585,97 L586,92 L586,88 L586,87 L586,88 L586,89 L587,90 L587,92 L587,94 L587,97 L587,101 L587,106 L587,112 L586,120 L586,128 L587,140 L586,151 L586,158 L586,165 L586,173 L587,180 L589,189 L590,195 L590,197 L590,196 L590,194 L590,192 L590,189 L590,185 L590,180 L590,176 L590,171 L590,168 L590,167 L589,164 L589,160 L589,157 L589,156 L589,154 L590,152 L590,148 L590,143 L589,139 L588,133 L586,127 L586,119 L585,112 L585,107 L585,105 L585,104 L585,105 L585,107 L585,108 L585,110 L585,111 L585,112 L585,113 L585,112 L585,113 L586,114 L586,117 L586,121 L587,127 L587,131 L588,135 L589,138 L589,142 L590,146 L590,151 L591,154 L591,158 L592,164 L593,171 L593,178 L594,183 L594,188 L594,193 L595,201 L596,212 L597,221 L597,226 L598,227 L599,228 L599,227 L599,220 L597,210 L597,199 L596,186 L597,173 L597,165 L596,158 L596,155 L596,157 L596,164 L597,174 L597,186 L597,199 L597,210 L597,218 L597,226 L596,231 L596,232 L597,232 L596,229 L595,222 L594,209 L594,191 L595,178 L596,170 L596,166 L596,167 L597,171 L598,178 L599,187 L601,193 L601,195 L601,194 L601,191 L600,183 L599,172 L599,162 L600,159 L601,160 L601,163 L603,169 L605,175 L606,181 L607,185 L608,185 L608,182 L606,173 L606,163 L606,159 L606,162 L608,168 L609,173 L611,176 L611,177 L611,176 L610,169 L608,160 L608,150 L607,143 L607,139 L608,134 L608,130 L608,125 L609,121 L609,120 L609,121 L609,122 L609,123 L610,125 L610,127 L610,130 L611,134 L611,137 L611,141 L612,145 L613,149 L613,152 L613,153 L613,154 L613,155 L613,156 L613,158 L613,159 L613,160 L612,160 L611,160 L611,161 L611,163 L611,167 L612,173 L612,180 L613,186 L613,192 L614,198 L615,205 L617,212 L618,218 L618,222 L618,225 L618,229 L619,230 L619,231 L619,229 L618,226 L617,220 L616,215 L616,210 L615,204 L614,196 L613,185 L612,178 L612,175 L611,174 L611,173 L611,171 L611,166 L611,162 L611,159 L610,158 L610,154 L610,150 L610,147 L610,148 L611,149 L612,152 L613,158 L615,164 L617,171 L618,173 L617,171 L616,168 L615,161 L614,151 L614,140 L614,137 L614,139 L616,143 L617,150 L618,160 L620,168 L621,173 L622,174 L622,173 L622,170 L621,161 L620,152 L619,145 L619,144 L619,146 L620,149 L622,155 L624,163 L626,173 L629,178 L630,179 L630,178 L629,175 L627,167 L625,158 L624,149 L623,144 L623,145 L625,148 L627,154 L628,162 L630,168 L632,172 L632,171 L630,165 L627,157 L625,150 L624,145 L624,144 L624,145 L625,145 L626,146 L627,151 L628,155 L630,159 L630,161 L629,158 L628,152 L626,144 L624,136 L623,132 L623,129 L623,126 L622,125 L622,124 L622,123 L622,122 L622,121 L621,120 L620,120 L619,120 L618,120 L618,121 L618,122 L618,123 L618,128 L619,136 L621,146 L622,153 L623,157 L624,160 L625,161 L625,162 L625,161 L624,161 L623,161 L623,162 L623,163 L623,164 L624,166 L624,168 L625,171 L625,175 L626,178 L626,180 L626,183 L627,186 L628,190 L628,194 L628,198 L629,203 L630,210 L631,219 L633,227 L635,237 L637,247 L638,257 L639,266 L639,273 L639,275 L639,276 L639,275 L638,273 L638,271 L637,268 L636,263 L635,254 L633,243 L632,231 L631,220 L630,210 L629,201 L627,191 L625,180 L624,172 L623,166 L622,159 L620,152 L620,147 L619,144 L619,143 L619,144 L619,146 L620,152 L621,156 L621,161 L623,168 L625,177 L626,186 L627,193 L627,196 L628,200 L629,203 L630,204 L630,203 L630,197 L629,185 L628,167 L628,146 L628,133 L628,127 L628,126 L628,127 L628,129 L630,138 L631,149 L633,162 L633,175 L633,183 L633,190 L634,192 L634,193 L634,191 L634,185 L634,173 L634,162 L634,154 L634,150 L633,149 L633,150 L633,151 L634,155 L635,162 L636,168 L636,172 L636,169 L636,162 L635,151 L635,138 L635,126 L635,115 L635,104 L634,93 L633,85 L632,78 L631,72 L631,68 L631,67 L631,68 L631,70 L631,72 L632,75 L632,77 L632,81 L632,87 L632,94 L633,101 L633,107 L633,113 L633,119 L633,127 L633,132 L634,139 L635,144 L636,151 L637,156 L638,161 L638,166 L639,169 L640,171 L640,173 L641,176 L641,178 L642,179 L641,178 L641,176 L641,171 L641,162 L641,147 L640,132 L640,123 L639,118 L639,117 L639,116 L639,117 L641,124 L643,135 L644,148 L644,161 L645,171 L646,176 L648,177 L648,173 L649,164 L649,150 L650,136 L650,132 L650,133 L650,135 L650,141 L650,147 L650,153 L650,157 L650,161 L650,163 L650,162 L650,159 L650,154 L650,148 L650,143 L650,142 L652,145 L653,151 L654,158 L655,167 L657,174 L659,178 L660,180 L660,179 L660,175 L659,169 L658,163 L657,158 L657,156 L657,157 L657,158 L658,162 L658,166 L659,171 L659,176 L659,179 L659,178 L658,176 L657,170 L655,164 L655,160 L655,159 L655,160 L655,161 L656,163 L656,165 L656,166 L655,168 L652,168 L649,166 L646,164 L645,163 L645,161 L646,158 L647,156 L648,154 L648,153 L648,152 L648,151 L649,149 L649,148 L650,148 L650,147 L651,148 L652,149 L652,151 L652,154 L653,158 L654,160 L654,161 L654,159 L654,155 L654,151 L654,146 L654,141 L654,138 L654,137 L654,136 L654,135 L654,134 L654,132 L654,131 L654,130 L654,129 L654,128 L655,127 L655,126 L655,127 L655,128 L656,129 L656,130 L656,131 L657,132 L657,133 L657,134 L657,135 L658,136 L658,138 L658,139 L659,139 L659,141 L659,143 L660,144 L660,145 L660,146 L660,148 L660,149 L660,150 L661,151 L661,152 L662,153 L662,154 L662,156 L663,158 L664,161 L665,163 L666,167 L667,172 L669,179 L671,187 L672,195 L674,206 L675,217 L677,227 L679,235 L681,242 L682,246 L682,247 L681,244 L678,239 L677,232 L675,222 L675,209 L675,197 L675,185 L675,175 L674,167 L674,163 L673,163 L673,164 L674,170 L675,178 L677,185 L678,190 L678,188 L677,183 L676,178 L676,172 L676,165 L676,159 L676,158 L676,159 L677,160 L678,161 L679,166 L680,172 L682,176 L682,177 L682,175 L681,171 L679,163 L678,152 L678,141 L677,132 L676,124 L675,118 L674,110 L673,103 L673,98 L672,92 L672,85 L671,81 L670,78 L670,75 L670,73 L670,72 L670,71 L670,70 L670,69 L670,67 L670,65 L671,63 L671,62 L671,61 L671,60 L671,59 L671,58 L671,57 L671,56 L671,55 L671,54 L671,53 L670,53 L670,54 L670,55 L670,56 L670,58 L670,60 L671,62 L671,64 L671,66 L671,68 L671,69 L671,71 L671,73 L671,75 L672,76 L672,78 L672,80 L672,82 L672,84 L672,86 L672,88 L672,91 L672,93 L672,96 L672,99 L672,102 L672,106 L672,110 L673,113 L674,116 L674,118 L674,119 L674,121 L674,124 L674,127 L675,129 L675,130 L675,132 L675,134 L675,136 L675,137 L675,138 L675,139 L675,141 L675,143 L675,145 L675,147 L675,149 L675,150 L675,152 L676,153 L676,155 L676,156 L676,158 L676,159 L676,160 L676,161 L676,162 L677,163 L677,164 L677,165 L677,166 L678,168 L679,171 L679,173 L680,176 L680,178 L680,177 L680,174 L679,169 L679,162 L678,153 L677,140 L676,126 L676,117 L675,110 L675,105 L675,104 L675,105 L677,110 L678,120 L679,133 L679,147 L679,157 L679,162 L679,161 L679,156 L679,146 L679,134 L678,120 L677,110 L676,105 L675,104 L676,109 L677,119 L678,132 L679,145 L680,158 L681,169 L682,176 L683,178 L684,178 L685,177 L685,169 L685,156 L685,141 L684,125 L684,117 L684,116 L684,117 L684,122 L684,134 L684,149 L683,164 L683,171 L684,171 L684,168 L684,158 L683,144 L683,132 L683,129 L684,131 L685,140 L686,154 L687,167 L687,176 L688,177 L688,173 L688,161 L687,148 L687,138 L687,135 L687,136 L687,137 L688,143 L688,150 L689,158 L689,168 L690,175 L691,176 L692,171 L691,163 L691,153 L691,143 L692,139 L694,139 L695,144 L696,150 L696,156 L697,161 L698,166 L698,170 L698,173 L699,173 L699,171 L698,163 L696,151 L696,137 L696,127 L696,124 L696,126 L696,131 L697,141 L697,152 L698,166 L698,181 L698,189 L698,190 L698,188 L697,183 L697,173 L697,161 L699,149 L700,141 L700,140 L700,141 L701,146 L701,156 L701,167 L701,181 L701,193 L702,196 L703,196 L703,193 L702,182 L700,165 L697,138 L696,114 L696,104 L696,98 L696,95 L696,98 L696,106 L697,119 L699,134 L701,153 L703,169 L704,184 L706,200 L708,214 L709,220 L709,219 L709,215 L708,208 L707,203 L706,197 L705,190 L704,178 L702,162 L701,145 L701,139 L701,138 L701,139 L702,142 L703,149 L703,157 L704,166 L705,174 L705,177 L706,173 L706,163 L706,149 L707,132 L709,117 L712,105 L714,98 L716,96 L716,100 L715,107 L714,118 L714,131 L714,148 L714,166 L714,179 L714,189 L716,195 L717,197 L718,197 L719,193 L719,186 L718,175 L718,161 L717,143 L717,126 L716,111 L715,100 L715,90 L714,80 L714,70 L713,59 L712,50 L711,45 L710,41 L709,38 L709,33 L709,29 L709,28 L709,29 L709,31 L709,34 L710,38 L711,44 L712,49 L713,55 L714,59 L714,64 L714,68 L714,74 L714,79 L714,83 L714,88 L714,94 L714,100 L713,106 L713,110 L714,111 L714,113 L715,114 L716,117 L716,119 L717,122 L717,125 L717,128 L717,131 L717,134 L717,138 L717,142 L717,145 L717,147 L717,149 L717,152 L717,156 L717,159 L717,160 L718,161 L718,162 L719,165 L719,168 L719,171 L720,171 L720,172 L720,174 L720,176 L720,177 L720,178 L720,179 L721,179 L721,180 L722,182 L722,184 L723,188 L724,191 L724,193 L723,190 L723,183 L722,172 L721,155 L721,139 L723,127 L723,122 L723,123 L723,125 L723,131 L723,139 L723,149 L723,160 L723,169 L723,177 L724,185 L724,188 L725,189 L725,187 L724,180 L723,169 L723,157 L723,146 L723,140 L723,139 L723,140 L723,143 L723,150 L724,158 L724,164 L724,168 L725,168 L725,166 L725,161 L724,154 L724,147 L724,146 L725,147 L726,153 L727,159 L728,165 L728,169 L728,171 L728,170 L728,163 L728,154 L728,146 L729,143 L730,144 L730,146 L731,151 L731,156 L731,160 L731,162 L731,160 L731,155 L730,149 L730,144 L730,140 L731,139 L732,143 L733,149 L734,158 L734,167 L735,176 L736,183 L737,190 L738,196 L739,200 L739,201 L739,199 L737,193 L736,182 L735,170 L735,154 L735,136 L735,122 L735,111 L735,102 L734,97 L733,95 L733,94 L732,94 L732,95 L732,100 L732,106 L732,114 L733,124 L733,136 L733,144 L733,152 L733,157 L733,156 L734,153 L735,146 L736,138 L737,128 L738,117 L739,105 L740,94 L741,84 L742,78 L742,77 L742,78 L742,79 L742,82 L742,84 L742,88 L742,92 L741,99 L740,106 L738,114 L736,119 L736,123 L735,128 L735,134 L735,141 L735,147 L735,152 L736,158 L736,164 L736,169 L736,174 L736,177 L736,180 L736,183 L737,187 L737,190 L737,191 L737,192 L737,193 L737,195 L737,196 L737,197 L737,198 L738,198 L738,197 L738,195 L738,193 L738,190 L738,188 L738,185 L738,183 L738,180 L738,178 L738,176 L738,173 L738,171 L738,169 L738,167 L738,165 L738,164 L738,162 L738,161 L738,160 L738,159 L738,160 L738,158 L738,157 L738,155 L739,153 L739,151 L739,147 L740,142 L741,136 L742,132 L743,127 L744,122 L745,116 L745,109 L746,102 L747,98 L747,95 L748,91 L748,86 L748,80 L749,75 L750,73 L750,74 L751,76 L751,80 L752,88 L751,100 L750,115 L748,127 L748,138 L747,149 L747,159 L746,167 L746,174 L746,178 L746,180 L746,179 L746,174 L746,166 L745,158 L745,146 L745,129 L745,114 L745,100 L745,88 L746,83 L746,79 L746,78 L746,79 L747,82 L747,88 L747,97 L746,109 L744,124 L742,139 L740,151 L740,161 L739,169 L739,173 L740,174 L741,175 L742,175 L742,174 L742,173 L741,173 L741,172 L740,171 L740,170 L739,169 L739,168 L739,167 L739,164 L739,158 L739,148 L739,137 L739,130 L740,124 L740,121 L740,119 L740,118 L740,119 L741,119 L741,120 L741,121 L741,122 L741,124 L742,128 L742,135 L743,145 L744,155 L745,161 L745,167 L745,173 L745,178 L745,179 L746,179 L746,177 L746,172 L746,166 L747,161 L747,160 L747,161 L748,164 L749,169 L750,177 L750,188 L750,196 L750,198 L750,194 L750,184 L750,172 L752,160 L753,156 L753,157 L754,161 L754,167 L754,174 L754,183 L754,191 L753,196 L753,195 L753,190 L753,182 L753,172 L753,165 L755,164 L757,170 L758,178 L759,187 L760,195 L760,199 L760,200 L760,197 L759,188 L758,178 L758,169 L759,168 L760,173 L762,182 L763,189 L764,196 L764,202 L764,205 L765,205 L765,204 L765,203 L765,199 L765,190 L765,180 L765,168 L765,159 L765,151 L765,141 L765,131 L765,122 L765,114 L765,105 L764,95 L764,85 L764,77 L764,70 L764,66 L763,65 L763,64 L763,65 L763,67 L764,69 L765,73 L765,78 L765,85 L765,93 L765,101 L765,108 L765,115 L765,121 L765,125 L765,130 L765,136 L765,141 L765,147 L765,152 L765,157 L764,161 L763,166 L763,171 L762,174 L762,178 L762,181 L762,183 L762,185 L762,184 L762,183 L762,181 L761,178 L761,173 L761,165 L761,159 L761,155 L761,151 L761,147 L761,144 L761,142 L761,143 L761,144 L761,146 L761,149 L762,153 L762,157 L762,161 L762,166 L762,168 L762,171 L763,172 L763,173 L763,172 L763,170 L762,166 L761,159 L761,149 L761,138 L762,128 L763,118 L763,108 L764,97 L764,87 L765,77 L765,68 L764,61 L764,53 L764,45 L764,36 L764,28 L765,22 L765,17 L765,12 L765,8 L765,5 L765,3 L765,4 L766,6 L767,8 L767,11 L768,14 L768,19 L769,24 L769,30 L769,36 L769,42 L769,48 L768,54 L767,61 L767,66 L767,72 L767,78 L767,83 L767,88 L767,92 L766,96 L766,100 L767,104 L767,107 L767,110 L766,114 L765,118 L765,122 L765,126 L765,129 L765,132 L764,136 L764,138 L764,141 L764,144 L764,146 L764,148 L764,150 L764,153 L764,156 L763,159 L763,162 L763,164 L763,165 L763,167 L763,169 L763,171 L763,169 L763,167 L763,163 L764,156 L764,144 L764,132 L765,121 L765,110 L766,97 L767,88 L767,84 L767,86 L767,90 L767,97 L767,106 L766,117 L765,130 L765,143 L765,155 L765,165 L765,173 L765,176 L765,175 L766,171 L766,165 L765,156 L765,147 L765,134 L765,122 L766,115 L767,109 L769,104 L769,102 L769,104 L769,111 L769,120 L769,127 L769,135 L768,143 L768,149 L768,152 L769,152 L769,151 L769,147 L769,140 L769,131 L770,120 L771,110 L772,103 L774,100 L774,99 L774,100 L774,102 L774,108 L774,115 L775,124 L775,134 L776,143 L776,148 L776,151 L776,153 L776,154 L776,153 L776,152 L775,149 L775,143 L774,132 L774,118 L775,104 L775,95 L775,90 L775,91 L774,95 L773,101 L773,109 L773,121 L773,133 L774,143 L774,152 L775,162 L775,171 L775,173 L775,171 L775,166 L775,159 L775,151 L775,142 L776,129 L777,114 L779,99 L780,87 L780,78 L780,70 L780,67 L780,68 L780,74 L780,81 L780,90 L779,100 L778,114 L778,125 L778,133 L778,138 L779,142 L780,142 L780,141 L782,134 L782,122 L784,110 L786,100 L787,95 L788,93 L788,94 L788,99 L787,107 L787,118 L786,132 L785,144 L784,155 L783,162 L783,166 L783,167 L783,166 L784,165 L784,161 L785,155 L785,146 L786,134 L787,118 L789,101 L791,87 L792,74 L793,64 L793,57 L793,51 L792,47 L791,44 L789,42 L789,41 L790,43 L791,46 L792,51 L792,56 L793,61 L793,70 L793,79 L793,89 L792,98 L792,108 L792,118 L791,127 L790,136 L789,144 L788,150 L787,156 L787,160 L787,162 L788,163 L788,161 L788,158 L787,154 L787,148 L787,141 L788,134 L789,125 L792,115 L794,104 L796,93 L797,83 L798,74 L799,66 L799,58 L800,50 L801,42 L801,35 L801,29 L801,23 L801,17 L802,10 L802,4 L802,0 L802,-2 L802,-3 L802,-4 L802,-5 L803,-4 L803,-3 L804,-1 L804,2 L804,6 L804,10 L803,16 L802,22 L802,29 L801,35 L801,41 L800,47 L800,53 L799,60 L799,66 L798,72 L797,78 L797,83 L797,89 L797,95 L796,100 L796,105 L795,110 L795,114 L794,119 L794,124 L794,127 L793,131 L793,134 L793,137 L793,139 L793,141 L793,142 L793,143 L794,143 L793,145 L792,149 L792,153 L791,156 L791,159 L791,163 L791,167 L791,170 L791,172 L791,171 L791,169 L791,165 L792,158 L795,145 L798,130 L801,114 L804,100 L807,92 L808,90 L807,92 L805,99 L803,108 L800,119 L797,132 L794,142 L793,146 L793,144 L794,139 L795,133 L796,125 L798,114 L799,100 L800,89 L800,81 L800,77 L800,78 L800,81 L800,85 L799,91 L799,98 L798,110 L796,126 L794,140 L794,151 L794,161 L795,167 L796,169 L797,169 L797,167 L798,162 L799,156 L800,149 L802,137 L805,121 L809,105 L812,91 L815,83 L815,81 L815,85 L814,93 L811,103 L810,115 L808,128 L806,137 L806,139 L806,138 L807,134 L810,123 L814,112 L818,105 L820,105 L821,110 L821,118 L821,127 L820,137 L818,147 L816,155 L815,157 L814,156 L814,153 L814,145 L814,135 L814,122 L816,106 L819,92 L820,81 L822,69 L824,57 L825,46 L826,37 L826,30 L826,25 L826,20 L826,16 L826,12 L826,9 L826,7 L827,4 L828,2 L829,2 L829,3 L830,3 L830,4 L830,5 L830,8 L829,10 L829,13 L829,16 L828,19 L828,23 L827,26 L826,30 L826,32 L826,35 L826,38 L826,41 L826,43 L826,46 L826,49 L826,52 L826,54 L826,57 L826,60 L826,62 L826,65 L827,67 L827,69 L828,71 L828,73 L828,77 L828,80 L828,84 L828,87 L827,90 L827,93 L826,98 L824,102 L823,106 L823,110 L822,114 L821,119 L820,124 L819,130 L818,134 L818,139 L818,143 L818,148 L818,152 L818,155 L818,156 L818,158 L818,157 L817,156 L816,154 L816,153 L815,151 L815,149 L814,149 L814,147 L814,146 L814,145 L813,144 L813,145 L813,146 L813,148 L814,152 L814,157 L815,163 L816,171 L816,178 L816,185 L815,192 L814,198 L814,204 L814,212 L813,221 L812,229 L812,234 L812,239 L812,243 L813,246 L814,249 L814,250 L814,249 L813,248 L812,246 L811,242 L811,236 L811,227 L812,215 L813,205 L814,198 L814,190 L814,183 L813,175 L813,165 L813,157 L813,150 L813,143 L813,136 L813,129 L813,121 L813,114 L813,107 L812,103 L811,99 L811,94 L811,89 L811,83 L811,78 L811,73 L812,69 L813,66 L814,62 L814,58 L814,53 L815,50 L815,48 L815,46 L816,44 L816,42 L816,40 L816,38 L817,38 L817,39 L818,42 L819,46 L819,50 L819,55 L819,61 L819,69 L819,79 L818,89 L817,99 L817,107 L817,118 L816,128 L815,135 L814,138 L814,136 L814,134 L814,131 L815,126 L816,117 L818,104 L820,87 L821,73 L823,64 L824,58 L824,57 L824,58 L825,63 L825,70 L824,79 L824,88 L823,98 L821,104 L821,107 L822,107 L823,104 L824,97 L825,88 L827,78 L828,70 L829,69 L829,70 L830,73 L830,80 L830,89 L830,102 L828,116 L826,127 L824,135 L823,141 L823,143 L823,142 L823,139 L825,132 L827,123 L830,112 L834,97 L838,81 L842,66 L845,52 L847,42 L848,34 L848,29 L848,26 L848,23 L847,21 L847,19 L847,18 L847,17 L848,18 L848,20 L848,24 L848,28 L848,33 L848,40 L848,48 L846,58 L845,66 L843,74 L842,83 L841,92 L839,100 L837,110 L836,117 L835,124 L834,129 L833,133 L833,134 L833,135 L834,136 L835,137 L835,136 L834,136 L834,135 L834,132 L835,125 L836,114 L839,99 L841,84 L844,71 L846,64 L846,63 L845,64 L843,69 L841,80 L840,94 L839,112 L838,127 L836,135 L835,137 L834,136 L833,131 L833,119 L834,105 L837,90 L840,84 L841,84 L843,87 L844,93 L844,103 L843,114 L841,127 L840,137 L838,141 L838,140 L838,137 L838,130 L840,120 L842,107 L847,88 L852,68 L855,48 L859,30 L862,15 L864,2 L865,-7 L865,-12 L863,-16 L862,-19 L861,-20 L861,-19 L862,-17 L863,-12 L864,-5 L864,4 L864,15 L865,28 L865,43 L866,60 L868,77 L871,96 L873,107" fill="none" stroke="red" stroke-width="3"/></svg>