<svg xmlns="http://www.w3.org/2000/svg" version="1.1" xmlns:xlink="http://www.w3.org/1999/xlink" xmlns:svgjs="http://svgjs.dev/svgjs" width="950" height="375" id="chartSvg"><path d="M10,258 L11,258 L11,257 L11,258 L11,259 L12,261 L12,263 L13,264 L13,265 L14,266 L14,267 L14,268 L14,269 L15,268 L15,267 L16,264 L17,261 L17,259 L18,256 L18,257 L19,259 L19,262 L20,266 L20,269 L21,271 L21,273 L21,272 L22,269 L22,266 L22,261 L23,256 L24,249 L25,244 L25,239 L26,236 L26,233 L26,231 L26,229 L26,228 L26,227 L27,227 L27,229 L28,232 L29,236 L30,240 L31,244 L32,248 L33,251 L34,254 L34,255 L34,256 L35,256 L35,255 L35,254 L35,252 L36,251 L36,250 L36,248 L37,246 L37,244 L38,241 L38,238 L39,237 L39,236 L39,237 L39,239 L41,242 L41,245 L42,247 L43,248 L43,247 L43,245 L43,241 L44,236 L45,229 L46,222 L48,215 L49,208 L50,204 L51,200 L51,196 L52,193 L52,191 L53,190 L53,189 L53,188 L53,190 L54,193 L54,198 L55,203 L56,210 L56,216 L56,222 L56,227 L56,233 L57,239 L57,244 L57,249 L58,255 L58,259 L58,264 L59,268 L59,273 L59,277 L60,281 L60,285 L60,289 L61,292 L61,294 L61,296 L61,297 L61,298 L61,296 L61,293 L61,288 L61,281 L62,274 L63,268 L63,262 L64,256 L66,251 L67,245 L68,239 L69,234 L70,228 L71,222 L72,216 L73,210 L74,204 L75,200 L77,196 L78,193 L78,192 L78,191 L79,191 L79,193 L79,195 L80,200 L80,204 L81,209 L82,214 L82,219 L83,224 L83,228 L83,233 L82,237 L82,241 L82,245 L81,249 L81,254 L80,258 L80,261 L80,265 L80,268 L80,272 L80,276 L80,279 L81,283 L81,286 L81,288 L81,289 L82,290 L82,289 L82,288 L82,286 L82,283 L82,281 L83,277 L84,273 L85,268 L86,264 L87,259 L88,256 L88,252 L88,248 L89,246 L89,244 L90,241 L90,238 L91,235 L92,232 L92,230 L93,229 L93,230 L94,232 L95,235 L95,239 L96,243 L97,247 L97,250 L97,252 L98,253 L98,252 L98,251 L99,249 L100,246 L100,243 L101,239 L102,237 L103,236 L104,237 L105,239 L105,243 L106,246 L107,249 L107,252 L108,253 L108,252 L108,251 L108,249 L108,246 L109,242 L109,237 L110,232 L112,227 L114,224 L115,223 L117,222 L118,223 L119,224 L119,227 L121,230 L122,234 L122,237 L123,241 L123,244 L124,246 L124,247 L124,246 L124,244 L124,240 L124,235 L125,229 L127,221 L127,218 L129,215 L130,210 L132,204 L134,199 L135,194 L136,190 L136,188 L136,186 L136,185 L137,187 L137,190 L137,193 L138,198 L138,202 L138,206 L138,210 L138,215 L138,218 L138,222 L137,225 L137,228 L137,231 L136,234 L136,238 L135,241 L135,244 L134,248 L134,251 L134,254 L134,258 L134,261 L133,265 L133,268 L132,272 L132,276 L132,281 L131,285 L130,289 L130,293 L129,296 L129,300 L129,302 L129,305 L129,307 L129,308 L129,310 L129,311 L129,313 L129,314 L129,315 L129,314 L129,313 L129,312 L130,310 L130,308 L132,305 L133,301 L134,297 L135,293 L136,289 L138,285 L139,281 L140,278 L140,275 L141,271 L142,267 L143,264 L144,260 L144,257 L145,254 L146,251 L147,248 L148,244 L149,241 L149,237 L151,234 L151,230 L152,227 L153,224 L153,222 L153,220 L154,218 L154,216 L154,214 L155,212 L155,211 L155,210 L156,209 L156,208 L156,207 L156,206 L156,205 L157,205 L157,206 L157,207 L157,208 L157,210 L157,212 L157,214 L157,216 L156,218 L156,220 L156,222 L156,224 L156,226 L156,227 L156,229 L156,230 L155,231 L155,232 L155,234 L155,235 L154,236 L154,237 L154,239 L154,240 L154,241 L154,242 L154,241 L155,239 L156,236 L157,233 L158,229 L158,227 L159,227 L159,228 L159,230 L159,233 L159,237 L160,240 L160,243 L160,244 L160,245 L160,244 L160,242 L161,239 L161,234 L161,230 L162,225 L163,222 L163,220 L164,217 L165,214 L166,211 L167,207 L168,204 L169,201 L170,197 L171,194 L172,192 L173,190 L173,191 L173,193 L173,196 L173,200 L173,205 L173,210 L173,215 L173,220 L173,225 L173,229 L173,234 L173,238 L173,242 L173,246 L172,250 L171,254 L170,259 L169,262 L168,266 L167,269 L166,272 L166,274 L165,277 L165,279 L164,281 L164,283 L164,284 L164,285 L164,286 L164,285 L164,283 L164,280 L164,274 L165,267 L166,259 L168,251 L169,244 L171,238 L172,231 L173,225 L173,220 L174,215 L174,210 L175,205 L176,200 L176,195 L177,191 L178,187 L178,183 L179,179 L179,175 L179,172 L179,169 L180,167 L180,165 L180,163 L180,162 L180,161 L180,160 L180,159 L180,161 L180,163 L180,167 L180,171 L180,176 L180,182 L180,188 L180,193 L180,199 L180,205 L180,210 L180,216 L180,222 L180,227 L180,232 L180,236 L179,241 L179,245 L179,249 L179,254 L179,258 L179,261 L179,265 L179,268 L180,271 L180,273 L180,275 L180,276 L180,277 L180,276 L180,275 L180,271 L180,267 L180,261 L181,254 L181,247 L182,240 L183,234 L183,229 L183,224 L184,219 L184,214 L185,209 L185,204 L185,200 L186,195 L186,191 L186,188 L187,185 L187,183 L187,181 L187,180 L186,179 L186,178 L186,179 L186,181 L186,184 L185,188 L185,193 L185,198 L185,203 L185,207 L185,212 L185,216 L185,219 L185,222 L185,224 L184,226 L184,227 L184,228 L184,227 L185,225 L185,222 L186,217 L188,211 L190,205 L191,200 L193,196 L193,194 L193,193 L193,196 L192,200 L191,205 L190,210 L189,215 L188,220 L188,222 L188,221 L189,219 L190,215 L191,211 L193,207 L195,203 L196,201 L197,201 L197,202 L197,205 L197,208 L197,212 L197,216 L197,220 L197,222 L197,223 L198,222 L198,219 L199,214 L200,208 L202,201 L204,193 L206,187 L208,182 L210,177 L211,173 L212,170 L212,168 L212,167 L212,168 L212,170 L211,174 L211,179 L210,184 L209,190 L208,196 L207,202 L207,208 L206,214 L206,219 L206,224 L206,229 L205,234 L205,239 L204,244 L203,249 L202,254 L202,258 L202,262 L201,266 L201,270 L200,274 L200,278 L200,281 L200,283 L200,286 L200,288 L200,291 L200,293 L199,295 L199,298 L199,300 L198,301 L198,303 L198,304 L197,305 L197,306 L197,305 L196,303 L196,301 L196,298 L196,295 L195,292 L195,289 L195,286 L195,283 L195,280 L195,278 L195,275 L195,272 L195,270 L195,267 L195,264 L195,261 L195,257 L195,253 L196,249 L196,245 L196,242 L197,238 L197,234 L197,231 L198,227 L198,224 L198,220 L198,216 L199,212 L200,208 L200,205 L200,200 L201,196 L201,192 L202,188 L202,183 L203,179 L204,175 L205,171 L205,168 L206,164 L207,161 L207,158 L208,156 L209,155 L209,154 L209,153 L209,152 L209,153 L210,153 L210,154 L210,155 L210,156 L210,157 L211,158 L211,159 L211,161 L211,163 L211,164 L211,166 L211,168 L211,170 L211,172 L211,174 L210,176 L210,179 L210,181 L210,184 L210,186 L210,189 L210,192 L209,195 L209,198 L209,202 L209,205 L209,208 L209,212 L208,215 L208,218 L208,221 L208,224 L208,227 L207,229 L207,232 L207,234 L207,237 L207,239 L207,241 L207,243 L207,245 L207,246 L207,247 L207,248 L207,249 L207,250 L208,250 L208,249 L209,246 L211,242 L213,235 L215,228 L217,223 L219,220 L220,218 L220,217 L220,216 L220,217 L220,220 L220,224 L220,227 L220,231 L220,234 L220,236 L221,237 L222,234 L223,231 L224,227 L227,223 L228,220 L229,218 L230,218 L230,220 L230,222 L230,225 L230,228 L230,230 L231,232 L231,231 L232,229 L232,226 L233,224 L233,223 L234,223 L234,225 L234,228 L234,231 L234,234 L234,236 L234,235 L234,233 L235,229 L235,224 L236,218 L237,211 L238,205 L239,199 L240,194 L241,189 L241,185 L242,181 L242,177 L243,173 L244,171 L244,168 L245,165 L246,163 L246,162 L246,163 L246,164 L246,166 L246,167 L246,169 L246,171 L246,172 L246,174 L246,176 L246,179 L246,181 L245,184 L244,187 L243,190 L242,193 L242,197 L241,200 L240,204 L239,207 L239,211 L239,214 L238,218 L238,222 L237,225 L237,229 L236,233 L236,237 L235,241 L234,244 L234,248 L233,252 L233,256 L232,261 L231,265 L230,268 L229,273 L229,276 L229,280 L229,283 L228,287 L228,290 L227,293 L227,295 L227,298 L227,300 L226,302 L226,303 L226,304 L226,303 L226,300 L227,297 L228,293 L229,288 L230,283 L231,278 L232,273 L232,268 L233,264 L234,259 L234,254 L234,248 L235,243 L236,237 L236,232 L237,227 L239,222 L240,217 L241,213 L243,208 L244,204 L245,200 L247,195 L248,191 L250,188 L251,184 L252,180 L253,177 L254,173 L254,170 L255,168 L255,166 L255,164 L256,163 L256,164 L256,166 L256,169 L256,173 L256,176 L256,181 L256,186 L255,190 L255,195 L254,199 L254,203 L253,207 L252,212 L252,216 L251,220 L251,224 L250,228 L249,232 L248,235 L248,238 L247,242 L246,245 L246,248 L246,251 L245,254 L244,257 L244,261 L243,264 L242,266 L242,269 L242,273 L241,276 L240,278 L240,281 L239,284 L239,286 L238,288 L238,289 L238,290 L238,291 L238,292 L237,293 L237,294 L237,295 L237,297 L237,298 L237,300 L237,302 L237,303 L237,304 L237,305 L237,304 L237,302 L237,300 L237,297 L237,293 L237,289 L237,284 L237,280 L238,276 L239,271 L239,267 L240,263 L241,259 L241,255 L242,251 L243,246 L244,242 L245,237 L246,233 L247,228 L248,224 L249,219 L250,215 L251,210 L252,206 L254,202 L255,198 L256,193 L258,190 L259,187 L260,184 L261,182 L262,180 L263,178 L263,176 L264,174 L264,173 L264,172 L265,171 L265,170 L265,169 L265,168 L266,168 L266,167 L266,166 L266,165 L266,164 L266,163 L266,162 L266,163 L266,164 L265,166 L265,170 L264,174 L263,178 L262,182 L261,186 L260,189 L259,193 L259,196 L259,199 L258,202 L257,205 L257,207 L256,210 L256,212 L256,214 L255,215 L255,216 L255,217 L254,220 L254,223 L253,226 L252,229 L252,231 L251,233 L251,234 L251,236 L250,237 L250,238 L250,239 L250,238 L251,236 L252,231 L254,225 L255,218 L256,214 L257,212 L258,212 L258,213 L258,215 L257,219 L257,222 L257,224 L257,226 L257,227 L258,227 L259,225 L261,222 L263,218 L265,215 L265,213 L265,215 L265,219 L265,222 L265,224 L264,225 L264,224 L265,221 L266,216 L266,210 L268,202 L268,193 L269,187 L269,181 L270,177 L271,173 L271,169 L272,166 L273,162 L273,160 L274,157 L274,155 L274,154 L274,152 L275,151 L275,152 L275,154 L275,157 L274,161 L274,166 L273,173 L273,178 L273,184 L272,189 L272,194 L271,199 L271,204 L270,210 L269,215 L268,220 L267,226 L267,232 L266,237 L266,243 L265,249 L264,256 L263,262 L262,268 L261,274 L260,279 L260,283 L260,288 L260,291 L260,293 L260,295 L260,296 L260,295 L260,293 L261,290 L261,285 L263,280 L264,274 L265,268 L266,263 L267,258 L268,253 L269,248 L270,243 L271,237 L273,232 L274,226 L276,221 L277,215 L278,210 L279,206 L279,201 L280,197 L281,192 L282,188 L283,184 L283,180 L284,177 L284,174 L285,171 L286,168 L287,166 L287,163 L288,161 L288,158 L288,157 L288,156 L288,155 L288,156 L288,157 L288,159 L287,162 L286,166 L286,171 L285,175 L284,179 L284,182 L283,187 L283,191 L283,195 L283,200 L282,204 L282,209 L281,213 L281,217 L280,222 L279,226 L278,230 L278,234 L277,238 L276,241 L275,244 L274,246 L273,249 L273,251 L272,254 L272,255 L271,256 L271,258 L271,259 L271,261 L270,262 L270,264 L269,265 L269,266 L268,267 L268,268 L268,270 L267,272 L266,274 L266,276 L265,278 L264,280 L264,282 L263,284 L262,287 L261,289 L261,291 L261,293 L260,294 L260,295 L261,295 L261,294 L261,293 L262,291 L263,288 L264,285 L265,281 L266,277 L267,272 L268,267 L269,262 L270,256 L271,251 L273,246 L274,242 L276,237 L277,232 L278,227 L280,223 L282,220 L283,216 L283,213 L284,211 L284,209 L285,208 L285,207 L285,209 L286,212 L286,216 L286,220 L286,225 L286,229 L285,232 L286,231 L286,228 L288,224 L289,220 L290,215 L291,212 L292,210 L292,211 L292,214 L292,218 L291,222 L291,226 L291,229 L291,230 L291,229 L291,227 L292,223 L293,218 L294,212 L295,206 L297,201 L299,198 L300,195 L300,198 L299,203 L298,209 L298,214 L298,219 L298,222 L299,223 L300,223 L301,223 L302,221 L303,218 L305,215 L307,211 L308,208 L308,207 L309,207 L309,210 L308,214 L308,218 L308,222 L308,224 L308,225 L309,224 L309,223 L310,220 L310,216 L312,210 L313,202 L314,195 L315,188 L315,183 L315,178 L315,175 L315,172 L314,171 L314,170 L314,172 L314,176 L313,182 L313,189 L313,197 L311,205 L310,213 L310,220 L310,227 L310,234 L309,241 L308,248 L306,255 L304,261 L303,268 L301,274 L300,281 L300,286 L300,291 L300,295 L300,297 L301,299 L301,300 L302,299 L302,296 L303,291 L305,285 L307,278 L308,270 L310,262 L312,256 L314,248 L316,242 L318,235 L320,228 L321,222 L322,217 L322,211 L323,206 L324,202 L325,198 L325,193 L326,188 L327,184 L327,180 L328,176 L329,172 L330,169 L330,166 L331,163 L332,161 L332,158 L332,156 L332,154 L332,153 L332,151 L332,150 L332,149 L332,150 L332,152 L332,154 L331,157 L330,162 L328,168 L327,173 L325,179 L325,184 L324,189 L323,195 L322,200 L321,206 L320,211 L319,216 L317,220 L316,224 L315,228 L314,232 L314,234 L313,237 L313,238 L313,239 L313,237 L314,234 L315,229 L317,224 L319,217 L322,210 L323,205 L324,204 L324,203 L324,204 L323,206 L323,210 L322,215 L321,221 L320,227 L320,231 L320,234 L320,235 L320,236 L320,235 L321,232 L322,227 L324,221 L327,212 L330,202 L332,195 L334,190 L336,185 L337,182 L338,180 L339,179 L339,182 L338,186 L337,191 L336,197 L335,205 L334,212 L334,220 L334,226 L334,232 L334,236 L334,239 L335,242 L335,244 L336,242 L337,237 L339,232 L341,224 L344,217 L345,211 L347,207 L347,205 L348,203 L348,205 L347,210 L346,215 L345,219 L344,223 L344,225 L344,226 L344,225 L344,223 L346,220 L347,215 L349,210 L351,205 L352,203 L352,202 L352,203 L352,205 L352,207 L352,210 L352,213 L352,217 L353,219 L353,220 L354,220 L355,219 L357,217 L359,214 L360,210 L362,207 L363,206 L364,205 L365,204 L365,203 L366,202 L366,201 L366,199 L367,196 L367,192 L368,188 L368,184 L369,180 L369,176 L369,173 L369,171 L369,173 L369,177 L369,182 L369,188 L368,195 L366,203 L365,210 L364,217 L362,224 L361,229 L360,235 L359,241 L358,246 L357,251 L356,254 L355,258 L354,260 L354,261 L354,259 L356,254 L357,249 L359,241 L361,230 L364,221 L366,213 L368,207 L370,202 L371,198 L372,195 L373,193 L373,195 L373,198 L373,204 L373,210 L373,215 L372,221 L372,225 L372,227 L372,229 L372,228 L373,226 L374,222 L376,217 L377,211 L379,207 L380,205 L380,204 L380,205 L380,208 L379,212 L379,217 L379,221 L378,224 L378,226 L379,226 L379,225 L379,224 L380,222 L381,217 L382,211 L384,203 L386,197 L389,192 L391,187 L393,183 L394,180 L395,176 L396,172 L397,168 L397,165 L398,162 L398,158 L399,156 L399,153 L399,151 L399,149 L399,147 L399,145 L399,144 L398,147 L398,151 L397,156 L396,162 L396,169 L395,175 L394,180 L393,186 L393,192 L392,197 L391,202 L391,207 L390,212 L389,217 L388,221 L386,226 L385,231 L383,236 L382,241 L382,247 L381,253 L381,258 L381,263 L381,268 L380,272 L380,276 L380,281 L380,283 L380,286 L380,289 L380,291 L379,292 L379,293 L379,294 L379,293 L379,292 L379,290 L379,288 L379,286 L379,283 L379,280 L380,276 L380,273 L381,269 L381,265 L381,261 L382,256 L382,252 L383,247 L384,243 L386,238 L386,233 L387,229 L388,225 L389,221 L390,218 L391,214 L392,210 L393,206 L394,202 L396,199 L396,195 L397,192 L398,189 L399,186 L400,183 L400,180 L401,178 L401,176 L401,174 L401,173 L401,174 L401,176 L401,178 L401,181 L401,185 L400,190 L399,194 L399,199 L398,203 L398,207 L398,210 L398,212 L399,213 L399,212 L399,210 L400,207 L401,202 L403,198 L404,193 L405,188 L406,186 L407,185 L407,186 L407,189 L406,193 L406,197 L406,202 L406,206 L406,209 L406,211 L406,212 L406,211 L407,209 L408,206 L410,202 L412,197 L414,192 L416,188 L417,186 L418,185 L418,186 L418,188 L417,192 L417,195 L417,199 L417,202 L417,205 L417,206 L417,207 L418,207 L418,206 L418,204 L420,202 L421,198 L423,195 L424,190 L426,187 L428,184 L429,182 L430,180 L431,179 L431,180 L431,181 L430,184 L430,187 L430,191 L429,195 L429,199 L429,202 L429,204 L429,205 L429,204 L430,202 L431,200 L432,197 L433,193 L434,189 L435,186 L435,185 L435,186 L435,187 L435,189 L434,193 L434,198 L433,203 L432,207 L432,212 L430,216 L430,219 L429,223 L428,226 L428,227 L427,229 L427,231 L427,232 L427,235 L426,237 L426,240 L426,243 L426,246 L426,248 L425,251 L425,254 L425,256 L425,258 L425,260 L425,261 L425,262 L425,263 L425,264 L425,263 L425,261 L426,258 L427,253 L430,246 L432,238 L434,231 L435,224 L437,218 L439,211 L441,205 L442,199 L444,193 L445,187 L447,182 L448,177 L449,173 L451,169 L452,165 L453,162 L454,159 L454,157 L454,156 L454,157 L454,159 L453,164 L452,170 L452,176 L451,183 L450,190 L449,197 L447,203 L446,210 L444,217 L442,223 L440,230 L437,236 L435,242 L432,249 L430,255 L427,262 L426,269 L424,276 L423,282 L423,288 L422,293 L422,298 L421,301 L421,303 L421,305 L421,303 L422,301 L423,298 L424,295 L425,292 L427,288 L429,284 L431,279 L433,273 L435,268 L436,262 L437,257 L438,251 L440,245 L441,239 L443,233 L445,227 L447,221 L448,216 L450,211 L451,206 L452,201 L454,196 L454,192 L455,188 L457,183 L458,179 L459,174 L461,170 L462,167 L463,163 L464,159 L466,155 L467,152 L468,148 L469,145 L470,143 L471,140 L471,139 L471,138 L471,139 L471,141 L470,144 L469,148 L467,153 L466,158 L464,165 L463,171 L462,175 L461,180 L459,185 L459,190 L457,194 L456,198 L455,202 L454,207 L453,210 L452,215 L450,219 L449,223 L448,227 L447,232 L446,236 L445,240 L445,244 L445,246 L444,249 L444,252 L444,254 L444,255 L444,254 L445,251 L447,246 L449,240 L452,232 L454,224 L457,217 L459,211 L461,207 L463,204 L464,201 L464,200 L464,199 L464,200 L464,202 L464,207 L463,212 L462,218 L462,224 L461,228 L461,232 L461,234 L461,235 L462,233 L463,229 L464,224 L467,218 L469,211 L472,205 L474,200 L476,196 L478,193 L479,189 L480,187 L481,185 L481,184 L481,185 L480,189 L479,195 L477,200 L476,206 L476,210 L476,213 L476,214 L476,213 L477,210 L479,207 L480,203 L481,200 L481,203 L481,208 L480,216 L479,224 L477,233 L476,242 L475,250 L474,259 L474,267 L473,275 L472,283 L471,291 L470,298 L470,303 L469,309 L469,313 L469,316 L469,319 L470,320 L470,321 L470,322 L470,320 L471,318 L471,314 L472,309 L473,302 L475,293 L476,284 L478,277 L480,271 L481,266 L483,262 L484,259 L484,256 L485,254 L485,253 L485,252 L485,254 L485,257 L484,261 L483,266 L482,272 L481,278 L479,283 L479,287 L479,291 L479,293 L479,294 L479,292 L480,289 L481,284 L483,277 L484,269 L486,263 L487,261 L487,262 L487,264 L487,268 L487,274 L487,279 L487,284 L487,288 L488,291 L489,289 L489,286 L490,281 L491,275 L492,268 L493,264 L495,262 L496,263 L496,266 L498,269 L498,272 L498,274 L498,275 L498,276 L498,275 L498,274 L498,272 L497,268 L497,261 L498,254 L498,246 L500,239 L501,232 L503,228 L504,224 L505,220 L507,216 L509,213 L511,211 L512,211 L513,212 L514,215 L514,220 L513,226 L512,232 L511,238 L510,243 L510,247 L510,249 L510,251 L510,250 L511,249 L512,245 L514,241 L516,236 L518,231 L520,229 L520,232 L520,236 L520,242 L519,247 L519,251 L519,254 L519,251 L520,248 L520,243 L521,236 L523,227 L524,219 L525,211 L527,205 L528,199 L530,192 L533,186 L537,179 L540,173 L542,168 L544,165 L546,161 L547,160 L548,158 L548,159 L548,161 L548,165 L547,169 L546,173 L545,178 L544,184 L542,190 L541,195 L540,201 L538,207 L537,213 L537,219 L535,225 L535,230 L533,237 L532,244 L530,250 L529,257 L527,264 L526,271 L524,278 L523,285 L522,292 L520,298 L519,304 L518,309 L517,313 L516,315 L516,316 L516,315 L517,311 L518,305 L520,299 L522,291 L524,281 L526,273 L528,265 L530,258 L533,251 L535,244 L537,237 L538,232 L540,225 L542,220 L543,215 L544,210 L545,207 L545,204 L545,202 L545,200 L546,199 L546,201 L545,205 L544,209 L542,215 L541,222 L540,227 L539,231 L539,233 L539,234 L539,233 L540,230 L542,226 L544,222 L546,216 L548,211 L550,208 L550,207 L551,208 L551,210 L551,214 L551,218 L550,222 L550,225 L550,227 L551,226 L551,225 L552,223 L554,220 L556,217 L557,214 L558,213 L559,213 L559,217 L559,221 L559,225 L559,229 L560,230 L560,231 L561,231 L562,229 L563,226 L564,223 L565,219 L566,217 L567,218 L567,221 L567,224 L568,227 L568,229 L568,232 L567,233 L567,234 L567,233 L567,231 L568,228 L569,223 L572,217 L574,210 L577,204 L578,200 L580,196 L582,193 L583,190 L584,188 L585,186 L586,186 L586,188 L585,191 L583,196 L582,202 L581,209 L579,217 L577,225 L576,232 L574,240 L572,247 L570,255 L568,263 L566,270 L564,277 L563,283 L562,289 L561,295 L560,299 L559,303 L558,306 L557,308 L557,310 L557,311 L556,311 L556,310 L557,308 L557,305 L558,301 L559,295 L562,288 L564,278 L567,269 L568,261 L571,253 L573,244 L576,237 L579,229 L582,222 L584,216 L587,209 L590,204 L591,200 L593,196 L594,193 L595,191 L596,190 L596,191 L595,194 L594,199 L592,205 L591,210 L589,216 L587,223 L584,229 L582,235 L580,242 L579,247 L577,254 L575,260 L573,266 L571,272 L570,278 L569,284 L568,289 L567,293 L567,296 L566,298 L567,295 L568,291 L569,285 L572,278 L574,270 L576,262 L579,254 L581,246 L584,239 L586,230 L589,222 L592,215 L595,207 L598,199 L600,192 L602,185 L604,178 L606,173 L607,168 L609,164 L611,160 L612,157 L614,155 L615,154 L615,155 L614,158 L613,163 L612,168 L611,173 L610,180 L608,186 L607,193 L605,199 L604,205 L602,211 L601,216 L600,222 L599,227 L597,233 L595,239 L594,244 L592,250 L590,255 L589,260 L587,265 L586,269 L585,274 L584,278 L584,281 L583,284 L583,287 L582,289 L582,291 L582,292 L582,291 L582,289 L583,286 L585,281 L587,275 L590,267 L594,259 L597,251 L600,244 L603,237 L606,229 L609,223 L611,217 L614,212 L616,207 L617,202 L619,198 L620,195 L621,193 L621,191 L621,190 L621,192 L621,195 L619,200 L618,205 L616,210 L615,216 L613,221 L612,224 L611,225 L611,224 L612,223 L614,220 L616,217 L618,212 L620,208 L621,205 L621,207 L621,210 L620,215 L619,221 L618,226 L617,230 L616,233 L616,235 L616,236 L617,235 L618,233 L620,229 L622,224 L625,219 L628,215 L628,214 L628,216 L628,220 L626,225 L625,230 L623,236 L622,240 L622,243 L622,244 L622,243 L623,241 L625,237 L627,232 L629,227 L631,223 L633,220 L633,219 L634,219 L634,218 L634,219 L634,221 L633,225 L633,229 L632,234 L631,237 L631,240 L631,242 L632,240 L633,237 L635,234 L637,229 L639,225 L641,221 L643,218 L643,217 L643,216 L643,217 L643,219 L643,222 L642,224 L641,227 L640,230 L639,232 L639,233 L639,232 L639,231 L640,229 L640,227 L641,224 L643,220 L645,214 L647,208 L649,203 L650,198 L652,193 L653,189 L655,184 L655,180 L657,176 L658,172 L660,169 L662,166 L663,163 L665,161 L665,159 L665,158 L665,160 L665,163 L664,166 L663,171 L662,176 L660,181 L659,187 L657,192 L655,197 L654,202 L652,208 L650,214 L648,219 L645,225 L643,231 L641,237 L640,243 L638,249 L637,254 L635,260 L633,265 L632,270 L630,275 L628,280 L627,284 L625,288 L623,291 L623,294 L622,297 L621,298 L621,299 L621,300 L621,299 L621,297 L622,294 L623,289 L624,283 L626,276 L628,269 L631,263 L633,258 L635,252 L637,247 L639,242 L641,237 L644,232 L646,227 L648,222 L651,217 L652,212 L655,208 L656,205 L657,201 L659,199 L660,197 L660,195 L660,197 L659,200 L658,205 L657,209 L656,214 L655,219 L655,223 L654,227 L654,229 L653,231 L653,232 L654,232 L655,232 L656,229 L658,226 L662,221 L664,217 L666,214 L667,213 L667,214 L667,215 L666,217 L665,221 L663,225 L662,229 L662,232 L662,234 L663,232 L665,230 L667,226 L669,223 L670,220 L670,222 L670,225 L670,229 L670,233 L670,237 L669,241 L669,243 L669,244 L670,243 L670,241 L671,237 L673,232 L674,226 L676,221 L678,215 L680,211 L682,207 L683,202 L684,198 L685,195 L686,191 L687,188 L688,185 L689,182 L689,180 L690,177 L690,174 L691,172 L692,169 L692,167 L693,164 L694,162 L695,160 L696,158 L696,156 L697,154 L697,152 L698,151 L698,150 L698,149 L698,150 L698,151 L697,154 L696,157 L695,162 L694,167 L693,173 L692,178 L691,183 L691,189 L690,193 L690,198 L690,202 L689,205 L689,207 L689,206 L691,203 L692,199 L694,193 L697,188 L699,183 L700,179 L701,177 L702,174 L703,173 L703,172 L703,171 L703,173 L702,174 L701,176 L699,179 L697,183 L695,186 L693,190 L691,194 L689,197 L687,201 L686,205 L684,208 L682,212 L681,217 L679,221 L678,224 L676,229 L674,232 L672,236 L671,239 L669,242 L668,245 L666,248 L665,251 L663,254 L662,258 L660,261 L660,263 L658,266 L658,268 L657,271 L657,274 L656,277 L655,280 L654,283 L652,285 L652,287 L651,289 L651,291 L651,290 L652,288 L653,285 L654,281 L656,278 L658,273 L661,269 L663,266 L667,262 L669,259 L672,255 L674,251 L676,247 L678,244 L681,239 L684,236 L686,232 L688,228 L690,224 L692,220 L694,215 L697,210 L699,206 L702,201 L704,196 L706,192 L708,188 L710,185 L711,182 L712,179 L712,177 L713,176 L713,175 L714,174 L714,175 L713,178 L713,180 L712,184 L711,188 L711,193 L710,198 L709,203 L709,208 L707,213 L706,218 L705,223 L704,228 L703,233 L702,237 L701,241 L700,244 L700,247 L699,249 L699,251 L699,249 L699,248 L700,245 L701,242 L702,237 L704,232 L706,225 L709,219 L710,212 L712,205 L714,199 L716,193 L718,187 L720,183 L722,179 L723,176 L724,175 L724,174 L724,176 L724,178 L723,183 L722,188 L721,193 L719,198 L718,202 L718,205 L717,206 L718,205 L719,202 L721,198 L724,193 L727,188 L729,185 L731,184 L731,185 L730,188 L729,192 L728,195 L726,199 L726,201 L726,202 L726,201 L726,200 L728,196 L729,192 L731,186 L733,180 L735,175 L736,171 L737,168 L738,165 L738,163 L738,162 L738,163 L738,165 L737,169 L736,173 L735,177 L734,182 L733,185 L733,189 L733,191 L733,192 L733,193 L735,190 L738,187 L740,183 L743,178 L746,173 L747,171 L747,173 L746,175 L745,178 L745,181 L744,183 L743,185 L743,184 L744,182 L745,179 L745,175 L746,170 L748,166 L749,161 L750,158 L752,156 L753,155 L753,154 L753,155 L753,158 L751,162 L750,166 L748,172 L746,178 L745,185 L743,190 L742,197 L741,203 L740,209 L739,215 L738,220 L738,226 L737,232 L736,237 L736,242 L735,248 L734,253 L733,258 L732,263 L731,268 L730,272 L729,276 L728,279 L727,281 L726,283 L726,284 L726,285 L726,284 L726,282 L727,279 L728,275 L730,269 L733,263 L735,257 L738,251 L740,244 L742,239 L744,233 L745,227 L747,221 L749,215 L751,209 L754,204 L756,198 L759,193 L761,188 L762,182 L765,176 L766,171 L767,166 L769,161 L770,157 L771,153 L772,149 L773,146 L773,143 L773,141 L773,139 L773,138 L773,139 L773,140 L773,141 L773,143 L773,145 L772,147 L771,151 L770,154 L768,157 L767,161 L766,164 L765,168 L763,173 L762,176 L760,181 L759,185 L757,189 L755,193 L754,197 L753,200 L752,204 L750,207 L750,209 L749,210 L749,211 L749,212 L750,210 L751,207 L753,205 L755,200 L758,196 L761,191 L763,187 L765,184 L766,181 L767,179 L768,178 L769,177 L769,176 L769,178 L769,180 L769,184 L768,188 L767,192 L767,197 L766,200 L766,202 L766,204 L766,205 L767,204 L767,203 L769,200 L772,196 L774,193 L776,189 L777,188 L778,187 L778,188 L777,188 L777,190 L776,194 L775,198 L773,203 L772,207 L772,210 L771,211 L771,212 L771,211 L772,211 L772,210 L773,207 L774,205 L775,202 L776,200 L776,202 L776,205 L776,207 L776,210 L776,211 L777,212 L778,212 L778,211 L780,209 L781,206 L782,202 L784,197 L786,190 L789,186 L791,181 L792,178 L794,175 L795,173 L796,171 L797,170 L797,169 L797,170 L796,171 L795,174 L794,178 L792,182 L791,187 L789,192 L787,198 L784,202 L783,208 L781,213 L780,218 L778,223 L776,228 L775,234 L773,239 L772,245 L770,250 L769,255 L767,260 L767,264 L765,268 L765,271 L764,273 L764,275 L763,276 L763,274 L764,272 L765,269 L766,265 L767,260 L770,254 L773,248 L775,243 L777,238 L780,233 L782,228 L783,223 L785,219 L787,214 L789,209 L792,205 L794,200 L796,197 L797,193 L798,190 L799,189 L800,188 L800,189 L799,192 L798,195 L797,200 L796,204 L794,208 L794,211 L793,213 L793,214 L793,215 L794,214 L794,212 L796,210 L798,206 L801,203 L802,200 L804,199 L804,198 L804,199 L804,200 L804,203 L803,206 L802,210 L802,213 L802,215 L802,217 L803,216 L805,213 L806,210 L809,207 L810,205 L811,204 L811,205 L811,207 L811,210 L811,212 L812,215 L812,217 L812,219 L813,220 L813,219 L813,217 L814,214 L816,209 L818,203 L820,197 L822,191 L824,185 L826,180 L828,174 L830,168 L831,163 L833,157 L834,152 L835,147 L837,142 L838,138 L839,134 L840,131 L840,128 L841,126 L841,125 L841,124 L841,125 L840,127 L839,131 L838,135 L837,140 L835,146 L833,151 L831,156 L828,162 L826,168 L824,174 L821,180 L819,186 L817,193 L816,200 L814,207 L811,214 L810,221 L808,227 L806,233 L804,239 L803,244 L802,249 L801,254 L800,259 L799,262 L799,265 L799,267 L798,269 L798,270 L798,268 L799,265 L800,261 L802,256 L804,250 L807,243 L810,237 L813,231 L816,224 L818,218 L820,212 L823,207 L825,203 L827,200 L828,196 L830,194 L831,193 L831,195 L831,200 L830,204 L829,209 L828,215 L828,219 L827,223 L827,226 L827,227 L828,228 L828,227 L829,224 L831,220 L833,215 L836,209 L838,205 L839,202 L839,203 L838,205 L838,207 L837,210 L836,213 L836,215 L836,217 L837,215 L838,213 L839,210 L840,209 L841,209 L841,210 L841,213 L841,216 L841,218 L842,220 L842,219 L842,217 L843,213 L845,208 L847,202 L849,193 L851,186 L853,180 L855,173 L857,169 L858,165 L860,161 L861,158 L862,155 L863,153 L864,151 L865,149 L866,147 L867,145 L868,144 L869,142 L870,141 L870,139 L870,138 L871,137 L871,138 L871,141 L870,146 L870,151 L868,158 L868,164 L866,170 L865,176 L865,180 L863,184 L863,188 L862,190 L861,191 L861,190 L862,187 L864,182 L866,176 L868,170 L871,163 L873,157 L875,153 L876,149 L877,146 L877,144 L878,144 L878,145 L877,148 L876,152 L874,157 L873,165 L870,173 L868,181 L865,188 L864,195 L861,204 L860,212 L858,220 L855,227 L853,234 L851,241 L849,247 L847,252 L846,256 L844,259 L843,261 L843,262 L843,261 L844,258 L846,253 L849,246 L852,238 L856,230 L858,223 L861,216 L864,209 L866,205 L868,200 L869,198 L869,196 L869,197 L869,199 L868,203 L867,207 L865,213 L864,219 L862,224 L861,227 L860,230 L860,231 L861,229 L864,226 L867,222 L870,216 L874,211 L877,207 L878,205 L879,205 L879,207 L879,210 L879,214 L879,218 L879,221 L879,223 L879,224 L880,225 L880,224 L882,222 L883,219 L885,215 L887,214 L887,212 L888,211 L889,210 L890,211 L890,214 L890,218 L890,223 L890,229 L889,232 L889,236 L889,237 L889,234 L890,231 L891,226 L892,219 L895,210 L897,203 L899,195 L900,188 L902,182 L903,175 L904,168 L904,163 L905,157 L906,152 L907,148 L908,144 L909,141 L909,139 L910,139 L910,138 L910,139 L910,141 L910,146 L909,151 L909,157 L907,164 L906,172 L905,178 L904,184 L903,190 L903,194 L903,197 L903,199 L903,200 L903,199 L904,196 L905,191 L908,185 L911,178 L914,171 L916,165 L917,162 L918,161 L918,160 L918,161 L917,164 L916,169 L914,174 L912,180 L911,184 L910,188 L910,189 L910,190 L910,189 L911,188 L912,184 L914,179 L917,174 L919,168 L920,164 L921,163 L921,162 L921,163 L921,164 L921,168 L921,171 L920,175 L920,179 L920,182 L920,184 L920,185 L920,184 L921,183 L923,180 L924,177 L926,174 L927,172 L928,171 L929,170 L929,171 L928,171 L928,173 L927,176 L926,179 L926,183 L925,187 L924,190 L924,192 L924,193 L924,192 L925,190 L927,185 L929,179 L931,172 L934,165 L936,159 L937,154 L939,149 L940,144 L941,140 L942,136 L943,134 L943,133 L944,132 L944,133 L945,135 L945,138 L945,143 L944,148 L943,155 L941,161 L939,168 L937,174 L935,180 L934,186 L934,191 L934,195 L934,197 L934,199 L935,198 L936,195 L938,190 L941,185 L943,178 L946,173 L948,168 L951,165 L955,162 L960,160 L966,159" fill="none" stroke="red" stroke-width="3"/></svg>