<svg xmlns="http://www.w3.org/2000/svg" version="1.1" xmlns:xlink="http://www.w3.org/1999/xlink" xmlns:svgjs="http://svgjs.dev/svgjs" width="950" height="375" id="chartSvg"><path d="M23,159 L23,160 L22,160 L23,159 L24,157 L25,155 L28,152 L31,148 L35,143 L38,139 L40,136 L42,135 L44,134 L45,133 L46,132 L47,132 L48,132 L48,133 L49,133 L50,133 L51,133 L51,134 L52,134 L53,134 L54,134 L55,132 L57,131 L60,128 L63,126 L66,123 L68,121 L70,120 L71,119 L72,118 L73,118 L74,119 L75,120 L76,121 L77,122 L78,124 L79,125 L80,127 L80,128 L80,129 L81,132 L81,133 L82,135 L82,138 L83,141 L83,145 L84,149 L85,153 L85,156 L86,161 L87,165 L88,169 L89,173 L90,177 L92,181 L93,185 L95,188 L96,192 L98,195 L100,198 L100,202 L102,205 L103,207 L105,207 L106,209 L107,210 L108,212 L109,212 L110,212 L111,211 L112,208 L113,205 L114,202 L115,198 L117,193 L118,188 L119,184 L121,180 L122,178 L123,175 L124,173 L125,172 L126,171 L127,171 L128,170 L129,169 L130,168 L131,167 L133,166 L134,165 L135,165 L136,164 L137,164 L138,164 L139,165 L139,166 L139,167 L140,168 L141,170 L141,171 L142,174 L143,177 L144,179 L145,182 L146,184 L146,185 L147,188 L148,190 L149,191 L150,193 L151,194 L151,195 L152,196 L153,198 L154,199 L155,200 L156,201 L157,202 L158,203 L159,205 L161,205 L161,206 L163,207 L164,208 L165,209 L166,210 L168,211 L169,212 L170,212 L171,212 L173,213 L174,213 L175,214 L176,215 L177,215 L178,216 L179,217 L180,218 L181,219 L182,220 L183,221 L185,222 L186,223 L188,223 L190,223 L192,223 L195,223 L197,223 L198,222 L200,222 L202,221 L204,220 L206,219 L209,219 L212,218 L215,216 L217,214 L220,212 L224,210 L228,207 L231,204 L234,202 L236,200 L238,198 L239,196 L242,195 L243,194 L245,193 L246,192 L247,192 L248,193 L249,193 L250,194 L252,194 L254,195 L256,195 L257,195 L259,195 L261,195 L263,194 L265,194 L267,194 L268,194 L270,194 L271,194 L273,194 L275,195 L277,196 L279,197 L281,198 L284,199 L287,200 L290,202 L294,202 L298,203 L303,204 L307,205 L311,205 L315,206 L320,206 L323,206 L327,206 L330,207 L333,207 L336,207 L339,207 L342,207 L345,207 L348,206 L350,206 L353,205 L355,204 L357,202 L359,200 L361,198 L362,196 L363,195 L364,193 L364,192 L365,191 L366,190 L367,190 L368,189 L369,189 L370,190 L371,190 L373,191 L375,192 L376,194 L379,196 L381,198 L382,200 L384,202 L387,204 L388,206 L391,208 L393,210 L395,212 L396,213 L398,215 L400,217 L401,218 L403,219 L405,220 L407,222 L408,223 L410,224 L412,224 L413,224 L415,225 L416,225 L418,225 L420,225 L423,225 L426,225 L430,224 L434,224 L440,222 L446,221 L452,219 L457,217 L463,216 L469,216 L474,216 L479,216 L484,217 L489,218 L492,220 L496,223 L501,225 L506,228 L511,231 L515,235 L520,239 L524,241 L529,243 L533,244 L538,246 L543,248 L548,248 L554,246 L560,244 L565,242 L572,240 L578,237 L583,234 L588,231 L592,227 L594,224 L596,221 L598,218 L599,215 L599,212 L600,209 L600,207 L600,205 L600,204 L600,202 L600,200 L600,198 L600,196 L599,195 L599,193 L599,192 L599,190 L598,187 L597,185 L597,184 L596,183 L596,184 L596,186 L596,189 L596,194 L596,199 L595,206 L595,214 L594,221 L594,229 L592,237 L591,243 L591,249 L591,254 L590,260 L590,265 L589,270 L590,274 L591,277 L592,280 L593,283 L594,284 L595,284 L595,282 L596,279 L596,275 L597,271 L598,267 L599,261 L601,256 L602,251 L604,247 L605,244 L606,242 L607,239 L608,237 L609,236 L610,236 L611,237 L613,239 L615,240 L617,241 L619,242 L621,242 L623,243 L626,244 L628,244 L631,244 L633,245 L635,245 L638,245 L640,245 L643,245 L645,245 L648,245 L650,246 L654,246 L657,247 L661,248 L665,249 L670,251 L673,252 L676,253 L680,254 L684,256 L687,257 L690,258 L694,258 L698,259 L702,260 L706,261 L711,262 L716,262 L721,263 L725,264 L728,265 L732,266 L736,266 L740,266 L742,267 L745,267 L748,268 L751,268 L754,268 L757,267 L760,267 L762,267 L765,267 L768,268 L772,268 L775,268 L778,269 L781,270 L783,270 L785,270 L786,270 L787,270 L787,269 L786,269 L786,268 L786,267 L786,266 L787,264 L788,262 L790,259 L792,256 L793,252 L793,248 L794,244 L794,242 L794,239 L795,238 L795,237 L796,236 L796,234 L796,232 L796,230 L796,229 L796,231 L796,233 L797,237 L798,244 L799,250 L800,256 L801,261 L802,266 L803,272 L803,278 L804,283 L805,287 L806,291 L807,293 L809,295 L810,295 L811,295 L812,295 L814,293 L816,289 L818,285 L820,281 L823,276 L826,271 L830,267 L833,264 L836,262 L840,261 L843,261 L847,261 L850,264 L854,265 L857,268 L861,270 L865,273 L870,276 L874,279 L878,282 L883,283 L888,283 L893,283 L898,283 L904,283 L909,283 L914,283 L920,283 L925,282 L930,282 L934,282 L936,281 L938,281 L939,279 L940,277 L940,276 L940,274 L940,271 L940,268 L940,265 L940,263 L941,261 L941,259 L940,258 L940,257 L940,256 L941,257" fill="none" stroke="red" stroke-width="3"/></svg>