<svg xmlns="http://www.w3.org/2000/svg" version="1.1" xmlns:xlink="http://www.w3.org/1999/xlink" xmlns:svgjs="http://svgjs.dev/svgjs" width="950" height="375" id="chartSvg"><path d="M11,249 L11,250 L11,250 L11,250 L11,251 L12,251 L12,252 L12,252 L12,253 L13,254 L13,255 L14,256 L14,256 L14,256 L14,256 L15,254 L17,252 L19,249 L20,247 L20,247 L20,248 L20,249 L21,252 L21,255 L21,256 L22,257 L22,256 L22,256 L22,256 L22,255 L22,255 L22,255 L23,255 L23,255 L23,255 L23,254 L24,253 L24,254 L24,254 L24,254 L25,254 L25,254 L25,255 L25,255 L26,256 L27,256 L27,257 L27,256 L28,255 L29,253 L29,253 L29,253 L30,254 L30,254 L30,254 L30,255 L31,255 L31,255 L31,255 L31,256 L32,256 L33,258 L33,258 L33,258 L33,258 L34,256 L35,255 L35,255 L35,255 L35,256 L35,256 L36,256 L36,256 L36,255 L36,254 L37,254 L37,254 L37,255 L37,256 L37,256 L38,256 L38,256 L38,256 L39,255 L39,255 L39,255 L39,255 L39,256 L40,256 L40,256 L40,256 L41,255 L41,254 L41,254 L41,254 L42,255 L43,256 L43,256 L44,257 L44,257 L44,257 L44,257 L44,256 L44,256 L45,255 L45,255 L45,255 L46,254 L46,254 L46,253 L46,254 L46,254 L47,254 L47,254 L47,254 L47,253 L47,253 L47,254 L48,254 L48,255 L48,255 L48,255 L48,255 L48,255 L49,255 L49,255 L49,255 L49,256 L50,255 L50,254 L51,253 L51,254 L51,254 L52,255 L52,255 L52,255 L52,255 L53,256 L53,256 L54,257 L54,257 L55,257 L55,257 L56,256 L57,255 L59,253 L59,253 L59,253 L60,254 L60,255 L62,257 L63,259 L64,260 L65,260 L65,260 L65,260 L65,259 L66,258 L67,257 L69,254 L69,254 L69,254 L69,255 L69,255 L70,256 L70,257 L71,257 L71,257 L71,257 L71,257 L72,258 L72,258 L73,259 L74,259 L75,259 L75,259 L77,258 L78,257 L79,255 L81,254 L82,254 L82,256 L83,258 L86,261 L86,262 L87,263 L87,263 L87,262 L88,260 L89,259 L89,258 L90,259 L90,259 L90,259 L90,259 L90,259 L90,260 L91,260 L91,261 L92,260 L92,260 L92,260 L92,260 L93,261 L93,261 L94,260 L94,260 L94,259 L96,258 L97,257 L97,258 L97,258 L98,259 L98,259 L99,259 L99,259 L100,258 L100,258 L100,258 L101,258 L101,259 L102,260 L104,261 L104,261 L105,261 L105,261 L105,261 L105,260 L106,260 L106,260 L106,260 L107,260 L107,259 L109,257 L109,257 L110,256 L110,257 L111,258 L111,258 L111,258 L111,258 L111,258 L112,257 L112,256 L113,257 L114,258 L114,259 L115,259 L116,260 L116,260 L116,259 L117,259 L117,258 L117,257 L118,257 L118,257 L118,258 L119,258 L119,259 L120,259 L120,259 L121,260 L121,260 L121,260 L122,259 L122,258 L123,258 L123,258 L123,258 L124,260 L125,261 L127,262 L127,262 L127,262 L128,262 L128,261 L129,260 L130,259 L130,259 L130,259 L130,260 L131,260 L131,260 L131,261 L131,260 L132,260 L132,260 L132,260 L133,262 L134,262 L135,263 L135,263 L135,263 L136,262 L136,262 L137,261 L137,261 L137,261 L138,261 L138,262 L138,262 L139,262 L139,261 L140,261 L140,261 L140,261 L140,261 L140,261 L141,261 L141,261 L141,261 L142,260 L144,258 L144,258 L144,258 L144,259 L145,259 L145,259 L145,259 L145,259 L146,259 L146,258 L146,259 L147,259 L147,260 L148,260 L148,260 L148,259 L148,259 L150,258 L150,257 L150,257 L151,258 L152,259 L153,261 L154,261 L154,261 L154,260 L155,260 L155,259 L155,259 L155,260 L156,260 L156,259 L156,259 L157,258 L157,258 L157,259 L158,259 L158,259 L159,259 L159,259 L159,259 L160,259 L160,259 L160,260 L160,260 L160,260 L160,260 L162,258 L163,257 L163,257 L163,257 L163,257 L164,258 L164,258 L164,259 L165,259 L165,259 L165,259 L165,259 L166,260 L166,260 L166,260 L166,260 L167,260 L167,260 L167,260 L167,260 L168,259 L169,258 L170,258 L170,258 L170,258 L171,259 L172,259 L173,260 L173,260 L173,260 L174,260 L174,259 L175,258 L175,258 L175,258 L175,259 L176,259 L177,260 L177,260 L178,260 L178,259 L179,259 L180,258 L180,258 L180,259 L181,259 L181,260 L182,261 L183,261 L184,262 L184,262 L185,262 L186,263 L186,263 L186,263 L187,262 L188,261 L189,259 L190,258 L190,258 L191,258 L191,258 L191,259 L192,259 L192,259 L192,259 L192,259 L192,259 L193,259 L193,259 L193,259 L194,259 L195,259 L195,259 L196,259 L197,258 L197,258 L197,258 L198,258 L198,258 L198,259 L199,260 L200,260 L201,260 L201,260 L201,260 L201,260 L202,259 L202,259 L202,260 L203,260 L203,260 L203,260 L204,261 L204,261 L204,261 L205,260 L206,259 L206,259 L207,258 L207,258 L207,258 L207,258 L208,259 L209,260 L210,260 L210,260 L210,260 L211,260 L212,259 L213,259 L213,258 L214,259 L214,259 L215,260 L218,262 L220,263 L221,263 L222,263 L222,263 L225,261 L226,260 L227,259 L227,259 L228,259 L228,259 L229,259 L230,260 L230,260 L231,259 L232,259 L233,258 L234,257 L235,257 L235,257 L235,258 L236,258 L237,258 L237,258 L237,259 L238,259 L238,259 L240,261 L240,261 L240,261 L240,261 L241,261 L241,262 L243,263 L244,263 L244,264 L244,264 L244,263 L245,263 L246,262 L246,262 L246,262 L246,262 L247,262 L247,263 L247,263 L248,263 L248,263 L248,262 L248,263 L248,263 L249,263 L249,264 L250,264 L251,264 L251,264 L251,264 L252,265 L253,266 L254,267 L255,267 L255,268 L256,268 L256,268 L256,267 L256,267 L256,267 L256,267 L256,267 L257,266 L257,265 L257,264 L257,264 L257,264 L257,263 L257,263 L258,262 L258,262 L258,261 L258,261 L258,260 L259,260 L259,259 L259,259 L259,258 L259,258 L260,259 L260,259 L260,260 L262,261 L264,264 L265,265 L265,266 L266,266 L266,266 L266,266 L266,266 L266,266 L266,266 L266,265 L266,265 L268,261 L269,257 L270,256 L270,255 L270,256 L270,256 L270,256 L270,257 L270,257 L271,259 L271,260 L271,261 L272,262 L272,262 L272,262 L272,262 L272,261 L272,262 L272,262 L272,262 L273,263 L273,263 L273,263 L273,262 L273,261 L274,260 L274,259 L274,259 L274,260 L275,260 L276,263 L277,263 L277,264 L277,264 L277,264 L277,263 L277,263 L278,263 L278,263 L278,263 L278,263 L278,263 L279,265 L280,266 L281,267 L282,267 L282,267 L282,265 L283,264 L284,262 L285,261 L285,262 L285,262 L285,262 L285,263 L286,263 L286,263 L287,263 L287,263 L287,263 L288,263 L288,262 L289,261 L289,261 L290,262 L290,262 L293,266 L295,267 L296,268 L297,268 L297,267 L298,266 L299,265 L299,265 L299,265 L300,265 L300,264 L300,264 L300,265 L300,265 L300,264 L301,264 L301,263 L302,263 L302,263 L302,264 L303,264 L303,265 L303,265 L304,265 L304,265 L304,265 L305,264 L305,263 L305,263 L305,264 L306,264 L306,265 L307,265 L307,265 L307,265 L307,264 L308,264 L308,264 L308,264 L308,264 L309,265 L310,265 L311,266 L311,266 L311,266 L312,266 L312,266 L314,263 L317,261 L317,260 L317,260 L317,260 L319,262 L320,263 L321,264 L321,264 L322,264 L322,264 L322,264 L322,264 L322,264 L323,264 L324,263 L325,262 L325,262 L325,263 L326,263 L326,263 L327,263 L327,263 L327,264 L327,264 L328,265 L328,265 L328,264 L329,263 L329,263 L331,261 L331,261 L331,261 L332,261 L332,262 L333,262 L334,263 L334,263 L334,263 L334,262 L335,262 L335,262 L336,262 L336,262 L336,262 L338,263 L339,264 L339,264 L339,263 L340,263 L340,263 L340,263 L340,263 L341,264 L342,265 L343,265 L343,265 L343,265 L344,265 L344,264 L345,263 L345,263 L345,263 L345,263 L346,263 L346,263 L346,263 L346,263 L346,263 L347,263 L347,263 L347,263 L349,265 L349,265 L350,265 L350,266 L350,266 L351,265 L351,265 L352,264 L354,262 L354,261 L355,262 L355,263 L356,263 L357,264 L357,265 L357,265 L358,264 L358,264 L359,263 L359,263 L359,264 L360,264 L360,264 L360,265 L361,265 L361,265 L362,264 L362,264 L362,265 L364,266 L366,267 L366,267 L367,267 L367,267 L368,267 L369,265 L371,263 L372,263 L372,262 L372,263 L373,264 L374,265 L375,266 L376,267 L376,267 L377,267 L377,267 L377,267 L377,267 L378,266 L379,265 L379,265 L379,265 L380,266 L381,267 L381,267 L382,267 L382,267 L382,267 L382,267 L383,267 L383,267 L383,267 L385,268 L386,268 L387,268 L387,268 L388,268 L388,268 L389,267 L389,267 L389,267 L390,268 L390,268 L391,268 L391,268 L392,268 L393,267 L393,266 L393,266 L393,266 L394,267 L394,267 L394,267 L395,268 L395,268 L396,268 L396,268 L396,268 L397,267 L397,267 L397,267 L397,267 L397,267 L398,268 L398,268 L398,268 L399,268 L399,268 L400,267 L400,267 L400,267 L400,268 L400,268 L400,268 L400,268 L400,268 L400,268 L401,268 L401,269 L401,268 L401,268 L401,269 L401,269 L402,269 L402,269 L402,269 L403,268 L403,268 L403,268 L404,268 L404,268 L404,269 L405,270 L406,270 L406,270 L406,270 L406,270 L407,269 L407,269 L409,267 L409,267 L409,267 L410,267 L410,268 L411,269 L411,269 L411,269 L411,268 L412,268 L414,266 L415,265 L415,265 L416,265 L416,266 L417,266 L417,266 L417,267 L417,267 L417,266 L418,266 L418,266 L418,266 L418,266 L419,267 L419,267 L420,267 L420,267 L420,267 L421,266 L422,265 L423,265 L423,265 L424,266 L425,267 L426,268 L426,268 L426,268 L427,267 L427,266 L428,266 L428,266 L428,266 L428,266 L429,266 L429,267 L429,267 L429,267 L429,266 L430,266 L430,266 L430,265 L431,265 L431,266 L431,267 L432,267 L432,266 L432,266 L432,266 L433,265 L433,265 L434,265 L434,265 L434,266 L434,266 L435,265 L435,265 L435,264 L436,263 L437,263 L437,263 L438,264 L438,265 L438,265 L439,265 L439,265 L440,264 L441,263 L444,259 L445,259 L445,258 L445,259 L445,259 L446,259 L447,260 L447,261 L448,261 L448,261 L448,261 L449,260 L449,259 L450,259 L450,260 L450,260 L451,260 L451,261 L451,261 L452,262 L452,262 L453,261 L453,261 L454,261 L454,260 L455,261 L456,262 L457,263 L458,264 L459,264 L459,264 L460,263 L462,261 L463,260 L463,260 L464,261 L465,262 L466,263 L467,264 L467,264 L467,264 L467,264 L468,263 L468,263 L468,263 L469,264 L469,264 L469,264 L470,264 L470,264 L470,264 L470,265 L471,265 L472,266 L472,266 L472,266 L472,265 L474,263 L475,263 L475,262 L475,263 L476,263 L476,264 L477,265 L478,265 L478,265 L479,265 L479,264 L481,263 L481,262 L481,262 L482,263 L482,263 L483,264 L483,265 L484,265 L484,265 L484,265 L484,265 L484,264 L485,264 L485,264 L485,264 L485,264 L485,264 L486,264 L486,263 L487,263 L487,263 L487,263 L488,264 L489,264 L490,265 L490,265 L491,265 L491,265 L492,265 L493,265 L495,263 L498,262 L500,260 L501,260 L501,259 L502,260 L502,260 L505,262 L507,264 L508,265 L508,265 L509,265 L509,264 L509,264 L510,263 L511,262 L512,261 L512,262 L512,262 L512,263 L512,262 L513,262 L513,262 L513,262 L514,261 L514,261 L514,261 L514,262 L515,262 L515,262 L515,262 L515,262 L516,261 L517,260 L517,260 L517,260 L518,260 L518,261 L519,261 L519,261 L519,261 L519,261 L520,260 L520,259 L520,259 L521,259 L521,259 L521,260 L522,261 L522,261 L522,261 L523,262 L523,261 L523,261 L524,260 L525,260 L525,259 L526,259 L526,260 L527,260 L527,260 L527,260 L527,260 L528,259 L529,259 L529,258 L529,258 L529,259 L530,259 L531,261 L532,261 L532,261 L533,261 L533,261 L534,261 L534,260 L534,260 L534,260 L535,260 L535,261 L535,261 L535,261 L536,262 L536,262 L537,261 L537,261 L537,261 L537,260 L538,260 L538,261 L538,261 L538,261 L538,261 L539,262 L539,262 L539,262 L539,262 L540,261 L542,259 L543,258 L545,257 L546,256 L546,256 L547,257 L547,258 L548,258 L548,259 L549,259 L549,259 L549,259 L549,259 L550,259 L550,259 L550,259 L550,260 L550,260 L551,260 L551,259 L551,259 L551,260 L553,261 L553,262 L554,263 L555,263 L555,263 L556,263 L556,263 L557,262 L558,261 L558,261 L558,261 L559,261 L560,262 L561,263 L562,263 L562,263 L563,263 L563,263 L563,262 L565,261 L566,259 L567,259 L567,259 L567,259 L568,260 L569,262 L571,263 L572,264 L572,264 L572,264 L572,263 L573,263 L573,263 L573,264 L573,264 L573,264 L574,264 L574,263 L575,263 L577,260 L578,258 L579,258 L579,258 L579,259 L579,259 L580,261 L581,261 L581,261 L581,261 L581,261 L581,261 L581,260 L581,259 L581,258 L581,257 L581,256 L581,255 L581,253 L580,252 L580,251 L580,249 L580,249 L580,247 L580,245 L580,241 L580,238 L580,234 L580,232 L579,229 L579,225 L579,223 L579,220 L579,217 L579,214 L578,212 L578,210 L578,209 L578,209 L578,209 L578,208 L578,208 L578,207 L578,207 L578,207 L578,207 L578,206 L578,205 L578,203 L579,201 L579,200 L579,198 L579,196 L579,195 L579,194 L579,194 L579,194 L580,192 L580,191 L580,190 L580,187 L580,186 L580,185 L580,184 L580,183 L580,183 L580,182 L580,181 L580,180 L580,179 L580,177 L581,175 L581,174 L581,172 L581,167 L581,164 L581,161 L581,158 L581,155 L581,152 L581,149 L581,146 L581,144 L581,143 L581,142 L582,140 L582,138 L582,136 L582,134 L582,133 L582,131 L582,128 L582,126 L582,123 L582,120 L582,119 L582,117 L582,116 L582,115 L582,115 L582,114 L582,114 L581,113 L581,112 L581,111 L580,109 L579,107 L579,103 L578,102 L577,99 L577,98 L577,97 L577,96 L576,95 L576,95 L576,95 L576,94 L576,93 L576,91 L576,90 L576,88 L576,86 L576,83 L576,81 L576,81 L576,81 L576,80 L576,80 L576,80 L576,79 L576,79 L576,78 L576,78 L576,77 L576,76 L576,75 L576,74 L576,73 L576,72 L576,70 L576,70 L576,70 L576,69 L576,69 L576,68 L576,68 L576,67 L576,66 L576,65 L576,63 L576,62 L576,61 L576,60 L576,60 L576,59 L576,59 L576,58 L576,58 L576,58 L576,57 L576,56 L576,55 L576,51 L576,50 L576,49 L576,48 L576,47 L576,47 L576,47 L576,46 L576,44 L576,43 L576,43 L576,42 L576,42 L576,42 L576,41 L576,41 L576,40 L576,40 L577,39 L577,38 L577,36 L577,36 L577,34 L577,33 L577,33 L577,33 L577,32 L577,31 L577,31 L577,30 L577,30 L577,29 L577,29 L577,29 L577,29 L577,28 L577,28 L577,27 L577,27 L577,27 L577,27 L577,26 L577,26 L577,25 L577,25 L577,25 L577,25 L577,25 L577,26 L577,26 L578,26 L578,26 L578,26 L578,27 L578,27 L578,27 L578,27 L578,28 L578,28 L578,28 L578,28 L578,29 L579,29 L579,29 L579,29 L579,30 L579,31 L579,31 L579,31 L579,32 L579,32 L580,32 L580,33 L580,33 L580,33 L580,33 L580,34 L580,34 L580,34 L580,35 L580,35 L580,35 L580,35 L581,35 L581,36 L581,36 L581,37 L581,38 L581,39 L581,40 L581,41 L581,41 L581,41 L581,41 L581,41 L581,42 L581,42 L581,42 L581,42 L581,43 L581,43 L581,43 L581,43 L581,44 L581,44 L581,44 L581,45 L581,45 L581,45 L581,46 L581,47 L581,47 L581,47 L581,48 L581,48 L581,48 L581,49 L581,49 L581,50 L581,50 L581,51 L581,52 L581,52 L581,53 L581,53 L581,53 L581,54 L581,54 L581,54 L581,54 L581,54 L581,55 L581,55 L581,55 L581,56 L581,57 L582,57 L582,58 L582,59 L582,60 L582,61 L582,62 L582,63 L582,63 L582,64 L582,64 L582,64 L582,65 L582,65 L582,66 L582,67 L582,69 L582,71 L582,72 L582,74 L582,75 L582,77 L582,78 L582,80 L582,81 L582,82 L582,82 L582,82 L582,83 L582,83 L582,83 L582,84 L582,84 L582,85 L582,85 L582,87 L582,87 L582,88 L582,88 L582,89 L582,89 L582,89 L582,90 L582,90 L582,91 L582,91 L582,92 L582,93 L582,94 L582,95 L582,96 L582,97 L582,98 L582,99 L582,100 L583,100 L583,101 L583,102 L583,103 L583,104 L583,104 L583,105 L583,106 L583,107 L583,108 L583,109 L583,109 L583,110 L583,110 L583,111 L584,113 L584,113 L584,115 L584,117 L584,118 L584,119 L584,121 L584,124 L584,126 L585,128 L585,128 L585,130 L585,130 L585,131 L585,132 L585,134 L585,135 L585,137 L585,138 L586,140 L586,142 L586,144 L586,146 L586,147 L586,149 L586,150 L586,151 L586,153 L586,154 L586,155 L586,156 L586,158 L586,159 L586,160 L586,162 L586,165 L586,167 L586,168 L586,170 L586,172 L586,174 L586,176 L586,177 L586,186 L586,187 L586,188 L586,190 L586,191 L586,193 L586,194 L586,195 L586,195 L586,196 L586,196 L586,197 L586,198 L586,198 L586,199 L586,201 L586,203 L586,204 L586,207 L586,209 L586,211 L586,212 L586,214 L586,215 L586,217 L586,219 L586,219 L586,220 L586,220 L586,221 L586,221 L586,221 L586,222 L586,222 L586,223 L586,223 L586,224 L586,226 L586,227 L586,230 L586,230 L586,232 L586,233 L586,235 L586,235 L586,237 L586,238 L586,240 L586,241 L586,244 L586,245 L586,247 L586,247 L586,248 L586,248 L586,248 L586,248 L586,249 L586,249 L586,249 L586,250 L586,251 L586,252 L586,253 L586,254 L586,255 L586,256 L586,257 L586,258 L586,259 L586,259 L586,260 L586,260 L586,261 L586,262 L586,262 L586,264 L586,264 L586,264 L586,265 L586,265 L586,266 L586,266 L586,268 L586,269 L586,271 L586,272 L586,272 L586,272 L586,273 L586,273 L586,273 L586,274 L586,274 L586,275 L586,276 L586,276 L586,277 L586,278 L586,279 L586,280 L586,282 L586,283 L586,285 L586,286 L586,287 L586,289 L586,289 L586,291 L586,292 L586,293 L586,295 L586,295 L586,297 L586,297 L586,298 L586,299 L586,299 L586,299 L586,300 L586,300 L586,300 L586,301 L586,301 L586,301 L586,302 L586,303 L586,304 L586,304 L586,307 L586,308 L586,309 L586,310 L586,313 L586,314 L586,315 L586,315 L586,316 L586,317 L586,318 L586,319 L586,320 L586,322 L586,323 L586,323 L586,323 L586,324 L586,324 L586,325 L586,326 L586,327 L586,328 L586,330 L586,332 L586,333 L587,335 L587,337 L587,337 L587,339 L587,340 L587,341 L587,342 L587,342 L587,342 L587,343 L587,343 L587,344 L588,345 L588,345 L588,345 L588,346 L588,346 L588,345 L588,345 L588,345 L588,345 L588,344 L588,344 L588,344 L588,343 L588,342 L588,342 L588,341 L588,340 L588,338 L588,337 L588,336 L588,334 L588,333 L589,332 L589,330 L589,327 L589,326 L589,325 L589,322 L590,321 L590,320 L590,319 L590,318 L590,317 L590,316 L590,315 L590,315 L591,313 L591,311 L591,310 L591,308 L592,306 L592,303 L592,299 L593,298 L593,295 L593,292 L594,289 L594,287 L594,286 L594,284 L594,283 L594,282 L594,282 L594,281 L594,281 L594,281 L594,280 L594,280 L594,279 L594,277 L594,277 L594,276 L594,275 L594,272 L593,271 L593,269 L593,268 L593,266 L593,265 L593,263 L593,262 L593,261 L593,260 L593,259 L593,259 L593,258 L593,258 L593,257 L593,258 L593,258 L593,258 L594,258 L594,258 L594,258 L594,257 L594,256 L594,256 L594,256 L595,256 L595,258 L595,259 L595,260 L596,260 L596,259 L596,259 L596,259 L597,257 L597,257 L597,257 L597,257 L597,258 L598,258 L598,259 L598,259 L598,259 L599,257 L600,256 L601,255 L601,255 L601,256 L602,256 L603,257 L603,257 L603,257 L603,257 L603,257 L603,257 L604,256 L604,256 L604,257 L604,257 L605,258 L605,259 L606,258 L606,258 L606,258 L607,255 L609,252 L609,251 L609,250 L609,251 L610,251 L610,251 L610,251 L610,251 L610,251 L610,251 L610,252 L611,252 L611,253 L612,253 L612,254 L613,254 L613,254 L613,253 L614,253 L614,252 L614,253 L614,253 L615,254 L617,256 L618,257 L619,257 L619,257 L619,257 L620,257 L620,257 L621,256 L621,255 L622,255 L622,255 L622,256 L623,256 L624,256 L624,256 L624,256 L624,256 L625,255 L626,254 L626,253 L627,254 L628,255 L628,255 L629,255 L629,255 L629,255 L629,255 L629,255 L630,255 L630,255 L631,256 L631,257 L633,259 L634,259 L634,260 L635,260 L635,259 L635,259 L635,258 L636,259 L636,259 L636,259 L637,259 L637,259 L637,259 L638,259 L638,259 L639,258 L640,257 L641,256 L641,256 L642,256 L643,257 L645,259 L646,260 L647,260 L648,260 L648,260 L648,260 L649,259 L650,258 L650,257 L650,257 L651,258 L651,259 L653,260 L655,262 L657,263 L657,263 L658,263 L658,263 L659,262 L660,261 L661,259 L662,259 L662,259 L662,259 L663,260 L664,260 L665,262 L666,262 L666,262 L667,262 L667,262 L667,262 L668,263 L670,264 L672,265 L673,265 L673,265 L674,264 L675,263 L675,263 L676,263 L676,264 L676,264 L678,265 L679,265 L680,265 L680,265 L680,265 L681,265 L682,264 L682,264 L683,263 L683,263 L683,263 L683,263 L684,263 L684,264 L685,264 L685,265 L686,265 L686,265 L686,265 L687,265 L689,267 L690,267 L691,268 L691,268 L691,268 L692,267 L692,267 L694,266 L695,265 L695,265 L695,265 L696,265 L696,266 L698,268 L699,268 L700,268 L700,268 L700,268 L700,268 L701,267 L702,266 L702,265 L703,265 L703,266 L703,266 L705,267 L706,268 L707,268 L708,268 L708,268 L708,268 L708,268 L709,267 L711,266 L711,265 L712,265 L712,265 L712,266 L713,266 L714,267 L715,267 L716,268 L716,268 L718,267 L719,265 L720,264 L721,263 L721,263 L721,264 L721,264 L722,264 L723,265 L724,265 L724,265 L724,265 L725,265 L725,265 L726,266 L728,267 L728,267 L729,267 L730,267 L730,266 L732,265 L732,264 L733,264 L734,265 L735,265 L735,266 L736,266 L736,266 L736,266 L737,265 L738,264 L738,264 L738,264 L738,264 L739,265 L739,265 L740,265 L740,265 L741,265 L741,265 L742,264 L742,264 L742,265 L745,267 L746,268 L747,269 L748,269 L749,269 L749,269 L750,268 L753,267 L754,266 L755,265 L755,265 L756,265 L757,266 L757,266 L757,266 L759,267 L760,267 L760,267 L761,267 L762,267 L762,267 L763,267 L763,267 L763,267 L768,270 L768,270 L768,270 L768,270 L768,270 L769,271 L771,272 L771,272 L773,273 L773,273 L774,273 L775,272 L776,271 L777,269 L778,268 L778,268 L778,268 L779,268 L779,269 L779,269 L780,269 L780,269 L780,269 L781,269 L781,269 L781,269 L781,269 L782,269 L783,270 L783,270 L784,271 L785,271 L785,271 L786,270 L787,270 L787,268 L788,268 L788,268 L788,269 L789,269 L790,270 L791,271 L792,271 L792,271 L793,271 L793,270 L795,269 L796,268 L796,268 L796,268 L797,268 L798,269 L798,269 L800,269 L800,269 L801,269 L801,269 L802,269 L802,269 L803,269 L804,269 L804,269 L805,268 L805,268 L806,269 L807,270 L809,270 L811,271 L812,272 L813,272 L813,272 L814,271 L815,269 L817,267 L818,265 L818,266 L819,266 L820,268 L822,269 L824,271 L826,271 L826,272 L826,272 L826,271 L828,270 L829,268 L831,266 L831,266 L831,266 L832,266 L834,268 L835,269 L836,270 L836,270 L837,270 L837,269 L837,269 L838,268 L838,267 L839,267 L839,268 L839,268 L840,269 L841,270 L842,270 L843,271 L843,271 L843,270 L845,268 L846,266 L848,263 L849,262 L849,262 L849,262 L850,263 L852,265 L852,265 L854,267 L856,268 L856,268 L856,267 L857,265 L859,263 L860,261 L861,261 L861,261 L861,261 L863,263 L863,264 L866,266 L868,267 L869,268 L869,267 L869,266 L870,265 L870,266 L870,266 L872,268 L872,268 L873,268 L873,268 L873,266 L874,265 L874,264 L874,265 L875,265 L876,266 L876,267 L876,266 L877,265 L878,264 L878,263 L878,263 L878,263 L878,264 L879,264 L879,265 L880,265 L880,265 L880,265 L881,264 L881,264 L881,265 L882,266 L884,268 L885,269 L886,270 L887,270 L887,270 L887,270 L887,269 L887,268 L889,264 L889,264 L890,264 L891,266 L892,268 L894,270 L895,271 L895,270 L895,270 L895,270 L895,270 L895,268 L895,267 L895,268 L896,268 L896,268 L896,269 L897,269 L897,269 L897,269 L897,269 L897,268 L897,268 L898,268 L898,269 L898,269 L899,269 L899,269 L899,268 L899,267 L899,266 L900,266 L900,266 L900,267 L900,267 L901,266 L902,265 L902,264 L903,264 L903,264 L904,264 L904,265 L905,265 L905,265 L906,265 L906,265 L906,265 L907,265 L907,264 L907,264 L908,265 L908,265 L909,265 L910,266 L910,266 L911,266 L912,265 L914,263 L916,261 L917,260 L917,260 L917,260 L917,260 L918,261 L918,262 L919,262 L919,262 L919,261 L919,261 L920,261 L920,261 L920,261 L921,262 L921,262 L921,262 L922,262 L922,261 L922,261 L922,261 L922,261 L923,261 L923,262 L923,261 L924,260 L925,259 L926,258 L926,258 L926,258 L926,258 L926,258 L927,259 L927,260 L928,260 L928,260 L928,259 L928,259 L930,257 L931,256 L931,256 L931,256 L931,256 L931,257 L932,257 L933,258 L933,258 L933,258 L933,258 L934,257 L934,257 L934,258 L934,258 L935,258 L935,258 L935,258 L935,257 L936,257 L936,257 L936,257 L937,258 L938,259 L939,260 L940,262 L941,263 L941,262 L941,262 L941,262 L941,261 L941,261 L941,261 L942,262 L942,263 L943,263 L943,264 L943,263 L943,264 L943,264 L944,263 L944,263 L945,264 L945,265 L946,265 L946,265 L946,265 L946,265 L947,265 L947,265 L947,265 L947,265 L947,265 L947,264 L948,264" fill="none" stroke="red" stroke-width="3"/></svg>