<svg xmlns="http://www.w3.org/2000/svg" version="1.1" xmlns:xlink="http://www.w3.org/1999/xlink" xmlns:svgjs="http://svgjs.dev/svgjs" width="950" height="375" id="chartSvg"><path d="M8,290 L8,289 L8,289 L8,288 L8,287 L8,286 L9,285 L9,283 L9,281 L9,280 L9,279 L9,278 L9,277 L9,276 L10,276 L10,275 L10,274 L10,273 L10,272 L10,270 L10,269 L10,268 L10,267 L10,266 L10,265 L10,264 L10,264 L10,263 L10,263 L10,263 L10,262 L10,261 L10,261 L10,260 L10,259 L10,258 L10,257 L10,257 L10,255 L10,254 L10,253 L10,252 L10,251 L10,250 L10,249 L10,248 L10,247 L11,245 L11,244 L11,242 L11,240 L11,239 L11,238 L11,236 L11,235 L11,234 L11,234 L11,233 L11,233 L11,233 L11,232 L11,231 L11,231 L11,230 L11,229 L11,228 L11,228 L11,227 L11,226 L11,226 L11,225 L11,225 L11,225 L11,224 L11,225 L11,225 L11,225 L11,226 L11,227 L11,228 L11,229 L11,231 L11,233 L11,234 L11,236 L11,237 L11,238 L11,239 L11,239 L11,239 L11,239 L11,240 L11,240 L11,241 L11,241 L11,241 L11,242 L11,243 L11,243 L12,243 L12,244 L12,244 L12,244 L12,244 L12,245 L12,245 L12,245 L12,245 L12,246 L12,246 L12,246 L12,246 L12,247 L12,248 L12,248 L12,248 L13,249 L13,249 L13,249 L13,249 L13,250 L13,250 L13,250 L13,251 L13,251 L13,251 L13,251 L13,252 L13,252 L13,252 L13,253 L13,253 L13,253 L13,253 L13,254 L13,254 L13,254 L13,255 L13,255 L13,256 L14,256 L14,256 L14,257 L14,257 L14,258 L14,258 L14,258 L14,259 L14,259 L14,259 L14,260 L14,260 L14,260 L14,261 L14,261 L14,261 L14,261 L14,262 L14,262 L15,263 L15,265 L16,267 L16,269 L16,270 L16,270 L16,271 L16,271 L16,271 L17,271 L17,271 L17,271 L17,270 L18,269 L19,267 L19,266 L20,264 L21,262 L21,261 L22,260 L22,259 L22,258 L22,259 L22,259 L22,260 L22,261 L23,262 L23,264 L23,267 L24,269 L24,270 L24,272 L25,275 L25,277 L25,280 L25,281 L26,283 L26,285 L26,286 L26,287 L27,288 L27,289 L27,289 L27,290 L27,290 L27,291 L27,291 L27,292 L27,292 L27,293 L27,293 L27,294 L27,295 L27,295 L27,297 L28,299 L28,299 L28,301 L28,302 L28,303 L28,305 L29,307 L29,309 L29,310 L29,311 L29,311 L29,310 L29,309 L29,306 L30,302 L31,297 L32,291 L33,284 L33,283 L34,279 L35,274 L35,272 L36,269 L36,267 L36,266 L37,264 L37,261 L38,259 L39,256 L39,255 L39,254 L39,253 L39,253 L39,253 L39,254 L40,254 L40,255 L40,257 L40,259 L41,263 L42,264 L42,268 L43,270 L43,271 L43,273 L43,273 L43,274 L44,274 L44,273 L44,273 L44,272 L45,269 L46,263 L47,257 L48,253 L48,250 L49,249 L49,249 L49,250 L49,251 L49,254 L49,256 L49,256 L50,255 L51,250 L53,238 L55,224 L56,215 L57,209 L57,208 L57,208 L57,208 L57,209 L57,209 L57,209 L57,210 L57,210 L57,211 L57,212 L57,213 L58,214 L58,215 L58,216 L58,219 L58,221 L59,224 L60,232 L60,234 L60,239 L61,243 L61,245 L61,246 L62,246 L62,247 L62,248 L62,249 L63,249 L63,251 L63,251 L63,252 L63,253 L63,254 L64,255 L64,256 L64,256 L64,257 L64,258 L64,258 L65,261 L65,263 L66,265 L66,266 L66,267 L66,268 L66,269 L66,270 L67,270 L67,270 L67,269 L67,267 L68,262 L70,252 L71,247 L71,245 L72,244 L72,244 L72,245 L72,247 L72,250 L73,252 L73,253 L73,253 L74,251 L75,246 L77,240 L78,234 L79,230 L79,231 L79,234 L80,241 L80,248 L81,254 L81,258 L82,261 L82,261 L82,260 L83,257 L84,252 L86,245 L87,240 L88,236 L88,235 L88,235 L88,237 L89,248 L91,259 L92,263 L92,265 L93,264 L94,259 L96,253 L98,246 L100,238 L101,237 L101,237 L101,237 L101,238 L102,241 L103,244 L103,247 L104,249 L104,249 L104,249 L104,249 L105,249 L105,248 L105,246 L106,243 L107,241 L108,240 L108,239 L108,239 L108,240 L109,244 L110,248 L110,250 L111,251 L111,251 L111,251 L111,249 L112,248 L112,247 L112,247 L113,249 L113,252 L114,254 L115,256 L115,257 L115,257 L115,257 L115,257 L115,258 L116,258 L116,259 L116,260 L117,261 L118,263 L119,266 L120,267 L120,269 L121,270 L121,270 L121,270 L121,269 L122,269 L122,266 L123,261 L125,255 L126,252 L126,251 L126,251 L127,252 L127,254 L128,260 L129,264 L130,265 L130,265 L130,265 L130,264 L131,260 L133,255 L134,251 L135,249 L135,249 L135,249 L136,251 L137,256 L138,261 L139,266 L140,270 L140,272 L141,272 L141,272 L141,272 L142,267 L143,264 L145,258 L146,254 L147,254 L147,255 L147,255 L147,257 L148,260 L148,261 L149,264 L149,265 L150,265 L150,265 L150,263 L151,263 L151,262 L151,262 L153,266 L154,270 L156,274 L157,277 L158,278 L159,279 L159,279 L159,279 L160,279 L160,278 L160,278 L160,278 L160,277 L160,277 L160,277 L161,279 L162,282 L163,289 L165,294 L166,298 L167,300 L167,300 L167,300 L167,300 L167,300 L168,298 L168,297 L168,296 L168,296 L168,297 L168,297 L168,297 L168,298 L168,299 L169,300 L169,301 L169,301 L169,300 L169,300 L169,298 L170,294 L171,289 L172,279 L172,271 L173,257 L175,239 L175,237 L176,228 L177,213 L178,208 L178,204 L179,201 L180,198 L180,194 L181,192 L182,187 L183,181 L183,179 L185,173 L185,170 L187,165 L187,164 L187,163 L187,162 L188,162 L188,162 L188,162 L188,163 L188,164 L189,169 L191,184 L193,196 L195,206 L197,213 L197,216 L198,218 L198,220 L198,224 L199,228 L199,232 L199,235 L200,237 L200,237 L200,237 L200,235 L200,231 L201,229 L201,228 L201,228 L201,229 L201,236 L201,237 L201,243 L202,244 L202,246 L202,247 L202,246 L202,246 L202,245 L203,242 L203,239 L204,232 L205,228 L205,226 L206,223 L207,219 L207,218 L208,216 L208,215 L208,215 L208,214 L208,213 L209,212 L209,213 L209,214 L208,216 L207,222 L206,231 L205,239 L205,246 L205,251 L205,254 L205,256 L205,256 L205,256 L205,256 L207,252 L208,249 L211,241 L216,226 L219,217 L221,208 L222,205 L222,202 L222,202 L222,202 L222,203 L222,206 L221,207 L221,208 L221,208 L221,207 L221,206 L221,202 L221,198 L222,195 L222,193 L222,194 L222,195 L222,199 L222,203 L222,210 L222,213 L222,212 L222,212 L222,211 L222,207 L222,206 L222,206 L222,206 L222,207 L222,210 L222,216 L222,225 L221,234 L221,237 L221,238 L221,238 L221,237 L221,237 L222,235 L222,234 L222,233 L222,234 L222,234 L222,237 L222,241 L222,245 L223,250 L223,251 L223,252 L223,252 L223,251 L223,251 L224,251 L224,251 L224,250 L224,249 L224,245 L226,235 L227,225 L229,209 L231,200 L232,193 L233,187 L233,186 L233,186 L233,186 L233,186 L233,190 L233,203 L234,215 L235,238 L236,252 L237,260 L238,262 L238,263 L238,262 L238,262 L238,261 L240,252 L242,243 L244,233 L245,226 L246,223 L246,223 L246,225 L247,232 L248,235 L248,241 L249,244 L249,246 L250,246 L250,245 L250,245 L250,243 L251,238 L253,234 L253,234 L253,234 L254,241 L254,246 L256,255 L257,257 L257,257 L257,257 L257,257 L257,256 L258,253 L260,249 L261,244 L262,241 L263,241 L263,241 L263,243 L263,244 L264,247 L265,253 L266,254 L266,255 L266,255 L266,254 L266,254 L266,254 L267,253 L267,253 L267,252 L267,252 L267,252 L268,251 L269,248 L270,242 L271,238 L272,233 L273,230 L273,227 L274,224 L274,223 L275,221 L275,219 L275,218 L276,217 L276,215 L276,214 L277,212 L277,210 L278,209 L278,208 L278,208 L278,207 L278,207 L278,207 L278,208 L279,209 L279,212 L280,219 L280,225 L281,233 L283,241 L283,246 L285,250 L285,251 L285,250 L285,250 L285,248 L286,245 L286,243 L287,243 L287,245 L288,250 L289,256 L290,262 L290,263 L291,263 L291,263 L292,260 L292,257 L294,252 L295,250 L295,251 L295,252 L296,254 L297,260 L299,268 L300,273 L301,274 L301,274 L301,274 L301,273 L303,268 L306,261 L307,258 L307,257 L307,258 L308,258 L308,258 L308,261 L308,262 L309,264 L309,265 L310,265 L310,265 L310,264 L311,262 L312,257 L315,251 L316,244 L318,239 L319,235 L319,233 L319,233 L319,232 L319,232 L319,230 L319,223 L319,215 L319,205 L319,198 L320,194 L320,191 L320,191 L320,192 L320,193 L319,196 L319,198 L318,199 L318,199 L318,198 L319,192 L319,189 L319,184 L319,183 L319,183 L319,183 L319,184 L319,186 L319,186 L319,186 L319,185 L319,185 L321,176 L323,169 L324,163 L325,159 L326,159 L326,159 L326,160 L326,163 L326,168 L326,173 L326,175 L326,176 L326,176 L326,175 L326,175 L327,174 L329,170 L331,167 L331,166 L332,170 L333,173 L334,180 L335,188 L336,194 L336,196 L336,196 L337,194 L337,191 L338,189 L339,187 L339,187 L339,189 L339,197 L339,204 L339,209 L339,213 L339,214 L339,214 L339,213 L339,208 L340,204 L340,201 L340,201 L340,201 L340,203 L341,210 L342,216 L342,219 L342,223 L343,224 L343,224 L343,222 L343,220 L345,215 L346,210 L347,207 L347,208 L347,209 L348,212 L348,213 L348,213 L348,213 L348,212 L349,210 L349,207 L350,204 L350,202 L351,204 L351,207 L351,213 L351,222 L351,230 L351,232 L351,231 L351,231 L351,231 L351,230 L351,229 L352,230 L352,231 L352,235 L352,238 L352,239 L352,239 L352,239 L353,237 L354,232 L357,224 L359,216 L360,213 L360,212 L360,212 L361,214 L361,220 L361,226 L361,229 L361,230 L361,230 L361,228 L361,225 L363,220 L364,216 L364,216 L364,216 L364,216 L364,217 L364,220 L364,221 L364,222 L365,222 L365,222 L365,221 L365,219 L366,216 L366,216 L366,216 L366,219 L366,230 L366,244 L366,262 L367,267 L367,268 L367,268 L367,268 L367,268 L367,266 L368,262 L369,255 L371,248 L374,237 L375,228 L377,220 L378,215 L378,213 L379,212 L379,213 L379,218 L379,229 L379,243 L378,259 L378,270 L378,272 L378,272 L378,272 L378,272 L378,271 L378,268 L380,260 L382,245 L382,241 L383,241 L383,241 L383,242 L383,244 L383,251 L383,264 L384,281 L384,295 L385,301 L385,301 L385,301 L385,301 L385,300 L386,292 L386,285 L387,281 L387,280 L387,280 L387,280 L387,281 L387,284 L387,289 L387,295 L388,301 L388,304 L388,305 L388,305 L388,305 L388,306 L388,306 L388,307 L388,309 L389,312 L389,314 L389,315 L389,318 L389,320 L389,321 L390,322 L390,321 L390,322 L390,322 L390,322 L390,322 L390,321 L390,320 L390,316 L391,311 L393,298 L396,277 L399,254 L401,238 L402,229 L402,228 L402,228 L402,231 L401,242 L401,245 L400,252 L400,254 L400,254 L400,251 L401,246 L402,241 L403,233 L404,229 L404,229 L404,229 L404,231 L404,234 L404,235 L405,236 L405,235 L405,234 L407,230 L409,223 L410,219 L411,216 L411,216 L411,216 L412,218 L412,222 L413,230 L414,236 L415,239 L415,238 L416,235 L417,231 L419,224 L421,219 L421,218 L421,219 L421,221 L422,225 L422,225 L422,226 L422,226 L422,226 L423,224 L424,222 L425,217 L425,214 L426,211 L426,211 L426,211 L426,212 L426,212 L426,212 L426,212 L427,210 L428,203 L429,199 L430,195 L430,194 L430,194 L430,194 L430,196 L430,201 L430,202 L430,203 L430,202 L430,200 L430,197 L430,195 L430,195 L430,195 L430,199 L430,205 L430,207 L430,209 L430,210 L430,210 L430,210 L430,210 L430,209 L430,209 L430,209 L430,211 L431,219 L432,230 L433,238 L433,243 L434,246 L434,248 L434,248 L434,248 L434,248 L435,247 L435,246 L436,241 L437,238 L438,235 L438,236 L438,241 L439,247 L440,257 L441,267 L442,275 L443,278 L443,279 L443,279 L443,279 L444,279 L444,279 L444,278 L444,279 L444,279 L443,280 L443,283 L443,287 L441,297 L439,300 L438,300 L438,300 L438,300 L438,298 L438,297 L438,297 L437,297 L437,297 L437,295 L436,293 L436,292 L436,291 L436,289 L436,288 L435,286 L435,285 L435,284 L435,282 L435,278 L435,276 L435,275 L435,272 L435,270 L435,269 L435,268 L434,268 L434,268 L433,268 L433,268 L432,267 L432,266 L431,266 L431,265 L431,263 L430,262 L430,260 L430,258 L430,256 L430,255 L430,253 L430,252 L430,251 L430,251 L430,250 L430,249 L430,246 L430,243 L430,239 L431,233 L432,226 L432,223 L433,216 L433,211 L433,208 L434,206 L434,206 L434,205 L434,204 L434,199 L436,192 L438,182 L439,174 L440,168 L441,166 L441,166 L441,166 L441,166 L441,168 L443,173 L444,175 L444,175 L444,175 L444,174 L445,172 L447,167 L450,157 L452,149 L455,138 L457,130 L458,126 L459,122 L459,121 L459,120 L459,120 L459,120 L459,121 L459,121 L459,121 L459,121 L459,119 L458,110 L458,106 L458,97 L457,83 L456,79 L455,78 L455,79 L454,81 L454,84 L453,89 L453,94 L454,98 L455,101 L455,101 L455,102 L455,101 L456,101 L456,100 L457,98 L459,94 L460,91 L461,90 L461,89 L461,90 L461,90 L462,91 L462,93 L462,93 L462,93 L462,93 L463,92 L464,89 L464,86 L465,84 L465,84 L465,83 L465,84 L465,84 L465,83 L465,84 L465,84 L465,84 L465,84 L465,84 L465,83 L466,79 L468,71 L470,59 L470,55 L471,50 L471,47 L471,46 L471,46 L471,46 L471,45 L471,44 L471,43 L471,40 L472,36 L472,34 L472,34 L472,33 L472,34 L472,34 L472,34 L473,42 L477,64 L480,75 L489,103 L493,116 L496,125 L497,128 L498,130 L498,131 L499,134 L499,135 L499,137 L500,138 L500,139 L500,140 L500,140 L500,140 L500,141 L501,141 L501,142 L501,142 L501,143 L501,143 L501,143 L501,144 L501,144 L502,143 L502,139 L504,132 L505,126 L506,119 L506,118 L506,118 L506,119 L506,122 L505,129 L505,136 L505,139 L505,138 L505,136 L506,127 L509,114 L510,99 L510,89 L510,84 L510,84 L510,84 L510,85 L510,86 L510,90 L510,102 L510,110 L510,115 L511,115 L511,115 L511,115 L511,114 L512,112 L513,111 L513,111 L513,114 L517,134 L518,141 L522,165 L524,170 L524,170 L524,170 L524,170 L526,165 L531,153 L533,150 L535,142 L536,139 L536,138 L536,139 L536,139 L537,140 L537,144 L537,152 L538,157 L538,158 L538,158 L538,158 L538,156 L539,152 L540,148 L541,145 L541,144 L541,145 L541,147 L541,152 L540,159 L539,166 L539,171 L539,171 L539,168 L540,163 L541,156 L542,150 L542,148 L542,148 L542,151 L541,157 L540,163 L540,168 L540,172 L540,172 L540,172 L540,170 L541,163 L542,152 L544,141 L546,128 L547,123 L547,123 L547,126 L546,136 L545,157 L542,199 L542,223 L542,233 L542,234 L542,234 L543,233 L544,230 L545,226 L547,218 L550,211 L551,204 L553,200 L553,199 L553,199 L553,200 L554,206 L554,213 L554,223 L555,230 L556,231 L556,231 L556,231 L557,227 L559,221 L561,212 L563,203 L565,196 L566,193 L566,192 L566,192 L567,190 L569,183 L569,180 L570,174 L570,172 L570,168 L570,168 L570,166 L570,166 L570,166 L570,166 L570,167 L569,168 L568,170 L566,176 L566,178 L565,177 L565,177 L565,174 L565,173 L565,173 L565,173 L565,172 L565,171 L565,170 L565,167 L567,164 L568,160 L569,158 L570,154 L571,151 L571,149 L571,148 L571,147 L572,146 L572,146 L572,145 L572,146 L572,146 L572,148 L573,153 L573,159 L576,172 L579,188 L582,200 L583,205 L584,209 L584,209 L584,208 L584,208 L586,203 L587,200 L589,198 L589,196 L589,196 L589,197 L589,197 L590,204 L590,210 L591,221 L592,230 L593,233 L594,235 L594,234 L594,234 L594,232 L595,229 L597,222 L600,211 L604,197 L611,170 L618,146 L622,131 L627,113 L629,104 L631,98 L631,96 L631,96 L631,99 L631,103 L631,107 L631,114 L631,122 L633,130 L634,139 L635,146 L637,153 L638,161 L640,167 L640,169 L641,171 L641,171 L641,171 L641,170 L641,170 L642,169 L642,168 L642,168 L642,168 L642,170 L642,173 L645,186 L648,198 L650,205 L650,208 L651,209 L651,208 L651,207 L652,203 L654,197 L656,189 L658,177 L661,167 L663,158 L664,154 L664,153 L664,154 L664,154 L665,158 L666,162 L667,169 L667,172 L668,172 L668,172 L668,172 L670,168 L671,161 L675,149 L679,138 L680,133 L680,134 L680,136 L680,140 L681,144 L681,146 L682,147 L682,147 L682,147 L682,146 L683,144 L686,136 L689,128 L697,105 L708,73 L711,61 L714,53 L714,50 L714,50 L714,50 L714,50 L714,59 L716,80 L717,102 L722,138 L728,162 L729,166 L729,166 L730,166 L730,164 L732,158 L735,148 L739,134 L744,116 L748,102 L750,97 L750,97 L750,97 L750,97 L750,98 L750,102 L751,109 L752,121 L753,122 L753,123 L753,123 L753,122 L754,118 L755,114 L756,111 L756,111 L756,111 L756,112 L756,113 L756,118 L756,124 L756,126 L756,127 L756,127 L756,127 L757,127 L757,126 L757,125 L757,123 L758,123 L758,124 L758,125 L758,128 L758,136 L757,145 L757,154 L757,157 L757,156 L757,156 L757,156 L757,155 L757,152 L756,149 L756,146 L755,146 L755,146 L755,146 L753,153 L752,158 L752,162 L752,165 L752,165 L752,165 L752,164 L752,163 L753,158 L754,152 L755,142 L756,140 L756,139 L756,139 L756,140 L756,144 L757,149 L757,155 L758,158 L758,159 L759,158 L759,156 L761,149 L762,145 L762,144 L762,145 L762,146 L762,153 L763,159 L764,162 L764,164 L764,163 L765,161 L766,158 L767,153 L768,149 L768,148 L768,149 L768,150 L770,161 L771,169 L772,173 L774,176 L774,176 L774,173 L775,166 L778,153 L783,133 L788,112 L791,99 L791,98 L791,99 L792,101 L793,111 L794,124 L796,140 L798,154 L799,160 L799,164 L799,163 L799,161 L800,156 L801,140 L803,124 L804,116 L805,112 L805,111 L805,111 L805,112 L806,120 L808,131 L810,141 L812,150 L814,155 L814,156 L814,154 L816,148 L818,141 L821,127 L823,119 L823,116 L824,120 L824,125 L824,134 L825,138 L825,141 L825,141 L825,141 L825,139 L825,136 L825,135 L825,135 L825,135 L825,136 L825,140 L826,143 L826,147 L827,149 L827,149 L827,146 L828,139 L829,126 L830,116 L831,114 L831,115 L831,115 L831,116 L831,120 L832,127 L833,135 L835,145 L837,153 L837,158 L838,158 L838,158 L838,157 L838,153 L839,148 L840,139 L841,133 L842,129 L842,128 L842,128 L842,128 L842,128 L842,129 L843,130 L843,132 L844,134 L844,137 L845,139 L846,142 L846,143 L846,144 L846,144 L846,145 L847,146 L847,148 L848,151 L848,153 L849,156 L849,158 L850,159 L850,160 L850,161 L850,161 L851,161 L851,162 L851,162 L851,162 L851,162 L851,163 L851,163 L851,164 L851,165 L852,165 L852,166 L852,166 L852,166 L852,166 L852,166 L852,167 L852,167 L852,167 L852,167 L852,168 L852,168 L852,169 L852,169 L853,171 L853,174 L853,175 L854,177 L854,178 L854,178 L854,179 L854,179 L854,179 L854,179 L854,179 L855,180 L855,180 L855,180 L855,181 L856,184 L856,186 L856,188 L857,189 L857,189 L857,190 L857,190 L857,190 L857,190 L857,191 L857,192 L858,193 L858,194 L858,195 L858,195 L858,196 L858,196 L858,197 L858,198 L859,199 L859,200 L859,201 L859,202 L859,203 L859,203 L859,203 L859,203 L859,203 L860,203 L860,202 L860,202 L860,202 L861,200 L862,197 L862,195 L863,193 L864,189 L865,187 L865,184 L866,181 L867,177 L868,174 L869,169 L869,167 L870,163 L870,159 L871,156 L871,153 L871,151 L871,149 L871,148 L871,147 L871,145 L872,143 L872,141 L872,140 L872,139 L872,137 L872,134 L872,131 L872,129 L872,126 L872,123 L873,119 L873,111 L873,109 L873,107 L873,105 L873,103 L874,101 L874,98 L874,94 L875,90 L875,84 L876,79 L876,75 L876,74 L876,73 L877,75 L877,80 L877,89 L878,97 L880,109 L881,117 L882,122 L882,124 L883,126 L883,126 L883,126 L883,125 L885,119 L887,112 L889,104 L891,100 L891,99 L891,99 L891,99 L891,107 L891,111 L891,125 L890,135 L890,139 L890,140 L891,140 L891,139 L891,133 L892,128 L894,123 L894,119 L895,118 L895,118 L895,119 L895,120 L895,125 L896,130 L897,135 L897,135 L897,135 L897,133 L898,132 L898,132 L899,132 L899,133 L900,134 L902,140 L904,144 L907,148 L908,150 L909,151 L910,151 L912,148 L913,146 L917,136 L918,131 L920,129 L920,129 L920,130 L920,131 L920,133 L921,135 L921,135 L921,136 L921,135 L921,135 L921,135 L921,135 L922,133 L922,133 L922,133 L922,133 L922,133 L922,133 L922,135 L923,136 L923,137 L924,138 L924,138 L924,139 L924,138 L924,138 L924,138 L925,137 L925,136 L925,136 L925,136 L925,136 L925,137 L925,137 L925,137 L926,137 L926,137 L926,138 L926,138 L926,138 L926,138 L927,136 L929,132 L931,128 L933,124 L934,122 L934,122 L934,122 L934,123 L934,124 L935,126 L938,134 L941,140 L941,141 L941,141 L941,141 L941,141 L941,140 L942,138 L943,135 L943,131 L944,128 L944,125 L944,124 L945,124 L945,123 L946,121 L946,119 L947,118 L947,117 L948,117 L948,117 L948,118 L948,120 L948,123 L949,126 L949,127 L949,127 L950,127 L950,126 L952,124 L952,123 L954,121 L954,119 L955,118 L955,118 L955,117" fill="none" stroke="red" stroke-width="3"/></svg>