<svg xmlns="http://www.w3.org/2000/svg" xmlns:xlink="http://www.w3.org/1999/xlink" version="1.1" class="marks" width="1012" height="385" viewBox="0 0 1012 385"><rect width="1012" height="385" fill="white"/><g fill="none" stroke-miterlimit="10" transform="translate(7,5)"><g class="mark-group role-frame root" role="graphics-object" aria-roledescription="group mark container"><g transform="translate(0,0)"><path class="background" aria-hidden="true" d="M0.5,0.5h1000v375h-1000Z" stroke="#ddd"/><g><g class="mark-group role-axis" role="graphics-symbol" aria-roledescription="axis" aria-label="X-axis for a linear scale with values from 0 to 1,100"><g transform="translate(0.5,375.5)"><path class="background" aria-hidden="true" d="M0,0h0v0h0Z" pointer-events="none"/><g><g class="mark-rule role-axis-domain" pointer-events="none"><line transform="translate(0,0)" x2="1000" y2="0" stroke="#888" stroke-width="1" opacity="1"/></g></g><path class="foreground" aria-hidden="true" d="" pointer-events="none" display="none"/></g></g><g class="mark-group role-axis" role="graphics-symbol" aria-roledescription="axis" aria-label="Y-axis for a linear scale with values from 0 to 260,000"><g transform="translate(0.5,0.5)"><path class="background" aria-hidden="true" d="M0,0h0v0h0Z" pointer-events="none"/><g><g class="mark-rule role-axis-domain" pointer-events="none"><line transform="translate(0,375)" x2="0" y2="-375" stroke="#888" stroke-width="1" opacity="1"/></g></g><path class="foreground" aria-hidden="true" d="" pointer-events="none" display="none"/></g></g><g class="mark-line role-mark marks" role="graphics-object" aria-roledescription="line mark container"><path aria-label="x: 1; y: 114681.41307" role="graphics-symbol" aria-roledescription="line mark" d="M0.909,209.594L1.818,285.551L2.727,242.776L3.636,233.925L4.545,353.255L5.455,309.926L6.364,236.339L7.273,276.373L8.182,170.693L9.091,157.285L10,113.347L10.909,298.417L11.818,222.37L12.727,267.578L13.636,289.188L14.545,302.429L15.455,211.539L16.364,284.221L17.273,278.606L18.182,252.778L19.091,277.321L20,142.062L20.909,286.533L21.818,276.204L22.727,250.495L23.636,219.672L24.545,184.232L25.455,192.88L26.364,184.601L27.273,276.348L28.182,209.322L29.091,210.866L30,120.52L30.909,210.15L31.818,308.222L32.727,249.924L33.636,258.003L34.545,207.252L35.455,163.227L36.364,222.558L37.273,180.587L38.182,246.374L39.091,239.483L40,267.243L40.909,143.654L41.818,283.172L42.727,305.799L43.636,327.652L44.545,127.235L45.455,233.697L46.364,273.832L47.273,262.784L48.182,190.874L49.091,218.966L50,282.64L50.909,198.191L51.818,292.367L52.727,189.453L53.636,227.555L54.545,169.311L55.455,178.481L56.364,177.569L57.273,157.018L58.182,143.411L59.091,259.365L60,247.015L60.909,280.828L61.818,267.012L62.727,256.729L63.636,250.58L64.545,312.223L65.455,192.856L66.364,312.673L67.273,291.545L68.182,181.469L69.091,202.891L70,273.982L70.909,142.258L71.818,250.323L72.727,320.016L73.636,357.7L74.545,132.505L75.455,170.98L76.364,261.956L77.273,294.819L78.182,199.547L79.091,256.095L80,253.383L80.909,309.537L81.818,340.283L82.727,329.979L83.636,254.366L84.545,156.486L85.455,188.229L86.364,229.974L87.273,286.447L88.182,208.181L89.091,218.855L90,213.721L90.909,182.545L91.818,280.619L92.727,220.602L93.636,247.556L94.545,195.618L95.455,239.688L96.364,282.117L97.273,230.132L98.182,250.467L99.091,210.987L100,236.046L100.909,263.849L101.818,186.813L102.727,131.217L103.636,181.083L104.545,198.769L105.455,242.069L106.364,228.877L107.273,330.576L108.182,276.228L109.091,238.347L110,245.076L110.909,227.335L111.818,213.692L112.727,225.49L113.636,263.68L114.545,222.357L115.455,241.635L116.364,82.816L117.273,275.376L118.182,356.443L119.091,271.145L120,227.045L120.909,232.525L121.818,192L122.727,175.878L123.636,268.266L124.545,155.61L125.455,213.403L126.364,247.993L127.273,179.62L128.182,218.552L129.091,146.629L130,226.247L130.909,194.708L131.818,248.127L132.727,236.808L133.636,217.569L134.545,322.237L135.455,174.096L136.364,175.632L137.273,295.871L138.182,186.108L139.091,161.518L140,352.137L140.909,166.716L141.818,192.394L142.727,139.257L143.636,190.735L144.545,300.111L145.455,288.752L146.364,234.859L147.273,269.545L148.182,225.919L149.091,200.272L150,329.08L150.909,72.085L151.818,293.763L152.727,266.995L153.636,174.286L154.545,217.191L155.455,284.451L156.364,202.614L157.273,189.96L158.182,168.164L159.091,234.68L160,199.654L160.909,304.735L161.818,179.663L162.727,234.715L163.636,228.22L164.545,229.779L165.455,137.827L166.364,326.932L167.273,236.081L168.182,207.668L169.091,311.373L170,256.802L170.909,168.499L171.818,250.609L172.727,298.456L173.636,263.851L174.545,237.756L175.455,171.896L176.364,172.278L177.273,242.729L178.182,305.837L179.091,236.577L180,283.033L180.909,147.159L181.818,243.179L182.727,147.003L183.636,208.723L184.545,258.318L185.455,293.409L186.364,337.669L187.273,177.078L188.182,211.4L189.091,280.702L190,255.006L190.909,217.587L191.818,262.093L192.727,205.926L193.636,280.61L194.545,241.349L195.455,222.865L196.364,243.96L197.273,257.169L198.182,351.773L199.091,268.142L200,248.108L200.909,129.234L201.818,226.923L202.727,211.151L203.636,119.52L204.545,260.773L205.455,300.689L206.364,264.439L207.273,273.869L208.182,212.247L209.091,257.576L210,192.567L210.909,208.779L211.818,184.243L212.727,185.774L213.636,236.658L214.545,210.334L215.455,103.539L216.364,186.168L217.273,209.732L218.182,250.771L219.091,84.74L220,58.591L220.909,322.672L221.818,258.836L222.727,290.976L223.636,189.775L224.545,252.851L225.455,261.036L226.364,266.814L227.273,174.038L228.182,236.2L229.091,117.272L230,281.138L230.909,311.181L231.818,319.702L232.727,283.024L233.636,345.385L234.545,281.535L235.455,174.147L236.364,311.548L237.273,280.928L238.182,187.003L239.091,315.775L240,190.309L240.909,211.409L241.818,206.065L242.727,297.272L243.636,229.439L244.545,238.632L245.455,290.826L246.364,175.903L247.273,263.998L248.182,240.965L249.091,251.498L250,230.609L250.909,252.494L251.818,283.139L252.727,192.663L253.636,257.019L254.545,132.922L255.455,233.378L256.364,245.682L257.273,268.246L258.182,158.29L259.091,258.384L260,278.647L260.909,140.499L261.818,326.571L262.727,173.481L263.636,185.433L264.545,265.971L265.455,203.492L266.364,230.326L267.273,287.993L268.182,284.706L269.091,183.559L270,248.3L270.909,246.904L271.818,285.068L272.727,357.015L273.636,222.297L274.545,249.686L275.455,237.577L276.364,213.005L277.273,277.312L278.182,240.667L279.091,172.871L280,160.312L280.909,212.879L281.818,305.225L282.727,203.433L283.636,204.528L284.545,290.777L285.455,176.873L286.364,210.511L287.273,217.075L288.182,154.669L289.091,251.528L290,273.401L290.909,224.312L291.818,102.646L292.727,121.996L293.636,263.565L294.545,308.626L295.455,140.285L296.364,158.918L297.273,183.189L298.182,262.762L299.091,234.81L300,190.2L300.909,305.561L301.818,137.165L302.727,297.455L303.636,110.184L304.545,235.586L305.455,258.128L306.364,226.023L307.273,289.011L308.182,199.468L309.091,304.019L310,168.498L310.909,229.292L311.818,187.098L312.727,198.969L313.636,135.628L314.545,165.14L315.455,136.577L316.364,268.119L317.273,98.695L318.182,202.413L319.091,243.21L320,185.83L320.909,207.574L321.818,275.44L322.727,219.805L323.636,247.348L324.545,200.802L325.455,212.197L326.364,198.416L327.273,252.815L328.182,239.407L329.091,189.156L330,314.975L330.909,152.171L331.818,159.392L332.727,178.528L333.636,115.477L334.545,73.346L335.455,171.3L336.364,285.68L337.273,191.261L338.182,183.363L339.091,181.399L340,241.299L340.909,306.028L341.818,244.155L342.727,197.46L343.636,234.571L344.545,166.455L345.455,176.348L346.364,281.515L347.273,208.603L348.182,342.303L349.091,222.523L350,232.908L350.909,213.793L351.818,218.944L352.727,84.008L353.636,135.703L354.545,286.729L355.455,213.099L356.364,290.592L357.273,170.544L358.182,204.043L359.091,175.821L360,289.505L360.909,215.748L361.818,176.088L362.727,239.102L363.636,174.588L364.545,219.958L365.455,172.387L366.364,248.472L367.273,119.839L368.182,193.738L369.091,254.072L370,326.782L370.909,302.666L371.818,271.726L372.727,236.496L373.636,368.297L374.545,214.303L375.455,235.108L376.364,138.245L377.273,181.749L378.182,266.024L379.091,226.53L380,294.557L380.909,205.866L381.818,287.206L382.727,305.332L383.636,312.331L384.545,221.983L385.455,225.451L386.364,199.945L387.273,240.269L388.182,199.686L389.091,226.017L390,165.863L390.909,242.771L391.818,317.286L392.727,235.882L393.636,281.784L394.545,194.102L395.455,245.079L396.364,305.764L397.273,222.414L398.182,281.491L399.091,302.324L400,299.404L400.909,197.545L401.818,246.615L402.727,221.373L403.636,153.812L404.545,227.847L405.455,221.506L406.364,157.711L407.273,367.627L408.182,156.252L409.091,319.764L410,141.5L410.909,208.443L411.818,145.422L412.727,165.537L413.636,230.548L414.545,226.053L415.455,320.145L416.364,246.89L417.273,289.84L418.182,213.125L419.091,248.095L420,329.523L420.909,324.873L421.818,243.291L422.727,212.301L423.636,187.855L424.545,113.502L425.455,307.224L426.364,189.714L427.273,189.413L428.182,118.869L429.091,323.641L430,235.724L430.909,223.738L431.818,274.418L432.727,159.513L433.636,284.875L434.545,207.08L435.455,301.002L436.364,271.381L437.273,266.339L438.182,189.198L439.091,220.224L440,229.979L440.909,56.088L441.818,211.563L442.727,269.445L443.636,158.056L444.545,272.611L445.455,151.835L446.364,220.813L447.273,294.369L448.182,256.099L449.091,233.289L450,286.661L450.909,195.949L451.818,242.441L452.727,304.823L453.636,226.793L454.545,232.013L455.455,260.371L456.364,263.46L457.273,279.967L458.182,145.929L459.091,282.817L460,310.259L460.909,133.845L461.818,230.15L462.727,226.047L463.636,200.64L464.545,200.217L465.455,258.779L466.364,145.071L467.273,161.202L468.182,282.612L469.091,235.015L470,276.143L470.909,275.805L471.818,271.186L472.727,110.059L473.636,265.904L474.545,287.864L475.455,218.433L476.364,101.881L477.273,265.711L478.182,255.375L479.091,168.077L480,191.285L480.909,235.222L481.818,233.004L482.727,191.239L483.636,273.467L484.545,200.053L485.455,197.689L486.364,249.903L487.273,199.408L488.182,276.832L489.091,234.555L490,212.109L490.909,213.44L491.818,144.741L492.727,208.575L493.636,174.813L494.545,247.379L495.455,246.869L496.364,221.599L497.273,169.696L498.182,277.656L499.091,194.738L500,311.851L500.909,201.246L501.818,122.156L502.727,209.805L503.636,172.347L504.545,162.569L505.455,367.995L506.364,284.982L507.273,232.975L508.182,291.274L509.091,228.953L510,103.863L510.909,231.635L511.818,178.398L512.727,136.644L513.636,179.229L514.545,273.207L515.455,202.673L516.364,287.986L517.273,234.391L518.182,220.145L519.091,281.527L520,177.026L520.909,297.841L521.818,226.074L522.727,209.276L523.636,204.939L524.545,157.116L525.455,293.095L526.364,249.916L527.273,177.794L528.182,192.2L529.091,192.611L530,286.271L530.909,298.608L531.818,134.045L532.727,293.701L533.636,222.011L534.545,213.486L535.455,236.267L536.364,275.872L537.273,238.266L538.182,274.377L539.091,135.928L540,261.167L540.909,206.114L541.818,97.96L542.727,183.284L543.636,163.821L544.545,241.066L545.455,241.981L546.364,209.352L547.273,290.25L548.182,295.659L549.091,268.928L550,255.066L550.909,210.97L551.818,107.685L552.727,145.194L553.636,216.714L554.545,226.335L555.455,170.654L556.364,152.599L557.273,228.423L558.182,162.31L559.091,288.083L560,254.67L560.909,131.196L561.818,154.087L562.727,250.645L563.636,297.255L564.545,272.147L565.455,185.855L566.364,155.13L567.273,239.145L568.182,135.411L569.091,220.838L570,175.638L570.909,287.082L571.818,163.821L572.727,162.348L573.636,227.374L574.545,196.413L575.455,176.051L576.364,263.843L577.273,130.851L578.182,263.745L579.091,211.761L580,244.891L580.909,302.164L581.818,219.291L582.727,244.245L583.636,262.905L584.545,187.479L585.455,264.433L586.364,221.462L587.273,229.348L588.182,233.153L589.091,202.682L590,186.169L590.909,248.675L591.818,182.412L592.727,232.999L593.636,235.509L594.545,284.41L595.455,221.395L596.364,127.416L597.273,266.6L598.182,205.059L599.091,188.14L600,295.508L600.909,237.066L601.818,332.845L602.727,304.199L603.636,268.632L604.545,192.453L605.455,155.236L606.364,215.113L607.273,287.977L608.182,266.202L609.091,285.389L610,201.048L610.909,234.511L611.818,242.057L612.727,266.16L613.636,169.985L614.545,186.163L615.455,225.322L616.364,212.743L617.273,175.024L618.182,208.456L619.091,246.197L620,186.984L620.909,126.785L621.818,228.125L622.727,206.406L623.636,144.009L624.545,168.572L625.455,243.474L626.364,236.134L627.273,121.117L628.182,230.295L629.091,142.11L630,213.871L630.909,272.797L631.818,138.566L632.727,151.24L633.636,247.108L634.545,212.196L635.455,152.923L636.364,255.776L637.273,252.095L638.182,271.524L639.091,225.343L640,152.885L640.909,194.59L641.818,150.727L642.727,150.085L643.636,176.23L644.545,148.544L645.455,202.618L646.364,111.462L647.273,200.237L648.182,241.151L649.091,152.318L650,346.614L650.909,256.497L651.818,304.012L652.727,208.871L653.636,152.819L654.545,200.213L655.455,224.369L656.364,309.818L657.273,228.572L658.182,154.715L659.091,271.843L660,227.838L660.909,221.94L661.818,164.866L662.727,296.676L663.636,214.999L664.545,175.504L665.455,245.362L666.364,256.56L667.273,202.298L668.182,215.74L669.091,284.632L670,158.579L670.909,224.95L671.818,296.785L672.727,129.148L673.636,273.363L674.545,199.771L675.455,162.508L676.364,159.478L677.273,203.557L678.182,309.374L679.091,194.619L680,215.483L680.909,293.002L681.818,282.279L682.727,134.091L683.636,205.827L684.545,171.318L685.455,201.572L686.364,209.752L687.273,149.838L688.182,183.004L689.091,183.928L690,230.534L690.909,229.8L691.818,280.391L692.727,116.684L693.636,335.808L694.545,218.986L695.455,226.793L696.364,225.418L697.273,202.064L698.182,139.541L699.091,288.653L700,205.873L700.909,225.135L701.818,279.437L702.727,191.56L703.636,269.868L704.545,227.432L705.455,253.191L706.364,315.322L707.273,244.968L708.182,262.732L709.091,307.305L710,237.9L710.909,232.715L711.818,158.277L712.727,250.606L713.636,248.612L714.545,189.565L715.455,162.027L716.364,209.48L717.273,156.005L718.182,118.166L719.091,185.539L720,206.594L720.909,184.072L721.818,241.83L722.727,187.922L723.636,179.062L724.545,147.569L725.455,137.627L726.364,72.645L727.273,195.643L728.182,233.079L729.091,171.392L730,191.783L730.909,256.965L731.818,126.307L732.727,181.892L733.636,215.368L734.545,124.546L735.455,198.81L736.364,168.233L737.273,164.135L738.182,158.573L739.091,177.282L740,198.917L740.909,152.503L741.818,179.242L742.727,192.819L743.636,306.675L744.545,239.247L745.455,248.051L746.364,224.676L747.273,197.017L748.182,236.712L749.091,220.701L750,202.463L750.909,210.447L751.818,191.393L752.727,119.274L753.636,169.925L754.545,186.963L755.455,191.947L756.364,206.842L757.273,81.727L758.182,217.675L759.091,180.822L760,154.932L760.909,200.067L761.818,179.373L762.727,97.191L763.636,162.459L764.545,127.81L765.455,285.369L766.364,234.184L767.273,202.072L768.182,149.964L769.091,198.56L770,151.168L770.909,143.594L771.818,187.704L772.727,258.127L773.636,209.925L774.545,206.961L775.455,153.306L776.364,201.876L777.273,126.936L778.182,244.219L779.091,226.237L780,144.392L780.909,235.584L781.818,194.443L782.727,183.533L783.636,271.887L784.545,155.661L785.455,142.515L786.364,127.907L787.273,212.61L788.182,222.66L789.091,261.814L790,132.231L790.909,224.209L791.818,148.522L792.727,132.455L793.636,169.073L794.545,164.185L795.455,164.572L796.364,196.591L797.273,208.026L798.182,163.169L799.091,198.938L800,242.457L800.909,208.03L801.818,315.312L802.727,194.009L803.636,231.958L804.545,143.356L805.455,151.097L806.364,154.425L807.273,179.343L808.182,236.208L809.091,211.242L810,234.273L810.909,169.809L811.818,184.256L812.727,235.996L813.636,226.949L814.545,230.348L815.455,95.679L816.364,209.614L817.273,115.043L818.182,220.621L819.091,178.973L820,200.35L820.909,183.792L821.818,255.598L822.727,217.225L823.636,179.18L824.545,62.571L825.455,78.684L826.364,247.9L827.273,147.995L828.182,202.921L829.091,148.346L830,132.741L830.909,78.314L831.818,104.588L832.727,172.552L833.636,130.668L834.545,215.957L835.455,245.487L836.364,237.242L837.273,249.121L838.182,171.762L839.091,171.175L840,299.956L840.909,188.367L841.818,88.522L842.727,113.732L843.636,298.6L844.545,128.235L845.455,221.299L846.364,181.633L847.273,156.682L848.182,104.998L849.091,217.207L850,146.66L850.909,123.537L851.818,106.176L852.727,239.725L853.636,136.277L854.545,184.355L855.455,229.862L856.364,116.797L857.273,250.236L858.182,107.736L859.091,191.85L860,181.734L860.909,264.687L861.818,188.241L862.727,149.763L863.636,149.363L864.545,185.676L865.455,209.688L866.364,213.509L867.273,151.992L868.182,160.457L869.091,208.626L870,160.924L870.909,209.363L871.818,182.524L872.727,252.236L873.636,169.612L874.545,184.145L875.455,137.252L876.364,163.739L877.273,146.119L878.182,261.899L879.091,179.314L880,198.566L880.909,153.164L881.818,148.313L882.727,112.523L883.636,255.174L884.545,219.935L885.455,157.861L886.364,237.254L887.273,205.354L888.182,114.657L889.091,159.305L890,252.308L890.909,265.543L891.818,121.029L892.727,158.049L893.636,107.455L894.545,163.092L895.455,152.376L896.364,133.893L897.273,212.759L898.182,135.702L899.091,160.717L900,74.227L900.909,188.24L901.818,171.933L902.727,87.258L903.636,173.012L904.545,181.112L905.455,26.595L906.364,229.628L907.273,227.369L908.182,73.378L909.091,160.166L910,179.748L910.909,168.812L911.818,210.133L912.727,219.073L913.636,195.58L914.545,135.14L915.455,186.495L916.364,205.75L917.273,138.669L918.182,239.71L919.091,200.76L920,205.337L920.909,143.115L921.818,235.186L922.727,49.887L923.636,157.001L924.545,135.796L925.455,129.215L926.364,104.216L927.273,238.742L928.182,208.377L929.091,186.26L930,90.966L930.909,156.71L931.818,107.558L932.727,120.872L933.636,181.516L934.545,211.404L935.455,39.901L936.364,136.73L937.273,189.891L938.182,185.57L939.091,128.233L940,216.159L940.909,117.964L941.818,185.579L942.727,127.056L943.636,222.789L944.545,55.48L945.455,183.15L946.364,181.359L947.273,152.994L948.182,166.223L949.091,228.819L950,148.733L950.909,220.84L951.818,234.675L952.727,195.618L953.636,194.909L954.545,309.025L955.455,144.67L956.364,215.288L957.273,143.45L958.182,211.168L959.091,269.698L960,212.215L960.909,137.533L961.818,263.366L962.727,177.048L963.636,223.759L964.545,250.313L965.455,133.702L966.364,108.426L967.273,168.302L968.182,141.338L969.091,209.302L970,186.368L970.909,131.042L971.818,202.35L972.727,274.895L973.636,128.019L974.545,212.056L975.455,192.964L976.364,192.989L977.273,162.885L978.182,107.816L979.091,277.194L980,199.005L980.909,120.055L981.818,277.85L982.727,254.458L983.636,193.711L984.545,195.517L985.455,151.932L986.364,142.391L987.273,193.688L988.182,160.616L989.091,223.428L990,196.962L990.909,258.502L991.818,276.976L992.727,248.921L993.636,197.86L994.545,195.411L995.455,287.303" stroke="#4c78a8" stroke-width="2"/></g></g><path class="foreground" aria-hidden="true" d="" display="none"/></g></g></g></svg>