<svg xmlns="http://www.w3.org/2000/svg" xmlns:xlink="http://www.w3.org/1999/xlink" version="1.1" class="marks" width="1012" height="385" viewBox="0 0 1012 385"><rect width="1012" height="385" fill="white"/><g fill="none" stroke-miterlimit="10" transform="translate(7,5)"><g class="mark-group role-frame root" role="graphics-object" aria-roledescription="group mark container"><g transform="translate(0,0)"><path class="background" aria-hidden="true" d="M0.5,0.5h1000v375h-1000Z" stroke="#ddd"/><g><g class="mark-group role-axis" role="graphics-symbol" aria-roledescription="axis" aria-label="X-axis for a linear scale with values from 0 to 1,100"><g transform="translate(0.5,375.5)"><path class="background" aria-hidden="true" d="M0,0h0v0h0Z" pointer-events="none"/><g><g class="mark-rule role-axis-domain" pointer-events="none"><line transform="translate(0,0)" x2="1000" y2="0" stroke="#888" stroke-width="1" opacity="1"/></g></g><path class="foreground" aria-hidden="true" d="" pointer-events="none" display="none"/></g></g><g class="mark-group role-axis" role="graphics-symbol" aria-roledescription="axis" aria-label="Y-axis for a linear scale with values from 40,000 to 160,000"><g transform="translate(0.5,0.5)"><path class="background" aria-hidden="true" d="M0,0h0v0h0Z" pointer-events="none"/><g><g class="mark-rule role-axis-domain" pointer-events="none"><line transform="translate(0,375)" x2="0" y2="-375" stroke="#888" stroke-width="1" opacity="1"/></g></g><path class="foreground" aria-hidden="true" d="" pointer-events="none" display="none"/></g></g><g class="mark-line role-mark marks" role="graphics-object" aria-roledescription="line mark container"><path aria-label="x: 1; y: 88361.6486343" role="graphics-symbol" aria-roledescription="line mark" d="M0.909,223.87L1.818,211.234L2.727,199.723L3.636,189.082L4.545,206.537L5.455,209.212L6.364,195.89L7.273,181.628L8.182,197.46L9.091,168.231L10,190.309L10.909,183.281L11.818,180.005L12.727,177.502L13.636,193.729L14.545,183.529L15.455,185.33L16.364,200.59L17.273,206.519L18.182,188.555L19.091,200.967L20,194.568L20.909,189.284L21.818,183.244L22.727,190.769L23.636,194.015L24.545,220.935L25.455,169.241L26.364,190.548L27.273,191.982L28.182,190.545L29.091,158.665L30,215.795L30.909,185.368L31.818,185.214L32.727,192.331L33.636,195.868L34.545,208.22L35.455,207.866L36.364,178.85L37.273,168.442L38.182,187.517L39.091,190.391L40,194.818L40.909,186.654L41.818,198.243L42.727,216.124L43.636,192.529L44.545,189.458L45.455,195.897L46.364,184.532L47.273,214.292L48.182,191.476L49.091,198.227L50,189.986L50.909,194.684L51.818,193.003L52.727,194.114L53.636,199.819L54.545,222.141L55.455,202.378L56.364,224.145L57.273,209.181L58.182,195.145L59.091,182.818L60,219.289L60.909,205.499L61.818,204.138L62.727,208.327L63.636,196.603L64.545,220.071L65.455,224.1L66.364,208.001L67.273,200.044L68.182,214.55L69.091,209.777L70,217.29L70.909,223.371L71.818,233.405L72.727,197.384L73.636,212.952L74.545,218.954L75.455,217.35L76.364,188.161L77.273,201.809L78.182,203.485L79.091,219.852L80,206.243L80.909,207.683L81.818,219.752L82.727,189.321L83.636,195.624L84.545,173.987L85.455,176.057L86.364,201.381L87.273,191.054L88.182,181.939L89.091,213.669L90,214.001L90.909,183.131L91.818,218.866L92.727,201.886L93.636,214.172L94.545,219.376L95.455,204.858L96.364,199.53L97.273,218.281L98.182,201.258L99.091,182.056L100,191.375L100.909,193.755L101.818,193.628L102.727,181.864L103.636,189.156L104.545,198.63L105.455,206.682L106.364,199.556L107.273,198.942L108.182,188.459L109.091,178.847L110,180.021L110.909,206.575L111.818,198.028L112.727,186.427L113.636,193.738L114.545,185.725L115.455,173.54L116.364,197.286L117.273,188.166L118.182,185.224L119.091,177.539L120,174.612L120.909,186.314L121.818,180.282L122.727,167.132L123.636,173.694L124.545,186.662L125.455,179.589L126.364,184.141L127.273,190.338L128.182,195.027L129.091,172.401L130,178.223L130.909,169.093L131.818,197.807L132.727,161.988L133.636,181.383L134.545,181.587L135.455,185.12L136.364,174.179L137.273,216.886L138.182,189.483L139.091,196.594L140,188.392L140.909,197.162L141.818,215.237L142.727,214.482L143.636,220.182L144.545,199.76L145.455,203.945L146.364,205.555L147.273,206.969L148.182,198.279L149.091,200.746L150,193.934L150.909,178.442L151.818,202.819L152.727,191.914L153.636,200.921L154.545,191.946L155.455,193.945L156.364,177.038L157.273,195.748L158.182,214.024L159.091,187.464L160,206.61L160.909,197.974L161.818,190.569L162.727,207.458L163.636,191.928L164.545,211.798L165.455,187.298L166.364,214.952L167.273,208.685L168.182,198.864L169.091,186.495L170,178.904L170.909,190.548L171.818,199.346L172.727,206.709L173.636,206.701L174.545,201.131L175.455,179.461L176.364,185.941L177.273,196.56L178.182,199.016L179.091,169.407L180,203.22L180.909,192.83L181.818,198.484L182.727,202.334L183.636,198.002L184.545,211.409L185.455,241.303L186.364,218.812L187.273,185.535L188.182,219.12L189.091,198.704L190,221.468L190.909,193.449L191.818,205.643L192.727,199.865L193.636,183.794L194.545,182.222L195.455,197.739L196.364,203.084L197.273,205.741L198.182,196.901L199.091,226.552L200,208.705L200.909,203.383L201.818,201.226L202.727,207.635L203.636,203.729L204.545,194.642L205.455,205.526L206.364,212.922L207.273,204.794L208.182,190.403L209.091,197.175L210,195.896L210.909,184.742L211.818,187.157L212.727,189.4L213.636,198.789L214.545,170.996L215.455,198.674L216.364,195.787L217.273,202.821L218.182,203.17L219.091,192.74L220,180.614L220.909,191.261L221.818,184.592L222.727,227.307L223.636,188.659L224.545,187.16L225.455,190.264L226.364,198.926L227.273,208.793L228.182,183.989L229.091,192.661L230,204.598L230.909,204.142L231.818,205.253L232.727,209.673L233.636,183.894L234.545,215.03L235.455,184.179L236.364,203.329L237.273,198.623L238.182,212.297L239.091,202.55L240,208.982L240.909,188.225L241.818,202.014L242.727,201.469L243.636,218.259L244.545,221.034L245.455,203.959L246.364,216.398L247.273,199.377L248.182,214.563L249.091,211.979L250,196.96L250.909,194.195L251.818,190.346L252.727,209.113L253.636,186.162L254.545,208.362L255.455,181.254L256.364,204.611L257.273,218.444L258.182,170.734L259.091,190.704L260,201.969L260.909,167.593L261.818,196.863L262.727,185.567L263.636,182.316L264.545,205.363L265.455,200.966L266.364,192.798L267.273,195.843L268.182,185.001L269.091,190.694L270,211.645L270.909,194.845L271.818,169.554L272.727,183.378L273.636,198.345L274.545,195.198L275.455,189.275L276.364,206.925L277.273,188.704L278.182,197.222L279.091,193.277L280,240.371L280.909,191.406L281.818,191.831L282.727,193.007L283.636,202.248L284.545,220.796L285.455,215.294L286.364,207.581L287.273,214.9L288.182,214.728L289.091,208.71L290,253.715L290.909,214.426L291.818,221.3L292.727,194.497L293.636,200.013L294.545,199.789L295.455,186.505L296.364,207.408L297.273,185.001L298.182,211.763L299.091,205.414L300,183.55L300.909,198.312L301.818,181.486L302.727,209.998L303.636,186.753L304.545,190.208L305.455,177.102L306.364,194.971L307.273,196.013L308.182,198.378L309.091,197.823L310,196.007L310.909,183.041L311.818,183.883L312.727,192.931L313.636,180.212L314.545,188.589L315.455,191.21L316.364,186.568L317.273,178.819L318.182,202.712L319.091,192.445L320,169.108L320.909,189.232L321.818,172.404L322.727,190.95L323.636,180.161L324.545,187.476L325.455,167.81L326.364,201.609L327.273,208.632L328.182,186.483L329.091,192.668L330,174.447L330.909,165.097L331.818,186.977L332.727,175.978L333.636,179.89L334.545,174.906L335.455,186.805L336.364,179.532L337.273,174.671L338.182,172.95L339.091,172.093L340,190.965L340.909,165.99L341.818,186.394L342.727,176.223L343.636,173.904L344.545,181.195L345.455,186.898L346.364,173.238L347.273,185.505L348.182,200.712L349.091,197.606L350,180.473L350.909,187.185L351.818,204.52L352.727,176.821L353.636,168.733L354.545,200.67L355.455,194.223L356.364,189.552L357.273,174.297L358.182,169.099L359.091,196.609L360,191.012L360.909,185.749L361.818,166.468L362.727,176.831L363.636,186.698L364.545,204.387L365.455,192.583L366.364,182.85L367.273,190.382L368.182,186.709L369.091,188.373L370,186.767L370.909,201.253L371.818,190.433L372.727,196.52L373.636,169.186L374.545,212.233L375.455,202.748L376.364,197.192L377.273,189.978L378.182,197.301L379.091,200.144L380,213.817L380.909,229.969L381.818,198.14L382.727,197.188L383.636,194.142L384.545,193.811L385.455,184.29L386.364,197.3L387.273,187.077L388.182,182.491L389.091,200.2L390,182.195L390.909,193.165L391.818,179.787L392.727,177.446L393.636,193.585L394.545,194.989L395.455,183.937L396.364,195.422L397.273,164.623L398.182,193.352L399.091,195.479L400,188.965L400.909,185.04L401.818,160.952L402.727,178.573L403.636,191.337L404.545,201.927L405.455,168.834L406.364,172.405L407.273,178.11L408.182,185.089L409.091,170.825L410,160.34L410.909,180.038L411.818,187.103L412.727,184.716L413.636,179.465L414.545,203.757L415.455,168.549L416.364,203.91L417.273,175.874L418.182,177.823L419.091,176.317L420,192.282L420.909,179.512L421.818,177.308L422.727,200.277L423.636,176.266L424.545,174.433L425.455,188.694L426.364,199.444L427.273,202.923L428.182,181.019L429.091,199.259L430,179.32L430.909,180.956L431.818,198.687L432.727,176.498L433.636,169.768L434.545,178.102L435.455,192.579L436.364,167.387L437.273,169.229L438.182,184.666L439.091,173.164L440,191.186L440.909,160.55L441.818,162.06L442.727,182.141L443.636,174.074L444.545,168.508L445.455,170.301L446.364,158.129L447.273,159.772L448.182,169.017L449.091,189.591L450,168.406L450.909,177.706L451.818,181.692L452.727,190.379L453.636,162.896L454.545,190.393L455.455,157.605L456.364,165.516L457.273,191.801L458.182,166.432L459.091,188.624L460,168.95L460.909,186.724L461.818,187.325L462.727,195.101L463.636,186.83L464.545,171.291L465.455,188.43L466.364,161.537L467.273,185.757L468.182,186.125L469.091,174.155L470,215.558L470.909,163.793L471.818,174.792L472.727,171.361L473.636,201.487L474.545,211.597L475.455,163.545L476.364,189.725L477.273,199.105L478.182,162.928L479.091,167.024L480,154.067L480.909,177.537L481.818,190.936L482.727,184.492L483.636,179.724L484.545,173.183L485.455,174.624L486.364,175.4L487.273,170.61L488.182,198.486L489.091,165.28L490,175.684L490.909,187.804L491.818,186.539L492.727,208.31L493.636,175.499L494.545,195.967L495.455,186.654L496.364,170.291L497.273,181.752L498.182,200.247L499.091,182.885L500,170.793L500.909,179.912L501.818,167.918L502.727,167.592L503.636,171.515L504.545,190.881L505.455,197.586L506.364,202.525L507.273,233.948L508.182,201.67L509.091,159.373L510,189.995L510.909,176.819L511.818,165.926L512.727,167.383L513.636,174.468L514.545,164.482L515.455,176.12L516.364,172.341L517.273,217.795L518.182,159.704L519.091,179.523L520,178.032L520.909,199.694L521.818,198.495L522.727,197.393L523.636,198.438L524.545,193.468L525.455,166.844L526.364,192.352L527.273,199.979L528.182,198.558L529.091,190.341L530,197.199L530.909,189.558L531.818,171.247L532.727,179.101L533.636,213.615L534.545,183.659L535.455,183.024L536.364,174.22L537.273,185.002L538.182,174.845L539.091,171.029L540,190.116L540.909,192.467L541.818,179.314L542.727,179.189L543.636,161.398L544.545,179.72L545.455,173.459L546.364,199.371L547.273,159.275L548.182,168.992L549.091,170.013L550,160.409L550.909,167.423L551.818,161.071L552.727,159.21L553.636,166.665L554.545,189.058L555.455,194.535L556.364,170.114L557.273,169.348L558.182,175.71L559.091,159.472L560,159.211L560.909,164.635L561.818,168.316L562.727,166.347L563.636,179.656L564.545,185.097L565.455,182.56L566.364,163.616L567.273,175.287L568.182,183.515L569.091,198.157L570,180.975L570.909,182.317L571.818,164.393L572.727,213.858L573.636,179.306L574.545,165.869L575.455,178.957L576.364,170.728L577.273,175.911L578.182,171.505L579.091,171.588L580,165.046L580.909,159.297L581.818,161.576L582.727,166.366L583.636,178.728L584.545,159.192L585.455,176.568L586.364,175.877L587.273,171.432L588.182,183.032L589.091,175.807L590,174.78L590.909,182.11L591.818,164.492L592.727,190.414L593.636,176.367L594.545,169.073L595.455,167.772L596.364,166.193L597.273,151.712L598.182,159.017L599.091,149.919L600,161.636L600.909,188.241L601.818,201.268L602.727,171.762L603.636,180.527L604.545,154.456L605.455,186.082L606.364,159.156L607.273,162.141L608.182,166.994L609.091,155.77L610,167.877L610.909,170.094L611.818,177.21L612.727,171.037L613.636,165.886L614.545,187.828L615.455,171.473L616.364,195.696L617.273,154.576L618.182,137.301L619.091,160.062L620,139.653L620.909,144.026L621.818,144.65L622.727,118.012L623.636,142.007L624.545,142.311L625.455,149.754L626.364,124.443L627.273,127.116L628.182,131.661L629.091,152.021L630,133.331L630.909,119.077L631.818,122.73L632.727,130.264L633.636,128.122L634.545,138.256L635.455,128.893L636.364,137.493L637.273,141.544L638.182,139.717L639.091,141.512L640,117.52L640.909,137.728L641.818,139.556L642.727,130.229L643.636,119.485L644.545,125.119L645.455,128.987L646.364,145.332L647.273,115.649L648.182,118.557L649.091,145.938L650,347.424L650.909,209.667L651.818,195.919L652.727,178.228L653.636,195.549L654.545,175.954L655.455,179.496L656.364,205.538L657.273,189.663L658.182,180.716L659.091,236.22L660,208.337L660.909,203.269L661.818,222.808L662.727,179.689L663.636,221.044L664.545,198.754L665.455,187.743L666.364,211.006L667.273,199.244L668.182,183.331L669.091,166.755L670,196.544L670.909,183.956L671.818,189.951L672.727,185.365L673.636,183.62L674.545,185.817L675.455,178.18L676.364,169.019L677.273,184.215L678.182,193.743L679.091,179.209L680,157.738L680.909,197.66L681.818,199.325L682.727,177.923L683.636,199.611L684.545,189.015L685.455,173.133L686.364,178.629L687.273,164.967L688.182,181.925L689.091,169.941L690,186.092L690.909,162.315L691.818,160.245L692.727,167.083L693.636,179.973L694.545,162.377L695.455,184.745L696.364,197.2L697.273,191.135L698.182,157.952L699.091,176.148L700,196.972L700.909,189.89L701.818,197.978L702.727,206.667L703.636,192.402L704.545,189.692L705.455,205.976L706.364,189.634L707.273,225.232L708.182,183.284L709.091,213.085L710,192.817L710.909,212.011L711.818,155.108L712.727,130.867L713.636,108.793L714.545,108.264L715.455,98.636L716.364,119.963L717.273,109.707L718.182,113.084L719.091,118.557L720,125.924L720.909,115.769L721.818,115.319L722.727,106.099L723.636,137.588L724.545,127.165L725.455,123.137L726.364,113.81L727.273,136.243L728.182,110.076L729.091,104.107L730,116.358L730.909,123.038L731.818,114.181L732.727,118.104L733.636,109.099L734.545,133.2L735.455,137.713L736.364,114.199L737.273,101.511L738.182,104.959L739.091,107.936L740,103.367L740.909,110.623L741.818,98.406L742.727,105.633L743.636,139.336L744.545,115.264L745.455,117.944L746.364,126.398L747.273,99.892L748.182,117.744L749.091,123.448L750,121.275L750.909,136.264L751.818,113.388L752.727,126.654L753.636,114.669L754.545,147.062L755.455,130.555L756.364,122.183L757.273,104.117L758.182,116.255L759.091,95.291L760,95.592L760.909,106.708L761.818,81.291L762.727,107.477L763.636,112.916L764.545,91.667L765.455,71.035L766.364,85.757L767.273,68.823L768.182,98.997L769.091,85.664L770,98.893L770.909,79.942L771.818,88.775L772.727,73.109L773.636,80.675L774.545,64.066L775.455,70.233L776.364,47.974L777.273,82.624L778.182,95.396L779.091,99.048L780,72.524L780.909,87.454L781.818,71.326L782.727,65.07L783.636,65.162L784.545,89.267L785.455,78.318L786.364,82.122L787.273,64.717L788.182,66.503L789.091,64.168L790,64.113L790.909,82.876L791.818,86.486L792.727,90.296L793.636,75.041L794.545,114.181L795.455,78.101L796.364,62.758L797.273,94.114L798.182,44.376L799.091,97.498L800,88.164L800.909,74.57L801.818,110.573L802.727,68.705L803.636,54.352L804.545,79.797L805.455,83.979L806.364,90.441L807.273,82.206L808.182,102.267L809.091,88.724L810,100.431L810.909,71.621L811.818,88.257L812.727,88.992L813.636,77.892L814.545,62.078L815.455,66.027L816.364,63.18L817.273,77.284L818.182,83.133L819.091,84.308L820,86.889L820.909,64.284L821.818,75.495L822.727,85.952L823.636,58.201L824.545,66.813L825.455,57.848L826.364,75.503L827.273,66.474L828.182,71.731L829.091,67.048L830,87.579L830.909,71.164L831.818,66.2L832.727,50.181L833.636,66.233L834.545,34.968L835.455,56.162L836.364,66.214L837.273,70.181L838.182,92.397L839.091,101.852L840,76.976L840.909,97.398L841.818,97.654L842.727,97.265L843.636,80.058L844.545,79.771L845.455,87.512L846.364,87.213L847.273,78.628L848.182,91.653L849.091,127.653L850,95.041L850.909,114.763L851.818,82.317L852.727,93.193L853.636,110.438L854.545,64.851L855.455,100.986L856.364,94.276L857.273,91.173L858.182,109.286L859.091,101.167L860,111.948L860.909,73.691L861.818,98.995L862.727,62.922L863.636,86.315L864.545,82.143L865.455,86.086L866.364,102.763L867.273,70.691L868.182,74.573L869.091,75.994L870,92.583L870.909,81.841L871.818,87.854L872.727,96.915L873.636,108.483L874.545,79.891L875.455,59.379L876.364,78.241L877.273,67.482L878.182,97.57L879.091,63.344L880,81.665L880.909,60.622L881.818,59.942L882.727,51.69L883.636,62.05L884.545,59.067L885.455,63.423L886.364,96.416L887.273,91.832L888.182,66.323L889.091,68.139L890,86.187L890.909,93.667L891.818,85.621L892.727,75.09L893.636,80.297L894.545,70.265L895.455,77.571L896.364,104.62L897.273,82.539L898.182,77.007L899.091,76.76L900,86.938L900.909,80.439L901.818,80.426L902.727,87.82L903.636,89.46L904.545,68.881L905.455,73.069L906.364,74.194L907.273,85.361L908.182,72.687L909.091,76.376L910,34.979L910.909,75.487L911.818,51.989L912.727,60.114L913.636,58.996L914.545,59.032L915.455,46.216L916.364,70.253L917.273,53.839L918.182,60.131L919.091,65.32L920,56.394L920.909,56.674L921.818,65.159L922.727,40.176L923.636,37.604L924.545,63.55L925.455,64.035L926.364,39.456L927.273,51.107L928.182,29.203L929.091,49.053L930,46.157L930.909,32.606L931.818,53.484L932.727,49.204L933.636,78.62L934.545,73.432L935.455,59.102L936.364,67.276L937.273,50.501L938.182,63.592L939.091,69.238L940,62.286L940.909,60.127L941.818,65.983L942.727,64.611L943.636,75.513L944.545,73.026L945.455,64.488L946.364,72.626L947.273,47.289L948.182,73.112L949.091,91.764L950,76.582L950.909,99.296L951.818,85.158L952.727,87.651L953.636,102.775L954.545,89.056L955.455,84.306L956.364,78.828L957.273,78.26L958.182,44.85L959.091,97.38L960,67.533L960.909,63.045L961.818,79.665L962.727,65.092L963.636,60.261L964.545,60.721L965.455,65.672L966.364,85.631L967.273,47.157L968.182,78.234L969.091,90.142L970,65.95L970.909,60.597L971.818,78.541L972.727,69.839L973.636,56.416L974.545,56.547L975.455,64.974L976.364,58.836L977.273,71.578L978.182,60.693L979.091,78.474L980,72.696L980.909,130.216L981.818,106.198L982.727,103.033L983.636,104.743L984.545,102.568L985.455,104.142L986.364,101.413L987.273,104.341L988.182,105.164L989.091,112.968L990,121.692L990.909,129.769L991.818,120.9L992.727,107.402L993.636,126.004L994.545,120.258L995.455,156.53" stroke="#4c78a8" stroke-width="2"/></g></g><path class="foreground" aria-hidden="true" d="" display="none"/></g></g></g></svg>