<svg xmlns="http://www.w3.org/2000/svg" version="1.1" xmlns:xlink="http://www.w3.org/1999/xlink" xmlns:svgjs="http://svgjs.dev/svgjs" width="950" height="375" id="chartSvg"><path d="M22,185 L23,185 L24,185 L25,185 L26,185 L26,186 L25,184 L25,180 L25,172 L26,163 L29,155 L31,149 L33,146 L35,145 L37,148 L39,153 L42,156 L44,157 L45,158 L46,158 L48,155 L53,145 L61,131 L66,127 L68,132 L71,139 L75,148 L80,155 L85,160 L88,162 L90,160 L93,157 L98,154 L106,154 L114,157 L123,168 L129,185 L135,202 L139,214 L144,222 L148,225 L153,229 L157,237 L161,248 L166,260 L169,268 L172,272 L173,273 L175,276 L178,285 L182,295 L186,301 L190,304 L191,303 L192,298 L194,288 L197,273 L202,258 L205,254 L205,255 L205,256 L206,250 L207,242 L210,234 L214,228 L217,222 L221,217 L222,217 L223,218 L224,222 L226,224 L227,226 L228,226 L229,225 L230,224 L233,222 L238,220 L246,215 L253,210 L256,211 L259,220 L263,230 L268,238 L275,241 L280,241 L285,239 L291,235 L299,229 L308,226 L313,227 L317,234 L319,242 L322,247 L325,249 L330,247 L336,242 L344,234 L352,227 L360,223 L367,224 L374,229 L380,238 L386,247 L392,252 L398,253 L405,251 L414,246 L422,240 L432,232 L442,229 L449,232 L452,240 L457,248 L462,253 L468,254 L474,254 L481,251 L491,246 L503,240 L516,236 L525,237 L530,243 L534,253 L541,261 L548,267 L556,268 L564,266 L574,260 L584,253 L593,251 L599,255 L604,261 L609,266 L616,270 L622,272 L630,271 L641,266 L653,261 L663,259 L670,261 L674,268 L681,277 L689,284 L697,287 L706,286 L717,283 L729,278 L742,276 L750,277 L755,283 L761,290 L768,295 L778,295 L789,294 L801,291 L813,289 L824,289 L834,290 L843,292 L851,294 L861,295 L873,297 L882,300 L892,303 L907,307 L924,309 L942,311 L958,313" fill="none" stroke="red" stroke-width="3"/></svg>