<svg xmlns="http://www.w3.org/2000/svg" xmlns:xlink="http://www.w3.org/1999/xlink" version="1.1" class="marks" width="1012" height="385" viewBox="0 0 1012 385"><rect width="1012" height="385" fill="white"/><g fill="none" stroke-miterlimit="10" transform="translate(5,5)"><g class="mark-group role-frame root" role="graphics-object" aria-roledescription="group mark container"><g transform="translate(0,0)"><path class="background" aria-hidden="true" d="M0.5,0.5h1000v375h-1000Z" stroke="#ddd"/><g><g class="mark-group role-axis" role="graphics-symbol" aria-roledescription="axis" aria-label="X-axis for a linear scale with values from 0 to 500"><g transform="translate(0.5,375.5)"><path class="background" aria-hidden="true" d="M0,0h0v0h0Z" pointer-events="none"/><g><g class="mark-rule role-axis-domain" pointer-events="none"><line transform="translate(0,0)" x2="1000" y2="0" stroke="#888" stroke-width="1" opacity="1"/></g></g><path class="foreground" aria-hidden="true" d="" pointer-events="none" display="none"/></g></g><g class="mark-group role-axis" role="graphics-symbol" aria-roledescription="axis" aria-label="Y-axis for a linear scale with values from −80 to 140"><g transform="translate(0.5,0.5)"><path class="background" aria-hidden="true" d="M0,0h0v0h0Z" pointer-events="none"/><g><g class="mark-rule role-axis-domain" pointer-events="none"><line transform="translate(0,375)" x2="0" y2="-375" stroke="#888" stroke-width="1" opacity="1"/></g></g><path class="foreground" aria-hidden="true" d="" pointer-events="none" display="none"/></g></g><g class="mark-line role-mark marks" role="graphics-object" aria-roledescription="line mark container"><path aria-label="x: 1; y: 11.7680861062" role="graphics-symbol" aria-roledescription="line mark" d="M2,218.577L4,140.48L6,285.77L8,275.994L10,304.019L12,295.888L14,290.013L16,252.384L18,269.595L20,302.121L22,311.141L24,289.307L26,315.659L28,298.023L30,307.312L32,318.818L34,240.353L36,239.202L38,310.492L40,259.312L42,325.615L44,346.304L46,260.14L48,317.56L50,221.434L52,351.011L54,321.294L56,271.872L58,242.018L60,223.713L62,286.306L64,284.892L66,271.973L68,261.063L70,222.731L72,224.655L74,215.117L76,276.332L78,247.299L80,274.727L82,273.906L84,285.426L86,313.198L88,287.026L90,235.76L92,241.29L94,222.715L96,272.428L98,229.247L100,230.564L102,188.017L104,221.335L106,290.158L108,319.122L110,259.699L112,287.715L114,231.578L116,326.37L118,213.222L120,207.869L122,231.084L124,219.326L126,242.807L128,245.176L130,255.803L132,282.919L134,268.701L136,300.437L138,242.834L140,272.552L142,211.204L144,200.807L146,300.052L148,259.682L150,252.131L152,230.308L154,318.894L156,302.678L158,220.701L160,303.577L162,290.752L164,256.894L166,264.083L168,260.709L170,262.174L172,244.574L174,275.628L176,256.641L178,195.738L180,258.143L182,268.481L184,271.539L186,336.609L188,297.019L190,279.249L192,201.547L194,217.341L196,224.621L198,215.205L200,254.312L202,306.523L204,185.284L206,263.827L208,201.398L210,280.659L212,264.72L214,290.636L216,292.171L218,245.074L220,324.881L222,261.512L224,261.425L226,247.259L228,219.976L230,154.874L232,314.026L234,272.658L236,333.921L238,352.685L240,302.096L242,349.772L244,330.159L246,261.783L248,323.077L250,338.24L252,286.67L254,290.918L256,238.373L258,247.325L260,261.126L262,289.886L264,230.13L266,312.19L268,286.223L270,268.78L272,221.243L274,238.065L276,255.739L278,304.041L280,266.67L282,269.542L284,266.954L286,280.66L288,274.477L290,330.752L292,256.731L294,283.709L296,262.862L298,352.907L300,292.035L302,353.603L304,292.883L306,176.957L308,235.711L310,281.333L312,235.475L314,290.997L316,234.297L318,231.495L320,279.137L322,164.539L324,235.688L326,162.114L328,232.638L330,256.343L332,250.803L334,223.564L336,228.83L338,272.919L340,211.113L342,261.902L344,278.458L346,233.638L348,260.015L350,178.288L352,172.043L354,188.579L356,197.777L358,152.099L360,156.357L362,162.428L364,141.151L366,205.336L368,115.968L370,190.698L372,187.769L374,163.96L376,221.013L378,223.422L380,160.331L382,132.103L384,113.528L386,158.402L388,78.155L390,125.875L392,145.458L394,206.323L396,161.043L398,132.059L400,146.719L402,176.794L404,180.316L406,164.771L408,192.294L410,184.078L412,132.413L414,15.855L416,156.286L418,178.777L420,130.525L422,237.597L424,169.908L426,240.548L428,159.812L430,136.958L432,203.014L434,180.108L436,98.66L438,191.268L440,129.552L442,222.855L444,211.351L446,233.542L448,182.732L450,146.006L452,160.45L454,208.141L456,145.114L458,185.457L460,153.841L462,242.608L464,208.45L466,190.576L468,126.393L470,143.04L472,201.453L474,172.329L476,203.241L478,227.052L480,250.352L482,175.212L484,237.355L486,150.441L488,132.126L490,184.141L492,97.464L494,95.616L496,167.296L498,247.118L500,250.371L502,255.57L504,179.449L506,302.187L508,225.415L510,201.013L512,214.352L514,153.154L516,225.764L518,131.715L520,197.454L522,178.013L524,175.189L526,200.542L528,268.935L530,228.87L532,220.682L534,302.286L536,179.553L538,128.971L540,173.81L542,227.276L544,122.858L546,116.141L548,105.198L550,194.879L552,164.488L554,178.211L556,121.902L558,147.649L560,116.84L562,174.838L564,151.156L566,199.558L568,145.186L570,277.159L572,106.839L574,177.903L576,171.424L578,191.076L580,211.914L582,205.856L584,180.206L586,203.353L588,269.813L590,221.297L592,179.959L594,96.971L596,204.028L598,97.673L600,142.65L602,141.195L604,211.956L606,171.561L608,178.006L610,221.186L612,173.266L614,200.658L616,133.15L618,112.365L620,199.737L622,189.934L624,173.693L626,144.323L628,178.293L630,129.42L632,146.392L634,164.527L636,198.853L638,237.497L640,111.907L642,101.764L644,173.129L646,143.389L648,138.265L650,276.796L652,175.397L654,176.585L656,236.453L658,146.496L660,95.637L662,134.194L664,228.614L666,176.14L668,233.751L670,137.2L672,186.229L674,168.119L676,231.785L678,177.788L680,143.569L682,163.613L684,148.863L686,243.18L688,176.892L690,182.175L692,195.413L694,149.157L696,105.225L698,127.899L700,144.12L702,243.441L704,200.223L706,164.524L708,199.098L710,205.475L712,251.029L714,192.358L716,169.527L718,283.19L720,215.602L722,122.215L724,131.93L726,139.186L728,203.084L730,229.504L732,208.462L734,187.229L736,195.856L738,187.764L740,173.582L742,215.074L744,176.179L746,195.236L748,233.266L750,231.831L752,122.807L754,151.16L756,101.673L758,180.858L760,236.84L762,143.235L764,220.896L766,235.416L768,207.86L770,152.58L772,149.228L774,224.498L776,255.721L778,245.54L780,250.471L782,223.605L784,206.019L786,245.595L788,207.649L790,218.613L792,211.435L794,181.408L796,188.5L798,140.298L800,156.368L802,179.132L804,241.136L806,290.814L808,177.463L810,252.984L812,281.169L814,260.509L816,188.895L818,146.841L820,198.065L822,175.947L824,260.765L826,243.352L828,209.448L830,260.863L832,276.582L834,163.194L836,294.253L838,262.553L840,282.536L842,321.391L844,208.667L846,219.451L848,111.527L850,189.266L852,247.725L854,236.313L856,274.58L858,206.556L860,200.194L862,259.497L864,195.329L866,206.361L868,234.201L870,169.538L872,99.885L874,174.373L876,185.616L878,209.546L880,178.192L882,180.964L884,159.029L886,209.526L888,187.115L890,222.094L892,135.134L894,146.748L896,128.232L898,127.748L900,116.015L902,196.621L904,176.161L906,173.972L908,214.219L910,186.618L912,150.98L914,206.522L916,139.125L918,215.881L920,159.24L922,150.318L924,205.317L926,224.303L928,237.087L930,164.512L932,177.852L934,141.11L936,190.685L938,185.773L940,175.071L942,179.003L944,168.078L946,137.041L948,251.589L950,151.629L952,138.135L954,179.935L956,196.216L958,185.536L960,177.95L962,174.405L964,165.095L966,203.48L968,208.202L970,163.14L972,227.014L974,207.489L976,192.157L978,186.785L980,199.554L982,226.337L984,183.276L986,184.456L988,204.726L990,169.979L992,166.286L994,220.749L996,221.937L998,203.041L1000,192.435" stroke="#4c78a8" stroke-width="2"/></g></g><path class="foreground" aria-hidden="true" d="" display="none"/></g></g></g></svg>