<svg xmlns="http://www.w3.org/2000/svg" xmlns:xlink="http://www.w3.org/1999/xlink" version="1.1" class="marks" width="1012" height="386" viewBox="0 0 1012 386"><rect width="1012" height="386" fill="white"/><g fill="none" stroke-miterlimit="10" transform="translate(5,6)"><g class="mark-group role-frame root" role="graphics-object" aria-roledescription="group mark container"><g transform="translate(0,0)"><path class="background" aria-hidden="true" d="M0.5,0.5h1000v375h-1000Z" stroke="#ddd"/><g><g class="mark-group role-axis" role="graphics-symbol" aria-roledescription="axis" aria-label="X-axis for a linear scale with values from 0 to 500"><g transform="translate(0.5,375.5)"><path class="background" aria-hidden="true" d="M0,0h0v0h0Z" pointer-events="none"/><g><g class="mark-rule role-axis-domain" pointer-events="none"><line transform="translate(0,0)" x2="1000" y2="0" stroke="#888" stroke-width="1" opacity="1"/></g></g><path class="foreground" aria-hidden="true" d="" pointer-events="none" display="none"/></g></g><g class="mark-group role-axis" role="graphics-symbol" aria-roledescription="axis" aria-label="Y-axis for a linear scale with values from −50 to 70"><g transform="translate(0.5,0.5)"><path class="background" aria-hidden="true" d="M0,0h0v0h0Z" pointer-events="none"/><g><g class="mark-rule role-axis-domain" pointer-events="none"><line transform="translate(0,375)" x2="0" y2="-375" stroke="#888" stroke-width="1" opacity="1"/></g></g><path class="foreground" aria-hidden="true" d="" pointer-events="none" display="none"/></g></g><g class="mark-line role-mark marks" role="graphics-object" aria-roledescription="line mark container"><path aria-label="x: 1; y: −20.3198479233" role="graphics-symbol" aria-roledescription="line mark" d="M2,282.25L4,263.255L6,275.996L8,246.822L10,273.96L12,271.286L14,280.057L16,270.291L18,311.501L20,321.623L22,307.231L24,278.482L26,275.844L28,269.674L30,279.589L32,284.23L34,238.255L36,291.383L38,322.132L40,346.987L42,347.193L44,370.582L46,337.352L48,326.397L50,286.007L52,289.94L54,295.59L56,282.309L58,258.323L60,242.247L62,278.147L64,289.906L66,300.072L68,283.275L70,296.608L72,237.35L74,257.267L76,238.283L78,269.436L80,289.795L82,294.243L84,270.159L86,312.42L88,320.612L90,281.455L92,234.526L94,238.444L96,285.773L98,239.478L100,235.789L102,214.534L104,265.937L106,261.824L108,261.146L110,235.396L112,269.151L114,248.984L116,246.658L118,224.747L120,196.874L122,205.506L124,210.687L126,229.244L128,205.921L130,246.763L132,245.177L134,261.524L136,244.371L138,262.5L140,236.497L142,238.256L144,197.883L146,225.856L148,239.286L150,246.431L152,229.841L154,239.417L156,232.882L158,234.536L160,268.916L162,246.728L164,304.578L166,302.495L168,273.051L170,247.456L172,264.644L174,246.053L176,256.162L178,226.536L180,254.698L182,251.967L184,256.358L186,276.11L188,273.004L190,274.192L192,262.419L194,247.689L196,212.407L198,227.347L200,215.482L202,219.392L204,197.229L206,247.133L208,253.016L210,301.482L212,327.689L214,311.911L216,296.246L218,324.892L220,307.005L222,236.845L224,252.417L226,278.421L228,278.355L230,264.197L232,301.592L234,263.029L236,314.619L238,307.6L240,328.145L242,366.744L244,362.635L246,303.983L248,311.808L250,314.915L252,274.412L254,284.48L256,276.008L258,284.022L260,273.687L262,316.195L264,304.464L266,308.538L268,278.387L270,285.465L272,259.571L274,273.601L276,265.377L278,247.343L280,251.058L282,255.298L284,291.265L286,292.102L288,317.742L290,308.251L292,319.759L294,308.873L296,326.439L298,276.471L300,291.241L302,265.453L304,294.912L306,295.957L308,304.994L310,302.555L312,297.578L314,293.134L316,245.421L318,249.192L320,220.832L322,233.028L324,218.58L326,260.738L328,229.897L330,255.756L332,214.036L334,246.626L336,253.323L338,244.412L340,244.148L342,254.84L344,232.152L346,220.967L348,225.153L350,144.794L352,155.704L354,114.381L356,119.531L358,110.038L360,109.082L362,116.982L364,112.298L366,121.544L368,96.573L370,121.1L372,114.872L374,142.061L376,118.627L378,138.442L380,93.761L382,51.024L384,1.086L386,47.698L388,55.901L390,71.337L392,107.577L394,109.751L396,124.713L398,102.888L400,111.558L402,90.574L404,105.727L406,80.671L408,96.374L410,64.079L412,45.904L414,42.584L416,86.374L418,102.783L420,99.481L422,121.856L424,147.176L426,142.481L428,129.957L430,145.659L432,136.848L434,126.578L436,78.74L438,95.523L440,118.623L442,140.733L444,109.492L446,139.057L448,111.012L450,141.469L452,149.215L454,105.228L456,113.841L458,99.365L460,106.338L462,70.898L464,97.108L466,83.197L468,94.024L470,84.801L472,123.15L474,114.65L476,135.539L478,111.601L480,165.254L482,152.039L484,110.786L486,98.211L488,77.64L490,51.287L492,50.746L494,83.887L496,102.646L498,200.31L500,224.928L502,235.516L504,233.019L506,237.561L508,189.083L510,169.927L512,127.938L514,114.71L516,109.147L518,121.387L520,135.472L522,159.684L524,186.691L526,178.509L528,205.741L530,199.386L532,192.554L534,144.231L536,126.733L538,73.756L540,103.05L542,92.909L544,66.475L546,39.684L548,65.793L550,51.26L552,34.038L554,61.905L556,85.32L558,75.032L560,56.865L562,99.252L564,63.331L566,91.186L568,90.859L570,124.197L572,97.43L574,131.711L576,126.227L578,131.676L580,176.622L582,129.031L584,116.377L586,132.669L588,114.705L590,93.694L592,113.007L594,68.197L596,95.845L598,117.699L600,108.021L602,89.503L604,140.077L606,113.275L608,127.066L610,153.507L612,132.002L614,112.061L616,99.715L618,95.545L620,93.735L622,137.274L624,130.549L626,170.639L628,157.111L630,147.816L632,118.393L634,108.349L636,75.091L638,104.976L640,74.629L642,73.959L644,85.499L646,71.595L648,97.294L650,101.273L652,104.597L654,118.876L656,162.256L658,86.553L660,136.051L662,148.352L664,162.627L666,127.359L668,137.655L670,140.8L672,175.22L674,140.425L676,119.524L678,152.543L680,124.372L682,114.091L684,112.56L686,176.302L688,171.346L690,156.705L692,141.269L694,137.89L696,82.522L698,84.722L700,76.349L702,125.843L704,141.427L706,116.368L708,144.691L710,155.629L712,152.389L714,130.511L716,159.379L718,162.144L720,127.997L722,66.21L724,98.761L726,114.661L728,103.43L730,115.018L732,146.98L734,81.535L736,95.228L738,99.68L740,120.905L742,138.791L744,129.371L746,143.24L748,93.929L750,103.062L752,95.766L754,113.57L756,81.672L758,154.9L760,162.576L762,152.525L764,131.863L766,134.649L768,91.904L770,84.79L772,136.861L774,124.061L776,115.029L778,143.169L780,168.968L782,119.804L784,183.246L786,184.305L788,181.961L790,165.737L792,163.881L794,164.253L796,172.698L798,99.728L800,92.749L802,125.155L804,175.983L806,241.029L808,234.356L810,259.479L812,221.754L814,170.759L816,125.529L818,128.063L820,110.238L822,158.999L824,138.146L826,163.308L828,158.936L830,161.143L832,179.312L834,214.201L836,279.762L838,301.225L840,333.559L842,286.457L844,231.174L846,142.25L848,121.573L850,100.191L852,156.619L854,153.757L856,182.911L858,161.388L860,211.072L862,214.191L864,196.055L866,172.643L868,144.766L870,127.531L872,82.158L874,89.22L876,62.664L878,75.07L880,73.051L882,155.637L884,147.111L886,148.39L888,141.733L890,142.585L892,111.094L894,110.065L896,122.333L898,82.391L900,67.859L902,59.968L904,100.124L906,78.743L908,108.723L910,91.981L912,91.01L914,83.464L916,127.85L918,132.51L920,151.434L922,141.358L924,121.335L926,119.184L928,136.499L930,128.836L932,112.437L934,136.94L936,147.674L938,163.345L940,151.314L942,175.751L944,117.532L946,137.956L948,140.985L950,108.53L952,85.877L954,109.31L956,128.182L958,175.206L960,123.17L962,143.272L964,139.156L966,153.384L968,176.727L970,202.18L972,194.439L974,205.163L976,200.891L978,146.42L980,163.646L982,146.948L984,148.762L986,148.735L988,135.764L990,106.772L992,132.76L994,89.14L996,109.34L998,101.499L1000,102.673" stroke="#4c78a8" stroke-width="2"/></g></g><path class="foreground" aria-hidden="true" d="" display="none"/></g></g></g></svg>