<svg xmlns="http://www.w3.org/2000/svg" version="1.1" xmlns:xlink="http://www.w3.org/1999/xlink" xmlns:svgjs="http://svgjs.dev/svgjs" width="950" height="375" id="chartSvg"><path d="M11,292 L10,293 L9,293 L9,294 L10,295 L11,295 L11,296 L11,295 L11,293 L11,292 L12,290 L12,288 L12,285 L12,281 L12,277 L12,271 L12,266 L12,261 L12,256 L11,251 L11,248 L11,245 L11,242 L11,241 L11,240 L11,241 L11,243 L12,245 L12,249 L14,255 L16,262 L18,270 L20,279 L22,286 L24,292 L25,295 L26,297 L26,295 L26,292 L26,288 L26,284 L26,278 L25,273 L24,266 L24,258 L22,251 L22,245 L21,239 L20,236 L20,235 L21,236 L21,238 L22,242 L24,248 L25,256 L27,265 L29,273 L30,280 L32,286 L33,289 L34,290 L34,289 L34,286 L34,283 L34,278 L34,274 L33,269 L32,264 L31,260 L31,257 L31,256 L31,258 L32,261 L33,266 L34,271 L36,276 L37,281 L39,285 L41,289 L42,291 L42,292 L43,291 L43,289 L43,286 L43,283 L42,280 L42,278 L41,275 L41,273 L41,274 L41,275 L42,278 L43,280 L44,283 L45,285 L46,287 L47,288 L48,289 L48,288 L48,287 L48,285 L48,284 L48,283 L48,282 L48,281 L48,280 L47,280 L47,281 L48,281 L48,282 L49,282 L49,283 L50,283 L50,282 L51,281 L51,280 L52,278 L53,275 L55,272 L56,269 L58,266 L59,265 L60,264 L60,265 L61,266 L61,268 L62,271 L63,275 L63,278 L64,280 L66,283 L66,284 L67,284 L68,283 L68,282 L69,280 L69,278 L69,275 L69,272 L69,268 L69,265 L69,261 L69,257 L68,254 L68,252 L68,251 L69,253 L70,256 L72,259 L73,264 L74,268 L74,273 L75,278 L76,282 L77,284 L77,285 L77,284 L77,282 L78,279 L78,275 L78,272 L78,267 L77,262 L77,257 L77,252 L77,248 L77,247 L77,248 L77,250 L78,253 L79,256 L80,260 L81,263 L82,267 L83,271 L84,275 L85,278 L86,280 L86,279 L86,278 L85,278 L85,276 L84,275 L83,274 L83,273 L83,274 L83,275 L84,276 L84,277 L85,279 L85,280 L85,282 L86,282 L86,283 L86,282 L87,280 L87,275 L88,270 L88,263 L89,255 L90,245 L90,235 L90,226 L91,217 L91,208 L92,200 L92,193 L92,187 L92,183 L92,180 L91,178 L91,177 L91,178 L91,181 L91,187 L92,195 L92,206 L92,218 L94,231 L97,245 L100,259 L103,271 L105,281 L105,291 L105,300 L105,307 L105,312 L105,314 L105,315 L105,314 L105,313 L105,311 L104,307 L103,304 L102,300 L102,295 L102,291 L102,286 L101,281 L101,275 L101,269 L101,263 L101,258 L102,255 L102,253 L103,254 L105,256 L106,260 L107,264 L108,269 L109,273 L110,277 L110,280 L111,282 L111,281 L111,280 L111,277 L111,274 L111,270 L111,267 L111,264 L110,261 L110,259 L110,258 L110,260 L111,261 L112,264 L114,267 L115,269 L116,270 L117,272 L118,272 L118,270 L119,268 L119,266 L119,263 L119,260 L119,258 L119,256 L119,255 L119,256 L120,258 L121,261 L122,263 L123,265 L124,267 L125,268 L126,269 L127,268 L127,266 L127,264 L127,262 L127,259 L127,257 L127,255 L127,254 L128,256 L129,258 L129,261 L130,263 L131,265 L132,267 L132,268 L132,269 L133,269 L133,268 L134,265 L134,263 L135,259 L135,256 L135,253 L136,251 L136,249 L136,251 L137,253 L137,255 L137,257 L137,258 L138,259 L138,260 L138,261 L139,261 L139,260 L139,258 L139,257 L140,255 L141,254 L141,253 L142,253 L142,252 L143,252 L143,253 L142,253 L142,254 L143,254 L144,254 L145,254 L146,255 L147,257 L148,259 L149,262 L150,264 L150,265 L151,266 L151,265 L151,264 L151,262 L152,259 L152,257 L152,255 L152,252 L153,250 L153,249 L153,248 L154,249 L155,251 L155,253 L156,256 L157,258 L158,259 L158,260 L158,261 L159,261 L160,261 L160,260 L161,258 L161,256 L162,254 L162,252 L162,250 L162,248 L162,247 L162,246 L163,246 L163,247 L164,248 L166,250 L167,251 L168,253 L169,255 L170,256 L170,258 L170,257 L170,255 L170,253 L170,250 L171,247 L171,246 L171,244 L172,244 L173,245 L174,247 L175,249 L176,251 L178,253 L178,255 L179,257 L179,258 L179,259 L179,260 L179,259 L180,258 L180,256 L180,255 L180,253 L181,249 L182,245 L182,240 L184,233 L185,224 L188,215 L191,204 L194,194 L198,183 L200,172 L203,163 L205,155 L207,148 L208,146 L208,144 L209,144 L209,145 L209,147 L208,150 L207,155 L206,162 L206,170 L205,180 L205,191 L205,204 L205,218 L202,233 L200,245 L198,256 L196,265 L195,270 L195,274 L195,276 L195,277 L196,276 L196,275 L196,273 L197,270 L197,267 L198,263 L198,258 L199,253 L200,246 L201,239 L202,232 L202,227 L203,223 L203,222 L204,222 L204,223 L204,224 L205,227 L207,233 L207,240 L208,248 L207,259 L206,270 L205,280 L204,288 L203,295 L202,300 L202,303 L202,304 L203,305 L204,304 L205,302 L206,299 L207,295 L208,289 L209,282 L210,275 L210,267 L211,258 L212,250 L212,243 L213,238 L213,236 L214,236 L214,235 L214,236 L215,237 L215,241 L216,246 L217,251 L217,257 L217,263 L217,269 L217,273 L218,275 L218,276 L218,275 L218,273 L219,270 L220,266 L221,261 L222,256 L222,252 L222,248 L223,245 L223,244 L223,245 L222,246 L222,247 L222,248 L222,250 L222,251 L222,252 L222,253 L223,254 L223,255 L224,255 L224,254 L224,252 L224,250 L225,248 L225,247 L226,246 L226,244 L226,243 L226,244 L227,245 L227,247 L227,250 L228,253 L229,255 L230,257 L231,259 L232,259 L233,258 L234,257 L234,254 L235,252 L235,249 L235,246 L235,243 L235,240 L235,239 L235,238 L236,240 L237,242 L238,244 L239,247 L240,249 L241,251 L242,252 L242,253 L242,252 L242,251 L241,250 L241,248 L240,246 L240,245 L239,243 L239,242 L239,241 L239,242 L239,243 L239,244 L239,245 L239,246 L240,246 L240,245 L241,244 L241,243 L242,243 L242,241 L243,240 L244,238 L244,237 L246,236 L247,236 L248,236 L250,237 L251,239 L253,242 L254,245 L255,248 L255,250 L255,251 L255,252 L255,251 L255,248 L256,246 L256,244 L257,241 L257,239 L258,237 L258,236 L259,235 L260,236 L262,239 L263,241 L264,244 L266,247 L266,249 L267,250 L268,251 L267,250 L267,249 L266,248 L266,247 L265,246 L264,244 L263,243 L262,243 L262,241 L261,241 L261,240 L261,239 L261,238 L261,237 L262,238 L262,239 L263,239 L264,238 L265,238 L266,238 L266,239 L267,240 L267,241 L268,241 L268,240 L268,238 L269,236 L269,234 L269,233 L269,231 L269,230 L269,231 L270,232 L271,234 L271,237 L272,239 L273,241 L273,242 L273,243 L273,242 L273,241 L273,242 L274,241 L275,240 L276,237 L277,233 L279,226 L281,219 L282,210 L283,202 L284,194 L285,187 L286,178 L288,170 L289,163 L290,157 L291,153 L292,152 L292,153 L292,155 L292,158 L292,162 L291,168 L291,173 L290,180 L290,187 L291,197 L291,206 L293,214 L294,221 L295,225 L295,228 L295,230 L295,231 L295,232 L295,231 L295,230 L295,227 L296,223 L297,218 L298,213 L300,207 L301,201 L302,194 L303,186 L304,179 L305,172 L305,167 L305,164 L305,165 L305,167 L305,170 L304,175 L304,182 L303,190 L303,198 L303,209 L303,219 L303,230 L303,241 L303,248 L302,253 L302,256 L302,258 L303,258 L303,256 L304,253 L305,248 L306,242 L307,235 L308,228 L309,221 L309,215 L310,211 L310,210 L310,211 L310,213 L311,216 L312,219 L313,223 L313,227 L313,231 L314,235 L315,237 L315,238 L315,237 L316,234 L317,231 L318,228 L318,225 L319,223 L319,221 L319,219 L319,218 L319,219 L319,220 L320,222 L320,224 L320,226 L321,228 L321,229 L322,229 L322,228 L322,226 L323,224 L323,221 L323,219 L323,217 L323,215 L323,214 L323,215 L323,217 L324,220 L324,223 L324,226 L324,228 L324,230 L325,231 L325,232 L325,231 L325,230 L325,228 L326,226 L326,225 L326,224 L327,223 L327,224 L327,225 L327,226 L327,228 L326,230 L326,231 L326,233 L325,234 L325,235 L325,236 L325,235 L325,234 L325,233 L326,232 L326,231 L326,230 L326,229 L326,228 L326,227 L325,227 L325,226 L325,225 L325,224 L325,225 L326,227 L327,230 L328,234 L330,238 L330,241 L331,243 L332,243 L333,242 L334,240 L335,238 L335,235 L336,232 L336,230 L336,228 L337,225 L337,223 L337,222 L337,221 L337,223 L338,225 L339,228 L340,231 L341,233 L342,235 L342,236 L343,237 L344,236 L344,234 L345,232 L346,229 L347,227 L347,224 L347,222 L347,221 L348,220 L348,219 L349,221 L349,223 L350,225 L351,227 L352,229 L352,230 L353,231 L354,229 L354,228 L355,226 L356,224 L356,222 L357,221 L357,220 L357,219 L358,221 L359,222 L359,224 L360,226 L361,228 L361,229 L361,230 L362,230 L361,230 L361,229 L361,228 L361,227 L361,226 L360,226 L360,225 L361,224 L361,223 L362,221 L364,219 L365,216 L366,214 L367,213 L368,212 L369,213 L369,214 L370,216 L371,219 L372,221 L372,224 L373,226 L373,228 L373,229 L373,228 L374,227 L374,226 L375,224 L375,222 L376,220 L376,219 L376,217 L377,217 L377,216 L378,217 L379,218 L379,219 L380,221 L381,222 L381,223 L382,224 L383,225 L382,226 L382,227 L382,228 L382,229 L382,231 L382,232 L383,232 L383,231 L384,231 L384,230 L384,229 L385,229 L385,228 L385,227 L386,226 L386,225 L387,223 L388,220 L388,217 L389,212 L391,206 L392,200 L393,193 L396,185 L398,177 L401,168 L404,159 L408,151 L412,142 L415,134 L419,128 L422,122 L425,117 L428,114 L430,111 L432,109 L433,108 L433,109 L433,111 L433,114 L432,119 L431,124 L430,132 L428,140 L427,150 L425,161 L424,175 L423,189 L421,202 L419,215 L416,226 L413,236 L411,244 L410,249 L410,252 L410,250 L411,248 L412,245 L413,243 L413,241 L414,239 L415,236 L416,233 L417,230 L418,226 L419,222 L420,218 L422,212 L423,209 L423,207 L423,208 L424,210 L425,214 L426,218 L426,222 L427,226 L427,230 L427,233 L427,235 L427,234 L427,233 L428,230 L428,227 L429,224 L430,221 L430,218 L430,215 L430,213 L430,212 L430,211 L430,212 L430,214 L430,217 L430,220 L430,223 L430,225 L430,227 L430,228 L430,229 L430,228 L430,227 L430,225 L431,223 L431,219 L432,215 L432,212 L432,209 L432,207 L432,206 L432,208 L432,210 L432,214 L432,217 L433,220 L433,223 L433,225 L433,226 L434,226 L434,225 L435,224 L436,221 L436,217 L437,214 L437,211 L438,208 L439,205 L439,204 L440,203 L440,204 L441,206 L442,208 L443,211 L444,213 L444,216 L445,218 L445,221 L445,222 L445,223 L445,224 L445,223 L445,221 L446,219 L447,216 L448,213 L449,211 L449,209 L450,208 L451,207 L451,208 L451,209 L450,209 L450,210 L450,211 L450,212 L451,215 L452,218 L452,222 L453,225 L454,227 L454,225 L454,223 L455,221 L455,218 L455,216 L455,214 L455,212 L455,210 L455,211 L455,212 L456,214 L456,216 L456,218 L457,219 L457,221 L457,222 L458,222 L459,220 L460,219 L461,216 L461,214 L462,212 L462,211 L462,209 L462,210 L462,212 L462,214 L462,216 L462,218 L462,220 L462,222 L462,223 L463,223 L464,222 L464,221 L465,219 L466,217 L467,214 L467,212 L467,210 L467,209 L468,211 L468,213 L469,215 L469,217 L470,218 L470,219 L471,219 L471,218 L472,217 L473,214 L474,212 L475,210 L476,208 L476,207 L476,208 L477,210 L478,212 L478,214 L479,216 L479,217 L479,218 L480,218 L481,217 L481,215 L482,213 L483,212 L483,211 L483,210 L484,210 L484,211 L486,212 L486,214 L487,215 L489,216 L489,217 L490,217 L491,218 L491,217 L491,216 L492,215 L493,215 L493,214 L494,214 L495,214 L496,214 L496,213 L497,213 L498,212 L499,212 L499,211 L500,211 L501,211 L502,211 L503,211 L504,212 L504,213 L504,214 L504,215 L505,214 L505,212 L505,211 L506,210 L506,209 L507,210 L507,212 L508,214 L508,217 L509,218 L509,219 L509,220 L509,219 L510,219 L510,218 L510,217 L511,214 L511,213 L511,211 L511,209 L511,208 L512,208 L512,209 L513,209 L513,210 L514,211 L515,212 L516,213 L516,214 L517,214 L517,215 L517,214 L517,213 L516,212 L516,211 L515,210 L515,209 L514,209 L515,209 L515,210 L516,211 L516,212 L517,212 L518,212 L518,211 L519,210 L519,209 L519,207 L520,207 L520,206 L520,205 L520,204 L520,205 L520,207 L521,207 L521,208 L521,209 L522,210 L523,209 L524,207 L525,204 L526,201 L527,197 L528,192 L529,187 L531,181 L533,175 L536,167 L540,161 L542,154 L545,149 L547,145 L549,142 L550,140 L550,141 L550,143 L550,147 L550,153 L550,159 L550,164 L549,169 L548,174 L547,177 L547,179 L547,180 L547,178 L548,176 L550,174 L552,170 L553,165 L555,161 L556,155 L557,149 L559,143 L560,136 L562,130 L562,126 L563,124 L563,122 L563,123 L563,124 L562,126 L562,129 L562,133 L561,138 L561,143 L561,148 L561,153 L562,157 L562,160 L562,161 L562,160 L563,159 L564,157 L565,155 L566,152 L567,149 L569,145 L570,140 L571,135 L573,129 L574,124 L576,119 L578,116 L579,114 L579,115 L579,116 L579,119 L579,124 L578,129 L577,136 L576,143 L575,150 L574,158 L573,166 L571,173 L569,180 L568,186 L567,189 L567,191 L568,190 L570,188 L572,185 L573,182 L575,178 L576,175 L577,172 L577,170 L578,167 L579,165 L580,163 L580,160 L581,157 L582,153 L582,151 L583,149 L583,148 L583,147 L583,148 L583,149 L583,151 L583,153 L583,155 L582,158 L582,160 L582,161 L582,162 L583,162 L584,160 L585,157 L586,154 L587,152 L588,149 L588,147 L588,145 L588,144 L588,145 L588,147 L588,149 L588,151 L588,153 L588,154 L588,155 L589,153 L590,152 L591,150 L591,148 L592,147 L592,146 L593,145 L593,146 L593,148 L593,150 L593,152 L593,153 L593,155 L594,156 L594,155 L595,154 L596,153 L596,151 L597,150 L598,148 L598,147 L599,146 L599,145 L599,144 L599,145 L600,146 L600,148 L601,149 L601,150 L601,151 L602,151 L602,152 L603,152 L604,151 L605,150 L606,149 L606,148 L607,146 L608,145 L609,143 L609,142 L610,141 L610,142 L610,144 L610,146 L610,148 L610,149 L610,151 L610,152 L610,153 L611,153 L612,153 L613,152 L613,151 L614,150 L615,148 L616,146 L616,145 L616,143 L617,142 L617,141 L617,142 L617,143 L618,142 L619,141 L620,141 L621,140 L621,141 L621,142 L621,143 L621,145 L621,146 L622,148 L622,150 L622,152 L622,154 L622,155 L622,156 L622,157 L623,157 L624,155 L625,154 L626,153 L627,151 L627,149 L628,148 L628,147 L628,148 L628,149 L628,151 L627,153 L626,155 L626,158 L626,160 L626,161 L626,162 L628,161 L629,160 L630,158 L631,156 L632,154 L632,153 L632,152 L632,151 L631,152 L631,153 L630,155 L630,156 L630,158 L630,159 L629,160 L629,161 L630,161 L631,161 L632,160 L633,160 L633,159 L634,158 L635,156 L635,155 L636,154 L636,153 L637,153 L637,152 L637,151 L637,152 L637,154 L637,156 L637,158 L637,161 L637,164 L637,168 L637,171 L636,175 L635,177 L634,180 L633,182 L633,183 L633,182 L633,181 L634,179 L635,176 L636,174 L637,172 L638,169 L638,168 L639,166 L639,165 L639,167 L639,169 L639,172 L639,176 L638,180 L638,183 L637,187 L637,190 L636,192 L636,193 L637,192 L638,190 L639,187 L640,184 L640,182 L641,179 L641,177 L641,176 L641,175 L641,176 L642,177 L642,179 L643,182 L643,185 L643,188 L643,192 L643,195 L643,198 L643,201 L642,203 L642,205 L642,207 L642,208 L643,208 L644,206 L645,204 L646,200 L647,196 L647,192 L647,187 L647,184 L647,182 L647,181 L646,182 L646,183 L646,184 L646,186 L646,189 L646,192 L647,197 L647,203 L647,210 L646,219 L645,226 L644,234 L642,243 L640,251 L638,260 L635,270 L634,278 L633,285 L631,293 L630,298 L630,303 L630,306 L631,307 L631,308 L632,308 L633,307 L634,304 L635,300 L638,294 L639,286 L642,277 L644,268 L646,257 L648,245 L650,235 L652,226 L653,217 L655,210 L656,204 L657,197 L658,192 L659,188 L660,187 L660,186 L660,187 L660,188 L660,190 L660,193 L660,197 L660,203 L660,208 L659,214 L659,220 L659,225 L659,229 L659,232 L659,231 L659,230 L660,228 L660,226 L661,223 L661,220 L662,217 L662,213 L662,210 L662,208 L662,207 L662,206 L662,207 L662,208 L663,209 L664,212 L665,214 L665,216 L666,217 L667,219 L668,219 L668,218 L669,217 L670,214 L670,212 L670,210 L670,208 L670,206 L670,203 L670,202 L671,203 L671,205 L672,207 L672,209 L673,211 L674,213 L674,214 L675,214 L675,215 L676,215 L677,214 L677,213 L677,212 L678,210 L678,208 L678,206 L678,204 L678,202 L678,201 L679,202 L679,205 L679,207 L679,209 L680,211 L680,213 L681,213 L681,214 L682,214 L682,213 L683,212 L684,210 L684,208 L684,206 L685,204 L685,203 L685,202 L685,204 L686,206 L686,208 L687,210 L687,211 L687,212 L688,212 L689,212 L689,211 L689,210 L690,209 L690,207 L691,206 L691,204 L691,203 L690,203 L690,204 L689,205 L689,206 L690,206 L691,205 L692,204 L693,203 L694,203 L694,202 L695,202 L695,203 L694,204 L694,206 L694,207 L694,209 L694,210 L694,209 L695,208 L696,206 L697,204 L698,201 L699,197 L699,194 L700,192 L700,189 L701,188 L701,190 L701,192 L701,194 L702,197 L702,200 L703,202 L704,204 L704,206 L705,206 L705,204 L706,202 L707,200 L708,197 L708,195 L709,191 L709,188 L709,185 L709,182 L710,180 L710,181 L710,183 L710,186 L711,190 L711,193 L711,196 L711,198 L711,199 L712,199 L713,198 L714,196 L714,195 L715,192 L716,190 L716,187 L716,185 L716,183 L716,182 L716,181 L716,182 L716,184 L716,185 L716,186 L716,188 L716,190 L717,192 L718,195 L718,197 L719,199 L720,201 L720,202 L721,201 L721,199 L722,197 L723,193 L724,190 L726,184 L728,177 L730,168 L733,156 L736,146 L740,136 L742,125 L744,116 L746,107 L748,97 L750,90 L752,85 L753,80 L753,78 L753,77 L753,79 L753,82 L752,86 L751,92 L750,100 L748,109 L748,118 L746,129 L746,140 L745,151 L744,162 L743,170 L741,177 L739,182 L738,186 L738,188 L738,189 L738,188 L738,186 L738,183 L738,179 L738,174 L738,169 L738,163 L738,158 L739,153 L740,150 L740,147 L741,147 L741,148 L742,149 L743,153 L744,157 L745,162 L746,167 L746,171 L747,176 L747,180 L747,182 L746,183 L746,182 L747,181 L748,179 L748,176 L750,173 L750,170 L751,166 L752,163 L753,160 L753,159 L753,160 L753,162 L754,165 L754,168 L755,170 L755,174 L756,177 L756,180 L757,182 L757,184 L758,184 L758,183 L758,182 L758,180 L759,177 L759,175 L760,173 L760,170 L761,168 L761,166 L762,164 L762,163 L762,164 L762,165 L762,168 L762,171 L762,173 L762,176 L762,178 L762,180 L762,182 L763,182 L764,181 L765,180 L766,178 L767,176 L767,174 L768,172 L768,170 L769,168 L769,167 L769,168 L769,170 L770,173 L770,175 L770,176 L770,178 L771,178 L771,179 L771,178 L772,177 L772,176 L772,175 L773,173 L775,171 L775,169 L777,167 L777,165 L778,164 L779,164 L779,165 L779,166 L779,167 L779,168 L779,169 L779,170 L779,171 L779,172 L780,172 L780,171 L780,170 L780,169 L780,168 L781,168 L781,169 L782,170 L782,171 L783,173 L784,175 L785,176 L787,177 L788,177 L789,177 L789,175 L789,173 L789,171 L789,168 L789,165 L789,163 L789,162 L789,161 L789,160 L790,160 L790,162 L790,163 L790,165 L789,168 L789,171 L789,173 L789,176 L788,178 L788,179 L789,177 L789,175 L790,173 L791,170 L792,168 L792,167 L792,165 L792,167 L792,169 L792,170 L792,172 L792,173 L792,174 L793,174 L794,173 L794,171 L795,170 L796,169 L796,168 L796,167 L796,166 L796,167 L796,168 L797,167 L797,168 L797,170 L797,174 L798,178 L798,183 L798,188 L797,191 L797,193 L797,194 L797,193 L797,192 L798,190 L799,188 L799,185 L800,181 L801,177 L802,173 L803,168 L803,164 L804,163 L804,165 L804,168 L804,172 L804,175 L804,180 L803,184 L803,188 L802,192 L801,195 L800,196 L800,195 L801,194 L802,192 L802,190 L804,187 L804,183 L805,179 L805,175 L805,170 L806,165 L806,160 L806,155 L806,153 L806,151 L806,150 L806,151 L806,153 L807,157 L808,164 L808,173 L808,183 L808,195 L806,207 L804,219 L802,230 L799,240 L798,248 L796,255 L795,260 L795,263 L796,264 L797,265 L797,266 L797,267 L798,267 L799,266 L800,264 L802,261 L804,256 L806,251 L808,244 L810,237 L812,229 L814,219 L816,209 L817,199 L819,190 L820,182 L821,176 L822,171 L823,168 L824,165 L824,167 L823,170 L822,174 L821,178 L820,182 L819,187 L818,193 L818,199 L817,206 L817,214 L817,219 L817,221 L817,222 L817,221 L817,219 L818,217 L819,214 L820,210 L821,207 L821,202 L822,198 L822,192 L822,187 L822,181 L823,177 L823,175 L823,174 L823,175 L824,177 L825,180 L826,183 L826,187 L827,190 L827,192 L827,193 L828,192 L828,190 L829,187 L830,183 L830,180 L831,176 L831,171 L831,168 L831,167 L831,166 L831,168 L831,171 L831,175 L831,180 L832,186 L832,192 L832,199 L832,207 L831,214 L831,221 L830,227 L829,231 L828,235 L828,237 L828,238 L829,238 L830,237 L831,235 L833,231 L834,228 L835,224 L836,219 L837,214 L838,209 L839,203 L841,197 L841,191 L843,185 L844,181 L845,177 L846,173 L846,172 L846,171 L847,171 L847,172 L847,173 L846,175 L846,178 L846,182 L846,187 L846,191 L846,195 L846,197 L846,200 L846,201 L847,201 L848,201 L849,199 L850,198 L851,196 L852,193 L853,190 L853,188 L854,185 L854,182 L854,179 L854,177 L853,177 L853,178 L853,180 L854,184 L854,188 L855,191 L855,194 L855,196 L856,197 L856,196 L856,195 L857,194 L857,192 L857,191 L857,189 L857,187 L857,186 L858,185 L858,184 L859,183 L860,182 L861,181 L862,181 L863,181 L863,180 L864,180 L864,181 L864,183 L864,186 L864,189 L865,192 L865,195 L865,196 L866,197 L867,197 L868,196 L868,195 L869,193 L870,190 L870,188 L870,186 L870,183 L870,181 L870,180 L870,179 L870,178 L870,179 L870,180 L870,182 L870,185 L871,187 L871,190 L872,191 L873,192 L874,192 L875,191 L875,189 L876,187 L877,185 L877,183 L877,181 L878,179 L878,177 L878,176 L878,175 L877,176 L877,177 L878,178 L878,179 L878,180 L878,182 L879,183 L879,184 L879,185 L880,186 L881,186 L882,186 L883,185 L884,182 L885,180 L886,177 L887,174 L888,170 L889,167 L890,163 L891,160 L891,159 L891,160 L891,162 L891,165 L890,169 L890,172 L890,174 L890,176 L890,177 L891,178 L892,178 L893,177 L895,175 L896,174 L897,173 L897,171 L897,170 L897,169 L897,168 L898,169 L898,171 L899,173 L899,175 L900,176 L900,178 L900,179 L901,180 L901,181 L902,181 L902,180 L903,180 L904,179 L904,178 L904,177 L905,174 L906,170 L908,165 L910,158 L913,149 L915,141 L918,131 L921,121 L923,113 L925,105 L926,98 L927,93 L928,88 L929,86 L929,87 L929,90 L929,95 L928,103 L926,112 L924,121 L922,131 L920,141 L919,150 L917,158 L915,167 L914,174 L913,179 L912,182 L912,184 L913,184 L914,184 L914,182 L916,179 L918,175 L919,171 L921,167 L922,162 L924,157 L925,153 L926,151 L926,154 L926,158 L926,163 L926,168 L925,172 L925,175 L925,177 L927,175 L929,173 L930,170 L931,168 L932,166 L932,165 L933,164 L933,163 L934,163 L934,164 L934,166 L934,167 L935,168 L936,169 L936,170 L938,170 L940,170 L942,168 L944,168 L946,167 L947,167 L948,166 L949,166 L950,167 L951,167 L953,167" fill="none" stroke="red" stroke-width="3"/></svg>