<svg xmlns="http://www.w3.org/2000/svg" version="1.1" xmlns:xlink="http://www.w3.org/1999/xlink" xmlns:svgjs="http://svgjs.dev/svgjs" width="950" height="375" id="chartSvg"><path d="M44,269 L44,268 L45,266 L45,265 L46,264 L47,264 L49,264 L51,266 L52,267 L53,268 L55,268 L56,269 L56,268 L57,266 L58,265 L59,264 L60,263 L61,263 L63,263 L66,264 L68,265 L71,265 L73,265 L74,265 L75,264 L76,263 L78,262 L80,262 L81,263 L83,264 L85,265 L88,265 L90,265 L92,265 L93,264 L95,262 L96,261 L97,260 L100,260 L103,261 L107,263 L111,264 L114,265 L116,265 L117,265 L118,264 L119,263 L120,261 L121,261 L122,261 L124,261 L126,261 L128,261 L129,261 L131,261 L132,261 L133,261 L134,261 L135,262 L136,262 L139,262 L141,262 L142,261 L144,260 L145,259 L146,258 L146,257 L148,256 L149,257 L152,258 L157,259 L161,261 L165,261 L168,261 L169,260 L170,259 L170,258 L171,256 L172,256 L173,256 L175,256 L178,257 L180,258 L183,258 L185,258 L188,258 L188,257 L189,255 L190,254 L191,252 L193,251 L195,251 L198,252 L200,253 L203,254 L206,255 L208,256 L210,256 L211,255 L212,254 L212,253 L213,252 L214,251 L215,251 L217,252 L219,253 L221,254 L223,255 L226,255 L229,255 L230,254 L231,252 L232,251 L232,250 L233,250 L234,251 L236,253 L238,254 L241,254 L244,253 L246,252 L247,250 L248,249 L249,248 L251,248 L252,248 L253,249 L254,251 L256,252 L259,253 L263,254 L265,253 L267,251 L268,250 L269,249 L271,248 L272,248 L273,248 L275,249 L278,251 L281,252 L285,252 L288,252 L290,252 L291,251 L293,250 L294,249 L295,249 L296,249 L298,250 L299,250 L301,250 L303,250 L305,249 L306,248 L308,246 L309,245 L310,244 L312,244 L314,243 L316,243 L318,243 L320,243 L324,244 L327,244 L330,244 L334,242 L335,239 L337,237 L338,234 L339,232 L341,229 L343,227 L345,225 L347,224 L350,223 L353,223 L356,222 L358,220 L359,219 L360,217 L361,215 L362,213 L363,211 L364,209 L365,207 L366,206 L367,205 L369,205 L369,204 L370,204 L371,205 L372,206 L374,207 L376,209 L378,210 L380,210 L383,210 L385,210 L387,209 L389,208 L391,208 L392,209 L393,210 L395,211 L397,212 L398,212 L399,212 L400,212 L401,211 L402,211 L403,211 L404,211 L406,211 L408,211 L410,210 L411,210 L412,209 L413,208 L414,207 L415,206 L416,205 L417,202 L418,200 L420,198 L421,195 L423,192 L425,190 L429,188 L432,188 L435,187 L438,188 L440,189 L442,190 L444,191 L445,192 L446,193 L447,193 L448,193 L449,193 L450,194 L451,195 L452,195 L453,195 L454,194 L455,192 L456,190 L457,188 L459,187 L462,187 L466,188 L469,188 L473,189 L478,190 L482,191 L486,192 L489,192 L491,192 L493,191 L495,191 L496,191 L497,191 L498,192 L499,193 L501,193 L502,193 L503,193 L505,193 L506,193 L507,193 L509,193 L510,193 L511,192 L513,191 L514,190 L516,187 L519,183 L522,178 L525,174 L528,170 L532,166 L538,162 L544,158 L549,154 L554,151 L558,148 L559,145 L561,142 L561,139 L562,136 L562,134 L562,132 L562,129 L562,125 L563,121 L564,117 L566,114 L567,112 L569,109 L570,106 L572,103 L573,102 L574,101 L575,102 L576,103 L577,105 L579,108 L580,110 L582,113 L584,115 L587,117 L589,119 L589,120 L588,122 L588,124 L587,127 L586,129 L586,131 L587,132 L590,133 L592,134 L593,136 L593,139 L592,141 L591,143 L591,146 L591,148 L591,151 L591,154 L591,155 L591,156 L591,158 L590,159 L589,161 L587,164 L587,166 L587,167 L588,168 L589,169 L589,171 L590,173 L591,176 L593,179 L593,181 L593,184 L591,187 L591,190 L591,193 L591,195 L591,196 L593,197 L594,198 L596,199 L598,201 L599,202 L599,204 L599,205 L600,206 L601,208 L602,210 L604,212 L607,215 L609,217 L610,220 L610,223 L610,226 L610,228 L611,229 L612,229 L613,229 L615,229 L616,229 L617,231 L618,233 L618,234 L618,235 L619,235 L620,234 L621,232 L622,229 L624,227 L626,223 L627,219 L628,216 L628,212 L629,209 L630,206 L631,203 L632,201 L633,199 L634,198 L636,198 L638,198 L638,197 L638,196 L638,194 L638,192 L638,188 L638,184 L640,180 L643,178 L644,177 L646,177 L647,178 L648,179 L649,180 L650,180 L651,180 L652,178 L654,176 L655,174 L657,173 L657,172 L659,172 L660,173 L661,174 L662,176 L664,178 L666,180 L668,182 L670,182 L672,182 L673,181 L674,180 L675,178 L676,178 L678,178 L679,178 L680,179 L682,180 L684,182 L687,183 L689,183 L691,182 L692,181 L694,180 L695,180 L696,180 L698,180 L699,180 L702,182 L704,183 L706,184 L707,185 L709,186 L711,186 L713,187 L715,186 L716,185 L718,184 L719,182 L719,180 L719,177 L720,173 L721,169 L723,163 L725,158 L726,154 L729,151 L734,149 L738,146 L741,142 L743,139 L744,137 L746,135 L750,133 L753,130 L755,128 L756,125 L757,123 L757,120 L757,117 L757,116 L757,114 L758,113 L762,113 L767,112 L770,110 L771,107 L770,104 L770,101 L772,97 L773,94 L774,91 L775,89 L777,88 L779,86 L782,85 L783,83 L784,81 L784,80 L785,79 L786,78 L787,78 L789,77 L793,76 L798,74 L802,73 L804,72 L805,70 L806,69 L807,68 L808,67 L811,66 L814,66 L816,66 L818,66 L820,66 L821,65 L824,63 L825,62 L826,59 L827,56 L828,54 L830,52 L831,50 L831,49 L833,49 L836,49 L839,49 L840,49 L840,47 L838,45 L837,42 L836,41 L835,41" fill="none" stroke="red" stroke-width="3"/></svg>