<svg xmlns="http://www.w3.org/2000/svg" version="1.1" xmlns:xlink="http://www.w3.org/1999/xlink" xmlns:svgjs="http://svgjs.dev/svgjs" width="950" height="375" id="chartSvg"><path d="M10,323 L8,323 L7,323 L7,324 L7,323 L7,322 L7,321 L6,322 L5,323 L6,322 L7,321 L8,319 L9,317 L9,318 L8,321 L7,324 L6,325 L6,326 L5,326 L5,325 L5,324 L5,322 L5,321 L6,319 L5,322 L4,326 L4,328 L4,327 L4,324 L5,320 L5,317 L5,314 L5,313 L5,317 L4,321 L4,324 L3,326 L4,326 L6,322 L9,315 L12,308 L13,305 L13,304 L12,307 L11,313 L8,320 L6,327 L5,330 L4,331 L5,330 L7,325 L9,319 L12,312 L13,305 L14,303 L13,305 L11,312 L9,320 L6,327 L5,330 L6,328 L9,323 L12,315 L15,308 L16,303 L16,304 L15,308 L13,316 L12,324 L11,330 L12,329 L13,324 L14,318 L15,313 L15,310 L15,309 L14,312 L13,318 L12,324 L12,328 L12,329 L12,328 L13,325 L14,320 L15,314 L16,309 L16,308 L16,309 L15,314 L15,320 L14,324 L14,326 L15,326 L15,324 L16,321 L17,316 L18,310 L19,305 L19,303 L19,305 L18,312 L17,320 L16,326 L17,328 L17,327 L18,324 L20,318 L21,312 L22,307 L22,304 L22,308 L22,314 L21,321 L21,326 L21,327 L22,325 L23,320 L24,315 L26,308 L27,303 L27,302 L27,303 L26,308 L25,315 L24,320 L24,322 L25,319 L27,313 L29,306 L30,298 L31,292 L31,289 L31,290 L30,295 L29,304 L29,313 L28,320 L28,321 L28,320 L29,317 L31,311 L32,306 L33,303 L33,302 L32,303 L31,309 L31,317 L30,324 L30,325 L31,325 L31,322 L32,317 L32,310 L33,305 L33,306 L32,313 L31,320 L31,325 L33,326 L34,323 L36,317 L37,310 L37,303 L37,301 L37,302 L36,309 L35,317 L35,323 L35,324 L36,323 L36,319 L37,312 L38,305 L38,302 L38,301 L37,305 L36,313 L35,319 L35,322 L36,322 L39,317 L40,311 L41,305 L41,301 L41,300 L40,303 L39,309 L37,316 L37,320 L38,317 L40,310 L42,302 L44,295 L44,291 L43,295 L41,302 L39,310 L38,316 L39,317 L41,312 L45,303 L48,291 L49,281 L50,272 L50,268 L50,269 L48,275 L45,286 L43,296 L41,303 L42,304 L44,301 L47,295 L49,286 L51,277 L52,270 L52,267 L52,268 L51,275 L48,286 L46,295 L46,299 L48,296 L51,290 L52,282 L53,275 L53,273 L52,279 L51,288 L48,298 L48,303 L48,304 L49,303 L51,300 L53,293 L55,288 L56,285 L56,284 L55,286 L53,292 L52,297 L52,300 L53,299 L54,295 L55,291 L56,288 L56,287 L56,288 L56,292 L55,298 L54,301 L54,302 L55,301 L56,297 L57,291 L58,286 L58,284 L58,285 L57,292 L56,299 L55,303 L55,304 L56,303 L57,299 L58,295 L59,290 L60,288 L60,291 L60,296 L60,300 L60,303 L60,302 L61,298 L62,294 L63,291 L63,289 L63,290 L63,295 L62,301 L61,306 L62,307 L63,307 L63,304 L63,300 L64,296 L64,293 L64,295 L64,300 L64,305 L64,309 L63,310 L63,309 L64,305 L66,300 L66,297 L66,296 L66,298 L65,304 L63,311 L63,315 L64,313 L66,308 L67,303 L67,300 L67,299 L67,300 L67,305 L66,311 L66,314 L66,315 L67,312 L68,306 L70,300 L71,295 L72,292 L72,291 L72,293 L70,299 L68,306 L67,313 L67,314 L67,313 L69,309 L71,303 L73,297 L74,291 L74,290 L73,295 L70,303 L68,311 L68,315 L69,312 L71,307 L73,302 L73,298 L73,296 L73,299 L72,305 L71,310 L71,311 L72,310 L73,306 L75,300 L76,295 L77,291 L77,293 L75,299 L74,305 L74,309 L75,307 L76,303 L77,297 L78,293 L78,291 L78,292 L77,298 L76,304 L77,308 L78,308 L80,305 L83,300 L85,293 L86,288 L87,287 L86,289 L84,296 L83,305 L82,310 L83,313 L84,310 L86,305 L87,298 L88,293 L88,290 L86,294 L84,301 L83,307 L84,310 L85,310 L86,308 L88,303 L90,298 L91,293 L91,291 L90,296 L88,304 L87,311 L87,315 L88,313 L90,309 L92,303 L92,299 L93,297 L92,299 L91,307 L90,314 L90,318 L91,319 L92,316 L94,311 L94,305 L94,299 L94,297 L93,300 L93,305 L92,310 L92,313 L92,312 L94,309 L95,304 L96,300 L97,298 L97,301 L96,306 L96,310 L96,312 L96,311 L97,309 L97,306 L97,304 L97,303 L97,307 L97,311 L97,314 L97,313 L98,311 L99,309 L100,308 L100,307 L100,310 L100,313 L100,314 L102,312 L103,308 L104,305 L104,303 L102,308 L102,313 L102,315 L102,317 L103,316 L105,313 L107,307 L108,301 L109,296 L110,295 L109,298 L109,302 L109,305 L109,306 L110,304 L111,300 L112,296 L113,293 L114,290 L114,292 L113,297 L113,301 L113,302 L113,301 L114,297 L116,292 L117,288 L117,290 L117,295 L116,300 L116,302 L117,301 L119,297 L121,291 L123,283 L124,280 L124,281 L123,286 L122,293 L121,299 L122,300 L122,299 L123,295 L124,291 L124,289 L124,290 L124,295 L124,299 L125,303 L126,303 L127,300 L129,295 L129,291 L129,290 L129,294 L129,300 L129,304 L130,305 L131,305 L131,304 L132,300 L132,295 L132,292 L133,292 L133,294 L132,300 L132,304 L132,306 L132,304 L134,300 L134,297 L134,295 L135,296 L135,300 L135,304 L136,308 L137,310 L138,310 L138,309 L138,306 L138,303 L138,301 L138,300 L138,301 L138,307 L138,313 L138,317 L139,317 L139,313 L139,309 L139,307 L139,306 L139,308 L139,313 L139,317 L140,319 L140,315 L141,310 L141,306 L141,305 L141,311 L141,317 L141,320 L141,321 L142,320 L143,317 L144,313 L145,309 L145,307 L145,308 L145,312 L145,317 L145,320 L146,321 L147,321 L148,317 L149,313 L149,308 L149,307 L149,306 L149,309 L149,314 L149,317 L150,318 L151,318 L152,315 L154,310 L155,307 L156,306 L155,308 L155,312 L155,315 L155,317 L155,318 L156,315 L157,310 L158,306 L158,305 L158,308 L157,313 L156,317 L156,319 L157,319 L157,318 L157,317 L158,315 L159,311 L159,309 L160,308 L160,309 L159,314 L159,318 L159,320 L159,321 L159,320 L160,317 L160,314 L161,311 L161,310 L161,313 L161,317 L162,320 L163,322 L163,318 L164,313 L165,309 L165,308 L165,309 L165,314 L164,319 L164,324 L164,326 L164,325 L165,322 L166,317 L166,314 L166,313 L166,316 L166,321 L167,325 L167,326 L167,325 L168,322 L168,319 L168,317 L168,316 L168,317 L168,323 L168,329 L170,333 L171,333 L171,332 L171,329 L172,323 L173,318 L173,316 L173,317 L173,322 L172,330 L171,335 L172,337 L172,336 L173,333 L175,328 L175,323 L176,320 L175,322 L174,327 L173,331 L173,334 L174,334 L175,330 L176,326 L177,324 L177,323 L177,324 L177,327 L177,330 L177,331 L177,332 L178,330 L178,326 L179,322 L180,320 L179,323 L178,328 L178,332 L178,333 L179,331 L180,328 L181,324 L182,322 L183,320 L183,321 L182,324 L182,328 L182,331 L182,332 L183,329 L183,325 L184,323 L184,322 L184,325 L184,328 L184,330 L184,331 L184,330 L184,328 L185,327 L185,326 L185,327 L185,331 L185,335 L185,337 L186,337 L186,334 L187,330 L188,328 L188,327 L188,330 L188,335 L188,338 L188,339 L188,337 L189,335 L190,332 L190,330 L190,331 L190,334 L190,336 L190,337 L190,338 L190,335 L190,332 L190,329 L190,328 L190,327 L189,331 L188,335 L188,338 L188,339 L188,338 L189,337 L190,333 L191,330 L192,329 L192,328 L192,329 L192,331 L191,334 L191,336 L192,337 L192,336 L193,333 L194,330 L194,327 L195,324 L194,327 L194,331 L194,333 L193,335 L193,333 L194,330 L194,328 L194,327 L194,328 L194,330 L194,331 L195,329 L195,326 L196,323 L196,322 L196,323 L196,325 L196,326 L197,324 L197,322 L198,321 L198,320 L198,321 L198,324 L198,326 L198,327 L198,325 L198,322 L199,317 L199,315 L200,316 L200,320 L200,322 L201,324 L201,325 L201,323 L201,320 L201,318 L201,317 L202,317 L202,319 L201,323 L201,326 L201,328 L201,327 L201,325 L201,322 L201,319 L202,317 L202,319 L202,324 L202,328 L202,330 L203,330 L204,329 L205,327 L205,325 L206,325 L206,328 L206,331 L207,333 L207,332 L207,329 L207,328 L207,327 L207,330 L206,333 L206,335 L206,336 L206,335 L206,332 L207,329 L207,327 L207,328 L207,332 L206,335 L206,337 L206,338 L206,337 L207,335 L208,332 L209,330 L209,328 L209,330 L208,334 L208,337 L207,339 L207,338 L208,334 L209,331 L209,328 L209,327 L209,328 L209,330 L210,332 L210,334 L211,334 L212,331 L212,327 L214,323 L214,320 L215,319 L215,320 L214,322 L214,326 L214,327 L214,328 L215,326 L215,322 L215,319 L216,317 L216,316 L216,317 L216,319 L216,323 L216,326 L216,327 L217,326 L218,321 L219,317 L219,315 L219,319 L218,323 L217,326 L218,328 L219,327 L220,324 L221,320 L221,318 L221,319 L221,322 L220,325 L220,327 L221,328 L222,325 L224,320 L227,314 L227,311 L227,310 L227,313 L226,317 L225,322 L225,324 L225,325 L226,322 L227,318 L228,314 L229,313 L229,312 L229,313 L228,316 L227,320 L227,324 L227,327 L228,323 L229,320 L229,317 L229,315 L229,318 L229,322 L229,326 L229,329 L230,330 L230,329 L231,325 L232,321 L232,320 L232,319 L232,320 L232,323 L232,327 L232,329 L232,330 L232,331 L232,330 L232,327 L232,325 L232,327 L232,330 L232,333 L232,335 L233,335 L233,332 L234,329 L234,327 L234,330 L234,332 L234,333 L234,334 L234,333 L234,330 L235,326 L236,324 L236,326 L236,330 L236,334 L236,335 L236,336 L236,335 L236,333 L237,330 L237,329 L237,328 L237,332 L237,337 L237,340 L237,342 L238,342 L238,340 L239,338 L239,335 L240,333 L240,332 L240,333 L240,336 L240,339 L241,342 L241,343 L242,342 L243,338 L244,335 L244,332 L245,332 L244,337 L243,342 L243,345 L242,347 L243,347 L243,346 L244,342 L246,338 L246,334 L246,332 L246,335 L245,339 L244,343 L243,346 L244,342 L246,337 L247,333 L247,332 L247,335 L246,339 L246,342 L246,344 L247,342 L248,339 L249,336 L249,335 L248,338 L247,344 L246,348 L246,350 L247,351 L248,350 L249,347 L249,342 L250,339 L251,337 L251,338 L250,342 L250,344 L251,347 L251,348 L252,346 L252,344 L253,342 L252,345 L251,349 L251,351 L251,352 L251,351 L252,349 L253,346 L254,345 L254,344 L254,345 L254,348 L253,350 L253,352 L253,353 L254,351 L255,348 L255,346 L256,344 L256,345 L255,348 L255,350 L255,351 L255,352 L255,350 L256,347 L257,343 L258,340 L258,339 L258,342 L258,343 L258,344 L258,343 L258,340 L259,335 L260,329 L261,325 L261,326 L261,327 L261,325 L261,324 L261,323 L261,322 L261,324 L259,330 L258,335 L258,337 L258,336 L259,332 L260,328 L260,325 L260,323 L260,325 L260,329 L260,332 L260,334 L260,335 L261,334 L261,330 L262,325 L263,323 L263,324 L263,327 L263,331 L263,334 L263,335 L263,333 L264,330 L265,326 L266,323 L266,322 L266,323 L266,326 L268,330 L269,332 L271,333 L273,332 L273,329 L274,325 L274,320 L274,318 L274,317 L274,319 L274,322 L274,324 L274,325 L275,322 L276,319 L277,316 L277,315 L277,316 L277,319 L276,322 L276,323 L276,324 L276,321 L277,315 L277,309 L278,306 L278,305 L277,308 L276,312 L275,317 L275,321 L275,322 L275,321 L275,318 L275,315 L276,312 L276,314 L274,320 L273,326 L273,331 L273,333 L273,332 L273,330 L273,327 L273,326 L273,325 L272,327 L272,330 L272,333 L272,334 L273,335 L274,332 L275,328 L276,325 L276,324 L276,325 L276,327 L276,329 L276,330 L277,330 L277,327 L277,322 L278,317 L278,313 L278,314 L278,316 L279,320 L279,322 L279,324 L278,325 L279,322 L280,320 L281,318 L282,317 L283,319 L285,322 L286,327 L286,329 L285,327 L285,325 L285,324 L285,323 L285,322 L285,325 L284,330 L284,333 L284,335 L284,333 L285,330 L285,326 L285,325 L285,324 L285,326 L285,331 L285,335 L285,337 L285,338 L285,336 L286,333 L286,331 L287,331 L286,332 L285,338 L285,345 L285,349 L286,349 L286,347 L286,346 L286,343 L286,342 L286,341 L286,342 L286,348 L287,353 L288,357 L290,358 L290,357 L291,355 L293,350 L294,346 L295,344 L294,348 L294,352 L294,354 L294,355 L295,355 L295,352 L296,347 L298,342 L299,339 L299,337 L299,339 L299,341 L299,343 L299,344 L300,344 L300,341 L300,339 L300,342 L299,346 L299,348 L299,349 L299,347 L300,342 L301,338 L301,337 L301,336 L301,338 L300,342 L300,345 L300,347 L300,344 L301,341 L302,339 L302,340 L301,344 L300,348 L300,350 L300,351 L300,349 L302,346 L303,342 L304,338 L305,335 L306,334 L306,335 L306,336 L307,334 L308,329 L308,324 L308,322 L308,325 L306,332 L304,340 L303,347 L302,349 L303,347 L303,346 L304,345 L304,344 L304,346 L304,349 L304,352 L305,353 L306,351 L307,347 L308,342 L308,339 L308,337 L308,339 L308,342 L308,343 L309,344 L309,343 L309,340 L310,337 L310,336 L310,340 L309,344 L309,346 L309,347 L309,346 L309,344 L310,339 L311,336 L311,334 L311,335 L311,340 L310,344 L310,346 L310,347 L310,346 L312,342 L312,339 L313,337 L312,340 L310,345 L310,349 L310,351 L311,351 L311,349 L312,348 L312,349 L312,352 L312,354 L312,355 L313,356 L313,355 L314,352 L315,349 L315,348 L315,347 L315,349 L314,352 L314,355 L314,357 L314,356 L315,353 L316,350 L317,349 L317,348 L317,350 L317,352 L317,353 L317,351 L317,349 L318,348 L318,350 L318,353 L319,354 L319,355 L320,356 L320,354 L320,352 L320,350 L320,349 L320,350 L320,351 L320,352 L320,351 L321,351 L322,351 L322,352 L323,352 L324,352 L325,352 L325,350 L326,347 L326,345 L326,344 L326,345 L327,345 L327,343 L327,340 L328,339 L328,338 L328,337 L328,339 L328,342 L328,344 L328,345 L328,344 L328,342 L329,339 L329,336 L329,335 L330,336 L330,338 L330,341 L330,343 L330,344 L330,345 L331,345 L332,343 L332,340 L333,339 L333,338 L333,339 L332,342 L332,345 L332,348 L333,346 L333,343 L333,341 L334,340 L333,342 L332,345 L332,348 L332,349 L332,347 L333,344 L335,341 L335,339 L336,337 L336,338 L336,339 L336,342 L337,344 L338,345 L339,345 L340,344 L341,342 L341,340 L341,342 L341,344 L341,345 L341,346 L342,345 L342,342 L342,339 L343,338 L343,337 L343,340 L344,343 L344,345 L345,345 L346,345 L347,341 L347,337 L348,333 L348,332 L348,333 L349,335 L349,336 L349,337 L349,338 L350,338 L351,335 L351,332 L351,330 L351,331 L351,334 L351,337 L351,339 L351,340 L352,337 L353,333 L354,329 L355,327 L354,329 L354,333 L353,337 L353,339 L354,340 L355,339 L357,336 L357,331 L358,327 L358,326 L358,327 L358,329 L358,331 L358,332 L359,332 L359,333 L359,332 L359,329 L359,327 L359,325 L359,328 L358,332 L358,335 L358,337 L358,336 L359,332 L360,329 L360,327 L361,327 L360,328 L359,332 L359,336 L359,337 L359,338 L359,337 L360,335 L361,332 L361,329 L361,328 L361,329 L361,331 L361,334 L361,335 L362,331 L363,328 L363,327 L363,326 L363,327 L364,329 L364,330 L366,330 L369,327 L372,323 L374,320 L374,318 L373,320 L373,323 L373,325 L373,326 L373,325 L374,322 L374,319 L374,316 L374,315 L375,316 L375,317 L375,319 L375,320 L375,319 L375,317 L375,316 L375,318 L375,322 L375,325 L375,326 L376,325 L376,322 L377,318 L378,316 L378,318 L377,322 L376,326 L376,329 L377,330 L377,329 L378,327 L379,323 L379,320 L379,319 L379,321 L378,326 L377,330 L377,332 L377,333 L377,331 L378,328 L379,325 L379,324 L379,327 L378,332 L378,336 L379,339 L379,337 L381,334 L381,332 L382,330 L381,332 L380,336 L380,338 L380,339 L380,337 L381,335 L382,332 L383,330 L383,333 L383,337 L383,339 L384,339 L385,339 L385,337 L386,335 L386,333 L386,335 L385,337 L385,339 L385,340 L385,338 L386,335 L387,331 L388,330 L388,329 L388,330 L388,331 L388,333 L388,334 L388,335 L388,334 L389,331 L390,327 L391,324 L391,323 L391,325 L393,328 L396,330 L400,331 L402,330 L403,328 L403,326 L402,325 L401,325 L400,329 L399,332 L398,335 L398,336 L398,335 L399,334 L399,332 L400,332 L400,331 L400,333 L400,335 L400,336 L399,337 L399,334 L400,331 L400,328 L401,327 L400,331 L399,335 L399,337 L399,338 L399,337 L399,336 L399,332 L400,329 L400,327 L401,327 L401,328 L401,332 L400,336 L400,338 L399,338 L399,337 L400,335 L400,332 L401,330 L401,329 L401,330 L401,333 L401,337 L402,340 L403,341 L403,340 L403,338 L402,335 L402,334 L401,333 L401,335 L401,338 L401,340 L401,341 L401,342 L401,339 L402,335 L403,331 L403,328 L403,330 L403,334 L403,337 L403,338 L403,339 L404,337 L406,333 L407,329 L408,326 L408,327 L407,331 L407,335 L407,336 L407,335 L408,330 L409,325 L410,321 L411,320 L410,323 L410,327 L409,329 L409,330 L410,330 L411,327 L413,322 L415,319 L415,318 L415,319 L413,322 L412,325 L412,328 L412,330 L413,330 L413,329 L414,325 L415,320 L415,315 L416,312 L415,314 L415,316 L415,317 L416,315 L417,310 L418,307 L418,306 L418,309 L418,313 L418,314 L418,315 L418,313 L419,308 L420,303 L421,301 L421,302 L420,305 L420,310 L420,312 L420,313 L421,310 L422,307 L423,305 L423,304 L423,306 L422,310 L422,313 L422,314 L423,314 L423,312 L424,308 L425,305 L425,302 L425,301 L425,302 L424,305 L424,309 L424,313 L424,314 L424,312 L425,308 L426,304 L427,301 L427,300 L427,303 L427,305 L427,308 L429,308 L431,306 L432,303 L432,301 L432,300 L432,302 L432,304 L431,306 L431,307 L431,308 L432,308 L432,305 L433,303 L433,302 L433,301 L432,305 L432,308 L431,310 L431,308 L432,305 L433,303 L433,301 L433,303 L433,306 L432,310 L432,312 L432,313 L432,310 L432,307 L433,305 L434,305 L434,307 L434,310 L434,313 L435,314 L435,313 L437,309 L439,304 L440,300 L440,298 L440,299 L439,302 L437,306 L437,309 L437,310 L438,310 L439,307 L441,303 L442,298 L442,295 L442,298 L442,301 L443,303 L444,304 L446,304 L448,301 L450,296 L451,293 L451,291 L450,293 L449,298 L448,301 L447,303 L448,300 L449,296 L449,293 L449,291 L449,292 L449,296 L448,300 L448,303 L448,302 L448,298 L449,293 L449,289 L449,288 L449,291 L449,295 L449,300 L449,302 L449,303 L449,301 L449,297 L451,293 L451,290 L451,291 L451,293 L451,297 L451,300 L451,303 L452,303 L453,300 L454,296 L454,294 L454,293 L454,294 L453,298 L452,302 L452,304 L452,305 L452,304 L453,301 L454,298 L454,296 L454,297 L453,300 L452,303 L452,306 L452,307 L452,306 L452,304 L453,301 L454,299 L454,298 L454,300 L452,304 L452,307 L451,309 L451,310 L451,309 L453,305 L454,301 L455,298 L454,299 L453,303 L452,308 L451,310 L452,312 L454,309 L455,305 L455,303 L456,301 L456,300 L455,303 L454,308 L454,312 L454,313 L456,310 L458,305 L459,300 L460,297 L460,296 L460,297 L460,299 L459,303 L459,306 L459,308 L461,309 L462,308 L464,306 L466,303 L466,302 L466,303 L464,307 L463,310 L463,313 L464,313 L465,312 L466,309 L466,307 L466,306 L466,309 L466,311 L466,312 L466,313 L466,312 L467,309 L468,305 L469,303 L470,302 L470,303 L469,306 L468,309 L468,311 L469,311 L471,310 L472,308 L473,306 L473,305 L473,306 L474,308 L475,310 L477,312 L479,312 L480,310 L480,307 L481,303 L481,302 L481,304 L480,308 L480,309 L480,310 L480,309 L481,305 L482,302 L483,299 L483,298 L483,300 L483,303 L483,305 L483,306 L484,304 L485,300 L487,296 L488,294 L488,295 L487,296 L487,298 L488,299 L488,300 L489,299 L490,295 L491,290 L492,288 L492,287 L491,289 L491,291 L491,292 L491,293 L491,292 L493,289 L494,284 L496,279 L497,278 L497,281 L497,285 L499,288 L501,290 L503,290 L504,288 L505,284 L506,281 L506,278 L506,279 L505,282 L504,285 L504,286 L503,287 L503,288 L504,286 L505,282 L506,279 L507,277 L507,276 L507,277 L506,280 L506,283 L506,285 L506,286 L507,283 L508,279 L510,276 L510,275 L508,278 L506,283 L505,287 L505,288 L506,285 L508,281 L508,279 L509,278 L509,279 L508,283 L507,288 L506,291 L506,292 L507,292 L508,289 L509,286 L510,282 L510,280 L510,284 L509,288 L509,291 L509,290 L511,286 L512,282 L513,280 L513,279 L513,280 L513,283 L511,287 L511,290 L511,291 L511,292 L512,291 L513,289 L514,286 L515,284 L515,283 L515,284 L515,287 L515,289 L516,291 L517,291 L518,290 L519,288 L520,286 L521,284 L521,286 L520,288 L520,289 L520,290 L521,288 L523,284 L524,281 L523,283 L521,288 L520,291 L519,291 L520,291 L521,288 L523,285 L523,283 L523,286 L523,288 L523,291 L524,291 L525,292 L525,291 L525,290 L525,291 L525,292 L525,293 L525,292 L526,290 L527,288 L528,288 L527,291 L527,293 L527,295 L528,296 L529,295 L531,293 L532,289 L534,286 L534,284 L533,286 L532,290 L531,293 L530,294 L531,292 L532,289 L533,286 L534,285 L534,284 L534,285 L534,288 L534,290 L535,292 L537,293 L538,293 L539,292 L540,289 L540,288 L539,288 L538,291 L537,294 L537,296 L536,297 L537,295 L538,292 L540,289 L540,288 L540,289 L540,291 L540,293 L540,294 L540,295 L541,294 L542,293 L543,292 L543,291 L543,293 L543,295 L544,296 L545,297 L546,297 L547,296 L547,294 L547,293 L547,292 L547,294 L547,297 L547,299 L547,300 L549,300 L551,299 L552,297 L552,295 L551,298 L550,300 L550,302 L550,303 L550,304 L550,305 L550,307 L552,303 L556,297 L558,292 L559,291 L558,291 L558,292 L559,291 L559,288 L560,283 L562,277 L564,271 L565,267 L565,266 L565,267 L565,268 L566,266 L567,264 L568,259 L569,256 L569,255 L569,258 L568,261 L567,263 L567,264 L568,263 L569,261 L569,259 L569,260 L568,265 L567,271 L567,273 L568,274 L568,273 L569,271 L570,268 L571,265 L571,264 L571,266 L570,270 L569,273 L569,275 L569,276 L570,275 L571,273 L572,271 L573,270 L574,269 L573,270 L572,272 L571,275 L571,277 L572,278 L573,278 L574,277 L576,274 L577,272 L577,271 L577,272 L576,275 L576,277 L576,278 L576,279 L577,279 L578,278 L578,276 L579,275 L579,274 L578,276 L577,278 L577,280 L577,281 L579,281 L580,278 L581,275 L582,273 L581,275 L581,277 L580,278 L580,279 L581,278 L581,276 L582,276 L582,275 L582,277 L582,278 L583,280 L584,280 L587,279 L589,277 L589,275 L589,274 L588,275 L586,277 L586,279 L586,281 L585,282 L584,283 L583,284 L582,285 L582,286 L582,284 L582,283 L582,282 L582,283 L582,285 L582,287 L583,287 L585,283 L587,280 L588,278 L588,279 L588,278 L589,276 L591,273 L591,272 L591,273 L591,274 L591,273 L592,272 L592,270 L593,269 L593,270 L593,272 L592,274 L592,275 L592,276 L592,275 L592,273 L593,271 L594,269 L594,268 L594,269 L594,271 L595,273 L596,273 L598,273 L599,271 L600,270 L600,269 L599,269 L599,271 L599,273 L599,274 L599,275 L600,273 L600,271 L601,270 L601,269 L600,271 L599,274 L599,276 L599,275 L600,273 L600,271 L600,273 L599,277 L599,280 L599,281 L600,278 L601,276 L602,275 L602,274 L601,277 L599,281 L599,283 L599,285 L600,285 L601,285 L601,284 L602,283 L602,284 L602,285 L603,284 L604,283 L604,284 L603,285 L602,287 L601,289 L600,291 L600,292 L600,291 L599,293 L598,298 L598,302 L598,305 L598,307 L598,310 L598,313 L598,314 L598,315 L598,314 L598,313 L598,311 L599,308 L600,305 L601,302 L602,301 L602,302 L602,305 L601,308 L601,310 L600,311 L601,307 L603,302 L606,295 L607,292 L607,291 L607,292 L607,293 L608,292 L609,290 L612,286 L614,281 L615,280 L615,281 L615,282 L614,283 L614,284 L614,285 L615,284 L617,281 L619,276 L621,273 L622,271 L621,274 L619,278 L618,281 L618,282 L620,280 L621,277 L622,273 L622,272 L620,276 L618,280 L618,283 L618,285 L618,284 L620,283 L621,281 L621,280 L621,281 L621,283 L621,285 L621,286 L621,287 L621,286 L622,285 L622,284 L621,286 L621,288 L620,290 L620,291 L620,290 L621,288 L622,286 L622,285 L622,286 L621,288 L621,290 L621,291 L621,290 L621,288 L622,286 L622,285 L622,286 L622,288 L622,290 L622,291 L623,290 L623,288 L624,288 L624,289 L624,290 L625,288 L626,286 L626,285 L626,286 L625,289 L625,291 L625,293 L626,293 L628,291 L630,288 L632,285 L633,283 L632,283 L632,285 L631,287 L631,289 L631,290 L632,290 L633,287 L635,283 L636,280 L637,277 L637,276 L638,276 L637,278 L636,281 L636,284 L635,286 L637,287 L639,287 L642,286 L643,284 L644,284 L642,286 L640,289 L639,293 L639,294 L640,294 L640,293 L641,290 L643,287 L643,285 L643,284 L643,285 L642,288 L641,292 L640,294 L640,295 L640,294 L641,291 L643,288 L643,287 L643,286 L643,288 L643,291 L643,293 L642,294 L643,293 L644,290 L645,288 L645,287 L645,288 L643,291 L640,295 L640,298 L641,297 L643,293 L644,291 L645,289 L645,288 L645,289 L644,291 L644,292 L644,293 L644,292 L646,288 L648,283 L649,281 L648,282 L648,283 L648,284 L649,284 L650,283 L651,281 L653,276 L654,272 L654,270 L653,270 L653,271 L653,272 L653,271 L654,269 L655,267 L655,266 L655,265 L656,266 L656,267 L657,267 L657,266 L658,263 L660,259 L661,258 L661,257 L661,259 L660,263 L660,265 L660,266 L660,267 L660,266 L660,264 L661,261 L662,260 L662,259 L661,262 L660,265 L660,267 L660,268 L662,265 L663,261 L664,258 L664,256 L663,259 L662,262 L662,265 L662,267 L663,267 L664,266 L664,263 L665,262 L665,261 L665,263 L665,265 L665,267 L665,268 L666,266 L667,264 L667,262 L667,261 L666,264 L665,268 L664,271 L664,272 L665,271 L666,269 L668,266 L670,264 L667,267 L666,270 L665,272 L665,273 L666,273 L667,273 L668,271 L668,268 L669,266 L669,267 L669,269 L669,270 L669,269 L670,266 L671,261 L672,257 L672,255 L671,257 L670,261 L669,265 L669,267 L669,268 L670,267 L671,265 L672,264 L672,263 L672,262 L672,264 L670,267 L670,271 L670,274 L670,275 L670,274 L670,272 L671,269 L672,268 L672,267 L672,268 L671,270 L671,273 L671,275 L671,276 L672,276 L674,274 L675,271 L676,270 L675,271 L674,274 L674,276 L675,277 L676,277 L677,276 L679,273 L679,271 L678,274 L677,277 L677,279 L678,281 L679,281 L682,278 L683,274 L684,271 L684,270 L684,271 L684,272 L685,271 L685,269 L686,268 L686,267 L686,268 L687,266 L688,264 L689,260 L689,258 L689,257 L689,258 L690,259 L690,261 L691,261 L692,261 L693,259 L694,257 L694,256 L694,257 L693,260 L693,262 L693,264 L694,264 L695,261 L696,257 L697,254 L697,253 L696,256 L695,260 L694,263 L694,265 L695,265 L695,264 L696,261 L696,259 L697,256 L697,255 L697,256 L697,257 L696,258 L697,257 L698,254 L698,251 L698,250 L699,250 L698,252 L697,255 L697,256 L697,257 L698,254 L699,250 L699,246 L699,244 L700,244 L701,243 L703,239 L704,237 L704,235 L704,237 L704,238 L704,240 L704,241 L704,242 L704,241 L707,237 L709,231 L710,228 L710,227 L710,228 L709,231 L709,234 L709,236 L709,237 L709,236 L711,232 L714,227 L716,221 L716,219 L714,219 L711,222 L709,226 L708,229 L708,231 L709,231 L710,231 L711,229 L711,227 L712,224 L713,221 L714,220 L715,220 L715,221 L714,224 L714,226 L714,227 L713,228 L715,226 L718,221 L720,216 L720,214 L719,213 L719,214 L718,216 L718,219 L718,222 L718,224 L718,225 L718,224 L720,219 L723,213 L723,210 L723,208 L722,210 L720,213 L719,217 L718,218 L718,219 L719,217 L721,214 L723,210 L723,209 L723,210 L721,215 L718,220 L717,224 L716,226 L717,226 L718,226 L719,224 L720,221 L721,219 L721,217 L721,220 L721,224 L721,227 L721,228 L722,227 L724,224 L726,222 L727,221 L726,222 L726,224 L725,227 L726,229 L727,230 L728,230 L730,229 L731,226 L732,225 L732,224 L732,225 L731,227 L730,229 L730,230 L731,229 L733,226 L734,224 L735,223 L733,224 L732,227 L732,229 L732,230 L732,231 L733,230 L734,227 L736,223 L738,220 L738,218 L738,219 L736,222 L735,225 L735,228 L735,229 L736,227 L737,224 L738,223 L736,226 L733,231 L731,236 L731,239 L732,241 L732,240 L733,239 L733,238 L733,237 L733,238 L731,242 L728,246 L728,250 L729,251 L730,251 L730,250 L732,247 L733,244 L733,242 L733,243 L731,248 L729,254 L728,259 L729,261 L730,262 L731,261 L733,258 L736,254 L737,251 L737,249 L736,252 L733,258 L732,262 L732,266 L732,268 L733,268 L733,267 L733,265 L734,263 L735,262 L733,264 L731,269 L728,273 L728,276 L728,274 L728,272 L728,271 L728,275 L728,278 L727,281 L727,282 L728,281 L728,280 L728,279 L728,278 L728,279 L728,281 L729,283 L730,284 L731,285 L732,283 L734,279 L735,276 L735,279 L734,282 L734,283 L734,284 L735,282 L737,277 L738,271 L739,265 L739,263 L739,264 L738,268 L737,273 L736,279 L736,283 L737,284 L737,283 L738,282 L738,279 L739,276 L739,274 L739,273 L738,276 L734,284 L732,292 L733,298 L734,300 L735,300 L735,299 L736,296 L737,293 L738,291 L739,289 L739,291 L738,295 L738,299 L738,302 L740,303 L741,302 L742,300 L743,299 L743,298 L743,297 L743,298 L742,301 L742,304 L743,306 L743,307 L744,307 L745,305 L747,302 L748,300 L748,299 L748,300 L746,303 L745,307 L745,309 L745,311 L745,310 L746,309 L746,308 L746,307 L746,308 L746,309 L746,311 L746,313 L746,315 L747,313 L747,310 L748,309 L748,308 L748,309 L748,312 L747,314 L747,315 L747,316 L747,315 L747,314 L747,315 L747,317 L747,320 L747,322 L747,325 L747,327 L747,328 L747,327 L748,325 L750,322 L752,318 L754,313 L755,310 L756,308 L757,307 L758,305 L760,302 L760,301 L760,300 L760,301 L760,302 L760,304 L760,305 L760,306 L761,304 L762,301 L762,300 L762,299 L762,302 L761,305 L760,309 L760,311 L762,309 L763,305 L765,302 L765,300 L765,302 L765,303 L765,304 L765,305 L766,305 L767,303 L769,300 L770,297 L770,296 L769,298 L768,300 L768,302 L768,303 L769,301 L771,297 L772,293 L773,290 L773,292 L772,295 L772,297 L772,298 L772,299 L773,299 L774,296 L775,292 L775,289 L775,288 L775,289 L775,291 L775,293 L775,294 L777,290 L778,286 L779,282 L779,281 L779,282 L779,284 L779,286 L779,287 L780,288 L780,286 L782,283 L783,279 L784,277 L784,276 L784,277 L784,280 L784,282 L784,283 L784,284 L784,282 L787,278 L789,273 L789,271 L789,273 L789,275 L788,277 L788,278 L789,278 L790,276 L792,271 L794,268 L795,267 L794,268 L794,271 L794,273 L794,274 L794,272 L795,269 L796,267 L796,265 L797,266 L797,268 L797,271 L797,273 L797,274 L797,273 L797,271 L799,267 L800,264 L799,267 L798,271 L798,275 L798,278 L798,279 L799,279 L799,278 L799,277 L799,276 L799,279 L798,281 L798,283 L799,284 L799,283 L800,281 L801,276 L802,273 L802,271 L802,272 L802,271 L803,268 L804,266 L804,264 L805,263 L806,259 L807,255 L808,251 L809,250 L809,251 L811,249 L813,245 L815,240 L816,237 L816,238 L816,239 L816,240 L817,240 L817,239 L818,237 L819,234 L820,232 L820,233 L820,234 L820,235 L821,235 L822,233 L823,230 L824,229 L824,230 L823,233 L823,236 L823,237 L823,238 L824,238 L825,236 L826,232 L828,229 L828,228 L828,229 L827,231 L827,233 L827,234 L828,232 L830,228 L831,225 L832,223 L831,224 L831,226 L831,227 L831,229 L832,229 L832,228 L832,226 L833,225 L833,224 L832,227 L832,229 L832,230 L832,231 L833,230 L833,229 L833,230 L833,233 L833,236 L833,237 L833,238 L833,237 L833,236 L833,239 L833,241 L833,243 L833,244 L833,243 L833,242 L833,243 L833,245 L833,246 L833,247 L833,246 L833,245 L833,244 L833,245 L832,247 L832,249 L832,250 L831,250 L831,251 L831,250 L831,249 L831,250 L831,252 L830,254 L830,256 L830,257 L831,257 L831,256 L831,257 L830,260 L830,263 L830,264 L830,265 L830,264 L830,262 L830,260 L830,259 L830,258 L830,259 L829,263 L828,268 L828,273 L828,276 L829,275 L829,274 L829,272 L829,271 L829,272 L829,274 L829,278 L830,281 L830,282 L830,281 L830,280 L830,277 L830,276 L830,275 L830,277 L829,281 L829,284 L829,286 L830,286 L831,283 L831,280 L832,277 L832,276 L832,277 L831,280 L831,281 L831,282 L831,283 L832,282 L833,279 L835,275 L836,269 L837,265 L837,264 L837,265 L837,266 L838,266 L838,265 L840,262 L841,259 L841,258 L841,257 L841,258 L841,259 L841,260 L842,258 L843,254 L845,251 L846,249 L846,250 L845,252 L844,254 L843,254 L843,255 L844,254 L846,251 L848,249 L848,247 L848,246 L848,247 L848,250 L849,252 L850,253 L850,254 L850,253 L851,251 L852,248 L853,246 L853,247 L853,249 L853,252 L854,254 L854,252 L855,251 L855,250 L855,251 L854,252 L854,254 L854,255 L854,256 L854,255 L855,253 L855,252 L856,251 L856,254 L856,256 L857,257 L857,258 L858,256 L859,254 L860,252 L860,251 L860,252 L860,255 L860,257 L860,258 L860,259 L861,258 L862,256 L862,254 L862,253 L862,254 L862,255 L862,256 L862,257 L862,258 L862,257 L861,259 L859,262 L858,265 L857,267 L858,267 L858,266 L859,264 L859,263 L859,262 L859,263 L859,265 L859,267 L859,268 L860,267 L861,264 L863,261 L863,259 L863,260 L864,261 L865,259 L868,255 L870,249 L872,246 L873,245 L872,246 L872,247 L872,248 L872,249 L873,248 L874,246 L876,243 L877,240 L877,239 L877,240 L877,241 L877,242 L878,239 L881,235 L882,232 L882,230 L882,231 L882,232 L882,233 L882,234 L884,232 L885,229 L886,226 L885,229 L885,231 L885,233 L885,234 L885,232 L886,229 L887,227 L888,225 L888,224 L888,225 L888,228 L887,232 L887,235 L888,237 L888,238 L889,237 L890,234 L890,232 L891,230 L891,229 L891,230 L891,232 L892,235 L892,237 L893,236 L894,233 L895,231 L895,229 L895,231 L895,233 L895,235 L895,236 L896,236 L896,234 L897,233 L897,232 L897,233 L897,236 L897,238 L897,239 L898,240 L898,239 L898,241 L898,242 L899,243 L900,241 L902,236 L903,230 L904,225 L904,223 L904,224 L905,221 L907,217 L908,213 L909,211 L909,212 L909,210 L909,207 L909,206 L910,205 L909,206 L909,209 L908,211 L908,212 L909,208 L911,203 L913,197 L913,193 L913,192 L913,193 L913,194 L913,195 L914,193 L914,190 L915,188 L915,187 L915,188 L914,191 L914,193 L914,194 L915,193 L917,190 L919,185 L920,179 L922,176 L921,178 L921,179 L920,180 L921,177 L923,173 L924,171 L924,170 L924,171 L924,173 L923,174 L923,175 L923,176 L924,175 L925,173 L927,169 L928,166 L928,165 L927,168 L926,171 L926,173 L926,174 L926,175 L926,173 L927,170 L928,166 L929,164 L929,163 L929,164 L928,166 L928,168 L928,169 L929,167 L929,164 L929,163 L929,162 L929,163 L929,166 L929,168 L929,169 L930,167 L930,164 L931,163 L931,162 L931,165 L930,169 L930,172 L931,174 L932,172 L932,169 L933,168 L933,167 L932,169 L932,171 L932,173 L932,174 L933,174 L934,173 L936,170 L937,167 L937,166 L937,167 L937,168 L938,169 L939,169 L941,167 L941,164 L941,163 L941,162 L941,163 L940,163 L941,163 L942,161 L943,156 L945,153 L945,150 L945,151 L945,150 L946,149 L946,148 L946,147 L947,146 L949,144 L951,141 L953,138 L953,137 L953,139 L953,140 L952,141 L953,141 L957,139 L963,132 L965,128 L966,127 L967,127 L968,129 L970,131" fill="none" stroke="red" stroke-width="3"/></svg>