<svg xmlns="http://www.w3.org/2000/svg" version="1.1" xmlns:xlink="http://www.w3.org/1999/xlink" xmlns:svgjs="http://svgjs.dev/svgjs" width="950" height="375" id="chartSvg"><path d="M47,217 L48,217 L49,217 L51,217 L53,217 L54,218 L56,218 L58,218 L61,218 L65,217 L68,216 L71,216 L74,216 L77,216 L80,216 L85,215 L89,215 L92,215 L96,214 L101,214 L106,213 L111,212 L116,211 L122,210 L129,208 L136,207 L143,206 L150,205 L158,203 L165,202 L172,202 L179,201 L184,201 L189,200 L195,200 L200,201 L205,201 L210,201 L215,201 L220,201 L224,201 L230,201 L236,201 L242,200 L249,200 L255,199 L261,198 L269,196 L276,194 L283,193 L290,191 L297,190 L304,189 L311,188 L317,187 L324,186 L330,186 L337,186 L343,186 L349,186 L355,187 L361,188 L366,188 L370,190 L376,190 L381,191 L385,192 L390,192 L394,193 L399,194 L404,194 L409,194 L415,194 L420,194 L425,194 L432,194 L438,193 L444,193 L450,192 L456,191 L463,190 L470,189 L475,188 L479,188 L484,188 L489,188 L492,189 L495,190 L498,190 L502,191 L506,191 L511,190 L517,190 L524,189 L531,188 L539,188 L547,187 L555,186 L564,186 L572,186 L580,186 L588,186 L596,187 L604,188 L611,188 L619,189 L626,190 L634,190 L644,190 L654,190 L663,190 L672,191 L681,192 L690,193 L699,193 L708,194 L715,194 L723,195 L730,195 L736,195 L743,196 L749,196 L756,196 L763,195 L770,194 L778,193 L784,192 L791,191 L798,191 L806,190 L814,190 L822,189 L831,189 L837,188 L843,188 L850,188 L854,188 L855,188 L856,187 L856,186" fill="none" stroke="red" stroke-width="3"/></svg>