<svg xmlns="http://www.w3.org/2000/svg" xmlns:xlink="http://www.w3.org/1999/xlink" version="1.1" class="marks" width="1012" height="385" viewBox="0 0 1012 385"><rect width="1012" height="385" fill="white"/><path d="M32,285 L30,286 L29,288 L30,288 L32,286 L34,282 L36,277 L38,270 L40,264 L42,263 L45,268 L47,278 L48,287 L50,294 L51,296 L52,295 L53,289 L56,282 L58,276 L61,273 L65,274 L69,281 L73,291 L75,301 L78,308 L79,311 L82,308 L85,300 L89,291 L93,281 L98,272 L103,266 L107,264 L110,266 L113,276 L114,289 L115,302 L114,313 L114,317 L117,313 L120,305 L124,295 L129,281 L136,266 L141,256 L146,256 L149,262 L150,274 L150,290 L148,307 L145,322 L144,331 L144,332 L145,326 L147,313 L149,295 L154,272 L160,256 L164,252 L166,253 L168,259 L170,270 L171,284 L171,301 L170,313 L169,319 L168,319 L167,313 L167,303 L167,288 L168,269 L171,252 L175,242 L177,240 L179,242 L180,251 L182,265 L183,285 L184,305 L185,317 L185,320 L186,319 L187,312 L188,299 L190,281 L194,261 L199,246 L202,241 L205,242 L208,247 L210,260 L212,276 L213,294 L214,308 L214,311 L214,309 L214,300 L215,288 L217,276 L222,271 L228,275 L234,283 L239,290 L244,294 L248,299 L251,305 L253,310 L254,309 L254,306 L255,303 L257,301 L259,300 L261,296 L265,285 L269,265 L273,246 L277,225 L282,199 L288,171 L293,148 L297,137 L300,136 L302,140 L304,150 L305,161 L307,173 L307,188 L306,202 L303,216 L301,224 L301,222 L303,214 L305,202 L310,187 L317,168 L324,151 L330,139 L336,132 L340,130 L342,134 L344,147 L344,163 L342,182 L340,199 L338,210 L337,216 L337,217 L337,216 L339,211 L343,200 L346,187 L350,176 L354,172 L357,174 L359,181 L360,192 L360,207 L358,225 L356,242 L355,252 L354,256 L356,255 L358,250 L362,240 L368,227 L375,212 L382,199 L388,195 L393,197 L398,204 L401,216 L404,228 L408,237 L411,241 L414,241 L418,235 L423,224 L430,211 L437,201 L444,197 L450,199 L455,206 L459,216 L462,227 L465,234 L468,236 L471,234 L474,224 L481,208 L488,196 L493,190 L498,191 L503,196 L508,204 L511,214 L514,222 L519,225 L524,223 L529,214 L536,199 L545,184 L553,178 L561,178 L566,186 L571,198 L575,212 L578,225 L581,231 L584,230 L588,220 L594,205 L600,190 L607,182 L613,181 L618,185 L621,197 L623,212 L624,228 L624,242 L624,246 L625,243 L626,230 L630,211 L637,190 L644,175 L651,166 L655,160 L659,159 L661,167 L662,183 L662,204 L661,224 L660,241 L660,252 L660,254 L662,251 L666,242 L671,229 L677,212 L686,193 L693,172 L701,157 L707,153 L710,157 L712,169 L714,185 L714,204 L715,225 L717,242 L719,250 L722,251 L727,241 L732,220 L740,192 L751,166 L761,154 L768,151 L773,156 L776,169 L777,189 L777,211 L777,227 L778,234 L779,233 L782,222 L787,202 L796,185 L803,179 L810,181 L815,193 L818,210 L820,228 L820,242 L821,246 L822,244 L826,229 L833,207 L843,187 L854,180 L862,182 L870,191 L876,205 L883,222 L891,237 L901,245 L918,240 L923,236" fill="none" stroke="red" stroke-width="3"/></svg>