<svg xmlns="http://www.w3.org/2000/svg" version="1.1" xmlns:xlink="http://www.w3.org/1999/xlink" xmlns:svgjs="http://svgjs.dev/svgjs" width="950" height="375" id="chartSvg"><path d="M10,266 L11,266 L12,266 L13,266 L14,266 L15,266 L17,266 L18,267 L20,268 L22,269 L24,270 L25,271 L26,272 L27,273 L29,273 L29,274 L29,275 L30,275 L31,276 L32,276 L33,276 L34,277 L35,278 L36,278 L37,279 L39,279 L41,280 L43,281 L46,282 L49,283 L51,284 L54,285 L57,285 L59,286 L62,286 L65,286 L68,286 L70,286 L74,286 L77,285 L80,285 L84,284 L87,284 L90,283 L93,283 L96,282 L99,282 L102,281 L105,281 L107,279 L111,278 L114,276 L118,274 L121,272 L125,270 L128,268 L133,266 L139,264 L144,261 L149,259 L154,257 L158,256 L163,255 L168,254 L172,253 L176,253 L180,253 L183,254 L186,254 L190,255 L195,256 L200,258 L205,259 L210,261 L215,263 L219,265 L223,266 L228,268 L234,269 L237,271 L241,272 L244,273 L248,273 L253,274 L257,274 L262,274 L267,274 L271,273 L274,271 L278,269 L284,266 L288,264 L293,261 L297,257 L301,254 L306,250 L310,246 L315,242 L320,238 L325,233 L328,228 L332,223 L337,219 L341,215 L344,212 L348,209 L352,206 L356,203 L360,200 L363,198 L366,195 L369,192 L372,190 L376,187 L379,184 L381,183 L384,180 L387,178 L389,175 L392,171 L396,168 L398,166 L401,164 L405,163 L408,161 L412,159 L415,157 L419,156 L423,154 L427,153 L430,152 L433,151 L435,150 L438,150 L441,150 L443,151 L446,151 L448,152 L451,154 L454,155 L457,156 L461,158 L464,159 L467,161 L470,163 L472,164 L475,165 L478,166 L482,168 L486,169 L489,171 L492,171 L496,172 L501,173 L506,173 L510,173 L515,172 L520,171 L526,169 L532,167 L538,166 L544,164 L550,161 L556,159 L562,157 L568,155 L575,154 L582,152 L588,150 L595,150 L602,149 L609,149 L616,150 L623,152 L630,153 L637,154 L644,156 L652,159 L660,163 L667,166 L673,170 L679,173 L685,176 L691,179 L696,182 L703,185 L708,188 L712,191 L718,194 L723,196 L727,199 L732,201 L737,203 L741,205 L745,206 L748,207 L753,207 L757,207 L760,207 L764,206 L767,205 L771,203 L775,200 L780,197 L784,193 L789,189 L794,185 L799,182 L804,179 L809,176 L815,175 L821,173 L826,170 L833,168 L838,167 L845,166 L850,166 L855,165 L861,164 L867,164 L872,164 L877,165 L882,166 L887,167 L891,168 L895,169 L899,170 L903,171 L907,172 L910,173 L913,174 L916,174 L919,174 L923,174 L925,175 L927,175 L930,176 L933,177 L936,178 L939,180 L942,180 L944,181 L947,182 L950,183 L953,184 L956,185 L958,185 L960,185 L961,183 L962,182" fill="none" stroke="red" stroke-width="3"/></svg>