<svg xmlns="http://www.w3.org/2000/svg" version="1.1" xmlns:xlink="http://www.w3.org/1999/xlink" xmlns:svgjs="http://svgjs.dev/svgjs" width="950" height="375" id="chartSvg"><path d="M12,302 L10,303 L9,303 L10,303 L11,303 L11,302 L12,301 L12,300 L12,298 L13,295 L14,293 L14,290 L14,286 L15,283 L15,280 L15,278 L15,276 L15,274 L15,273 L16,272 L16,273 L17,273 L17,275 L18,277 L19,280 L19,283 L21,286 L22,290 L23,294 L25,298 L26,300 L27,302 L27,303 L28,303 L28,301 L28,300 L28,298 L28,296 L27,293 L26,290 L26,286 L24,282 L23,279 L22,276 L22,273 L22,271 L22,270 L23,271 L24,273 L26,276 L27,280 L28,284 L30,288 L31,293 L33,297 L34,299 L34,300 L35,300 L35,299 L35,297 L35,295 L35,292 L35,289 L35,285 L34,281 L34,277 L33,273 L32,271 L32,269 L33,271 L34,272 L34,274 L36,277 L37,280 L38,283 L39,287 L41,291 L41,293 L42,295 L42,297 L43,297 L43,295 L44,293 L44,291 L44,289 L45,286 L45,283 L45,280 L45,276 L45,274 L45,272 L45,271 L46,272 L46,274 L47,277 L48,280 L49,284 L50,289 L51,293 L52,297 L53,299 L54,300 L54,301 L54,300 L55,298 L56,297 L56,295 L56,293 L57,290 L58,288 L58,286 L58,283 L59,281 L59,279 L59,278 L59,276 L60,276 L60,275 L61,276 L61,277 L62,278 L63,279 L63,281 L65,282 L66,283 L66,284 L66,285 L65,285 L64,285 L63,285 L63,284 L64,284 L65,285 L66,285 L66,286 L66,287 L66,289 L66,290 L66,293 L67,295 L67,297 L68,298 L68,299 L68,300 L68,298 L68,297 L68,295 L69,293 L69,291 L69,289 L70,286 L70,284 L70,282 L70,279 L70,276 L70,273 L70,269 L70,265 L71,260 L72,254 L73,249 L74,243 L75,238 L75,234 L75,232 L75,231 L75,232 L75,233 L75,235 L76,238 L76,242 L78,248 L79,254 L80,261 L83,268 L85,274 L87,280 L88,285 L88,290 L88,294 L88,297 L88,299 L89,300 L89,303 L89,305 L89,308 L89,312 L89,315 L89,318 L89,319 L89,320 L89,319 L89,318 L90,317 L90,316 L90,314 L90,312 L91,309 L91,305 L91,301 L91,295 L91,289 L91,283 L91,277 L91,273 L91,271 L91,270 L91,269 L91,268 L91,269 L92,271 L94,274 L95,278 L97,282 L98,286 L99,290 L100,295 L100,298 L100,299 L99,300 L99,299 L99,298 L99,297 L99,294 L98,291 L98,288 L98,285 L97,280 L97,276 L97,272 L97,268 L97,267 L97,266 L98,268 L99,271 L100,274 L102,278 L102,282 L103,286 L104,289 L104,291 L104,292 L104,291 L104,290 L104,288 L104,285 L104,282 L105,279 L105,276 L105,273 L105,270 L105,268 L106,266 L107,267 L107,269 L108,271 L109,274 L110,277 L110,280 L111,283 L111,285 L112,287 L112,288 L112,287 L112,285 L112,283 L113,281 L113,279 L113,276 L114,273 L114,270 L114,268 L115,266 L115,265 L116,265 L116,266 L117,266 L118,268 L119,270 L119,273 L120,276 L120,279 L120,282 L120,284 L120,286 L120,285 L120,284 L120,283 L120,282 L120,281 L121,281 L121,280 L122,280 L122,279 L123,279 L124,278 L124,279 L124,280 L123,281 L122,281 L122,282 L121,283 L120,284 L120,285 L121,284 L121,283 L122,283 L122,282 L123,282 L123,283 L124,283 L124,284 L124,286 L125,287 L125,288 L126,290 L126,291 L126,292 L127,292 L127,293 L127,292 L127,291 L127,290 L127,289 L127,288 L127,287 L128,287 L128,288 L129,288 L129,289 L129,290 L130,290 L131,289 L131,288 L131,287 L131,285 L131,281 L131,277 L131,273 L131,268 L131,263 L132,258 L132,254 L133,249 L134,246 L136,241 L137,237 L137,233 L138,230 L138,227 L138,224 L137,223 L137,222 L137,223 L137,224 L138,227 L139,232 L140,237 L141,243 L143,251 L145,259 L147,268 L150,278 L151,285 L151,292 L151,298 L150,303 L149,308 L149,312 L149,315 L149,314 L149,311 L150,307 L150,303 L151,298 L151,293 L151,288 L152,282 L152,276 L152,271 L152,266 L152,263 L152,261 L152,260 L153,260 L154,261 L155,264 L156,268 L158,273 L159,278 L160,284 L160,288 L160,292 L161,293 L161,292 L161,290 L161,286 L162,283 L162,279 L162,275 L163,270 L163,266 L163,263 L164,261 L165,262 L165,264 L166,267 L166,271 L166,274 L167,277 L167,279 L168,281 L168,282 L168,281 L169,280 L169,278 L170,276 L170,273 L170,270 L171,268 L171,265 L171,263 L171,262 L171,261 L171,262 L171,263 L172,264 L173,266 L173,269 L174,271 L175,274 L175,276 L176,278 L176,279 L176,278 L177,276 L177,274 L178,272 L178,270 L178,268 L178,266 L178,265 L179,263 L179,265 L179,267 L179,270 L180,273 L180,276 L180,278 L180,281 L181,282 L182,283 L182,282 L182,281 L182,280 L182,279 L182,278 L181,278 L181,277 L182,278 L183,277 L183,276 L183,275 L184,275 L184,274 L184,273 L185,273 L185,274 L185,275 L186,275 L186,276 L186,275 L186,274 L187,274 L187,273 L188,273 L188,272 L189,271 L189,270 L190,269 L190,268 L190,267 L191,267 L192,267 L193,268 L195,269 L196,271 L198,273 L198,274 L200,276 L200,277 L201,278 L202,276 L202,275 L202,274 L202,272 L202,271 L202,269 L203,268 L203,267 L204,266 L205,266 L206,266 L207,266 L207,267 L208,268 L209,270 L210,271 L210,272 L210,273 L211,274 L212,273 L213,272 L214,270 L215,268 L215,267 L216,265 L217,264 L217,263 L217,264 L217,265 L217,266 L217,267 L216,268 L215,269 L215,270 L215,271 L215,272 L215,273 L215,274 L215,275 L215,276 L215,278 L216,279 L216,280 L217,280 L218,278 L218,276 L219,274 L219,271 L220,268 L220,264 L220,258 L220,253 L220,247 L220,241 L221,234 L222,228 L224,222 L227,216 L229,210 L231,205 L232,202 L233,199 L234,197 L235,195 L235,197 L234,201 L234,205 L233,211 L232,218 L231,225 L231,235 L230,245 L229,256 L227,267 L225,276 L223,285 L222,292 L220,298 L220,302 L220,305 L220,307 L221,307 L222,305 L223,302 L224,299 L225,296 L226,292 L227,288 L229,283 L230,278 L231,273 L232,266 L234,260 L235,253 L236,247 L237,242 L237,239 L238,238 L238,237 L238,238 L238,239 L238,242 L238,246 L238,251 L238,256 L238,262 L239,268 L239,273 L239,278 L239,281 L239,282 L239,281 L239,280 L240,278 L240,275 L241,272 L241,268 L242,264 L242,260 L242,255 L242,251 L243,248 L243,245 L244,244 L244,242 L245,242 L246,242 L247,243 L248,246 L249,249 L250,254 L250,258 L250,262 L250,266 L250,269 L250,270 L250,269 L250,268 L251,266 L251,263 L251,261 L252,258 L252,255 L252,251 L252,248 L252,246 L253,245 L253,244 L254,245 L254,247 L256,250 L256,254 L257,257 L258,261 L259,265 L259,268 L260,269 L261,271 L262,270 L263,269 L264,267 L264,265 L265,262 L266,259 L266,256 L267,253 L267,251 L268,249 L268,248 L268,249 L268,251 L269,253 L270,255 L271,257 L271,260 L271,262 L271,264 L271,266 L271,264 L271,263 L271,262 L271,261 L271,262 L271,263 L271,264 L271,265 L270,266 L269,266 L269,267 L268,267 L268,268 L267,269 L267,270 L266,270 L267,270 L268,270 L268,269 L269,269 L269,268 L270,268 L271,267 L272,268 L272,269 L273,270 L273,271 L274,272 L275,272 L275,271 L276,270 L277,268 L277,266 L278,263 L278,261 L278,257 L278,252 L278,247 L279,242 L279,236 L280,229 L281,223 L282,217 L283,211 L284,205 L285,200 L286,194 L287,190 L288,187 L288,185 L288,184 L288,183 L288,185 L288,187 L288,191 L288,195 L288,201 L289,207 L290,215 L291,224 L293,236 L293,248 L293,258 L293,268 L292,279 L291,287 L290,294 L290,301 L290,306 L290,310 L290,313 L290,314 L291,314 L291,313 L292,311 L293,308 L293,304 L294,300 L295,295 L295,290 L296,285 L297,279 L297,273 L298,266 L298,258 L298,253 L298,249 L298,245 L298,244 L299,246 L300,249 L302,254 L303,260 L304,266 L305,271 L305,276 L306,281 L306,283 L306,281 L307,278 L307,275 L308,271 L308,267 L308,263 L308,258 L308,254 L308,249 L308,246 L308,244 L308,243 L308,244 L309,244 L309,246 L310,248 L311,252 L312,255 L313,258 L313,262 L314,264 L314,265 L315,266 L315,265 L316,263 L317,261 L317,259 L318,256 L318,254 L318,250 L319,247 L319,245 L319,243 L320,242 L321,243 L322,245 L324,247 L325,249 L325,252 L326,254 L326,255 L327,256 L328,256 L329,255 L330,253 L330,251 L331,250 L331,248 L331,246 L331,244 L331,243 L331,242 L331,243 L331,244 L331,246 L331,247 L332,249 L332,251 L333,254 L334,257 L335,261 L336,264 L337,267 L338,270 L339,271 L340,271 L341,271 L341,270 L341,269 L342,268 L342,266 L342,265 L342,263 L342,262 L342,261 L342,259 L342,258 L342,257 L342,256 L342,255 L342,253 L342,252 L343,251 L343,250 L344,250 L344,251 L344,252 L345,253 L345,254 L346,254 L347,255 L347,254 L348,254 L348,253 L348,252 L348,251 L348,250 L348,251 L348,252 L348,253 L348,252 L348,251 L348,250 L349,250 L349,249 L349,250 L350,251 L350,253 L351,254 L351,255 L351,256 L351,257 L352,257 L352,256 L353,255 L354,254 L354,252 L355,250 L355,249 L356,247 L357,246 L358,244 L359,243 L360,243 L361,244 L361,246 L361,247 L362,249 L363,251 L363,253 L364,254 L364,256 L365,256 L366,255 L366,254 L367,252 L368,251 L368,249 L369,248 L369,246 L370,245 L371,244 L371,243 L371,244 L372,245 L372,247 L373,249 L373,251 L374,253 L375,254 L376,256 L377,256 L378,256 L378,255 L377,255 L377,254 L377,255 L378,255 L379,255 L380,254 L381,253 L381,252 L382,251 L383,250 L383,249 L384,249 L385,249 L386,248 L387,249 L388,251 L388,252 L388,254 L389,255 L390,256 L390,257 L390,258 L391,258 L391,257 L392,256 L392,254 L393,251 L393,249 L394,245 L394,241 L395,236 L395,231 L396,225 L396,220 L396,216 L396,211 L397,207 L397,204 L398,201 L399,200 L399,201 L399,203 L399,207 L399,211 L400,216 L401,223 L402,229 L403,237 L404,245 L405,253 L405,259 L405,264 L404,268 L403,271 L403,272 L403,271 L403,268 L403,264 L404,260 L405,255 L406,249 L406,242 L407,234 L407,226 L407,217 L407,208 L408,200 L408,191 L410,183 L411,176 L413,169 L414,165 L415,161 L416,159 L417,158 L418,159 L419,163 L420,170 L421,178 L423,188 L425,198 L427,210 L428,223 L428,234 L428,244 L427,251 L427,258 L426,263 L425,266 L425,268 L426,268 L426,267 L427,265 L429,261 L430,256 L431,251 L432,245 L433,239 L434,232 L434,224 L435,216 L435,208 L435,200 L436,192 L437,186 L437,182 L437,178 L438,178 L438,179 L439,181 L440,186 L442,192 L443,200 L445,208 L446,217 L447,225 L448,234 L448,240 L448,244 L448,246 L448,248 L449,246 L449,244 L449,242 L449,239 L449,235 L449,232 L449,228 L450,225 L450,222 L451,221 L451,219 L452,219 L453,219 L454,219 L454,220 L455,221 L456,223 L457,225 L458,227 L459,229 L459,230 L460,230 L461,230 L461,229 L462,228 L462,227 L463,225 L464,223 L464,221 L464,219 L464,217 L465,217 L465,216 L465,217 L466,218 L466,219 L467,221 L467,222 L467,224 L468,225 L468,226 L468,227 L469,227 L469,228 L470,227 L470,226 L471,224 L471,223 L471,221 L471,219 L471,218 L472,217 L472,219 L472,220 L472,222 L472,224 L473,227 L474,229 L474,231 L475,232 L476,233 L477,234 L478,234 L479,234 L479,233 L479,232 L479,231 L479,230 L479,229 L479,228 L479,227 L478,227 L478,226 L478,225 L477,225 L477,226 L477,227 L477,228 L477,229 L477,230 L477,232 L478,234 L478,235 L478,236 L478,237 L479,237 L479,236 L478,236 L478,235 L478,234 L478,233 L478,232 L478,231 L478,230 L478,229 L478,228 L478,227 L478,226 L478,225 L478,226 L478,227 L478,228 L478,229 L479,229 L479,230 L479,231 L479,232 L480,232 L481,232 L482,231 L483,229 L483,228 L484,227 L484,226 L484,225 L484,224 L485,224 L484,224 L484,225 L485,226 L485,227 L486,227 L486,228 L486,229 L487,231 L487,232 L488,234 L489,235 L489,236 L490,236 L490,235 L491,234 L491,232 L492,231 L492,229 L493,228 L493,227 L493,226 L494,224 L494,223 L494,224 L495,224 L495,226 L495,227 L495,229 L496,230 L496,232 L496,233 L496,234 L496,233 L496,232 L496,231 L497,230 L498,230 L498,229 L499,229 L500,228 L501,228 L501,227 L502,227 L502,226 L503,225 L503,224 L504,223 L504,222 L505,220 L505,217 L506,214 L506,210 L508,206 L508,203 L509,202 L509,201 L509,202 L509,203 L509,204 L509,206 L509,209 L509,211 L509,212 L510,214 L510,216 L510,217 L511,219 L512,219 L513,217 L515,215 L517,213 L518,211 L519,209 L520,206 L522,204 L523,202 L523,201 L524,201 L525,202 L525,204 L525,207 L525,209 L525,212 L525,214 L525,217 L525,219 L525,222 L524,223 L525,222 L525,220 L526,219 L526,218 L527,217 L528,216 L528,215 L528,214 L529,214 L529,215 L530,217 L530,219 L530,222 L530,224 L530,227 L531,230 L531,233 L532,235 L532,236 L533,237 L533,236 L533,234 L533,233 L533,232 L534,230 L534,228 L534,227 L534,225 L534,223 L534,222 L535,220 L535,219 L535,218 L535,217 L535,218 L535,220 L535,222 L535,224 L535,227 L535,229 L535,231 L536,232 L536,233 L536,234 L537,232 L537,230 L537,229 L537,228 L537,227 L537,226 L537,225 L537,224 L537,223 L538,222 L539,224 L540,227 L541,230 L542,234 L542,237 L543,242 L543,246 L544,249 L544,254 L544,257 L544,261 L544,265 L544,268 L544,270 L544,273 L545,274 L546,275 L547,275 L549,275 L550,275 L551,274 L552,273 L552,272 L553,271 L553,269 L554,267 L554,265 L554,263 L555,261 L555,258 L555,255 L556,251 L556,248 L557,246 L557,245 L557,244 L558,244 L558,245 L558,246 L559,247 L559,249 L559,252 L560,254 L560,257 L560,259 L560,261 L560,262 L560,261 L561,259 L561,258 L562,256 L562,254 L562,252 L562,250 L562,248 L562,246 L563,244 L563,243 L563,244 L564,244 L564,246 L564,247 L565,249 L565,250 L566,251 L566,253 L566,254 L567,254 L568,253 L568,251 L569,249 L569,248 L569,246 L570,244 L570,241 L570,239 L570,237 L570,236 L570,235 L570,236 L569,236 L569,237 L569,238 L569,239 L569,241 L569,242 L570,244 L570,246 L570,247 L570,248 L570,249 L571,248 L571,246 L572,244 L572,243 L573,241 L574,239 L575,236 L576,234 L577,232 L577,229 L578,227 L579,224 L579,221 L580,219 L580,217 L580,216 L580,217 L580,219 L581,221 L581,224 L582,227 L582,229 L582,233 L583,236 L584,238 L584,240 L585,241 L586,241 L586,239 L587,238 L588,236 L589,234 L589,232 L590,230 L591,228 L591,225 L592,222 L593,219 L593,216 L593,215 L593,216 L593,218 L593,221 L593,224 L594,228 L594,231 L595,234 L596,236 L597,238 L598,239 L599,239 L600,238 L601,237 L601,236 L602,234 L603,232 L603,230 L603,228 L604,226 L604,223 L604,220 L604,217 L604,215 L604,214 L604,217 L605,219 L605,222 L606,225 L606,228 L607,230 L608,232 L608,234 L609,235 L609,234 L610,233 L610,232 L611,230 L611,228 L611,225 L612,223 L612,220 L613,218 L613,217 L613,216 L613,217 L614,219 L614,222 L615,224 L615,227 L615,229 L616,231 L616,233 L616,234 L617,234 L618,233 L618,232 L618,231 L618,230 L619,229 L619,228 L619,227 L620,225 L620,223 L621,220 L622,217 L624,212 L626,207 L628,201 L630,195 L633,189 L635,183 L637,176 L639,171 L641,166 L643,161 L645,156 L648,153 L649,150 L651,148 L652,146 L652,148 L652,151 L651,155 L650,159 L650,164 L649,171 L649,178 L648,187 L648,197 L647,208 L645,219 L644,229 L642,239 L640,249 L638,258 L637,267 L635,275 L634,283 L633,290 L632,296 L631,301 L630,305 L630,308 L630,309 L631,309 L632,308 L633,307 L633,305 L635,301 L635,298 L637,294 L638,290 L639,285 L641,280 L643,275 L645,268 L647,260 L649,252 L650,244 L651,236 L652,229 L653,223 L654,219 L655,215 L656,212 L657,212 L658,214 L658,217 L659,222 L660,228 L660,234 L660,240 L660,246 L660,250 L660,254 L660,256 L660,255 L660,253 L660,251 L661,247 L661,244 L662,240 L662,235 L662,229 L662,224 L662,218 L662,213 L662,211 L663,211 L663,212 L663,215 L664,219 L665,224 L666,229 L666,233 L667,236 L668,239 L668,240 L669,241 L669,240 L669,239 L670,238 L670,236 L671,234 L672,232 L672,228 L672,225 L672,222 L672,217 L672,214 L671,212 L671,211 L671,212 L671,214 L671,219 L672,223 L673,227 L674,230 L675,234 L677,237 L678,239 L679,240 L681,240 L681,239 L682,238 L683,236 L684,234 L685,231 L685,227 L686,224 L686,220 L687,216 L687,214 L687,212 L687,213 L687,215 L688,217 L688,220 L688,223 L689,226 L689,228 L689,230 L689,231 L690,232 L690,231 L690,230 L691,229 L691,227 L692,225 L692,222 L692,219 L692,216 L693,213 L693,210 L693,209 L693,208 L694,210 L694,211 L694,214 L695,217 L695,219 L696,222 L696,224 L697,225 L698,226 L699,225 L699,224 L699,223 L699,222 L699,221 L699,220 L700,219 L701,219 L703,219 L705,219 L706,219 L707,220 L708,220 L709,220 L709,219 L709,218 L709,219 L710,220 L711,221 L711,222 L712,222 L712,221 L712,220 L713,218 L713,216 L713,213 L713,210 L713,205 L713,202 L713,198 L713,196 L713,195 L712,195 L713,197 L713,200 L714,202 L715,205 L716,209 L717,212 L718,215 L719,217 L721,218 L721,219 L722,219 L722,218 L723,216 L724,214 L724,212 L725,210 L726,207 L726,205 L726,202 L726,199 L725,196 L725,194 L725,192 L725,193 L726,195 L727,198 L728,202 L729,205 L730,208 L731,210 L732,212 L733,213 L734,213 L735,212 L736,212 L736,210 L737,209 L738,208 L738,207 L738,206 L738,205 L739,205 L740,204 L741,204 L742,203 L743,202 L744,201 L745,200 L746,200 L746,201 L746,202 L746,204 L746,207 L746,208 L746,210 L746,212 L747,212 L748,210 L750,209 L751,207 L753,205 L753,202 L754,200 L755,197 L756,195 L757,193 L757,191 L757,192 L757,193 L757,195 L757,196 L758,197 L758,198 L758,200 L758,201 L758,202 L759,202 L759,203 L760,204 L761,204 L762,203 L762,202 L764,200 L765,199 L766,197 L767,196 L768,195 L770,194 L770,193 L770,194 L770,193 L770,192 L771,191 L771,190 L771,189 L771,188 L772,188 L772,187 L772,188 L772,190 L772,191 L771,192 L771,193 L771,194 L771,195 L772,196 L772,195 L773,195 L774,195 L775,193 L775,191 L776,188 L777,185 L778,180 L778,174 L779,168 L780,161 L781,155 L782,149 L784,143 L785,137 L787,131 L790,126 L792,121 L794,116 L796,111 L797,107 L799,103 L800,101 L800,99 L801,99 L801,98 L801,99 L801,100 L801,101 L801,104 L801,109 L801,114 L800,120 L800,128 L800,137 L799,148 L799,160 L798,172 L797,183 L797,194 L795,204 L794,212 L794,219 L794,224 L794,227 L794,229 L795,229 L797,227 L798,224 L800,220 L801,215 L803,210 L804,205 L806,199 L808,192 L811,185 L812,178 L814,170 L815,163 L816,158 L816,154 L816,152 L817,151 L818,151 L819,153 L819,155 L820,159 L821,164 L821,169 L821,174 L821,178 L821,181 L821,183 L820,183 L820,182 L820,181 L820,179 L821,176 L821,173 L822,170 L823,168 L824,165 L824,162 L825,161 L825,162 L825,164 L826,166 L826,168 L826,170 L826,173 L827,174 L827,175 L828,176 L828,177 L829,177 L831,176 L832,175 L833,174 L834,173 L835,171 L836,170 L836,168 L837,167 L837,165 L837,163 L838,162 L838,163 L838,165 L838,166 L838,168 L838,170 L839,171 L839,173 L840,173 L841,174 L842,174 L843,173 L844,173 L845,171 L846,170 L846,168 L847,166 L847,165 L848,163 L848,162 L848,161 L848,162 L848,163 L848,164 L848,165 L849,167 L850,168 L850,169 L850,170 L851,170 L851,171 L852,170 L852,168 L853,167 L854,165 L855,162 L856,160 L858,158 L858,156 L859,156 L859,155 L859,156 L859,157 L859,158 L859,161 L859,162 L859,165 L859,167 L860,169 L860,170 L860,172 L860,171 L860,170 L860,169 L861,169 L861,168 L861,167 L862,167 L862,166 L862,165 L862,164 L863,163 L863,162 L863,161 L863,160 L864,160 L864,159 L864,158 L865,159 L865,161 L865,162 L865,163 L866,164 L867,165 L867,166 L868,166 L869,166 L870,166 L871,165 L872,164 L873,163 L874,161 L874,159 L875,158 L875,156 L875,153 L876,151 L876,149 L876,148 L877,148 L877,150 L878,151 L879,152 L880,154 L880,155 L881,156 L882,157 L882,158 L883,158 L884,158 L885,158 L885,157 L886,156 L887,156 L887,155 L887,153 L888,153 L889,151 L889,150 L890,149 L890,148 L891,146 L892,145 L892,144 L892,145 L892,146 L893,148 L893,149 L893,151 L894,152 L894,153 L895,153 L895,154 L896,154 L897,153 L897,152 L898,151 L899,150 L899,149 L899,148 L900,148 L900,147 L901,146 L902,146 L902,147 L902,148 L903,148 L903,149 L903,150 L904,150 L905,150 L906,150 L907,149 L907,148 L909,147 L909,146 L910,146 L911,145 L911,144 L912,144 L912,145 L912,146 L912,147 L913,148 L914,149 L914,148 L914,147 L914,146 L914,145 L914,144 L914,142 L914,139 L914,137 L914,134 L914,130 L915,126 L916,122 L917,118 L919,114 L920,110 L921,106 L921,102 L922,97 L922,92 L922,87 L922,81 L921,75 L921,69 L921,62 L921,56 L922,51 L922,45 L923,41 L924,37 L924,34 L924,31 L924,29 L925,28 L925,29 L925,31 L925,34 L925,38 L925,43 L925,50 L926,57 L926,65 L927,75 L927,86 L928,98 L928,110 L927,122 L926,133 L925,146 L924,156 L923,167 L922,178 L921,186 L921,193 L921,198 L922,201 L923,203 L924,204 L925,203 L927,201 L929,198 L932,193 L935,188 L937,182 L939,175 L941,168 L943,161 L944,153 L945,145 L945,140 L945,136 L946,133 L946,131 L946,130 L947,129 L948,129 L948,131 L949,134 L951,138 L951,143 L951,148 L951,153 L951,156 L951,159 L951,160 L951,161 L950,161 L950,160 L950,158 L950,156 L950,153 L950,150 L950,147 L951,144 L951,140 L952,137 L952,136 L953,135 L953,136 L954,137 L954,139 L955,140 L956,142 L956,144 L956,145 L957,146 L958,146 L959,144 L960,142 L961,140 L961,138 L962,137 L963,136 L964,136 L965,138 L965,139 L966,141 L967,142 L968,143 L969,144" fill="none" stroke="red" stroke-width="3"/></svg>