<svg xmlns="http://www.w3.org/2000/svg" xmlns:xlink="http://www.w3.org/1999/xlink" version="1.1" class="marks" width="1010" height="385" viewBox="0 0 1010 385"><rect width="1010" height="385" fill="white"/><g fill="none" stroke-miterlimit="10" transform="translate(5,5)"><g class="mark-group role-frame root" role="graphics-object" aria-roledescription="group mark container"><g transform="translate(0,0)"><path class="background" aria-hidden="true" d="M0.5,0.5h1000v375h-1000Z" stroke="#ddd"/><g><g class="mark-group role-axis" role="graphics-symbol" aria-roledescription="axis" aria-label="X-axis for a linear scale with values from 0 to 500"><g transform="translate(0.5,375.5)"><path class="background" aria-hidden="true" d="M0,0h0v0h0Z" pointer-events="none"/><g><g class="mark-rule role-axis-domain" pointer-events="none"><line transform="translate(0,0)" x2="1000" y2="0" stroke="#888" stroke-width="1" opacity="1"/></g></g><path class="foreground" aria-hidden="true" d="" pointer-events="none" display="none"/></g></g><g class="mark-group role-axis" role="graphics-symbol" aria-roledescription="axis" aria-label="Y-axis for a linear scale with values from −0.1 to 0.7"><g transform="translate(0.5,0.5)"><path class="background" aria-hidden="true" d="M0,0h0v0h0Z" pointer-events="none"/><g><g class="mark-rule role-axis-domain" pointer-events="none"><line transform="translate(0,375)" x2="0" y2="-375" stroke="#888" stroke-width="1" opacity="1"/></g></g><path class="foreground" aria-hidden="true" d="" pointer-events="none" display="none"/></g></g><g class="mark-line role-mark marks" role="graphics-object" aria-roledescription="line mark container"><path aria-label="x: 1; y: 0.634240755044" role="graphics-symbol" aria-roledescription="line mark" d="M2,8.442L4,38.003L6,110.814L8,80.897L10,142.35L12,88.68L14,53.345L16,74.768L18,71.348L20,77.255L22,94.396L24,165.965L26,133.341L28,159.675L30,162.372L32,181.083L34,154.497L36,168.085L38,160.665L40,175.468L42,179.78L44,184.134L46,185.726L48,168.279L50,150.556L52,122.991L54,135.221L56,149.524L58,145.98L60,153.002L62,170.131L64,172.978L66,167.029L68,172.675L70,174.393L72,179.617L74,171.153L76,166.78L78,168.314L80,177.899L82,189.768L84,188.457L86,196.107L88,203.869L90,252.469L92,249.073L94,224.375L96,206.759L98,218.2L100,216.61L102,202.989L104,207.098L106,202.131L108,208.509L110,221.145L112,218.607L114,216.878L116,219.181L118,224.8L120,223.785L122,232.492L124,231.82L126,227.69L128,233.115L130,230.413L132,236.749L134,235.08L136,244.19L138,240.971L140,257.02L142,245.257L144,257.397L146,248.749L148,258.063L150,250.727L152,247.866L154,241.528L156,243.383L158,242.6L160,236.738L162,245.445L164,233.376L166,242.299L168,242.234L170,236.302L172,236.718L174,239.843L176,248.978L178,236.445L180,242.587L182,243.467L184,214.884L186,223.873L188,212.996L190,220.205L192,210.225L194,201.39L196,196.304L198,193.036L200,166.475L202,182.181L204,186.793L206,184.305L208,177.589L210,172.489L212,172.328L214,178.768L216,178.935L218,192.15L220,188.82L222,202.686L224,192.127L226,196.784L228,198.77L230,197.741L232,196.925L234,189.595L236,185.51L238,193.761L240,187.932L242,178.377L244,181.076L246,212.186L248,205.413L250,212.988L252,229.613L254,217.574L256,214.617L258,222.544L260,225.327L262,216.129L264,221.53L266,222.749L268,222.049L270,226.424L272,239.831L274,242.131L276,229.316L278,225.881L280,235.238L282,238.103L284,242.545L286,250.234L288,246.46L290,239.518L292,236.33L294,231.607L296,231.595L298,234.408L300,214.701L302,209.676L304,207.32L306,221.918L308,219.176L310,211.731L312,224.549L314,222.686L316,229.993L318,224.432L320,226.857L322,227.407L324,219.982L326,222.292L328,209.905L330,217.336L332,210.699L334,220.311L336,222.867L338,212.897L340,202.143L342,205.858L344,212.425L346,220.838L348,188.457L350,195.906L352,204.838L354,199.817L356,197.279L358,208.625L360,199.146L362,210.006L364,210.888L366,204.893L368,203.868L370,195.467L372,208.758L374,214.421L376,207.545L378,211.613L380,209.306L382,207.63L384,208.5L386,222.758L388,219.714L390,233.246L392,227.643L394,225.36L396,224.768L398,232.843L400,229.111L402,227.005L404,231.282L406,235.933L408,242.361L410,238.692L412,233.223L414,242.625L416,236.793L418,235.458L420,242.813L422,256.381L424,260.732L426,244.782L428,253.856L430,251.447L432,256.892L434,263.303L436,254.445L438,260.773L440,259.725L442,254.469L444,250.765L446,256.161L448,255.016L450,257.43L452,251.924L454,260.67L456,253.54L458,257.545L460,253.049L462,240.935L464,249.978L466,250.938L468,244.278L470,253.303L472,260.125L474,258.572L476,258.305L478,255.955L480,260.57L482,254.203L484,263.338L486,267.625L488,254.615L490,271.768L492,264.154L494,265.144L496,274.351L498,267.934L500,261.028L502,257.828L504,255.41L506,251.861L508,255.362L510,246.519L512,256.2L514,265.113L516,263.603L518,275.904L520,280.093L522,270.64L524,275.421L526,271.502L528,271.07L530,268.912L532,266.937L534,274.359L536,272.85L538,270.602L540,271.131L542,268.543L544,270.446L546,273.857L548,267.621L550,271.061L552,264.13L554,260.511L556,261.994L558,266.345L560,272.846L562,273.596L564,266.282L566,276.041L568,264.679L570,269.432L572,274.313L574,270.941L576,274.383L578,271.368L580,283.142L582,272.279L584,278.981L586,277.527L588,288.099L590,281.887L592,283.67L594,276.948L596,276.184L598,282.031L600,280.35L602,283.13L604,280.602L606,284.824L608,288.283L610,285.675L612,289.829L614,287.74L616,288.504L618,290.441L620,285.339L622,291.603L624,285.417L626,289.089L628,286.304L630,282.123L632,282.139L634,284.505L636,286.562L638,280.628L640,273.289L642,273.557L644,273.896L646,268.044L648,270.359L650,270.77L652,275.476L654,270.054L656,278.548L658,280.147L660,276.676L662,272.966L664,269.702L666,251.38L668,275.413L670,267.358L672,274.505L674,265.752L676,268.141L678,277.551L680,278.299L682,271.582L684,266.319L686,275.848L688,273.681L690,277.696L692,270.456L694,274.535L696,270.264L698,276.027L700,273.375L702,279.791L704,278.193L706,260.63L708,273.961L710,275.625L712,267.854L714,273.032L716,276.815L718,275.444L720,275.166L722,276.863L724,278.866L726,281.157L728,277.993L730,284.94L732,289.986L734,297.009L736,289.534L738,304.434L740,307.277L742,304.935L744,299.309L746,301.897L748,302.671L750,299.992L752,302.749L754,304.173L756,300.814L758,303.379L760,303.561L762,297.25L764,302.898L766,299.927L768,309.479L770,302.011L772,303.217L774,305.757L776,303.807L778,302.186L780,300.858L782,301.071L784,301.372L786,304.113L788,304.256L790,307.274L792,306.547L794,305.213L796,310.78L798,299.224L800,310.612L802,313.842L804,321.995L806,325.175L808,315.739L810,316.514L812,320.408L814,317.583L816,313.349L818,316.662L820,315.431L822,312.899L824,317.894L826,310.978L828,309.103L830,301.131L832,305.385L834,319.212L836,312.486L838,312.914L840,309.006L842,316.482L844,303.818L846,314.889L848,311.388L850,311.183L852,306.811L854,306.38L856,306.633L858,314.478L860,317.243L862,315.024L864,313.715L866,313.263L868,313.806L870,310.858L872,310.795L874,320.282L876,314.864L878,311.451L880,307.015L882,313.958L884,308.309L886,315.521L888,315.647L890,314.84L892,308.377L894,309.698L896,304.947L898,313.638L900,305.641L902,313.214L904,311.876L906,308.218L908,311.696L910,310.031L912,308.376L914,312.03L916,303.401L918,310.201L920,311.081L922,312.17L924,313.574L926,306.281L928,303.548L930,314.946L932,298.31L934,310.517L936,305.978L938,306.912L940,309.576L942,308.8L944,310.127L946,310.423L948,315.868L950,305.2L952,309.027L954,318.243L956,319.016L958,316.478L960,312.562L962,315.122L964,315.825L966,315.6L968,358.74L970,320.336" stroke="#4c78a8" stroke-width="2"/></g></g><path class="foreground" aria-hidden="true" d="" display="none"/></g></g></g></svg>