<svg xmlns="http://www.w3.org/2000/svg" xmlns:xlink="http://www.w3.org/1999/xlink" version="1.1" class="marks" width="1010" height="385" viewBox="0 0 1010 385"><rect width="1010" height="385" fill="white"/><g fill="none" stroke-miterlimit="10" transform="translate(5,5)"><g class="mark-group role-frame root" role="graphics-object" aria-roledescription="group mark container"><g transform="translate(0,0)"><path class="background" aria-hidden="true" d="M0.5,0.5h1000v375h-1000Z" stroke="#ddd"/><g><g class="mark-group role-axis" role="graphics-symbol" aria-roledescription="axis" aria-label="X-axis for a linear scale with values from 0 to 500"><g transform="translate(0.5,375.5)"><path class="background" aria-hidden="true" d="M0,0h0v0h0Z" pointer-events="none"/><g><g class="mark-rule role-axis-domain" pointer-events="none"><line transform="translate(0,0)" x2="1000" y2="0" stroke="#888" stroke-width="1" opacity="1"/></g></g><path class="foreground" aria-hidden="true" d="" pointer-events="none" display="none"/></g></g><g class="mark-group role-axis" role="graphics-symbol" aria-roledescription="axis" aria-label="Y-axis for a linear scale with values from −0.4 to 0.8"><g transform="translate(0.5,0.5)"><path class="background" aria-hidden="true" d="M0,0h0v0h0Z" pointer-events="none"/><g><g class="mark-rule role-axis-domain" pointer-events="none"><line transform="translate(0,375)" x2="0" y2="-375" stroke="#888" stroke-width="1" opacity="1"/></g></g><path class="foreground" aria-hidden="true" d="" pointer-events="none" display="none"/></g></g><g class="mark-line role-mark marks" role="graphics-object" aria-roledescription="line mark container"><path aria-label="x: 1; y: 0.671543110327" role="graphics-symbol" aria-roledescription="line mark" d="M2,40.143L4,127.008L6,175.714L8,97.171L10,128.494L12,178.292L14,110.273L16,49.446L18,23.615L20,105.984L22,100.253L24,115.691L26,82.128L28,220.218L30,128.175L32,188.296L34,139.27L36,153.757L38,86.801L40,192.087L42,158.231L44,119.538L46,130.672L48,205.713L50,187.215L52,180.833L54,86.376L56,101.863L58,191.699L60,105.337L62,121.13L64,152.504L66,117.343L68,88.523L70,171.054L72,217.444L74,139.142L76,152.666L78,101.394L80,227.784L82,148.976L84,156.819L86,148.595L88,169.266L90,141.853L92,202.797L94,211.259L96,145.215L98,161.7L100,212.769L102,105.391L104,212.041L106,97.081L108,223.998L110,168.91L112,138.145L114,120.385L116,154.321L118,200.655L120,191.354L122,177.089L124,137.306L126,263.95L128,223.693L130,76.796L132,254.23L134,155.396L136,131.954L138,130.022L140,164.808L142,148.876L144,216.075L146,144.302L148,155.061L150,167.309L152,145.112L154,144.186L156,145.113L158,132.967L160,229.776L162,145.461L164,209.838L166,152.338L168,166.361L170,251.846L172,161.817L174,178.864L176,183.592L178,254.791L180,140.745L182,211.325L184,156.747L186,87.085L188,159.688L190,231.506L192,260.146L194,208.753L196,166.336L198,136.996L200,163.251L202,98.986L204,216.431L206,158.12L208,145.689L210,200.476L212,71.602L214,200.73L216,141.334L218,117.32L220,211.865L222,112.282L224,215.888L226,188.985L228,86.938L230,190.329L232,242.905L234,188.742L236,93.749L238,159.4L240,52.546L242,215.758L244,109.717L246,48.912L248,135.482L250,193.365L252,127.093L254,123.023L256,189.196L258,115.232L260,164.837L262,150.588L264,105.858L266,118.72L268,227.94L270,156.02L272,212.955L274,299.087L276,172.998L278,274.454L280,193.447L282,128.69L284,207.575L286,268.633L288,251.575L290,244.707L292,205.76L294,167.893L296,142.68L298,256.661L300,188.058L302,138.395L304,186.537L306,152.668L308,205.804L310,213.053L312,199.077L314,101.432L316,143.964L318,288.463L320,238.314L322,195.785L324,98.808L326,94.593L328,170.956L330,198.377L332,144.384L334,194.764L336,124.835L338,186.585L340,203.193L342,214.192L344,205.316L346,137.886L348,197.581L350,161.764L352,212.528L354,151.533L356,101.323L358,126.442L360,199.534L362,117.796L364,155.23L366,132.335L368,120.024L370,219.19L372,169.781L374,183.75L376,133.605L378,144.145L380,178.669L382,148.855L384,196.643L386,166.596L388,167.34L390,186.773L392,181.893L394,238.576L396,171.875L398,207.213L400,134.182L402,177.961L404,90.956L406,188.622L408,126.843L410,199.472L412,135.127L414,178.387L416,194.287L418,157.513L420,155.909L422,170.976L424,217.823L426,220.078L428,137.039L430,118.181L432,157.718L434,164.295L436,223.124L438,158.211L440,155.275L442,147.651L444,173.791L446,233.711L448,239.829L450,301.866L452,189.821L454,208.674L456,202.937L458,247.701L460,184.084L462,94.495L464,229.581L466,216.448L468,110.546L470,255.103L472,145.025L474,223.408L476,193.634L478,189.307L480,262.665L482,207.914L484,237.484L486,242.143L488,196.769L490,180.796L492,213.889L494,233.382L496,209.076L498,191.79L500,172.7L502,119.087L504,129.669L506,118.324L508,199.198L510,192.552L512,244.114L514,121.269L516,215.756L518,163.12L520,275.333L522,160.575L524,209.764L526,226.744L528,220.11L530,241.874L532,214.708L534,276.166L536,216.795L538,208.77L540,178.791L542,191.981L544,122.01L546,85.747L548,140.578L550,157.697L552,144.761L554,219.937L556,107.068L558,227.94L560,247.657L562,226.31L564,181.62L566,124.199L568,166.049L570,228.918L572,255.54L574,255.36L576,207.099L578,223.33L580,199.574L582,199.825L584,219.046L586,106.355L588,216.152L590,174.209L592,180.857L594,225.32L596,218.398L598,121.524L600,236.384L602,192.943L604,221.755L606,172.604L608,222.111L610,307.674L612,179.101L614,206.786L616,247.396L618,255.454L620,145.36L622,169.908L624,215.027L626,189.899L628,292.123L630,212.716L632,232.804L634,155.38L636,284.945L638,142.117L640,173.668L642,155.173L644,187.281L646,241.186L648,49.304L650,199.126L652,196.76L654,258.552L656,255.055L658,278.457L660,204.991L662,179.635L664,102.354L666,215.536L668,176.113L670,193.39L672,274.738L674,182.416L676,255.6L678,245.255L680,266.626L682,271.07L684,227.691L686,276.556L688,218.943L690,229.271L692,163.337L694,140.483L696,144.516L698,248.013L700,221.092L702,221.21L704,232.059L706,189.811L708,222.909L710,218.479L712,175.151L714,288.774L716,177.663L718,197.08L720,185.958L722,182.535L724,245.449L726,256.51L728,122.653L730,225.855L732,203.391L734,185.778L736,287.808L738,233.62L740,324.434L742,204.608L744,215.686L746,198.723L748,312.764L750,220.874L752,206.533L754,249.068L756,145.904L758,279.947L760,119.671L762,168.638L764,266.523L766,189.564L768,278.45L770,214.626L772,184.309L774,298.326L776,161.181L778,182.931L780,257.204L782,282.234L784,251.865L786,177.259L788,210.185L790,222.62L792,265.153L794,173.6L796,165.635L798,177.096L800,249.654L802,169.823L804,326.848L806,173.698L808,273.696L810,149.104L812,178.653L814,249.988L816,202.658L818,291.709L820,154.87L822,199.496L824,112.836L826,261.357L828,217.733L830,159.781L832,245.454L834,247.315L836,214.226L838,208.502L840,220.556L842,249.019L844,326.276L846,231.92L848,223.238L850,153.671L852,362.403L854,175.013L856,237.62L858,248.744L860,258.808L862,286.112L864,245.94L866,142.929L868,274.99L870,294.31L872,266.741L874,342.904L876,212.347L878,243.769L880,202.642L882,266.284L884,156.435L886,197.929L888,198.512L890,275.767L892,199.684L894,251.806L896,210.142L898,248.869L900,180.217L902,186.26L904,265.184L906,188.344L908,133.495L910,232.408L912,156.672L914,258.902L916,253.427L918,200.577L920,177.321L922,198.475L924,150.493L926,253.133L928,192.857L930,165.106L932,142.034L934,189.417L936,197.145L938,290.436L940,198.644L942,211.592L944,230.48L946,235.304L948,296.467L950,282.772L952,212.579L954,221.54L956,258.998L958,273.511L960,199.31L962,254.614L964,276.85L966,222.24L968,289.292L970,232.374" stroke="#4c78a8" stroke-width="2"/></g></g><path class="foreground" aria-hidden="true" d="" display="none"/></g></g></g></svg>