<svg xmlns="http://www.w3.org/2000/svg" xmlns:xlink="http://www.w3.org/1999/xlink" version="1.1" class="marks" width="1012" height="385" viewBox="0 0 1012 385"><rect width="1012" height="385" fill="white"/><g fill="none" stroke-miterlimit="10" transform="translate(7,5)"><g class="mark-group role-frame root" role="graphics-object" aria-roledescription="group mark container"><g transform="translate(0,0)"><path class="background" aria-hidden="true" d="M0.5,0.5h1000v375h-1000Z" stroke="#ddd"/><g><g class="mark-group role-axis" role="graphics-symbol" aria-roledescription="axis" aria-label="X-axis for a linear scale with values from 0 to 1,200"><g transform="translate(0.5,375.5)"><path class="background" aria-hidden="true" d="M0,0h0v0h0Z" pointer-events="none"/><g><g class="mark-rule role-axis-domain" pointer-events="none"><line transform="translate(0,0)" x2="1000" y2="0" stroke="#888" stroke-width="1" opacity="1"/></g></g><path class="foreground" aria-hidden="true" d="" pointer-events="none" display="none"/></g></g><g class="mark-group role-axis" role="graphics-symbol" aria-roledescription="axis" aria-label="Y-axis for a linear scale with values from −300,000 to 500,000"><g transform="translate(0.5,0.5)"><path class="background" aria-hidden="true" d="M0,0h0v0h0Z" pointer-events="none"/><g><g class="mark-rule role-axis-domain" pointer-events="none"><line transform="translate(0,375)" x2="0" y2="-375" stroke="#888" stroke-width="1" opacity="1"/></g></g><path class="foreground" aria-hidden="true" d="" pointer-events="none" display="none"/></g></g><g class="mark-line role-mark marks" role="graphics-object" aria-roledescription="line mark container"><path aria-label="x: 1; y: 104135.453295" role="graphics-symbol" aria-roledescription="line mark" d="M0.833,185.562L1.667,248.807L2.5,234.281L3.333,241.083L4.167,242.506L5,254.245L5.833,207.754L6.667,176.529L7.5,234.033L8.333,278.115L9.167,177.962L10,209.904L10.833,193.674L11.667,208.393L12.5,200.224L13.333,189.891L14.167,278.675L15,166.486L15.833,270.53L16.667,215.955L17.5,239.147L18.333,274.009L19.167,291.08L20,254.82L20.833,216.23L21.667,161.26L22.5,276.472L23.333,197.575L24.167,235.513L25,160.505L25.833,225.146L26.667,249.449L27.5,237.247L28.333,191.907L29.167,255.469L30,247.129L30.833,248.589L31.667,170.069L32.5,260.674L33.333,248.539L34.167,169.72L35,189.43L35.833,250.226L36.667,198.227L37.5,226.742L38.333,206.738L39.167,224.74L40,255.866L40.833,268.892L41.667,233.698L42.5,261.607L43.333,260.928L44.167,280.515L45,211.267L45.833,298.942L46.667,274.691L47.5,268.293L48.333,175.218L49.167,173.14L50,191.172L50.833,154.041L51.667,251.926L52.5,171.952L53.333,252.619L54.167,306.005L55,229.118L55.833,246.427L56.667,291.867L57.5,264.143L58.333,268.537L59.167,284.603L60,211.405L60.833,276.485L61.667,130.354L62.5,196.248L63.333,275.357L64.167,177.623L65,284.487L65.833,217.976L66.667,271.33L67.5,220.042L68.333,227.437L69.167,247.06L70,265.286L70.833,280.982L71.667,241.947L72.5,245.028L73.333,308.96L74.167,251.199L75,220.131L75.833,134.754L76.667,238.904L77.5,191.001L78.333,298.007L79.167,247.853L80,292.341L80.833,241.483L81.667,281.232L82.5,275.79L83.333,157.215L84.167,274.787L85,194.35L85.833,261.49L86.667,213.781L87.5,230.476L88.333,262.382L89.167,235.994L90,287.627L90.833,209.949L91.667,262.427L92.5,188.106L93.333,218.46L94.167,206.261L95,215.442L95.833,237.281L96.667,212.506L97.5,281.337L98.333,202.271L99.167,243.661L100,177.204L100.833,242.362L101.667,203.269L102.5,246.64L103.333,222.707L104.167,269.858L105,250.488L105.833,236.393L106.667,274.414L107.5,160.9L108.333,204.922L109.167,236.227L110,242.762L110.833,227.112L111.667,260.863L112.5,279.298L113.333,277.8L114.167,240.172L115,242.108L115.833,232.92L116.667,285.024L117.5,211.526L118.333,286.582L119.167,152.249L120,177.284L120.833,292.117L121.667,301.705L122.5,172.591L123.333,237.701L124.167,202.025L125,262.401L125.833,234.431L126.667,220.566L127.5,282.489L128.333,180.907L129.167,210.826L130,270.48L130.833,215.068L131.667,264.364L132.5,219.044L133.333,281.85L134.167,253.031L135,294.48L135.833,223.086L136.667,239.787L137.5,166.715L138.333,167.289L139.167,221.613L140,247.262L140.833,249.542L141.667,323.391L142.5,248.634L143.333,162.634L144.167,246.154L145,213.923L145.833,196.953L146.667,262.271L147.5,188.443L148.333,203.553L149.167,224.311L150,307.276L150.833,259.862L151.667,268.893L152.5,160.278L153.333,161.816L154.167,227.442L155,196.025L155.833,295.538L156.667,235.353L157.5,229.481L158.333,223.103L159.167,206.088L160,253.192L160.833,322.949L161.667,260.452L162.5,321.555L163.333,206.597L164.167,226.556L165,194.697L165.833,189.878L166.667,215.285L167.5,179.532L168.333,211.502L169.167,204.712L170,211.849L170.833,196.16L171.667,222.856L172.5,262.214L173.333,211.699L174.167,288.004L175,206.796L175.833,216.311L176.667,173.686L177.5,171.086L178.333,187.187L179.167,249.319L180,270.518L180.833,264.224L181.667,232.021L182.5,255.82L183.333,297.993L184.167,261.071L185,230.019L185.833,250.746L186.667,242.438L187.5,239.693L188.333,222.859L189.167,203.081L190,217.094L190.833,254.466L191.667,238.323L192.5,229.725L193.333,241.805L194.167,224.413L195,238.787L195.833,224.854L196.667,245.829L197.5,256.649L198.333,267.057L199.167,202.293L200,234.65L200.833,262.406L201.667,230.195L202.5,214.133L203.333,202.652L204.167,191.14L205,228.868L205.833,217.79L206.667,253.421L207.5,289.828L208.333,233.866L209.167,253.796L210,250.255L210.833,279.815L211.667,249.575L212.5,262.638L213.333,184.872L214.167,179.587L215,190.691L215.833,218.748L216.667,251.129L217.5,256.66L218.333,295.377L219.167,186.615L220,167.963L220.833,222.857L221.667,246.205L222.5,303.712L223.333,292.092L224.167,186.684L225,233.246L225.833,261.51L226.667,276.036L227.5,209.842L228.333,193.175L229.167,183.486L230,312.017L230.833,231.906L231.667,235.334L232.5,241.061L233.333,321.515L234.167,253.221L235,182.267L235.833,164.875L236.667,262.059L237.5,266.509L238.333,283.841L239.167,308.844L240,296.998L240.833,231.552L241.667,239.617L242.5,275.758L243.333,305.873L244.167,250.543L245,263.41L245.833,183.038L246.667,198.265L247.5,242.685L248.333,255.079L249.167,198.448L250,264.363L250.833,145.407L251.667,328.312L252.5,246.031L253.333,228.622L254.167,260.606L255,257.925L255.833,191.949L256.667,280.441L257.5,236.036L258.333,231.451L259.167,240.141L260,172.331L260.833,226.234L261.667,186.878L262.5,212.66L263.333,245.862L264.167,276.386L265,253.459L265.833,233.347L266.667,232.121L267.5,278.627L268.333,187.829L269.167,209.977L270,270.973L270.833,300.594L271.667,203.548L272.5,244.74L273.333,234.892L274.167,209.581L275,280.789L275.833,255.525L276.667,213.67L277.5,254.075L278.333,245.345L279.167,196.713L280,203.253L280.833,250.839L281.667,171.117L282.5,188.895L283.333,235.575L284.167,275.353L285,281.305L285.833,193.88L286.667,238.943L287.5,329.92L288.333,270.143L289.167,202.924L290,153.468L290.833,265.402L291.667,231.788L292.5,261.44L293.333,233.886L294.167,249.836L295,231.766L295.833,243.547L296.667,249.213L297.5,215.011L298.333,233.208L299.167,255.142L300,225.618L300.833,204.054L301.667,179.681L302.5,226.997L303.333,232.607L304.167,266.329L305,240.883L305.833,181.432L306.667,240.192L307.5,298.909L308.333,250.6L309.167,239.064L310,248.526L310.833,270.088L311.667,180.764L312.5,172.78L313.333,259.813L314.167,225.927L315,292.937L315.833,257.391L316.667,222.853L317.5,179.384L318.333,231.622L319.167,284.693L320,227.128L320.833,242.035L321.667,265.998L322.5,218.552L323.333,218.375L324.167,191.732L325,230.098L325.833,283.82L326.667,246.325L327.5,225.237L328.333,241.003L329.167,266.447L330,303.263L330.833,167.329L331.667,239.278L332.5,277.037L333.333,212.709L334.167,287.485L335,258.712L335.833,266.807L336.667,255.54L337.5,224.589L338.333,219.342L339.167,212.884L340,289.692L340.833,268.818L341.667,265.294L342.5,292.287L343.333,199.219L344.167,210.82L345,238.584L345.833,199.679L346.667,260.799L347.5,232.508L348.333,158.749L349.167,291.3L350,254.232L350.833,218.846L351.667,197.137L352.5,233.766L353.333,205.271L354.167,253.587L355,220.405L355.833,141.208L356.667,209.492L357.5,277.65L358.333,250.557L359.167,261.703L360,249.969L360.833,229.481L361.667,273.067L362.5,297.967L363.333,241.298L364.167,219.615L365,222.557L365.833,243.309L366.667,233.057L367.5,242.061L368.333,207.766L369.167,206.453L370,307.349L370.833,290.981L371.667,257.507L372.5,178.062L373.333,231.25L374.167,159.415L375,213.812L375.833,214.693L376.667,225.587L377.5,241.93L378.333,218.301L379.167,227.233L380,260.401L380.833,281.527L381.667,149.911L382.5,300.187L383.333,184.285L384.167,236.529L385,210.29L385.833,258.373L386.667,302.555L387.5,270.973L388.333,219.65L389.167,272.405L390,200.021L390.833,185.644L391.667,321.769L392.5,273.065L393.333,199.349L394.167,233.212L395,193.265L395.833,179.311L396.667,223.39L397.5,269.247L398.333,158.79L399.167,204.31L400,197.195L400.833,259.407L401.667,201.952L402.5,238.055L403.333,223.695L404.167,276.75L405,261.49L405.833,247.279L406.667,303.965L407.5,206.937L408.333,269.422L409.167,238.698L410,235.128L410.833,210.336L411.667,222.332L412.5,246.118L413.333,285.662L414.167,239.187L415,297.233L415.833,211.092L416.667,200.22L417.5,221.688L418.333,220.88L419.167,258.972L420,329.613L420.833,252.479L421.667,286.06L422.5,172.458L423.333,236.623L424.167,132.107L425,265.078L425.833,233.139L426.667,245.7L427.5,265.785L428.333,207.51L429.167,260.221L430,194.393L430.833,240.73L431.667,258.522L432.5,243.685L433.333,274.139L434.167,276.22L435,247.321L435.833,223.056L436.667,204.569L437.5,224.36L438.333,234.576L439.167,249.83L440,123.785L440.833,277.477L441.667,228.683L442.5,204.195L443.333,195L444.167,246.818L445,208.777L445.833,239.061L446.667,273.353L447.5,175.139L448.333,249.166L449.167,262.57L450,258.209L450.833,233.035L451.667,213.067L452.5,249.51L453.333,212.868L454.167,283.07L455,210.344L455.833,300.79L456.667,239.512L457.5,244.993L458.333,242.041L459.167,258.271L460,193.765L460.833,237.522L461.667,210.664L462.5,215.414L463.333,201.875L464.167,251.216L465,246.691L465.833,213.596L466.667,272.908L467.5,181.48L468.333,244.105L469.167,181.521L470,269.684L470.833,245.563L471.667,242.218L472.5,265.168L473.333,189.233L474.167,291.03L475,219.021L475.833,206.249L476.667,232.63L477.5,139.39L478.333,204.149L479.167,248.473L480,211.598L480.833,239.837L481.667,256.211L482.5,269.269L483.333,276.955L484.167,140.599L485,193.823L485.833,238.815L486.667,203.163L487.5,223.867L488.333,221.008L489.167,190.518L490,224.67L490.833,193.444L491.667,243.789L492.5,173.992L493.333,293.454L494.167,164.433L495,209.853L495.833,187.243L496.667,202.314L497.5,225.284L498.333,177.468L499.167,220.256L500,226.914L500.833,210.611L501.667,177.924L502.5,245.332L503.333,243.374L504.167,183.086L505,242.798L505.833,278.478L506.667,188.539L507.5,235.948L508.333,192.587L509.167,200.039L510,204.16L510.833,185.908L511.667,281.255L512.5,235.44L513.333,184.856L514.167,318.606L515,280.82L515.833,230.488L516.667,300.42L517.5,207.653L518.333,250.255L519.167,269.332L520,237.443L520.833,240.932L521.667,250.866L522.5,269.165L523.333,241.126L524.167,246.47L525,167.275L525.833,230.849L526.667,180.395L527.5,236.376L528.333,243.826L529.167,187.098L530,197.962L530.833,231.569L531.667,199.68L532.5,203.786L533.333,253.487L534.167,217.126L535,271.915L535.833,214.768L536.667,195.172L537.5,226.858L538.333,271.98L539.167,203.939L540,286.826L540.833,166.453L541.667,163.963L542.5,194.778L543.333,242.849L544.167,272.902L545,208.131L545.833,226.438L546.667,225.133L547.5,143.544L548.333,226.458L549.167,218.804L550,224.561L550.833,191.234L551.667,246.787L552.5,202.344L553.333,232.09L554.167,168.537L555,148.142L555.833,186.782L556.667,214.783L557.5,174.576L558.333,146.406L559.167,166.162L560,225.642L560.833,274.537L561.667,263.588L562.5,232.989L563.333,253.103L564.167,193.363L565,236.833L565.833,211.837L566.667,267.783L567.5,155.921L568.333,202.665L569.167,243.045L570,198.021L570.833,293.413L571.667,203.367L572.5,277.971L573.333,189.563L574.167,205.053L575,227.437L575.833,187.116L576.667,214.967L577.5,223.771L578.333,176.534L579.167,219.874L580,258.487L580.833,216.633L581.667,172.317L582.5,205.999L583.333,215.411L584.167,186.697L585,238.19L585.833,262.567L586.667,209.088L587.5,217.56L588.333,276.29L589.167,214.239L590,240.099L590.833,198.253L591.667,230.385L592.5,233.329L593.333,198.029L594.167,238.034L595,232.493L595.833,240.516L596.667,180.348L597.5,210.006L598.333,275.354L599.167,187.575L600,233.097L600.833,181.182L601.667,291.609L602.5,294.314L603.333,143.158L604.167,264.433L605,263.373L605.833,211.408L606.667,184.356L607.5,196.718L608.333,218.318L609.167,170.797L610,207.674L610.833,249.931L611.667,215.704L612.5,209.265L613.333,189.166L614.167,235.776L615,191.575L615.833,176.795L616.667,226.691L617.5,212.87L618.333,216.278L619.167,260.193L620,220.617L620.833,210.621L621.667,203.095L622.5,235.458L623.333,284.862L624.167,215.273L625,193.459L625.833,225.548L626.667,198.03L627.5,255.7L628.333,184.672L629.167,163.955L630,145.24L630.833,206.233L631.667,234.047L632.5,234.021L633.333,221.945L634.167,255.989L635,205.902L635.833,218.567L636.667,173.385L637.5,149.492L638.333,114.756L639.167,169.83L640,236.47L640.833,242.552L641.667,163.395L642.5,245.41L643.333,170.401L644.167,228.214L645,198.583L645.833,237.691L646.667,200.662L647.5,233.752L648.333,238.115L649.167,208.12L650,225.883L650.833,191.682L651.667,241.619L652.5,201.82L653.333,157.339L654.167,223.072L655,239.894L655.833,213.296L656.667,170.988L657.5,157.788L658.333,227.685L659.167,188.546L660,226.055L660.833,245.01L661.667,235.649L662.5,223.222L663.333,197.629L664.167,145.023L665,258.958L665.833,129.372L666.667,253.281L667.5,206.745L668.333,223.592L669.167,138.043L670,265.531L670.833,277.392L671.667,223.187L672.5,237.692L673.333,201.34L674.167,255.63L675,159.398L675.833,216.043L676.667,220.68L677.5,138.958L678.333,235.275L679.167,102.506L680,176.751L680.833,202.153L681.667,255.87L682.5,209.12L683.333,208.796L684.167,218.362L685,276.406L685.833,124.739L686.667,187.931L687.5,178.767L688.333,216.66L689.167,222.689L690,232.424L690.833,198.18L691.667,209.583L692.5,164.235L693.333,211.022L694.167,226.434L695,186.586L695.833,239.418L696.667,198.782L697.5,158.167L698.333,223.798L699.167,199.554L700,280.31L700.833,242.791L701.667,197.285L702.5,254.277L703.333,223.162L704.167,255.322L705,234.496L705.833,179.066L706.667,176.468L707.5,234.443L708.333,185.867L709.167,185.436L710,133.451L710.833,164.265L711.667,199.997L712.5,194.53L713.333,174.745L714.167,204.883L715,311.759L715.833,254.731L716.667,170.121L717.5,158.231L718.333,177.835L719.167,197.717L720,169.725L720.833,206.019L721.667,168.307L722.5,201.131L723.333,175.114L724.167,144.126L725,207.618L725.833,136.603L726.667,152.248L727.5,138.528L728.333,155.961L729.167,178.792L730,176.793L730.833,97.179L731.667,259.914L732.5,194.886L733.333,187.155L734.167,183.375L735,187.633L735.833,170.134L736.667,161.938L737.5,178.421L738.333,205.457L739.167,172.267L740,167.74L740.833,188.201L741.667,218.82L742.5,227.071L743.333,226.926L744.167,181.12L745,237.654L745.833,226.058L746.667,128.79L747.5,117.563L748.333,106.74L749.167,205.09L750,137.713L750.833,134.627L751.667,192.727L752.5,195.63L753.333,228.958L754.167,216.347L755,201.048L755.833,221.387L756.667,126.777L757.5,73.946L758.333,144.415L759.167,193.33L760,163.757L760.833,168.075L761.667,183.102L762.5,160.276L763.333,181.72L764.167,234.528L765,157.701L765.833,198.552L766.667,176.805L767.5,169.02L768.333,123.506L769.167,165.45L770,135.974L770.833,224.238L771.667,155.256L772.5,218.71L773.333,147.115L774.167,204.158L775,234.386L775.833,150.635L776.667,214.437L777.5,217.804L778.333,137.779L779.167,101.567L780,224.424L780.833,223.432L781.667,172.457L782.5,231.154L783.333,206.157L784.167,178.829L785,174.322L785.833,239.236L786.667,173.131L787.5,64.202L788.333,177.95L789.167,149.383L790,222.484L790.833,128.933L791.667,181.426L792.5,248.372L793.333,192.659L794.167,146.718L795,130.292L795.833,186.168L796.667,181.799L797.5,84.186L798.333,143.087L799.167,78.552L800,202.041L800.833,166.881L801.667,172.755L802.5,159.579L803.333,195.714L804.167,156.488L805,146.104L805.833,167.64L806.667,118.755L807.5,106.084L808.333,127.194L809.167,154.97L810,147.1L810.833,148.419L811.667,197.131L812.5,175.188L813.333,208.959L814.167,132.37L815,140.612L815.833,179.828L816.667,120.207L817.5,135.42L818.333,81.867L819.167,158.94L820,165.23L820.833,166.512L821.667,144.828L822.5,169.293L823.333,243.44L824.167,205.104L825,135.992L825.833,83.926L826.667,147.112L827.5,71.306L828.333,113.651L829.167,75.511L830,170.349L830.833,163.763L831.667,196.566L832.5,169.057L833.333,197.169L834.167,189.799L835,169.194L835.833,86.134L836.667,147.006L837.5,100.623L838.333,114.605L839.167,89.385L840,112.316L840.833,130.921L841.667,174.476L842.5,120.761L843.333,116.518L844.167,167.159L845,125.54L845.833,164.527L846.667,151.019L847.5,39.29L848.333,70.194L849.167,121.132L850,94.996L850.833,136.384L851.667,197.871L852.5,161.018L853.333,172.213L854.167,154.606L855,141.477L855.833,168.65L856.667,153.299L857.5,29.944L858.333,115.069L859.167,117.452L860,196.785L860.833,110.693L861.667,204.772L862.5,186.123L863.333,142.917L864.167,138.215L865,130.27L865.833,164.949L866.667,145.426L867.5,77.628L868.333,109.738L869.167,81.354L870,147.529L870.833,71.556L871.667,178.219L872.5,164.084L873.333,123.085L874.167,163.041L875,143.005L875.833,134.991L876.667,112.83L877.5,52.294L878.333,159.404L879.167,66.283L880,185.379L880.833,136.071L881.667,185.554L882.5,163.312L883.333,92.749L884.167,120.977L885,134.531L885.833,122.922L886.667,132.858L887.5,79.911L888.333,157.895L889.167,92.225L890,138.997L890.833,173.833L891.667,123.543L892.5,149.636L893.333,165.562L894.167,161.201L895,200.412L895.833,186.806L896.667,100.562L897.5,29.228L898.333,119.92L899.167,165.548L900,161.27L900.833,126.269L901.667,214.986L902.5,159.549L903.333,141.674L904.167,191.402L905,86.672L905.833,187.486L906.667,124.627L907.5,67.016L908.333,109.275L909.167,128.884L910,130.064L910.833,178.302L911.667,146.578L912.5,143.283L913.333,146.25L914.167,99.558L915,156.433L915.833,196.697L916.667,125.366L917.5,143.377L918.333,86.088L919.167,31.926L920,105.617L920.833,151.542L921.667,193.304L922.5,174.465L923.333,124.63L924.167,149.898L925,138.904L925.833,136.243L926.667,97.157L927.5,142.191L928.333,147.608L929.167,104.051L930,127.072L930.833,176.478L931.667,149.274L932.5,103.436L933.333,137.159L934.167,136.514L935,186.179L935.833,135.099L936.667,92.711L937.5,94.939L938.333,129.534L939.167,57.367L940,127.429L940.833,163.165L941.667,179.876L942.5,181.103L943.333,179.717L944.167,78.813L945,162.41L945.833,149.728L946.667,117.266L947.5,2.048L948.333,73.171L949.167,103.034L950,48.102L950.833,171.686L951.667,227.58L952.5,131.82L953.333,74.845L954.167,116.622L955,170.317L955.833,98.733L956.667,86.793L957.5,13.253L958.333,52.168L959.167,32.495L960,86.366L960.833,63.673L961.667,158.212L962.5,84.27L963.333,138.541L964.167,180.498L965,70.683L965.833,131.181L966.667,72.435L967.5,16.071L968.333,19.184L969.167,21.873L970,14.249L970.833,114.318" stroke="#4c78a8" stroke-width="2"/></g></g><path class="foreground" aria-hidden="true" d="" display="none"/></g></g></g></svg>