<svg xmlns="http://www.w3.org/2000/svg" xmlns:xlink="http://www.w3.org/1999/xlink" version="1.1" class="marks" width="1012" height="385" viewBox="0 0 1012 385"><rect width="1012" height="385" fill="white"/><g fill="none" stroke-miterlimit="10" transform="translate(7,5)"><g class="mark-group role-frame root" role="graphics-object" aria-roledescription="group mark container"><g transform="translate(0,0)"><path class="background" aria-hidden="true" d="M0.5,0.5h1000v375h-1000Z" stroke="#ddd"/><g><g class="mark-group role-axis" role="graphics-symbol" aria-roledescription="axis" aria-label="X-axis for a linear scale with values from 0 to 1,200"><g transform="translate(0.5,375.5)"><path class="background" aria-hidden="true" d="M0,0h0v0h0Z" pointer-events="none"/><g><g class="mark-rule role-axis-domain" pointer-events="none"><line transform="translate(0,0)" x2="1000" y2="0" stroke="#888" stroke-width="1" opacity="1"/></g></g><path class="foreground" aria-hidden="true" d="" pointer-events="none" display="none"/></g></g><g class="mark-group role-axis" role="graphics-symbol" aria-roledescription="axis" aria-label="Y-axis for a linear scale with values from −50,000 to 550,000"><g transform="translate(0.5,0.5)"><path class="background" aria-hidden="true" d="M0,0h0v0h0Z" pointer-events="none"/><g><g class="mark-rule role-axis-domain" pointer-events="none"><line transform="translate(0,375)" x2="0" y2="-375" stroke="#888" stroke-width="1" opacity="1"/></g></g><path class="foreground" aria-hidden="true" d="" pointer-events="none" display="none"/></g></g><g class="mark-line role-mark marks" role="graphics-object" aria-roledescription="line mark container"><path aria-label="x: 1; y: 4759.55529416" role="graphics-symbol" aria-roledescription="line mark" d="M0.833,340.775L1.667,339.993L2.5,345.018L3.333,345.31L4.167,343.368L5,345.454L5.833,342.251L6.667,346.465L7.5,337.222L8.333,340.256L9.167,340.857L10,342.334L10.833,341.946L11.667,342.224L12.5,344.397L13.333,345.42L14.167,343.771L15,345.37L15.833,339.979L16.667,340.705L17.5,343.53L18.333,340.196L19.167,345.731L20,342.964L20.833,346.585L21.667,344.324L22.5,344.633L23.333,342.552L24.167,343.876L25,345.371L25.833,344.127L26.667,341.218L27.5,342.47L28.333,344.764L29.167,344.382L30,344.449L30.833,339.807L31.667,344.606L32.5,344.128L33.333,341.156L34.167,345.215L35,342.176L35.833,340.395L36.667,343.277L37.5,343.703L38.333,344.237L39.167,343.743L40,345.405L40.833,341.105L41.667,345.792L42.5,342.531L43.333,345.771L44.167,343.546L45,342.991L45.833,347.208L46.667,338.155L47.5,344.59L48.333,340.163L49.167,339.257L50,340.372L50.833,340.067L51.667,344.784L52.5,341.971L53.333,348.323L54.167,340.092L55,345.725L55.833,344.702L56.667,343.333L57.5,341.2L58.333,342.069L59.167,344.724L60,338.97L60.833,343.031L61.667,345.899L62.5,341.571L63.333,347.291L64.167,344.814L65,340.89L65.833,343.406L66.667,340.857L67.5,339.386L68.333,337.827L69.167,347.266L70,338.827L70.833,348.318L71.667,345.675L72.5,342.537L73.333,347.058L74.167,343.948L75,344.686L75.833,344.05L76.667,343.002L77.5,344.117L78.333,345.894L79.167,345.842L80,345.41L80.833,343.403L81.667,343.342L82.5,340.115L83.333,343.333L84.167,345.401L85,339.946L85.833,346.311L86.667,347.034L87.5,341.49L88.333,340.13L89.167,345.373L90,342.402L90.833,341.793L91.667,343.768L92.5,336.979L93.333,337.916L94.167,345.998L95,346.123L95.833,340.375L96.667,343.071L97.5,341.015L98.333,344.661L99.167,342.026L100,346.394L100.833,342.509L101.667,341.83L102.5,341.976L103.333,340.629L104.167,341.026L105,339.935L105.833,340.911L106.667,347.074L107.5,342.68L108.333,343.371L109.167,348.859L110,341.045L110.833,343.707L111.667,344.878L112.5,344.806L113.333,340.272L114.167,346.57L115,341.881L115.833,339.676L116.667,343.486L117.5,343.884L118.333,340.392L119.167,346.181L120,344.301L120.833,342.504L121.667,347.32L122.5,343.518L123.333,344.479L124.167,345.942L125,341.615L125.833,343.441L126.667,347.41L127.5,339.953L128.333,343.352L129.167,342.712L130,343.328L130.833,344.65L131.667,338.777L132.5,345.034L133.333,347.112L134.167,342.732L135,341.935L135.833,344.166L136.667,340.052L137.5,341.641L138.333,342.733L139.167,344.513L140,342.884L140.833,339.445L141.667,344.452L142.5,341.127L143.333,340.138L144.167,344.272L145,342.433L145.833,345.601L146.667,341.839L147.5,344.918L148.333,343.574L149.167,343.251L150,345.138L150.833,344.301L151.667,341.615L152.5,344.008L153.333,341.337L154.167,345.848L155,345.067L155.833,342.415L156.667,345.874L157.5,343.732L158.333,342.709L159.167,341.054L160,342.951L160.833,344.37L161.667,341.526L162.5,345.225L163.333,340.664L164.167,340.053L165,345.561L165.833,341.516L166.667,342.931L167.5,342.78L168.333,345.419L169.167,344.264L170,344.509L170.833,344.507L171.667,346.644L172.5,345.185L173.333,347.048L174.167,342.332L175,341.594L175.833,343.87L176.667,343.933L177.5,339.882L178.333,343.456L179.167,337.206L180,335.43L180.833,342.117L181.667,343.103L182.5,345.112L183.333,347.855L184.167,344.023L185,344.997L185.833,342.314L186.667,345.607L187.5,340.489L188.333,339.997L189.167,338.796L190,343.446L190.833,342.238L191.667,339.174L192.5,340.822L193.333,342.855L194.167,342.85L195,342.259L195.833,342.037L196.667,343.226L197.5,343.672L198.333,341.557L199.167,345.584L200,344.758L200.833,343.767L201.667,340.421L202.5,342.893L203.333,345.935L204.167,344.792L205,347.434L205.833,344.26L206.667,344.275L207.5,339.829L208.333,341.506L209.167,344.476L210,342.313L210.833,342.739L211.667,342.811L212.5,343.83L213.333,345.109L214.167,341.723L215,343.111L215.833,344.452L216.667,342.527L217.5,342.237L218.333,341.928L219.167,345.692L220,343.767L220.833,340.728L221.667,348.041L222.5,342.664L223.333,343.198L224.167,341.587L225,345.955L225.833,342.351L226.667,345.235L227.5,344.624L228.333,342.502L229.167,340.925L230,341.329L230.833,344.196L231.667,340.09L232.5,346.015L233.333,345.487L234.167,340.301L235,342.231L235.833,340.615L236.667,340.629L237.5,346.471L238.333,347.063L239.167,341.33L240,341.27L240.833,348.955L241.667,339.134L242.5,345.493L243.333,341.359L244.167,344.79L245,346.323L245.833,340.649L246.667,344.807L247.5,343.812L248.333,341.996L249.167,343.861L250,346.197L250.833,344.509L251.667,344.557L252.5,341.641L253.333,340.061L254.167,341.914L255,344.023L255.833,342.27L256.667,342.077L257.5,341.324L258.333,341.189L259.167,343.419L260,339.559L260.833,343.148L261.667,344.036L262.5,343.923L263.333,343.245L264.167,344.796L265,346.147L265.833,341.106L266.667,343.998L267.5,343.69L268.333,343.563L269.167,339.964L270,344.573L270.833,340.448L271.667,343.584L272.5,344.372L273.333,345.557L274.167,340.593L275,346.875L275.833,343.717L276.667,341.509L277.5,346.067L278.333,343.661L279.167,342.576L280,343.752L280.833,340.386L281.667,343.038L282.5,345.063L283.333,345.438L284.167,343.973L285,345.357L285.833,345.527L286.667,340.278L287.5,345.057L288.333,344.795L289.167,341.095L290,340.979L290.833,345.24L291.667,342.001L292.5,342.849L293.333,343.322L294.167,342.415L295,344.207L295.833,345.065L296.667,342.726L297.5,341.001L298.333,341.695L299.167,340.806L300,347.898L300.833,342.571L301.667,342.996L302.5,344.772L303.333,344.589L304.167,343.726L305,339.573L305.833,339.403L306.667,344.303L307.5,340.11L308.333,341.731L309.167,347.935L310,342.771L310.833,338.684L311.667,342.092L312.5,343.659L313.333,341.124L314.167,342.432L315,343.639L315.833,342.567L316.667,342.313L317.5,344.761L318.333,344.983L319.167,346.145L320,341.962L320.833,343.341L321.667,347.205L322.5,342.437L323.333,339.686L324.167,345.953L325,344.061L325.833,346.385L326.667,342.272L327.5,340.517L328.333,343.802L329.167,347.08L330,342.807L330.833,344.614L331.667,342.979L332.5,344.728L333.333,340.454L334.167,344.589L335,342.501L335.833,341.573L336.667,341.18L337.5,341.391L338.333,339.808L339.167,344.868L340,341.981L340.833,344.237L341.667,340.754L342.5,343.051L343.333,340.525L344.167,338.842L345,344.296L345.833,346.516L346.667,340.602L347.5,341.739L348.333,341.626L349.167,343.743L350,343.957L350.833,341.187L351.667,344.474L352.5,343.691L353.333,342.739L354.167,343.54L355,342.959L355.833,345.48L356.667,343.821L357.5,340.02L358.333,341.595L359.167,347.371L360,342.484L360.833,341.821L361.667,343.664L362.5,344.282L363.333,345.231L364.167,344.736L365,343.715L365.833,341.321L366.667,342.724L367.5,342.485L368.333,338.478L369.167,339.977L370,344.989L370.833,338.761L371.667,342.173L372.5,340.73L373.333,343.485L374.167,341.098L375,341.532L375.833,343.821L376.667,342.803L377.5,344.122L378.333,340.774L379.167,340.253L380,343.146L380.833,344.134L381.667,341.626L382.5,343.105L383.333,341.311L384.167,343.432L385,342.314L385.833,340.568L386.667,342.639L387.5,343.471L388.333,339.399L389.167,339.16L390,341.447L390.833,343.191L391.667,343.442L392.5,341.984L393.333,345.278L394.167,342.586L395,336.963L395.833,341.36L396.667,338.374L397.5,341.908L398.333,337.492L399.167,339.867L400,343.784L400.833,340.27L401.667,343.69L402.5,347.646L403.333,343.737L404.167,343.021L405,340.276L405.833,341.268L406.667,339.366L407.5,342.591L408.333,337.354L409.167,340.737L410,340.703L410.833,341.757L411.667,344.333L412.5,341.674L413.333,339.689L414.167,345.049L415,340.634L415.833,340.787L416.667,339.045L417.5,336.338L418.333,341.042L419.167,343.528L420,343.254L420.833,339.972L421.667,342.595L422.5,342.738L423.333,339.012L424.167,340.648L425,337.392L425.833,336.69L426.667,340.424L427.5,337.633L428.333,336.007L429.167,339.848L430,339.64L430.833,339.608L431.667,339.231L432.5,342.601L433.333,342.956L434.167,343.808L435,339.921L435.833,336.036L436.667,337.314L437.5,333.387L438.333,337.64L439.167,333.99L440,342.26L440.833,339.056L441.667,338.644L442.5,338.123L443.333,342.822L444.167,340.059L445,341.035L445.833,338.564L446.667,340.202L447.5,335.529L448.333,337.04L449.167,337.1L450,335.697L450.833,337.265L451.667,339.219L452.5,345.665L453.333,340.717L454.167,339.049L455,336.747L455.833,339.886L456.667,338.649L457.5,331.747L458.333,332.545L459.167,336.103L460,338.318L460.833,335.134L461.667,339.816L462.5,338.378L463.333,337.272L464.167,339.828L465,343.247L465.833,339.555L466.667,336.164L467.5,338.442L468.333,333.66L469.167,334.342L470,335.854L470.833,337.756L471.667,343.381L472.5,337.663L473.333,339.475L474.167,338.191L475,338.666L475.833,339.184L476.667,333.876L477.5,331.744L478.333,334.173L479.167,331.798L480,335.673L480.833,337.165L481.667,341.535L482.5,338.52L483.333,340.982L484.167,337.76L485,338.486L485.833,331.741L486.667,332.294L487.5,330.435L488.333,334.46L489.167,333.674L490,333.58L490.833,330.902L491.667,339.332L492.5,337.722L493.333,334.507L494.167,336.864L495,334.555L495.833,333.54L496.667,332.518L497.5,325.11L498.333,336.354L499.167,331.508L500,324.398L500.833,334.935L501.667,333.153L502.5,334.021L503.333,338.396L504.167,333.64L505,337.191L505.833,331.182L506.667,329.864L507.5,322.98L508.333,327.143L509.167,327.187L510,330.753L510.833,332.858L511.667,336.76L512.5,336.981L513.333,334.795L514.167,334.811L515,337.734L515.833,333.177L516.667,333.601L517.5,317.702L518.333,326.317L519.167,327.998L520,323.447L520.833,329.639L521.667,332.269L522.5,333.57L523.333,331.878L524.167,328.53L525,332.93L525.833,329.568L526.667,324.591L527.5,313.081L528.333,318.769L529.167,325.606L530,319.984L530.833,324.675L531.667,333.072L532.5,334.111L533.333,331.57L534.167,330.499L535,331.331L535.833,325.911L536.667,323.362L537.5,309.168L538.333,316.259L539.167,323.141L540,320.529L540.833,327.291L541.667,327.858L542.5,334.019L543.333,333.31L544.167,324.134L545,329.236L545.833,320.633L546.667,322.189L547.5,301.672L548.333,315.822L549.167,317.376L550,319.184L550.833,324.516L551.667,329.172L552.5,339.597L553.333,333.481L554.167,327.257L555,327.925L555.833,323.428L556.667,317.947L557.5,304.731L558.333,312.776L559.167,319.304L560,321.404L560.833,325.88L561.667,331.53L562.5,332.095L563.333,327.554L564.167,325.028L565,328.865L565.833,327.722L566.667,319.062L567.5,307.906L568.333,313.608L569.167,319.079L570,317.907L570.833,330.398L571.667,331.349L572.5,333.045L573.333,329.649L574.167,327.089L575,323.406L575.833,322.811L576.667,321.537L577.5,301.634L578.333,311.649L579.167,321.243L580,320.19L580.833,325.108L581.667,332.303L582.5,330.26L583.333,327.254L584.167,329.352L585,331.724L585.833,321.835L586.667,317.275L587.5,300.619L588.333,314.56L589.167,312.417L590,313.859L590.833,320.273L591.667,328.942L592.5,332.098L593.333,326.011L594.167,321.523L595,327.634L595.833,321.43L596.667,319.509L597.5,301.808L598.333,312.576L599.167,313.755L600,312.826L600.833,319.352L601.667,324.585L602.5,325L603.333,327.268L604.167,321.527L605,323.693L605.833,316.312L606.667,313.737L607.5,300.821L608.333,309.702L609.167,315.205L610,320.548L610.833,318.196L611.667,322.928L612.5,327.148L613.333,323.656L614.167,320.297L615,323.894L615.833,316.084L616.667,314.216L617.5,293.424L618.333,315.75L619.167,314.799L620,318.443L620.833,321.831L621.667,325.369L622.5,327.182L623.333,321.399L624.167,322.243L625,321.469L625.833,316.51L626.667,315.959L627.5,295.687L628.333,312.004L629.167,310.845L630,311.276L630.833,312.217L631.667,322.836L632.5,326.005L633.333,325.707L634.167,319.968L635,320.066L635.833,313.172L636.667,303.991L637.5,294.677L638.333,307.412L639.167,304.467L640,302.969L640.833,314.543L641.667,318.308L642.5,317.892L643.333,321.453L644.167,316.004L645,321.219L645.833,314.021L646.667,299.239L647.5,281.386L648.333,301.597L649.167,297.995L650,300.2L650.833,310.926L651.667,319.074L652.5,318.467L653.333,316.187L654.167,311.89L655,316.408L655.833,307.433L656.667,292.882L657.5,278.351L658.333,299.395L659.167,290.277L660,299.335L660.833,303.93L661.667,312.314L662.5,314.238L663.333,313.414L664.167,310.165L665,303.224L665.833,297.348L666.667,285.774L667.5,274.012L668.333,292.986L669.167,288.052L670,296.105L670.833,304.707L671.667,312.364L672.5,312.799L673.333,304.239L674.167,305.688L675,306.475L675.833,294.747L676.667,292.502L677.5,270.612L678.333,293.465L679.167,288.338L680,293.409L680.833,303.598L681.667,310.707L682.5,310.682L683.333,304.905L684.167,304.669L685,303.969L685.833,296.567L686.667,290.504L687.5,263.007L688.333,280.75L689.167,285.085L690,290.078L690.833,297.706L691.667,311.605L692.5,307.443L693.333,301.418L694.167,300.13L695,301.317L695.833,296.545L696.667,288.144L697.5,265.536L698.333,290.807L699.167,287.076L700,285.841L700.833,307.516L701.667,309.673L702.5,307.414L703.333,302.45L704.167,297.743L705,298.452L705.833,297.835L706.667,277.317L707.5,263.771L708.333,284.724L709.167,274.646L710,280.938L710.833,289.051L711.667,307.788L712.5,309.531L713.333,294.143L714.167,294.732L715,303.663L715.833,292.379L716.667,280.502L717.5,251.537L718.333,278.255L719.167,269.612L720,279.134L720.833,290.605L721.667,304.689L722.5,304.822L723.333,297.648L724.167,294.52L725,293.487L725.833,275.248L726.667,268.547L727.5,251.317L728.333,261.152L729.167,253.5L730,265.212L730.833,285.787L731.667,299.558L732.5,300.131L733.333,289.409L734.167,295.754L735,284.829L735.833,273.623L736.667,265.523L737.5,237.585L738.333,255.696L739.167,254.064L740,258.172L740.833,270.131L741.667,291.641L742.5,298.638L743.333,280.204L744.167,281.611L745,285.89L745.833,267.83L746.667,263.387L747.5,226.024L748.333,251.351L749.167,247.069L750,256.86L750.833,265.534L751.667,293.968L752.5,285.337L753.333,276.701L754.167,280.154L755,282.663L755.833,267.289L756.667,248.502L757.5,213.492L758.333,245.475L759.167,238.664L760,252.682L760.833,273.156L761.667,287.815L762.5,292.279L763.333,278.996L764.167,281.879L765,281.315L765.833,273.244L766.667,253.955L767.5,230.969L768.333,252.781L769.167,241.591L770,264.122L770.833,269.448L771.667,293.091L772.5,290.373L773.333,273.965L774.167,285.777L775,282.742L775.833,267.89L776.667,249.807L777.5,223.927L778.333,245.622L779.167,236.308L780,250.052L780.833,267.598L781.667,289.957L782.5,287.377L783.333,275.651L784.167,278.9L785,270.623L785.833,262.325L786.667,238.92L787.5,214.56L788.333,240.227L789.167,223.465L790,250.138L790.833,253.834L791.667,277.718L792.5,282.936L793.333,260.315L794.167,271.464L795,274.731L795.833,253.56L796.667,227.776L797.5,195L798.333,221.074L799.167,216.91L800,227.299L800.833,245.276L801.667,276.167L802.5,269.345L803.333,252.842L804.167,259.517L805,259.363L805.833,254.057L806.667,243.432L807.5,197.71L808.333,214.753L809.167,210.898L810,219.634L810.833,253.347L811.667,271.679L812.5,272.564L813.333,250.106L814.167,261.81L815,257.556L815.833,238.876L816.667,218.523L817.5,180.774L818.333,200.77L819.167,203.455L820,222.119L820.833,251.557L821.667,278.865L822.5,272.931L823.333,253.088L824.167,259.361L825,252.427L825.833,237.478L826.667,209.907L827.5,157.389L828.333,186.349L829.167,194.93L830,213.168L830.833,227.072L831.667,261.553L832.5,260.876L833.333,232.187L834.167,249.561L835,244.357L835.833,231.216L836.667,209.186L837.5,148.293L838.333,188.06L839.167,186.631L840,193.063L840.833,234.197L841.667,259.956L842.5,248.365L843.333,240.089L844.167,248.724L845,239.725L845.833,231.541L846.667,210.686L847.5,153.172L848.333,182.181L849.167,185.898L850,201.645L850.833,221.804L851.667,257.208L852.5,259.305L853.333,236.981L854.167,244.4L855,244.662L855.833,228.293L856.667,201.958L857.5,142.809L858.333,192.81L859.167,176.634L860,193.453L860.833,224.117L861.667,252.397L862.5,252.713L863.333,236.797L864.167,239.03L865,237.298L865.833,232.575L866.667,202.043L867.5,146.993L868.333,190.527L869.167,167.859L870,185.265L870.833,232.532L871.667,252.542L872.5,252.628L873.333,234.064L874.167,247.032L875,249.173L875.833,234.002L876.667,209.079L877.5,144.774L878.333,191.803L879.167,187.606L880,204.195L880.833,221.106L881.667,252.821L882.5,260.571L883.333,233.003L884.167,244.709L885,235.313L885.833,228.403L886.667,207.238L887.5,128.113L888.333,180.605L889.167,175.868L890,193.707L890.833,227.389L891.667,256.843L892.5,253.252L893.333,228.147L894.167,241.337L895,237.508L895.833,226.139L896.667,202.276L897.5,126.982L898.333,177.485L899.167,176.703L900,206.315L900.833,220.187L901.667,250.405L902.5,265.825L903.333,229.979L904.167,233.074L905,207.729L905.833,209.002L906.667,197.806L907.5,114.29L908.333,177.361L909.167,179.494L910,198.31L910.833,219.476L911.667,255.245L912.5,247.408L913.333,236.294L914.167,228.643L915,227.784L915.833,225.147L916.667,199.013L917.5,118.653L918.333,181.104L919.167,168.851L920,174.762L920.833,217.855L921.667,247.13L922.5,249.618L923.333,229.782L924.167,223.975L925,224.047L925.833,222.859L926.667,185.296L927.5,106.139L928.333,160.111L929.167,154.828L930,187.084L930.833,205.286L931.667,243.996L932.5,243.631L933.333,219.226L934.167,221.611L935,221.052L935.833,209.342L936.667,176.854L937.5,92.837L938.333,155.646L939.167,129.138L940,159.171L940.833,197.695L941.667,230.028L942.5,232.505L943.333,213.923L944.167,219.249L945,208.927L945.833,201.124L946.667,153.836L947.5,63.405L948.333,128.883L949.167,105.272L950,128.18L950.833,185.345L951.667,227.886L952.5,221.031L953.333,193.611L954.167,205.635L955,189.675L955.833,178.778L956.667,136.302L957.5,36.233L958.333,104.138L959.167,105.815L960,126.702L960.833,149.617L961.667,213.493L962.5,199.295L963.333,186.394L964.167,197.484L965,185.972L965.833,174.476L966.667,121.127L967.5,20.349L968.333,104.693L969.167,80.929L970,104.831L970.833,164.514" stroke="#4c78a8" stroke-width="2"/></g></g><path class="foreground" aria-hidden="true" d="" display="none"/></g></g></g></svg>