<svg xmlns="http://www.w3.org/2000/svg" version="1.1" xmlns:xlink="http://www.w3.org/1999/xlink" xmlns:svgjs="http://svgjs.dev/svgjs" width="950" height="375" id="chartSvg"><path d="M9,316 L9,316 L9,316 L9,315 L9,314 L9,312 L9,310 L10,308 L10,306 L11,303 L11,302 L11,302 L11,302 L11,301 L11,301 L11,301 L11,301 L11,300 L11,300 L11,300 L11,299 L12,298 L12,297 L12,297 L12,296 L12,296 L12,295 L12,293 L12,292 L12,291 L12,291 L12,290 L13,290 L13,290 L13,290 L13,289 L13,287 L14,286 L14,285 L14,285 L14,284 L14,284 L14,284 L14,283 L14,283 L14,283 L14,284 L14,288 L14,292 L15,297 L15,302 L16,306 L16,306 L16,306 L16,306 L16,304 L17,298 L18,292 L18,289 L19,285 L19,285 L19,285 L19,286 L19,287 L18,292 L18,293 L18,296 L18,296 L18,296 L17,295 L17,289 L17,285 L17,283 L17,283 L17,284 L17,290 L18,296 L18,300 L18,301 L18,301 L18,301 L18,300 L18,299 L21,291 L23,283 L24,276 L24,276 L24,276 L24,276 L24,276 L24,276 L24,275 L24,274 L25,269 L25,263 L26,256 L26,256 L26,256 L26,260 L26,262 L26,264 L26,265 L26,265 L26,264 L26,264 L26,259 L26,256 L26,256 L26,255 L26,255 L26,256 L26,259 L26,263 L26,266 L26,266 L26,266 L26,266 L27,263 L28,259 L29,255 L30,250 L30,249 L30,248 L30,248 L31,248 L31,248 L31,247 L31,247 L31,247 L31,247 L31,248 L31,248 L31,250 L32,253 L32,256 L33,258 L33,261 L33,263 L33,265 L33,268 L33,271 L33,272 L33,272 L33,273 L34,273 L34,274 L34,274 L34,275 L34,275 L34,275 L34,276 L34,276 L34,276 L34,276 L34,276 L34,277 L34,277 L35,278 L35,279 L35,279 L35,280 L35,281 L36,282 L36,286 L36,288 L37,290 L37,291 L37,293 L38,294 L38,294 L38,294 L38,294 L38,293 L38,292 L38,290 L38,289 L39,288 L39,288 L39,287 L39,287 L39,287 L39,287 L39,287 L39,287 L38,286 L38,285 L37,284 L36,281 L36,279 L35,277 L35,276 L35,276 L35,274 L35,271 L35,269 L35,265 L35,264 L35,260 L36,258 L36,257 L36,258 L36,258 L36,261 L36,263 L36,263 L36,262 L36,261 L37,251 L39,239 L41,225 L41,218 L41,218 L41,220 L41,225 L42,230 L42,234 L42,237 L42,237 L42,237 L42,236 L42,235 L42,232 L43,225 L43,217 L44,210 L44,211 L44,214 L44,216 L45,217 L45,217 L45,216 L46,214 L47,208 L47,207 L47,208 L47,208 L47,210 L47,215 L47,221 L48,224 L48,225 L48,224 L48,223 L49,216 L50,204 L51,190 L53,182 L53,182 L53,183 L53,184 L54,188 L54,191 L54,191 L54,191 L54,191 L54,190 L55,187 L56,182 L57,174 L58,168 L58,167 L58,167 L58,169 L58,181 L58,190 L58,199 L59,202 L59,202 L59,199 L60,191 L60,184 L60,183 L60,182 L60,183 L60,183 L60,185 L60,188 L60,192 L60,194 L60,194 L60,192 L60,189 L61,183 L61,181 L61,181 L61,181 L62,185 L62,189 L62,201 L62,203 L63,209 L63,209 L63,208 L64,204 L66,193 L67,186 L68,176 L69,167 L69,167 L69,172 L69,180 L69,188 L69,204 L70,223 L70,225 L70,226 L70,226 L70,225 L71,220 L72,211 L73,193 L74,180 L74,179 L74,179 L74,179 L75,181 L75,188 L75,193 L75,197 L75,198 L75,198 L75,198 L75,198 L76,194 L76,190 L77,186 L77,186 L77,187 L77,188 L77,189 L77,189 L77,189 L77,188 L77,187 L77,185 L77,184 L77,185 L77,188 L77,195 L77,199 L77,210 L77,212 L77,212 L78,208 L78,201 L79,190 L79,180 L79,166 L79,161 L79,161 L79,161 L79,171 L78,173 L78,188 L77,192 L77,192 L77,192 L77,191 L77,190 L77,184 L78,168 L78,162 L78,161 L78,161 L78,163 L78,168 L78,178 L77,185 L77,191 L77,190 L77,189 L77,189 L77,182 L78,173 L79,165 L79,162 L79,162 L79,164 L79,170 L80,174 L80,186 L80,191 L80,193 L80,192 L80,192 L81,185 L82,174 L84,160 L85,151 L85,149 L85,149 L86,153 L86,160 L86,170 L86,175 L87,178 L87,177 L87,174 L88,166 L89,160 L90,154 L90,153 L90,153 L90,154 L90,159 L91,163 L91,164 L91,166 L91,166 L91,166 L91,165 L91,162 L91,156 L92,149 L92,146 L93,147 L93,151 L93,160 L93,166 L94,168 L94,167 L94,164 L95,157 L96,150 L97,142 L98,140 L98,140 L98,140 L98,145 L98,155 L98,173 L98,177 L98,180 L98,180 L98,180 L99,177 L99,171 L100,162 L101,157 L101,155 L101,155 L101,156 L102,159 L102,166 L103,175 L103,182 L103,184 L103,184 L104,184 L104,179 L106,170 L107,161 L109,149 L110,142 L110,140 L110,140 L111,142 L112,153 L112,156 L112,165 L112,169 L112,169 L112,169 L112,169 L112,168 L113,162 L113,154 L114,145 L114,139 L114,137 L114,138 L114,138 L114,145 L114,149 L113,161 L113,166 L113,166 L113,166 L113,164 L113,158 L113,145 L113,134 L113,117 L113,112 L113,112 L113,113 L112,124 L111,138 L110,154 L110,158 L110,163 L110,162 L110,161 L111,156 L111,151 L112,147 L112,147 L112,147 L112,147 L113,152 L113,162 L113,167 L114,172 L114,173 L114,173 L114,172 L114,172 L115,170 L116,165 L116,161 L116,162 L117,168 L117,182 L118,185 L118,188 L118,188 L118,187 L119,180 L121,172 L123,158 L123,152 L123,151 L123,152 L123,158 L123,167 L124,174 L124,182 L124,185 L124,185 L124,185 L124,184 L125,174 L126,164 L126,157 L126,153 L126,153 L126,153 L126,157 L126,169 L126,182 L126,194 L126,198 L126,198 L126,197 L126,196 L127,182 L127,171 L128,158 L128,154 L128,154 L128,155 L128,165 L128,176 L127,191 L127,198 L127,199 L127,199 L127,198 L127,191 L128,176 L128,161 L130,146 L130,142 L130,142 L130,143 L130,154 L130,168 L130,185 L129,199 L129,206 L129,206 L129,205 L129,205 L131,193 L131,188 L134,167 L134,161 L134,161 L134,162 L134,170 L134,183 L134,197 L134,204 L134,207 L134,207 L134,206 L134,204 L135,194 L135,189 L136,182 L136,182 L136,182 L136,188 L135,195 L135,201 L135,205 L135,203 L135,198 L135,195 L135,191 L135,191 L135,193 L136,199 L136,212 L136,225 L136,228 L136,229 L136,228 L136,222 L136,219 L137,210 L137,198 L137,197 L137,198 L137,198 L137,201 L137,204 L137,210 L137,212 L137,212 L137,212 L137,212 L137,211 L137,207 L138,200 L138,195 L138,194 L138,194 L138,196 L138,207 L138,211 L138,223 L138,224 L138,224 L138,223 L138,223 L138,219 L139,213 L140,200 L140,196 L140,196 L140,197 L140,201 L140,210 L139,227 L139,230 L139,230 L139,229 L140,224 L141,217 L142,203 L143,196 L143,195 L143,196 L143,198 L143,206 L143,211 L143,220 L143,232 L143,233 L143,232 L143,232 L143,229 L144,224 L145,219 L145,215 L145,215 L145,215 L146,216 L146,221 L146,224 L146,229 L146,235 L146,236 L146,236 L147,235 L147,233 L148,229 L149,220 L150,212 L152,205 L152,204 L152,205 L152,208 L152,215 L153,228 L153,237 L153,241 L153,241 L153,240 L153,238 L153,233 L154,226 L155,219 L155,218 L155,218 L155,222 L155,227 L155,235 L155,247 L154,253 L154,254 L154,253 L154,253 L154,250 L155,245 L156,238 L157,228 L157,223 L157,221 L157,221 L157,222 L157,226 L157,232 L157,240 L157,247 L157,250 L157,249 L157,246 L157,241 L158,233 L158,227 L158,223 L158,223 L158,224 L158,229 L158,231 L158,236 L158,237 L158,238 L158,237 L158,237 L158,237 L158,235 L158,234 L158,234 L158,235 L158,237 L158,240 L158,242 L158,243 L158,243 L158,243 L158,240 L158,237 L159,231 L160,226 L160,225 L160,225 L160,225 L160,227 L159,233 L159,237 L158,242 L158,244 L158,244 L158,244 L158,242 L159,238 L159,234 L162,219 L163,214 L163,212 L163,213 L163,214 L163,219 L162,226 L161,239 L160,246 L160,252 L160,254 L160,253 L160,252 L161,246 L162,233 L163,223 L164,218 L164,216 L164,217 L164,219 L164,227 L164,240 L164,249 L163,262 L163,266 L163,267 L163,267 L163,266 L163,264 L164,257 L165,249 L166,241 L166,236 L166,236 L166,236 L166,236 L165,240 L165,247 L164,256 L163,267 L162,273 L162,275 L162,274 L162,274 L162,272 L163,268 L163,261 L163,254 L164,251 L164,250 L164,251 L164,252 L164,256 L164,262 L163,270 L163,275 L163,276 L163,275 L163,275 L163,273 L165,265 L166,255 L167,243 L169,230 L169,228 L169,228 L169,228 L169,231 L169,236 L169,241 L169,247 L170,249 L170,249 L170,249 L170,249 L170,248 L171,242 L173,234 L175,222 L176,217 L176,217 L176,219 L176,222 L176,232 L175,247 L175,251 L175,255 L175,255 L175,255 L175,255 L175,253 L176,247 L178,237 L181,222 L183,208 L183,203 L183,202 L183,203 L183,207 L182,217 L181,226 L180,231 L180,234 L180,235 L180,235 L180,234 L180,232 L180,226 L181,219 L182,208 L183,200 L183,198 L183,198 L183,199 L182,208 L181,213 L180,226 L180,229 L180,229 L180,229 L180,227 L181,219 L182,210 L183,201 L183,196 L183,196 L183,196 L183,201 L182,209 L181,219 L180,226 L180,228 L180,228 L180,227 L180,226 L180,221 L181,213 L183,200 L185,187 L185,180 L185,181 L185,181 L185,188 L184,196 L184,206 L183,214 L183,216 L183,216 L183,216 L183,216 L183,214 L183,210 L184,205 L184,200 L185,197 L185,196 L185,197 L185,202 L185,207 L184,214 L184,218 L184,220 L184,220 L184,219 L185,214 L186,206 L189,191 L192,179 L193,176 L193,174 L193,174 L193,174 L193,177 L192,182 L190,195 L187,212 L185,221 L184,229 L184,230 L184,230 L184,230 L184,226 L186,213 L187,206 L189,193 L190,180 L190,179 L190,179 L190,180 L189,187 L187,195 L186,204 L186,210 L186,214 L186,213 L186,213 L187,207 L189,199 L191,190 L192,182 L193,176 L193,174 L193,176 L191,184 L189,198 L186,212 L185,221 L185,222 L185,221 L185,220 L185,218 L187,210 L189,198 L190,190 L192,181 L193,180 L193,180 L193,181 L193,184 L194,189 L194,201 L194,209 L194,213 L194,215 L194,214 L195,213 L195,210 L197,202 L199,195 L202,187 L203,181 L203,179 L203,180 L203,180 L203,182 L203,188 L202,194 L202,201 L202,201 L202,201 L202,201 L202,200 L202,197 L202,190 L203,183 L203,175 L203,172 L203,173 L202,180 L201,183 L199,193 L199,197 L199,198 L199,197 L199,197 L199,196 L199,191 L200,184 L201,176 L202,169 L202,169 L202,169 L202,172 L201,184 L200,195 L199,206 L199,206 L199,206 L199,206 L199,204 L200,199 L201,191 L203,179 L204,172 L204,169 L204,169 L204,170 L204,171 L202,187 L202,191 L201,204 L201,205 L201,205 L201,205 L201,204 L201,202 L201,195 L202,188 L202,180 L203,173 L203,172 L203,173 L203,174 L201,182 L200,188 L200,193 L200,194 L200,194 L200,192 L201,184 L202,167 L203,163 L204,154 L204,154 L204,155 L203,165 L201,175 L200,184 L199,188 L199,190 L199,190 L199,189 L199,186 L200,178 L202,164 L203,157 L203,155 L203,155 L203,157 L202,163 L200,172 L199,179 L198,181 L198,180 L198,180 L198,179 L199,175 L199,171 L200,168 L200,168 L200,168 L200,168 L199,171 L198,176 L196,186 L195,194 L195,196 L195,196 L195,196 L195,195 L195,193 L197,186 L199,176 L201,168 L203,158 L203,156 L203,156 L203,156 L203,156 L203,157 L203,158 L202,163 L201,168 L200,173 L200,175 L200,175 L200,175 L201,172 L204,163 L206,156 L209,147 L211,141 L211,140 L211,141 L211,141 L211,145 L211,151 L211,161 L211,174 L211,178 L211,178 L211,178 L211,178 L211,176 L212,173 L213,165 L217,148 L219,139 L220,139 L220,139 L219,144 L217,153 L214,165 L213,172 L212,175 L212,175 L212,174 L212,173 L213,163 L214,157 L214,150 L214,144 L214,143 L214,143 L213,148 L213,155 L212,160 L212,162 L212,162 L212,161 L213,158 L214,154 L215,152 L215,149 L215,149 L215,149 L215,150 L215,153 L215,157 L214,160 L214,161 L214,161 L214,158 L215,154 L216,148 L217,145 L217,145 L217,145 L217,145 L217,146 L217,151 L217,157 L217,161 L218,163 L218,163 L218,163 L218,163 L219,161 L220,155 L222,148 L224,143 L224,140 L224,140 L224,142 L225,146 L225,151 L225,157 L225,157 L225,157 L225,156 L226,154 L227,150 L228,148 L228,150 L228,157 L228,164 L228,173 L228,175 L228,175 L229,173 L230,170 L232,165 L233,161 L233,159 L233,159 L233,160 L233,161 L233,165 L234,169 L234,173 L234,173 L234,173 L234,173 L235,172 L236,170 L237,166 L237,164 L237,164 L237,164 L237,165 L238,167 L238,171 L239,174 L239,175 L239,175 L239,174 L239,174 L240,172 L241,169 L241,170 L242,173 L242,177 L242,182 L242,184 L242,184 L242,183 L242,182 L243,180 L243,181 L243,181 L243,182 L243,185 L243,187 L243,188 L243,186 L244,182 L246,175 L246,170 L246,170 L246,170 L246,170 L246,174 L246,181 L245,185 L245,187 L245,187 L245,187 L245,186 L246,185 L246,183 L246,183 L246,184 L246,185 L246,190 L246,197 L246,205 L246,208 L246,209 L246,208 L246,207 L246,207 L247,202 L248,199 L248,197 L248,198 L248,201 L247,207 L247,211 L246,215 L246,216 L246,216 L246,216 L246,215 L247,210 L249,203 L249,198 L250,195 L250,195 L250,198 L249,203 L249,208 L249,209 L249,210 L249,209 L249,209 L249,209 L249,206 L250,201 L251,197 L252,194 L252,193 L252,194 L252,194 L252,196 L250,206 L248,214 L247,221 L247,224 L247,223 L247,222 L247,220 L248,215 L249,210 L250,205 L250,204 L250,204 L250,205 L250,209 L250,214 L250,218 L250,218 L250,218 L250,218 L250,216 L251,212 L253,203 L255,196 L255,193 L255,194 L255,198 L254,202 L252,207 L252,210 L252,210 L252,209 L252,206 L252,198 L253,191 L254,187 L254,187 L254,187 L254,189 L252,194 L252,198 L251,201 L251,202 L251,202 L250,201 L250,199 L250,193 L250,184 L250,179 L250,179 L250,179 L250,179 L250,180 L249,181 L248,185 L248,187 L247,191 L247,192 L247,192 L247,190 L246,187 L246,183 L246,181 L246,180 L246,180 L246,180 L246,180 L246,181 L245,182 L245,182 L245,182 L245,182 L245,181 L245,179 L245,178 L245,178 L245,178 L245,178 L244,178 L244,180 L243,182 L242,182 L242,182 L242,182 L242,181 L242,180 L242,179 L242,178 L242,178 L242,178 L242,178 L241,181 L240,182 L239,183 L239,184 L239,183 L239,183 L239,181 L238,175 L237,167 L237,161 L237,156 L237,155 L237,155 L236,157 L235,161 L234,168 L233,170 L233,172 L233,172 L233,172 L233,171 L233,171 L233,169 L233,165 L233,162 L233,161 L233,161 L232,163 L231,167 L229,171 L229,173 L228,174 L228,174 L228,173 L228,171 L228,165 L229,160 L229,157 L229,157 L229,158 L229,162 L227,174 L226,190 L225,200 L225,206 L225,207 L225,206 L225,204 L226,201 L227,198 L230,187 L231,181 L232,177 L233,176 L233,176 L233,176 L233,180 L233,181 L233,186 L232,190 L232,191 L232,191 L232,191 L233,189 L236,184 L239,179 L241,175 L241,174 L241,174 L241,175 L241,182 L241,192 L240,209 L240,218 L240,222 L240,222 L240,222 L240,222 L242,216 L244,213 L247,203 L248,197 L250,193 L250,193 L250,193 L250,194 L250,195 L250,203 L249,210 L249,215 L249,215 L249,214 L250,213 L251,210 L252,207 L252,206 L253,209 L253,212 L253,219 L254,221 L254,221 L254,220 L255,217 L256,212 L258,208 L258,207 L258,207 L258,207 L258,210 L258,213 L258,215 L258,216 L258,216 L258,215 L258,211 L260,205 L261,199 L262,195 L262,195 L262,195 L262,195 L262,201 L261,207 L260,216 L260,224 L260,226 L260,226 L260,226 L260,226 L260,225 L261,221 L263,213 L265,204 L266,200 L266,198 L266,198 L266,200 L265,203 L265,208 L264,213 L264,215 L264,215 L264,215 L264,214 L264,214 L264,213 L264,212 L264,210 L264,209 L264,209 L264,209 L264,210 L264,210 L264,213 L264,214 L264,215 L264,215 L264,215 L264,214 L264,215 L264,216 L263,219 L263,222 L263,224 L263,224 L263,224 L263,224 L263,224 L264,222 L264,222 L264,221 L264,221 L264,222 L264,226 L264,231 L264,233 L264,234 L264,234 L264,234 L264,234 L264,233 L264,232 L264,231 L264,229 L264,227 L264,227 L264,227 L264,228 L264,228 L264,231 L264,233 L264,235 L264,236 L265,236 L265,236 L265,236 L265,231 L265,228 L266,226 L266,225 L266,226 L266,227 L266,231 L266,234 L266,238 L266,240 L266,240 L266,240 L266,238 L266,235 L267,229 L268,225 L268,223 L268,221 L268,222 L268,222 L268,222 L268,226 L268,229 L268,231 L268,233 L268,232 L268,232 L268,231 L269,229 L269,227 L269,225 L269,226 L269,228 L269,231 L269,233 L269,235 L269,235 L269,235 L269,235 L269,234 L270,231 L270,227 L271,223 L271,221 L271,221 L271,221 L271,223 L272,226 L272,229 L272,231 L272,232 L272,232 L272,232 L272,232 L272,231 L272,231 L273,229 L273,230 L273,231 L273,233 L273,236 L273,238 L274,239 L274,239 L274,239 L274,237 L274,236 L274,230 L275,225 L275,223 L275,222 L275,224 L275,228 L275,237 L276,245 L276,248 L276,249 L276,249 L276,249 L276,248 L276,246 L277,241 L278,234 L280,226 L280,223 L280,222 L280,222 L280,224 L281,228 L281,234 L281,237 L281,239 L281,239 L281,238 L282,234 L284,222 L286,209 L286,203 L287,202 L287,202 L287,205 L287,209 L287,214 L287,219 L287,221 L287,222 L287,221 L287,220 L287,215 L288,206 L288,200 L289,196 L289,194 L289,194 L289,195 L289,197 L289,200 L289,202 L289,203 L289,203 L289,203 L289,203 L289,202 L290,201 L291,200 L292,199 L293,199 L293,199 L293,199 L293,199 L293,199 L293,199 L293,199 L293,199 L293,198 L293,198 L293,198 L293,197 L293,197 L293,195 L293,193 L293,190 L293,189 L293,188 L293,188 L293,188 L293,189 L293,189 L293,189 L293,189 L293,188 L293,186 L293,185 L293,185 L293,184 L293,184 L293,184 L293,183 L293,182 L293,181 L293,181 L293,180 L293,180 L293,181 L293,181 L293,182 L293,182 L293,182 L293,182 L293,180 L294,171 L295,164 L296,153 L297,152 L297,152 L297,154 L297,155 L297,158 L297,159 L297,160 L297,160 L297,158 L298,155 L298,150 L299,145 L299,144 L299,144 L299,145 L299,147 L299,150 L299,151 L299,152 L299,151 L299,151 L299,150 L299,148 L300,144 L300,140 L301,138 L301,137 L301,138 L301,138 L301,139 L301,145 L301,149 L301,154 L301,156 L301,156 L301,155 L301,152 L301,148 L301,142 L302,136 L302,131 L302,129 L302,129 L302,130 L302,131 L302,131 L302,132 L302,132 L302,132 L302,131 L302,131 L303,129 L303,128 L303,126 L303,125 L304,122 L304,121 L304,121 L304,120 L304,120 L304,121 L304,121 L304,121 L304,123 L304,126 L304,130 L304,135 L304,148 L305,155 L305,160 L305,163 L305,163 L305,163 L305,163 L305,162 L305,161 L305,160 L306,156 L306,154 L307,149 L307,146 L308,140 L308,139 L308,138 L308,138 L309,136 L309,133 L310,132 L310,130 L310,128 L310,128 L310,128 L310,128 L310,129 L311,131 L311,131 L311,131 L311,131 L311,126 L313,119 L314,112 L315,106 L315,104 L315,105 L315,106 L315,110 L315,115 L315,117 L315,117 L315,117 L316,116 L317,111 L319,104 L322,97 L323,93 L323,93 L323,93 L323,93 L323,96 L323,101 L323,109 L323,114 L323,117 L323,118 L323,117 L323,117 L323,115 L325,109 L330,95 L333,87 L333,85 L333,84 L333,85 L333,85 L333,86 L333,92 L331,102 L330,114 L330,122 L329,126 L329,124 L329,121 L330,112 L331,98 L334,86 L335,77 L335,74 L335,75 L335,76 L335,84 L335,96 L334,115 L334,126 L334,132 L334,132 L334,132 L334,130 L334,127 L336,120 L337,112 L338,105 L339,102 L339,102 L339,103 L339,105 L339,110 L339,117 L338,123 L338,127 L338,129 L338,128 L338,128 L338,126 L339,123 L339,120 L339,119 L339,119 L339,120 L339,120 L339,126 L339,135 L338,142 L338,144 L338,145 L338,145 L338,144 L338,141 L340,135 L341,127 L342,124 L342,122 L342,123 L342,131 L341,142 L340,149 L340,157 L340,160 L340,160 L340,160 L340,157 L341,152 L344,141 L346,132 L347,129 L347,129 L347,130 L347,137 L347,150 L346,163 L346,176 L346,181 L346,181 L346,181 L346,180 L348,174 L349,165 L352,153 L354,142 L354,139 L354,139 L354,140 L354,143 L354,153 L353,163 L353,170 L353,179 L352,184 L352,184 L352,184 L352,183 L352,182 L353,177 L353,172 L354,167 L355,164 L355,163 L355,164 L355,166 L355,172 L354,178 L354,184 L354,188 L354,188 L354,188 L354,187 L354,187 L355,181 L357,172 L360,160 L361,150 L361,149 L361,149 L361,150 L361,155 L361,159 L360,167 L360,171 L360,172 L360,172 L360,171 L360,168 L360,161 L361,156 L361,154 L361,154 L361,156 L360,166 L359,177 L358,188 L358,193 L358,193 L358,193 L358,192 L358,190 L358,184 L358,175 L357,166 L356,163 L356,163 L356,163 L356,165 L355,169 L354,173 L354,177 L354,178 L354,178 L354,178 L354,178 L354,177 L354,175 L355,175 L355,175 L355,178 L355,182 L355,186 L355,190 L355,192 L355,192 L355,192 L355,192 L355,191 L355,188 L356,184 L357,179 L357,178 L357,178 L357,183 L357,191 L356,203 L356,217 L356,218 L356,217 L356,216 L356,212 L357,207 L358,199 L359,193 L359,194 L359,199 L359,204 L358,209 L358,212 L358,212 L358,212 L358,212 L358,211 L358,208 L359,202 L359,198 L359,196 L359,197 L359,200 L359,205 L359,214 L358,219 L358,222 L358,223 L358,222 L358,221 L358,220 L359,217 L360,212 L360,208 L360,208 L361,208 L361,214 L361,223 L361,235 L361,244 L361,251 L361,252 L361,251 L361,251 L361,250 L361,247 L362,242 L362,239 L363,238 L363,238 L363,239 L363,245 L363,252 L363,258 L364,262 L364,263 L364,263 L364,262 L364,262 L364,256 L365,253 L366,246 L366,243 L366,243 L366,243 L366,244 L366,251 L366,255 L366,257 L366,258 L366,258 L366,259 L366,266 L366,271 L366,277 L366,280 L367,281 L367,281 L367,280 L367,276 L370,260 L373,235 L378,207 L380,195 L381,189 L381,189 L381,189 L381,191 L381,198 L381,206 L380,214 L380,219 L380,220 L380,216 L380,207 L381,197 L381,187 L382,179 L382,178 L382,178 L382,182 L381,188 L381,200 L380,209 L380,216 L380,217 L380,216 L380,215 L381,210 L382,206 L383,201 L384,196 L384,196 L384,196 L385,198 L385,201 L385,205 L385,208 L385,210 L385,209 L386,209 L386,205 L387,201 L388,195 L388,192 L389,190 L389,190 L389,191 L389,193 L389,200 L389,209 L389,216 L390,219 L390,219 L390,219 L390,218 L390,215 L391,208 L392,199 L392,190 L394,178 L394,175 L394,175 L394,176 L394,178 L394,187 L393,197 L392,213 L392,221 L392,228 L392,229 L392,228 L392,225 L392,219 L392,208 L393,194 L393,188 L393,186 L393,187 L393,187 L393,191 L393,200 L393,211 L393,215 L393,216 L393,215 L393,215 L393,211 L393,205 L394,199 L394,190 L395,187 L395,187 L395,187 L395,191 L395,198 L395,208 L395,218 L395,219 L395,218 L395,218 L395,214 L397,206 L397,197 L398,184 L399,178 L399,177 L399,177 L399,178 L399,184 L399,191 L399,197 L399,203 L399,204 L399,204 L399,203 L399,199 L400,193 L401,185 L401,180 L401,180 L401,180 L401,183 L402,193 L402,213 L402,221 L403,222 L403,221 L403,218 L403,210 L404,200 L404,187 L405,172 L406,166 L406,165 L406,165 L406,169 L406,177 L406,186 L406,201 L406,206 L406,206 L406,206 L406,206 L406,204 L406,200 L407,189 L407,180 L407,172 L407,171 L407,171 L407,173 L407,186 L407,197 L407,207 L407,210 L407,210 L407,210 L407,209 L407,205 L408,198 L409,185 L410,175 L410,168 L410,166 L410,166 L410,168 L410,180 L410,194 L410,206 L410,212 L410,214 L410,214 L410,213 L410,211 L411,205 L412,194 L412,184 L413,175 L413,172 L413,172 L413,172 L413,176 L414,181 L414,186 L414,191 L414,194 L414,194 L414,194 L414,193 L414,190 L414,185 L414,179 L415,167 L415,163 L415,163 L415,164 L415,168 L415,177 L415,186 L415,193 L415,194 L415,193 L415,189 L415,183 L416,175 L417,165 L417,161 L417,161 L417,161 L417,165 L417,170 L417,176 L417,181 L417,182 L417,182 L417,181 L418,181 L418,178 L419,168 L421,155 L421,153 L421,153 L421,153 L421,155 L421,161 L421,171 L421,182 L421,188 L421,192 L422,193 L422,192 L422,191 L422,186 L423,174 L425,160 L426,152 L426,149 L426,149 L426,149 L427,152 L427,161 L428,174 L429,186 L430,192 L430,193 L430,192 L430,191 L430,188 L433,174 L434,163 L435,148 L435,144 L435,143 L435,144 L436,146 L436,154 L436,165 L436,175 L437,181 L437,185 L437,185 L437,185 L437,184 L437,180 L438,173 L439,169 L439,164 L439,163 L439,163 L439,164 L440,168 L440,179 L440,188 L441,194 L441,195 L441,195 L441,193 L441,187 L442,176 L443,161 L443,147 L444,132 L444,130 L444,131 L444,131 L444,136 L444,143 L444,153 L445,164 L445,170 L445,171 L445,171 L445,170 L445,168 L445,164 L446,155 L447,146 L447,135 L447,133 L447,133 L447,135 L447,144 L447,154 L446,166 L446,172 L446,173 L446,173 L446,173 L446,168 L446,160 L445,151 L444,142 L444,138 L444,137 L444,138 L444,139 L444,144 L444,148 L444,151 L444,152 L444,152 L444,151 L445,147 L446,140 L447,132 L447,128 L447,127 L447,127 L447,128 L447,130 L447,136 L448,140 L448,144 L448,144 L448,143 L448,143 L449,141 L449,137 L450,131 L451,128 L451,127 L451,128 L451,131 L451,136 L451,147 L452,166 L453,172 L453,172 L453,172 L453,172 L453,167 L454,160 L454,149 L455,138 L455,131 L455,130 L455,131 L455,133 L455,137 L455,146 L455,165 L455,172 L454,173 L454,173 L454,173 L454,169 L455,164 L455,156 L456,150 L456,147 L456,148 L456,150 L456,155 L456,175 L456,182 L456,201 L456,206 L456,207 L456,207 L456,206 L456,203 L456,193 L456,185 L457,172 L457,169 L457,170 L457,171 L457,182 L456,192 L456,204 L455,210 L455,212 L455,211 L455,206 L455,201 L455,194 L456,189 L456,188 L456,188 L456,189 L456,192 L456,198 L456,202 L455,204 L455,204 L455,204 L455,205 L455,206 L455,208 L455,210 L455,214 L454,216 L454,216 L454,216 L454,215 L454,212 L454,208 L454,208 L454,207 L454,208 L454,211 L454,215 L454,218 L454,219 L454,219 L454,219 L454,218 L454,216 L454,214 L454,214 L454,215 L454,216 L453,219 L453,221 L453,223 L453,223 L453,223 L453,222 L453,222 L453,220 L453,217 L453,216 L453,216 L453,216 L453,215 L453,215 L453,213 L453,210 L454,206 L454,202 L454,198 L454,194 L455,190 L455,188 L455,185 L455,182 L455,181 L455,180 L455,180 L455,181 L455,182 L455,183 L455,185 L455,187 L455,188 L455,188 L455,188 L455,187 L455,186 L455,182 L455,177 L455,172 L455,171 L455,172 L455,173 L454,177 L453,185 L452,191 L451,198 L451,200 L451,200 L451,199 L451,197 L451,195 L451,194 L452,193 L452,193 L452,193 L452,192 L452,192 L452,192 L453,191 L453,191 L453,190 L453,191 L453,191 L453,192 L454,195 L455,202 L456,208 L456,211 L456,212 L457,211 L457,211 L458,206 L461,199 L464,192 L465,189 L466,187 L466,187 L466,187 L466,187 L466,188 L467,193 L467,199 L467,204 L467,208 L467,209 L468,209 L468,208 L468,205 L469,199 L470,194 L470,192 L470,192 L470,192 L470,192 L470,196 L470,199 L469,207 L469,208 L469,208 L469,208 L469,206 L469,203 L469,198 L469,195 L470,192 L470,193 L470,193 L469,194 L469,198 L468,203 L467,205 L467,207 L467,207 L467,207 L467,206 L467,204 L467,203 L467,202 L467,203 L467,207 L467,210 L467,212 L467,212 L467,212 L467,212 L467,211 L467,211 L467,211 L467,213 L467,220 L467,234 L468,241 L469,243 L469,244 L469,244 L469,243 L469,243 L469,241 L471,236 L472,229 L474,224 L476,216 L477,210 L478,206 L478,206 L478,208 L478,209 L478,209 L479,209 L479,207 L479,205 L482,191 L485,178 L486,172 L487,167 L487,167 L487,168 L487,173 L487,180 L487,188 L487,192 L487,193 L487,191 L487,187 L489,175 L491,164 L492,155 L492,151 L492,152 L492,152 L492,157 L491,164 L491,175 L491,178 L491,182 L491,182 L491,182 L491,181 L491,175 L492,164 L493,154 L493,149 L494,148 L494,149 L494,149 L493,152 L493,156 L492,159 L492,160 L492,159 L492,156 L493,149 L494,140 L494,137 L494,136 L494,136 L494,138 L493,141 L493,145 L491,152 L491,154 L491,155 L491,154 L491,150 L491,145 L493,137 L493,136 L493,136 L493,136 L493,140 L493,148 L492,159 L491,168 L491,172 L491,172 L491,172 L491,172 L491,169 L491,165 L491,158 L492,153 L492,153 L492,153 L492,154 L491,162 L490,173 L489,182 L489,189 L489,188 L489,181 L489,175 L490,165 L492,151 L492,148 L492,148 L492,149 L492,151 L492,153 L492,154 L492,154 L492,151 L492,149 L493,145 L494,139 L494,138 L494,139 L494,139 L494,145 L493,153 L492,163 L491,169 L491,170 L491,169 L491,168 L491,167 L494,154 L495,147 L497,139 L499,132 L499,131 L499,131 L499,131 L499,132 L499,136 L498,142 L497,146 L497,148 L497,147 L497,145 L498,138 L500,133 L501,126 L501,125 L501,126 L500,131 L500,136 L499,142 L499,144 L499,144 L499,142 L500,136 L502,128 L503,122 L504,117 L504,117 L504,117 L504,117 L504,119 L503,124 L501,132 L501,139 L500,143 L500,143 L500,143 L500,143 L500,141 L500,137 L501,133 L502,130 L502,129 L502,130 L502,133 L501,136 L499,150 L499,164 L498,175 L498,178 L498,178 L498,178 L499,175 L500,166 L501,155 L503,144 L505,134 L506,128 L506,127 L506,127 L506,127 L506,131 L505,141 L504,151 L504,157 L503,160 L503,160 L503,160 L503,159 L503,155 L504,143 L505,128 L506,112 L506,101 L506,100 L506,100 L506,100 L506,105 L505,110 L505,132 L505,134 L505,134 L505,134 L505,134 L506,132 L506,130 L507,126 L508,122 L509,118 L510,122 L510,132 L510,149 L511,160 L511,166 L511,166 L511,166 L511,165 L511,163 L513,159 L514,152 L517,143 L519,134 L519,131 L519,130 L519,130 L519,130 L519,131 L519,132 L519,137 L519,144 L519,150 L519,153 L519,154 L519,153 L519,152 L521,148 L522,141 L524,138 L524,137 L524,137 L524,142 L523,154 L523,163 L522,177 L522,182 L522,182 L522,182 L522,182 L523,180 L524,175 L526,166 L529,154 L530,147 L531,145 L531,144 L531,145 L531,146 L531,150 L531,157 L531,162 L531,169 L530,171 L530,172 L530,172 L530,171 L530,170 L531,166 L532,161 L533,156 L533,155 L533,155 L533,156 L533,157 L533,163 L533,171 L533,180 L533,182 L533,182 L533,181 L534,178 L534,174 L535,169 L535,164 L536,162 L536,162 L536,165 L535,170 L534,179 L532,190 L532,192 L532,193 L532,192 L532,192 L532,190 L532,186 L533,181 L534,176 L534,173 L534,173 L534,173 L534,174 L534,175 L534,179 L533,187 L533,190 L533,191 L533,190 L533,189 L533,186 L535,180 L537,174 L537,169 L538,166 L538,165 L538,166 L538,166 L538,168 L537,173 L536,181 L536,183 L535,185 L535,185 L535,183 L535,176 L535,169 L535,162 L535,158 L535,159 L535,160 L535,166 L535,174 L535,181 L535,184 L535,184 L535,184 L535,183 L536,182 L537,179 L539,172 L540,166 L541,162 L541,163 L541,166 L541,173 L541,184 L541,191 L541,200 L541,205 L541,205 L541,205 L542,204 L542,203 L542,200 L543,196 L544,191 L544,191 L544,196 L544,203 L543,210 L543,216 L543,215 L544,210 L546,204 L547,197 L547,195 L547,194 L547,195 L547,200 L546,208 L546,219 L545,227 L545,229 L545,229 L545,229 L545,228 L546,225 L548,219 L548,214 L549,211 L549,210 L549,210 L549,211 L549,214 L549,220 L549,225 L549,227 L549,231 L549,230 L549,227 L549,223 L551,216 L551,213 L551,212 L551,212 L551,215 L551,220 L551,226 L551,232 L551,234 L551,234 L551,233 L551,232 L551,232 L551,234 L551,246 L551,254 L551,259 L552,259 L552,259 L552,259 L552,258 L552,256 L553,251 L555,245 L555,240 L555,239 L555,239 L555,239 L556,240 L556,241 L556,245 L556,247 L556,247 L556,247 L556,247 L556,245 L557,241 L557,237 L557,234 L557,233 L557,234 L558,238 L558,244 L559,249 L559,251 L559,252 L560,250 L560,248 L561,241 L563,233 L563,231 L563,230 L563,231 L563,235 L563,241 L563,248 L564,252 L564,254 L564,254 L564,252 L564,245 L565,235 L567,221 L568,207 L569,197 L569,195 L569,195 L569,197 L569,200 L569,207 L568,213 L568,218 L568,219 L568,219 L568,218 L568,217 L568,212 L569,206 L570,198 L571,188 L572,184 L572,183 L572,183 L572,184 L571,188 L571,191 L570,195 L570,195 L570,194 L570,192 L570,188 L571,182 L571,176 L572,174 L572,175 L572,175 L571,181 L571,191 L570,203 L569,212 L569,214 L569,213 L569,213 L569,210 L570,205 L572,192 L572,190 L573,180 L573,176 L573,176 L573,176 L573,180 L573,187 L572,194 L571,200 L571,201 L571,201 L571,201 L571,199 L572,195 L573,188 L575,178 L575,175 L575,173 L575,173 L575,173 L575,175 L573,182 L570,197 L568,209 L567,217 L567,218 L567,218 L567,217 L567,215 L569,210 L571,199 L573,191 L573,189 L573,189 L574,189 L577,189 L583,188 L585,189 L587,189 L588,190 L589,191 L589,191 L589,192 L589,192 L589,192 L589,192 L588,192 L588,192 L588,192 L588,192 L588,192 L588,193 L587,193 L587,193 L587,194 L586,194 L586,195 L586,195 L586,195 L585,195 L585,195 L585,195 L584,196 L582,198 L580,199 L579,201 L579,201 L579,201 L579,201 L579,201 L579,200 L579,200 L579,199 L580,195 L580,191 L581,188 L582,184 L583,179 L583,176 L584,174 L584,172 L584,171 L584,171 L584,171 L584,172 L584,172 L584,171 L584,171 L584,168 L583,164 L583,161 L583,161 L583,161 L583,163 L583,169 L583,179 L584,182 L584,183 L584,183 L584,182 L584,180 L585,176 L586,167 L588,161 L589,154 L589,154 L589,155 L589,159 L588,163 L588,167 L587,169 L587,170 L587,170 L587,170 L587,169 L587,167 L586,162 L586,158 L586,157 L586,158 L585,161 L585,170 L584,180 L584,187 L584,190 L584,190 L584,190 L584,187 L584,185 L584,178 L584,169 L584,165 L584,163 L584,163 L584,165 L584,168 L583,170 L582,172 L582,173 L582,172 L582,171 L582,165 L582,158 L582,152 L581,151 L581,151 L581,151 L581,159 L581,169 L581,185 L582,194 L583,197 L583,196 L584,191 L586,179 L587,164 L588,151 L588,144 L588,143 L588,144 L588,146 L588,152 L588,158 L588,165 L588,169 L588,169 L588,169 L588,167 L588,162 L590,152 L591,145 L591,141 L591,141 L591,141 L591,141 L591,143 L591,145 L590,147 L590,148 L590,147 L591,144 L592,140 L593,135 L594,132 L594,131 L594,131 L594,134 L594,142 L594,153 L594,161 L594,167 L594,169 L594,169 L594,168 L594,165 L595,160 L595,152 L595,144 L595,141 L595,141 L595,144 L595,149 L595,158 L595,164 L595,167 L595,167 L595,166 L595,165 L595,160 L595,156 L596,151 L596,149 L596,149 L596,149 L596,152 L594,166 L594,179 L594,186 L594,191 L594,193 L594,192 L594,191 L595,184 L596,174 L597,161 L599,147 L601,137 L601,132 L601,129 L601,130 L601,130 L601,133 L600,143 L599,155 L597,165 L596,176 L596,179 L596,180 L596,180 L596,178 L595,175 L594,165 L593,153 L593,140 L593,136 L593,135 L593,135 L593,140 L593,149 L593,168 L593,190 L594,206 L594,211 L594,213 L594,212 L595,207 L596,198 L597,186 L599,169 L601,159 L602,146 L603,138 L604,134 L604,133 L604,133 L604,133 L604,137 L604,140 L604,145 L604,150 L604,165 L604,170 L604,173 L604,174 L604,173 L605,173 L605,170 L606,163 L607,152 L609,139 L610,130 L610,124 L610,124 L610,124 L610,126 L610,139 L610,152 L610,165 L610,172 L610,173 L610,173 L610,173 L610,169 L610,160 L611,151 L613,139 L613,132 L613,127 L613,127 L613,127 L613,128 L613,134 L613,143 L613,149 L613,154 L613,159 L614,159 L615,154 L617,144 L618,133 L619,125 L619,119 L619,113 L619,112 L619,113 L619,113 L619,118 L619,125 L619,132 L619,138 L620,142 L620,143 L620,143 L620,143 L620,142 L621,138 L622,133 L622,128 L622,123 L622,118 L622,116 L622,114 L622,114 L622,114 L622,116 L622,121 L622,130 L622,143 L622,151 L622,155 L622,156 L622,156 L622,156 L622,155 L623,151 L624,144 L625,135 L625,126 L626,118 L626,112 L626,107 L626,107 L626,107 L626,110 L626,118 L627,126 L627,133 L627,138 L627,138 L627,138 L627,138 L627,137 L628,133 L630,125 L631,118 L631,111 L631,107 L631,106 L631,108 L631,110 L630,138 L630,150 L630,169 L631,186 L631,187 L632,187 L632,185 L633,180 L635,169 L636,157 L637,145 L637,133 L637,124 L637,121 L637,118 L637,119 L637,119 L637,122 L636,127 L635,131 L635,133 L635,133 L635,132 L635,129 L635,127 L635,119 L635,113 L634,109 L634,109 L634,109 L634,110 L634,110 L634,115 L633,120 L633,125 L632,129 L632,130 L632,129 L632,129 L633,125 L633,121 L634,116 L634,112 L634,110 L634,110 L634,110 L634,114 L634,125 L634,131 L634,134 L634,135 L634,134 L634,134 L635,131 L636,126 L638,118 L640,111 L640,105 L641,102 L641,101 L641,101 L641,103 L641,107 L641,118 L641,124 L641,131 L641,133 L641,133 L641,133 L641,133 L642,129 L644,124 L646,114 L647,108 L648,105 L648,104 L648,104 L648,105 L648,107 L649,113 L650,126 L651,133 L652,139 L652,140 L653,140 L653,140 L653,139 L654,137 L656,129 L659,118 L661,111 L661,109 L661,107 L661,106 L661,107 L661,107 L661,110 L660,115 L659,121 L659,125 L659,126 L659,127 L659,127 L659,127 L659,126 L659,126 L659,124 L659,124 L659,124 L659,125 L659,129 L659,142 L660,155 L661,166 L661,170 L661,170 L661,170 L661,169 L662,167 L663,164 L664,160 L664,155 L664,155 L664,155 L664,157 L664,163 L663,170 L662,175 L662,177 L662,177 L662,177 L662,177 L662,175 L663,165 L664,159 L665,151 L665,149 L665,149 L665,151 L664,155 L663,160 L662,166 L661,170 L661,170 L661,170 L661,169 L661,167 L661,159 L661,153 L661,149 L661,149 L661,158 L660,161 L660,171 L660,175 L660,176 L660,176 L661,176 L661,175 L662,169 L664,166 L664,164 L664,163 L664,163 L664,167 L664,174 L664,184 L663,192 L663,200 L663,202 L664,202 L664,202 L665,199 L669,186 L670,180 L672,173 L672,172 L672,172 L672,172 L672,174 L672,183 L672,192 L672,208 L671,218 L671,222 L671,222 L671,222 L672,214 L674,207 L675,199 L675,194 L675,193 L675,193 L675,193 L675,196 L675,201 L674,210 L673,218 L673,221 L673,220 L673,218 L674,215 L674,210 L675,205 L675,204 L675,204 L675,205 L675,207 L674,212 L674,220 L673,226 L673,229 L673,229 L673,229 L673,228 L673,226 L674,224 L674,222 L674,221 L674,221 L674,222 L674,226 L674,230 L674,234 L674,235 L674,234 L675,231 L676,225 L677,222 L677,222 L677,222 L677,223 L677,227 L677,232 L677,238 L677,240 L677,239 L677,239 L677,238 L677,235 L678,232 L678,229 L678,229 L678,229 L678,230 L678,233 L678,237 L678,239 L678,241 L678,241 L678,241 L678,240 L678,239 L678,236 L678,234 L679,232 L679,232 L679,233 L679,239 L679,247 L680,257 L680,262 L681,265 L681,264 L681,262 L682,256 L684,245 L686,232 L687,219 L688,211 L688,208 L688,208 L688,211 L688,216 L687,221 L686,227 L686,227 L686,227 L686,226 L686,224 L686,219 L688,205 L688,200 L688,186 L688,185 L688,185 L688,186 L688,188 L688,192 L687,193 L687,193 L687,193 L688,189 L688,186 L689,180 L690,174 L690,173 L690,172 L690,173 L690,173 L690,175 L690,178 L690,180 L690,180 L690,179 L690,179 L691,178 L691,177 L691,177 L691,177 L691,178 L690,179 L687,185 L684,191 L684,191 L686,191 L686,190 L687,188 L687,188 L687,188 L687,188 L687,188 L687,188 L687,188 L688,187 L688,184 L689,182 L689,180 L689,180 L689,180 L689,180 L689,182 L689,186 L689,188 L689,189 L689,189 L689,189 L689,187 L691,182 L694,174 L695,167 L696,164 L696,164 L696,164 L696,165 L696,167 L696,172 L696,177 L696,181 L696,184 L696,186 L696,187 L696,186 L696,185 L696,181 L697,179 L697,176 L697,176 L697,176 L697,179 L696,184 L696,191 L695,203 L695,210 L695,210 L695,210 L696,210 L696,208 L696,205 L698,196 L700,188 L701,176 L702,171 L702,169 L702,169 L702,169 L702,172 L702,183 L701,195 L700,204 L699,210 L699,212 L699,211 L699,211 L699,209 L700,205 L700,199 L701,187 L701,183 L701,178 L701,177 L701,178 L701,178 L701,181 L701,184 L700,189 L700,192 L700,193 L700,194 L700,194 L700,195 L700,195 L699,197 L699,200 L699,201 L699,202 L699,204 L699,205 L699,207 L699,208 L699,209 L699,208 L700,206 L701,200 L704,188 L707,172 L708,164 L708,163 L708,163 L708,166 L708,173 L708,178 L708,186 L708,191 L708,193 L708,193 L708,192 L709,190 L711,182 L714,167 L719,149 L722,136 L723,128 L724,124 L724,125 L724,125 L723,127 L722,135 L721,143 L720,152 L720,159 L720,161 L720,162 L719,161 L719,161 L719,157 L719,152 L719,146 L719,143 L719,142 L719,142 L719,147 L719,150 L718,163 L719,170 L719,176 L720,179 L720,179 L720,179 L720,177 L720,171 L721,168 L722,149 L723,139 L724,125 L724,123 L724,123 L724,124 L723,131 L722,142 L720,152 L720,162 L719,166 L719,166 L719,166 L719,166 L719,166 L719,162 L718,157 L718,149 L717,140 L716,134 L716,133 L716,133 L716,141 L714,152 L713,170 L712,182 L712,185 L712,185 L712,183 L713,179 L714,172 L714,163 L714,156 L715,151 L715,150 L715,150 L715,151 L714,155 L714,160 L713,165 L712,170 L712,171 L712,170 L712,170 L712,167 L712,158 L712,149 L713,139 L714,129 L714,121 L714,121 L714,121 L714,126 L714,133 L714,143 L714,149 L714,151 L714,150 L714,148 L715,143 L717,135 L719,124 L721,117 L721,117 L721,117 L721,122 L721,129 L721,138 L721,147 L722,150 L722,150 L722,150 L722,148 L724,142 L726,134 L728,125 L730,113 L730,112 L730,112 L730,116 L729,126 L729,136 L729,143 L729,146 L729,147 L729,146 L729,144 L730,136 L731,132 L733,123 L736,111 L737,108 L737,107 L737,108 L737,111 L737,116 L737,124 L737,129 L737,132 L737,133 L737,132 L737,131 L738,128 L739,120 L741,112 L744,96 L744,93 L744,93 L744,98 L743,106 L741,120 L740,134 L739,141 L739,144 L739,145 L739,144 L739,144 L739,142 L739,138 L740,126 L741,118 L741,108 L741,108 L741,108 L741,111 L740,119 L738,130 L738,139 L737,146 L737,148 L737,147 L737,142 L739,126 L739,115 L740,103 L740,102 L740,102 L740,104 L740,113 L739,125 L738,140 L737,152 L737,156 L737,156 L737,154 L737,152 L739,146 L742,131 L746,121 L746,116 L747,116 L747,116 L747,117 L746,123 L745,129 L744,136 L744,143 L743,145 L743,145 L743,145 L744,143 L744,142 L747,133 L749,125 L750,119 L751,117 L751,118 L751,119 L750,122 L750,127 L749,136 L748,141 L747,145 L747,145 L747,145 L747,142 L748,136 L752,120 L755,109 L756,102 L757,100 L757,100 L757,101 L756,105 L756,111 L754,120 L753,129 L752,139 L751,143 L751,144 L751,144 L751,143 L751,142 L752,136 L753,129 L754,119 L755,114 L755,113 L755,114 L755,115 L753,122 L751,134 L751,138 L750,143 L749,145 L749,145 L749,143 L750,138 L752,130 L754,122 L755,118 L755,117 L755,117 L755,119 L755,120 L753,128 L750,146 L747,163 L744,176 L743,179 L743,179 L743,177 L744,172 L746,165 L748,155 L750,147 L750,146 L750,146 L750,146 L750,149 L750,156 L748,164 L748,170 L747,174 L747,174 L747,173 L748,171 L750,165 L752,157 L754,149 L758,139 L758,136 L758,135 L758,136 L758,136 L758,141 L757,146 L756,151 L755,158 L755,161 L755,161 L755,161 L755,161 L756,158 L758,151 L760,145 L761,140 L762,137 L762,136 L762,137 L762,138 L762,144 L760,156 L759,165 L758,168 L758,169 L758,169 L758,169 L759,164 L760,159 L761,152 L762,146 L762,145 L761,156 L759,179 L759,179 L759,179 L760,176 L761,171 L763,163 L764,159 L764,157 L764,157 L764,158 L763,163 L762,176 L760,184 L760,191 L760,193 L760,192 L760,190 L761,185 L761,180 L762,173 L762,173 L762,173 L762,175 L761,180 L759,189 L759,193 L759,193 L759,193 L759,193 L759,191 L760,186 L761,183 L761,180 L761,180 L761,180 L760,188 L760,199 L759,210 L759,215 L759,218 L759,218 L759,217 L759,214 L761,209 L762,204 L763,200 L763,200 L763,200 L763,201 L763,205 L763,214 L763,219 L764,223 L764,225 L764,225 L764,225 L764,225 L764,224 L765,220 L767,216 L767,213 L767,212 L767,212 L767,214 L767,217 L767,222 L768,227 L768,229 L768,230 L768,230 L768,229 L769,227 L769,224 L770,220 L770,217 L770,215 L770,215 L770,215 L770,217 L770,219 L770,223 L769,228 L769,228 L769,228 L769,228 L769,226 L769,221 L770,217 L771,210 L772,202 L772,198 L772,199 L772,199 L772,200 L772,203 L772,209 L771,218 L771,224 L771,229 L771,230 L771,230 L771,229 L771,226 L772,221 L773,215 L774,209 L774,206 L774,207 L774,207 L774,213 L773,221 L772,231 L772,234 L772,233 L772,231 L773,227 L774,219 L775,213 L775,210 L775,210 L775,211 L775,211 L775,216 L774,221 L774,225 L773,230 L773,229 L773,228 L774,224 L774,221 L775,217 L775,215 L775,218 L774,224 L773,233 L772,243 L772,248 L772,249 L772,248 L772,245 L773,241 L774,235 L775,228 L776,223 L776,222 L776,222 L776,223 L776,227 L776,231 L776,235 L776,237 L776,237 L776,238 L776,238 L776,239 L776,241 L776,243 L776,244 L776,244 L776,244 L777,242 L778,238 L779,232 L781,224 L781,221 L781,220 L781,220 L781,221 L781,222 L781,226 L781,229 L781,231 L781,230 L781,228 L782,222 L783,216 L784,208 L785,202 L785,199 L785,199 L785,199 L785,199 L785,201 L786,206 L786,212 L786,213 L786,212 L788,206 L792,195 L795,179 L799,164 L803,147 L804,142 L804,142 L804,143 L804,145 L803,153 L803,165 L802,172 L802,175 L802,177 L802,176 L803,174 L804,169 L805,162 L806,152 L808,142 L808,137 L808,136 L808,137 L808,143 L807,156 L806,171 L805,182 L805,186 L805,187 L805,186 L805,186 L805,183 L805,178 L805,172 L805,163 L805,157 L805,157 L805,157 L805,160 L804,169 L803,175 L803,182 L803,187 L802,188 L802,188 L802,186 L802,181 L802,173 L802,163 L802,160 L802,160 L802,160 L802,164 L802,170 L801,178 L801,187 L800,194 L800,194 L800,194 L800,193 L800,189 L800,181 L799,168 L798,151 L797,143 L797,141 L797,141 L796,146 L795,165 L795,173 L795,172 L802,133 L802,138 L801,148 L801,160 L801,171 L801,176 L801,176 L801,176 L801,176 L802,171 L804,163 L806,151 L809,133 L811,126 L811,125 L811,125 L811,126 L811,132 L810,139 L809,152 L809,159 L808,164 L808,165 L808,165 L808,165 L808,164 L808,160 L809,152 L810,141 L811,136 L811,135 L811,136 L811,137 L811,144 L811,153 L811,159 L811,162 L811,163 L811,162 L812,161 L812,155 L816,139 L817,129 L820,116 L820,112 L820,112 L820,115 L820,118 L820,128 L819,139 L819,151 L819,159 L819,163 L819,162 L819,162 L820,156 L820,151 L821,143 L821,136 L821,135 L821,135 L821,136 L821,138 L821,143 L821,148 L821,153 L821,154 L822,150 L822,143 L824,135 L826,125 L827,117 L827,116 L827,117 L827,117 L827,119 L826,124 L826,131 L826,135 L826,139 L826,140 L826,139 L826,139 L826,135 L828,130 L829,122 L830,117 L830,113 L831,112 L831,112 L831,115 L830,122 L829,131 L829,138 L829,141 L829,142 L829,142 L829,141 L829,137 L829,129 L830,120 L830,114 L830,109 L830,109 L830,109 L830,111 L830,118 L829,123 L829,130 L829,137 L829,141 L829,141 L829,141 L829,138 L831,133 L833,126 L836,116 L836,113 L837,111 L837,111 L837,112 L837,115 L836,126 L834,142 L834,150 L834,153 L834,153 L834,152 L834,147 L836,138 L837,127 L840,113 L841,106 L842,99 L842,99 L842,99 L841,103 L841,109 L839,121 L838,126 L838,128 L838,129 L838,128 L838,128 L839,125 L840,117 L842,111 L844,101 L845,93 L845,92 L845,93 L845,93 L845,99 L844,110 L844,117 L844,121 L844,122 L844,121 L844,120 L845,118 L846,114 L848,109 L849,106 L849,106 L849,106 L849,109 L849,113 L848,119 L848,123 L848,124 L848,124 L849,121 L849,119 L852,112 L857,99 L860,89 L862,80 L863,77 L863,77 L863,77 L861,84 L860,92 L858,103 L856,113 L855,119 L854,124 L854,124 L854,124 L854,124 L854,122 L854,121 L855,118 L855,116 L856,114 L856,114 L856,114 L856,114 L856,115 L854,122 L853,130 L853,131 L853,132 L853,133 L853,132 L853,132 L853,130 L855,122 L857,117 L858,112 L858,110 L858,111 L858,113 L857,119 L855,128 L853,136 L852,143 L852,144 L852,144 L852,140 L853,137 L854,132 L855,131 L855,132 L855,132 L855,135 L854,141 L853,147 L853,150 L853,151 L853,151 L853,150 L854,147 L856,143 L858,138 L858,137 L858,137 L858,138 L858,139 L858,145 L857,151 L856,155 L856,157 L856,158 L856,157 L856,156 L856,154 L856,152 L856,152 L856,152 L856,155 L855,162 L854,172 L853,182 L853,187 L853,189 L853,188 L853,188 L854,185 L856,180 L857,175 L858,173 L858,171 L858,171 L858,172 L858,173 L858,177 L858,179 L858,181 L858,182 L858,182 L858,182 L859,180 L861,176 L863,170 L866,165 L867,162 L867,163 L867,164 L867,167 L868,175 L869,183 L870,193 L870,197 L870,197 L871,197 L871,194 L872,188 L874,177 L875,168 L876,156 L876,153 L876,155 L876,159 L876,163 L876,169 L877,171 L877,172 L877,172 L877,171 L877,169 L878,164 L880,154 L882,145 L883,134 L883,130 L883,130 L883,130 L883,132 L883,135 L883,144 L883,153 L883,155 L884,155 L884,155 L884,153 L886,147 L888,140 L890,126 L892,114 L892,110 L892,110 L892,110 L892,112 L892,116 L892,120 L892,124 L893,127 L893,130 L894,131 L894,131 L894,131 L895,132 L895,134 L896,137 L896,139 L897,139 L897,139 L897,138 L897,135 L897,129 L897,122 L897,120 L897,119 L897,120 L897,120 L897,123 L897,127 L897,135 L897,142 L898,150 L899,152 L899,152 L899,151 L900,143 L900,138 L901,130 L902,120 L902,116 L902,117 L902,117 L902,118 L903,120 L903,122 L903,125 L903,125 L904,123 L905,117 L908,106 L911,91 L912,76 L913,68 L913,66 L913,66 L913,67 L913,74 L913,80 L913,92 L914,108 L914,114 L914,114 L914,114 L914,114 L915,110 L916,103 L916,94 L917,83 L917,74 L918,70 L918,70 L918,70 L918,70 L918,71 L918,73 L918,74 L918,74 L918,74 L919,72 L919,69 L920,62 L920,60 L920,58 L920,57 L920,57 L920,57 L920,57 L920,56 L920,56 L920,56 L920,55 L921,54 L921,54 L921,53 L921,53 L921,52 L921,52 L921,52 L921,52 L921,53 L921,57 L921,65 L921,75 L921,86 L922,99 L922,106 L922,109 L922,109 L922,109 L922,109 L922,109 L922,109 L922,109 L922,113 L922,119 L923,132 L924,142 L924,146 L924,147 L924,147 L925,146 L925,143 L928,134 L929,125 L931,120 L932,117 L932,116 L932,116 L932,116 L931,118 L931,125 L930,135 L928,147 L927,155 L926,159 L926,160 L926,159 L927,157 L928,153 L928,148 L929,144 L930,142 L930,141 L930,142 L930,144 L930,149 L930,155 L930,165 L930,175 L930,182 L930,182 L930,182 L930,181 L931,179 L931,177 L932,175 L932,176 L932,177 L931,180 L931,184 L931,188 L930,192 L930,195 L930,196 L930,196 L930,196 L930,195 L930,195 L930,196 L930,197 L930,198 L929,202 L929,204 L929,211 L929,213 L929,217 L929,219 L929,221 L929,222 L929,222 L929,223 L929,223 L929,223 L929,224 L929,225 L929,225 L929,225 L929,226 L930,226 L930,229 L930,230 L930,233 L931,234 L931,235 L931,236 L931,236 L931,236 L931,236 L931,236 L931,237 L931,237 L931,237 L931,237 L931,238 L931,238 L931,238 L931,238 L931,238 L931,238 L931,238 L931,237" fill="none" stroke="red" stroke-width="3"/></svg>