<svg xmlns="http://www.w3.org/2000/svg" version="1.1" xmlns:xlink="http://www.w3.org/1999/xlink" xmlns:svgjs="http://svgjs.dev/svgjs" width="950" height="375" id="chartSvg"><path d="M76,83 L75,83 L76,84 L78,86 L80,88 L83,91 L87,96 L91,102 L95,110 L101,117 L106,125 L111,133 L117,141 L123,149 L128,157 L134,166 L141,174 L147,182 L154,190 L161,198 L168,205 L177,211 L185,216 L195,221 L204,225 L214,227 L223,227 L234,227 L244,224 L254,222 L263,220 L271,216 L280,211 L288,206 L294,202 L300,198 L304,195 L306,193 L308,191 L308,190 L309,190 L309,191 L310,191 L310,192 L311,192 L313,192 L315,192 L317,191 L320,191 L322,191 L324,191 L326,191 L327,192 L329,193 L330,194 L331,195 L332,197 L333,198 L335,200 L336,201 L337,202 L339,203 L341,204 L343,205 L344,206 L346,207 L347,207 L349,207 L353,207 L357,205 L362,201 L368,198 L375,196 L381,195 L386,194 L392,195 L396,196 L400,199 L404,201 L408,202 L413,202 L418,202 L423,202 L429,202 L435,200 L440,200 L447,200 L452,200 L457,200 L463,201 L469,202 L476,202 L485,200 L495,198 L505,195 L516,193 L528,193 L538,192 L550,192 L561,192 L572,193 L583,193 L594,193 L605,194 L616,196 L626,199 L636,202 L647,204 L659,206 L670,209 L681,212 L693,215 L705,219 L716,222 L727,226 L738,229 L748,231 L760,233 L770,235 L780,237 L789,240 L798,242 L804,244 L811,246 L816,249 L820,251 L824,254 L827,254 L830,254 L831,255 L830,255" fill="none" stroke="red" stroke-width="3"/></svg>