<svg xmlns="http://www.w3.org/2000/svg" xmlns:xlink="http://www.w3.org/1999/xlink" version="1.1" class="marks" width="1010" height="385" viewBox="0 0 1010 385"><rect width="1010" height="385" fill="white"/><g fill="none" stroke-miterlimit="10" transform="translate(5,5)"><g class="mark-group role-frame root" role="graphics-object" aria-roledescription="group mark container"><g transform="translate(0,0)"><path class="background" aria-hidden="true" d="M0.5,0.5h1000v375h-1000Z" stroke="#ddd"/><g><g class="mark-group role-axis" role="graphics-symbol" aria-roledescription="axis" aria-label="X-axis for a linear scale with values from 0 to 240"><g transform="translate(0.5,375.5)"><path class="background" aria-hidden="true" d="M0,0h0v0h0Z" pointer-events="none"/><g><g class="mark-rule role-axis-domain" pointer-events="none"><line transform="translate(0,0)" x2="1000" y2="0" stroke="#888" stroke-width="1" opacity="1"/></g></g><path class="foreground" aria-hidden="true" d="" pointer-events="none" display="none"/></g></g><g class="mark-group role-axis" role="graphics-symbol" aria-roledescription="axis" aria-label="Y-axis for a linear scale with values from 10 to 100"><g transform="translate(0.5,0.5)"><path class="background" aria-hidden="true" d="M0,0h0v0h0Z" pointer-events="none"/><g><g class="mark-rule role-axis-domain" pointer-events="none"><line transform="translate(0,375)" x2="0" y2="-375" stroke="#888" stroke-width="1" opacity="1"/></g></g><path class="foreground" aria-hidden="true" d="" pointer-events="none" display="none"/></g></g><g class="mark-line role-mark marks" role="graphics-object" aria-roledescription="line mark container"><path aria-label="x: 1; y: 40.2127286492" role="graphics-symbol" aria-roledescription="line mark" d="M4.167,249.114L8.333,297.571L12.5,264.696L16.667,164.57L20.833,231.75L25,135.54L29.167,78.749L33.333,169.968L37.5,121.911L41.667,119.217L45.833,149.86L50,211.851L54.167,235.076L58.333,279.324L62.5,225.123L66.667,235.773L70.833,200.152L75,150.961L79.167,136.698L83.333,98.569L87.5,131.705L91.667,177.023L95.833,251.947L100,118.044L104.167,248.758L108.333,286.297L112.5,208.026L116.667,186.135L120.833,173.785L125,197.052L129.167,131.808L133.333,212.464L137.5,207.423L141.667,197.075L145.833,205.065L150,224.595L154.167,300.559L158.333,262.664L162.5,246.543L166.667,287.209L170.833,277.812L175,220.05L179.167,193.305L183.333,196.043L187.5,282.71L191.667,281.835L195.833,278.299L200,279.468L204.167,325.735L208.333,320.621L212.5,261.013L216.667,261.581L220.833,239.106L225,203.471L229.167,163.042L233.333,192.155L237.5,284.673L241.667,248.698L245.833,287.518L250,291.591L254.167,301.058L258.333,338.701L262.5,283.538L266.667,266.773L270.833,238.23L275,238.516L279.167,141.053L283.333,270.749L287.5,184.654L291.667,251.057L295.833,240.955L300,280.008L304.167,307.31L308.333,318.705L312.5,242.275L316.667,266.553L320.833,276.223L325,213.075L329.167,239.205L333.333,223.744L337.5,217.551L341.667,260.312L345.833,290.998L350,271.382L354.167,278.629L358.333,328.819L362.5,287.17L366.667,217.078L370.833,250.901L375,207.821L379.167,157.872L383.333,205.305L387.5,183.641L391.667,213.479L395.833,250.225L400,304.004L404.167,307.204L408.333,319.115L412.5,336.57L416.667,244.047L420.833,217.18L425,237.585L429.167,193.705L433.333,215.791L437.5,244.851L441.667,264.572L445.833,270.249L450,256.288L454.167,323.4L458.333,316.563L462.5,280.983L466.667,217.55L470.833,227.998L475,210.63L479.167,235.041L483.333,186.696L487.5,284.549L491.667,263.714L495.833,292.858L500,315.065L504.167,298.225L508.333,321.236L512.5,328.609L516.667,289.178L520.833,258.849L525,230.581L529.167,178.427L533.333,265.206L537.5,246.924L541.667,240.345L545.833,268.11L550,255.824L554.167,233.845L558.333,305.797L562.5,197.117L566.667,240.465L570.833,204.856L575,207.48L579.167,202.527L583.333,184.411L587.5,240.42L591.667,273.079L595.833,260.148L600,316.35L604.167,248.489L608.333,365.256L612.5,349.719L616.667,313.787L620.833,217.059L625,234.357L629.167,230.031L633.333,202.297L637.5,237.267L641.667,287.643L645.833,305.298L650,261.037L654.167,344.676L658.333,329.981L662.5,314.89L666.667,267.674L670.833,246.082L675,257.189L679.167,262.99L683.333,210.396L687.5,212.199L691.667,265.801L695.833,254.581L700,256.143L704.167,289.353L708.333,340.519L712.5,266.355L716.667,278.071L720.833,199.85L725,209.716L729.167,191.144L733.333,177.352L737.5,134.066L741.667,278.294L745.833,252.512L750,269.885L754.167,193.765L758.333,224.971L762.5,224.218L766.667,239.97L770.833,132.224L775,86.158L779.167,126.672L783.333,13.077L787.5,147.299L791.667,75.039L795.833,84.438L800,175.07L804.167,184.787L808.333,206.46L812.5,241.212L816.667,218.876L820.833,183.73L825,53.976L829.167,101.09L833.333,173.169L837.5,147.869L841.667,167.736L845.833,233.813L850,265.71L854.167,236.892L858.333,244.964L862.5,270.119L866.667,248.143L870.833,192.245L875,183.092L879.167,154.449L883.333,175.018L887.5,191.757L891.667,189.807L895.833,223.666L900,235.842L904.167,322.301L908.333,316.161L912.5,273.685L916.667,163.788L920.833,209.621L925,202.534" stroke="#4c78a8" stroke-width="2"/></g></g><path class="foreground" aria-hidden="true" d="" display="none"/></g></g></g></svg>