<svg xmlns="http://www.w3.org/2000/svg" xmlns:xlink="http://www.w3.org/1999/xlink" version="1.1" class="marks" width="1012" height="385" viewBox="0 0 1012 385"><rect width="1012" height="385" fill="white"/><g fill="none" stroke-miterlimit="10" transform="translate(7,5)"><g class="mark-group role-frame root" role="graphics-object" aria-roledescription="group mark container"><g transform="translate(0,0)"><path class="background" aria-hidden="true" d="M0.5,0.5h1000v375h-1000Z" stroke="#ddd"/><g><g class="mark-group role-axis" role="graphics-symbol" aria-roledescription="axis" aria-label="X-axis for a linear scale with values from 0 to 1,300"><g transform="translate(0.5,375.5)"><path class="background" aria-hidden="true" d="M0,0h0v0h0Z" pointer-events="none"/><g><g class="mark-rule role-axis-domain" pointer-events="none"><line transform="translate(0,0)" x2="1000" y2="0" stroke="#888" stroke-width="1" opacity="1"/></g></g><path class="foreground" aria-hidden="true" d="" pointer-events="none" display="none"/></g></g><g class="mark-group role-axis" role="graphics-symbol" aria-roledescription="axis" aria-label="Y-axis for a linear scale with values from 40 to 320"><g transform="translate(0.5,0.5)"><path class="background" aria-hidden="true" d="M0,0h0v0h0Z" pointer-events="none"/><g><g class="mark-rule role-axis-domain" pointer-events="none"><line transform="translate(0,375)" x2="0" y2="-375" stroke="#888" stroke-width="1" opacity="1"/></g></g><path class="foreground" aria-hidden="true" d="" pointer-events="none" display="none"/></g></g><g class="mark-line role-mark marks" role="graphics-object" aria-roledescription="line mark container"><path aria-label="x: 1; y: 93.6730152805" role="graphics-symbol" aria-roledescription="line mark" d="M0.769,303.116L1.538,263.212L2.308,276.328L3.077,301.96L3.846,277.898L4.615,271.95L5.385,260.959L6.154,270.439L6.923,323.967L7.692,276.097L8.462,281.399L9.231,231.779L10,246.835L10.769,291.736L11.538,321.978L12.308,284.408L13.077,254.387L13.846,286.662L14.615,246.982L15.385,262.321L16.154,299.813L16.923,274.414L17.692,283.249L18.462,240.075L19.231,243.345L20,285.611L20.769,295.018L21.538,265.19L22.308,230.529L23.077,247.719L23.846,266.542L24.615,276.694L25.385,272.192L26.154,225.63L26.923,258.581L27.692,257.325L28.462,255.758L29.231,257.477L30,291.989L30.769,269.344L31.538,229.319L32.308,265.357L33.077,271.454L33.846,257.588L34.615,253.568L35.385,269.148L36.154,268.911L36.923,264.354L37.692,295.019L38.462,266.405L39.231,270.075L40,275.386L40.769,287.215L41.538,258.666L42.308,261.361L43.077,288.224L43.846,250.99L44.615,230.291L45.385,255.844L46.154,252.76L46.923,247.058L47.692,259.06L48.462,232.957L49.231,251.015L50,291.661L50.769,265.203L51.538,273.888L52.308,261.819L53.077,246.418L53.846,231.055L54.615,268.672L55.385,285.35L56.154,222.291L56.923,281.2L57.692,252.499L58.462,272.37L59.231,251.24L60,300.101L60.769,231.494L61.538,270.088L62.308,261.178L63.077,266.124L63.846,244.942L64.615,294.442L65.385,266.115L66.154,258.717L66.923,258.696L67.692,300.7L68.462,211.2L69.231,238.562L70,271.363L70.769,275.139L71.538,279.783L72.308,228.74L73.077,237.314L73.846,218.944L74.615,245.057L75.385,269.345L76.154,235.498L76.923,287.693L77.692,272.437L78.462,266.118L79.231,285.362L80,255.521L80.769,247.259L81.538,255.272L82.308,238.069L83.077,270.436L83.846,235.429L84.615,271.91L85.385,282.302L86.154,229.8L86.923,260.072L87.692,251.401L88.462,281.324L89.231,242.642L90,234.636L90.769,239.507L91.538,254.589L92.308,245.289L93.077,262.355L93.846,253.251L94.615,259.298L95.385,272.373L96.154,286.686L96.923,254.296L97.692,235.08L98.462,252.585L99.231,269.982L100,245.041L100.769,275.859L101.538,226.649L102.308,254.007L103.077,262.648L103.846,270.772L104.615,241.448L105.385,265.597L106.154,264.973L106.923,280.91L107.692,226.66L108.462,251.889L109.231,260.834L110,274.62L110.769,277.692L111.538,260.362L112.308,289.678L113.077,278.838L113.846,252.945L114.615,278.352L115.385,278.794L116.154,295.357L116.923,300.783L117.692,299.151L118.462,279.02L119.231,286.49L120,272.717L120.769,309.129L121.538,255.242L122.308,270.148L123.077,289.18L123.846,291.516L124.615,291.448L125.385,271.473L126.154,270.579L126.923,272.772L127.692,288.446L128.462,325.452L129.231,275.162L130,312.462L130.769,280.478L131.538,285.596L132.308,267.735L133.077,241.454L133.846,253.046L134.615,291.356L135.385,282.859L136.154,277.623L136.923,288.319L137.692,288.732L138.462,276.452L139.231,263.054L140,247.935L140.769,261.383L141.538,296.436L142.308,251.891L143.077,302.292L143.846,297.043L144.615,282.865L145.385,264.809L146.154,292.511L146.923,299.239L147.692,278.435L148.462,260.866L149.231,278.372L150,289.646L150.769,287.703L151.538,316.4L152.308,305.747L153.077,275.203L153.846,239.416L154.615,251.347L155.385,276.205L156.154,271.084L156.923,240.533L157.692,274.311L158.462,298.76L159.231,283.591L160,276.301L160.769,273.291L161.538,293.476L162.308,318.801L163.077,270.774L163.846,253.154L164.615,253.779L165.385,322.939L166.154,244.094L166.923,256.808L167.692,246.237L168.462,256.133L169.231,287.06L170,282.755L170.769,254.718L171.538,241.863L172.308,308.574L173.077,275.781L173.846,295.203L174.615,308.61L175.385,210.924L176.154,270.244L176.923,273.362L177.692,281.702L178.462,252.568L179.231,268.728L180,270.349L180.769,254.606L181.538,251.847L182.308,263.081L183.077,279.739L183.846,269.013L184.615,285.101L185.385,271.975L186.154,271.2L186.923,313.387L187.692,295.809L188.462,278.217L189.231,281.973L190,288.379L190.769,316.969L191.538,293.632L192.308,292.248L193.077,244.54L193.846,328.255L194.615,273.899L195.385,272.109L196.154,319.355L196.923,288.897L197.692,256.459L198.462,292.889L199.231,305.214L200,258.53L200.769,266.358L201.538,304.011L202.308,299.482L203.077,298.186L203.846,310.696L204.615,267.612L205.385,297.733L206.154,311.731L206.923,302.571L207.692,338.594L208.462,301.699L209.231,267.475L210,293.819L210.769,277.407L211.538,314.058L212.308,277.999L213.077,222.292L213.846,242.65L214.615,315.056L215.385,298.002L216.154,297.479L216.923,258.848L217.692,294.649L218.462,260.31L219.231,310.14L220,305.043L220.769,305.858L221.538,349.64L222.308,333.962L223.077,301.814L223.846,300.395L224.615,299.536L225.385,303.07L226.154,294.347L226.923,281.016L227.692,294.638L228.462,296.993L229.231,295.695L230,309.647L230.769,284.209L231.538,277.794L232.308,304.724L233.077,284.447L233.846,288.327L234.615,303.233L235.385,310.445L236.154,315.903L236.923,292.848L237.692,286.068L238.462,301.895L239.231,289.12L240,280.616L240.769,299.34L241.538,304.615L242.308,305.22L243.077,280.437L243.846,266.591L244.615,286.063L245.385,253.801L246.154,280.341L246.923,291.188L247.692,278.544L248.462,248.409L249.231,315.854L250,240.878L250.769,292.234L251.538,286.904L252.308,260.727L253.077,300.753L253.846,306.937L254.615,275.021L255.385,292.349L256.154,340.247L256.923,301.345L257.692,337.619L258.462,257.655L259.231,316.575L260,312.885L260.769,340.495L261.538,279.304L262.308,277.959L263.077,301.295L263.846,305.314L264.615,313.849L265.385,302.891L266.154,305.545L266.923,315.167L267.692,305.528L268.462,317.677L269.231,298.998L270,282.08L270.769,286.025L271.538,281.961L272.308,292.408L273.077,266.078L273.846,317.597L274.615,273.684L275.385,296.537L276.154,293.093L276.923,291.528L277.692,257.229L278.462,278.81L279.231,289.476L280,280.428L280.769,270.485L281.538,299.839L282.308,291.426L283.077,345.47L283.846,326.996L284.615,318.972L285.385,304.246L286.154,300.264L286.923,295.815L287.692,283.569L288.462,321.829L289.231,313.305L290,368.35L290.769,293.38L291.538,306.401L292.308,268.725L293.077,320.861L293.846,257.027L294.615,302.115L295.385,275.424L296.154,306.714L296.923,306.593L297.692,312.007L298.462,284.598L299.231,286.662L300,297.487L300.769,288.501L301.538,277.906L302.308,304.24L303.077,295.001L303.846,303.981L304.615,285.585L305.385,282.232L306.154,310.856L306.923,323.831L307.692,272.261L308.462,270.573L309.231,303.153L310,281.145L310.769,268.702L311.538,247.1L312.308,310.46L313.077,286.593L313.846,308.725L314.615,284.6L315.385,263.202L316.154,293.141L316.923,283.462L317.692,262.147L318.462,312.393L319.231,293.252L320,264.684L320.769,283.52L321.538,261.727L322.308,294.968L323.077,305.686L323.846,262.934L324.615,266.502L325.385,280.874L326.154,277.089L326.923,318.5L327.692,298.756L328.462,299.02L329.231,271.258L330,295.948L330.769,275.939L331.538,277.481L332.308,281.74L333.077,272.138L333.846,250.701L334.615,280.339L335.385,281.919L336.154,276.311L336.923,243.928L337.692,254.849L338.462,292.763L339.231,243.99L340,288.263L340.769,277.849L341.538,248.579L342.308,251.706L343.077,312.667L343.846,318.301L344.615,276.224L345.385,289.241L346.154,267.451L346.923,295.509L347.692,287.012L348.462,276.935L349.231,287.066L350,290.57L350.769,262.326L351.538,295.383L352.308,285.962L353.077,284.948L353.846,275.745L354.615,285.142L355.385,270.347L356.154,251.735L356.923,269.478L357.692,270.699L358.462,236.01L359.231,278.231L360,262.391L360.769,285.083L361.538,262.959L362.308,250.177L363.077,283.759L363.846,283.649L364.615,281.764L365.385,302.561L366.154,264.643L366.923,289.127L367.692,256.97L368.462,286.608L369.231,273.166L370,256.079L370.769,271.368L371.538,273.416L372.308,347.912L373.077,291.261L373.846,259.927L374.615,314.537L375.385,264.219L376.154,249.824L376.923,303.422L377.692,238.053L378.462,289.034L379.231,265.661L380,276.349L380.769,235.312L381.538,270.172L382.308,254.961L383.077,251.504L383.846,277.41L384.615,273.408L385.385,278.179L386.154,262.718L386.923,308.302L387.692,284.627L388.462,281.343L389.231,278.468L390,252.637L390.769,247.733L391.538,256.742L392.308,302.935L393.077,278.859L393.846,273.165L394.615,229.998L395.385,288.628L396.154,242.203L396.923,232.349L397.692,242.563L398.462,268.839L399.231,250.704L400,271.471L400.769,271.44L401.538,264.246L402.308,263.687L403.077,269.646L403.846,296.425L404.615,263.733L405.385,228.915L406.154,234.5L406.923,277.467L407.692,291.6L408.462,238.663L409.231,266.017L410,225.501L410.769,239.259L411.538,238.681L412.308,289.34L413.077,251.156L413.846,263.73L414.615,224.309L415.385,216.885L416.154,245.589L416.923,267.248L417.692,245.913L418.462,223.543L419.231,243.804L420,222.151L420.769,222.904L421.538,231.954L422.308,225.947L423.077,207.791L423.846,203.97L424.615,271.858L425.385,229.824L426.154,226.146L426.923,229.328L427.692,264.775L428.462,251.938L429.231,247.982L430,225.333L430.769,227.424L431.538,228.065L432.308,221.931L433.077,229.851L433.846,221.004L434.615,232.532L435.385,259.897L436.154,228.991L436.923,229.369L437.692,204.47L438.462,235.424L439.231,261.538L440,260.733L440.769,266.685L441.538,239.261L442.308,210.916L443.077,263.254L443.846,250.807L444.615,241.475L445.385,233.167L446.154,237.672L446.923,223.322L447.692,197.052L448.462,240.948L449.231,201.962L450,268.037L450.769,231.668L451.538,237.061L452.308,200.425L453.077,221.75L453.846,225.44L454.615,220.909L455.385,238.948L456.154,207.065L456.923,208.462L457.692,249.266L458.462,208.551L459.231,204.006L460,222.639L460.769,219.955L461.538,223.46L462.308,229.801L463.077,207.84L463.846,218.661L464.615,238.694L465.385,230.865L466.154,215.829L466.923,241.638L467.692,210.944L468.462,251.044L469.231,233.744L470,231.348L470.769,259.088L471.538,201.128L472.308,257.066L473.077,251.772L473.846,214.668L474.615,230.862L475.385,243.595L476.154,250.658L476.923,208.71L477.692,196.108L478.462,227.781L479.231,216.063L480,248.051L480.769,264.681L481.538,236.456L482.308,248.48L483.077,238.26L483.846,254.669L484.615,250.89L485.385,252.56L486.154,235.822L486.923,222.616L487.692,249.86L488.462,218.133L489.231,240.328L490,225.993L490.769,258.328L491.538,259.038L492.308,249.087L493.077,234.809L493.846,268.417L494.615,229.565L495.385,223.762L496.154,262.982L496.923,244.126L497.692,246.606L498.462,249.3L499.231,231.933L500,222.742L500.769,213.62L501.538,246.337L502.308,268.639L503.077,215.963L503.846,188.034L504.615,220.014L505.385,225.061L506.154,194.939L506.923,212.641L507.692,235.496L508.462,180.168L509.231,225.576L510,224.928L510.769,194.022L511.538,221.546L512.308,230.264L513.077,182.291L513.846,179.816L514.615,228.237L515.385,220.247L516.154,202.515L516.923,196.544L517.692,211.883L518.462,241.529L519.231,167.628L520,206.297L520.769,178.707L521.538,246.978L522.308,203.665L523.077,202.899L523.846,227.83L524.615,169.009L525.385,236.779L526.154,240.421L526.923,220.769L527.692,249.259L528.462,204.253L529.231,247.502L530,192.041L530.769,210.466L531.538,234.534L532.308,196.084L533.077,229.51L533.846,199.948L534.615,190.846L535.385,232.035L536.154,229.007L536.923,261.691L537.692,229.717L538.462,241.356L539.231,190.108L540,192.437L540.769,234.512L541.538,223.747L542.308,189.313L543.077,259.857L543.846,209.239L544.615,239.301L545.385,239.6L546.154,229.528L546.923,216.3L547.692,230.514L548.462,207.194L549.231,205.631L550,248.534L550.769,210.918L551.538,171.81L552.308,237.421L553.077,194.371L553.846,213.243L554.615,190.902L555.385,199.717L556.154,221.507L556.923,167.813L557.692,189.605L558.462,208.204L559.231,203.415L560,177.39L560.769,214.074L561.538,189.666L562.308,166.711L563.077,182.958L563.846,201.731L564.615,212.481L565.385,212.579L566.154,205.889L566.923,241.57L567.692,211.025L568.462,212.639L569.231,200.131L570,232.062L570.769,194.799L571.538,226.638L572.308,186.913L573.077,226.101L573.846,188.026L574.615,173.833L575.385,197.786L576.154,213.921L576.923,162.806L577.692,190.604L578.462,218.35L579.231,215.357L580,242.692L580.769,192.271L581.538,215.874L582.308,174.912L583.077,225.807L583.846,209.61L584.615,177.974L585.385,168.44L586.154,211.455L586.923,202.638L587.692,200.847L588.462,179.891L589.231,191.138L590,176.807L590.769,195.713L591.538,192.154L592.308,214.593L593.077,147.612L593.846,210.993L594.615,176.997L595.385,205.96L596.154,165.148L596.923,203.871L597.692,210.988L598.462,199.071L599.231,245.943L600,200.462L600.769,225.132L601.538,223.532L602.308,222.69L603.077,219.69L603.846,206.542L604.615,180.713L605.385,147.962L606.154,186.594L606.923,249.45L607.692,178.513L608.462,236.353L609.231,210.687L610,215.233L610.769,191.093L611.538,209.282L612.308,225.791L613.077,181.971L613.846,198.667L614.615,219.007L615.385,176.752L616.154,187.338L616.923,195.214L617.692,192.882L618.462,155.71L619.231,229.472L620,140.291L620.769,208.723L621.538,192.805L622.308,234.343L623.077,230.639L623.846,233.098L624.615,266.007L625.385,170.988L626.154,188.373L626.923,155.558L627.692,207.79L628.462,229.738L629.231,204.081L630,201.459L630.769,176.582L631.538,199.812L632.308,245.164L633.077,192.283L633.846,179.362L634.615,215.543L635.385,197.104L636.154,167.854L636.923,166.896L637.692,241.226L638.462,212.188L639.231,192.45L640,196.267L640.769,224.553L641.538,179.219L642.308,226.344L643.077,209.658L643.846,190.04L644.615,233.194L645.385,177.596L646.154,196.137L646.923,176.585L647.692,206.864L648.462,230.31L649.231,182.386L650,159.603L650.769,172.266L651.538,195.058L652.308,176.778L653.077,169.349L653.846,183.316L654.615,184.759L655.385,183.31L656.154,184.612L656.923,229.028L657.692,159.558L658.462,159.766L659.231,144.811L660,200.372L660.769,175.84L661.538,177.543L662.308,185.508L663.077,172.607L663.846,152.635L664.615,188.707L665.385,169.636L666.154,186.822L666.923,172.617L667.692,180.72L668.462,157.409L669.231,164.7L670,159.366L670.769,190.191L671.538,169.66L672.308,169.939L673.077,218.553L673.846,173.856L674.615,207.797L675.385,211.182L676.154,179.456L676.923,160.709L677.692,199.242L678.462,171.921L679.231,174.764L680,183.146L680.769,182.731L681.538,166.551L682.308,163.348L683.077,192.804L683.846,168.142L684.615,184.403L685.385,202.591L686.154,207.228L686.923,213.912L687.692,173.396L688.462,143.932L689.231,164.136L690,160.037L690.769,155.923L691.538,198.714L692.308,187.902L693.077,153.261L693.846,136.162L694.615,145.897L695.385,186.091L696.154,174.193L696.923,151.881L697.692,173.602L698.462,189.171L699.231,146.728L700,127.925L700.769,156.728L701.538,172.338L702.308,156.854L703.077,125.433L703.846,145.167L704.615,168.765L705.385,121.797L706.154,149.375L706.923,110.634L707.692,120.756L708.462,100.315L709.231,111.163L710,130.96L710.769,149.35L711.538,116.281L712.308,126.527L713.077,106.062L713.846,141.084L714.615,180.555L715.385,149.525L716.154,146.515L716.923,147.649L717.692,127.373L718.462,142.389L719.231,118.326L720,107.093L720.769,139.313L721.538,173.725L722.308,115.916L723.077,145.646L723.846,167.045L724.615,104.661L725.385,160.702L726.154,154.034L726.923,125.926L727.692,177.506L728.462,107.481L729.231,124.674L730,152.114L730.769,129.2L731.538,128.865L732.308,132.663L733.077,145.39L733.846,119.578L734.615,143.576L735.385,125.283L736.154,158.629L736.923,136.2L737.692,163.67L738.462,110.868L739.231,153.492L740,101.348L740.769,103.072L741.538,138.624L742.308,136.716L743.077,145.872L743.846,142.596L744.615,188.42L745.385,152.15L746.154,144.358L746.923,123.777L747.692,157.747L748.462,164.973L749.231,185.211L750,212.623L750.769,194.166L751.538,184.717L752.308,158.6L753.077,188.427L753.846,174.793L754.615,167.753L755.385,201.938L756.154,217.288L756.923,201.433L757.692,194.255L758.462,153.933L759.231,200.764L760,221.932L760.769,165.278L761.538,204.362L762.308,201.076L763.077,168.96L763.846,194.871L764.615,198.986L765.385,195.812L766.154,195.354L766.923,189.847L767.692,215.362L768.462,193.891L769.231,201.681L770,292.214L770.769,287.031L771.538,227.195L772.308,213.457L773.077,207.646L773.846,185.063L774.615,195.168L775.385,222.881L776.154,206.171L776.923,196.243L777.692,236.264L778.462,207.543L779.231,245.393L780,193.962L780.769,237.988L781.538,264.374L782.308,212.816L783.077,197.073L783.846,225.674L784.615,231.448L785.385,211.322L786.154,216.172L786.923,208.366L787.692,198.923L788.462,229.494L789.231,209.985L790,186.705L790.769,188.322L791.538,207.178L792.308,232.605L793.077,161.882L793.846,235.727L794.615,194.224L795.385,223.112L796.154,177.478L796.923,181.285L797.692,208.544L798.462,207.92L799.231,194.93L800,195.548L800.769,205.628L801.538,202.052L802.308,155.543L803.077,181.432L803.846,217.556L804.615,186.65L805.385,207.539L806.154,192.393L806.923,179.879L807.692,170.529L808.462,213.882L809.231,166.664L810,219.826L810.769,178.991L811.538,200.471L812.308,200.468L813.077,197.99L813.846,170.942L814.615,189.939L815.385,180.512L816.154,165.572L816.923,150.485L817.692,199.851L818.462,193.459L819.231,183.958L820,154.164L820.769,193.951L821.538,161.33L822.308,198.163L823.077,184.25L823.846,152.882L824.615,132.714L825.385,153.419L826.154,111.506L826.923,142.406L827.692,155.311L828.462,200.738L829.231,148.351L830,145.658L830.769,166.892L831.538,140.616L832.308,183.593L833.077,177.592L833.846,107.581L834.615,131.295L835.385,178.195L836.154,161.844L836.923,109.199L837.692,158.366L838.462,138.776L839.231,116.982L840,154.901L840.769,134.403L841.538,166.023L842.308,160.264L843.077,152.342L843.846,176.161L844.615,158.435L845.385,209.866L846.154,134.249L846.923,161.078L847.692,185.858L848.462,195.576L849.231,191.681L850,189.297L850.769,198.027L851.538,149.497L852.308,182.728L853.077,193.689L853.846,182.159L854.615,192.113L855.385,207.549L856.154,174.284L856.923,185.242L857.692,148.054L858.462,187.401L859.231,147.554L860,140.373L860.769,165.711L861.538,149.625L862.308,175.136L863.077,193.684L863.846,148.315L864.615,170.79L865.385,187.901L866.154,155.192L866.923,162.286L867.692,145.05L868.462,161.419L869.231,168.439L870,182.159L870.769,187.004L871.538,203.07L872.308,166.917L873.077,134.559L873.846,160.818L874.615,155.595L875.385,147.095L876.154,158.614L876.923,148.337L877.692,129.043L878.462,160.388L879.231,107.077L880,142.834L880.769,117.838L881.538,177.996L882.308,106.099L883.077,147.461L883.846,145.587L884.615,126.756L885.385,135.876L886.154,193.262L886.923,156.326L887.692,160.777L888.462,141.072L889.231,161.23L890,162.212L890.769,155.4L891.538,191.978L892.308,145.973L893.077,159.792L893.846,158.178L894.615,174.604L895.385,187.063L896.154,115.999L896.923,183.297L897.692,163.647L898.462,116.585L899.231,182.97L900,154.26L900.769,171.534L901.538,210.625L902.308,136.836L903.077,130.535L903.846,149.851L904.615,129.26L905.385,144.747L906.154,127.235L906.923,116.26L907.692,158.885L908.462,108.225L909.231,113.045L910,150.594L910.769,140.087L911.538,167.229L912.308,147.203L913.077,141.328L913.846,157.202L914.615,127.85L915.385,144.492L916.154,141.704L916.923,82.41L917.692,136.74L918.462,122.147L919.231,132.537L920,150.488L920.769,173.387L921.538,126.311L922.308,121.932L923.077,152.447L923.846,90.049L924.615,119.499L925.385,121.377L926.154,87.483L926.923,113.373L927.692,105.571L928.462,157.002L929.231,116.168L930,124.812L930.769,129.225L931.538,106.696L932.308,94.295L933.077,138.396L933.846,97.343L934.615,125.473L935.385,110.816L936.154,87.411L936.923,44.21L937.692,120.757L938.462,91.483L939.231,62.05L940,64.047L940.769,63.233L941.538,35.78L942.308,64.195L943.077,112.531L943.846,84.619L944.615,65.264L945.385,88.598L946.154,27.004L946.923,92.801L947.692,86.206L948.462,45.909L949.231,104.27L950,64.968L950.769,62.975L951.538,40.897L952.308,60.241L953.077,84.259L953.846,69.796L954.615,42.635L955.385,80.413L956.154,24.974L956.923,92.861L957.692,51.834L958.462,56.258L959.231,61.988L960,68.784L960.769,32.457L961.538,69.065L962.308,16.571L963.077,87.314L963.846,68.624L964.615,46.13L965.385,62.945L966.154,62.071L966.923,41.251" stroke="#4c78a8" stroke-width="2"/></g></g><path class="foreground" aria-hidden="true" d="" display="none"/></g></g></g></svg>