<svg xmlns="http://www.w3.org/2000/svg" xmlns:xlink="http://www.w3.org/1999/xlink" version="1.1" class="marks" width="1012" height="385" viewBox="0 0 1012 385"><rect width="1012" height="385" fill="white"/><g fill="none" stroke-miterlimit="10" transform="translate(7,5)"><g class="mark-group role-frame root" role="graphics-object" aria-roledescription="group mark container"><g transform="translate(0,0)"><path class="background" aria-hidden="true" d="M0.5,0.5h1000v375h-1000Z" stroke="#ddd"/><g><g class="mark-group role-axis" role="graphics-symbol" aria-roledescription="axis" aria-label="X-axis for a linear scale with values from 0 to 1,300"><g transform="translate(0.5,375.5)"><path class="background" aria-hidden="true" d="M0,0h0v0h0Z" pointer-events="none"/><g><g class="mark-rule role-axis-domain" pointer-events="none"><line transform="translate(0,0)" x2="1000" y2="0" stroke="#888" stroke-width="1" opacity="1"/></g></g><path class="foreground" aria-hidden="true" d="" pointer-events="none" display="none"/></g></g><g class="mark-group role-axis" role="graphics-symbol" aria-roledescription="axis" aria-label="Y-axis for a linear scale with values from −100 to 400"><g transform="translate(0.5,0.5)"><path class="background" aria-hidden="true" d="M0,0h0v0h0Z" pointer-events="none"/><g><g class="mark-rule role-axis-domain" pointer-events="none"><line transform="translate(0,375)" x2="0" y2="-375" stroke="#888" stroke-width="1" opacity="1"/></g></g><path class="foreground" aria-hidden="true" d="" pointer-events="none" display="none"/></g></g><g class="mark-line role-mark marks" role="graphics-object" aria-roledescription="line mark container"><path aria-label="x: 1; y: 82.066861687" role="graphics-symbol" aria-roledescription="line mark" d="M0.769,238.45L1.538,215.31L2.308,273.388L3.077,203.288L3.846,180.201L4.615,218.238L5.385,120.448L6.154,200.439L6.923,159.151L7.692,174.853L8.462,289.174L9.231,214.301L10,248.603L10.769,234.563L11.538,287.915L12.308,225.96L13.077,131.561L13.846,174.27L14.615,148.052L15.385,163.291L16.154,218.948L16.923,249.509L17.692,251.67L18.462,166.682L19.231,235.273L20,215.434L20.769,174.769L21.538,285.982L22.308,136.935L23.077,265.65L23.846,249.481L24.615,298.797L25.385,247.107L26.154,197.729L26.923,183.436L27.692,205.339L28.462,229.699L29.231,197.38L30,181.242L30.769,184.693L31.538,195.111L32.308,223.488L33.077,182.019L33.846,234.45L34.615,165.179L35.385,210.15L36.154,236.836L36.923,214.904L37.692,229.895L38.462,231.694L39.231,176.762L40,204.315L40.769,223.108L41.538,254.959L42.308,162.316L43.077,140.954L43.846,215.446L44.615,204.601L45.385,178.091L46.154,224.323L46.923,208.334L47.692,189.148L48.462,206.564L49.231,196.735L50,278.768L50.769,269.062L51.538,286.324L52.308,243.398L53.077,175.314L53.846,223.546L54.615,248.86L55.385,252.089L56.154,197.453L56.923,208.415L57.692,201.336L58.462,162.153L59.231,238.546L60,276.062L60.769,203.748L61.538,196.192L62.308,266.42L63.077,197.916L63.846,167.122L64.615,160.515L65.385,235.119L66.154,226.446L66.923,152.338L67.692,260.033L68.462,194.433L69.231,220.412L70,222.242L70.769,189.348L71.538,148.236L72.308,186.043L73.077,164.935L73.846,268.831L74.615,179.358L75.385,176.351L76.154,150.123L76.923,180.53L77.692,199.666L78.462,166.673L79.231,159.086L80,209.742L80.769,210.514L81.538,200.999L82.308,172.792L83.077,215.558L83.846,214.643L84.615,200.357L85.385,190.213L86.154,239.378L86.923,237.202L87.692,201.578L88.462,261.685L89.231,163.018L90,169.341L90.769,193.544L91.538,235.127L92.308,230.857L93.077,148.089L93.846,175.57L94.615,215.471L95.385,210.732L96.154,277.58L96.923,219.708L97.692,194.198L98.462,137.413L99.231,215.129L100,217.463L100.769,216.562L101.538,136.498L102.308,218.707L103.077,237.392L103.846,198.643L104.615,162.937L105.385,152.861L106.154,268.344L106.923,181.834L107.692,230.806L108.462,209.869L109.231,205.703L110,238.844L110.769,196.202L111.538,242.552L112.308,155.307L113.077,218.478L113.846,232.325L114.615,192.456L115.385,184.959L116.154,194.355L116.923,248.987L117.692,232.12L118.462,183.04L119.231,188.565L120,183.516L120.769,271.011L121.538,157.101L122.308,240.779L123.077,264.433L123.846,212.56L124.615,189.997L125.385,235.075L126.154,268.481L126.923,177.147L127.692,167.806L128.462,186.026L129.231,189.095L130,288.75L130.769,181.25L131.538,247.865L132.308,241.198L133.077,149.223L133.846,227.688L134.615,190.977L135.385,182.452L136.154,255.013L136.923,222.679L137.692,191.034L138.462,242.783L139.231,173.367L140,174.117L140.769,176.371L141.538,219.356L142.308,173.944L143.077,256.631L143.846,173.433L144.615,291.874L145.385,245.566L146.154,198.755L146.923,231.264L147.692,189.724L148.462,165.399L149.231,196.396L150,297.693L150.769,174.049L151.538,193.763L152.308,210.345L153.077,107.554L153.846,275.127L154.615,173.14L155.385,217.782L156.154,232.453L156.923,181.266L157.692,202.373L158.462,212.812L159.231,233.037L160,239.012L160.769,179.3L161.538,173.568L162.308,234.642L163.077,191.725L163.846,225.177L164.615,226.588L165.385,261.093L166.154,212.099L166.923,272.172L167.692,189.642L168.462,186.519L169.231,189.954L170,207.274L170.769,191.307L171.538,213.854L172.308,205.199L173.077,199.442L173.846,233.816L174.615,221.701L175.385,168.015L176.154,210.064L176.923,153.497L177.692,240.085L178.462,171.412L179.231,211.922L180,238.525L180.769,206.205L181.538,252.035L182.308,255.045L183.077,212.708L183.846,207.329L184.615,228.907L185.385,219.31L186.154,253.6L186.923,246.132L187.692,250.565L188.462,229.808L189.231,174.016L190,165.47L190.769,255.757L191.538,160.722L192.308,171.112L193.077,200.909L193.846,247.202L194.615,170.704L195.385,204.241L196.154,225.474L196.923,243.491L197.692,184.687L198.462,237.953L199.231,265.838L200,221.182L200.769,208.127L201.538,287.879L202.308,221.834L203.077,200.513L203.846,241.973L204.615,79.234L205.385,200.908L206.154,205.734L206.923,237.626L207.692,246.134L208.462,246.597L209.231,215.999L210,279.41L210.769,256.235L211.538,242.647L212.308,237.306L213.077,212.414L213.846,217.187L214.615,235.423L215.385,125.424L216.154,226.901L216.923,206.825L217.692,220.883L218.462,216.255L219.231,246.536L220,288.144L220.769,230.575L221.538,321.347L222.308,157.383L223.077,187.388L223.846,213.808L224.615,279.996L225.385,240.922L226.154,205.743L226.923,165.975L227.692,202.069L228.462,184.607L229.231,209.693L230,272.684L230.769,163.705L231.538,217.33L232.308,221.128L233.077,182.538L233.846,213.412L234.615,261.716L235.385,252.016L236.154,231.035L236.923,175.291L237.692,282.125L238.462,239.291L239.231,251.106L240,232.113L240.769,278.252L241.538,193.268L242.308,280.613L243.077,219.862L243.846,195.854L244.615,187.057L245.385,197.561L246.154,168.244L246.923,221.926L247.692,212.853L248.462,211.457L249.231,237.535L250,223.99L250.769,220.112L251.538,244.969L252.308,214.71L253.077,195.885L253.846,216.389L254.615,232.425L255.385,252.19L256.154,215.193L256.923,238.929L257.692,211.815L258.462,232.707L259.231,233.386L260,171.68L260.769,255.546L261.538,191.207L262.308,240.551L263.077,211.797L263.846,234.145L264.615,183.98L265.385,224.665L266.154,298.816L266.923,275.212L267.692,209.198L268.462,158.859L269.231,169.314L270,188.388L270.769,223.554L271.538,184.732L272.308,229.109L273.077,219.894L273.846,197.606L274.615,169.116L275.385,203.429L276.154,232.63L276.923,271.009L277.692,176.019L278.462,198.609L279.231,268.008L280,219.268L280.769,177.531L281.538,223.756L282.308,226.11L283.077,196.506L283.846,222.831L284.615,284.993L285.385,258.271L286.154,248.699L286.923,288.412L287.692,212.494L288.462,238.483L289.231,194.164L290,251.567L290.769,269.385L291.538,340.196L292.308,207.478L293.077,222.376L293.846,220.264L294.615,228.925L295.385,257.336L296.154,262.481L296.923,284.912L297.692,261.973L298.462,261.418L299.231,167.398L300,263.777L300.769,228.834L301.538,192.121L302.308,213.995L303.077,311.618L303.846,214.957L304.615,242.743L305.385,201.504L306.154,194.171L306.923,263.716L307.692,220.423L308.462,238.827L309.231,205.084L310,264.323L310.769,192.432L311.538,187.225L312.308,261.53L313.077,192.729L313.846,209.724L314.615,191.05L315.385,149.935L316.154,186.109L316.923,228.542L317.692,274.036L318.462,274.184L319.231,193.167L320,201.802L320.769,240.506L321.538,157.391L322.308,250.46L323.077,205.008L323.846,267.923L324.615,197.016L325.385,237.248L326.154,144.889L326.923,260.855L327.692,200.378L328.462,234.914L329.231,179.577L330,253.491L330.769,292.339L331.538,226.869L332.308,219.469L333.077,230.611L333.846,228.767L334.615,192.944L335.385,182.385L336.154,263.914L336.923,113.342L337.692,227.432L338.462,290.537L339.231,188.775L340,248.797L340.769,245.465L341.538,187.268L342.308,205.145L343.077,195.82L343.846,160.526L344.615,274.03L345.385,210.493L346.154,210.72L346.923,250.116L347.692,292.965L348.462,248.787L349.231,226.269L350,208.872L350.769,201.936L351.538,227.741L352.308,278.899L353.077,159.949L353.846,246.313L354.615,191.927L355.385,167.96L356.154,209.633L356.923,213.471L357.692,210.75L358.462,261.384L359.231,256.564L360,163.204L360.769,251.454L361.538,177.185L362.308,198.323L363.077,274.395L363.846,225.209L364.615,100.431L365.385,250.104L366.154,188.909L366.923,233.681L367.692,160.65L368.462,227.933L369.231,159.803L370,172.518L370.769,191.175L371.538,193.275L372.308,255.443L373.077,216.479L373.846,198.283L374.615,140.772L375.385,213.595L376.154,249.433L376.923,258.212L377.692,150.769L378.462,164.622L379.231,221.96L380,237.305L380.769,177.823L381.538,208.557L382.308,180.905L383.077,218.001L383.846,197.509L384.615,222.898L385.385,164.069L386.154,202.068L386.923,248.763L387.692,226.085L388.462,189.939L389.231,258.832L390,179.629L390.769,169.11L391.538,192.939L392.308,230.157L393.077,239.514L393.846,207.505L394.615,205.339L395.385,198.016L396.154,252.729L396.923,269.417L397.692,181.349L398.462,225.229L399.231,215.039L400,172.163L400.769,209.126L401.538,166.097L402.308,203.009L403.077,226.929L403.846,225.991L404.615,214.637L405.385,186.021L406.154,135.521L406.923,229.021L407.692,218.464L408.462,190.867L409.231,187.344L410,167.817L410.769,152.864L411.538,154.85L412.308,167.699L413.077,225.571L413.846,165.523L414.615,217.391L415.385,163.691L416.154,226.899L416.923,261.01L417.692,206.538L418.462,130.294L419.231,171.415L420,190.144L420.769,198.98L421.538,173.716L422.308,282.292L423.077,191.896L423.846,178.667L424.615,287.651L425.385,163.164L426.154,211.832L426.923,177.41L427.692,194.989L428.462,247.044L429.231,172.985L430,176.665L430.769,175.411L431.538,184.371L432.308,210.777L433.077,153.799L433.846,115.667L434.615,295.811L435.385,211.352L436.154,160.531L436.923,204.703L437.692,188.782L438.462,173.637L439.231,211.027L440,225.317L440.769,247.143L441.538,153.295L442.308,152.689L443.077,183.002L443.846,172.094L444.615,248.712L445.385,231.729L446.154,161.038L446.923,240.498L447.692,177.951L448.462,201.12L449.231,153.227L450,164.851L450.769,188.604L451.538,218.624L452.308,113.79L453.077,170.535L453.846,197.346L454.615,187.409L455.385,202.636L456.154,193.848L456.923,156.539L457.692,127.883L458.462,158.826L459.231,173.896L460,147.324L460.769,155.394L461.538,244.648L462.308,129.268L463.077,182.819L463.846,133.632L464.615,200.828L465.385,255.878L466.154,87.586L466.923,175.222L467.692,228.432L468.462,226.267L469.231,189.95L470,169.152L470.769,222.199L471.538,132.579L472.308,214.815L473.077,183.347L473.846,158.343L474.615,224.996L475.385,186.108L476.154,176.048L476.923,135.666L477.692,176.32L478.462,222.321L479.231,278.697L480,146.301L480.769,157.016L481.538,207.045L482.308,201.379L483.077,147.931L483.846,177.211L484.615,250.952L485.385,253.848L486.154,145.48L486.923,194.103L487.692,185.132L488.462,188.69L489.231,193.648L490,286.724L490.769,202.9L491.538,136.841L492.308,153.581L493.077,109.256L493.846,208.012L494.615,171.691L495.385,212.3L496.154,162.797L496.923,240.603L497.692,232.48L498.462,240.067L499.231,104.898L500,165.223L500.769,180.858L501.538,222.158L502.308,195.578L503.077,181.708L503.846,153.446L504.615,154.782L505.385,173.581L506.154,162.41L506.923,146.675L507.692,282.647L508.462,191.799L509.231,94.545L510,171.522L510.769,211.37L511.538,201.521L512.308,260.579L513.077,210.058L513.846,104.922L514.615,208.609L515.385,181.332L516.154,139.164L516.923,150.666L517.692,225.298L518.462,274.255L519.231,137.592L520,215.518L520.769,191.595L521.538,187.316L522.308,205.579L523.077,134.69L523.846,183.642L524.615,130.308L525.385,200.805L526.154,256.693L526.923,168.746L527.692,158.674L528.462,154.445L529.231,176.093L530,190.978L530.769,148.321L531.538,172.322L532.308,167.143L533.077,178.861L533.846,164.656L534.615,208.425L535.385,198.444L536.154,239.625L536.923,253.824L537.692,243.96L538.462,192.978L539.231,171.262L540,195.814L540.769,207.534L541.538,166.759L542.308,143.826L543.077,185.205L543.846,177.147L544.615,189.721L545.385,227.165L546.154,236.083L546.923,217.395L547.692,158.421L548.462,229.07L549.231,195.155L550,101.366L550.769,171.726L551.538,196.737L552.308,165.796L553.077,143.803L553.846,113.982L554.615,137.618L555.385,184.324L556.154,102.001L556.923,197.851L557.692,148.713L558.462,195.96L559.231,185.765L560,125.485L560.769,183.166L561.538,223.296L562.308,117.591L563.077,161.327L563.846,205.365L564.615,170.728L565.385,173.026L566.154,209.434L566.923,228.263L567.692,217.052L568.462,165.92L569.231,123.062L570,187.138L570.769,90.803L571.538,238.474L572.308,175.085L573.077,193.285L573.846,193.226L574.615,88.235L575.385,193.689L576.154,151.208L576.923,168.209L577.692,163.376L578.462,156.283L579.231,145.031L580,150.41L580.769,185.438L581.538,271.876L582.308,119.103L583.077,171.375L583.846,209.082L584.615,152.595L585.385,175.474L586.154,161.553L586.923,146.396L587.692,171.9L588.462,201.018L589.231,201.737L590,213.847L590.769,154.09L591.538,281.086L592.308,170.376L593.077,141.075L593.846,247.614L594.615,79.843L595.385,151.748L596.154,227.68L596.923,221.04L597.692,156.501L598.462,155.738L599.231,124.735L600,133.826L600.769,236.593L601.538,214.189L602.308,190.36L603.077,189.965L603.846,130.509L604.615,106.432L605.385,173.094L606.154,149.44L606.923,211.251L607.692,127.613L608.462,209.185L609.231,160.352L610,179.138L610.769,181.629L611.538,193.24L612.308,187.532L613.077,165.58L613.846,138.141L614.615,161.172L615.385,200.809L616.154,183.976L616.923,160.809L617.692,192.738L618.462,235.564L619.231,153.404L620,144.443L620.769,159.805L621.538,179.105L622.308,186.269L623.077,171.515L623.846,185.079L624.615,255.497L625.385,138.694L626.154,166.385L626.923,124.567L627.692,161.97L628.462,144.172L629.231,231.957L630,155.22L630.769,157.677L631.538,161.99L632.308,203.164L633.077,195.892L633.846,194.234L634.615,98.027L635.385,215.382L636.154,215.662L636.923,170.867L637.692,193.825L638.462,162.628L639.231,109.894L640,148.365L640.769,163.578L641.538,185.321L642.308,215.897L643.077,247.542L643.846,143.712L644.615,184.407L645.385,180.931L646.154,134.349L646.923,173.831L647.692,232.812L648.462,201.376L649.231,202.971L650,186.208L650.769,243.833L651.538,130.467L652.308,141.56L653.077,183.054L653.846,187.735L654.615,161.119L655.385,170.95L656.154,206.276L656.923,216.778L657.692,189.389L658.462,145.731L659.231,111.561L660,125.729L660.769,173.807L661.538,91.748L662.308,150.587L663.077,118.769L663.846,189.393L664.615,162.155L665.385,143.079L666.154,202.688L666.923,217.846L667.692,156.22L668.462,126.043L669.231,143.184L670,93.785L670.769,233.419L671.538,167.924L672.308,191.061L673.077,196.752L673.846,97.67L674.615,152.901L675.385,162.11L676.154,120.985L676.923,139.425L677.692,132.386L678.462,148.88L679.231,86.856L680,131.454L680.769,141.066L681.538,181.942L682.308,73.829L683.077,218.463L683.846,126.122L684.615,101.93L685.385,183.283L686.154,137.164L686.923,172.925L687.692,173.485L688.462,175.265L689.231,142.15L690,111.38L690.769,92.176L691.538,187.735L692.308,120.978L693.077,172.681L693.846,190.864L694.615,95.57L695.385,149.359L696.154,213.722L696.923,122.53L697.692,163.069L698.462,92.82L699.231,108.823L700,237.077L700.769,181.324L701.538,131.091L702.308,184.286L703.077,142.558L703.846,164.829L704.615,138.92L705.385,98.118L706.154,119.787L706.923,146.569L707.692,114.087L708.462,132.321L709.231,127.262L710,118.181L710.769,142.815L711.538,147.535L712.308,202.551L713.077,113.353L713.846,123.614L714.615,134.865L715.385,89.32L716.154,118.471L716.923,176.791L717.692,144.91L718.462,143.771L719.231,164.234L720,90.387L720.769,147.705L721.538,141.492L722.308,160.419L723.077,106.348L723.846,114.43L724.615,130.213L725.385,121.413L726.154,145.314L726.923,104.152L727.692,136.11L728.462,178.578L729.231,109.878L730,91.927L730.769,120.791L731.538,160.925L732.308,133.637L733.077,79.816L733.846,183.736L734.615,126.619L735.385,108.429L736.154,136.771L736.923,161.561L737.692,170.039L738.462,126.907L739.231,135.31L740,89.758L740.769,194.506L741.538,106.933L742.308,162.869L743.077,69.712L743.846,80.39L744.615,169.266L745.385,124.395L746.154,191.861L746.923,167.062L747.692,145.856L748.462,85.053L749.231,156.633L750,212.135L750.769,146.56L751.538,211.784L752.308,112.974L753.077,236.17L753.846,161.072L754.615,178.014L755.385,176.656L756.154,290.207L756.923,138.749L757.692,173.079L758.462,117.208L759.231,168.394L760,200.444L760.769,134.915L761.538,171.135L762.308,236.847L763.077,179.413L763.846,228.972L764.615,180.959L765.385,185.559L766.154,165.514L766.923,131.425L767.692,175.406L768.462,159.85L769.231,178.09L770,224.231L770.769,252.492L771.538,222.663L772.308,173.991L773.077,137.262L773.846,171.589L774.615,82.599L775.385,104.044L776.154,191.38L776.923,190.172L777.692,211.608L778.462,210.596L779.231,192.039L780,116.132L780.769,196.835L781.538,182.339L782.308,168.923L783.077,164.349L783.846,208.745L784.615,147.967L785.385,149.908L786.154,133.198L786.923,143.148L787.692,167.731L788.462,224.921L789.231,193.243L790,160.981L790.769,179.698L791.538,200.131L792.308,253.805L793.077,168.738L793.846,235.867L794.615,129.802L795.385,224.657L796.154,151.754L796.923,165.467L797.692,226.779L798.462,166.712L799.231,125.463L800,273.367L800.769,176.524L801.538,105.883L802.308,159.674L803.077,159.644L803.846,174.573L804.615,159.257L805.385,197.301L806.154,154.002L806.923,121.245L807.692,139.877L808.462,192.788L809.231,122.157L810,182.813L810.769,136.844L811.538,159.928L812.308,187.709L813.077,162.95L813.846,135.464L814.615,134.894L815.385,165.656L816.154,148.063L816.923,137.706L817.692,172.547L818.462,193.63L819.231,178.514L820,172.71L820.769,114.123L821.538,195.111L822.308,123.172L823.077,137.221L823.846,180.534L824.615,219.578L825.385,172.119L826.154,46.526L826.923,208.37L827.692,108.204L828.462,155.253L829.231,109.107L830,219.095L830.769,144.985L831.538,162.663L832.308,125.452L833.077,127.138L833.846,99.722L834.615,76.977L835.385,219.639L836.154,85.04L836.923,140.774L837.692,151.534L838.462,92.659L839.231,148.133L840,94.073L840.769,150.024L841.538,176.499L842.308,150.677L843.077,129.661L843.846,259.693L844.615,117.28L845.385,126.416L846.154,133.32L846.923,119.237L847.692,177.556L848.462,186.867L849.231,188.548L850,125.69L850.769,130.705L851.538,111.84L852.308,175.103L853.077,175.887L853.846,212.523L854.615,138.005L855.385,166.574L856.154,111.562L856.923,175.842L857.692,159.394L858.462,53.825L859.231,53.938L860,97.314L860.769,115.385L861.538,97.989L862.308,144.895L863.077,169.983L863.846,194.401L864.615,208.689L865.385,177.011L866.154,97.17L866.923,195.325L867.692,141.195L868.462,137.283L869.231,127.184L870,135.063L870.769,202.884L871.538,149.732L872.308,200.688L873.077,76.969L873.846,150.346L874.615,151.782L875.385,121.758L876.154,102.132L876.923,133.41L877.692,63.844L878.462,157.105L879.231,49.227L880,139.565L880.769,99.897L881.538,167.841L882.308,147.459L883.077,191.064L883.846,138.066L884.615,130.336L885.385,139.696L886.154,237.744L886.923,66.121L887.692,148.525L888.462,99.319L889.231,102.445L890,164.33L890.769,142.869L891.538,232.933L892.308,123.01L893.077,181.889L893.846,159.223L894.615,228.436L895.385,73.314L896.154,134.977L896.923,65.002L897.692,128.496L898.462,86.247L899.231,196.108L900,154.854L900.769,35.077L901.538,242.451L902.308,162.569L903.077,194.587L903.846,116.129L904.615,163.7L905.385,170.587L906.154,123.844L906.923,132.334L907.692,121.305L908.462,166.236L909.231,119.528L910,146.074L910.769,117.625L911.538,174.688L912.308,187.704L913.077,185.11L913.846,113.021L914.615,157.818L915.385,162.307L916.154,86.261L916.923,96.209L917.692,133.156L918.462,102.999L919.231,174.735L920,182.98L920.769,153.679L921.538,88.481L922.308,131.291L923.077,144.941L923.846,66.104L924.615,104.011L925.385,97.578L926.154,109.142L926.923,186.227L927.692,109.71L928.462,108.464L929.231,148.312L930,172.627L930.769,136.223L931.538,118.619L932.308,106.436L933.077,148.621L933.846,35.458L934.615,120.726L935.385,59.454L936.154,137.491L936.923,36.133L937.692,184.771L938.462,106.501L939.231,127.708L940,129.679L940.769,76.862L941.538,46.225L942.308,134.122L943.077,115.831L943.846,80.25L944.615,135.386L945.385,76.185L946.154,106.228L946.923,113.93L947.692,151.071L948.462,88.429L949.231,97.706L950,79.711L950.769,89.207L951.538,91.397L952.308,64.308L953.077,121.333L953.846,116.625L954.615,86.028L955.385,120.226L956.154,14.782L956.923,61.703L957.692,63.579L958.462,138.858L959.231,133.04L960,103.166L960.769,76.505L961.538,33.883L962.308,130.464L963.077,120.437L963.846,161.359L964.615,120.363L965.385,101.856L966.154,87.507L966.923,95.325" stroke="#4c78a8" stroke-width="2"/></g></g><path class="foreground" aria-hidden="true" d="" display="none"/></g></g></g></svg>