<svg xmlns="http://www.w3.org/2000/svg" xmlns:xlink="http://www.w3.org/1999/xlink" version="1.1" class="marks" width="1012" height="385" viewBox="0 0 1012 385"><rect width="1012" height="385" fill="white"/><g fill="none" stroke-miterlimit="10" transform="translate(7,5)"><g class="mark-group role-frame root" role="graphics-object" aria-roledescription="group mark container"><g transform="translate(0,0)"><path class="background" aria-hidden="true" d="M0.5,0.5h1000v375h-1000Z" stroke="#ddd"/><g><g class="mark-group role-axis" role="graphics-symbol" aria-roledescription="axis" aria-label="X-axis for a linear scale with values from 0 to 1,300"><g transform="translate(0.5,375.5)"><path class="background" aria-hidden="true" d="M0,0h0v0h0Z" pointer-events="none"/><g><g class="mark-rule role-axis-domain" pointer-events="none"><line transform="translate(0,0)" x2="1000" y2="0" stroke="#888" stroke-width="1" opacity="1"/></g></g><path class="foreground" aria-hidden="true" d="" pointer-events="none" display="none"/></g></g><g class="mark-group role-axis" role="graphics-symbol" aria-roledescription="axis" aria-label="Y-axis for a linear scale with values from 60 to 320"><g transform="translate(0.5,0.5)"><path class="background" aria-hidden="true" d="M0,0h0v0h0Z" pointer-events="none"/><g><g class="mark-rule role-axis-domain" pointer-events="none"><line transform="translate(0,375)" x2="0" y2="-375" stroke="#888" stroke-width="1" opacity="1"/></g></g><path class="foreground" aria-hidden="true" d="" pointer-events="none" display="none"/></g></g><g class="mark-line role-mark marks" role="graphics-object" aria-roledescription="line mark container"><path aria-label="x: 1; y: 108.383213203" role="graphics-symbol" aria-roledescription="line mark" d="M0.769,305.217L1.538,316.34L2.308,307.202L3.077,325.241L3.846,299.347L4.615,291.783L5.385,294.319L6.154,297.181L6.923,322.111L7.692,311.789L8.462,317.157L9.231,302.678L10,293.334L10.769,302.509L11.538,284.641L12.308,307.556L13.077,294.734L13.846,304.924L14.615,292.657L15.385,294.582L16.154,300.765L16.923,291.153L17.692,290.971L18.462,276.201L19.231,288.721L20,303.608L20.769,286.931L21.538,286.949L22.308,280.565L23.077,278.813L23.846,276.109L24.615,272.287L25.385,283.15L26.154,274.606L26.923,268.682L27.692,271.994L28.462,271.491L29.231,262.279L30,267.561L30.769,276.973L31.538,273.154L32.308,279.746L33.077,282.99L33.846,276.245L34.615,284.322L35.385,276.716L36.154,288.777L36.923,287.431L37.692,288.158L38.462,289.166L39.231,265.207L40,279.328L40.769,274.454L41.538,278.684L42.308,272.188L43.077,276.107L43.846,282.848L44.615,294.933L45.385,287.312L46.154,267.78L46.923,273.225L47.692,283.631L48.462,285.42L49.231,277.457L50,275.869L50.769,287.724L51.538,279.455L52.308,277.221L53.077,271.298L53.846,277.388L54.615,261.159L55.385,283.035L56.154,267.818L56.923,286.209L57.692,286.015L58.462,269.8L59.231,270.565L60,276.573L60.769,272.313L61.538,279.448L62.308,285.481L63.077,282.83L63.846,283.059L64.615,281.733L65.385,282.661L66.154,281.582L66.923,292.384L67.692,289L68.462,288.655L69.231,280.761L70,283.642L70.769,276.703L71.538,267.337L72.308,276.722L73.077,269.93L73.846,268.137L74.615,264.993L75.385,273.601L76.154,272.194L76.923,271.957L77.692,266.544L78.462,270.592L79.231,276.288L80,272.259L80.769,273.562L81.538,271.308L82.308,265.681L83.077,272.67L83.846,286.603L84.615,283.039L85.385,279.39L86.154,275.269L86.923,279.542L87.692,272.659L88.462,257.787L89.231,274.507L90,281.803L90.769,265.037L91.538,292.565L92.308,274.186L93.077,268.306L93.846,271.592L94.615,284.696L95.385,277.169L96.154,281.839L96.923,264.42L97.692,271.869L98.462,283.826L99.231,294.558L100,294.048L100.769,286.929L101.538,278.457L102.308,271.207L103.077,276.467L103.846,279.498L104.615,281.564L105.385,283.227L106.154,276.864L106.923,279.668L107.692,278.964L108.462,276.216L109.231,284.445L110,289.78L110.769,295.261L111.538,278.732L112.308,290.362L113.077,287.69L113.846,289.521L114.615,305.33L115.385,299.218L116.154,305.125L116.923,284.453L117.692,302.522L118.462,299.225L119.231,303.863L120,286.606L120.769,310.421L121.538,288.7L122.308,290.714L123.077,302.358L123.846,306.158L124.615,312.49L125.385,303.62L126.154,317.33L126.923,293.539L127.692,298.264L128.462,305.168L129.231,298.563L130,300.722L130.769,306.379L131.538,315.697L132.308,298.148L133.077,309.458L133.846,284.816L134.615,304.539L135.385,295.998L136.154,285.57L136.923,296.067L137.692,306.113L138.462,286.354L139.231,296.791L140,290.254L140.769,284.313L141.538,294.027L142.308,293.16L143.077,301.206L143.846,308.195L144.615,293.38L145.385,306.073L146.154,316.19L146.923,294.293L147.692,309.153L148.462,292.295L149.231,298.375L150,307.112L150.769,301.57L151.538,292.786L152.308,312.76L153.077,302.877L153.846,307.796L154.615,295.143L155.385,296.887L156.154,297.75L156.923,297.479L157.692,283.551L158.462,290.336L159.231,292.24L160,286.51L160.769,300.281L161.538,298.321L162.308,295.798L163.077,283.046L163.846,279.571L164.615,279.19L165.385,290.988L166.154,291.733L166.923,296.5L167.692,290.806L168.462,295.23L169.231,301.514L170,298.909L170.769,289.848L171.538,296.68L172.308,295.58L173.077,291.61L173.846,290.198L174.615,283.617L175.385,290.446L176.154,282.48L176.923,287.42L177.692,301.427L178.462,289.703L179.231,295.487L180,275.866L180.769,284.971L181.538,283.492L182.308,298.094L183.077,292.372L183.846,301.185L184.615,284.962L185.385,294.218L186.154,298.299L186.923,312.229L187.692,317.817L188.462,304.751L189.231,312.161L190,296.249L190.769,306.154L191.538,314.414L192.308,308.907L193.077,293.252L193.846,305.802L194.615,310.793L195.385,311.249L196.154,308.873L196.923,310.372L197.692,320.494L198.462,325.042L199.231,318.41L200,315.474L200.769,310.577L201.538,313.532L202.308,310.87L203.077,332.959L203.846,322.262L204.615,309.51L205.385,319.244L206.154,326.447L206.923,337.314L207.692,329.349L208.462,326.907L209.231,319.71L210,317.491L210.769,314.696L211.538,324.475L212.308,315.652L213.077,307.744L213.846,320.479L214.615,326.257L215.385,332.06L216.154,313.111L216.923,307.19L217.692,318.403L218.462,316.648L219.231,331.044L220,323.972L220.769,330.503L221.538,323.672L222.308,321.202L223.077,316.809L223.846,346.727L224.615,316.528L225.385,320.338L226.154,311.274L226.923,303.052L227.692,305.306L228.462,310.83L229.231,306.558L230,326.019L230.769,320.287L231.538,300.173L232.308,311.745L233.077,305.09L233.846,318.916L234.615,316.453L235.385,321.065L236.154,307.114L236.923,305.757L237.692,300.32L238.462,313.908L239.231,296.145L240,297.958L240.769,309.011L241.538,302.406L242.308,301.871L243.077,296.823L243.846,309.814L244.615,303.713L245.385,303.181L246.154,298.741L246.923,291.469L247.692,296.671L248.462,291.882L249.231,308.65L250,302.947L250.769,297.543L251.538,311.8L252.308,311.598L253.077,314.64L253.846,323.095L254.615,312.97L255.385,310.666L256.154,329.994L256.923,322.888L257.692,325.83L258.462,317.337L259.231,323.789L260,336.209L260.769,333.025L261.538,324.428L262.308,331.578L263.077,322.364L263.846,337.74L264.615,339.516L265.385,314.705L266.154,322.609L266.923,334.943L267.692,328.125L268.462,330.47L269.231,319.78L270,324.538L270.769,306.769L271.538,311.354L272.308,320.178L273.077,323.774L273.846,328.593L274.615,319.938L275.385,329.745L276.154,317.628L276.923,303.659L277.692,315.077L278.462,308.194L279.231,313.471L280,318.36L280.769,310.887L281.538,319.697L282.308,326.418L283.077,328.151L283.846,332.198L284.615,323.385L285.385,324.569L286.154,309.301L286.923,320.084L287.692,328.937L288.462,334.188L289.231,326.396L290,315.719L290.769,314.97L291.538,326.254L292.308,322.46L293.077,330.63L293.846,316.103L294.615,316.723L295.385,320.555L296.154,323.446L296.923,318.829L297.692,316.302L298.462,319.726L299.231,316.792L300,318.011L300.769,315.355L301.538,313.554L302.308,317.551L303.077,320.141L303.846,323.434L304.615,309.222L305.385,313.666L306.154,319.596L306.923,316.201L307.692,302.651L308.462,308.475L309.231,314.423L310,302.822L310.769,308.237L311.538,304.948L312.308,309.793L313.077,308.529L313.846,302.122L314.615,309.146L315.385,300.092L316.154,311.473L316.923,306.305L317.692,304.928L318.462,310.061L319.231,314.267L320,324.863L320.769,298.433L321.538,305.114L322.308,302.428L323.077,329.375L323.846,304.052L324.615,299.182L325.385,315.578L326.154,306.041L326.923,318.045L327.692,306.692L328.462,316.874L329.231,310.765L330,308.498L330.769,299.864L331.538,292.521L332.308,302.773L333.077,304.465L333.846,295.492L334.615,290.544L335.385,291.916L336.154,300.818L336.923,292.961L337.692,295.098L338.462,296.583L339.231,300.07L340,282.793L340.769,301.383L341.538,299.163L342.308,293.066L343.077,297.214L343.846,299.693L344.615,296.676L345.385,296.116L346.154,286.335L346.923,293.59L347.692,281.673L348.462,297.867L349.231,297.099L350,290.204L350.769,295.449L351.538,289.799L352.308,296.704L353.077,303.674L353.846,298.69L354.615,299.275L355.385,294.732L356.154,292.724L356.923,310.391L357.692,298.638L358.462,307.792L359.231,306.949L360,285.664L360.769,311.365L361.538,309.304L362.308,308.152L363.077,306.123L363.846,305.969L364.615,286.787L365.385,301.743L366.154,301.87L366.923,295.872L367.692,287.109L368.462,303.563L369.231,300.423L370,308.422L370.769,294.401L371.538,316.599L372.308,306.407L373.077,306.88L373.846,307.645L374.615,310.545L375.385,298.13L376.154,304.055L376.923,305.246L377.692,307.799L378.462,292.302L379.231,294.874L380,306.47L380.769,291.403L381.538,292.403L382.308,294.794L383.077,291.253L383.846,281.295L384.615,291.6L385.385,292.436L386.154,293.137L386.923,288.362L387.692,297.939L388.462,296.26L389.231,295.191L390,287.771L390.769,287.912L391.538,295.456L392.308,284.716L393.077,285.479L393.846,303.471L394.615,282.284L395.385,281.717L396.154,285.723L396.923,284.838L397.692,292.382L398.462,289.536L399.231,285.478L400,288.624L400.769,295.601L401.538,289.172L402.308,289.193L403.077,281.469L403.846,270.478L404.615,288.346L405.385,268.865L406.154,269.586L406.923,271.417L407.692,255.96L408.462,277.107L409.231,270.924L410,268.191L410.769,260.896L411.538,252.41L412.308,272.576L413.077,269.014L413.846,273.525L414.615,265.858L415.385,257.91L416.154,267.966L416.923,254.968L417.692,264.948L418.462,255.595L419.231,267.54L420,267.196L420.769,254.442L421.538,253.766L422.308,266.033L423.077,262.829L423.846,258.89L424.615,267.212L425.385,259.449L426.154,261.365L426.923,262.854L427.692,263.606L428.462,261.137L429.231,254.823L430,263.494L430.769,263.579L431.538,269.381L432.308,244.85L433.077,252.173L433.846,255.877L434.615,236.315L435.385,257.729L436.154,253.763L436.923,261.283L437.692,256.848L438.462,258.404L439.231,251.77L440,252.647L440.769,270.232L441.538,248.577L442.308,268.639L443.077,253.196L443.846,250.876L444.615,270.044L445.385,252.064L446.154,246.598L446.923,250.637L447.692,256.769L448.462,259.564L449.231,259.855L450,264.572L450.769,251.889L451.538,237.235L452.308,241.846L453.077,258.839L453.846,251.762L454.615,242.555L455.385,237.763L456.154,240.049L456.923,220.568L457.692,245.141L458.462,234.057L459.231,226.831L460,250.731L460.769,247.302L461.538,248.24L462.308,238.819L463.077,234.511L463.846,243.567L464.615,239.608L465.385,243.067L466.154,242.261L466.923,247.565L467.692,236.815L468.462,241.459L469.231,237.538L470,224.036L470.769,246.748L471.538,230.16L472.308,250.481L473.077,263.049L473.846,248.736L474.615,253.315L475.385,263.389L476.154,246.565L476.923,238.072L477.692,248.783L478.462,265.893L479.231,245.982L480,248.241L480.769,254.145L481.538,246.733L482.308,248.598L483.077,266.704L483.846,256.198L484.615,249.864L485.385,243.523L486.154,256.708L486.923,257.295L487.692,261.515L488.462,245.767L489.231,249.155L490,246.098L490.769,244.875L491.538,245.842L492.308,251.65L493.077,242.39L493.846,237.527L494.615,255.909L495.385,240.525L496.154,240.993L496.923,243.279L497.692,243.378L498.462,236.877L499.231,245.263L500,232.155L500.769,230.093L501.538,241.793L502.308,227.818L503.077,239.097L503.846,232.872L504.615,237.858L505.385,235.114L506.154,239.864L506.923,226.229L507.692,229.012L508.462,238.375L509.231,235.186L510,232.802L510.769,235.927L511.538,230.24L512.308,240.794L513.077,231.984L513.846,221.129L514.615,234.516L515.385,226.532L516.154,227.126L516.923,227.711L517.692,234.276L518.462,227.721L519.231,221.044L520,226.78L520.769,224.222L521.538,239.863L522.308,220.917L523.077,237.435L523.846,223.811L524.615,222.719L525.385,228.128L526.154,226.477L526.923,243.201L527.692,246.717L528.462,239.486L529.231,246.626L530,233.464L530.769,245.694L531.538,242.123L532.308,232.177L533.077,238.283L533.846,231.851L534.615,233.644L535.385,230.785L536.154,241.337L536.923,242.171L537.692,228.355L538.462,240.443L539.231,222.708L540,223.024L540.769,229.389L541.538,236.61L542.308,226.056L543.077,235.33L543.846,234.192L544.615,244.23L545.385,249.216L546.154,224.332L546.923,250.297L547.692,224.198L548.462,224.312L549.231,204.124L550,221.632L550.769,206.476L551.538,224.405L552.308,229.839L553.077,206.133L553.846,201.163L554.615,200.303L555.385,207.624L556.154,219.393L556.923,208.222L557.692,209.892L558.462,217.17L559.231,227.957L560,208.349L560.769,204.396L561.538,214.085L562.308,204.99L563.077,215.255L563.846,211.609L564.615,211.91L565.385,218.743L566.154,220.798L566.923,220.641L567.692,216.584L568.462,216.76L569.231,217.15L570,232.704L570.769,201.729L571.538,212.227L572.308,216.387L573.077,205.137L573.846,209.878L574.615,200.809L575.385,214.609L576.154,207.93L576.923,214.588L577.692,199.154L578.462,204.999L579.231,207.172L580,222.138L580.769,209.302L581.538,219.274L582.308,197.918L583.077,211.327L583.846,215.291L584.615,195.317L585.385,219.265L586.154,217.825L586.923,200.584L587.692,207.606L588.462,202.355L589.231,197.854L590,201.709L590.769,192.158L591.538,203.006L592.308,214.249L593.077,208.37L593.846,213.174L594.615,211.058L595.385,216.859L596.154,206.944L596.923,225.2L597.692,211.316L598.462,233.761L599.231,234.97L600,244.747L600.769,244.341L601.538,234.471L602.308,251.448L603.077,239.72L603.846,236.148L604.615,219.815L605.385,213.255L606.154,214.132L606.923,209.316L607.692,224.031L608.462,226.867L609.231,206.95L610,211.269L610.769,192.576L611.538,200.871L612.308,224.186L613.077,204.534L613.846,210.124L614.615,210.499L615.385,199.559L616.154,204.667L616.923,200.081L617.692,202.363L618.462,200.362L619.231,207.409L620,193.963L620.769,219.693L621.538,202.328L622.308,206.158L623.077,212.27L623.846,214.043L624.615,232.937L625.385,205.733L626.154,210.839L626.923,227.876L627.692,214.839L628.462,221.603L629.231,220.153L630,210.323L630.769,201.029L631.538,211.714L632.308,215.049L633.077,218.047L633.846,206.636L634.615,210.397L635.385,213.302L636.154,205.783L636.923,204.501L637.692,221.26L638.462,211.478L639.231,212.11L640,217.365L640.769,227.836L641.538,213.079L642.308,212.932L643.077,227.467L643.846,218.395L644.615,229.646L645.385,202.256L646.154,195.064L646.923,204.084L647.692,196.95L648.462,198.243L649.231,199.23L650,178.343L650.769,193.335L651.538,196.692L652.308,188.609L653.077,181.892L653.846,190.607L654.615,192.371L655.385,178.549L656.154,193.992L656.923,191.995L657.692,188.433L658.462,197.14L659.231,185.258L660,191.055L660.769,191.218L661.538,180.573L662.308,183.807L663.077,189.999L663.846,167.25L664.615,190.173L665.385,180.544L666.154,189.828L666.923,183.027L667.692,198.116L668.462,173.421L669.231,191.393L670,184.336L670.769,197.248L671.538,190.29L672.308,187.292L673.077,190.601L673.846,192.108L674.615,198.439L675.385,200.357L676.154,197.155L676.923,186.71L677.692,188.458L678.462,199.662L679.231,205.221L680,189.789L680.769,202.627L681.538,181.438L682.308,176.323L683.077,185.617L683.846,182.695L684.615,185.084L685.385,180.233L686.154,190.08L686.923,187.814L687.692,187.671L688.462,177.075L689.231,194.159L690,168.453L690.769,189.802L691.538,204.515L692.308,185.76L693.077,187.515L693.846,161.206L694.615,172.251L695.385,169.719L696.154,154.836L696.923,175.223L697.692,168.666L698.462,176.136L699.231,167.933L700,158.896L700.769,161.012L701.538,170.291L702.308,156.912L703.077,153.497L703.846,155.568L704.615,158.261L705.385,134.533L706.154,135.569L706.923,144.375L707.692,141.24L708.462,135.074L709.231,137.907L710,144.446L710.769,135.679L711.538,112.979L712.308,132.535L713.077,133.844L713.846,148.075L714.615,149.353L715.385,132.297L716.154,147.719L716.923,137.08L717.692,138.369L718.462,144.436L719.231,141.316L720,143.683L720.769,149.035L721.538,144.569L722.308,158.333L723.077,144.622L723.846,147.775L724.615,141.424L725.385,138.685L726.154,131.458L726.923,128.412L727.692,129.048L728.462,128.106L729.231,136.794L730,145.815L730.769,134.035L731.538,154.721L732.308,142.815L733.077,143.286L733.846,143.748L734.615,153.995L735.385,143.917L736.154,145.881L736.923,146.271L737.692,139.941L738.462,128.558L739.231,164.923L740,146.91L740.769,140.306L741.538,145.419L742.308,156.416L743.077,146.995L743.846,143.782L744.615,164.652L745.385,169.269L746.154,174.289L746.923,157.086L747.692,168.73L748.462,167.42L749.231,186.078L750,175.046L750.769,204.283L751.538,186.083L752.308,185.003L753.077,189.35L753.846,198.269L754.615,215.868L755.385,208.94L756.154,211.318L756.923,217.302L757.692,199.378L758.462,199.859L759.231,201.371L760,195.21L760.769,200.201L761.538,223.786L762.308,210.038L763.077,210.162L763.846,217.159L764.615,221.622L765.385,223.559L766.154,224.256L766.923,226.246L767.692,225.528L768.462,222.146L769.231,231.706L770,242.374L770.769,264.828L771.538,235.179L772.308,225.755L773.077,235.207L773.846,229.403L774.615,229.217L775.385,253.926L776.154,257.512L776.923,239.467L777.692,258.146L778.462,241.001L779.231,234.295L780,231.911L780.769,237.283L781.538,247.128L782.308,231.541L783.077,225.709L783.846,223.563L784.615,231.851L785.385,228.852L786.154,229.503L786.923,232.584L787.692,230.683L788.462,226.779L789.231,222.722L790,211.166L790.769,227.489L791.538,207.409L792.308,221.917L793.077,206.122L793.846,224.111L794.615,210.56L795.385,218.625L796.154,207.055L796.923,223.409L797.692,213.945L798.462,222.041L799.231,207.736L800,212.07L800.769,213.645L801.538,205.972L802.308,216.358L803.077,209.796L803.846,226.865L804.615,219.33L805.385,213.862L806.154,202.442L806.923,203.823L807.692,201.985L808.462,219.952L809.231,216.145L810,205.766L810.769,204.789L811.538,185.849L812.308,204.599L813.077,191.878L813.846,190.605L814.615,195.637L815.385,190.066L816.154,181.308L816.923,180.901L817.692,185.629L818.462,194.75L819.231,188.497L820,178.937L820.769,192.569L821.538,176.874L822.308,185.757L823.077,169.448L823.846,189.239L824.615,177.288L825.385,171.702L826.154,163.131L826.923,161.743L827.692,179.774L828.462,180.238L829.231,172.577L830,169.108L830.769,170.888L831.538,181.116L832.308,161.082L833.077,160.744L833.846,150.255L834.615,163.18L835.385,164.606L836.154,168.536L836.923,168.241L837.692,162.806L838.462,156.859L839.231,151.068L840,157.737L840.769,158.893L841.538,176.174L842.308,182.579L843.077,173.435L843.846,199.464L844.615,191.199L845.385,191.163L846.154,178.778L846.923,189.651L847.692,210.286L848.462,182.812L849.231,202.591L850,201.633L850.769,197.914L851.538,203.247L852.308,202.134L853.077,213.581L853.846,200.664L854.615,210.941L855.385,209.837L856.154,198.105L856.923,208.713L857.692,175.411L858.462,190.128L859.231,183.416L860,182.654L860.769,182.093L861.538,181.334L862.308,180.181L863.077,179.781L863.846,165.742L864.615,174.346L865.385,163.276L866.154,178.604L866.923,175.234L867.692,159.644L868.462,175.838L869.231,180.411L870,178.776L870.769,175.519L871.538,164.735L872.308,171.444L873.077,173.921L873.846,165.013L874.615,158.527L875.385,159.9L876.154,152.444L876.923,163.867L877.692,160.13L878.462,181.258L879.231,160.458L880,168.599L880.769,163.236L881.538,165.621L882.308,156.715L883.077,166.227L883.846,163.428L884.615,145.452L885.385,160.006L886.154,160.33L886.923,161.743L887.692,168.748L888.462,184.949L889.231,176.278L890,189.141L890.769,174.749L891.538,170.736L892.308,165.918L893.077,157.447L893.846,173.988L894.615,174.857L895.385,177.047L896.154,138.509L896.923,156.701L897.692,155.382L898.462,145.434L899.231,164.202L900,164.511L900.769,166.74L901.538,163.773L902.308,155.234L903.077,152.288L903.846,167.324L904.615,154.531L905.385,158.41L906.154,158.03L906.923,146.139L907.692,150.958L908.462,136.687L909.231,141.409L910,150.913L910.769,149.503L911.538,134.201L912.308,149.434L913.077,143.419L913.846,142.564L914.615,161.268L915.385,142.612L916.154,142.906L916.923,143.182L917.692,151.932L918.462,142.36L919.231,140.532L920,148.436L920.769,158.818L921.538,132.609L922.308,145.043L923.077,138.166L923.846,121.996L924.615,122.26L925.385,131.66L926.154,118.031L926.923,126.862L927.692,121.003L928.462,128.715L929.231,116.483L930,119.493L930.769,114.244L931.538,111.687L932.308,108.146L933.077,102.541L933.846,103.72L934.615,110.525L935.385,112.88L936.154,96.884L936.923,92.01L937.692,97.157L938.462,92.071L939.231,74.733L940,94.223L940.769,82.136L941.538,77.954L942.308,89.097L943.077,87.558L943.846,87.317L944.615,78.422L945.385,82.332L946.154,74.359L946.923,78.512L947.692,83.117L948.462,84.308L949.231,83.869L950,70.186L950.769,56.61L951.538,58.497L952.308,91.948L953.077,67.87L953.846,71.921L954.615,69.309L955.385,72.269L956.154,75.042L956.923,71.121L957.692,69.043L958.462,68.778L959.231,66.605L960,61.083L960.769,59.641L961.538,40.065L962.308,57.437L963.077,56.887L963.846,56.678L964.615,42.009L965.385,48.816L966.154,37.246L966.923,27.458" stroke="#4c78a8" stroke-width="2"/></g></g><path class="foreground" aria-hidden="true" d="" display="none"/></g></g></g></svg>