<svg xmlns="http://www.w3.org/2000/svg" version="1.1" xmlns:xlink="http://www.w3.org/1999/xlink" xmlns:svgjs="http://svgjs.dev/svgjs" width="950" height="375" id="chartSvg"><path d="M10,294 L10,295 L9,296 L10,295 L10,292 L10,285 L11,276 L12,265 L13,259 L14,257 L14,258 L13,260 L12,265 L11,271 L11,279 L11,287 L12,293 L12,298 L13,300 L13,301 L13,300 L13,298 L13,295 L13,291 L13,286 L14,279 L14,273 L15,270 L15,271 L15,272 L15,275 L15,278 L14,282 L14,287 L14,292 L14,295 L14,293 L14,290 L14,285 L15,281 L15,279 L16,279 L16,282 L16,286 L16,291 L16,298 L16,304 L17,310 L17,316 L18,322 L19,328 L19,334 L19,339 L19,344 L20,349 L20,355 L21,359 L21,362 L22,364 L22,366 L22,367 L22,366 L21,366 L21,364 L20,362 L20,360 L20,357 L19,352 L19,347 L19,344 L19,342 L19,340 L19,338 L19,335 L19,332 L19,330 L19,329 L19,328 L19,327 L19,325 L19,324 L19,322 L19,320 L19,319 L19,318 L19,317 L19,315 L19,314 L19,313 L19,312 L19,311 L19,310 L19,309 L19,308 L19,307 L19,306 L19,305 L19,304 L19,303 L19,302 L19,301 L19,300 L18,300 L18,299 L18,298 L18,297 L18,296 L18,295 L18,294 L18,293 L18,292 L18,291 L18,289 L18,288 L18,287 L18,286 L18,285 L18,283 L18,282 L18,280 L18,278 L18,276 L18,274 L18,272 L18,270 L17,268 L17,266 L17,264 L17,261 L17,260 L17,258 L17,256 L17,254 L17,251 L17,247 L17,244 L17,241 L17,239 L17,237 L17,235 L17,232 L17,229 L17,227 L16,226 L16,224 L16,222 L16,220 L16,217 L16,214 L16,212 L16,210 L16,208 L16,207 L16,205 L16,202 L16,200 L17,198 L17,196 L17,195 L17,193 L17,192 L17,191 L17,190 L17,189 L17,188 L18,188 L18,187 L18,186 L18,185 L18,184 L18,183 L18,181 L18,180 L18,179 L18,178 L18,177 L18,176 L18,177 L19,178 L19,179 L19,180 L19,181 L19,182 L19,183 L19,185 L19,186 L19,187 L19,188 L19,190 L19,192 L19,193 L19,195 L19,196 L19,198 L19,200 L19,202 L19,204 L19,207 L19,208 L19,210 L19,212 L19,214 L19,216 L19,219 L19,221 L19,223 L19,224 L19,227 L20,229 L20,232 L20,234 L20,237 L20,239 L20,242 L20,245 L20,248 L21,251 L21,254 L22,256 L22,259 L22,261 L22,264 L22,265 L22,267 L22,269 L22,271 L23,273 L23,276 L23,278 L23,280 L23,282 L24,284 L24,286 L24,288 L24,290 L24,292 L24,293 L24,294 L24,296 L24,298 L24,299 L24,300 L24,301 L24,302 L24,303 L24,304 L24,305 L24,306 L24,307 L24,308 L24,309 L25,310 L25,312 L25,313 L25,314 L25,315 L25,316 L25,317 L25,318 L25,319 L26,319 L26,320 L26,321 L26,322 L26,323 L26,324 L26,325 L27,325 L27,326 L27,327 L28,328 L28,329 L28,328 L28,327 L28,326 L28,325 L28,324 L28,322 L28,320 L28,318 L28,317 L28,315 L28,314 L28,313 L28,310 L27,305 L27,301 L27,297 L28,294 L28,292 L28,289 L27,286 L27,284 L27,282 L27,281 L27,280 L27,278 L27,276 L27,273 L28,271 L28,270 L28,269 L29,268 L29,267 L29,266 L29,269 L29,277 L28,287 L28,298 L28,307 L28,313 L28,315 L29,317 L29,319 L29,315 L28,310 L28,301 L28,288 L29,274 L29,264 L29,259 L29,260 L29,261 L28,267 L28,274 L27,283 L26,295 L25,306 L25,315 L25,319 L26,321 L25,317 L25,311 L25,302 L25,289 L26,276 L27,267 L27,266 L27,269 L27,277 L28,288 L28,291 L29,314 L30,322 L31,325 L33,324 L34,322 L35,317 L35,309 L35,298 L35,283 L35,274 L35,271 L34,271 L34,272 L34,275 L33,279 L33,287 L32,298 L32,310 L32,317 L33,319 L34,319 L34,318 L34,317 L34,314 L34,312 L34,310 L34,308 L34,306 L34,303 L34,300 L34,298 L34,299 L34,298 L34,296 L34,293 L34,290 L35,287 L35,285 L35,283 L35,281 L35,279 L35,278 L35,277 L35,276 L35,275 L35,274 L35,273 L35,272 L35,271 L35,270 L35,269 L35,268 L35,266 L35,264 L35,262 L35,260 L35,258 L35,256 L35,254 L35,252 L35,249 L35,246 L35,242 L35,239 L35,236 L35,232 L36,228 L36,224 L36,221 L36,220 L36,219 L36,220 L36,222 L36,223 L36,226 L36,230 L36,233 L36,237 L36,242 L36,246 L36,253 L36,259 L36,263 L36,266 L36,271 L36,277 L36,282 L36,286 L35,289 L35,292 L35,295 L35,299 L34,303 L34,305 L34,306 L34,308 L34,309 L34,311 L34,313 L34,314 L34,315 L34,316 L34,317 L34,316 L34,315 L34,314 L34,313 L34,311 L34,309 L34,308 L34,307 L34,306 L34,305 L34,306 L34,307 L34,308 L35,308 L35,309 L35,311 L36,313 L36,315 L36,316 L36,317 L36,316 L36,315 L36,314 L36,312 L36,310 L36,306 L36,303 L36,301 L36,300 L36,301 L36,300 L36,299 L36,295 L36,290 L37,286 L37,281 L37,278 L38,276 L38,273 L38,271 L38,268 L38,265 L38,262 L38,260 L39,257 L39,255 L39,253 L39,251 L39,249 L39,247 L39,245 L39,244 L40,244 L40,245 L40,246 L40,247 L39,248 L39,249 L39,250 L39,251 L39,252 L39,253 L39,254 L39,255 L40,255 L40,256 L41,256 L41,254 L41,250 L41,247 L41,244 L41,242 L41,239 L41,238 L42,235 L42,232 L43,228 L44,224 L45,221 L45,217 L46,213 L46,207 L47,201 L48,196 L48,193 L48,190 L49,186 L49,183 L50,178 L51,175 L51,173 L50,174 L50,175 L50,177 L49,179 L48,182 L48,187 L46,194 L45,201 L44,207 L44,212 L44,217 L43,222 L43,225 L42,228 L42,231 L42,235 L41,239 L41,244 L40,248 L40,251 L40,254 L40,257 L40,260 L41,262 L41,264 L41,265 L41,266 L41,268 L41,270 L41,272 L41,274 L41,277 L41,280 L41,283 L42,286 L42,288 L43,291 L43,293 L43,296 L43,300 L43,303 L43,305 L44,308 L44,310 L44,313 L44,315 L44,317 L44,319 L44,322 L44,325 L45,327 L45,330 L45,332 L45,333 L45,335 L45,337 L45,338 L45,337 L44,337 L44,335 L44,333 L44,331 L44,330 L44,328 L44,327 L44,326 L44,325 L45,323 L45,322 L45,321 L45,320 L45,319 L45,318 L45,317 L45,316 L45,315 L45,313 L45,312 L45,311 L45,310 L46,309 L46,307 L46,305 L46,303 L46,302 L46,301 L46,300 L46,299 L46,298 L46,296 L46,295 L46,294 L46,293 L46,292 L46,291 L46,290 L46,289 L46,288 L46,287 L46,286 L46,285 L46,284 L46,283 L46,282 L46,281 L46,280 L46,279 L46,278 L47,278 L47,277 L47,276 L47,275 L47,274 L47,273 L47,272 L47,271 L47,272 L47,271 L46,270 L46,268 L46,264 L46,261 L47,258 L47,256 L48,254 L48,253 L48,252 L48,251 L48,250 L48,251 L48,254 L47,258 L47,261 L47,264 L47,266 L47,269 L47,272 L46,276 L46,278 L46,280 L46,281 L46,283 L46,286 L45,290 L44,292 L44,293 L43,293 L43,292 L43,291 L44,289 L44,284 L46,278 L46,271 L48,265 L48,260 L49,255 L50,251 L50,246 L50,242 L51,238 L51,236 L51,234 L51,236 L51,239 L51,244 L51,251 L52,258 L53,262 L53,261 L53,259 L53,255 L53,249 L54,243 L56,239 L56,238 L56,239 L56,242 L56,245 L56,249 L57,254 L57,257 L58,258 L58,256 L58,254 L58,250 L58,246 L58,242 L59,241 L59,242 L59,244 L59,246 L59,248 L59,251 L59,254 L59,257 L58,259 L58,262 L58,264 L58,268 L58,271 L58,273 L58,276 L58,279 L58,283 L58,285 L58,287 L58,289 L58,291 L58,294 L59,296 L59,298 L59,300 L60,301 L60,303 L60,305 L60,308 L60,310 L60,312 L60,315 L60,317 L60,320 L60,322 L60,325 L59,328 L59,332 L59,335 L59,338 L59,339 L59,341 L59,343 L59,346 L59,348 L59,349 L59,350 L59,351 L59,352 L59,354 L59,355 L59,356 L59,357 L60,359 L60,360 L60,362 L60,364 L60,366 L60,367 L60,368 L60,367 L60,366 L60,365 L60,364 L60,362 L60,360 L60,358 L60,357 L60,355 L60,354 L60,353 L60,352 L60,351 L60,350 L60,349 L60,348 L60,347 L60,346 L60,345 L60,344 L60,343 L60,342 L60,341 L60,340 L60,339 L60,338 L60,337 L59,336 L59,335 L59,334 L59,333 L59,332 L59,331 L59,330 L59,329 L59,328 L59,327 L59,326 L59,325 L59,324 L58,324 L58,323 L58,322 L58,321 L58,320 L58,319 L58,318 L58,317 L58,316 L58,315 L58,314 L58,313 L58,312 L58,311 L58,310 L58,309 L58,308 L58,307 L58,306 L58,305 L59,304 L59,303 L59,302 L59,301 L59,300 L59,299 L59,298 L59,297 L59,296 L59,295 L59,293 L60,292 L60,290 L60,289 L60,288 L60,287 L60,286 L60,285 L60,284 L60,283 L60,282 L60,281 L60,280 L61,279 L61,278 L61,277 L61,276 L61,275 L61,273 L61,272 L62,269 L62,266 L63,262 L64,259 L65,255 L65,253 L65,251 L65,250 L65,251 L65,253 L65,256 L65,260 L65,266 L65,274 L65,284 L65,293 L65,300 L64,301 L64,300 L64,299 L64,295 L65,288 L65,280 L66,271 L66,264 L66,261 L66,258 L66,256 L66,255 L66,256 L67,259 L67,265 L67,273 L67,283 L67,292 L67,298 L68,303 L68,307 L68,308 L68,307 L68,305 L68,303 L67,297 L67,291 L67,286 L67,282 L67,277 L67,270 L66,263 L66,256 L66,252 L66,248 L66,242 L66,236 L66,232 L66,226 L66,221 L66,217 L67,212 L68,206 L68,200 L69,194 L69,190 L69,185 L70,179 L71,173 L71,170 L72,167 L72,164 L72,160 L73,158 L73,157 L73,159 L73,163 L73,169 L72,177 L70,188 L67,203 L66,216 L65,227 L64,238 L63,248 L63,256 L63,261 L63,265 L63,271 L63,277 L63,282 L63,283 L64,283 L64,285 L64,287 L64,289 L64,291 L63,291 L63,292 L64,292 L64,291 L65,291 L65,292 L66,294 L66,298 L67,301 L68,305 L68,308 L68,307 L68,305 L68,300 L68,292 L68,282 L68,272 L68,262 L68,254 L68,247 L68,241 L68,233 L69,223 L71,213 L73,205 L73,200 L74,195 L74,188 L75,181 L75,177 L75,176 L75,178 L75,181 L75,186 L75,193 L75,202 L74,215 L73,228 L72,242 L71,256 L70,269 L70,278 L70,286 L70,290 L70,292 L71,294 L71,296 L71,297 L71,295 L72,293 L72,289 L73,283 L73,275 L74,266 L74,258 L74,249 L75,238 L76,227 L78,220 L78,213 L80,206 L80,198 L82,190 L83,187 L83,188 L83,189 L83,192 L83,195 L83,200 L83,206 L83,215 L83,225 L83,235 L82,246 L81,258 L80,268 L80,278 L80,286 L80,291 L80,294 L80,295 L80,293 L80,287 L80,279 L80,271 L80,259 L80,246 L80,232 L80,224 L80,222 L80,221 L81,224 L81,230 L82,237 L83,245 L83,255 L83,267 L83,278 L83,286 L83,289 L84,291 L85,291 L85,289 L85,283 L85,274 L85,264 L87,254 L87,247 L87,240 L86,232 L86,227 L86,226 L86,227 L86,228 L87,230 L88,234 L89,240 L89,247 L90,258 L90,268 L90,275 L90,279 L91,282 L91,283 L91,280 L91,273 L91,266 L92,258 L93,249 L93,241 L93,234 L93,229 L93,225 L93,222 L94,221 L94,220 L95,224 L95,229 L95,237 L94,247 L94,258 L94,268 L94,276 L94,282 L94,284 L94,283 L94,282 L94,278 L94,272 L94,264 L95,252 L94,239 L94,228 L94,218 L95,213 L95,211 L95,209 L95,207 L96,207 L96,208 L96,209 L96,210 L96,211 L96,212 L96,213 L95,213 L95,214 L95,215 L95,216 L95,217 L95,219 L95,221 L95,223 L95,225 L95,227 L95,230 L95,232 L95,235 L95,237 L95,239 L95,242 L94,246 L94,251 L94,256 L94,259 L93,263 L93,268 L93,273 L93,277 L93,281 L93,284 L93,288 L92,294 L92,298 L92,303 L92,306 L92,309 L92,313 L92,316 L92,320 L92,322 L92,325 L92,326 L92,327 L92,328 L92,329 L92,328 L92,327 L92,326 L92,325 L92,324 L92,322 L92,321 L92,320 L92,319 L92,317 L92,316 L92,314 L92,313 L93,311 L93,309 L93,308 L93,306 L93,303 L93,301 L93,299 L93,297 L93,296 L93,294 L93,292 L93,290 L93,288 L93,286 L93,283 L93,281 L94,278 L94,276 L94,274 L94,272 L94,269 L94,265 L94,262 L94,261 L94,260 L95,258 L95,255 L95,250 L97,245 L97,242 L97,241 L97,242 L96,242 L96,244 L96,246 L96,249 L96,254 L96,260 L95,266 L95,271 L95,275 L95,278 L95,279 L95,280 L95,279 L95,278 L95,277 L95,275 L95,270 L95,264 L96,256 L96,248 L96,239 L97,233 L97,229 L97,227 L97,225 L97,224 L98,223 L98,225 L99,229 L100,237 L100,245 L100,256 L99,267 L99,275 L99,279 L99,280 L99,276 L99,270 L100,261 L101,249 L102,235 L104,225 L106,221 L106,223 L106,229 L106,239 L106,249 L106,262 L106,270 L107,273 L107,272 L107,267 L107,258 L107,249 L108,243 L109,242 L109,244 L109,249 L109,255 L108,260 L108,265 L108,267 L108,263 L109,258 L110,254 L110,253 L111,255 L111,261 L112,267 L112,272 L114,276 L117,277 L118,277 L119,275 L119,272 L119,267 L119,261 L119,254 L119,246 L119,240 L118,234 L118,228 L117,224 L117,220 L117,218 L117,215 L117,211 L117,206 L117,203 L118,200 L118,198 L118,196 L118,193 L118,190 L118,188 L118,187 L119,186 L119,184 L119,183 L119,180 L119,179 L119,177 L120,175 L120,173 L121,171 L121,170 L121,169 L122,168 L122,169 L122,170 L122,171 L122,172 L122,174 L122,176 L122,179 L122,182 L122,185 L122,188 L122,190 L122,193 L122,195 L122,198 L122,201 L122,203 L122,206 L122,209 L122,212 L123,214 L123,216 L123,218 L123,220 L123,223 L123,225 L124,227 L124,228 L124,231 L124,233 L124,235 L124,237 L125,239 L125,240 L125,241 L125,242 L125,243 L125,244 L126,244 L126,245 L126,246 L127,246 L127,247 L127,248 L127,249 L127,250 L127,251 L127,252 L127,253 L127,255 L127,256 L127,257 L127,259 L127,260 L127,262 L127,264 L127,265 L127,267 L127,268 L127,269 L127,270 L127,271 L127,270 L128,270 L128,271 L128,274 L128,277 L129,279 L129,281 L129,282 L129,283 L129,282 L129,279 L129,272 L131,263 L132,257 L132,256 L132,260 L132,266 L132,273 L132,279 L132,283 L132,284 L132,283 L132,279 L132,272 L132,265 L132,261 L133,261 L133,264 L133,267 L134,271 L134,275 L135,278 L135,279 L135,278 L135,277 L136,277 L136,276 L136,275 L137,274 L137,273 L137,271 L137,268 L137,266 L137,264 L137,261 L137,259 L137,257 L137,256 L137,257 L136,258 L136,259 L136,261 L136,263 L136,265 L135,268 L135,271 L135,273 L135,276 L134,280 L134,282 L134,285 L134,288 L133,291 L133,295 L132,300 L132,306 L131,313 L130,319 L130,324 L129,330 L129,335 L129,340 L129,345 L128,350 L128,355 L128,360 L128,366 L128,371 L128,375 L127,377 L127,379 L127,380 L127,379 L127,378 L128,376 L128,372 L129,368 L129,361 L129,356 L129,350 L130,344 L130,339 L130,335 L130,330 L129,325 L129,320 L128,315 L128,311 L128,308 L127,304 L127,299 L127,295 L127,291 L127,288 L127,284 L127,280 L126,275 L126,271 L126,268 L126,263 L125,257 L125,250 L126,241 L127,234 L128,227 L128,220 L128,213 L129,206 L129,200 L129,196 L129,193 L129,191 L129,189 L129,185 L129,182 L129,180 L129,178 L129,176 L130,173 L130,168 L131,164 L132,160 L132,157 L132,153 L133,149 L133,145 L134,142 L134,138 L135,133 L136,127 L136,122 L138,117 L139,112 L139,108 L140,102 L141,97 L141,94 L142,92 L142,93 L142,94 L142,97 L142,99 L142,102 L142,105 L142,110 L142,114 L142,119 L142,123 L142,126 L142,128 L142,131 L142,133 L141,136 L141,139 L141,141 L141,142 L142,145 L142,147 L142,151 L142,154 L142,156 L143,158 L143,160 L143,163 L144,167 L144,171 L144,173 L144,176 L145,177 L145,180 L145,183 L146,187 L146,190 L146,193 L147,195 L147,198 L148,200 L148,203 L148,206 L148,208 L147,209 L147,210 L147,211 L147,213 L146,215 L146,216 L146,218 L146,220 L145,222 L145,225 L144,228 L144,232 L144,234 L144,236 L144,237 L144,239 L144,242 L144,243 L144,245 L144,246 L144,247 L144,250 L144,253 L144,256 L144,257 L144,258 L144,259 L144,260 L144,261 L144,262 L144,263 L144,264 L144,266 L144,267 L144,268 L144,269 L144,270 L144,271 L144,270 L144,269 L144,270 L145,271 L145,272 L145,273 L145,274 L145,275 L145,276 L145,277 L145,278 L145,280 L145,281 L145,283 L145,284 L145,285 L145,283 L145,278 L145,268 L145,254 L145,242 L145,237 L144,235 L144,236 L144,241 L145,251 L145,263 L145,276 L145,285 L146,288 L146,283 L146,273 L146,261 L146,249 L147,245 L147,246 L147,248 L147,253 L148,259 L149,267 L150,277 L151,281 L151,280 L151,276 L150,268 L149,256 L149,238 L151,220 L153,205 L154,197 L154,195 L154,196 L154,203 L154,214 L153,227 L151,244 L149,258 L149,270 L149,279 L149,286 L149,288 L149,286 L147,279 L147,267 L147,254 L149,237 L151,222 L152,207 L152,197 L151,192 L151,195 L151,203 L151,212 L151,223 L153,238 L155,254 L156,267 L158,272 L159,267 L159,256 L159,240 L160,222 L161,204 L162,190 L162,180 L163,177 L163,180 L163,188 L163,198 L162,211 L161,227 L160,243 L159,251 L160,256 L160,255 L160,247 L160,235 L160,220 L163,202 L164,195 L164,194 L164,195 L164,199 L165,207 L165,218 L165,230 L164,238 L164,239 L164,238 L165,236 L166,231 L167,222 L169,213 L170,205 L170,201 L170,198 L171,197 L171,198 L171,199 L171,200 L171,202 L171,203 L171,204 L170,205 L170,207 L170,210 L170,213 L170,218 L169,223 L169,228 L169,233 L169,237 L168,238 L168,237 L168,234 L168,228 L168,222 L169,218 L169,216 L170,217 L170,218 L170,222 L171,227 L171,232 L172,237 L173,240 L173,239 L173,235 L174,232 L174,229 L174,228 L175,228 L175,229 L176,231 L176,233 L176,235 L176,237 L177,238 L177,239 L177,238 L177,237 L177,235 L177,234 L178,234 L178,236 L179,237 L179,240 L179,243 L179,245 L179,246 L179,248 L179,251 L179,253 L179,255 L179,258 L179,260 L179,264 L179,266 L179,267 L179,266 L179,265 L179,262 L178,256 L178,247 L178,239 L178,236 L178,237 L178,238 L178,241 L178,246 L178,252 L178,261 L179,268 L180,273 L180,274 L180,272 L180,266 L180,256 L181,242 L181,227 L181,220 L181,217 L181,219 L181,225 L181,235 L180,248 L179,262 L179,273 L179,281 L179,285 L180,288 L180,287 L180,283 L179,275 L179,264 L179,251 L180,235 L181,222 L182,217 L182,222 L182,229 L182,239 L182,249 L181,261 L181,271 L182,276 L182,279 L182,281 L183,282 L183,281 L183,275 L183,267 L183,256 L183,243 L184,232 L184,225 L184,223 L184,222 L184,223 L184,226 L184,234 L184,244 L184,259 L183,272 L183,280 L183,285 L182,289 L182,293 L182,297 L182,296 L181,296 L181,295 L181,294 L181,293 L181,291 L181,289 L182,288 L182,287 L182,286 L182,285 L183,285 L183,284 L184,283 L184,282 L185,281 L185,280 L185,278 L185,276 L185,275 L185,273 L185,272 L185,271 L185,270 L185,269 L185,268 L185,267 L185,265 L184,263 L184,261 L184,259 L184,256 L183,252 L183,250 L183,248 L183,247 L183,246 L183,244 L183,243 L183,242 L183,243 L183,244 L183,245 L183,247 L183,249 L183,251 L183,254 L183,257 L183,261 L182,265 L182,268 L182,271 L183,268 L183,265 L184,260 L185,256 L185,255 L185,256 L185,258 L185,261 L185,264 L185,268 L185,273 L184,277 L183,281 L183,285 L183,288 L183,292 L183,295 L183,298 L183,301 L183,305 L183,310 L183,315 L183,320 L183,326 L183,331 L183,336 L183,341 L183,345 L183,348 L183,351 L183,354 L183,355 L183,356 L183,357 L183,356 L183,355 L183,354 L183,352 L183,350 L183,347 L183,344 L183,342 L183,339 L183,337 L183,333 L183,330 L184,327 L184,325 L184,322 L184,319 L184,317 L185,315 L185,313 L185,310 L185,308 L185,305 L185,302 L185,300 L185,298 L185,295 L185,292 L185,290 L185,288 L185,286 L185,283 L185,280 L185,277 L185,275 L185,273 L185,268 L185,263 L185,256 L185,252 L185,249 L185,245 L185,241 L185,235 L186,230 L187,229 L187,230 L187,232 L187,236 L187,241 L187,246 L186,254 L185,259 L185,264 L185,266 L185,265 L185,261 L186,256 L187,249 L188,244 L188,241 L188,242 L188,244 L188,249 L188,256 L188,265 L187,275 L187,283 L187,291 L187,300 L186,311 L186,320 L186,329 L186,337 L185,341 L186,344 L186,347 L186,350 L187,353 L187,356 L187,358 L187,359 L187,357 L187,355 L188,352 L188,347 L188,340 L188,331 L188,322 L188,314 L188,307 L188,299 L188,292 L188,285 L187,276 L187,267 L188,261 L188,255 L188,250 L188,244 L188,239 L188,235 L188,232 L188,229 L188,226 L189,222 L190,217 L190,214 L190,210 L191,207 L191,203 L192,198 L193,193 L194,189 L195,185 L195,182 L195,178 L195,173 L196,168 L197,164 L198,161 L198,157 L198,154 L198,150 L199,146 L199,143 L200,140 L200,137 L200,134 L200,132 L200,128 L200,124 L201,120 L202,117 L202,113 L203,110 L204,106 L204,104 L204,103 L204,102 L204,101 L204,102 L204,103 L204,105 L204,107 L204,111 L204,116 L203,120 L203,124 L203,127 L203,131 L202,134 L202,137 L202,141 L202,144 L202,146 L202,149 L202,152 L202,155 L202,157 L201,159 L201,162 L201,165 L201,168 L201,171 L201,173 L201,174 L200,176 L200,179 L200,181 L200,184 L200,187 L200,189 L200,191 L200,194 L199,197 L199,201 L199,205 L199,208 L199,211 L199,215 L199,218 L199,221 L199,225 L199,229 L199,232 L199,237 L199,241 L199,244 L199,248 L199,252 L199,256 L199,262 L199,266 L199,269 L199,270 L199,271 L199,273 L199,272 L199,269 L199,264 L199,254 L199,242 L199,229 L199,219 L199,211 L199,205 L200,200 L201,196 L202,193 L202,191 L202,190 L202,192 L202,193 L202,197 L202,202 L202,211 L202,223 L202,234 L202,243 L202,253 L202,263 L202,269 L202,272 L202,274 L202,276 L201,277 L201,275 L200,270 L200,261 L200,248 L200,231 L201,217 L201,210 L201,207 L202,210 L202,215 L202,222 L202,231 L200,241 L199,253 L199,264 L199,272 L200,276 L201,277 L201,275 L202,271 L203,264 L205,255 L206,244 L207,229 L208,217 L209,210 L209,209 L209,210 L209,213 L209,220 L208,229 L207,241 L207,256 L205,269 L205,277 L205,279 L205,276 L205,269 L205,260 L206,249 L207,237 L208,228 L209,224 L209,220 L210,218 L210,217 L210,219 L211,224 L211,233 L210,239 L210,246 L210,251 L210,257 L211,262 L211,265 L211,264 L211,263 L212,259 L212,254 L213,247 L214,240 L215,234 L215,232 L215,230 L216,229 L216,228 L216,231 L216,235 L216,241 L216,247 L216,253 L216,257 L216,259 L215,258 L215,257 L215,256 L215,254 L215,251 L215,248 L215,244 L215,241 L215,239 L215,238 L215,239 L215,242 L215,247 L215,253 L215,258 L215,260 L215,257 L215,251 L215,244 L216,236 L217,234 L217,235 L217,241 L217,247 L217,252 L217,254 L217,251 L218,245 L218,242 L219,240 L219,242 L220,245 L220,250 L220,254 L220,250 L220,246 L220,244 L220,246 L220,248 L220,250 L220,254 L219,257 L219,258 L219,259 L219,258 L219,256 L218,254 L218,249 L218,244 L219,237 L219,232 L220,227 L220,222 L220,217 L221,212 L221,208 L222,205 L222,201 L222,199 L222,198 L222,199 L222,201 L222,204 L222,207 L222,212 L222,220 L221,228 L220,236 L220,243 L219,251 L217,259 L217,266 L217,273 L217,279 L217,286 L217,291 L217,295 L217,298 L217,301 L217,304 L218,306 L218,308 L218,309 L218,310 L218,311 L219,311 L220,311 L220,312 L220,313 L221,313 L220,313 L220,312 L220,311 L220,310 L220,309 L220,308 L220,307 L220,306 L220,305 L220,304 L220,303 L220,302 L220,301 L220,300 L220,299 L220,298 L220,297 L220,296 L220,295 L220,294 L220,293 L220,292 L220,291 L220,290 L220,289 L220,288 L220,286 L220,285 L220,284 L221,283 L221,282 L221,280 L221,279 L222,277 L222,276 L222,273 L222,271 L222,268 L222,266 L222,263 L223,261 L224,258 L224,254 L225,251 L226,248 L226,246 L227,244 L227,241 L227,237 L228,234 L229,230 L230,226 L231,221 L232,215 L234,211 L234,207 L234,204 L235,201 L235,198 L236,194 L237,189 L238,185 L239,183 L239,180 L240,179 L240,178 L240,177 L240,178 L240,180 L239,185 L238,190 L237,197 L236,204 L234,212 L233,221 L232,229 L232,238 L232,249 L232,259 L232,269 L231,278 L230,285 L229,288 L229,289 L229,288 L229,287 L229,284 L229,280 L230,275 L231,268 L232,259 L233,248 L233,240 L233,235 L234,234 L234,236 L234,242 L233,249 L233,258 L232,265 L232,268 L232,269 L232,266 L232,260 L233,249 L234,239 L236,233 L236,234 L236,238 L236,246 L236,255 L236,264 L236,268 L236,269 L236,266 L237,260 L237,251 L238,246 L239,245 L239,246 L239,250 L239,255 L239,261 L239,267 L239,271 L239,272 L239,271 L239,268 L239,262 L239,257 L240,253 L241,251 L241,250 L241,251 L241,253 L241,255 L241,256 L241,257 L240,256 L240,254 L240,252 L240,249 L240,248 L240,247 L241,248 L241,249 L242,251 L242,255 L242,259 L243,265 L243,269 L243,271 L243,269 L243,267 L244,263 L244,259 L244,255 L245,257 L245,261 L245,265 L245,270 L244,275 L244,281 L244,286 L244,289 L244,294 L244,298 L244,303 L243,308 L243,313 L243,319 L243,325 L243,331 L244,336 L244,342 L244,347 L244,353 L244,358 L244,362 L244,366 L244,368 L245,370 L245,372 L246,374 L246,373 L246,371 L246,369 L246,365 L247,359 L247,350 L248,339 L249,332 L249,327 L249,322 L248,314 L248,308 L249,305 L249,304 L249,303 L249,302 L249,304 L249,310 L248,318 L248,329 L248,341 L248,349 L248,351 L248,350 L249,348 L249,342 L250,335 L251,325 L252,313 L253,301 L253,290 L253,279 L254,276 L254,277 L254,280 L253,287 L251,296 L250,308 L249,323 L248,336 L248,342 L248,344 L248,341 L248,332 L248,322 L249,307 L251,290 L251,280 L252,278 L252,280 L252,285 L252,295 L252,307 L252,321 L252,332 L253,337 L254,339 L254,338 L254,337 L254,331 L254,322 L255,310 L255,297 L255,281 L254,265 L254,247 L256,234 L257,229 L258,224 L258,218 L259,211 L261,205 L262,203 L261,205 L259,214 L256,225 L254,237 L252,250 L251,264 L250,276 L250,290 L249,303 L247,310 L247,315 L247,318 L247,320 L247,318 L248,313 L249,305 L249,297 L251,285 L253,268 L254,252 L254,241 L254,233 L254,228 L254,224 L254,221 L254,219 L254,222 L254,227 L254,232 L254,239 L253,251 L251,265 L251,280 L251,292 L251,301 L251,308 L251,314 L251,318 L251,320 L252,320 L253,317 L254,313 L256,308 L257,302 L259,293 L260,282 L261,268 L262,256 L263,246 L264,237 L264,231 L264,224 L264,220 L265,217 L265,218 L265,224 L265,233 L264,244 L264,260 L261,276 L261,290 L260,301 L259,307 L259,310 L260,307 L261,300 L261,290 L263,278 L264,264 L264,249 L264,239 L265,235 L265,232 L265,227 L265,221 L265,213 L266,208 L266,207 L266,206 L266,203 L266,200 L266,196 L266,193 L267,191 L268,190 L268,189 L268,186 L269,183 L270,180 L271,178 L271,177 L271,175 L272,171 L273,168 L274,166 L274,165 L274,164 L274,166 L274,169 L274,173 L275,177 L275,180 L275,183 L274,186 L274,190 L274,193 L273,196 L273,201 L272,206 L271,210 L271,214 L271,219 L271,224 L270,229 L269,234 L269,238 L268,241 L268,244 L268,246 L268,251 L268,254 L268,256 L267,258 L267,260 L267,261 L267,265 L267,269 L267,272 L267,275 L266,277 L266,279 L266,282 L266,286 L267,288 L267,289 L267,290 L268,288 L268,287 L268,284 L269,280 L269,274 L269,264 L269,251 L269,241 L270,234 L271,229 L271,226 L271,222 L271,219 L271,217 L271,218 L271,221 L270,227 L269,236 L268,249 L267,263 L267,271 L266,278 L266,281 L266,275 L265,265 L265,251 L266,234 L268,223 L268,219 L268,220 L268,219 L267,216 L267,212 L267,208 L267,204 L268,201 L268,202 L268,209 L268,219 L266,234 L264,252 L263,265 L262,272 L262,274 L263,274 L264,272 L266,266 L268,258 L271,247 L273,235 L275,224 L276,213 L278,204 L279,200 L279,201 L278,208 L276,219 L275,232 L273,248 L273,261 L273,271 L273,277 L273,274 L273,266 L274,256 L276,246 L279,234 L281,224 L282,214 L282,201 L283,190 L285,183 L286,178 L286,173 L287,166 L289,159 L292,154 L293,154 L293,156 L293,159 L293,163 L292,166 L292,171 L292,175 L291,179 L291,183 L291,186 L290,188 L290,189 L290,190 L289,191 L289,192 L288,192 L288,193 L288,194 L289,194 L289,195 L289,196 L290,198 L290,200 L290,203 L290,208 L290,213 L290,217 L290,222 L290,226 L290,232 L289,237 L289,240 L288,242 L288,244 L288,249 L287,252 L286,255 L286,257 L286,259 L286,261 L285,263 L285,264 L285,265 L285,266 L284,268 L284,269 L284,270 L284,271 L283,271 L283,272 L283,273 L283,274 L283,275 L283,276 L283,277 L283,276 L283,275 L283,274 L283,273 L283,272 L283,271 L284,269 L284,268 L284,266 L284,265 L284,263 L284,261 L284,259 L284,257 L284,254 L284,251 L284,249 L284,246 L284,242 L285,237 L285,230 L286,224 L286,222 L286,220 L286,224 L285,231 L285,241 L284,256 L284,270 L283,281 L283,286 L283,288 L283,287 L283,281 L285,271 L287,259 L288,242 L290,229 L291,220 L292,211 L293,207 L293,209 L293,214 L293,223 L293,237 L292,252 L291,266 L291,274 L291,278 L292,277 L292,273 L293,263 L294,249 L296,233 L297,217 L297,208 L297,206 L297,212 L296,223 L295,236 L294,251 L293,265 L293,272 L293,274 L293,273 L292,271 L292,262 L292,250 L294,235 L297,220 L298,211 L298,209 L299,212 L299,221 L299,235 L298,253 L297,268 L296,274 L296,275 L296,274 L296,268 L296,257 L297,243 L300,227 L302,214 L303,207 L303,206 L303,207 L303,210 L304,218 L304,228 L302,243 L299,259 L297,267 L296,270 L296,267 L296,258 L296,246 L298,232 L300,218 L300,210 L300,211 L300,212 L301,214 L301,217 L302,219 L302,221 L302,223 L302,224 L302,225 L302,227 L302,229 L301,233 L301,237 L301,240 L301,242 L301,244 L301,246 L301,251 L300,255 L300,258 L299,260 L299,263 L299,266 L298,269 L298,271 L297,273 L297,275 L297,278 L296,283 L295,288 L295,294 L294,298 L294,304 L294,311 L294,317 L293,321 L293,322 L293,323 L293,324 L293,325 L293,320 L294,314 L295,305 L297,292 L298,281 L298,271 L298,262 L299,256 L299,249 L300,243 L301,237 L302,232 L303,229 L303,227 L303,224 L303,222 L303,224 L303,227 L303,232 L303,239 L304,248 L304,260 L305,273 L304,283 L303,288 L303,283 L303,274 L304,262 L305,244 L308,224 L310,211 L310,205 L311,202 L311,205 L310,213 L309,224 L307,237 L305,254 L305,268 L306,278 L306,281 L306,279 L306,272 L307,259 L308,245 L310,228 L313,215 L313,210 L314,209 L314,212 L313,222 L312,235 L310,251 L308,267 L307,276 L307,280 L307,283 L308,285 L308,282 L309,278 L309,275 L310,271 L310,266 L311,261 L312,253 L313,246 L313,245 L313,248 L313,252 L314,257 L314,263 L314,270 L314,273 L314,269 L314,262 L314,256 L315,250 L316,248 L316,249 L316,253 L316,259 L315,265 L314,271 L314,278 L313,282 L313,286 L313,291 L313,295 L313,299 L312,303 L312,307 L312,311 L312,315 L312,320 L312,323 L312,326 L311,329 L311,332 L311,337 L310,340 L310,344 L310,348 L310,352 L310,354 L310,357 L310,359 L310,361 L310,362 L310,364 L310,366 L310,367 L310,368 L310,366 L310,364 L310,361 L310,357 L310,350 L311,344 L311,339 L311,335 L312,330 L312,325 L313,320 L313,317 L313,314 L313,310 L313,305 L313,301 L314,297 L314,293 L315,290 L315,285 L315,278 L316,274 L317,272 L317,270 L317,267 L317,261 L318,254 L319,249 L320,246 L320,244 L320,241 L321,237 L322,234 L323,237 L323,241 L322,246 L321,252 L320,261 L318,272 L317,282 L316,288 L315,292 L315,295 L315,296 L315,295 L315,290 L316,281 L317,268 L320,250 L322,233 L324,220 L325,208 L327,200 L327,193 L329,190 L329,195 L328,204 L327,216 L325,231 L323,249 L322,265 L322,281 L321,293 L321,300 L321,302 L321,298 L321,290 L322,278 L324,263 L327,240 L328,219 L330,207 L331,202 L331,201 L331,202 L331,209 L330,222 L328,238 L325,259 L323,279 L322,293 L322,302 L322,308 L323,304 L323,293 L324,280 L326,266 L329,249 L330,234 L332,216 L334,200 L338,191 L342,188 L343,188 L343,193 L342,202 L340,216 L338,231 L335,252 L334,271 L334,280 L335,283 L336,283 L336,281 L336,273 L337,260 L338,243 L340,221 L341,201 L343,192 L343,190 L343,196 L342,208 L340,223 L337,242 L335,263 L333,278 L333,286 L333,288 L333,286 L333,279 L334,267 L336,252 L339,231 L342,213 L342,209 L341,209 L341,208 L341,209 L341,210 L341,211 L340,212 L340,214 L339,216 L339,218 L339,220 L339,221 L338,223 L338,227 L337,232 L336,239 L335,243 L335,246 L334,250 L334,255 L332,261 L332,266 L331,269 L330,271 L330,274 L330,277 L330,281 L329,283 L329,284 L328,284 L328,283 L327,283 L327,282 L328,281 L328,279 L329,277 L330,274 L330,272 L331,270 L331,268 L331,267 L332,265 L332,264 L333,261 L334,259 L334,257 L335,255 L335,252 L336,249 L337,246 L337,243 L337,240 L338,237 L338,234 L338,230 L339,226 L339,222 L340,217 L340,214 L341,209 L341,202 L341,197 L342,191 L342,187 L342,183 L343,177 L344,171 L344,167 L344,163 L345,158 L345,156 L345,153 L346,151 L346,152 L346,153 L346,154 L346,156 L346,158 L346,162 L346,167 L346,173 L346,178 L345,183 L345,188 L345,194 L344,201 L344,210 L344,217 L344,222 L343,229 L343,236 L342,244 L341,252 L339,261 L338,269 L337,277 L337,283 L337,290 L336,295 L336,300 L336,305 L336,309 L335,311 L335,313 L335,314 L335,313 L335,312 L335,310 L335,309 L335,308 L335,307 L335,305 L335,304 L336,303 L336,301 L337,300 L337,298 L337,296 L338,293 L339,290 L339,288 L340,285 L340,283 L341,279 L341,275 L342,271 L342,268 L343,264 L343,261 L343,255 L344,248 L345,243 L346,239 L347,236 L347,231 L348,223 L349,216 L349,211 L350,206 L351,200 L353,191 L357,181 L360,171 L362,165 L363,160 L363,154 L364,149 L365,144 L366,140 L366,137 L367,136 L367,137 L367,138 L367,140 L367,142 L367,145 L366,149 L365,154 L364,160 L363,166 L362,171 L361,176 L360,182 L359,190 L357,198 L356,206 L355,212 L354,217 L353,222 L352,228 L351,235 L350,241 L349,245 L349,248 L348,252 L348,256 L347,260 L347,263 L347,266 L347,268 L347,271 L347,275 L347,278 L348,281 L348,283 L348,284 L348,287 L348,290 L348,292 L348,293 L348,294 L348,295 L348,298 L348,300 L348,301 L348,302 L349,302 L349,303 L349,302 L349,301 L349,300 L349,298 L349,295 L350,292 L350,288 L351,285 L352,280 L352,275 L352,269 L353,264 L353,259 L353,253 L353,246 L353,238 L353,231 L353,224 L353,218 L353,210 L354,202 L355,196 L355,193 L355,194 L355,196 L355,200 L355,205 L355,211 L355,219 L355,230 L354,242 L353,252 L352,262 L352,271 L351,279 L351,285 L351,289 L351,291 L351,290 L352,286 L353,281 L354,275 L355,266 L357,253 L357,241 L359,228 L362,215 L365,202 L368,194 L369,190 L369,189 L369,191 L368,194 L366,199 L365,205 L364,214 L361,227 L359,239 L357,249 L355,256 L354,262 L354,266 L354,269 L354,271 L353,272 L353,271 L353,268 L354,263 L355,256 L357,247 L359,236 L360,225 L361,217 L361,209 L362,202 L363,197 L363,194 L363,195 L363,196 L363,197 L363,198 L362,199 L362,200 L362,204 L362,209 L361,216 L361,223 L361,228 L361,232 L361,236 L361,240 L361,244 L361,247 L360,246 L360,245 L361,242 L362,236 L364,227 L365,216 L366,205 L367,200 L367,201 L367,202 L366,207 L366,215 L364,224 L363,237 L362,246 L361,249 L362,247 L363,241 L364,231 L367,219 L370,206 L373,195 L373,187 L374,177 L375,168 L377,160 L379,154 L379,149 L380,145 L381,140 L383,136 L385,133 L386,132 L386,133 L386,134 L385,136 L385,138 L384,140 L383,143 L383,148 L382,155 L380,165 L378,174 L376,182 L374,191 L372,201 L369,210 L368,218 L367,226 L367,234 L366,242 L366,249 L366,256 L366,262 L365,270 L364,277 L364,285 L362,292 L361,300 L360,308 L359,315 L359,322 L359,327 L358,333 L358,338 L357,344 L357,349 L357,353 L356,357 L356,359 L356,358 L357,357 L357,354 L357,350 L358,346 L359,341 L359,334 L361,325 L362,317 L363,309 L364,304 L364,299 L364,293 L364,286 L365,276 L367,265 L368,259 L369,255 L369,250 L369,244 L370,235 L372,228 L373,225 L374,223 L374,222 L374,220 L374,221 L374,227 L373,235 L372,244 L371,254 L370,267 L369,278 L368,287 L368,293 L368,296 L368,297 L368,295 L369,290 L370,281 L371,270 L374,253 L376,233 L379,219 L381,210 L383,203 L383,201 L383,202 L383,207 L382,217 L380,230 L377,246 L373,264 L370,279 L368,287 L368,291 L368,292 L368,289 L369,281 L371,269 L374,254 L377,237 L381,222 L383,212 L384,209 L384,210 L383,212 L383,220 L381,229 L380,241 L378,256 L376,268 L375,276 L374,280 L374,281 L375,281 L375,282 L375,283 L375,285 L375,287 L375,290 L374,292 L374,295 L374,297 L374,298 L374,297 L374,296 L374,293 L376,288 L377,281 L379,269 L382,258 L383,246 L384,234 L385,223 L386,215 L386,208 L386,203 L386,200 L387,198 L387,197 L388,196 L388,198 L388,202 L387,210 L386,222 L383,241 L381,257 L381,270 L381,280 L381,285 L382,286 L382,283 L382,275 L383,263 L383,249 L386,228 L388,208 L392,193 L397,184 L399,180 L398,183 L397,191 L394,201 L391,212 L388,229 L383,248 L381,263 L380,273 L379,280 L379,283 L379,284 L379,283 L379,279 L379,275 L380,272 L381,269 L381,267 L382,266 L382,265 L382,264 L382,265 L382,264 L382,260 L383,254 L385,246 L386,238 L388,230 L388,223 L389,216 L390,210 L391,207 L393,204 L394,205 L394,208 L393,215 L391,224 L388,237 L385,250 L383,261 L383,272 L382,282 L382,292 L381,301 L381,310 L379,319 L378,327 L376,335 L375,342 L374,349 L374,356 L374,361 L374,363 L375,364 L375,361 L376,357 L376,351 L377,344 L379,335 L380,326 L381,319 L382,313 L383,307 L383,303 L384,298 L385,294 L385,290 L386,285 L386,281 L386,278 L386,274 L387,269 L387,264 L388,260 L388,258 L389,256 L390,252 L391,246 L392,239 L394,235 L394,232 L394,229 L394,224 L395,215 L396,206 L398,198 L400,190 L401,180 L404,173 L406,167 L407,164 L408,164 L407,166 L405,174 L402,187 L399,203 L396,225 L392,244 L390,257 L389,265 L388,268 L388,263 L388,252 L390,238 L393,223 L397,208 L399,200 L400,200 L400,201 L399,207 L397,217 L395,232 L392,251 L390,264 L388,272 L388,274 L388,273 L389,268 L391,261 L394,250 L396,237 L398,224 L399,212 L400,202 L401,195 L403,190 L404,187 L405,187 L405,188 L404,190 L403,192 L403,193 L403,195 L403,197 L402,202 L401,211 L399,223 L398,235 L396,246 L395,256 L395,265 L395,271 L394,275 L393,277 L393,278 L394,277 L395,275 L396,271 L398,264 L400,256 L402,242 L403,227 L406,212 L408,200 L409,195 L410,191 L410,195 L408,203 L405,213 L402,227 L398,244 L395,256 L393,265 L393,272 L393,276 L393,278 L393,279 L393,278 L394,274 L396,266 L398,255 L402,237 L405,220 L408,206 L409,194 L410,182 L411,168 L413,154 L417,141 L420,132 L423,124 L425,120 L425,118 L425,117 L425,118 L425,123 L423,132 L420,148 L414,174 L410,197 L408,210 L407,220 L407,225 L407,226 L408,223 L409,212 L412,197 L415,179 L420,158 L423,141 L426,129 L429,122 L430,120 L430,122 L429,130 L427,143 L424,160 L418,182 L414,201 L414,207 L415,207 L415,205 L416,198 L418,185 L420,169 L424,153 L427,144 L428,140 L428,143 L427,152 L426,163 L425,176 L425,186 L425,190 L425,186 L426,175 L428,161 L431,145 L434,134 L436,129 L437,128 L437,129 L436,135 L433,148 L429,163 L423,183 L421,198 L422,200 L423,200 L424,196 L425,186 L427,173 L430,158 L433,147 L434,144 L434,145 L434,146 L434,149 L433,153 L433,156 L432,159 L432,163 L431,165 L431,166 L431,167 L431,168 L431,170 L431,172 L431,173 L430,175 L430,176 L429,178 L429,180 L428,183 L427,185 L427,188 L427,190 L426,193 L425,197 L423,201 L423,203 L423,205 L422,206 L422,208 L421,210 L421,214 L420,216 L420,219 L420,221 L419,222 L419,225 L419,227 L419,229 L419,231 L419,234 L419,236 L418,238 L418,239 L418,240 L418,241 L418,242 L418,243 L418,244 L418,245 L418,246 L418,247 L418,249 L418,253 L417,255 L417,256 L417,257 L417,259 L417,261 L416,264 L416,266 L416,268 L415,271 L415,273 L415,276 L415,277 L415,278 L414,280 L414,282 L414,284 L413,286 L413,287 L413,288 L413,290 L413,292 L413,294 L413,295 L413,298 L413,300 L413,305 L413,309 L413,312 L413,315 L413,318 L413,321 L412,324 L411,328 L410,331 L410,336 L410,341 L410,345 L410,347 L410,350 L409,352 L409,356 L408,358 L408,359 L408,358 L408,357 L408,355 L409,353 L409,350 L409,346 L410,341 L410,335 L411,331 L411,327 L411,324 L412,320 L412,317 L413,314 L413,310 L414,307 L414,304 L415,301 L415,300 L415,299 L416,298 L416,295 L417,291 L418,287 L418,284 L419,282 L419,278 L420,272 L421,264 L423,258 L423,256 L423,254 L423,251 L423,246 L424,241 L425,238 L425,237 L425,236 L425,235 L425,233 L425,232 L425,231 L425,234 L425,239 L425,248 L423,259 L422,271 L420,279 L420,288 L420,294 L420,296 L420,293 L420,286 L420,276 L423,261 L427,243 L431,226 L435,215 L437,211 L437,214 L436,222 L435,232 L433,244 L431,258 L430,271 L430,281 L430,285 L430,287 L430,286 L430,282 L430,275 L432,264 L434,249 L437,235 L437,232 L437,233 L437,235 L435,242 L434,253 L432,267 L431,280 L430,290 L430,293 L430,290 L430,281 L430,271 L432,257 L435,242 L436,235 L436,233 L436,234 L436,236 L435,239 L435,243 L434,248 L433,254 L433,261 L432,269 L430,278 L430,284 L429,288 L429,291 L428,293 L428,294 L428,293 L427,292 L427,291 L427,290 L427,289 L427,288 L427,286 L427,284 L427,281 L427,279 L427,277 L427,276 L427,275 L427,274 L427,273 L427,272 L427,271 L427,270 L427,269 L427,268 L427,267 L427,266 L427,265 L427,264 L428,264 L428,263 L428,261 L429,259 L430,257 L431,254 L431,251 L432,248 L432,245 L432,243 L433,240 L433,237 L433,234 L433,231 L434,227 L434,223 L434,219 L435,214 L435,209 L435,205 L435,201 L436,196 L437,191 L437,186 L439,182 L440,177 L440,171 L442,166 L442,159 L443,153 L445,147 L445,140 L446,132 L447,124 L449,116 L451,109 L453,101 L455,93 L457,86 L458,80 L458,77 L459,74 L460,69 L462,63 L464,59 L466,56 L466,58 L465,59 L464,61 L464,63 L464,64 L463,66 L462,69 L462,72 L461,76 L460,81 L459,85 L459,91 L458,96 L457,100 L456,104 L455,109 L454,115 L453,121 L452,127 L451,132 L450,137 L449,143 L447,148 L446,154 L445,158 L444,162 L444,166 L443,170 L442,173 L441,177 L440,180 L440,182 L440,184 L440,187 L439,189 L439,191 L438,193 L438,194 L437,195 L437,198 L437,200 L437,201 L437,202 L437,203 L437,204 L437,205 L437,206 L437,207 L437,208 L437,209 L437,210 L437,211 L437,213 L436,217 L436,221 L435,224 L435,228 L435,231 L434,234 L434,237 L434,239 L434,240 L434,241 L433,241 L433,242 L433,243 L433,244 L433,245 L432,246 L432,247 L432,248 L431,249 L431,251 L431,252 L431,253 L430,253 L430,252 L431,250 L432,246 L432,243 L433,239 L434,235 L436,230 L437,222 L439,214 L442,205 L444,196 L446,191 L446,188 L445,190 L445,193 L444,197 L444,201 L442,208 L441,220 L439,234 L437,246 L436,251 L436,249 L437,242 L438,230 L441,214 L446,196 L448,185 L448,180 L448,181 L447,186 L444,196 L441,208 L437,222 L436,232 L436,231 L437,224 L439,212 L443,196 L449,180 L452,172 L452,173 L452,178 L450,188 L449,202 L447,217 L447,227 L447,234 L448,231 L449,220 L452,205 L454,193 L455,187 L455,188 L455,193 L454,203 L453,215 L452,229 L452,242 L452,249 L452,247 L452,239 L453,227 L455,212 L458,200 L459,197 L459,198 L459,200 L459,206 L459,215 L458,226 L457,237 L457,246 L457,248 L457,246 L457,239 L457,230 L459,219 L461,207 L462,203 L462,202 L462,203 L462,206 L461,212 L460,222 L459,236 L457,252 L455,261 L455,264 L455,267 L455,266 L455,263 L455,257 L456,251 L457,242 L459,233 L460,223 L461,216 L461,212 L462,211 L462,212 L462,215 L462,222 L461,229 L460,239 L459,251 L458,264 L458,273 L457,281 L457,285 L457,289 L457,292 L457,294 L457,295 L457,296 L457,295 L457,293 L457,291 L458,287 L459,278 L460,263 L462,245 L466,229 L467,218 L468,210 L469,202 L469,197 L470,195 L470,198 L470,204 L470,212 L469,224 L467,241 L464,259 L463,272 L462,278 L462,280 L463,276 L464,268 L465,254 L467,238 L469,220 L471,210 L472,206 L473,206 L473,208 L472,215 L472,227 L471,241 L470,259 L469,275 L469,283 L469,284 L470,283 L471,277 L471,266 L473,251 L475,236 L476,224 L477,219 L476,220 L476,223 L474,230 L474,237 L473,244 L472,250 L471,255 L471,259 L471,260 L471,261 L471,262 L471,264 L471,268 L471,273 L470,278 L470,281 L470,283 L470,284 L470,285 L470,286 L470,287 L470,286 L469,284 L469,282 L469,279 L470,277 L470,274 L471,272 L471,270 L471,267 L472,264 L472,261 L473,259 L473,258 L473,257 L473,254 L473,251 L473,247 L473,245 L474,243 L474,239 L474,236 L474,231 L474,227 L474,226 L475,226 L475,228 L475,233 L475,239 L474,247 L474,254 L474,256 L474,253 L474,246 L474,238 L475,225 L477,211 L478,200 L478,191 L477,183 L477,173 L478,161 L480,149 L484,140 L486,133 L489,128 L490,123 L491,120 L491,121 L491,127 L490,138 L488,152 L485,171 L482,189 L480,205 L479,216 L478,222 L478,219 L480,210 L483,195 L486,178 L489,158 L491,142 L493,135 L493,134 L492,139 L490,151 L488,166 L484,185 L481,204 L478,216 L478,222 L478,221 L480,214 L483,200 L487,183 L491,160 L495,140 L497,132 L497,130 L497,134 L497,143 L496,155 L495,171 L492,190 L489,204 L488,207 L489,207 L489,203 L490,193 L492,178 L494,161 L498,148 L498,144 L498,145 L498,146 L498,150 L499,157 L499,166 L498,178 L497,190 L496,202 L496,212 L496,220 L495,230 L493,242 L492,253 L491,260 L491,266 L491,271 L491,276 L491,281 L492,283 L492,285 L492,284 L492,283 L492,281 L492,277 L492,273 L493,267 L493,260 L493,251 L494,242 L495,231 L496,218 L497,207 L498,198 L498,190 L499,181 L499,169 L500,157 L501,149 L501,143 L501,136 L501,129 L502,120 L503,114 L503,113 L503,112 L503,111 L503,113 L503,117 L503,121 L503,126 L503,134 L503,148 L503,163 L502,180 L501,196 L500,210 L499,224 L498,239 L496,252 L496,264 L496,270 L495,272 L495,270 L495,265 L495,258 L495,249 L495,234 L496,213 L499,192 L501,175 L503,164 L503,155 L504,150 L504,149 L505,151 L504,163 L502,180 L499,202 L496,227 L496,241 L496,250 L496,252 L496,249 L496,237 L496,218 L499,198 L503,179 L506,170 L506,166 L506,170 L506,182 L503,200 L500,223 L498,240 L499,246 L499,247 L499,245 L499,236 L499,221 L500,205 L503,185 L505,177 L505,178 L505,183 L504,193 L503,207 L503,225 L502,240 L502,249 L501,253 L501,251 L500,242 L500,229 L502,214 L504,199 L505,189 L506,185 L506,190 L506,203 L506,220 L505,237 L504,251 L503,259 L503,260 L503,257 L503,247 L503,234 L504,219 L507,203 L508,193 L508,190 L508,191 L508,195 L508,206 L508,219 L508,233 L508,243 L508,246 L508,245 L508,240 L509,229 L510,216 L512,201 L513,194 L514,193 L514,198 L514,207 L514,220 L513,234 L513,241 L513,238 L513,229 L514,219 L516,207 L518,200 L518,199 L518,200 L518,205 L519,213 L519,222 L520,232 L520,236 L520,235 L520,230 L520,224 L521,219 L523,214 L524,210 L524,207 L524,202 L525,196 L525,190 L526,184 L527,178 L527,172 L528,163 L530,154 L532,151 L533,150 L533,151 L533,155 L533,160 L532,167 L530,178 L528,193 L527,209 L527,224 L526,238 L526,250 L526,259 L526,265 L525,272 L525,279 L524,284 L524,288 L524,289 L524,288 L524,287 L524,285 L524,282 L524,278 L524,272 L525,264 L525,256 L526,245 L526,234 L526,222 L525,217 L525,213 L525,208 L525,201 L525,191 L527,183 L528,180 L528,178 L528,175 L527,170 L527,166 L527,165 L528,168 L528,173 L529,178 L530,184 L530,192 L531,206 L530,220 L530,230 L529,238 L528,246 L528,252 L528,256 L528,258 L528,257 L529,252 L529,244 L530,235 L530,224 L531,211 L531,202 L531,198 L531,199 L531,203 L532,211 L532,221 L531,234 L530,242 L530,246 L530,248 L530,247 L531,243 L532,236 L533,228 L534,217 L535,207 L535,197 L536,186 L536,176 L537,166 L539,156 L540,149 L541,144 L542,141 L542,139 L543,136 L544,133 L545,132 L545,136 L545,142 L544,149 L543,158 L542,172 L540,190 L537,209 L537,223 L536,237 L535,251 L534,264 L533,277 L533,287 L533,291 L532,294 L532,295 L532,297 L532,298 L532,296 L532,291 L532,283 L532,273 L534,258 L537,240 L537,224 L537,210 L538,198 L540,187 L541,175 L542,164 L543,155 L543,149 L543,145 L543,141 L544,136 L545,130 L547,125 L547,122 L548,122 L548,123 L549,124 L550,124 L550,125 L550,126 L551,128 L552,129 L552,131 L552,132 L553,133 L553,135 L553,137 L552,139 L551,141 L550,144 L550,148 L548,153 L547,158 L546,163 L545,168 L544,173 L543,178 L542,182 L542,186 L542,190 L541,193 L540,198 L540,203 L540,207 L540,210 L540,213 L540,216 L540,220 L540,225 L540,229 L540,232 L540,236 L539,241 L538,246 L538,253 L537,258 L537,263 L537,269 L536,275 L536,282 L535,288 L535,293 L535,298 L535,304 L535,310 L534,317 L534,324 L534,328 L533,331 L533,336 L533,342 L533,349 L533,353 L533,355 L533,356 L533,357 L533,359 L533,361 L533,362 L533,361 L533,360 L533,357 L533,353 L534,347 L535,339 L536,332 L537,324 L538,317 L538,312 L538,308 L537,305 L537,303 L537,300 L537,294 L538,288 L540,282 L543,275 L545,268 L547,260 L548,251 L549,245 L550,241 L550,236 L550,231 L551,224 L552,217 L553,211 L554,207 L554,201 L555,196 L555,191 L555,190 L555,189 L555,188 L555,187 L555,186 L555,184 L555,182 L555,180 L555,178 L555,177 L555,176 L555,177 L555,179 L554,184 L552,195 L550,210 L547,221 L547,229 L546,237 L546,245 L545,251 L544,258 L543,263 L542,268 L541,273 L541,278 L540,281 L540,282 L540,281 L540,278 L540,274 L541,271 L542,265 L544,256 L546,242 L547,226 L549,214 L550,206 L550,200 L550,194 L550,191 L551,190 L552,188 L552,190 L552,193 L552,199 L552,207 L551,219 L550,231 L550,243 L550,255 L550,264 L549,270 L549,272 L549,273 L548,271 L548,266 L549,258 L550,246 L553,230 L556,215 L558,204 L558,194 L558,185 L559,180 L560,178 L560,181 L560,185 L560,190 L559,198 L557,207 L555,220 L552,233 L550,246 L550,258 L549,267 L549,273 L549,276 L549,274 L549,269 L550,262 L552,252 L555,239 L559,222 L561,208 L562,196 L562,188 L562,184 L562,183 L562,184 L562,190 L562,201 L561,215 L558,232 L556,249 L553,260 L552,266 L552,267 L552,265 L553,259 L555,250 L556,239 L558,229 L559,223 L559,222 L558,222 L558,223 L558,224 L558,223 L558,222 L559,220 L559,217 L559,213 L560,210 L560,208 L560,209 L559,215 L558,225 L556,239 L554,253 L552,262 L552,268 L551,271 L551,270 L551,268 L552,264 L552,257 L554,249 L556,237 L559,222 L561,209 L562,202 L562,200 L562,201 L562,204 L562,212 L561,223 L559,238 L557,251 L555,260 L554,265 L554,270 L555,273 L556,276 L557,277 L557,276 L558,274 L559,272 L560,268 L561,265 L562,261 L563,255 L564,250 L564,245 L564,239 L565,232 L566,224 L566,219 L567,214 L567,208 L568,202 L569,195 L571,190 L572,185 L573,180 L574,173 L576,163 L578,154 L579,146 L581,138 L582,128 L584,117 L586,105 L589,98 L589,95 L589,92 L589,91 L589,90 L589,91 L589,95 L587,101 L586,108 L584,117 L581,132 L577,151 L573,168 L570,182 L568,196 L566,212 L564,227 L563,238 L563,245 L562,250 L561,255 L560,260 L559,264 L559,267 L559,268 L560,268 L561,267 L562,266 L562,261 L564,251 L565,239 L567,229 L568,225 L568,224 L568,225 L568,229 L568,236 L568,242 L568,245 L568,246 L568,244 L569,238 L570,229 L573,219 L577,208 L579,197 L580,186 L581,175 L583,162 L586,147 L590,135 L593,126 L594,117 L596,107 L597,97 L600,89 L601,85 L602,80 L603,77 L604,73 L605,70 L606,69 L606,70 L606,72 L605,74 L604,78 L603,83 L601,90 L598,101 L594,114 L592,124 L589,134 L586,144 L584,154 L582,164 L580,175 L579,186 L577,196 L575,206 L573,215 L571,225 L569,233 L569,239 L568,245 L568,250 L567,255 L567,259 L566,261 L566,259 L567,254 L567,247 L568,239 L570,225 L572,209 L575,193 L577,183 L578,177 L579,173 L579,170 L580,169 L580,170 L580,177 L579,188 L576,201 L574,214 L573,223 L573,227 L575,229 L576,228 L577,221 L579,210 L581,198 L582,191 L582,197 L580,206 L579,216 L579,225 L578,230 L579,228 L581,221 L582,210 L584,196 L587,184 L589,180 L589,183 L589,191 L587,201 L586,212 L584,224 L584,233 L584,236 L584,235 L584,229 L585,220 L587,210 L589,200 L591,191 L592,183 L593,175 L594,165 L596,155 L597,145 L599,136 L601,129 L602,121 L604,115 L604,111 L605,109 L605,108 L605,109 L605,110 L605,112 L605,115 L604,119 L603,125 L601,134 L598,148 L595,161 L594,167 L594,169 L595,168 L596,165 L597,161 L599,156 L600,151 L600,148 L600,147 L600,149 L599,151 L598,157 L596,168 L592,182 L589,194 L587,205 L586,215 L585,225 L584,232 L583,236 L583,240 L582,243 L582,244 L583,241 L584,236 L584,230 L586,223 L588,215 L590,203 L592,191 L594,180 L594,174 L594,173 L594,174 L594,177 L594,184 L592,194 L590,209 L587,224 L586,235 L586,242 L586,248 L586,253 L586,256 L586,258 L586,260 L585,260 L585,259 L585,258 L585,255 L585,251 L586,246 L587,243 L587,242 L587,241 L587,240 L587,239 L587,238 L587,236 L587,231 L588,222 L589,210 L591,199 L591,188 L592,178 L593,165 L594,154 L596,146 L597,139 L599,132 L601,123 L603,115 L604,111 L604,108 L604,107 L604,106 L604,107 L604,110 L604,112 L603,114 L603,117 L602,120 L601,128 L599,140 L596,153 L594,166 L593,178 L591,193 L589,207 L587,219 L586,227 L585,232 L584,237 L584,242 L583,246 L583,248 L583,249 L583,248 L583,246 L583,243 L584,238 L585,230 L587,218 L589,202 L592,190 L594,182 L595,178 L595,180 L595,186 L593,196 L591,209 L589,224 L588,231 L588,230 L588,227 L588,221 L589,210 L591,197 L595,180 L597,164 L598,156 L599,150 L599,146 L600,144 L601,144 L601,146 L601,152 L599,161 L596,174 L592,196 L589,215 L588,225 L587,231 L586,236 L586,237 L586,235 L587,228 L589,216 L591,200 L595,183 L597,168 L598,158 L598,153 L598,151 L598,153 L598,157 L597,163 L596,170 L594,180 L590,198 L586,219 L583,240 L582,256 L582,268 L582,278 L581,287 L581,291 L581,292 L581,289 L581,286 L582,283 L582,280 L582,275 L583,267 L585,253 L589,233 L594,213 L597,196 L599,181 L600,172 L600,168 L600,166 L600,168 L599,175 L597,182 L596,190 L593,201 L589,215 L586,230 L585,244 L583,259 L581,272 L579,285 L577,296 L576,306 L575,313 L576,316 L577,317 L578,317 L579,313 L579,308 L579,300 L579,288 L581,269 L584,244 L587,217 L593,193 L596,176 L597,162 L599,149 L600,142 L601,141 L601,145 L599,158 L596,176 L593,198 L587,223 L585,241 L585,247 L585,243 L586,234 L587,219 L591,198 L596,174 L599,160 L598,158 L597,162 L594,173 L591,190 L587,211 L584,236 L582,251 L582,253 L583,250 L583,240 L584,224 L587,204 L594,178 L599,158 L601,154 L601,155 L600,162 L598,175 L596,192 L594,215 L591,239 L591,254 L591,257 L591,256 L591,248 L591,235 L592,219 L596,199 L601,181 L603,172 L603,171 L603,172 L603,178 L601,186 L600,195 L599,202 L599,204 L599,202 L599,200 L600,196 L601,190 L602,183 L604,178 L604,180 L603,188 L602,197 L601,204 L601,208 L602,208 L602,207 L603,203 L603,196 L605,188 L606,180 L608,173 L608,168 L608,162 L609,155 L610,146 L611,138 L613,129 L615,120 L618,111 L620,103 L621,99 L621,97 L621,101 L620,107 L618,114 L616,124 L611,139 L606,154 L604,163 L603,171 L603,176 L603,180 L603,182 L603,180 L603,177 L603,175 L604,173 L604,172 L604,173 L604,178 L603,184 L602,190 L602,194 L602,199 L601,205 L601,211 L600,215 L600,217 L601,217 L602,215 L603,210 L604,202 L607,191 L611,178 L613,173 L612,178 L609,188 L607,200 L605,216 L604,229 L604,237 L604,239 L605,235 L606,227 L607,215 L609,202 L613,188 L615,180 L615,182 L613,189 L611,200 L609,213 L607,229 L606,239 L607,240 L608,237 L608,227 L608,213 L608,196 L611,182 L613,178 L613,180 L613,188 L611,200 L610,215 L608,228 L609,235 L610,236 L611,231 L611,221 L612,207 L614,194 L616,189 L616,191 L616,200 L616,210 L616,219 L617,223 L618,221 L619,212 L619,200 L620,186 L622,173 L624,165 L625,160 L626,154 L627,147 L629,139 L630,132 L631,129 L631,124 L632,119 L632,114 L633,112 L633,113 L633,117 L633,121 L632,125 L631,131 L629,141 L625,158 L621,174 L619,187 L618,196 L616,205 L615,210 L615,212 L615,211 L615,210 L615,209 L616,209 L616,208 L616,209 L616,211 L616,214 L616,218 L615,223 L615,227 L615,230 L614,235 L613,241 L611,246 L611,248 L611,247 L612,247 L613,245 L614,241 L615,235 L617,228 L618,221 L620,212 L620,202 L620,193 L619,190 L618,189 L618,190 L618,191 L618,197 L618,205 L616,217 L614,228 L613,237 L613,243 L614,247 L614,249 L614,244 L613,234 L613,222 L614,209 L617,198 L617,201 L616,209 L615,220 L614,230 L613,239 L613,242 L613,241 L613,236 L614,227 L616,217 L618,207 L618,204 L618,207 L618,217 L616,226 L616,233 L616,238 L616,239 L616,236 L616,229 L616,219 L617,207 L618,198 L619,196 L619,197 L619,198 L619,200 L619,205 L618,214 L617,228 L615,243 L613,257 L610,269 L609,280 L610,286 L612,289 L613,288 L613,281 L614,270 L615,255 L617,238 L620,221 L620,205 L620,193 L620,188 L620,187 L621,188 L621,195 L620,206 L619,219 L618,232 L617,242 L616,245 L617,244 L617,241 L618,230 L618,216 L621,200 L622,193 L623,193 L623,197 L622,206 L621,215 L621,225 L621,233 L621,236 L621,235 L621,231 L621,224 L622,217 L623,209 L626,201 L627,194 L628,188 L628,180 L630,172 L632,166 L634,159 L635,153 L636,146 L638,137 L639,129 L641,122 L643,115 L644,108 L645,102 L645,95 L646,91 L646,89 L646,92 L646,95 L646,100 L645,106 L643,115 L640,127 L638,135 L638,140 L637,146 L637,149 L637,151 L637,149 L637,146 L638,144 L639,142 L639,141 L640,140 L640,141 L640,142 L640,143 L640,144 L640,145 L640,146 L641,146 L641,147 L641,148 L641,149 L641,151 L640,157 L638,166 L637,176 L635,184 L635,188 L635,187 L635,183 L635,175 L636,163 L639,150 L641,139 L642,138 L641,139 L639,147 L636,157 L633,169 L629,180 L628,184 L629,183 L630,177 L632,167 L634,154 L637,143 L637,142 L637,150 L635,161 L633,171 L632,178 L633,176 L635,167 L636,157 L638,152 L638,153 L638,161 L637,170 L636,176 L635,178 L636,176 L638,169 L639,162 L640,160 L640,162 L640,169 L639,176 L638,180 L639,180 L640,176 L642,170 L643,164 L644,163 L644,166 L644,172 L643,177 L643,182 L643,185 L642,188 L642,192 L641,198 L640,204 L638,211 L637,219 L636,226 L635,234 L634,242 L633,249 L632,256 L631,264 L630,271 L628,279 L627,286 L625,291 L624,294 L623,299 L623,305 L623,311 L622,315 L621,317 L621,320 L621,324 L621,327 L621,330 L621,333 L621,334 L621,335 L622,335 L623,336 L624,337 L624,338 L624,337 L624,335 L624,332 L624,329 L625,324 L625,319 L625,314 L625,310 L625,307 L626,303 L626,298 L627,293 L628,286 L628,282 L628,278 L628,275 L628,270 L628,265 L628,262 L628,261 L628,259 L628,256 L628,252 L629,248 L629,247 L629,248 L629,247 L629,246 L629,245 L630,242 L631,239 L632,236 L633,234 L633,233 L634,231 L635,227 L636,225 L637,223 L637,222 L638,221 L638,220 L639,217 L640,215 L640,214 L640,213 L639,213 L638,213 L637,213 L638,213 L638,212 L638,211 L638,210 L638,209 L638,208 L638,207 L638,206 L639,205 L639,204 L640,203 L640,202 L640,201 L640,200 L640,199 L640,198 L640,197 L641,195 L641,194 L641,193 L641,192 L641,191 L641,190 L642,188 L642,186 L642,185 L643,185 L643,184 L643,183 L643,182 L643,181 L643,180 L643,179 L643,178 L642,178 L641,178 L640,178 L639,178 L639,177 L639,176 L639,175 L639,174 L640,173 L640,172 L640,171 L640,170 L640,168 L641,165 L643,158 L645,151 L647,143 L648,136 L650,129 L650,124 L651,120 L651,119 L651,120 L651,122 L651,128 L651,138 L649,155 L646,173 L643,188 L641,204 L638,222 L636,238 L635,251 L633,260 L633,264 L633,265 L633,264 L635,260 L637,254 L638,247 L640,237 L643,219 L648,196 L654,176 L658,163 L659,159 L657,165 L655,175 L652,188 L650,203 L645,222 L642,239 L640,250 L639,254 L639,251 L639,244 L639,232 L640,216 L644,198 L648,183 L650,176 L650,178 L648,187 L646,200 L643,217 L640,234 L640,243 L641,244 L642,243 L644,235 L646,222 L649,205 L653,191 L655,187 L655,190 L655,199 L653,212 L651,229 L649,245 L649,253 L650,252 L650,246 L652,236 L653,222 L656,207 L659,201 L659,203 L658,210 L657,220 L657,230 L657,239 L657,244 L658,245 L658,242 L658,234 L659,224 L660,217 L661,215 L661,219 L661,227 L660,237 L660,247 L659,255 L658,261 L658,262 L659,259 L659,251 L660,239 L662,229 L664,224 L664,229 L662,239 L661,249 L660,262 L658,275 L658,283 L658,284 L658,282 L658,275 L658,264 L658,251 L660,237 L662,229 L662,228 L662,231 L663,238 L662,250 L661,263 L660,278 L659,291 L658,300 L658,305 L659,303 L659,298 L660,289 L660,280 L661,269 L662,257 L663,244 L665,235 L666,232 L666,233 L667,237 L667,243 L667,251 L666,260 L665,273 L664,288 L663,304 L662,316 L664,323 L665,325 L667,325 L667,321 L667,313 L667,304 L667,295 L667,287 L666,279 L666,273 L666,268 L667,266 L667,268 L667,273 L667,280 L666,290 L665,305 L664,319 L663,326 L662,329 L662,327 L662,322 L661,313 L660,300 L661,283 L664,265 L666,254 L666,251 L666,252 L665,255 L664,266 L662,279 L661,295 L660,309 L660,313 L660,312 L661,307 L661,296 L662,280 L663,260 L665,249 L667,247 L667,250 L667,256 L667,264 L667,269 L668,272 L669,273 L669,271 L670,267 L670,261 L670,254 L670,249 L670,246 L671,246 L671,247 L672,249 L673,252 L674,255 L674,257 L674,259 L674,257 L674,251 L674,243 L674,233 L674,224 L675,220 L676,218 L676,217 L676,216 L677,218 L677,224 L677,232 L677,240 L677,246 L677,250 L677,249 L677,245 L678,238 L679,231 L679,224 L680,218 L680,213 L680,209 L680,203 L680,198 L682,190 L682,183 L684,176 L684,170 L685,165 L685,161 L685,156 L685,150 L685,146 L686,144 L686,142 L686,141 L686,142 L687,144 L687,146 L687,148 L687,152 L687,158 L685,169 L683,182 L681,192 L680,202 L679,212 L679,220 L680,227 L680,234 L679,237 L681,234 L682,232 L683,227 L684,221 L686,213 L688,205 L689,198 L690,192 L690,187 L691,182 L692,178 L692,172 L693,167 L693,161 L693,154 L694,146 L695,139 L696,131 L697,125 L697,121 L698,119 L698,118 L698,119 L698,121 L697,126 L696,133 L696,142 L694,154 L693,168 L691,184 L687,200 L685,213 L683,223 L683,229 L683,233 L683,237 L684,238 L684,237 L684,235 L685,232 L686,229 L688,224 L690,218 L692,207 L694,194 L696,183 L697,173 L699,164 L701,158 L703,151 L705,143 L706,136 L709,127 L711,116 L712,106 L714,97 L714,89 L715,82 L715,75 L716,70 L716,67 L716,66 L716,65 L716,64 L716,65 L715,66 L715,68 L715,72 L714,76 L714,81 L713,86 L712,91 L711,95 L711,100 L711,106 L711,110 L711,113 L710,116 L710,119 L710,124 L709,134 L709,144 L708,151 L707,156 L706,163 L705,171 L704,180 L703,187 L702,192 L702,194 L701,196 L701,198 L701,201 L701,200 L701,198 L701,197 L701,195 L701,193 L702,192 L702,190 L703,188 L704,187 L704,185 L705,184 L706,182 L707,181 L707,180 L707,181 L707,182 L707,183 L708,183 L708,181 L709,176 L710,170 L711,163 L712,156 L712,149 L713,142 L713,135 L714,129 L715,124 L716,124 L716,123 L716,124 L716,126 L716,131 L715,139 L714,148 L711,161 L709,175 L706,188 L704,197 L704,201 L704,202 L705,201 L705,199 L706,195 L706,190 L708,186 L709,181 L710,176 L711,170 L711,163 L712,155 L714,146 L715,136 L717,129 L718,124 L719,123 L719,122 L718,127 L717,135 L715,145 L712,157 L710,168 L709,175 L709,177 L709,176 L709,171 L711,162 L713,151 L715,139 L716,131 L717,131 L717,133 L716,139 L715,148 L715,156 L714,163 L715,165 L716,164 L717,160 L718,152 L720,144 L721,137 L721,132 L721,128 L722,122 L724,116 L726,109 L727,103 L728,100 L728,99 L728,98 L728,100 L728,103 L727,107 L727,114 L726,122 L725,129 L723,136 L723,141 L722,143 L722,144 L722,145 L722,147 L722,149 L722,150 L722,149 L722,146 L723,141 L724,133 L726,125 L727,121 L727,122 L726,127 L724,138 L721,152 L716,169 L712,185 L711,194 L711,198 L711,199 L712,196 L712,189 L713,179 L714,168 L716,153 L719,141 L720,138 L720,141 L719,149 L718,160 L716,173 L714,185 L714,191 L714,193 L714,190 L716,182 L719,172 L723,159 L726,147 L728,139 L729,136 L729,138 L728,144 L727,153 L725,165 L722,178 L719,190 L719,195 L718,198 L718,199 L718,198 L718,194 L720,186 L721,176 L723,163 L726,154 L726,152 L726,153 L726,154 L726,156 L725,159 L725,162 L724,165 L724,167 L724,166 L724,164 L724,163 L724,161 L725,158 L726,156 L726,155 L725,155 L725,156 L724,157 L724,158 L723,160 L723,163 L722,168 L720,176 L719,182 L718,188 L718,194 L718,200 L717,205 L716,211 L716,219 L714,229 L712,239 L710,249 L709,259 L708,271 L706,283 L704,296 L702,310 L700,319 L699,325 L699,328 L699,331 L700,336 L700,341 L699,344 L699,346 L699,344 L699,340 L699,335 L700,327 L701,317 L702,304 L704,292 L705,282 L706,274 L707,268 L708,263 L709,256 L711,249 L714,242 L717,234 L719,227 L721,220 L723,213 L725,207 L726,201 L727,197 L728,193 L729,190 L729,188 L730,186 L730,185 L731,185 L731,186 L731,187 L731,189 L731,193 L731,195 L731,197 L731,198 L731,197 L731,196 L731,195 L731,194 L731,192 L732,190 L732,189 L733,187 L733,186 L733,184 L734,182 L735,179 L737,176 L738,173 L738,171 L738,170 L738,169 L739,167 L739,164 L740,161 L741,156 L742,153 L742,149 L743,144 L743,139 L744,134 L745,129 L746,124 L747,118 L748,112 L749,107 L750,102 L750,98 L751,93 L752,89 L753,85 L754,81 L755,78 L755,74 L755,71 L755,72 L755,73 L755,74 L754,75 L754,77 L754,78 L753,79 L753,80 L753,82 L753,85 L752,90 L752,95 L751,99 L750,102 L750,103 L750,106 L749,110 L748,115 L748,119 L747,122 L747,123 L747,124 L747,126 L746,128 L746,129 L746,130 L745,130 L745,131 L745,132 L745,133 L744,134 L744,135 L743,136 L743,137 L743,139 L742,141 L742,143 L741,145 L741,147 L740,150 L740,153 L739,156 L738,160 L737,165 L736,172 L734,178 L733,182 L733,184 L732,187 L732,190 L731,193 L731,196 L731,198 L731,200 L731,201 L730,203 L730,207 L728,210 L728,215 L727,218 L726,221 L726,220 L727,215 L728,208 L730,200 L733,189 L736,178 L740,168 L743,158 L746,146 L748,137 L749,136 L749,137 L748,141 L745,150 L742,162 L738,178 L732,198 L730,210 L730,212 L730,211 L731,207 L733,196 L736,180 L743,158 L748,139 L751,132 L750,134 L747,142 L745,154 L742,168 L739,187 L735,207 L731,223 L730,231 L729,235 L729,238 L729,239 L729,240 L728,237 L728,229 L729,215 L733,194 L738,172 L742,160 L743,154 L743,153 L743,154 L741,158 L739,168 L737,181 L734,197 L732,211 L731,219 L731,222 L731,221 L731,217 L733,210 L735,200 L738,188 L742,177 L744,172 L744,173 L743,178 L741,186 L739,195 L738,206 L737,214 L737,216 L738,214 L738,210 L739,204 L741,197 L744,188 L746,179 L747,174 L747,172 L747,171 L747,173 L747,178 L747,183 L746,188 L745,193 L744,197 L743,200 L743,202 L743,201 L743,199 L744,195 L745,189 L747,181 L748,171 L750,164 L750,161 L750,162 L750,166 L748,173 L748,180 L746,187 L746,192 L746,191 L746,190 L746,187 L747,182 L748,176 L749,171 L750,169 L750,168 L750,169 L750,170 L750,171 L750,172 L750,174 L750,176 L750,178 L750,180 L750,181 L750,180 L750,179 L750,178 L750,179 L750,181 L749,184 L749,186 L749,189 L748,190 L748,191 L748,189 L749,184 L751,177 L753,170 L754,165 L754,163 L754,164 L754,163 L754,162 L754,161 L754,159 L755,157 L755,156 L755,155 L755,156 L755,158 L754,163 L753,172 L750,185 L747,201 L745,216 L743,230 L740,247 L738,265 L736,284 L733,302 L732,314 L732,318 L732,316 L732,308 L732,297 L733,282 L736,266 L739,246 L742,227 L744,214 L745,203 L745,195 L745,190 L745,187 L746,185 L746,184 L747,185 L747,187 L747,193 L745,201 L744,211 L742,226 L739,241 L737,251 L736,259 L736,261 L737,260 L738,253 L740,243 L742,231 L746,213 L750,196 L753,187 L754,183 L755,182 L755,185 L755,193 L754,202 L753,217 L750,233 L748,244 L747,250 L747,253 L748,250 L748,241 L750,229 L753,213 L757,201 L758,198 L758,199 L756,204 L755,214 L753,227 L750,243 L748,253 L748,255 L748,253 L749,245 L750,232 L752,216 L756,198 L759,190 L760,190 L760,195 L758,204 L757,215 L755,227 L754,237 L754,239 L754,237 L755,232 L756,222 L758,210 L761,200 L762,199 L762,202 L760,210 L759,217 L759,226 L759,233 L760,236 L760,234 L761,228 L761,220 L762,212 L763,207 L763,208 L763,207 L763,206 L762,206 L762,205 L762,204 L762,203 L762,202 L762,201 L762,200 L762,199 L762,198 L762,200 L762,203 L761,206 L760,211 L758,219 L755,229 L753,239 L750,247 L750,253 L749,260 L748,269 L748,278 L746,286 L746,292 L746,296 L746,300 L747,305 L747,308 L747,310 L747,308 L747,304 L748,299 L748,293 L749,286 L751,275 L753,261 L755,247 L757,235 L758,227 L758,221 L759,215 L759,210 L760,202 L762,196 L763,193 L763,191 L763,190 L763,187 L764,183 L764,180 L765,180 L765,179 L765,178 L765,179 L765,180 L765,182 L765,184 L764,187 L764,191 L763,195 L763,198 L762,201 L761,205 L760,208 L760,210 L759,210 L759,209 L760,205 L760,198 L762,189 L763,176 L765,161 L768,149 L771,139 L774,132 L775,129 L775,126 L775,125 L775,126 L775,128 L775,130 L775,133 L775,136 L774,142 L772,152 L770,164 L769,173 L769,178 L769,179 L770,178 L772,175 L773,171 L775,167 L777,162 L777,159 L777,160 L777,161 L777,163 L777,166 L777,170 L778,173 L778,177 L778,179 L778,180 L778,181 L779,181 L779,184 L778,188 L777,196 L775,206 L773,215 L771,225 L770,234 L769,240 L768,247 L767,255 L766,263 L765,271 L764,280 L763,286 L762,291 L762,295 L762,298 L761,300 L761,298 L760,295 L760,292 L760,288 L760,284 L761,279 L762,271 L764,262 L765,254 L765,248 L765,241 L766,234 L767,227 L767,224 L768,221 L769,217 L770,210 L771,203 L772,198 L773,195 L773,194 L773,192 L774,187 L775,182 L776,178 L777,177 L777,176 L777,174 L777,173 L777,172 L777,173 L777,174 L777,176 L776,181 L775,188 L774,195 L773,200 L773,202 L773,200 L773,198 L773,192 L774,185 L775,176 L776,165 L777,156 L780,148 L782,139 L785,134 L787,132 L787,131 L787,132 L786,138 L784,146 L783,155 L782,166 L780,182 L779,197 L778,207 L778,212 L778,213 L778,210 L778,203 L779,193 L780,181 L782,166 L784,151 L785,146 L785,147 L785,148 L785,151 L785,156 L785,164 L784,173 L783,183 L782,190 L782,192 L782,191 L782,189 L782,185 L783,180 L785,173 L787,166 L787,161 L787,160 L787,161 L787,165 L786,170 L785,176 L783,183 L781,188 L780,191 L780,192 L780,191 L779,191 L778,191 L778,190 L777,190 L777,189 L776,189 L776,188 L775,188 L775,187 L775,186 L774,186 L774,185 L773,185 L772,185 L771,185 L771,184 L770,184 L769,184 L768,184 L768,185 L767,185 L766,185 L766,186 L767,186 L767,187 L768,187 L768,188 L769,188 L768,188 L768,187 L767,187 L768,187 L768,186 L769,186 L770,186 L771,185 L772,185 L773,185 L772,185 L772,184 L771,184 L770,184 L770,185 L770,186 L771,186 L772,186 L772,187 L772,186 L772,185 L773,185 L773,184 L773,185 L774,185 L774,186 L775,186 L775,185 L775,184 L775,182 L775,180 L776,178 L776,177 L776,178 L776,183 L774,191 L772,202 L770,211 L769,218 L768,221 L769,220 L770,212 L773,201 L776,190 L778,185 L777,187 L776,194 L774,205 L772,216 L772,224 L773,229 L775,229 L775,227 L777,223 L778,219 L780,215 L782,210 L783,205 L783,204 L782,209 L781,215 L780,221 L780,222 L780,221 L782,212 L784,195 L787,173 L793,154 L796,139 L798,127 L798,116 L798,105 L798,95 L799,88 L799,84 L799,80 L799,74 L799,68 L800,61 L800,57 L800,56 L800,58 L800,62 L799,67 L799,72 L797,78 L795,88 L792,99 L789,110 L787,122 L784,136 L782,150 L779,162 L777,174 L775,186 L773,199 L772,209 L770,217 L769,224 L768,231 L767,239 L765,246 L764,251 L764,253 L765,253 L766,253 L767,249 L768,239 L771,222 L777,194 L784,165 L791,142 L796,126 L797,119 L797,117 L796,116 L795,119 L794,126 L792,138 L789,152 L784,173 L778,197 L775,217 L772,233 L771,244 L771,252 L771,257 L773,257 L775,254 L776,245 L779,231 L783,212 L789,191 L794,169 L799,145 L804,121 L811,102 L815,89 L817,78 L819,70 L820,65 L820,66 L819,70 L817,75 L815,82 L812,92 L806,110 L798,141 L792,167 L789,186 L787,203 L785,220 L784,238 L782,250 L781,255 L780,256 L780,255 L780,253 L780,251 L780,249 L782,245 L783,239 L786,228 L789,215 L793,204 L796,194 L798,184 L799,179 L800,174 L802,165 L802,161 L802,162 L802,163 L801,166 L799,173 L796,183 L792,197 L787,219 L784,238 L781,255 L779,269 L777,281 L775,290 L775,298 L775,308 L775,317 L773,325 L772,331 L772,336 L772,338 L772,337 L772,334 L774,327 L775,320 L777,312 L778,301 L779,280 L784,256 L789,238 L793,226 L794,217 L795,206 L796,198 L796,193 L796,195 L796,199 L795,203 L794,210 L794,220 L792,230 L792,234 L792,232 L792,228 L793,221 L796,210 L799,196 L802,183 L804,173 L805,167 L806,159 L808,148 L809,142 L810,136 L812,128 L813,123 L813,120 L814,118 L814,115 L814,113 L814,112 L815,111 L816,110 L816,109 L816,112 L814,122 L811,134 L806,151 L802,166 L799,179 L794,196 L789,215 L785,230 L783,239 L782,245 L782,247 L783,249 L784,250 L785,248 L786,240 L787,227 L789,212 L794,186 L800,159 L806,138 L812,124 L814,117 L814,118 L811,127 L807,140 L802,157 L797,178 L792,200 L789,218 L789,229 L789,234 L789,235 L790,234 L792,228 L795,215 L799,195 L805,168 L811,143 L816,124 L819,114 L820,111 L820,113 L817,124 L814,143 L809,165 L804,189 L801,209 L800,224 L800,232 L801,233 L802,229 L804,216 L809,195 L816,169 L822,149 L826,138 L828,134 L827,139 L824,150 L822,163 L820,180 L818,197 L816,211 L814,223 L813,231 L812,232 L813,231 L814,220 L816,201 L819,177 L825,156 L828,151 L827,154 L824,164 L822,176 L821,192 L820,209 L819,223 L819,229 L819,227 L820,220 L821,208 L824,195 L829,179 L832,166 L833,150 L833,136 L835,128 L836,127 L836,130 L834,141 L833,152 L831,163 L831,174 L829,186 L827,197 L827,200 L827,199 L827,190 L827,178 L828,163 L831,148 L834,143 L834,146 L833,156 L831,170 L828,186 L825,200 L824,207 L824,208 L824,207 L825,203 L826,193 L828,180 L831,167 L834,161 L834,160 L834,161 L834,164 L834,171 L832,182 L829,199 L825,213 L823,224 L821,235 L819,246 L818,255 L817,263 L817,268 L817,271 L817,275 L817,280 L817,286 L817,291 L817,293 L817,295 L817,297 L816,299 L816,300 L816,299 L816,298 L816,297 L816,295 L816,293 L816,289 L816,285 L816,281 L817,278 L817,274 L818,267 L819,259 L821,255 L821,252 L821,250 L821,246 L821,238 L822,228 L824,222 L826,217 L827,214 L827,208 L828,201 L829,196 L829,195 L830,193 L830,190 L831,185 L832,180 L832,178 L832,177 L832,176 L832,175 L832,176 L832,178 L831,190 L828,210 L825,221 L824,228 L824,232 L824,234 L824,229 L824,220 L826,207 L829,191 L833,180 L834,176 L834,175 L834,176 L834,181 L832,191 L829,204 L826,219 L823,231 L823,233 L824,232 L826,226 L829,215 L833,202 L837,189 L839,185 L839,187 L839,193 L838,203 L837,214 L836,223 L836,227 L836,225 L836,220 L837,210 L838,197 L840,189 L841,190 L841,197 L839,207 L838,216 L838,222 L838,224 L838,221 L840,212 L842,201 L843,198 L844,200 L844,208 L843,215 L843,220 L845,217 L846,210 L848,205 L848,203 L848,207 L846,214 L846,218 L846,220 L847,215 L849,207 L850,201 L850,200 L850,203 L848,209 L848,213 L847,215 L847,212 L847,210 L848,208 L848,207 L848,208 L848,210 L848,211 L848,212 L848,214 L848,215 L848,217 L848,218 L848,219 L848,218 L848,217 L848,216 L848,214 L849,212 L849,211 L849,210 L849,207 L849,204 L849,200 L849,197 L849,191 L849,185 L849,178 L849,176 L850,176 L850,180 L850,188 L849,200 L847,218 L846,232 L846,241 L847,246 L849,248 L850,249 L850,246 L849,237 L848,225 L847,209 L848,188 L852,171 L855,161 L857,156 L858,155 L860,158 L860,165 L859,178 L856,194 L853,212 L850,228 L848,245 L847,261 L847,273 L847,277 L847,276 L848,267 L849,251 L850,232 L854,208 L858,186 L859,173 L859,171 L858,177 L857,190 L855,207 L853,227 L851,248 L850,264 L848,273 L848,280 L847,281 L846,279 L846,266 L846,246 L848,220 L851,192 L854,182 L854,183 L853,186 L850,198 L849,212 L848,229 L848,247 L849,261 L849,269 L849,270 L848,266 L848,255 L850,238 L853,219 L858,198 L861,178 L863,165 L864,162 L864,165 L863,177 L861,194 L859,212 L858,229 L857,244 L856,257 L855,266 L855,268 L856,266 L857,257 L858,246 L860,234 L863,217 L864,201 L865,185 L868,172 L869,168 L869,171 L869,176 L869,184 L870,197 L870,215 L868,234 L865,246 L864,252 L863,254 L863,253 L863,249 L864,239 L865,224 L868,200 L870,173 L870,153 L872,142 L872,138 L872,137 L872,138 L872,144 L872,158 L872,177 L869,199 L865,218 L862,232 L860,242 L859,248 L859,249 L860,249 L862,242 L863,230 L864,214 L868,193 L870,174 L871,165 L871,163 L871,165 L869,173 L868,187 L867,205 L867,227 L867,240 L868,242 L869,241 L870,234 L872,224 L874,215 L877,204 L880,194 L881,184 L881,173 L882,163 L882,158 L882,153 L882,146 L882,135 L883,121 L884,115 L885,114 L885,115 L884,118 L884,124 L883,134 L883,147 L882,162 L882,170 L882,168 L882,162 L883,154 L883,143 L884,129 L885,116 L887,111 L887,112 L887,121 L886,135 L886,149 L886,160 L886,168 L887,173 L887,172 L888,166 L890,153 L890,136 L892,118 L894,105 L896,96 L897,91 L897,90 L897,97 L895,112 L891,130 L887,149 L884,164 L884,169 L886,168 L887,163 L889,150 L890,132 L892,105 L897,87 L899,80 L899,85 L897,100 L893,119 L889,142 L885,160 L884,169 L885,161 L885,146 L886,125 L888,102 L890,95 L890,97 L889,105 L887,122 L887,140 L887,155 L889,162 L891,162 L892,155 L892,141 L893,123 L896,105 L899,94 L899,87 L897,81 L897,79 L897,80 L897,90 L896,104 L895,119 L895,131 L897,138 L897,140 L897,139 L897,130 L897,114 L897,96 L897,76 L898,60 L900,43 L904,24 L908,9 L910,0 L911,-4 L911,-5 L911,-4 L911,0 L911,4 L911,9 L911,14 L911,20 L910,30 L907,44 L905,58 L904,71 L905,84 L905,97 L904,111 L902,124 L900,134 L899,144 L897,154 L895,168 L893,181 L892,190 L892,194 L892,196 L893,196 L894,191 L895,180 L895,166 L896,147 L897,125 L900,106 L903,95 L904,90 L905,89 L905,92 L906,101 L904,117 L901,135 L897,154 L894,170 L893,180 L893,187 L895,188 L896,182 L897,169 L899,151 L904,128 L909,111 L912,99 L912,95 L912,96 L910,103 L909,119 L907,134 L905,151 L902,166 L900,176 L900,179 L901,176 L903,165 L905,147 L909,128 L913,113 L915,107 L914,112 L912,125 L910,140 L909,154 L909,163 L909,160 L909,150 L909,135 L911,119 L913,114 L913,117 L911,127 L909,139 L908,149 L908,154 L908,155 L908,154 L908,150 L908,144 L908,139 L909,135 L910,134 L910,137 L910,142 L909,149 L909,155 L909,160 L908,164 L908,166 L908,165 L908,164 L907,163 L907,162 L907,160 L908,156 L908,154 L909,153 L909,152 L909,151 L909,150 L909,152 L909,153 L908,154 L908,155 L908,156 L908,155 L908,154 L908,151 L908,149 L908,147 L908,144 L908,143 L908,148 L909,157 L909,171 L908,183 L909,186 L909,185 L909,182 L909,173 L909,162 L911,154 L911,155 L912,163 L911,176 L910,188 L909,194 L909,195 L910,191 L911,183 L912,175 L912,171 L912,175 L912,187 L910,197 L910,205 L910,206 L910,205 L911,201 L912,195 L912,191 L912,188 L912,186 L912,183 L913,176 L914,165 L916,153 L917,140 L918,127 L918,115 L919,103 L919,95 L919,88 L921,80 L923,73 L925,68 L926,68 L926,71 L925,79 L923,89 L920,99 L916,114 L912,135 L910,155 L910,169 L911,179 L911,187 L910,194 L909,200 L909,204 L909,206 L909,207 L909,206 L909,203 L909,200 L910,196 L912,191 L913,184 L915,176 L917,167 L917,160 L918,154 L920,148 L921,139 L924,132 L925,125 L926,120 L926,114 L928,107 L929,99 L932,89 L935,81 L936,77 L938,75 L939,73 L939,75 L937,83 L935,92 L932,102 L929,117 L925,132 L922,147 L920,163 L917,175 L914,184 L913,190 L912,194 L912,198 L912,200 L913,200 L913,196 L914,189 L916,180 L919,169 L923,155 L926,139 L928,123 L930,108 L932,97 L933,90 L933,86 L934,83 L936,80 L939,76 L940,76 L940,78 L939,83 L936,91 L934,99 L932,109 L929,124 L925,143 L921,164 L919,180 L918,190 L917,198 L915,205 L914,213 L914,217 L914,214 L915,207 L916,200 L918,193 L919,186 L921,177 L924,169 L924,168 L924,172 L923,180 L922,189 L921,195 L921,196 L923,194 L924,187 L925,180 L927,175 L928,173 L928,176 L928,181 L928,187 L928,192 L928,196 L929,197 L930,197 L931,198 L932,198 L934,198 L936,200 L938,202" fill="none" stroke="red" stroke-width="3"/></svg>