<svg xmlns="http://www.w3.org/2000/svg" xmlns:xlink="http://www.w3.org/1999/xlink" version="1.1" class="marks" width="1012" height="385" viewBox="0 0 1012 385"><rect width="1012" height="385" fill="white"/><path d="M12,217 L12,218 L11,218 L11,219 L11,218 L12,217 L12,215 L13,214 L14,212 L14,210 L14,207 L15,204 L15,201 L15,198 L16,195 L16,192 L16,190 L16,188 L16,187 L17,186 L17,185 L18,185 L19,185 L19,186 L20,188 L21,190 L22,192 L24,195 L25,199 L27,203 L29,209 L31,215 L33,219 L34,223 L36,225 L37,227 L38,228 L38,227 L38,225 L38,222 L38,219 L38,216 L37,212 L37,208 L36,203 L36,199 L36,194 L36,190 L36,186 L36,183 L36,181 L37,180 L37,179 L38,179 L39,179 L39,180 L40,182 L41,184 L42,187 L44,191 L45,195 L47,201 L49,207 L51,214 L54,219 L56,223 L57,226 L58,227 L59,227 L59,224 L59,222 L59,219 L59,215 L58,212 L58,208 L57,204 L57,200 L56,196 L56,193 L56,190 L56,187 L56,185 L56,183 L57,181 L57,180 L58,180 L59,181 L60,183 L61,186 L63,190 L65,196 L67,202 L69,208 L72,214 L74,220 L76,224 L77,227 L78,229 L79,229 L79,228 L80,227 L80,224 L80,221 L80,218 L80,214 L80,210 L79,205 L78,201 L76,196 L75,193 L74,190 L74,188 L73,187 L73,186 L73,185 L74,184 L75,184 L75,185 L77,186 L78,188 L78,191 L80,193 L81,196 L82,200 L84,203 L85,206 L87,209 L88,212 L89,213 L89,214 L90,215 L90,216 L90,217 L90,216 L90,215 L90,214 L91,213 L91,211 L91,210 L91,207 L91,205 L92,202 L92,199 L92,196 L92,193 L92,189 L92,185 L92,182 L92,178 L92,175 L92,172 L92,169 L93,167 L94,164 L94,162 L95,159 L95,157 L96,155 L97,153 L97,151 L97,149 L98,147 L98,146 L98,144 L98,143 L98,141 L98,140 L98,139 L98,138 L98,137 L98,136 L99,136 L99,137 L100,137 L100,138 L100,139 L101,139 L101,140 L101,141 L102,143 L102,144 L102,146 L103,148 L104,151 L105,154 L105,157 L106,161 L106,165 L106,169 L107,173 L107,176 L107,180 L107,183 L108,186 L108,190 L109,193 L110,197 L111,201 L112,205 L113,209 L114,214 L115,219 L115,224 L115,230 L115,235 L115,240 L115,244 L115,247 L115,250 L115,253 L115,256 L116,259 L116,261 L116,263 L117,265 L117,267 L117,269 L117,271 L117,272 L117,273 L118,275 L118,276 L118,277 L119,278 L119,279 L119,280 L119,281 L119,282 L119,283 L119,285 L118,286 L118,287 L118,288 L119,288 L119,287 L120,286 L121,285 L121,284 L122,283 L122,282 L122,281 L123,280 L123,279 L124,278 L124,277 L124,276 L124,275 L124,274 L125,273 L125,272 L125,271 L125,270 L126,268 L126,266 L126,265 L126,263 L127,261 L127,258 L127,256 L127,253 L127,250 L128,247 L129,244 L129,241 L130,237 L130,234 L131,231 L131,228 L132,225 L132,222 L132,219 L132,216 L132,212 L132,209 L132,205 L132,200 L132,195 L132,190 L133,186 L133,181 L133,177 L133,174 L133,170 L133,167 L134,163 L134,158 L134,155 L134,151 L134,147 L135,145 L135,143 L135,141 L135,140 L134,139 L134,138 L135,138 L136,138 L137,138 L138,139 L139,141 L140,142 L141,145 L142,148 L143,152 L144,156 L145,162 L146,168 L148,176 L151,183 L153,190 L155,198 L156,204 L156,209 L156,212 L156,214 L156,215 L157,216 L156,216 L155,216 L154,216 L153,216 L152,216 L152,215 L152,216 L152,217 L153,217 L153,218 L153,219 L154,220 L154,221 L154,222 L155,222 L155,223 L156,224 L156,223 L156,222 L157,222 L157,221 L157,220 L157,219 L157,218 L157,217 L157,216 L157,215 L157,214 L157,212 L157,211 L157,209 L158,207 L158,205 L158,203 L159,201 L159,200 L160,198 L161,198 L162,198 L163,199 L165,201 L166,204 L168,206 L171,209 L173,211 L174,213 L176,214 L176,215 L177,215 L177,214 L177,213 L178,212 L178,210 L178,209 L178,207 L178,204 L178,201 L178,199 L178,197 L178,196 L179,197 L180,198 L182,200 L183,200 L184,201 L185,202 L187,202 L188,202 L189,202 L190,202 L191,201 L191,200 L192,200 L193,201 L194,203 L195,204 L197,206 L198,207 L199,209 L200,210 L201,210 L201,209 L201,208 L202,207 L202,205 L202,204 L202,203 L202,201 L202,200 L203,198 L203,196 L203,194 L204,192 L204,190 L205,188 L205,186 L205,183 L207,180 L208,176 L209,172 L211,167 L212,161 L214,156 L216,150 L218,144 L220,139 L221,134 L223,129 L225,124 L227,119 L229,114 L231,109 L232,104 L234,98 L236,94 L237,88 L239,83 L240,79 L242,75 L243,71 L244,68 L245,65 L246,62 L247,61 L248,59 L249,58 L249,57 L249,58 L249,59 L249,61 L249,62 L249,65 L249,67 L249,69 L249,73 L249,75 L248,79 L247,83 L247,87 L246,92 L246,98 L246,103 L245,109 L245,115 L245,121 L245,127 L245,134 L246,139 L246,144 L247,151 L247,156 L246,161 L245,166 L244,171 L243,175 L242,179 L241,183 L240,188 L239,191 L239,195 L239,197 L239,200 L239,202 L239,203 L239,204 L239,205 L239,206 L239,207 L239,208 L240,210 L240,211 L240,213 L241,215 L241,217 L241,218 L241,219 L242,219 L242,218 L242,217 L242,216 L242,215 L243,214 L244,214 L245,214 L246,213 L247,213 L249,213 L250,213 L251,213 L251,212 L251,211 L252,210 L253,209 L253,208 L254,207 L254,206 L255,205 L255,203 L256,200 L256,198 L256,195 L256,193 L255,191 L255,190 L255,189 L255,188 L256,188 L257,188 L257,189 L258,190 L259,191 L259,193 L260,195 L261,197 L263,200 L264,202 L266,205 L268,207 L269,209 L269,210 L270,210 L270,209 L271,208 L272,207 L273,205 L273,204 L273,202 L274,200 L274,198 L274,195 L274,192 L274,189 L274,186 L274,184 L274,183 L275,182 L276,182 L277,183 L278,184 L279,185 L281,188 L283,190 L285,193 L286,197 L288,200 L289,202 L291,203 L291,204 L291,203 L291,202 L291,201 L292,200 L292,198 L292,196 L292,194 L292,192 L292,190 L293,188 L293,187 L293,186 L293,187 L294,188 L295,190 L296,192 L298,194 L299,196 L300,198 L301,200 L302,200 L302,201 L303,201 L303,200 L303,199 L304,198 L304,196 L304,194 L304,193 L304,191 L304,190 L304,189 L305,189 L306,190 L307,191 L308,192 L310,193 L311,195 L312,196 L313,197 L314,198 L314,199 L314,198 L315,198 L314,198 L314,199 L313,199 L312,199 L311,199 L310,199 L309,199 L308,199 L307,199 L306,200 L305,200 L305,201 L305,200 L305,201 L305,200 L305,199 L305,198 L305,197 L305,196 L305,194 L305,193 L305,190 L306,189 L306,187 L307,185 L307,183 L308,180 L308,178 L308,176 L309,173 L309,171 L310,168 L310,164 L310,161 L311,158 L311,154 L312,151 L312,147 L313,143 L313,140 L314,136 L314,133 L315,129 L315,126 L316,122 L317,119 L317,115 L318,112 L319,110 L320,107 L320,105 L321,103 L321,102 L321,103 L322,105 L322,106 L322,109 L323,111 L323,113 L323,117 L323,119 L323,123 L323,127 L323,132 L323,136 L323,141 L324,145 L324,149 L325,154 L325,158 L326,162 L327,166 L327,171 L328,174 L328,179 L328,183 L329,186 L329,190 L329,193 L330,195 L331,198 L332,200 L332,201 L333,202 L334,203 L335,204 L335,205 L336,205 L336,206 L336,207 L336,208 L336,209 L336,210 L337,210 L337,209 L337,208 L338,208 L338,207 L339,207 L339,206 L339,205 L339,204 L339,203 L339,202 L339,201 L339,200 L339,199 L339,196 L339,194 L340,190 L340,186 L341,181 L341,176 L342,172 L343,168 L344,164 L344,160 L345,156 L345,152 L346,147 L346,143 L347,138 L347,133 L347,129 L347,125 L347,122 L347,119 L348,117 L348,115 L348,113 L349,112 L349,110 L350,109 L350,110 L350,111 L351,112 L351,115 L352,117 L353,121 L354,124 L355,128 L356,133 L357,138 L359,143 L360,149 L361,154 L361,159 L362,165 L363,170 L363,175 L363,179 L363,184 L362,188 L361,191 L361,194 L361,197 L361,200 L360,202 L360,204 L361,205 L361,206 L361,207 L362,207 L363,207 L363,206 L362,205 L362,204 L361,204 L361,203 L361,202 L360,202 L360,201 L359,201 L359,200 L359,201 L360,201 L360,200 L360,199 L360,198 L361,197 L361,196 L361,195 L361,194 L362,194 L362,193 L362,192 L363,191 L363,190 L364,190 L364,189 L364,190 L363,189 L363,190 L363,192 L363,193 L364,196 L365,198 L365,200 L366,202 L366,203 L366,204 L366,203 L366,202 L366,201 L367,200 L368,198 L368,197 L369,196 L369,195 L370,194 L371,193 L371,192 L372,191 L374,190 L374,189 L375,188 L376,188 L378,188 L379,188 L380,188 L381,189 L381,190 L382,191 L383,192 L383,193 L383,194 L383,195 L384,195 L385,195 L386,194 L388,193 L389,191 L390,190 L391,188 L392,187 L393,186 L393,185 L394,185 L395,185 L396,186 L396,187 L397,188 L397,190 L398,190 L398,191 L399,192 L400,192 L401,191 L402,190 L404,188 L405,186 L407,185 L408,184 L409,185 L409,186 L409,187 L410,189 L410,190 L410,191 L410,192 L411,192 L411,191 L411,190 L411,189 L411,188 L411,187 L412,186 L412,185 L412,184 L413,183 L413,181 L413,179 L414,178 L414,176 L415,174 L415,172 L416,170 L417,168 L418,165 L419,163 L420,160 L421,158 L422,156 L423,154 L424,151 L425,149 L427,146 L427,143 L429,139 L431,136 L432,132 L434,129 L435,126 L437,123 L438,120 L439,117 L440,114 L442,111 L443,107 L445,104 L446,100 L448,96 L449,92 L450,88 L451,84 L452,80 L453,77 L454,73 L455,70 L455,67 L456,63 L457,61 L457,58 L458,54 L459,51 L459,48 L460,45 L461,42 L461,39 L462,36 L462,33 L462,31 L463,29 L463,27 L463,26 L463,24 L464,24 L464,23 L464,22 L464,23 L464,24 L463,25 L463,26 L462,27 L462,29 L462,30 L461,31 L461,33 L460,35 L459,37 L459,40 L458,43 L458,46 L457,49 L457,52 L457,55 L457,58 L457,62 L456,65 L456,68 L456,72 L456,75 L456,78 L456,82 L456,85 L456,88 L456,92 L456,95 L455,99 L455,103 L454,107 L454,110 L453,114 L453,118 L452,122 L452,126 L452,129 L451,133 L451,137 L451,140 L451,144 L450,148 L450,152 L450,156 L449,160 L449,164 L449,168 L449,172 L449,175 L449,178 L448,182 L448,185 L448,188 L447,190 L447,191 L447,190 L448,190 L448,189 L448,188 L448,187 L448,186 L447,186 L447,185 L447,184 L448,184 L448,183 L448,184 L448,185 L448,186 L448,188 L449,189 L449,190 L449,191 L449,192 L450,192 L451,191 L452,190 L452,189 L453,187 L454,185 L455,183 L456,180 L457,178 L458,176 L459,175 L459,174 L460,174 L461,174 L462,176 L462,177 L463,178 L464,180 L465,181 L467,182 L469,183 L469,182 L470,181 L471,180 L472,179 L473,178 L474,176 L474,175 L475,176 L476,177 L477,178 L478,180 L479,180 L480,181 L481,181 L483,181 L484,180 L485,179 L486,178 L487,177 L488,176 L488,175 L488,174 L489,174 L489,173 L489,174 L490,174 L491,174 L491,175 L492,175 L492,176 L492,177 L492,178 L492,179 L492,180 L492,182 L493,184 L493,185 L493,188 L494,190 L495,191 L495,193 L496,195 L496,197 L496,198 L497,200 L497,202 L497,204 L498,206 L498,207 L498,209 L498,211 L498,212 L498,214 L498,216 L499,218 L499,220 L499,223 L499,225 L499,227 L499,230 L499,233 L498,235 L498,238 L498,241 L498,244 L498,248 L498,251 L498,255 L498,259 L498,263 L498,266 L498,270 L498,273 L498,277 L497,281 L497,284 L497,287 L496,291 L496,294 L496,297 L496,300 L495,303 L495,306 L495,308 L495,311 L494,313 L494,315 L494,317 L494,319 L494,321 L494,324 L494,326 L493,328 L493,330 L493,332 L493,335 L492,337 L492,339 L492,340 L492,342 L492,344 L492,346 L492,347 L492,348 L492,349 L492,350 L493,349 L493,348 L493,347 L493,345 L494,343 L495,341 L495,339 L496,337 L496,335 L497,333 L498,331 L499,328 L499,325 L501,322 L501,318 L502,315 L503,311 L503,308 L504,304 L505,300 L506,297 L507,293 L508,289 L509,284 L510,279 L511,274 L513,268 L514,264 L515,259 L516,254 L517,249 L518,244 L520,240 L520,235 L522,230 L523,225 L523,221 L524,216 L525,211 L525,207 L526,204 L527,201 L528,198 L528,195 L528,194 L529,192 L529,191 L530,191 L530,190 L531,190 L531,189 L532,188 L532,187 L533,186 L533,185 L533,184 L533,185 L533,186 L533,188 L533,189 L533,190 L533,191 L533,190 L533,189 L533,188 L533,187 L533,186 L533,185 L533,184 L534,183 L535,181 L535,179 L536,177 L537,175 L537,172 L537,170 L538,167 L538,164 L538,161 L538,158 L538,155 L538,153 L538,152 L538,153 L539,154 L539,156 L540,158 L541,161 L542,166 L543,170 L544,175 L545,180 L546,185 L547,188 L548,190 L549,190 L550,190 L550,188 L551,187 L552,185 L553,182 L554,179 L554,176 L555,171 L555,167 L555,163 L555,160 L555,158 L555,157 L556,157 L556,158 L558,161 L559,164 L561,168 L562,173 L564,178 L565,182 L566,186 L567,189 L569,190 L570,190 L571,190 L572,189 L572,187 L573,185 L573,183 L574,180 L574,176 L574,173 L574,169 L574,166 L574,164 L574,163 L574,164 L574,166 L575,168 L576,171 L577,175 L578,179 L579,182 L580,185 L581,188 L582,189 L582,190 L583,190 L583,189 L584,188 L584,187 L584,186 L584,185 L584,184 L584,183 L585,183 L586,183 L587,183 L588,183 L589,182 L590,182 L592,181 L594,181 L596,181 L598,181 L600,181 L601,181 L602,181 L603,181 L602,181 L602,182 L602,183 L603,183 L603,182 L603,181 L604,180 L604,179 L604,178 L605,178 L605,179 L606,180 L607,183 L608,185 L608,186 L609,188 L609,189 L610,190 L611,189 L611,188 L612,187 L613,185 L613,184 L613,183 L613,182 L613,181 L613,182 L613,183 L613,186 L614,188 L615,191 L615,193 L616,195 L617,197 L618,198 L619,199 L620,198 L621,197 L621,196 L621,195 L622,194 L622,193 L622,192 L622,191 L622,193 L623,194 L623,195 L623,197 L624,199 L625,200 L626,201 L626,202 L627,202 L628,202 L629,201 L630,200 L630,199 L630,198 L631,197 L631,196 L631,197 L632,198 L632,200 L632,201 L633,202 L633,204 L633,205 L634,205 L635,205 L636,204 L637,202 L638,201 L638,199 L639,197 L640,195 L640,194 L640,193 L640,194 L640,195 L641,197 L642,199 L642,200 L643,202 L643,204 L644,205 L644,207 L645,207 L645,206 L645,205 L646,204 L646,203 L647,203 L648,203 L649,203 L648,203 L648,204 L646,205 L645,205 L644,206 L643,207 L641,207 L640,208 L640,209 L639,209 L638,210 L637,210 L636,210 L635,210 L635,209 L636,209 L637,209 L637,208 L638,208 L639,208 L640,208 L640,207 L641,207 L642,207 L643,207 L644,207 L645,207 L646,207 L647,207 L648,207 L649,207 L649,206 L650,206 L650,205 L651,205 L651,206 L651,207 L652,207 L652,206 L653,205 L653,204 L654,204 L654,203 L654,202 L655,201 L655,200 L655,199 L655,198 L655,195 L656,193 L656,190 L656,187 L657,183 L658,179 L659,175 L660,171 L660,168 L661,167 L661,166 L661,167 L661,168 L662,170 L662,172 L663,175 L664,178 L664,182 L665,186 L666,189 L667,193 L668,195 L669,197 L670,196 L670,195 L671,194 L672,192 L673,190 L674,188 L675,185 L676,182 L676,178 L677,176 L678,173 L678,172 L679,173 L679,174 L681,177 L682,181 L683,185 L684,189 L684,192 L684,195 L685,198 L686,198 L686,199 L686,198 L687,198 L688,196 L688,195 L689,193 L690,190 L690,188 L691,185 L691,182 L692,179 L692,177 L692,176 L693,176 L693,177 L694,179 L696,181 L696,185 L698,187 L699,190 L699,192 L700,193 L701,194 L702,193 L702,191 L703,189 L704,187 L705,185 L705,182 L706,180 L707,182 L707,183 L708,185 L709,186 L709,187 L710,188 L711,188 L712,188 L713,188 L714,187 L714,188 L715,189 L715,190 L715,191 L715,192 L716,193 L717,193 L717,192 L718,191 L718,190 L718,189 L719,188 L719,187 L719,186 L719,185 L718,184 L719,185 L720,185 L721,185 L721,186 L720,186 L720,187 L719,187 L718,188 L717,188 L716,188 L716,189 L716,190 L716,191 L717,193 L717,195 L717,199 L717,202 L717,207 L717,210 L717,214 L717,219 L717,223 L718,228 L718,234 L718,240 L718,246 L718,251 L718,256 L718,260 L717,264 L717,266 L717,268 L717,269 L717,270 L717,271 L717,273 L717,275 L717,277 L716,279 L716,280 L716,281 L717,281 L718,279 L719,278 L720,276 L721,274 L721,272 L722,270 L723,268 L723,265 L724,261 L725,258 L725,254 L726,248 L726,244 L726,239 L726,233 L726,228 L727,223 L727,217 L727,212 L728,207 L728,203 L728,201 L729,199 L729,198 L730,197 L731,197 L731,198 L733,199 L733,200 L734,202 L735,205 L736,207 L736,209 L736,211 L737,213 L737,214 L737,215 L737,214 L737,212 L737,210 L738,207 L738,205 L738,201 L738,197 L738,193 L738,188 L738,185 L738,183 L738,181 L739,180 L740,182 L740,184 L741,187 L742,190 L743,193 L743,195 L744,196 L745,197 L745,196 L746,194 L746,192 L747,190 L747,187 L747,183 L747,179 L747,174 L748,170 L748,166 L748,165 L748,166 L749,167 L750,169 L751,172 L752,176 L753,179 L754,182 L755,185 L756,188 L757,190 L758,190 L759,190 L760,189 L760,188 L761,186 L762,185 L762,183 L763,180 L763,178 L764,175 L764,174 L765,173 L765,174 L766,176 L767,178 L769,180 L770,183 L771,184 L772,186 L773,187 L774,188 L774,187 L774,186 L775,185 L775,184 L775,183 L775,182 L775,181 L776,181 L776,182 L777,182 L777,183 L778,183 L779,183 L780,184 L779,185 L778,185 L777,185 L777,186 L777,187 L776,187 L776,188 L777,187 L777,186 L777,185 L778,184 L778,182 L779,180 L780,178 L780,176 L781,174 L782,171 L782,168 L783,165 L783,161 L784,158 L784,154 L785,149 L787,145 L787,140 L789,136 L791,132 L792,127 L794,122 L796,118 L798,114 L800,110 L802,105 L804,101 L806,97 L807,94 L808,91 L809,88 L810,87 L811,85 L811,84 L811,85 L811,88 L811,90 L811,95 L811,100 L810,105 L810,110 L809,115 L809,120 L809,123 L809,126 L809,127 L809,126 L809,125 L810,123 L811,120 L811,117 L812,113 L814,108 L815,103 L816,97 L817,91 L818,85 L819,80 L820,78 L820,77 L820,78 L820,80 L820,83 L821,88 L821,93 L821,99 L821,106 L821,114 L820,123 L820,133 L819,141 L818,147 L817,152 L817,155 L817,156 L818,156 L818,155 L819,154 L820,151 L821,147 L822,143 L823,139 L824,135 L824,131 L825,127 L826,123 L827,118 L828,115 L828,113 L829,112 L829,113 L829,114 L829,117 L829,122 L829,127 L828,132 L828,139 L827,146 L826,152 L826,157 L826,161 L826,163 L827,164 L827,165 L828,165 L828,164 L828,165 L828,167 L828,170 L828,174 L828,178 L829,183 L829,186 L829,189 L829,190 L829,191 L829,190 L829,189 L829,188 L830,187 L831,185 L831,183 L832,180 L833,178 L833,177 L834,176 L834,174 L834,173 L834,174 L834,175 L834,176 L834,177 L834,178 L835,180 L835,182 L835,183 L835,185 L835,186 L836,185 L836,184 L837,182 L838,180 L838,178 L839,175 L839,173 L840,171 L841,169 L841,168 L842,167 L842,166 L843,167 L843,168 L844,170 L844,172 L844,174 L844,176 L845,178 L845,180 L845,182 L845,183 L846,183 L846,181 L847,180 L847,179 L848,177 L848,176 L849,175 L849,174 L850,173 L849,174 L849,173 L850,173 L851,174 L851,175 L852,176 L852,177 L853,178 L854,179 L855,179 L856,178 L858,176 L858,175 L860,173 L861,170 L863,168 L864,166 L865,164 L866,164 L867,166 L867,168 L868,170 L868,172 L868,174 L869,176 L870,178 L871,179 L872,179 L873,179 L873,178 L874,177 L875,175 L875,174 L876,172 L877,171 L877,170 L878,169 L879,169 L880,169 L880,170 L881,171 L882,172 L882,173 L883,173 L883,174 L883,175 L884,175 L884,176 L884,175 L885,174 L885,173 L886,172 L887,171 L888,171 L889,171 L889,172 L889,173 L889,174 L889,175 L889,176 L889,177 L889,178 L889,179 L890,180 L891,180 L892,180 L894,180 L895,180 L897,180 L898,179 L899,179 L900,180 L900,181 L901,182 L902,183 L903,183 L904,184 L907,185 L909,185 L912,186 L914,187 L917,188 L919,189 L920,190 L920,192 L921,193 L921,194 L921,195 L922,196 L922,197 L923,197 L924,197 L925,197 L926,197 L926,198 L926,199 L927,200 L928,201 L929,202 L930,203 L931,203 L933,204 L934,205 L934,206 L935,207 L936,207 L937,208 L938,209 L939,210 L940,211 L941,212 L941,213 L941,214 L942,215 L942,216 L943,216 L943,217 L944,217 L945,218 L946,218 L948,219 L949,220 L950,220 L950,221 L951,222" fill="none" stroke="red" stroke-width="3"/></svg>