<svg xmlns="http://www.w3.org/2000/svg" version="1.1" xmlns:xlink="http://www.w3.org/1999/xlink" xmlns:svgjs="http://svgjs.dev/svgjs" width="950" height="375" id="chartSvg"><path d="M17,211 L16,212 L15,212 L15,213 L15,217 L15,222 L16,226 L16,230 L16,234 L16,239 L16,241 L17,241 L18,237 L20,227 L23,213 L24,192 L24,168 L22,141 L22,117 L22,106 L22,100 L23,98 L24,97 L26,99 L29,108 L31,127 L34,156 L39,193 L44,220 L47,242 L50,263 L51,273 L51,275 L51,274 L50,264 L49,247 L48,227 L46,202 L45,169 L41,132 L38,100 L37,74 L37,53 L37,41 L37,36 L38,36 L39,38 L41,48 L43,67 L45,92 L48,125 L51,162 L53,195 L56,225 L60,254 L63,278 L63,293 L63,299 L63,300 L62,295 L61,286 L61,275 L61,260 L62,242 L63,213 L63,182 L63,152 L64,124 L64,102 L64,83 L65,68 L67,58 L68,56 L68,57 L70,64 L71,77 L73,95 L74,119 L75,154 L78,188 L81,218 L84,244 L86,268 L87,286 L87,299 L87,308 L87,310 L87,304 L87,292 L87,278 L87,260 L87,232 L88,198 L89,167 L89,142 L89,120 L88,100 L90,80 L92,64 L95,58 L96,57 L99,61 L102,72 L104,90 L105,113 L107,140 L110,168 L113,192 L117,215 L119,237 L122,259 L124,276 L125,291 L127,303 L127,311 L128,316 L128,314 L128,305 L129,293 L130,280 L132,262 L132,238 L132,211 L131,181 L130,152 L130,127 L131,109 L133,93 L135,80 L138,69 L139,65 L139,64 L140,69 L141,82 L141,102 L141,127 L141,156 L143,188 L145,221 L147,248 L149,269 L151,283 L151,290 L152,291 L152,286 L153,271 L154,252 L155,228 L156,195 L156,161 L156,129 L157,102 L158,84 L161,71 L164,63 L165,62 L166,64 L166,71 L166,85 L164,103 L163,124 L164,151 L164,178 L165,201 L165,222 L165,241 L165,256 L164,267 L164,272 L163,268 L163,256 L163,240 L163,220 L164,193 L167,163 L170,140 L171,121 L173,105 L175,95 L177,93 L177,94 L178,101 L178,117 L177,136 L177,161 L178,190 L180,219 L181,242 L183,257 L184,268 L184,274 L184,276 L184,275 L185,265 L187,250 L187,231 L187,203 L187,173 L188,149 L189,129 L190,112 L192,99 L194,89 L195,85 L195,86 L196,95 L196,110 L196,129 L195,154 L195,179 L196,198 L198,213 L198,224 L199,232 L199,233 L200,227 L201,213 L202,196 L202,173 L202,149 L204,131 L206,118 L209,108 L211,102 L213,100 L214,101 L215,107 L216,118 L217,132 L217,147 L218,163 L219,175 L221,185 L223,195 L225,204 L227,207 L227,208 L227,207 L228,199 L229,186 L229,171 L229,154 L232,138 L233,126 L235,118 L236,116 L237,117 L241,123 L244,134 L245,149 L245,166 L245,183 L246,194 L246,200 L246,201 L246,195 L246,184 L248,168 L251,146 L252,122 L255,101 L256,90 L257,86 L259,86 L262,90 L265,99 L266,114 L266,133 L265,156 L264,180 L264,203 L265,224 L266,241 L266,254 L267,259 L267,257 L268,248 L270,233 L272,214 L274,186 L278,156 L281,130 L283,105 L284,83 L285,66 L286,55 L286,52 L286,56 L287,68 L287,84 L288,105 L288,134 L288,166 L290,195 L292,221 L293,241 L293,258 L292,273 L292,284 L293,293 L293,295 L293,294 L293,282 L294,263 L295,242 L296,215 L298,183 L300,152 L301,124 L303,97 L304,77 L307,64 L309,58 L310,58 L313,63 L314,73 L314,88 L314,108 L313,137 L312,169 L313,199 L313,226 L313,249 L313,267 L312,281 L312,288 L312,289 L313,281 L313,266 L314,245 L315,218 L316,187 L316,159 L315,135 L315,109 L315,86 L316,72 L317,64 L317,63 L317,64 L318,73 L320,90 L320,112 L321,145 L321,184 L323,214 L325,239 L326,261 L326,277 L326,288 L327,292 L327,293 L327,291 L328,278 L331,260 L334,237 L336,209 L339,179 L342,152 L344,128 L345,107 L347,90 L349,79 L350,73 L351,76 L352,85 L351,102 L350,122 L349,146 L349,170 L350,187 L351,203 L352,218 L352,229 L353,235 L353,237 L353,235 L354,224 L356,208 L358,190 L360,171 L363,152 L365,136 L366,120 L369,108 L370,100 L371,97 L372,99 L372,106 L372,119 L371,134 L370,152 L370,170 L370,185 L371,198 L371,211 L372,221 L374,227 L374,229 L375,229 L377,223 L380,212 L383,199 L386,183 L391,164 L394,145 L396,125 L398,104 L399,86 L401,74 L403,68 L405,67 L407,72 L408,82 L408,96 L406,114 L404,139 L403,163 L403,183 L403,203 L402,221 L401,236 L400,248 L399,255 L399,258 L399,253 L400,240 L402,222 L404,202 L407,178 L408,156 L409,134 L409,112 L409,90 L410,72 L411,58 L412,49 L413,45 L414,48 L416,59 L417,75 L417,95 L418,123 L418,152 L419,180 L419,207 L420,231 L420,253 L419,269 L419,281 L419,288 L419,289 L419,286 L419,272 L422,254 L425,230 L430,201 L433,172 L435,145 L437,121 L440,98 L442,77 L445,60 L446,49 L446,44 L447,43 L447,44 L448,49 L448,62 L449,79 L450,100 L452,127 L454,156 L455,184 L457,212 L459,240 L460,266 L461,289 L462,306 L463,319 L464,327 L464,330 L464,331 L464,329 L466,317 L469,300 L473,280 L475,251 L477,220 L478,190 L478,159 L479,127 L479,100 L480,78 L480,62 L481,53 L481,47 L482,46 L483,49 L484,59 L484,76 L483,97 L482,124 L481,156 L480,183 L479,207 L480,229 L480,246 L481,259 L481,270 L481,276 L481,277 L481,276 L481,267 L481,250 L483,228 L484,202 L484,173 L484,144 L483,118 L480,95 L478,77 L477,64 L478,57 L478,56 L480,59 L484,68 L486,84 L487,105 L487,133 L488,164 L488,190 L489,215 L490,239 L490,259 L490,276 L490,289 L490,296 L491,299 L492,294 L494,279 L497,257 L501,233 L504,204 L506,175 L506,146 L506,118 L506,93 L505,76 L505,66 L507,60 L508,59 L511,62 L514,70 L517,84 L520,103 L524,129 L525,160 L525,190 L526,219 L528,242 L530,261 L533,278 L534,292 L535,304 L537,312 L539,315 L539,313 L540,300 L542,279 L543,255 L544,227 L545,200 L546,172 L545,146 L545,117 L546,90 L547,71 L549,58 L550,49 L550,47 L551,47 L552,53 L552,64 L551,81 L549,105 L545,136 L543,168 L542,198 L541,225 L538,251 L535,275 L531,293 L528,306 L527,313 L526,313 L526,305 L526,289 L528,268 L532,242 L536,213 L539,187 L540,162 L541,138 L543,114 L546,93 L547,80 L548,74 L548,72 L549,73 L550,80 L552,95 L552,115 L551,145 L550,183 L551,215 L552,243 L553,266 L553,285 L554,301 L555,311 L556,316 L557,316 L560,310 L564,295 L569,273 L575,244 L580,210 L584,176 L585,145 L586,119 L591,95 L594,75 L596,61 L598,49 L599,43 L600,41 L601,45 L604,55 L604,71 L604,92 L604,120 L603,151 L602,182 L603,214 L603,242 L603,267 L603,290 L603,307 L603,319 L603,325 L604,323 L606,310 L609,291 L613,266 L616,236 L617,205 L617,173 L616,141 L616,114 L616,91 L615,77 L615,70 L614,66 L614,68 L614,77 L613,93 L611,115 L609,146 L607,181 L606,215 L607,244 L608,269 L609,291 L611,307 L612,317 L612,323 L612,321 L615,308 L618,287 L624,262 L632,228 L636,197 L639,166 L642,135 L643,105 L645,80 L647,61 L648,48 L650,42 L651,41 L652,44 L654,50 L655,61 L657,76 L658,93 L659,117 L660,144 L660,171 L660,198 L660,224 L660,250 L660,274 L659,294 L658,309 L657,320 L656,327 L656,328 L656,323 L656,310 L658,294 L661,274 L664,248 L666,218 L668,188 L668,159 L668,130 L669,102 L670,82 L670,70 L671,65 L672,63 L674,65 L674,72 L674,85 L674,102 L673,123 L671,152 L670,181 L670,206 L671,229 L672,249 L674,266 L675,278 L675,287 L676,291 L677,287 L679,274 L682,256 L684,234 L688,206 L690,178 L692,149 L692,120 L693,97 L694,76 L698,59 L701,48 L703,46 L704,47 L705,55 L706,69 L704,88 L701,109 L697,138 L694,168 L693,198 L693,227 L693,256 L693,281 L693,302 L692,317 L691,327 L690,330 L690,331 L690,327 L694,315 L699,297 L706,275 L712,246 L718,216 L721,185 L723,153 L726,124 L726,103 L727,90 L727,81 L728,77 L728,75 L729,77 L731,84 L733,98 L734,119 L736,146 L736,178 L737,205 L739,229 L741,251 L743,270 L745,283 L746,293 L748,297 L749,293 L752,280 L755,262 L758,239 L760,209 L761,179 L762,150 L762,124 L765,104 L767,87 L768,76 L770,73 L771,78 L771,91 L770,109 L767,129 L765,154 L764,179 L763,202 L763,222 L762,242 L762,260 L761,273 L761,281 L761,283 L761,278 L763,264 L766,247 L769,224 L772,195 L772,169 L772,142 L773,117 L774,97 L776,80 L778,68 L780,60 L781,57 L781,58 L782,67 L781,83 L780,103 L777,127 L775,154 L774,179 L774,200 L776,220 L778,237 L780,248 L780,255 L780,257 L780,256 L780,247 L780,231 L782,211 L786,185 L792,155 L795,129 L797,104 L799,81 L801,65 L804,56 L804,53 L804,54 L805,60 L805,72 L805,89 L804,110 L803,137 L803,163 L804,187 L807,207 L810,225 L814,239 L816,250 L819,256 L821,259 L823,258 L826,252 L830,239 L833,222 L836,202 L838,178 L840,151 L843,126 L847,102 L853,80 L858,66 L863,55 L868,49 L870,47 L872,54 L873,66 L871,85 L867,108 L862,134 L856,160 L851,185 L848,206 L844,225 L840,243 L836,256 L833,264 L832,267 L831,267 L831,263 L832,251 L836,235 L841,215 L848,188 L853,163 L855,140 L858,119 L863,104 L868,92 L871,84 L873,82 L874,83 L876,89 L877,100 L876,117 L874,137 L872,160 L870,183 L870,205 L870,222 L870,237 L872,248 L874,255 L875,257 L876,253 L880,241 L885,224 L890,206 L894,183 L899,161 L904,141 L909,120 L913,100 L916,84 L919,72 L921,66 L922,65 L923,68 L924,77 L923,88 L921,103 L919,122 L915,145 L912,169 L909,191 L907,210 L906,226 L904,238 L903,244 L903,246 L902,241 L903,229 L906,213 L909,195 L912,174 L915,154 L917,137 L919,120 L921,104 L923,91 L925,83 L926,81 L926,82 L926,86 L927,93 L929,104 L930,117 L931,134 L931,151 L930,166 L929,178 L927,191 L926,202 L925,211 L925,217 L924,219 L926,213 L930,203 L934,188 L938,168 L941,144 L943,122 L943,107 L941,101 L940,100" fill="none" stroke="red" stroke-width="3"/></svg>