<svg xmlns="http://www.w3.org/2000/svg" xmlns:xlink="http://www.w3.org/1999/xlink" version="1.1" class="marks" width="1012" height="385" viewBox="0 0 1012 385"><rect width="1012" height="385" fill="white"/><path d="M13,198 L13,197 L13,195 L12,193 L12,191 L12,183 L11,171 L10,156 L9,137 L7,120 L7,107 L10,94 L12,83 L13,73 L13,69 L13,68 L12,70 L13,75 L14,86 L15,99 L17,117 L20,139 L22,159 L24,176 L24,190 L25,200 L24,207 L23,210 L22,208 L21,200 L20,183 L19,161 L19,133 L22,107 L26,89 L29,77 L32,70 L34,67 L36,66 L37,69 L37,80 L37,98 L37,119 L37,139 L38,156 L38,171 L38,185 L39,194 L41,198 L42,198 L43,193 L43,180 L43,161 L43,137 L44,114 L46,99 L48,90 L51,83 L54,77 L56,73 L57,73 L58,77 L59,88 L60,105 L63,124 L66,145 L66,163 L67,178 L68,189 L68,195 L68,198 L68,197 L68,189 L68,171 L68,148 L69,127 L70,112 L72,101 L74,88 L77,80 L79,79 L79,80 L79,83 L79,92 L79,105 L79,123 L79,146 L80,165 L83,179 L85,189 L87,194 L88,196 L88,195 L88,186 L87,170 L87,149 L88,127 L90,113 L92,104 L95,97 L99,90 L101,88 L101,89 L101,94 L101,106 L101,122 L100,145 L99,166 L98,179 L99,188 L100,192 L100,193 L101,190 L102,180 L102,162 L104,139 L106,120 L109,111 L111,104 L114,97 L117,92 L118,92 L118,93 L119,98 L119,109 L119,127 L119,150 L120,172 L121,185 L122,190 L123,194 L124,195 L124,193 L124,185 L126,168 L127,148 L130,128 L134,114 L137,106 L139,100 L142,94 L143,92 L143,93 L143,101 L144,118 L144,140 L146,159 L147,171 L147,180 L147,184 L147,185 L147,183 L148,173 L150,156 L154,134 L158,117 L161,107 L163,96 L166,87 L171,80 L173,79 L174,83 L174,92 L175,107 L175,124 L174,146 L173,168 L173,180 L174,188 L175,190 L176,185 L176,169 L178,148 L180,126 L183,113 L185,108 L187,102 L191,96 L193,94 L195,100 L195,114 L195,133 L196,155 L197,169 L198,178 L198,185 L199,187 L199,186 L200,180 L200,166 L202,145 L206,122 L208,112 L211,108 L213,105 L216,102 L218,100 L219,102 L220,112 L220,127 L220,147 L221,164 L222,177 L222,187 L222,194 L222,197 L222,196 L222,189 L225,171 L229,148 L233,125 L235,113 L237,109 L239,105 L241,103 L242,104 L243,109 L243,122 L242,141 L242,160 L243,176 L244,187 L245,194 L246,198 L247,199 L248,198 L249,191 L251,175 L253,150 L255,124 L256,110 L256,107 L257,107 L259,106 L261,107 L264,114 L266,129 L266,150 L266,171 L266,185 L266,198 L266,208 L267,214 L268,216 L268,215 L269,207 L271,188 L274,162 L278,137 L281,124 L282,116 L283,112 L285,110 L286,109 L287,110 L288,119 L288,137 L287,160 L286,185 L285,202 L284,212 L284,220 L284,224 L284,222 L284,212 L286,192 L288,163 L293,134 L298,118 L301,109 L303,106 L304,106 L305,110 L306,122 L306,144 L305,168 L304,187 L304,204 L304,220 L304,232 L305,238 L305,240 L305,239 L306,230 L307,212 L309,186 L313,156 L317,133 L320,122 L322,118 L323,116 L325,114 L326,124 L326,143 L325,166 L325,188 L325,207 L324,224 L325,235 L326,240 L327,241 L327,239 L329,229 L331,209 L335,181 L339,153 L343,134 L346,122 L349,117 L351,115 L353,115 L354,119 L356,132 L356,154 L356,178 L356,198 L357,214 L358,227 L359,235 L359,239 L359,238 L361,230 L364,210 L368,182 L372,151 L376,130 L379,119 L381,117 L381,118 L383,122 L383,133 L383,154 L381,178 L380,203 L380,219 L381,227 L381,232 L381,233 L381,232 L381,223 L382,204 L385,179 L389,153 L393,136 L396,129 L398,127 L400,127 L401,130 L401,141 L401,161 L401,183 L401,204 L402,221 L403,235 L403,244 L403,248 L405,244 L408,229 L412,205 L415,175 L418,153 L420,144 L421,141 L422,142 L423,150 L423,166 L423,185 L421,207 L420,225 L420,237 L420,245 L420,248 L420,243 L422,228 L424,207 L427,180 L432,158 L435,146 L437,141 L438,139 L439,139 L441,141 L442,151 L442,166 L441,188 L438,211 L437,228 L437,240 L437,246 L437,245 L439,237 L442,219 L447,195 L453,170 L458,156 L462,147 L464,146 L465,145 L467,148 L468,158 L468,175 L468,196 L468,215 L468,229 L469,238 L470,241 L471,238 L473,227 L476,210 L481,186 L488,164 L492,152 L496,146 L498,143 L499,143 L500,143 L502,147 L503,161 L503,183 L501,206 L500,220 L500,228 L500,232 L501,234 L503,229 L505,218 L509,199 L513,177 L517,163 L518,159 L519,159 L520,162 L521,171 L521,185 L520,206 L518,228 L517,246 L516,260 L516,272 L516,281 L516,288 L516,292 L516,288 L518,276 L520,256 L523,229 L528,205 L531,195 L533,190 L533,187 L534,183 L535,180 L536,182 L536,190 L536,205 L535,222 L536,238 L536,253 L537,264 L537,271 L538,274 L540,273 L541,269 L542,256 L545,236 L547,212 L552,193 L554,188 L555,187 L555,188 L555,193 L555,207 L552,229 L550,251 L549,270 L548,284 L548,293 L548,296 L548,297 L549,291 L552,276 L556,251 L562,220 L567,199 L572,189 L576,183 L578,181 L580,181 L582,184 L582,195 L582,216 L582,241 L581,261 L582,274 L584,283 L586,288 L588,290 L589,288 L592,279 L596,261 L600,236 L605,212 L610,196 L613,185 L617,177 L619,174 L620,176 L620,185 L618,203 L615,229 L614,252 L615,266 L616,274 L616,279 L616,280 L617,277 L619,265 L623,244 L628,220 L632,202 L636,192 L639,184 L641,179 L641,178 L641,184 L638,202 L634,226 L632,252 L632,271 L633,283 L634,292 L634,296 L634,292 L635,280 L636,262 L639,239 L646,215 L653,199 L657,190 L659,185 L660,185 L660,188 L660,200 L657,221 L654,246 L652,269 L651,283 L651,292 L651,299 L652,301 L652,300 L654,294 L657,278 L661,257 L667,232 L672,213 L677,202 L680,199 L683,199 L684,200 L686,203 L687,215 L684,237 L680,263 L677,282 L677,293 L677,300 L678,303 L679,295 L682,278 L686,254 L691,227 L696,210 L699,202 L701,196 L703,194 L704,194 L704,199 L703,212 L700,234 L696,262 L694,283 L696,293 L698,297 L699,298 L700,295 L702,283 L706,263 L711,237 L717,214 L722,202 L724,200 L725,200 L725,206 L723,220 L719,240 L715,261 L713,278 L713,287 L714,291 L714,292 L715,291 L717,282 L721,266 L726,243 L732,218 L738,201 L742,194 L743,193 L743,198 L743,210 L741,226 L740,246 L738,267 L738,284 L738,295 L739,302 L739,304 L740,300 L742,287 L745,266 L752,238 L757,217 L761,206 L764,201 L767,199 L767,198 L768,202 L768,216 L765,238 L762,263 L760,282 L760,295 L761,303 L761,307 L761,303 L761,290 L762,268 L765,239 L772,217 L775,210 L775,209 L776,210 L778,216 L779,230 L778,253 L775,277 L772,291 L771,300 L772,304 L774,304 L775,300 L778,288 L782,267 L786,239 L791,217 L793,209 L794,210 L795,215 L796,228 L794,249 L792,272 L790,286 L790,294 L790,299 L790,302 L791,297 L792,285 L794,266 L800,240 L809,217 L815,204 L817,199 L817,198 L818,199 L820,205 L821,219 L819,240 L817,261 L816,279 L816,288 L816,293 L816,296 L818,293 L821,282 L825,263 L831,238 L838,215 L842,203 L843,202 L843,203 L843,206 L843,216 L841,233 L838,255 L837,274 L836,286 L836,293 L836,296 L837,291 L839,278 L844,256 L852,229 L859,211 L862,205 L863,204 L863,203 L864,208 L864,223 L861,244 L858,267 L856,284 L855,297 L856,305 L858,310 L858,312 L859,310 L860,303 L863,288 L869,267 L875,244 L879,229 L881,221 L882,217 L882,214 L883,213 L883,216 L881,227 L877,245 L875,263 L876,281 L876,295 L874,305 L873,311 L873,313 L874,310 L877,301 L881,283 L887,259 L893,237 L897,228 L898,224 L899,221 L900,217 L901,216 L901,221 L898,237 L894,256 L891,278 L890,295 L890,303 L892,308 L892,309 L894,307 L897,297 L902,279 L908,256 L914,231 L919,213 L923,201 L927,192 L929,190 L929,193 L927,203 L923,222 L917,244 L909,270 L907,290 L907,300 L907,306 L908,309 L909,303 L912,289 L917,268 L924,242 L929,223 L931,217 L931,214 L932,213 L935,214 L937,224 L936,242 L932,266 L929,287 L929,300 L931,308 L933,312 L934,312 L935,307 L938,293 L942,274 L946,252 L947,238 L948,233 L948,230 L949,228 L949,227 L950,231 L949,244 L948,260 L947,277 L947,288 L948,291 L948,292 L949,289 L952,280 L956,266 L958,252 L958,251 L957,256 L954,266 L954,271" fill="none" stroke="red" stroke-width="3"/></svg>