<svg xmlns="http://www.w3.org/2000/svg" xmlns:xlink="http://www.w3.org/1999/xlink" version="1.1" class="marks" width="1012" height="385" viewBox="0 0 1012 385"><rect width="1012" height="385" fill="white"/><rect width="1012" height="385" fill="white"/><path d="M8,123 L7,122 L7,121 L7,120 L6,119 L6,117 L5,116 L5,114 L4,112 L4,111 L4,112 L5,114 L5,116 L6,119 L7,123 L8,127 L8,131 L9,134 L9,137 L9,141 L9,144 L10,147 L10,150 L11,154 L11,158 L11,163 L11,168 L11,171 L11,175 L11,178 L12,181 L12,184 L12,187 L13,190 L13,194 L14,196 L14,197 L14,196 L14,195 L14,192 L14,189 L14,185 L14,181 L15,177 L15,173 L15,169 L16,167 L16,165 L16,163 L16,161 L17,157 L17,154 L17,152 L17,151 L17,150 L17,149 L18,148 L18,146 L18,145 L18,144 L18,143 L18,142 L18,143 L18,144 L18,145 L18,146 L18,147 L18,148 L18,147 L18,149 L18,150 L18,152 L18,154 L18,155 L18,157 L18,158 L18,160 L18,161 L18,163 L19,165 L19,166 L19,168 L19,171 L19,173 L19,177 L20,180 L20,185 L21,188 L22,192 L22,195 L22,198 L23,200 L23,202 L24,202 L24,201 L24,199 L24,195 L25,190 L25,184 L26,178 L26,173 L26,168 L26,165 L26,161 L26,156 L26,153 L26,150 L26,147 L27,144 L27,140 L28,136 L28,134 L28,132 L28,131 L28,127 L28,124 L28,120 L29,116 L29,112 L30,106 L31,100 L31,94 L31,89 L32,85 L32,79 L33,74 L33,69 L33,66 L33,62 L33,58 L34,53 L34,48 L34,45 L34,41 L34,37 L34,33 L35,29 L35,26 L35,23 L35,21 L35,19 L35,20 L35,21 L36,22 L36,24 L36,26 L36,28 L36,30 L36,33 L37,36 L37,38 L38,40 L38,43 L38,45 L38,48 L39,49 L39,51 L39,53 L39,56 L39,59 L39,62 L39,65 L40,69 L40,73 L40,78 L40,83 L41,88 L41,92 L41,97 L42,102 L42,106 L43,110 L44,113 L44,115 L44,117 L44,116 L44,115 L44,114 L45,112 L46,110 L46,109 L47,106 L48,104 L48,102 L48,101 L49,100 L49,99 L50,97 L50,96 L51,94 L51,92 L51,90 L52,88 L53,86 L53,83 L53,82 L53,83 L53,85 L53,87 L53,90 L53,94 L53,97 L53,99 L54,100 L54,99 L55,97 L56,94 L57,89 L58,85 L58,83 L58,84 L59,85 L59,87 L60,88 L60,89 L60,90 L60,88 L61,83 L63,75 L65,68 L65,69 L65,71 L64,74 L63,78 L63,83 L63,87 L62,90 L62,94 L62,97 L62,100 L63,103 L63,106 L63,111 L64,115 L64,120 L65,124 L65,128 L65,132 L65,138 L65,143 L65,148 L65,152 L65,156 L65,162 L65,168 L64,174 L64,180 L64,186 L63,193 L63,200 L62,207 L62,213 L62,219 L62,224 L62,230 L62,235 L62,239 L62,244 L63,248 L63,251 L63,253 L63,256 L63,258 L63,261 L64,259 L64,255 L65,249 L66,242 L66,234 L66,228 L66,222 L66,216 L66,212 L67,208 L67,204 L68,200 L68,196 L68,192 L69,188 L70,184 L71,178 L73,173 L73,169 L74,166 L75,162 L77,156 L79,152 L79,151 L79,150 L79,149 L79,147 L79,145 L80,142 L80,138 L81,136 L81,137 L81,138 L81,139 L81,141 L81,144 L82,148 L82,153 L82,157 L82,161 L82,162 L82,163 L82,162 L83,161 L83,158 L85,153 L86,149 L87,146 L87,148 L87,151 L88,154 L88,159 L88,163 L88,166 L88,167 L88,166 L88,165 L89,161 L89,158 L90,154 L90,150 L90,145 L90,138 L92,129 L92,124 L92,121 L92,117 L93,111 L95,102 L97,96 L97,95 L97,94 L97,93 L97,92 L97,94 L97,97 L97,101 L97,106 L97,110 L98,115 L98,118 L98,121 L98,123 L98,125 L98,127 L98,128 L98,130 L98,132 L98,134 L98,137 L98,140 L98,144 L99,147 L99,150 L99,154 L100,158 L100,162 L100,166 L101,170 L101,173 L101,177 L102,182 L102,186 L102,190 L102,193 L102,196 L102,199 L102,201 L102,202 L102,200 L103,198 L103,194 L104,190 L104,185 L105,181 L105,178 L105,174 L105,171 L105,166 L105,164 L105,162 L105,159 L105,156 L105,154 L105,152 L105,151 L105,148 L105,144 L106,140 L106,137 L106,136 L106,135 L106,134 L106,132 L107,131 L107,130 L107,129 L107,130 L107,131 L108,132 L108,134 L109,135 L110,137 L110,139 L110,141 L111,143 L112,144 L112,145 L112,146 L112,147 L112,148 L113,149 L114,150 L114,151 L114,152 L115,153 L115,154 L116,154 L116,155 L117,156 L117,158 L117,161 L117,164 L117,167 L117,170 L117,172 L118,174 L118,176 L118,177 L119,178 L119,180 L119,181 L119,183 L120,184 L120,185 L120,187 L120,188 L120,190 L120,192 L120,194 L121,195 L121,197 L121,198 L122,200 L122,201 L122,202 L122,203 L122,204 L122,205 L122,206 L122,207 L122,208 L122,209 L122,210 L122,208 L122,207 L122,204 L123,202 L124,199 L124,197 L124,195 L124,193 L124,191 L125,188 L126,185 L126,183 L126,181 L127,179 L127,176 L127,173 L127,170 L127,167 L128,164 L128,161 L129,158 L129,154 L129,153 L129,151 L129,149 L129,146 L130,143 L130,140 L130,138 L130,137 L130,134 L130,133 L131,132 L131,131 L131,132 L131,133 L131,135 L132,138 L132,142 L132,146 L132,149 L132,151 L132,154 L133,155 L133,156 L133,155 L133,154 L133,152 L134,149 L134,146 L135,143 L136,139 L136,136 L137,132 L137,128 L137,124 L137,119 L138,112 L139,104 L140,95 L141,86 L141,78 L142,71 L142,66 L142,63 L142,61 L142,63 L142,65 L143,69 L143,75 L144,82 L144,90 L144,99 L145,107 L145,117 L145,125 L146,134 L146,142 L146,151 L146,158 L146,164 L146,170 L147,176 L148,182 L149,188 L149,193 L150,198 L150,203 L150,207 L150,211 L150,215 L150,217 L151,218 L151,220 L150,221 L150,222 L150,223 L149,224 L149,226 L149,228 L149,230 L148,232 L148,233 L148,234 L148,235 L148,236 L148,237 L148,239 L148,240 L148,242 L149,242 L149,243 L149,242 L149,241 L149,239 L150,236 L150,233 L151,230 L151,227 L152,224 L153,221 L153,219 L154,218 L154,216 L155,212 L156,208 L156,205 L156,203 L156,200 L156,196 L157,192 L157,189 L158,187 L158,184 L158,181 L158,178 L159,178 L159,179 L159,181 L159,184 L159,188 L159,191 L159,195 L159,198 L159,199 L159,198 L160,198 L161,195 L162,190 L163,184 L164,179 L165,178 L165,179 L165,181 L165,184 L166,188 L166,192 L167,195 L168,196 L168,195 L169,193 L171,187 L174,180 L178,173 L179,169 L179,168 L179,170 L180,171 L180,174 L180,178 L180,182 L180,185 L180,188 L180,187 L180,184 L182,179 L184,173 L186,168 L187,166 L187,167 L187,168 L187,169 L186,173 L186,176 L186,180 L187,184 L187,187 L187,188 L187,187 L188,185 L188,181 L190,178 L191,174 L192,171 L194,166 L195,163 L195,162 L195,161 L195,160 L195,157 L197,154 L198,150 L199,144 L201,137 L203,130 L205,122 L206,116 L207,111 L207,106 L208,102 L210,97 L210,94 L211,92 L212,90 L212,89 L212,90 L212,92 L212,95 L212,99 L212,104 L212,110 L211,116 L211,122 L210,129 L209,136 L208,142 L208,148 L209,154 L209,161 L209,167 L210,173 L210,179 L210,185 L209,192 L208,199 L207,205 L207,211 L206,217 L206,221 L206,224 L206,226 L207,226 L207,225 L207,223 L207,220 L208,215 L209,209 L210,203 L210,197 L210,190 L212,182 L213,175 L214,170 L215,166 L215,161 L216,157 L217,154 L218,151 L218,150 L219,151 L219,154 L220,157 L220,161 L221,164 L221,167 L221,168 L221,167 L222,163 L222,157 L224,149 L227,144 L227,142 L227,143 L227,144 L227,147 L227,151 L228,156 L228,160 L229,163 L229,161 L230,156 L232,150 L234,145 L234,144 L234,145 L234,148 L234,152 L235,156 L236,162 L237,167 L239,171 L239,173 L240,173 L240,172 L241,169 L242,165 L244,159 L245,152 L246,144 L247,137 L250,127 L254,118 L256,108 L259,101 L260,95 L261,88 L262,83 L262,81 L262,80 L262,81 L262,82 L262,83 L262,86 L262,89 L262,92 L262,98 L262,104 L262,110 L263,116 L263,122 L263,129 L263,135 L263,141 L263,146 L263,153 L263,158 L262,165 L261,171 L261,176 L261,182 L261,188 L260,194 L260,200 L260,205 L260,210 L260,216 L259,222 L259,228 L259,234 L259,239 L259,245 L260,251 L260,257 L260,262 L261,266 L261,270 L262,273 L262,275 L262,276 L262,275 L262,273 L262,272 L262,270 L262,267 L262,263 L262,259 L261,255 L261,251 L261,248 L261,245 L261,242 L261,240 L261,239 L261,237 L261,235 L261,234 L261,232 L260,230 L260,227 L261,224 L261,220 L261,216 L262,212 L263,209 L263,206 L263,203 L264,201 L264,200 L264,199 L264,198 L264,197 L264,196 L264,195 L264,193 L265,190 L265,185 L266,180 L267,173 L268,167 L268,161 L268,156 L268,151 L269,146 L270,143 L271,140 L272,137 L272,136 L272,134 L273,134 L273,133 L273,132 L274,132 L276,130 L277,129 L279,128 L280,127 L281,127 L280,128 L280,129 L280,130 L280,132 L279,135 L279,139 L279,143 L279,146 L278,149 L278,150 L278,151 L278,150 L279,148 L280,145 L281,143 L281,142 L281,144 L281,148 L280,153 L280,159 L279,163 L280,165 L281,165 L281,164 L281,162 L283,157 L285,151 L288,145 L288,141 L288,142 L288,144 L288,147 L288,151 L288,156 L288,159 L288,161 L289,160 L290,157 L291,154 L293,151 L294,149 L294,150 L293,151 L293,154 L292,158 L292,162 L291,166 L291,170 L292,174 L292,178 L293,181 L293,183 L294,186 L294,188 L294,189 L294,190 L294,189 L295,188 L295,187 L295,186 L295,185 L296,183 L297,181 L298,178 L299,174 L300,171 L302,166 L303,162 L305,159 L305,158 L305,157 L305,156 L306,154 L308,151 L309,147 L310,143 L313,138 L314,133 L314,132 L314,133 L314,134 L314,135 L314,137 L314,140 L314,144 L314,147 L314,151 L315,154 L315,156 L315,159 L316,161 L316,163 L317,165 L317,166 L317,168 L317,169 L317,170 L317,171 L318,171 L318,172 L319,173 L320,173 L320,175 L321,176 L323,176 L325,176 L326,176 L327,176 L327,177 L327,178 L327,179 L327,180 L327,183 L327,186 L327,189 L327,194 L327,199 L327,205 L327,211 L327,217 L327,222 L327,228 L327,233 L327,237 L328,242 L328,245 L328,249 L328,251 L328,255 L328,257 L328,260 L328,264 L327,268 L327,272 L327,275 L328,277 L328,278 L328,279 L328,278 L328,276 L328,273 L328,270 L329,265 L329,260 L330,253 L330,246 L331,240 L331,235 L330,230 L331,224 L332,218 L333,212 L334,207 L334,202 L334,197 L335,192 L335,187 L336,183 L336,178 L337,174 L337,170 L338,165 L339,161 L340,159 L340,161 L340,163 L341,167 L341,171 L342,175 L342,178 L342,177 L342,176 L343,171 L344,165 L346,157 L347,152 L347,151 L347,152 L347,155 L348,159 L348,163 L349,166 L349,169 L349,170 L350,168 L350,163 L351,158 L352,151 L353,147 L353,146 L353,147 L353,148 L353,151 L353,154 L353,156 L354,156 L354,157 L354,155 L354,152 L354,149 L355,144 L356,138 L357,131 L359,124 L359,118 L360,114 L361,109 L363,105 L363,100 L364,97 L364,94 L364,91 L365,87 L366,83 L366,80 L366,75 L367,70 L368,65 L368,60 L369,56 L369,53 L370,51 L370,50 L371,49 L371,51 L371,52 L371,56 L372,61 L372,68 L373,76 L374,83 L375,90 L375,97 L376,104 L376,111 L376,118 L376,125 L377,131 L377,137 L377,143 L378,148 L378,152 L378,155 L378,156 L378,154 L379,151 L379,146 L381,139 L382,134 L382,133 L382,134 L382,135 L382,136 L383,133 L383,128 L385,120 L386,114 L386,112 L385,110 L384,109 L386,109 L387,109 L390,108 L393,108 L395,107 L396,107 L395,107 L394,108 L393,110 L392,113 L391,117 L391,121 L390,125 L390,129 L390,131 L389,132 L389,131 L389,130 L390,128 L391,127 L391,126 L391,129 L391,134 L390,141 L389,148 L390,153 L390,154 L391,155 L391,154 L391,153 L391,149 L391,146 L392,145 L392,144 L392,146 L392,150 L392,155 L392,160 L392,166 L392,170 L393,172 L393,173 L393,171 L394,168 L395,163 L396,156 L398,150 L399,146 L399,144 L399,145 L399,146 L399,148 L400,151 L400,154 L401,158 L401,162 L402,166 L403,170 L403,173 L404,176 L405,180 L405,183 L406,185 L406,189 L407,192 L407,195 L408,198 L408,202 L408,205 L408,209 L408,212 L409,215 L410,218 L410,222 L411,226 L412,230 L413,234 L413,238 L414,242 L414,246 L415,251 L415,255 L416,258 L416,261 L416,264 L417,266 L417,268 L417,270 L417,271 L417,273 L417,274 L417,273 L418,271 L418,269 L418,267 L418,264 L418,261 L418,258 L418,255 L418,252 L418,249 L418,246 L418,242 L419,238 L419,234 L420,229 L420,224 L421,217 L421,211 L422,204 L423,198 L423,190 L424,183 L425,176 L426,169 L427,163 L427,157 L428,151 L429,146 L430,142 L430,137 L430,133 L431,129 L431,124 L432,121 L432,118 L432,116 L432,115 L432,116 L433,117 L433,120 L434,124 L435,129 L437,135 L438,140 L439,143 L439,144 L439,143 L439,142 L440,139 L441,136 L442,133 L442,132 L442,134 L442,138 L442,143 L442,149 L443,154 L444,158 L445,158 L445,156 L447,152 L448,149 L449,146 L449,148 L449,151 L448,156 L448,160 L448,163 L449,164 L449,163 L449,162 L450,158 L452,154 L453,149 L454,147 L454,149 L454,151 L454,156 L454,160 L454,164 L455,166 L456,165 L456,163 L458,159 L460,154 L462,151 L462,150 L462,151 L462,154 L462,156 L461,159 L461,161 L461,162 L461,161 L462,159 L462,156 L463,153 L464,150 L465,147 L466,145 L466,143 L467,141 L467,140 L467,139 L467,137 L467,136 L467,134 L467,132 L467,130 L468,128 L469,125 L469,122 L469,119 L470,117 L470,114 L471,112 L471,111 L471,109 L471,107 L471,105 L471,102 L472,101 L472,99 L472,98 L472,97 L472,96 L472,95 L472,94 L472,93 L473,93 L473,92 L473,93 L473,94 L473,95 L473,97 L473,101 L473,104 L474,108 L474,111 L474,114 L475,117 L475,120 L476,122 L476,124 L476,127 L476,129 L476,131 L476,133 L476,135 L476,137 L476,139 L476,142 L476,145 L476,149 L476,153 L476,156 L476,160 L476,164 L476,168 L476,172 L476,175 L476,178 L476,182 L476,185 L476,189 L477,192 L477,195 L477,198 L478,201 L478,204 L478,206 L478,208 L478,210 L478,212 L478,214 L478,215 L478,214 L479,213 L479,212 L479,209 L479,205 L480,202 L481,197 L481,193 L482,189 L482,185 L482,183 L482,180 L482,178 L482,175 L482,172 L482,169 L483,167 L483,164 L483,161 L484,158 L484,154 L485,151 L485,148 L486,144 L486,141 L486,139 L487,136 L487,135 L487,134 L487,135 L488,136 L488,139 L488,142 L489,146 L489,152 L490,158 L491,164 L492,170 L493,173 L494,173 L495,170 L496,164 L497,159 L498,156 L498,154 L497,155 L497,158 L497,162 L497,166 L496,170 L496,173 L497,171 L498,168 L498,165 L499,162 L500,160 L500,159 L500,160 L500,162 L501,164 L501,166 L501,167 L501,168 L501,167 L501,164 L502,161 L502,156 L502,153 L502,150 L502,148 L501,146 L501,144 L500,143 L500,142 L499,141 L500,141 L501,141 L502,141 L505,140 L507,139 L508,139 L509,139 L508,139 L508,140 L508,141 L508,143 L508,145 L509,148 L509,151 L509,154 L509,158 L510,160 L510,162 L511,163 L511,162 L511,161 L511,160 L511,158 L511,156 L512,154 L512,153 L512,152 L512,151 L512,152 L512,154 L512,156 L512,159 L512,163 L511,168 L511,173 L511,178 L511,183 L511,188 L511,194 L511,201 L511,207 L511,214 L511,220 L511,227 L511,233 L511,240 L511,246 L511,251 L511,255 L511,259 L512,262 L512,263 L512,262 L512,260 L513,256 L515,249 L516,241 L518,230 L519,219 L520,208 L522,196 L523,185 L524,174 L525,163 L527,152 L528,142 L529,133 L530,124 L530,116 L530,108 L531,100 L531,94 L532,88 L532,82 L532,78 L532,74 L532,71 L532,70 L532,69 L532,70 L533,71 L533,73 L533,75 L534,77 L534,79 L535,81 L535,83 L536,84 L536,85 L537,84 L537,82 L539,79 L540,77 L541,76 L541,77 L541,79 L540,82 L540,84 L540,85 L541,83 L542,80 L543,77 L544,75 L545,72 L545,69 L546,66 L547,63 L547,64 L547,66 L547,68 L547,71 L547,76 L547,81 L547,87 L547,93 L547,100 L548,106 L548,112 L548,119 L548,125 L548,132 L548,139 L547,145 L547,151 L546,157 L546,163 L546,168 L546,173 L547,178 L547,182 L547,186 L547,190 L547,195 L548,199 L548,203 L548,208 L548,212 L548,216 L548,221 L548,225 L549,228 L549,231 L549,233 L549,235 L549,236 L549,235 L549,236 L549,237 L549,238 L549,239 L549,241 L549,243 L550,244 L550,246 L550,245 L550,244 L550,242 L551,241 L552,238 L553,234 L553,232 L554,229 L554,226 L555,223 L556,220 L557,216 L558,212 L559,209 L560,205 L561,202 L562,199 L562,196 L562,194 L563,192 L563,190 L564,187 L564,185 L565,181 L566,177 L567,173 L569,168 L570,161 L572,155 L574,148 L576,140 L579,133 L581,125 L582,118 L584,112 L586,105 L587,100 L589,94 L591,88 L594,81 L596,75 L598,70 L600,64 L602,58 L605,52 L608,47 L610,43 L612,40 L613,38 L614,37 L614,36 L614,37 L614,39 L615,42 L615,48 L616,56 L616,63 L617,71 L618,78 L618,85 L617,92 L617,99 L616,106 L616,113 L615,119 L614,124 L613,130 L613,135 L612,141 L611,146 L611,151 L611,154 L611,157 L611,158 L611,159 L611,160 L611,159 L611,158 L611,157 L611,156 L611,155 L611,156 L612,155 L613,152 L615,147 L618,140 L621,134 L623,130 L624,128 L624,129 L624,132 L624,136 L625,141 L626,146 L627,150 L628,152 L628,151 L628,149 L630,145 L632,140 L633,137 L633,136 L633,137 L633,139 L633,141 L632,145 L632,147 L632,148 L632,147 L633,144 L634,139 L635,136 L635,134 L635,135 L635,137 L635,140 L635,143 L635,145 L635,146 L636,142 L637,138 L638,135 L638,134 L638,137 L638,140 L638,144 L638,148 L638,152 L639,156 L640,159 L641,162 L642,166 L643,170 L643,174 L644,178 L645,183 L645,188 L645,192 L645,197 L645,201 L646,206 L646,211 L647,215 L648,221 L648,226 L648,232 L649,237 L649,243 L650,248 L651,253 L651,258 L652,262 L653,265 L654,268 L655,270 L655,271 L655,270 L655,268 L655,266 L655,264 L655,260 L655,255 L654,249 L654,244 L654,240 L654,235 L654,232 L653,227 L652,224 L652,220 L652,215 L652,210 L652,205 L652,200 L651,195 L651,190 L651,184 L651,179 L651,174 L652,171 L652,168 L652,166 L652,165 L652,163 L652,162 L652,161 L652,159 L652,158 L652,156 L652,153 L652,150 L652,147 L652,144 L652,141 L652,139 L652,136 L652,134 L652,133 L653,132 L653,131 L653,130 L653,129 L654,128 L654,127 L655,125 L655,123 L655,121 L656,119 L656,117 L656,118 L656,119 L656,121 L656,124 L656,127 L656,131 L655,134 L655,138 L655,140 L655,142 L655,144 L655,145 L656,145 L656,144 L656,142 L657,138 L659,133 L660,130 L660,129 L659,131 L659,134 L659,136 L658,139 L658,141 L659,139 L660,136 L661,133 L662,131 L662,129 L662,130 L662,132 L662,136 L662,139 L662,141 L662,143 L662,142 L664,139 L665,136 L667,133 L667,132 L666,135 L665,138 L665,141 L665,144 L665,146 L666,145 L668,141 L670,139 L670,137 L670,136 L670,137 L670,139 L670,142 L670,145 L670,148 L670,150 L670,151 L671,152 L671,151 L672,150 L672,148 L673,144 L674,141 L674,139 L675,135 L676,132 L677,128 L677,125 L678,122 L678,119 L680,115 L682,111 L683,106 L684,102 L684,99 L685,95 L687,91 L688,88 L688,85 L689,83 L689,85 L689,88 L689,92 L689,98 L689,105 L689,111 L689,117 L689,122 L689,126 L689,130 L689,134 L689,138 L689,141 L690,144 L690,146 L691,147 L691,149 L691,150 L691,151 L691,153 L691,156 L692,160 L692,164 L692,169 L693,173 L693,176 L693,177 L693,176 L694,174 L696,171 L698,166 L700,161 L701,159 L701,158 L701,159 L701,161 L701,163 L701,166 L701,168 L701,170 L701,171 L701,169 L703,165 L706,159 L708,153 L710,149 L710,150 L711,152 L711,155 L713,158 L715,163 L718,166 L719,166 L719,162 L721,158 L722,154 L723,153 L723,154 L723,156 L722,159 L722,163 L722,167 L723,170 L724,171 L725,169 L726,166 L728,160 L729,156 L730,155 L729,157 L728,159 L728,163 L728,165 L728,166 L728,167 L728,166 L729,163 L731,158 L732,153 L732,149 L733,144 L734,141 L735,138 L735,137 L735,138 L735,139 L735,140 L735,141 L735,140 L735,141 L735,142 L734,143 L734,144 L734,146 L734,147 L734,148 L734,150 L734,153 L734,156 L734,159 L734,162 L734,166 L734,169 L734,172 L734,175 L734,178 L734,181 L733,185 L733,189 L733,193 L733,198 L732,204 L731,210 L730,217 L730,222 L730,226 L730,229 L731,226 L731,220 L733,212 L735,201 L736,190 L737,180 L738,172 L739,166 L739,162 L740,159 L740,158 L740,159 L740,162 L740,165 L740,169 L740,175 L740,181 L740,188 L740,194 L741,199 L742,202 L743,203 L743,202 L743,201 L744,198 L745,193 L746,189 L748,182 L751,175 L755,168 L757,162 L758,160 L758,159 L758,160 L758,162 L758,165 L758,170 L758,174 L759,179 L760,183 L760,185 L761,185 L761,184 L761,182 L761,179 L762,174 L763,168 L764,159 L765,151 L766,142 L767,134 L769,126 L770,119 L772,112 L774,105 L775,101 L775,100 L775,103 L775,107 L775,114 L774,122 L773,132 L772,143 L771,152 L770,160 L770,168 L770,175 L770,182 L770,188 L770,194 L770,200 L770,205 L770,211 L770,217 L770,222 L770,225 L771,227 L771,228 L771,227 L771,226 L771,223 L772,217 L773,209 L775,198 L775,187 L776,178 L777,172 L778,168 L778,166 L778,167 L779,171 L779,175 L780,180 L780,186 L781,192 L781,195 L782,195 L782,193 L782,190 L783,185 L786,178 L788,171 L789,168 L789,169 L789,172 L789,175 L789,178 L789,181 L791,183 L791,184 L792,183 L793,178 L795,173 L797,168 L798,165 L798,166 L798,167 L798,170 L798,174 L799,178 L800,181 L801,182 L802,179 L804,174 L806,168 L807,163 L807,161 L806,161 L806,162 L806,163 L806,164 L806,166 L807,166 L808,162 L809,154 L810,144 L811,132 L813,121 L815,110 L818,98 L820,87 L822,78 L824,71 L826,66 L827,63 L828,63 L828,64 L828,67 L828,72 L827,80 L827,89 L825,100 L824,111 L822,122 L821,132 L819,141 L818,151 L817,161 L816,171 L814,181 L812,192 L810,202 L809,213 L807,225 L806,236 L804,246 L804,254 L804,261 L803,268 L802,273 L802,276 L802,278 L802,276 L803,272 L805,264 L808,255 L811,243 L815,230 L818,219 L819,209 L821,201 L821,196 L822,194 L822,195 L822,199 L822,206 L822,213 L821,221 L821,229 L821,233 L822,233 L822,232 L822,230 L823,226 L825,220 L828,212 L830,206 L831,202 L831,203 L831,205 L832,209 L833,215 L834,221 L836,226 L836,228 L837,228 L837,227 L838,223 L839,218 L841,213 L843,210 L843,208 L843,209 L843,210 L844,213 L846,215 L846,217 L847,218 L847,213 L848,204 L850,192 L851,182 L851,176 L851,173 L851,175 L851,180 L851,188 L851,198 L850,210 L850,224 L848,237 L847,247 L846,257 L844,266 L844,274 L843,281 L843,288 L843,293 L842,299 L842,305 L841,308 L841,310 L842,309 L843,305 L846,298 L849,288 L852,274 L854,259 L855,246 L857,233 L859,223 L860,217 L860,214 L860,216 L861,222 L862,230 L862,239 L862,249 L862,258 L862,262 L862,263 L862,262 L863,259 L865,253 L868,244 L870,237 L873,231 L873,229 L873,232 L873,236 L874,241 L875,246 L877,251 L877,252 L878,252 L878,250 L879,246 L881,239 L883,233 L885,229 L886,228 L886,229 L886,232 L887,237 L887,242 L887,248 L888,252 L889,253 L889,251 L889,248 L889,242 L890,235 L890,228 L890,224 L890,222 L890,223 L890,224 L890,222 L890,214 L891,200 L892,184 L893,170 L893,156 L894,141 L896,126 L899,112 L902,100 L904,90 L906,83 L907,80 L907,82 L907,87 L906,94 L905,104 L902,115 L898,129 L894,144 L891,155 L890,164 L889,172 L887,177 L887,179 L887,178 L888,175 L890,169 L893,163 L896,155 L897,152 L898,149 L900,145 L901,144 L901,145 L901,147 L901,149 L901,151 L901,156 L902,161 L903,166 L904,168 L904,167 L905,164 L906,159 L907,152 L909,144 L911,138 L912,136 L912,137 L912,140 L913,144 L914,149 L914,152 L915,153 L915,150 L916,143 L917,134 L920,124 L921,118 L921,117 L921,119 L921,124 L921,128 L921,132 L922,142 L924,153 L925,161 L926,165 L926,166 L926,165 L926,162 L928,155 L931,146 L935,135 L938,128 L939,126 L938,129 L937,137 L935,149 L932,163 L930,177 L929,189 L929,198 L929,203 L929,205 L929,204 L930,200 L934,194 L936,190 L939,185 L943,178 L945,174 L945,177 L944,180 L944,185 L946,189 L954,191 L963,190 L974,186" fill="none" stroke="red" stroke-width="3"/></svg>