<svg xmlns="http://www.w3.org/2000/svg" xmlns:xlink="http://www.w3.org/1999/xlink" version="1.1" class="marks" width="1012" height="385" viewBox="0 0 1012 385"><rect width="1012" height="385" fill="white"/><rect width="1012" height="385" fill="white"/><path d="M8,100 L8,100 L8,100 L9,103 L10,104 L13,113 L18,125 L23,137 L27,147 L31,156 L34,164 L36,170 L37,176 L38,182 L39,185 L40,188 L40,188 L40,188 L40,187 L40,184 L40,175 L40,170 L40,159 L40,154 L41,149 L41,146 L41,144 L41,142 L41,140 L41,138 L41,138 L41,138 L41,138 L41,139 L41,140 L41,143 L41,143 L42,142 L42,139 L43,125 L46,106 L47,86 L47,73 L47,70 L47,71 L46,76 L46,85 L45,91 L45,95 L45,96 L46,96 L46,96 L46,95 L46,94 L49,86 L53,74 L57,64 L60,57 L61,53 L61,53 L61,58 L62,68 L62,84 L64,95 L65,103 L65,104 L65,103 L66,101 L67,97 L72,83 L80,63 L86,43 L91,28 L91,28 L91,28 L91,30 L90,39 L90,53 L89,72 L89,91 L89,101 L89,106 L89,106 L89,106 L89,105 L90,98 L92,84 L97,55 L100,41 L101,35 L101,34 L101,34 L101,35 L101,36 L101,40 L101,47 L101,55 L101,61 L101,63 L101,64 L101,65 L102,66 L102,73 L103,81 L104,91 L106,102 L106,106 L106,106 L106,106 L107,106 L107,105 L107,101 L108,98 L108,93 L109,90 L109,90 L109,90 L109,91 L110,97 L110,101 L110,113 L111,117 L111,118 L111,118 L111,117 L111,116 L112,109 L113,99 L114,89 L114,88 L114,88 L114,89 L115,95 L116,113 L117,125 L119,134 L119,137 L119,137 L119,137 L120,135 L121,128 L124,116 L130,92 L133,83 L133,82 L133,83 L134,85 L134,94 L136,109 L137,118 L138,121 L138,121 L138,121 L138,121 L140,115 L142,104 L145,92 L146,86 L146,86 L146,86 L147,93 L148,105 L148,121 L150,147 L152,154 L152,154 L152,154 L152,152 L154,141 L157,122 L162,100 L165,86 L165,82 L165,82 L165,84 L166,87 L166,98 L167,111 L169,121 L169,121 L169,121 L170,116 L171,109 L172,104 L173,99 L173,100 L173,102 L173,108 L174,115 L175,119 L175,119 L175,119 L175,119 L176,114 L177,107 L178,101 L179,100 L179,100 L179,102 L180,109 L182,116 L182,121 L183,122 L183,122 L183,122 L184,118 L185,111 L189,95 L191,86 L192,84 L192,84 L192,84 L192,93 L192,105 L193,120 L194,133 L195,137 L195,138 L195,137 L195,135 L196,128 L197,117 L198,109 L198,107 L198,107 L198,108 L199,112 L199,122 L200,134 L201,136 L201,137 L201,137 L201,136 L201,133 L203,123 L204,118 L205,113 L205,113 L205,113 L205,115 L205,118 L206,124 L206,129 L207,132 L207,132 L207,132 L207,130 L208,124 L210,113 L212,102 L213,95 L213,94 L213,94 L213,99 L214,115 L214,132 L215,146 L216,156 L216,158 L216,158 L216,157 L217,155 L218,140 L221,117 L222,109 L223,105 L223,106 L223,107 L223,122 L223,137 L223,147 L224,155 L224,156 L224,156 L224,156 L225,152 L226,132 L228,113 L230,104 L230,101 L230,102 L231,104 L231,115 L232,132 L233,145 L234,155 L234,157 L234,157 L234,156 L234,154 L235,147 L237,137 L239,126 L239,126 L239,127 L239,135 L240,149 L241,158 L242,163 L242,164 L242,164 L242,162 L243,159 L245,148 L247,136 L248,130 L248,130 L249,130 L250,134 L251,143 L251,149 L252,153 L252,155 L253,155 L253,154 L253,153 L254,150 L256,137 L260,119 L261,115 L261,114 L261,115 L261,123 L263,142 L263,155 L265,166 L265,166 L265,166 L265,161 L265,151 L267,134 L267,122 L267,119 L267,119 L267,120 L267,129 L267,139 L268,150 L268,154 L268,155 L268,155 L268,154 L268,151 L269,141 L271,129 L274,114 L275,107 L275,107 L276,110 L277,124 L279,139 L280,148 L280,152 L281,152 L281,152 L281,152 L281,146 L283,136 L287,116 L288,111 L289,108 L289,108 L289,112 L290,125 L291,136 L292,146 L293,150 L293,150 L293,150 L293,149 L294,144 L296,136 L298,122 L301,110 L301,108 L301,108 L303,114 L305,130 L306,143 L307,152 L308,156 L309,156 L309,155 L309,154 L310,150 L311,142 L312,135 L313,132 L313,132 L313,133 L314,143 L315,148 L315,153 L316,156 L316,156 L316,155 L316,151 L317,148 L320,132 L321,125 L321,124 L321,124 L322,128 L322,132 L323,161 L323,171 L323,197 L324,201 L324,206 L324,206 L324,206 L324,207 L325,207 L325,208 L325,209 L325,210 L325,209 L325,209 L326,207 L327,201 L330,183 L334,158 L339,111 L342,86 L344,72 L344,70 L344,70 L345,76 L345,96 L345,140 L347,188 L350,230 L355,275 L356,279 L356,279 L356,278 L357,272 L359,253 L360,238 L367,178 L372,142 L375,128 L375,127 L375,128 L375,154 L378,192 L380,222 L384,247 L385,250 L385,250 L385,249 L386,247 L386,234 L389,199 L391,180 L391,171 L391,172 L391,173 L392,175 L392,181 L393,189 L393,193 L393,194 L393,194 L394,193 L395,188 L397,177 L399,165 L400,161 L400,161 L400,163 L401,168 L402,177 L404,185 L405,189 L405,190 L405,189 L406,185 L408,174 L411,160 L413,145 L414,140 L414,141 L414,145 L415,154 L417,162 L418,166 L418,166 L418,165 L419,159 L420,147 L421,134 L422,122 L422,118 L422,118 L422,119 L422,121 L422,128 L423,137 L423,143 L424,144 L424,144 L424,144 L424,143 L426,131 L427,122 L428,115 L429,113 L429,113 L429,115 L431,128 L434,143 L435,149 L435,152 L435,152 L435,152 L436,150 L437,143 L441,125 L443,117 L444,111 L444,110 L444,111 L445,117 L447,129 L449,142 L451,155 L453,164 L454,165 L454,165 L454,164 L454,161 L455,153 L460,133 L463,118 L465,113 L465,113 L466,116 L468,125 L469,132 L471,141 L471,142 L471,143 L471,142 L472,139 L473,136 L476,117 L480,96 L482,83 L483,79 L483,79 L483,86 L484,110 L484,137 L485,165 L487,190 L488,196 L488,197 L488,197 L489,196 L490,187 L492,167 L495,135 L498,101 L498,94 L498,94 L498,95 L499,103 L499,127 L499,156 L501,181 L501,186 L502,188 L502,188 L502,186 L503,175 L503,158 L504,138 L504,126 L504,126 L504,126 L505,133 L506,149 L507,172 L510,195 L510,198 L511,199 L511,199 L511,198 L511,189 L512,168 L512,142 L512,113 L511,95 L510,86 L510,84 L510,84 L510,85 L511,88 L512,95 L517,114 L518,117 L521,125 L523,129 L524,130 L524,130 L525,128 L530,117 L537,102 L543,89 L550,71 L551,63 L552,60 L552,61 L552,62 L553,67 L555,88 L556,95 L559,115 L559,120 L560,121 L560,120 L560,117 L560,103 L561,84 L561,70 L561,60 L561,59 L561,59 L562,71 L563,95 L563,104 L565,135 L567,142 L567,142 L567,142 L567,140 L568,133 L568,123 L568,114 L568,110 L568,110 L568,111 L569,119 L570,136 L571,146 L573,150 L573,151 L573,150 L573,150 L573,144 L573,132 L575,115 L575,102 L576,99 L576,99 L576,100 L578,108 L579,121 L583,143 L587,157 L588,160 L588,160 L588,160 L588,160 L588,157 L590,147 L593,132 L596,121 L603,91 L605,82 L605,81 L605,81 L605,82 L606,84 L609,109 L611,131 L614,153 L617,168 L617,171 L617,171 L617,169 L617,159 L617,146 L619,126 L619,111 L619,109 L619,110 L620,118 L621,132 L623,150 L625,159 L626,162 L626,162 L626,162 L626,163 L626,163 L627,163 L627,165 L627,166 L628,167 L628,169 L629,170 L629,170 L630,167 L633,153 L637,131 L643,106 L647,83 L649,70 L649,66 L649,65 L649,64 L649,64 L649,64 L649,64 L649,63 L649,63 L650,63 L650,61 L650,61 L650,60 L650,59 L650,58 L650,59 L650,59 L651,61 L654,76 L657,92 L662,110 L665,119 L667,127 L669,133 L670,139 L672,148 L673,156 L675,166 L676,174 L678,183 L680,193 L680,195 L680,196 L680,196 L680,196 L680,197 L681,198 L681,201 L681,204 L681,208 L682,214 L683,222 L683,227 L683,235 L683,236 L683,236 L683,235 L683,230 L682,219 L680,191 L679,161 L679,121 L679,95 L679,85 L679,85 L679,85 L679,85 L679,87 L680,98 L682,126 L683,149 L685,171 L686,178 L686,179 L686,178 L686,176 L686,162 L685,138 L685,115 L685,95 L685,92 L685,93 L685,97 L687,112 L691,144 L693,155 L694,160 L694,160 L694,160 L695,160 L695,155 L696,141 L699,118 L699,94 L699,79 L699,79 L699,79 L699,81 L699,89 L701,110 L702,127 L704,147 L706,162 L708,167 L708,168 L708,168 L708,167 L708,156 L708,133 L705,98 L704,35 L715,47 L727,115 L736,159 L742,183 L744,189 L744,190 L744,188 L747,177 L757,129 L762,106 L764,100 L764,101 L765,104 L766,121 L769,137 L771,151 L773,164 L774,167 L774,168 L774,168 L774,162 L775,150 L776,136 L776,123 L777,119 L777,120 L777,122 L778,130 L783,162 L785,182 L787,191 L788,192 L788,192 L788,191 L789,189 L789,175 L791,153 L792,141 L792,137 L792,137 L793,143 L795,155 L799,171 L801,179 L801,181 L801,181 L802,181 L802,179 L803,173 L804,166 L804,162 L804,162 L805,167 L807,175 L808,180 L811,190 L811,192 L812,192 L812,192 L812,190 L813,184 L814,177 L815,170 L815,170 L815,170 L816,173 L820,192 L821,197 L822,206 L824,210 L824,210 L824,210 L824,208 L826,198 L827,185 L829,168 L830,156 L831,153 L831,154 L831,156 L833,173 L835,181 L836,187 L836,188 L837,188 L837,188 L837,187 L837,184 L839,171 L840,158 L841,152 L841,149 L841,149 L842,150 L842,152 L844,166 L845,177 L846,187 L846,191 L847,191 L847,190 L847,189 L847,184 L848,174 L850,157 L851,148 L851,145 L851,145 L852,147 L854,172 L855,193 L857,207 L857,212 L857,212 L857,212 L858,212 L858,208 L859,194 L862,174 L865,148 L866,134 L867,131 L867,131 L867,136 L867,153 L868,182 L869,224 L869,241 L870,248 L871,255 L872,255 L872,255 L872,254 L872,253 L873,251 L876,237 L881,213 L883,203 L889,166 L890,160 L890,159 L890,159 L890,160 L891,162 L891,179 L895,201 L901,249 L903,271 L907,290 L907,292 L907,292 L907,292 L907,291 L908,291 L908,289 L908,284 L909,275 L910,258 L911,214 L911,187 L911,157 L911,149 L911,143 L911,143 L911,143 L911,143 L911,141 L911,140 L911,141 L911,142 L912,152 L913,163 L915,172 L916,175 L916,174 L917,170 L918,163 L921,153 L923,146 L923,144 L923,145 L924,147 L926,157 L928,165 L930,173 L931,178 L933,181 L933,182 L933,181 L933,179 L933,175 L934,172 L934,171 L934,172 L935,178 L936,185 L937,191 L938,193 L938,193 L938,193 L938,192 L938,190 L939,178 L939,172 L939,170 L939,170 L939,170 L940,172 L941,177 L942,182 L943,186 L944,187 L944,187 L944,187 L944,188 L945,188 L945,188 L945,189 L945,189" fill="none" stroke="red" stroke-width="3"/></svg>