<svg xmlns="http://www.w3.org/2000/svg" version="1.1" xmlns:xlink="http://www.w3.org/1999/xlink" xmlns:svgjs="http://svgjs.dev/svgjs" width="950" height="375" id="chartSvg"><path d="M13,239 L12,239 L12,240 L13,240 L13,239 L13,238 L13,237 L13,236 L14,235 L14,234 L14,233 L14,232 L15,232 L16,230 L17,228 L18,224 L19,220 L21,215 L23,211 L25,208 L28,206 L30,204 L32,203 L34,202 L36,200 L37,198 L40,197 L42,196 L44,195 L47,194 L49,193 L52,193 L55,192 L58,192 L61,191 L64,191 L68,191 L71,192 L73,193 L76,195 L80,196 L84,197 L88,199 L92,200 L95,202 L97,204 L101,206 L104,208 L107,210 L109,212 L112,213 L114,214 L116,215 L119,217 L121,219 L123,221 L125,223 L127,225 L129,227 L130,229 L133,231 L135,233 L138,234 L140,236 L143,237 L145,239 L147,239 L150,240 L153,241 L156,242 L159,243 L161,244 L164,245 L166,246 L168,246 L171,246 L173,246 L176,246 L178,246 L181,246 L183,246 L186,246 L189,246 L192,246 L195,246 L199,247 L201,247 L204,248 L206,248 L209,248 L211,248 L213,248 L215,248 L217,248 L219,248 L221,247 L223,247 L225,247 L227,247 L230,247 L233,247 L235,247 L237,248 L240,248 L242,248 L245,249 L248,249 L251,249 L254,249 L256,249 L259,249 L263,249 L266,249 L270,249 L273,249 L277,250 L280,250 L284,251 L288,251 L291,252 L295,254 L299,255 L303,256 L306,257 L310,257 L313,258 L317,259 L320,260 L324,260 L327,261 L330,261 L333,262 L337,263 L341,264 L344,266 L347,266 L349,267 L352,267 L356,266 L359,266 L361,266 L364,266 L366,267 L368,267 L371,268 L373,268 L376,269 L378,270 L380,271 L382,271 L384,271 L386,271 L389,271 L393,272 L396,272 L398,273 L401,273 L405,273 L408,273 L413,274 L417,274 L421,274 L425,274 L430,273 L435,273 L440,272 L446,271 L452,271 L458,270 L464,268 L470,267 L476,266 L482,265 L489,264 L494,264 L500,263 L506,262 L511,261 L515,261 L521,261 L525,263 L529,264 L533,265 L537,265 L541,266 L545,266 L548,266 L551,267 L555,268 L558,268 L562,268 L565,268 L569,268 L572,267 L576,266 L579,265 L583,263 L586,261 L590,259 L594,256 L598,253 L602,250 L606,246 L611,244 L615,241 L619,238 L622,236 L626,234 L629,232 L633,231 L635,229 L638,228 L641,227 L645,225 L650,224 L654,224 L658,223 L662,223 L667,223 L671,221 L674,219 L679,216 L683,212 L688,210 L692,208 L696,205 L701,202 L706,199 L710,196 L714,194 L718,191 L724,189 L729,186 L735,183 L741,180 L746,178 L751,176 L757,175 L762,173 L767,171 L771,170 L776,169 L780,168 L784,168 L789,168 L793,168 L797,167 L801,167 L804,167 L809,167 L813,167 L817,167 L821,167 L824,167 L828,167 L832,168 L835,168 L838,168 L841,169 L844,169 L848,170 L852,171 L855,171 L858,172 L860,172 L863,172 L866,173 L870,173 L873,173 L875,174 L878,175 L881,175 L883,175 L886,176 L888,176 L890,176 L891,177 L892,178 L893,178 L894,178 L895,178 L896,178 L897,178 L899,178 L901,179 L902,179 L904,179 L906,180 L908,180 L910,180 L912,181 L914,181 L917,181 L919,182 L922,182 L924,182 L927,183 L929,183 L932,183 L934,184 L937,184 L939,184 L941,184 L943,184 L944,184 L945,183" fill="none" stroke="red" stroke-width="3"/></svg>