<svg xmlns="http://www.w3.org/2000/svg" version="1.1" xmlns:xlink="http://www.w3.org/1999/xlink" xmlns:svgjs="http://svgjs.dev/svgjs" width="950" height="375" id="chartSvg"><path d="M24,203 L25,203 L25,204 L26,204 L26,205 L27,205 L28,205 L29,205 L30,205 L31,205 L32,205 L33,205 L34,205 L34,206 L35,206 L35,207 L36,207 L37,208 L38,209 L39,209 L40,210 L41,210 L42,211 L44,211 L45,211 L46,212 L47,212 L48,212 L50,213 L51,213 L53,213 L54,214 L55,214 L56,214 L58,214 L60,214 L63,214 L65,214 L67,214 L69,213 L72,212 L74,212 L77,210 L80,209 L83,207 L86,205 L89,202 L92,200 L95,198 L99,195 L102,192 L106,190 L109,187 L112,185 L114,183 L118,181 L121,179 L123,177 L125,175 L127,173 L129,172 L132,171 L134,169 L135,168 L137,167 L139,166 L140,166 L141,165 L143,164 L144,163 L145,163 L146,163 L147,163 L148,162 L149,162 L150,162 L151,162 L152,161 L154,161 L155,161 L156,161 L157,161 L158,161 L160,161 L161,162 L162,162 L163,162 L165,163 L166,163 L168,164 L171,165 L173,166 L175,167 L177,168 L179,168 L180,169 L182,169 L183,170 L183,171 L184,171 L185,172 L186,173 L187,173 L188,173 L189,174 L190,175 L191,176 L192,176 L193,177 L195,178 L196,179 L198,180 L199,180 L200,181 L202,182 L204,183 L205,183 L207,184 L209,185 L211,186 L212,187 L214,187 L215,188 L217,188 L218,189 L219,190 L220,190 L222,191 L224,192 L225,192 L227,193 L229,193 L232,193 L234,194 L236,194 L238,194 L240,195 L242,195 L244,195 L246,195 L247,195 L249,195 L251,194 L252,194 L254,193 L256,193 L258,192 L260,191 L263,190 L266,189 L268,188 L271,187 L273,186 L276,185 L278,185 L280,185 L282,185 L284,186 L286,186 L287,187 L289,187 L291,187 L292,187 L295,186 L297,185 L300,183 L303,182 L307,180 L310,180 L312,180 L315,181 L318,182 L321,183 L324,183 L326,184 L328,184 L330,183 L333,183 L337,182 L339,180 L343,180 L347,179 L350,179 L354,178 L357,177 L360,176 L363,175 L365,174 L368,174 L371,173 L374,173 L376,173 L379,172 L381,172 L383,171 L385,171 L387,169 L390,168 L392,167 L395,165 L397,164 L400,163 L403,162 L406,161 L410,160 L413,159 L416,158 L419,157 L422,156 L425,156 L428,155 L431,154 L434,154 L437,153 L439,152 L442,151 L445,151 L447,151 L450,150 L452,149 L454,148 L456,148 L457,148 L459,148 L460,148 L463,148 L466,147 L469,147 L471,147 L474,148 L476,148 L479,149 L481,149 L483,150 L484,150 L486,151 L488,151 L489,151 L491,152 L493,152 L495,152 L497,152 L499,152 L501,152 L503,153 L504,154 L505,154 L506,155 L507,156 L508,156 L508,157 L509,158 L510,158 L511,159 L511,160 L513,160 L514,161 L515,161 L517,161 L518,161 L520,162 L521,162 L523,162 L524,162 L525,163 L526,163 L528,163 L529,163 L531,164 L533,164 L535,164 L537,165 L539,165 L541,165 L543,166 L545,166 L547,166 L549,166 L551,167 L554,168 L557,168 L559,169 L562,169 L564,170 L566,171 L569,171 L571,172 L573,173 L575,174 L577,175 L579,176 L580,177 L582,178 L584,179 L586,180 L588,181 L589,182 L591,183 L592,183 L594,184 L595,185 L597,186 L599,186 L601,187 L603,187 L605,187 L608,187 L612,187 L616,186 L620,185 L623,184 L628,183 L632,182 L636,180 L640,179 L645,178 L649,176 L654,175 L657,174 L661,173 L665,171 L669,170 L672,169 L675,168 L679,166 L682,166 L686,164 L689,163 L692,161 L696,160 L699,159 L704,158 L708,156 L713,155 L718,154 L723,154 L728,153 L731,152 L736,151 L740,151 L743,151 L747,150 L750,149 L754,149 L758,149 L762,148 L765,148 L769,148 L774,147 L778,146 L782,146 L787,146 L792,145 L798,144 L804,143 L810,142 L816,141 L823,141 L829,141 L837,140 L844,139 L852,139 L860,139 L868,139 L876,140 L885,141 L892,143 L898,145 L906,147 L913,151 L919,154 L925,158 L929,161 L931,162" fill="none" stroke="red" stroke-width="3"/></svg>